<?xml version="1.0" encoding="UTF-8" standalone="no"?><!DOCTYPE svg PUBLIC "-//W3C//DTD SVG 1.1//EN" "http://www.w3.org/Graphics/SVG/1.1/DTD/svg11.dtd"><svg width="100%" height="100%" viewBox="0 0 36 36" version="1.1" xmlns="http://www.w3.org/2000/svg" xmlns:xlink="http://www.w3.org/1999/xlink" xml:space="preserve" xmlns:serif="http://www.serif.com/" style="fill-rule:evenodd;clip-rule:evenodd;stroke-linejoin:round;stroke-miterlimit:2;"><rect id="ambulance" x="0" y="0" width="36" height="36" style="fill:none;"/><g><circle cx="18" cy="18" r="18" style="fill:#fff;"/></g><path d="M8.866,17.625l-1.866,-0c-0.187,-0 -0.43,0.115 -0.652,0.344c-0.376,0.391 -0.723,1.108 -0.723,1.481c-0,0.011 0.033,2.676 0,3.536c-0.009,0.242 0.161,0.558 0.453,0.819c0.366,0.326 0.895,0.57 1.159,0.57l1.763,-0c0.102,0 0.199,-0.041 0.27,-0.115c0.071,-0.073 0.109,-0.172 0.105,-0.274c-0,-0 -0.038,-0.81 0.52,-1.284c0.24,-0.204 0.592,-0.336 1.098,-0.327c1.588,0.028 1.632,1.636 1.632,1.636c0.006,0.203 0.172,0.364 0.375,0.364l10,-0c0.202,0 0.368,-0.16 0.375,-0.363c-0,0 0.037,-1.659 1.535,-1.637c1.65,0.025 1.715,1.639 1.715,1.639c0.008,0.202 0.173,0.361 0.375,0.361l2.068,-0c0.342,-0 0.642,-0.171 0.87,-0.447c0.283,-0.344 0.447,-0.855 0.447,-1.266l0,-9.275c0,-0.922 -0.483,-1.762 -1.385,-1.762l-12,-0c-0.435,-0 -0.765,0.101 -0.994,0.308c-0.231,0.21 -0.381,0.541 -0.381,1.067l-0,1.625c-1.448,-0.002 -3.555,-0.011 -3.577,-0.011c-0.065,0 -0.151,0.016 -0.25,0.064c-0.098,0.049 -0.235,0.147 -0.395,0.286c-0.726,0.632 -2.105,2.234 -2.537,2.661Zm-2.491,5.374c0.032,-0.882 -0,-3.538 -0,-3.549c-0,-0.21 0.199,-0.572 0.406,-0.836c0.078,-0.1 0.219,-0.215 0.248,-0.239l1.971,-0c0.046,-0 0.127,-0.007 0.223,-0.069c0.08,-0.052 0.348,-0.326 0.692,-0.703c0.558,-0.613 1.362,-1.511 1.892,-1.994c0.113,-0.103 0.254,-0.208 0.304,-0.244c0.4,0.001 2.592,0.01 3.889,0.01c0.207,-0 0.375,-0.168 0.375,-0.375l-0,-2c-0,-0.246 0.027,-0.413 0.135,-0.511c0.111,-0.1 0.28,-0.114 0.49,-0.114l12,-0c0.204,-0 0.351,0.104 0.449,0.257c0.13,0.203 0.186,0.477 0.186,0.755l0,9.275c0,0.256 -0.099,0.575 -0.276,0.788c-0.079,0.096 -0.172,0.175 -0.291,0.175l-1.743,-0c-0.134,-0.654 -0.625,-1.973 -2.404,-2c-1.659,-0.025 -2.121,1.332 -2.248,2c-0,-0 -9.345,-0 -9.345,-0c-0.127,-0.656 -0.597,-1.97 -2.321,-2c-0.741,-0.013 -1.247,0.207 -1.598,0.505c-0.523,0.445 -0.698,1.087 -0.756,1.495c0,-0 -1.416,-0 -1.416,-0c-0.045,-0 -0.104,-0.028 -0.172,-0.059c-0.16,-0.073 -0.341,-0.19 -0.487,-0.321c-0.058,-0.052 -0.111,-0.105 -0.152,-0.16c-0.02,-0.026 -0.044,-0.073 -0.051,-0.086Z" style="fill:#ec1f27;"/><path d="M8.625,24c-0,1.311 1.064,2.375 2.375,2.375c1.311,-0 2.375,-1.064 2.375,-2.375c0,-1.311 -1.064,-2.375 -2.375,-2.375c-1.311,-0 -2.375,1.064 -2.375,2.375Zm0.75,-0c-0,-0.897 0.728,-1.625 1.625,-1.625c0.897,-0 1.625,0.728 1.625,1.625c0,0.897 -0.728,1.625 -1.625,1.625c-0.897,-0 -1.625,-0.728 -1.625,-1.625Z" style="fill:#ec1f27;"/><path d="M17.5,14c-0,0.276 0.224,0.5 0.5,0.5c0.276,-0 0.5,-0.224 0.5,-0.5c-0,-0.276 -0.224,-0.5 -0.5,-0.5c-0.276,0 -0.5,0.224 -0.5,0.5Z" style="fill:#ec1f27;"/><path d="M17.125,14c-0,0.483 0.392,0.875 0.875,0.875c0.483,-0 0.875,-0.392 0.875,-0.875c-0,-0.483 -0.392,-0.875 -0.875,-0.875c-0.483,0 -0.875,0.392 -0.875,0.875Zm0.75,-0c-0,-0.069 0.056,-0.125 0.125,-0.125c0.069,-0 0.125,0.056 0.125,0.125c-0,0.069 -0.056,0.125 -0.125,0.125c-0.069,-0 -0.125,-0.056 -0.125,-0.125Z" style="fill:#ec1f27;"/><path d="M27.5,14c0,0.276 0.224,0.5 0.5,0.5c0.276,-0 0.5,-0.224 0.5,-0.5c0,-0.276 -0.224,-0.5 -0.5,-0.5c-0.276,-0 -0.5,0.224 -0.5,0.5Z" style="fill:#ec1f27;"/><path d="M27.125,14c0,0.483 0.392,0.875 0.875,0.875c0.483,-0 0.875,-0.392 0.875,-0.875c0,-0.483 -0.392,-0.875 -0.875,-0.875c-0.483,-0 -0.875,0.392 -0.875,0.875Zm0.75,-0c0,-0.069 0.056,-0.125 0.125,-0.125c0.069,-0 0.125,0.056 0.125,0.125c0,0.069 -0.056,0.125 -0.125,0.125c-0.069,-0 -0.125,-0.056 -0.125,-0.125Z" style="fill:#ec1f27;"/><path d="M22.625,24c0,1.311 1.064,2.375 2.375,2.375c1.311,0 2.375,-1.064 2.375,-2.375c-0,-1.311 -1.064,-2.375 -2.375,-2.375c-1.311,-0 -2.375,1.064 -2.375,2.375Zm0.75,0c0,-0.897 0.728,-1.625 1.625,-1.625c0.897,0 1.625,0.728 1.625,1.625c-0,0.897 -0.728,1.625 -1.625,1.625c-0.897,0 -1.625,-0.728 -1.625,-1.625Z" style="fill:#ec1f27;"/><path d="M6.476,20.435l23.534,0c0.207,0 0.375,-0.168 0.375,-0.375c0,-0.207 -0.168,-0.375 -0.375,-0.375l-23.534,0c-0.207,0 -0.375,0.168 -0.375,0.375c0,0.207 0.168,0.375 0.375,0.375Z" style="fill:#ec1f27;"/><path d="M16.375,20l-0,-7c0,-0.207 -0.168,-0.375 -0.375,-0.375c-0.207,-0 -0.375,0.168 -0.375,0.375l-0,7c0,0.207 0.168,0.375 0.375,0.375c0.207,-0 0.375,-0.168 0.375,-0.375Z" style="fill:#ec1f27;"/><path d="M21.712,14.598l-0.672,-0c-0.533,-0 -0.915,0.368 -0.915,0.931l-0,0.851c-0,0.597 0.446,0.98 0.915,0.98l0.672,0c0,0 0,0.731 0,0.731c0,0.513 0.357,0.833 0.833,0.833l0.919,-0c0.454,-0 0.833,-0.335 0.833,-0.833l-0,-0.731c-0,0 0.607,0 0.607,0c0.304,0 0.535,-0.114 0.694,-0.294c0.148,-0.168 0.237,-0.402 0.237,-0.686l-0,-0.851c-0,-0.493 -0.37,-0.931 -0.931,-0.931l-0.607,-0c-0,-0 -0,-0.64 -0,-0.64c-0,-0.431 -0.402,-0.833 -0.833,-0.833c-0.008,0 -0.909,-0 -0.93,0c-0.262,0.008 -0.461,0.107 -0.6,0.252c-0.14,0.148 -0.222,0.349 -0.222,0.581l0,0.64Zm-0.672,0.75l1.422,-0l0,-1.39c0,-0.024 0,-0.048 0.015,-0.063c0.017,-0.018 0.046,-0.019 0.079,-0.02l0.908,0c0.043,0 0.083,0.04 0.083,0.083l-0,1.39l1.357,-0c0.109,-0 0.181,0.085 0.181,0.181l-0,0.851c-0,0.076 -0.009,0.144 -0.049,0.189c-0.029,0.033 -0.076,0.041 -0.132,0.041l-1.357,0l-0,1.481c-0,0.049 -0.038,0.083 -0.083,0.083l-0.919,-0c-0.047,-0 -0.083,-0.032 -0.083,-0.083l0,-1.481l-1.422,0c-0.099,0 -0.165,-0.104 -0.165,-0.23l0,-0.851c0,-0.106 0.065,-0.181 0.165,-0.181Z" style="fill:#ec1f27;"/><path d="M13.686,15.194l0.111,0.17l2.576,0l0.002,-0.373c-0,-0 0.007,-1.616 0.002,-1.94c-0.005,-0.339 -0.311,-0.42 -0.319,-0.421c-0.469,-0.074 -0.895,0.055 -1.258,0.296c-0.493,0.328 -0.863,0.869 -1.051,1.315c-0.107,0.255 -0.154,0.483 -0.152,0.637c0.003,0.137 0.041,0.242 0.089,0.316Zm1.942,-1.819c0.001,0.354 -0,0.884 -0.002,1.239l-1.216,0c0.009,-0.028 0.02,-0.056 0.03,-0.082c0.118,-0.278 0.327,-0.609 0.608,-0.853c0.168,-0.146 0.363,-0.262 0.58,-0.304Z" style="fill:#ec1f27;"/><path d="M11.735,17.735c-0.107,0.107 -0.139,0.268 -0.081,0.409c0.058,0.14 0.194,0.231 0.346,0.231l2,0c0.207,0 0.375,-0.168 0.375,-0.375l-0,-1c0,-0.207 -0.168,-0.375 -0.375,-0.375l-1,0c-0.099,0 -0.195,0.04 -0.265,0.11l-1,1Zm1.17,-0.11l0.25,-0.25c0,0 0.47,0 0.47,0c-0,0 -0,0.25 -0,0.25l-0.72,-0Z" style="fill:#ec1f27;"/></svg>