<?xml version="1.0" encoding="UTF-8" standalone="no"?><!DOCTYPE svg PUBLIC "-//W3C//DTD SVG 1.1//EN" "http://www.w3.org/Graphics/SVG/1.1/DTD/svg11.dtd"><svg width="100%" height="100%" viewBox="0 0 36 36" version="1.1" xmlns="http://www.w3.org/2000/svg" xmlns:xlink="http://www.w3.org/1999/xlink" xml:space="preserve" xmlns:serif="http://www.serif.com/" style="fill-rule:evenodd;clip-rule:evenodd;stroke-linejoin:round;stroke-miterlimit:2;"><rect id="apple" x="0" y="0" width="36" height="36" style="fill:none;"/><g id="bg-white"><circle cx="18" cy="18" r="18" style="fill:#fff;"/></g><path d="M20.029,27.539c0.008,0.039 0.017,0.084 0.026,0.117c0.028,0.097 0.07,0.194 0.141,0.287c0.158,0.207 0.523,0.455 1.558,0.455c0.825,-0 1.674,-0.559 2.436,-1.537c1.599,-2.054 2.9,-5.983 3.162,-9.38c0.126,-1.646 0.007,-3.167 -0.421,-4.3c-0.471,-1.248 -1.308,-2.047 -2.563,-2.147c-1.436,-0.113 -2.399,0.091 -3.307,0.336c-0.843,0.227 -1.634,0.495 -2.763,0.535c-0.895,0.032 -1.826,-0.221 -2.793,-0.457c-1.044,-0.254 -2.127,-0.492 -3.246,-0.411c-3.11,0.223 -3.986,3.077 -3.554,6.491c0.428,3.383 2.113,7.289 3.81,9.337c0.807,0.973 1.645,1.526 2.35,1.533l0.003,0c0.559,0.006 0.838,-0.2 1.06,-0.438c0.073,-0.079 0.138,-0.164 0.208,-0.244c0.092,-0.104 0.203,-0.188 0.437,-0.178l-0,0c0.421,0.02 0.484,0.259 0.653,0.432c0.208,0.211 0.483,0.404 1.069,0.428l0,0c0.582,0.024 0.888,-0.172 1.122,-0.402c0.085,-0.083 0.158,-0.173 0.233,-0.259c0.089,-0.102 0.179,-0.202 0.376,-0.198l0.003,-0Zm-5.155,0.059l-0.003,0c-0.239,-0.002 -0.494,-0.117 -0.763,-0.303c-0.32,-0.222 -0.648,-0.544 -0.977,-0.941c-1.621,-1.957 -3.224,-5.693 -3.632,-8.927c-0.366,-2.888 0.185,-5.404 2.818,-5.593c1.034,-0.074 2.033,0.156 2.998,0.392c1.042,0.254 2.047,0.513 3.011,0.479c1.202,-0.043 2.046,-0.32 2.944,-0.563c0.833,-0.224 1.717,-0.414 3.035,-0.31c0.934,0.074 1.527,0.703 1.878,1.631c0.393,1.042 0.487,2.443 0.371,3.957c-0.214,2.783 -1.149,5.944 -2.375,8.027c-0.394,0.667 -0.815,1.222 -1.255,1.608c-0.383,0.336 -0.773,0.543 -1.17,0.543c-0.372,-0 -0.622,-0.028 -0.79,-0.079c-0.068,-0.021 -0.113,-0.031 -0.132,-0.062c-0.021,-0.032 -0.017,-0.068 -0.023,-0.1c-0.009,-0.05 -0.019,-0.098 -0.033,-0.143c-0.035,-0.115 -0.092,-0.214 -0.185,-0.296c-0.101,-0.089 -0.26,-0.174 -0.551,-0.179c-0.488,-0.009 -0.742,0.192 -0.966,0.442c-0.165,0.184 -0.288,0.437 -0.746,0.418c-0.481,-0.02 -0.576,-0.249 -0.736,-0.422c-0.201,-0.22 -0.446,-0.413 -0.983,-0.438c-0.55,-0.025 -0.821,0.174 -1.043,0.416c-0.168,0.181 -0.257,0.448 -0.692,0.443Z" style="fill:#ec1f27;"/><path d="M18.711,12.335c0.065,-0.857 0.713,-2.075 1.439,-2.988c0.458,-0.577 0.94,-1.04 1.344,-1.165c0.21,-0.066 0.328,-0.29 0.263,-0.501c-0.065,-0.211 -0.29,-0.329 -0.501,-0.264c-0.509,0.159 -1.153,0.703 -1.732,1.432c-0.829,1.043 -1.537,2.447 -1.611,3.426c-0.017,0.22 0.149,0.412 0.369,0.429c0.22,0.016 0.412,-0.149 0.429,-0.369Z" style="fill:#ec1f27;"/><path d="M18.142,12.667c0.129,0.06 0.28,0.048 0.397,-0.033c0.117,-0.08 0.182,-0.217 0.172,-0.359c-0.133,-1.775 -0.508,-2.752 -0.894,-3.62c-0.591,-1.328 -1.381,-1.842 -2.692,-2.477c-0.115,-0.056 -0.251,-0.053 -0.364,0.008c-0.113,0.061 -0.19,0.173 -0.207,0.301c-0.212,1.634 -0.115,2.848 0.254,3.644c0.457,0.988 1.482,1.666 3.334,2.536Zm-0.299,-1.031c-1.226,-0.606 -1.967,-1.102 -2.309,-1.841c-0.28,-0.605 -0.355,-1.486 -0.249,-2.642c0.825,0.437 1.38,0.881 1.801,1.827c0.304,0.682 0.599,1.438 0.757,2.656Z" style="fill:#ec1f27;"/><path d="M21.632,14.773c0.88,-0.334 1.649,-0.231 2.152,0.25c0.526,0.504 0.747,1.381 0.571,2.492c-0.035,0.218 0.114,0.423 0.333,0.457c0.218,0.035 0.423,-0.114 0.457,-0.332c0.227,-1.432 -0.129,-2.545 -0.807,-3.194c-0.701,-0.672 -1.763,-0.887 -2.99,-0.421c-0.206,0.078 -0.31,0.309 -0.232,0.516c0.078,0.206 0.309,0.31 0.516,0.232Z" style="fill:#ec1f27;"/></svg>