<?xml version="1.0" encoding="UTF-8" standalone="no"?><!DOCTYPE svg PUBLIC "-//W3C//DTD SVG 1.1//EN" "http://www.w3.org/Graphics/SVG/1.1/DTD/svg11.dtd"><svg width="100%" height="100%" viewBox="0 0 36 36" version="1.1" xmlns="http://www.w3.org/2000/svg" xmlns:xlink="http://www.w3.org/1999/xlink" xml:space="preserve" xmlns:serif="http://www.serif.com/" style="fill-rule:evenodd;clip-rule:evenodd;stroke-linejoin:round;stroke-miterlimit:2;"><rect id="ballot" x="0" y="0" width="36" height="36" style="fill:none;"/><g id="bg-white"><circle cx="18" cy="18" r="18" style="fill:#fff;"/></g><path d="M24.369,11.645c-0.274,-0.66 -0.557,-1.045 -1.169,-1.045c-0,0 -10.4,0 -10.4,0c-0.616,-0 -0.965,0.481 -1.174,1.057c0.002,-0.003 -2.494,5.887 -2.494,5.887c-0.002,0.004 -0.003,0.007 -0.005,0.011c-0.126,0.324 -0.099,0.575 -0.012,0.767c0.086,0.192 0.243,0.337 0.445,0.432c0.219,0.104 0.498,0.146 0.74,0.146l15.4,-0c0.383,-0 0.8,-0.227 1.026,-0.524c0.196,-0.258 0.253,-0.559 0.145,-0.826l-2.502,-5.905Zm1.753,6.187c-0.011,0.02 -0.047,0.081 -0.079,0.112c-0.091,0.087 -0.22,0.156 -0.343,0.156c-0,0 -15.4,0 -15.4,0c-0.099,0 -0.208,-0.009 -0.309,-0.037c-0.041,-0.011 -0.08,-0.025 -0.113,-0.045c-0.014,-0.008 -0.029,-0.012 -0.035,-0.026c-0.014,-0.037 0.004,-0.081 0.027,-0.139c0.001,-0.002 2.498,-5.897 2.498,-5.897c0.003,-0.007 0.006,-0.014 0.009,-0.021c0.047,-0.133 0.101,-0.264 0.173,-0.372c0.06,-0.089 0.133,-0.163 0.25,-0.163l10.4,-0c0.109,-0 0.174,0.054 0.228,0.135c0.075,0.112 0.135,0.255 0.202,0.418l2.492,5.879Z" style="fill:#ec1f27;"/><path d="M23.595,16.559c-0.027,0.018 -0.067,0.041 -0.095,0.041l-11,0c-0.028,0 -0.068,-0.014 -0.102,-0.027l0.348,-0.981c0.036,-0.116 0.143,-0.192 0.254,-0.192l1,-0c0.221,0 0.4,-0.179 0.4,-0.4c0,-0.221 -0.179,-0.4 -0.4,-0.4l-1,0c-0.439,0 -0.869,0.29 -1.015,0.745c0.001,-0.001 -0.355,1.002 -0.355,1.002c-0.127,0.273 -0.065,0.516 0.095,0.71c0.17,0.206 0.498,0.343 0.775,0.343c0,-0 11,-0 11,-0c0.285,-0 0.59,-0.156 0.757,-0.373c0.149,-0.194 0.2,-0.428 0.122,-0.656l-0.398,-1.047c-0.003,-0.009 -0.007,-0.018 -0.011,-0.027c-0.247,-0.527 -0.54,-0.697 -0.97,-0.697c-0,0 -1,0 -1,0c-0.221,0 -0.4,0.179 -0.4,0.4c0,0.221 0.179,0.4 0.4,0.4l1,-0c0.118,-0 0.171,0.079 0.237,0.219l0.358,0.94Z" style="fill:#ec1f27;"/><path d="M22.4,13.3c-0,-0.662 -0.538,-1.2 -1.2,-1.2l-6.4,0c-0.662,0 -1.2,0.538 -1.2,1.2l-0,3.7c-0,0.221 0.179,0.4 0.4,0.4l8,-0c0.221,-0 0.4,-0.179 0.4,-0.4l-0,-3.7Zm-0.8,-0l-0,3.3c-0,0 -7.2,0 -7.2,0c-0,0 -0,-3.3 -0,-3.3c-0,-0.221 0.179,-0.4 0.4,-0.4c0,-0 6.4,-0 6.4,-0c0.221,-0 0.4,0.179 0.4,0.4Z" style="fill:#ec1f27;"/><path d="M15.5,14.4l2,-0c0.221,-0 0.4,-0.179 0.4,-0.4c-0,-0.221 -0.179,-0.4 -0.4,-0.4l-2,0c-0.221,-0 -0.4,0.179 -0.4,0.4c-0,0.221 0.179,0.4 0.4,0.4Z" style="fill:#ec1f27;"/><path d="M15.5,15.9l2,-0c0.221,0 0.4,-0.179 0.4,-0.4c0,-0.221 -0.179,-0.4 -0.4,-0.4l-2,0c-0.221,0 -0.4,0.179 -0.4,0.4c0,0.221 0.179,0.4 0.4,0.4Z" style="fill:#ec1f27;"/><path d="M26.925,18.151c0.004,-0.495 -0.378,-0.499 -0.485,-0.481c-0.06,0.01 -0.153,0.039 -0.243,0.133c-0.031,0.033 -0.082,0.111 -0.155,0.194c-0.038,0.043 -0.085,0.104 -0.163,0.103l-15.79,0c-0.244,-0.002 -0.295,-0.181 -0.303,-0.195c-0.021,-0.038 -0.042,-0.063 -0.057,-0.079c-0.167,-0.181 -0.342,-0.145 -0.452,-0.097c-0.015,0.006 -0.261,0.098 -0.239,0.441c-0.001,-0.008 -0.001,6.18 -0.001,6.18c0,0.58 0.471,1.05 1.05,1.05c0,0 15.788,0 15.788,0c0.579,0 1.05,-0.47 1.05,-1.05l-0,-6.199Zm-0.8,0.717l-0,5.482c-0,0.138 -0.112,0.25 -0.25,0.25l-15.788,0c-0.138,0 -0.25,-0.112 -0.25,-0.25l0,-5.472c0.075,0.014 0.157,0.021 0.247,0.022l15.791,0c0.089,0.001 0.173,-0.011 0.25,-0.032Z" style="fill:#ec1f27;"/><path d="M18.717,14.283l1.5,1.5c0.156,0.156 0.41,0.156 0.566,-0c0.156,-0.156 0.156,-0.41 -0,-0.566l-1.5,-1.5c-0.156,-0.156 -0.41,-0.156 -0.566,0c-0.156,0.156 -0.156,0.41 0,0.566Z" style="fill:#ec1f27;"/><path d="M20.217,13.717l-1.5,1.5c-0.156,0.156 -0.156,0.41 0,0.566c0.156,0.156 0.41,0.156 0.566,-0l1.5,-1.5c0.156,-0.156 0.156,-0.41 -0,-0.566c-0.156,-0.156 -0.41,-0.156 -0.566,0Z" style="fill:#ec1f27;"/></svg>