<?xml version="1.0" encoding="UTF-8" standalone="no"?><!DOCTYPE svg PUBLIC "-//W3C//DTD SVG 1.1//EN" "http://www.w3.org/Graphics/SVG/1.1/DTD/svg11.dtd"><svg width="100%" height="100%" viewBox="0 0 36 36" version="1.1" xmlns="http://www.w3.org/2000/svg" xmlns:xlink="http://www.w3.org/1999/xlink" xml:space="preserve" xmlns:serif="http://www.serif.com/" style="fill-rule:evenodd;clip-rule:evenodd;stroke-linejoin:round;stroke-miterlimit:2;"><rect id="bike" x="0" y="0" width="36" height="36" style="fill:none;"/><g id="bg-white"><circle cx="18" cy="18" r="18" style="fill:#fff;"/></g><path d="M11,16.6c-2.428,0 -4.4,1.972 -4.4,4.4c-0,2.428 1.972,4.4 4.4,4.4c2.428,-0 4.4,-1.972 4.4,-4.4c0,-2.428 -1.972,-4.4 -4.4,-4.4Zm0,0.8c1.987,-0 3.6,1.613 3.6,3.6c-0,1.987 -1.613,3.6 -3.6,3.6c-1.987,0 -3.6,-1.613 -3.6,-3.6c0,-1.987 1.613,-3.6 3.6,-3.6Z" style="fill:#ec1f27;"/><path d="M25,16.6c-2.428,0 -4.4,1.972 -4.4,4.4c-0,2.428 1.972,4.4 4.4,4.4c2.428,-0 4.4,-1.972 4.4,-4.4c0,-2.428 -1.972,-4.4 -4.4,-4.4Zm0,0.8c1.987,-0 3.6,1.613 3.6,3.6c-0,1.987 -1.613,3.6 -3.6,3.6c-1.987,0 -3.6,-1.613 -3.6,-3.6c0,-1.987 1.613,-3.6 3.6,-3.6Z" style="fill:#ec1f27;"/><path d="M13,12.4l2.32,-0c0,0 -4.67,8.406 -4.67,8.406c-0.107,0.193 -0.037,0.436 0.156,0.544c0.193,0.107 0.436,0.037 0.544,-0.156l5,-9c0.068,-0.124 0.067,-0.275 -0.005,-0.397c-0.072,-0.122 -0.203,-0.197 -0.345,-0.197l-3,0c-0.221,0 -0.4,0.179 -0.4,0.4c0,0.221 0.179,0.4 0.4,0.4Z" style="fill:#ec1f27;"/><path d="M22.651,11.804l-4.5,8c-0.108,0.192 -0.04,0.436 0.153,0.545c0.192,0.108 0.436,0.04 0.545,-0.153l4.5,-8c0.108,-0.192 0.04,-0.436 -0.153,-0.545c-0.192,-0.108 -0.436,-0.04 -0.545,0.153Z" style="fill:#ec1f27;"/><path d="M17.642,21.821l-1,2c-0.099,0.198 -0.018,0.438 0.179,0.537c0.198,0.099 0.438,0.018 0.537,-0.179l1,-2c0.099,-0.198 0.018,-0.438 -0.179,-0.537c-0.198,-0.099 -0.438,-0.018 -0.537,0.179Z" style="fill:#ec1f27;"/><path d="M18,19.6c-0.773,0 -1.4,0.627 -1.4,1.4c-0,0.773 0.627,1.4 1.4,1.4c0.773,-0 1.4,-0.627 1.4,-1.4c0,-0.773 -0.627,-1.4 -1.4,-1.4Zm0,0.8c0.331,-0 0.6,0.269 0.6,0.6c-0,0.331 -0.269,0.6 -0.6,0.6c-0.331,0 -0.6,-0.269 -0.6,-0.6c0,-0.331 0.269,-0.6 0.6,-0.6Z" style="fill:#ec1f27;"/><path d="M21,12.4l4,-0c0.221,0 0.4,-0.179 0.4,-0.4c0,-0.221 -0.179,-0.4 -0.4,-0.4l-4,0c-0.221,0 -0.4,0.179 -0.4,0.4c0,0.221 0.179,0.4 0.4,0.4Z" style="fill:#ec1f27;"/><path d="M16,24.4l2,-0c0.221,0 0.4,-0.179 0.4,-0.4c0,-0.221 -0.179,-0.4 -0.4,-0.4l-2,0c-0.221,0 -0.4,0.179 -0.4,0.4c0,0.221 0.179,0.4 0.4,0.4Z" style="fill:#ec1f27;"/><path d="M25,21.4c0.134,-0 0.26,-0.068 0.334,-0.18c0.074,-0.112 0.087,-0.254 0.034,-0.378l-3,-7c-0.063,-0.147 -0.208,-0.242 -0.368,-0.242l-7,0c-0.134,0 -0.26,0.068 -0.334,0.18c-0.074,0.112 -0.087,0.254 -0.034,0.378l2.606,6.08c0.042,0.098 0.121,0.175 0.22,0.214c0.098,0.04 0.208,0.038 0.306,-0.004c0.072,-0.031 0.152,-0.048 0.236,-0.048c0.331,-0 0.6,0.269 0.6,0.6c-0,0.221 0.179,0.4 0.4,0.4l6,-0Zm-0.607,-0.8l-5.051,0c-0.172,-0.578 -0.708,-1 -1.342,-1c-0.054,0 -0.108,0.003 -0.161,0.009c0,0 -2.232,-5.209 -2.232,-5.209c-0,-0 6.129,-0 6.129,-0l2.657,6.2Z" style="fill:#ec1f27;"/><path d="M18,19.6c-0.773,0 -1.4,0.627 -1.4,1.4c-0,0.773 0.627,1.4 1.4,1.4c0.773,-0 1.4,-0.627 1.4,-1.4c0,-0.773 -0.627,-1.4 -1.4,-1.4Zm0,0.8c0.331,-0 0.6,0.269 0.6,0.6c-0,0.331 -0.269,0.6 -0.6,0.6c-0.331,0 -0.6,-0.269 -0.6,-0.6c0,-0.331 0.269,-0.6 0.6,-0.6Z" style="fill:#ec1f27;"/></svg>