<?xml version="1.0" encoding="UTF-8" standalone="no"?><!DOCTYPE svg PUBLIC "-//W3C//DTD SVG 1.1//EN" "http://www.w3.org/Graphics/SVG/1.1/DTD/svg11.dtd"><svg width="100%" height="100%" viewBox="0 0 36 36" version="1.1" xmlns="http://www.w3.org/2000/svg" xmlns:xlink="http://www.w3.org/1999/xlink" xml:space="preserve" xmlns:serif="http://www.serif.com/" style="fill-rule:evenodd;clip-rule:evenodd;stroke-linejoin:round;stroke-miterlimit:2;"><rect id="boiling-pot" x="0" y="0" width="36" height="36" style="fill:none;"/><g id="bg-white"><circle cx="18" cy="18" r="18" style="fill:#fff;"/></g><path d="M24.147,23l-0,3.003c0.005,0.585 -0.086,1.001 -0.337,1.261c-0.245,0.255 -0.629,0.339 -1.142,0.336c-0.221,-0.001 -0.401,0.177 -0.402,0.398c-0.002,0.221 0.177,0.401 0.397,0.402c0.785,0.004 1.348,-0.192 1.722,-0.58c0.368,-0.381 0.569,-0.968 0.562,-1.821c-0,-0 -0,-2.999 -0,-2.999c-0,-0.221 -0.179,-0.4 -0.4,-0.4c-0.221,0 -0.4,0.179 -0.4,0.4Z" style="fill:#ec1f27;"/><path d="M29,19.4l-0,-0.8l-22,0c-0.221,0 -0.4,0.179 -0.4,0.4l-0,2c0,0.221 0.179,0.4 0.4,0.4l1.6,-0c-0,0 -0,5.1 -0,5.1c-0,2.146 1.834,3.9 4.106,3.9l10.588,-0c2.272,-0 4.106,-1.754 4.106,-3.9l0,-5.1l1.6,-0c0.221,-0 0.4,-0.179 0.4,-0.4l0,-2l-0.4,0.4Zm-0.4,-0l-21.2,-0c0,-0 0,1.2 -0,1.2l1.6,0c0.221,-0 0.4,0.179 0.4,0.4l0,5.5c0,1.717 1.487,3.1 3.306,3.1c-0,0 10.588,0 10.588,0c1.819,0 3.306,-1.383 3.306,-3.1l-0,-5.5l0.001,-0.021l0.001,-0.02l0.003,-0.02l0.003,-0.02l0.005,-0.019l0.005,-0.019l0.006,-0.018c0.056,-0.154 0.204,-0.263 0.376,-0.263l1.6,0l-0,-1.2Z" style="fill:#ec1f27;"/><path d="M11.694,8.742c-0.653,0.775 -0.94,1.542 -0.926,2.294c0.013,0.748 0.327,1.49 0.922,2.217c0.012,0.014 0.024,0.027 0.037,0.039c0.631,0.591 0.937,1.159 0.921,1.729c-0.017,0.577 -0.356,1.134 -0.928,1.693c-0.158,0.154 -0.16,0.408 -0.006,0.566c0.154,0.158 0.408,0.16 0.566,0.006c0.749,-0.733 1.146,-1.486 1.168,-2.242c0.021,-0.756 -0.327,-1.536 -1.157,-2.319c-0.453,-0.56 -0.713,-1.125 -0.723,-1.703c-0.011,-0.581 0.233,-1.165 0.738,-1.764c0.142,-0.169 0.121,-0.421 -0.048,-0.564c-0.169,-0.142 -0.421,-0.121 -0.564,0.048Z" style="fill:#ec1f27;"/><path d="M15.527,8.742c-0.654,0.775 -0.94,1.542 -0.927,2.294c0.014,0.748 0.328,1.49 0.923,2.217c0.011,0.014 0.024,0.027 0.036,0.039c0.632,0.591 0.938,1.159 0.922,1.729c-0.017,0.577 -0.356,1.134 -0.928,1.693c-0.158,0.154 -0.161,0.408 -0.006,0.566c0.154,0.158 0.408,0.16 0.566,0.006c0.748,-0.733 1.146,-1.486 1.167,-2.242c0.022,-0.756 -0.326,-1.536 -1.156,-2.319c-0.453,-0.56 -0.713,-1.125 -0.724,-1.703c-0.01,-0.581 0.233,-1.165 0.738,-1.764c0.143,-0.169 0.121,-0.421 -0.047,-0.564c-0.169,-0.142 -0.422,-0.121 -0.564,0.048Z" style="fill:#ec1f27;"/><path d="M19.36,8.742c-0.654,0.775 -0.941,1.542 -0.927,2.294c0.014,0.748 0.328,1.49 0.923,2.217c0.011,0.014 0.023,0.027 0.036,0.039c0.631,0.591 0.938,1.159 0.922,1.729c-0.017,0.577 -0.356,1.134 -0.928,1.693c-0.158,0.154 -0.161,0.408 -0.006,0.566c0.154,0.158 0.407,0.16 0.565,0.006c0.749,-0.733 1.147,-1.486 1.168,-2.242c0.022,-0.756 -0.327,-1.536 -1.156,-2.319c-0.454,-0.56 -0.713,-1.125 -0.724,-1.703c-0.011,-0.581 0.233,-1.165 0.738,-1.764c0.143,-0.169 0.121,-0.421 -0.047,-0.564c-0.169,-0.142 -0.422,-0.121 -0.564,0.048Z" style="fill:#ec1f27;"/><path d="M23.193,8.742c-0.654,0.775 -0.941,1.542 -0.927,2.294c0.014,0.748 0.327,1.49 0.923,2.217c0.011,0.014 0.023,0.027 0.036,0.039c0.631,0.591 0.938,1.159 0.921,1.729c-0.016,0.577 -0.356,1.134 -0.927,1.693c-0.158,0.154 -0.161,0.408 -0.007,0.566c0.155,0.158 0.408,0.16 0.566,0.006c0.749,-0.733 1.146,-1.486 1.168,-2.242c0.022,-0.756 -0.327,-1.536 -1.156,-2.319c-0.454,-0.56 -0.714,-1.125 -0.724,-1.703c-0.011,-0.581 0.233,-1.165 0.738,-1.764c0.142,-0.169 0.121,-0.421 -0.048,-0.564c-0.168,-0.142 -0.421,-0.121 -0.563,0.048Z" style="fill:#ec1f27;"/></svg>