<?xml version="1.0" encoding="UTF-8" standalone="no"?><!DOCTYPE svg PUBLIC "-//W3C//DTD SVG 1.1//EN" "http://www.w3.org/Graphics/SVG/1.1/DTD/svg11.dtd"><svg width="100%" height="100%" viewBox="0 0 36 36" version="1.1" xmlns="http://www.w3.org/2000/svg" xmlns:xlink="http://www.w3.org/1999/xlink" xml:space="preserve" xmlns:serif="http://www.serif.com/" style="fill-rule:evenodd;clip-rule:evenodd;stroke-linejoin:round;stroke-miterlimit:2;"><rect id="bomb" x="0" y="0" width="36" height="36" style="fill:none;"/><g><circle cx="18" cy="18" r="18" style="fill:#fff;"/></g><path d="M7.163,28.913c1.792,1.979 4.608,1.739 6.707,0.51c2.796,-1.637 9.888,-9.867 9.941,-9.925c0.426,-0.469 0.53,-1.106 0.479,-1.707c-0.032,-0.378 -0.124,-0.738 -0.213,-1.016c-0,0 2.193,0 2.193,0c0.1,0 0.195,-0.04 0.266,-0.11l3.393,-3.394c0.107,-0.106 0.139,-0.266 0.083,-0.405c-0.057,-0.14 -0.191,-0.232 -0.342,-0.235l-6.129,-0.104c0,0 -0.73,-6.568 -0.73,-6.568c-0.015,-0.142 -0.11,-0.263 -0.245,-0.312c-0.134,-0.048 -0.285,-0.016 -0.388,0.083l-3.065,2.956c-0.082,0.079 -0.123,0.191 -0.113,0.304l0.28,3.08c-0.286,-0.06 -0.659,-0.114 -1.055,-0.11c-0.607,0.006 -1.261,0.153 -1.767,0.586c-0.497,0.426 -7.698,6.644 -9.392,9.405c-1.277,2.084 -1.684,4.994 0.097,6.962l-0,-0Zm0.556,-0.504c-1.552,-1.714 -1.126,-4.25 -0.013,-6.066c1.664,-2.712 8.752,-8.809 9.24,-9.227c0.367,-0.314 0.847,-0.401 1.287,-0.406c0.717,-0.008 1.344,0.212 1.344,0.212c0.121,0.043 0.255,0.021 0.355,-0.058c0.101,-0.078 0.155,-0.202 0.143,-0.33l-0.312,-3.433c0,-0 2.387,-2.302 2.387,-2.302c0,0 0.682,6.139 0.682,6.139c0.021,0.188 0.178,0.331 0.367,0.334l5.575,0.094c-0,0 -2.659,2.659 -2.659,2.659c0,0 -2.581,0 -2.581,0c-0.129,0 -0.249,0.066 -0.317,0.174c-0.069,0.109 -0.077,0.245 -0.022,0.362c-0,-0 0.29,0.612 0.348,1.294c0.034,0.398 -0.005,0.828 -0.287,1.139c-0.052,0.057 -7.014,8.171 -9.765,9.781c-1.805,1.058 -4.231,1.336 -5.772,-0.366l-0,0Z" style="fill:#ec1f27;"/><path d="M7.763,22.254c-0,-0 3.083,0.124 4.765,1.553c1.724,1.465 1.957,4.196 1.957,4.196c0.018,0.206 0.2,0.359 0.406,0.34c0.207,-0.018 0.359,-0.2 0.341,-0.407c-0,0 -0.283,-3.056 -2.218,-4.7c-1.845,-1.568 -5.218,-1.731 -5.218,-1.731c-0.207,-0.01 -0.382,0.151 -0.391,0.358c-0.01,0.206 0.151,0.382 0.358,0.391Z" style="fill:#ec1f27;"/><path d="M13.147,16.567c0,-0 3.193,0.125 4.935,1.574c1.781,1.481 2.022,4.243 2.022,4.243c0.019,0.206 0.202,0.358 0.408,0.34c0.206,-0.019 0.358,-0.202 0.339,-0.408c0,0 -0.29,-3.089 -2.29,-4.752c-1.902,-1.582 -5.381,-1.746 -5.381,-1.746c-0.207,-0.009 -0.382,0.151 -0.391,0.358c-0.009,0.207 0.151,0.382 0.358,0.391Z" style="fill:#ec1f27;"/><path d="M9.122,27.885c-0,-0 1.212,0.384 2.247,0.25c1.024,-0.133 1.828,-0.747 1.828,-0.747c0.164,-0.125 0.196,-0.361 0.07,-0.525c-0.125,-0.165 -0.361,-0.196 -0.525,-0.071c-0,0 -0.646,0.493 -1.469,0.599c-0.886,0.115 -1.923,-0.221 -1.923,-0.221c-0.197,-0.063 -0.408,0.046 -0.471,0.243c-0.063,0.197 0.046,0.409 0.243,0.472Z" style="fill:#ec1f27;"/><path d="M20.893,15.764l6.043,-6.043c0.146,-0.146 0.146,-0.384 -0,-0.53c-0.147,-0.147 -0.384,-0.147 -0.531,-0l-6.043,6.043c-0.146,0.146 -0.146,0.384 0,0.53c0.147,0.146 0.384,0.146 0.531,0Z" style="fill:#ec1f27;"/><path d="M18.73,21.619l-0.001,0.001l-2.999,3.12c-0.144,0.149 -0.139,0.387 0.01,0.53c0.149,0.144 0.387,0.139 0.53,-0.01l3,-3.12l0.001,-0.001c0.25,-0.261 0.154,-0.432 -0.024,-0.517c-0.092,-0.174 -0.266,-0.263 -0.517,-0.003Z" style="fill:#ec1f27;"/></svg>