<?xml version="1.0" encoding="UTF-8" standalone="no"?><!DOCTYPE svg PUBLIC "-//W3C//DTD SVG 1.1//EN" "http://www.w3.org/Graphics/SVG/1.1/DTD/svg11.dtd"><svg width="100%" height="100%" viewBox="0 0 36 36" version="1.1" xmlns="http://www.w3.org/2000/svg" xmlns:xlink="http://www.w3.org/1999/xlink" xml:space="preserve" xmlns:serif="http://www.serif.com/" style="fill-rule:evenodd;clip-rule:evenodd;stroke-linejoin:round;stroke-miterlimit:2;"><rect id="brake-light" x="0" y="0" width="36" height="36" style="fill:none;"/><g id="bg-white"><circle cx="18" cy="18" r="18" style="fill:#fff;"/></g><path d="M17.321,23.858l2,1c0.198,0.099 0.438,0.018 0.537,-0.179c0.099,-0.198 0.018,-0.438 -0.179,-0.537l-2,-1c-0.198,-0.099 -0.438,-0.018 -0.537,0.179c-0.099,0.198 -0.018,0.438 0.179,0.537Z" style="fill:#ec1f27;"/><path d="M18,21.9l2,-0c0.221,-0 0.4,-0.179 0.4,-0.4c-0,-0.221 -0.179,-0.4 -0.4,-0.4l-2,0c-0.221,-0 -0.4,0.179 -0.4,0.4c-0,0.221 0.179,0.4 0.4,0.4Z" style="fill:#ec1f27;"/><path d="M13.5,18.1c-1.877,0 -3.4,1.523 -3.4,3.4c-0,1.877 1.523,3.4 3.4,3.4c1.877,-0 3.4,-1.523 3.4,-3.4c0,-1.877 -1.523,-3.4 -3.4,-3.4Zm0,0.8c1.435,-0 2.6,1.165 2.6,2.6c-0,1.435 -1.165,2.6 -2.6,2.6c-1.435,0 -2.6,-1.165 -2.6,-2.6c0,-1.435 1.165,-2.6 2.6,-2.6Z" style="fill:#ec1f27;"/><path d="M11,20.4l5,-0c0.221,0 0.4,-0.179 0.4,-0.4c0,-0.221 -0.179,-0.4 -0.4,-0.4l-5,0c-0.221,0 -0.4,0.179 -0.4,0.4c0,0.221 0.179,0.4 0.4,0.4Z" style="fill:#ec1f27;"/><path d="M11,21.9l5,-0c0.221,-0 0.4,-0.179 0.4,-0.4c-0,-0.221 -0.179,-0.4 -0.4,-0.4l-5,0c-0.221,-0 -0.4,0.179 -0.4,0.4c-0,0.221 0.179,0.4 0.4,0.4Z" style="fill:#ec1f27;"/><path d="M11,23.4l5,-0c0.221,0 0.4,-0.179 0.4,-0.4c0,-0.221 -0.179,-0.4 -0.4,-0.4l-5,0c-0.221,0 -0.4,0.179 -0.4,0.4c0,0.221 0.179,0.4 0.4,0.4Z" style="fill:#ec1f27;"/><path d="M8.4,26l0,-3.483c0.209,-2.4 1.213,-4.35 3.314,-5.679c0.109,-0.069 0.178,-0.186 0.185,-0.314c0,-0 0.211,-3.557 1.521,-6.38c0.824,-1.777 2.08,-3.282 4.072,-3.244c0.003,-0 0.005,0 0.008,-0l10.5,-0c0.221,0 0.4,-0.179 0.4,-0.4c0,-0.221 -0.179,-0.4 -0.4,-0.4l-10.497,0c-2.322,-0.042 -3.847,1.635 -4.809,3.707c-1.179,2.541 -1.509,5.65 -1.578,6.465c-2.218,1.472 -3.292,3.592 -3.515,6.194c-0.001,0.011 -0.001,0.023 -0.001,0.034l-0,3.5c0,0.221 0.179,0.4 0.4,0.4c0.221,-0 0.4,-0.179 0.4,-0.4Z" style="fill:#ec1f27;"/><path d="M28,25.6l-20.125,0c-0.704,0 -1.275,0.571 -1.275,1.275c-0,-0 -0,1.75 -0,1.75c-0,0.704 0.571,1.275 1.275,1.275l20.125,-0c0.221,0 0.4,-0.179 0.4,-0.4c0,-0.221 -0.179,-0.4 -0.4,-0.4l-20.125,0c-0.262,0 -0.475,-0.213 -0.475,-0.475l0,-1.75c0,-0.262 0.213,-0.475 0.475,-0.475c-0,-0 20.125,-0 20.125,-0c0.221,-0 0.4,-0.179 0.4,-0.4c-0,-0.221 -0.179,-0.4 -0.4,-0.4Z" style="fill:#ec1f27;"/><path d="M28,8.1l-10.25,0c-0.59,0 -1.177,0.269 -1.686,0.742c-0.697,0.647 -1.251,1.683 -1.457,2.833c0,0 -0.499,2.497 -0.499,2.497c-0.005,0.025 -0.008,0.052 -0.008,0.078c-0,1.463 1.187,2.65 2.65,2.65l11.25,-0c0.221,0 0.4,-0.179 0.4,-0.4c0,-0.221 -0.179,-0.4 -0.4,-0.4l-11.25,0c-1.008,0 -1.829,-0.808 -1.85,-1.811c0,-0.001 0.492,-2.461 0.492,-2.461c0.001,-0.002 0.001,-0.005 0.002,-0.008c0.173,-0.969 0.628,-1.847 1.215,-2.392c0.347,-0.323 0.738,-0.528 1.141,-0.528c0,-0 10.25,-0 10.25,-0c0.221,-0 0.4,-0.179 0.4,-0.4c-0,-0.221 -0.179,-0.4 -0.4,-0.4Z" style="fill:#ec1f27;"/><path d="M17.395,12.56c0.096,-0.632 0.309,-1.141 0.668,-1.507c0.354,-0.362 0.848,-0.579 1.485,-0.656c0.219,-0.026 0.376,-0.226 0.349,-0.445c-0.026,-0.219 -0.226,-0.376 -0.445,-0.349c-0.845,0.102 -1.491,0.41 -1.961,0.89c-0.466,0.476 -0.762,1.127 -0.886,1.947c-0.034,0.218 0.117,0.422 0.335,0.455c0.218,0.034 0.422,-0.117 0.455,-0.335Z" style="fill:#ec1f27;"/><path d="M28,19.1l-5.25,0c-0.911,0 -1.65,0.739 -1.65,1.65l-0,2.5c-0,0.911 0.739,1.65 1.65,1.65c0,-0 5.25,-0 5.25,-0c0.221,-0 0.4,-0.179 0.4,-0.4c-0,-0.221 -0.179,-0.4 -0.4,-0.4l-5.25,0c-0.469,0 -0.85,-0.381 -0.85,-0.85c-0,0 -0,-2.5 -0,-2.5c-0,-0.469 0.381,-0.85 0.85,-0.85c0,-0 5.25,-0 5.25,-0c0.221,-0 0.4,-0.179 0.4,-0.4c-0,-0.221 -0.179,-0.4 -0.4,-0.4Z" style="fill:#ec1f27;"/><path d="M17.679,19.858l2,-1c0.197,-0.099 0.278,-0.339 0.179,-0.537c-0.099,-0.197 -0.339,-0.278 -0.537,-0.179l-2,1c-0.197,0.099 -0.278,0.339 -0.179,0.537c0.099,0.197 0.339,0.278 0.537,0.179Z" style="fill:#ec1f27;"/></svg>