<?xml version="1.0" encoding="UTF-8" standalone="no"?><!DOCTYPE svg PUBLIC "-//W3C//DTD SVG 1.1//EN" "http://www.w3.org/Graphics/SVG/1.1/DTD/svg11.dtd"><svg width="100%" height="100%" viewBox="0 0 36 36" version="1.1" xmlns="http://www.w3.org/2000/svg" xmlns:xlink="http://www.w3.org/1999/xlink" xml:space="preserve" xmlns:serif="http://www.serif.com/" style="fill-rule:evenodd;clip-rule:evenodd;stroke-linejoin:round;stroke-miterlimit:2;"><rect id="bread" x="0" y="0" width="36" height="36" style="fill:none;"/><g id="bg-white"><circle cx="18" cy="18" r="18" style="fill:#fff;"/></g><path d="M22,9.6l-2,0c-0.928,0 -1.79,0.288 -2.5,0.78c-0.71,-0.492 -1.572,-0.78 -2.5,-0.78l-2,0c-2.428,0 -4.4,1.972 -4.4,4.4c0,1.06 0.375,2.032 1,2.792c0,-0 0,7.708 0,7.708c0,1.049 0.851,1.9 1.9,1.9l12,-0c1.049,-0 1.9,-0.851 1.9,-1.9l0,-7.708c0.625,-0.76 1,-1.732 1,-2.792c0,-2.428 -1.972,-4.4 -4.4,-4.4Zm0,0.8c1.987,0 3.6,1.613 3.6,3.6c0,0.912 -0.34,1.745 -0.9,2.38c-0.064,0.073 -0.1,0.167 -0.1,0.265l0,7.855c0,0.607 -0.493,1.1 -1.1,1.1c-0,0 -12,0 -12,0c-0.607,0 -1.1,-0.493 -1.1,-1.1l0,-7.855c0,-0.098 -0.036,-0.192 -0.1,-0.265c-0.56,-0.635 -0.9,-1.468 -0.9,-2.38c0,-1.987 1.613,-3.6 3.6,-3.6c0,0 2,0 2,0c0.851,0 1.633,0.296 2.25,0.79c0.146,0.118 0.354,0.118 0.5,0c0.617,-0.494 1.399,-0.79 2.25,-0.79l2,0Z" style="fill:#ec1f27;"/><path d="M11.6,20l0,2.997c-0.011,0.559 0.155,0.911 0.398,1.126c0.245,0.216 0.593,0.309 1.021,0.277c-0.004,-0 2.981,-0 2.981,-0c0.221,-0 0.4,-0.179 0.4,-0.4c-0,-0.221 -0.179,-0.4 -0.4,-0.4l-3,0c-0.011,0 -0.022,0 -0.032,0.001c-0.182,0.015 -0.337,0.013 -0.44,-0.078c-0.108,-0.095 -0.133,-0.266 -0.128,-0.514l0,-3.009c-0,-0.221 -0.179,-0.4 -0.4,-0.4c-0.221,0 -0.4,0.179 -0.4,0.4Z" style="fill:#ec1f27;"/><path d="M12.337,15.785c-0.692,-1.083 -0.901,-1.901 -0.602,-2.486c0.166,-0.324 0.489,-0.553 0.93,-0.713c0.784,-0.284 1.909,-0.339 3.292,-0.188c0.219,0.024 0.417,-0.135 0.441,-0.355c0.024,-0.219 -0.135,-0.417 -0.355,-0.441c-1.534,-0.167 -2.78,-0.083 -3.65,0.232c-0.661,0.24 -1.121,0.615 -1.37,1.1c-0.391,0.765 -0.264,1.867 0.64,3.281c0.119,0.186 0.366,0.241 0.552,0.122c0.186,-0.119 0.241,-0.366 0.122,-0.552Z" style="fill:#ec1f27;"/></svg>