<?xml version="1.0" encoding="UTF-8" standalone="no"?><!DOCTYPE svg PUBLIC "-//W3C//DTD SVG 1.1//EN" "http://www.w3.org/Graphics/SVG/1.1/DTD/svg11.dtd"><svg width="100%" height="100%" viewBox="0 0 36 36" version="1.1" xmlns="http://www.w3.org/2000/svg" xmlns:xlink="http://www.w3.org/1999/xlink" xml:space="preserve" xmlns:serif="http://www.serif.com/" style="fill-rule:evenodd;clip-rule:evenodd;stroke-linejoin:round;stroke-miterlimit:2;"><rect id="broken-chain" x="0" y="0" width="36" height="36" style="fill:none;"/><g id="bg-white"><circle cx="18" cy="18" r="18" style="fill:#fff;"/></g><path d="M15.035,19.628l0.018,-0.001c0.086,-0.004 0.168,-0.04 0.23,-0.102l1.414,-1.414c0.137,-0.137 0.137,-0.358 -0,-0.495l-3.889,-3.889c-0.059,-0.058 -0.059,-0.154 -0,-0.212c-0,-0 0.707,-0.707 0.707,-0.707c0.058,-0.059 0.154,-0.059 0.212,-0c0,-0 3.889,3.889 3.889,3.889c0.066,0.066 0.155,0.102 0.248,0.102l0.247,-0.102l1.414,-1.414c0.116,-0.116 0.134,-0.291 0.054,-0.426l-0.009,-0.014l-0.01,-0.015l-0.011,-0.014l-0.011,-0.013l-0.013,-0.013c0,-0 -4.596,-4.596 -4.596,-4.596c-0.722,-0.722 -1.894,-0.722 -2.616,-0c-0,-0 -2.121,2.121 -2.121,2.121c-0.722,0.722 -0.722,1.894 -0,2.616c-0,0 4.596,4.596 4.596,4.596c0.004,0.005 0.008,0.009 0.012,0.012l0.013,0.012l0.014,0.01l0.014,0.01l0.021,0.013l0.008,0.005l0.015,0.007l0.023,0.01l0.009,0.003l0.016,0.006l0.024,0.006l0.01,0.002l0.016,0.003l0.026,0.003l0.003,0c0.008,0.001 0.015,0.001 0.023,0.001Zm3.748,-4.593l-4.349,-4.348c-0.449,-0.449 -1.177,-0.449 -1.626,-0c-0,-0 -2.121,2.121 -2.121,2.121c-0.449,0.449 -0.449,1.177 -0,1.626l4.348,4.349l0.919,-0.919c0,-0 -3.641,-3.642 -3.641,-3.642c-0.332,-0.332 -0.332,-0.87 -0,-1.202c-0,-0 0.707,-0.707 0.707,-0.707c0.332,-0.332 0.87,-0.332 1.202,-0l3.642,3.641l0.919,-0.919Z" style="fill:#ec1f27;"/><path d="M21.49,17.248l-0.247,0.102l-0.248,-0.597l-1.414,1.414c-0.137,0.136 -0.137,0.358 -0,0.495l3.889,3.889c0.059,0.058 0.059,0.153 0,0.212c0,-0 -0.707,0.707 -0.707,0.707c-0.059,0.059 -0.154,0.059 -0.212,0c-0,0 -3.889,-3.889 -3.889,-3.889l-0.248,0.597l-0.247,-0.597l-1.414,1.414l-0.013,0.013c-0.08,0.089 -0.107,0.208 -0.08,0.318l0.004,0.016l0.006,0.016l0.006,0.016l0.006,0.016l0.008,0.015l0.008,0.016l0.01,0.014l0.01,0.015l0.011,0.014l0.011,0.013l0.013,0.013c-0,0 4.596,4.596 4.596,4.596c0.722,0.722 1.894,0.722 2.616,0c0,0 2.121,-2.121 2.121,-2.121c0.722,-0.722 0.722,-1.894 0,-2.616c0,-0 -4.596,-4.596 -4.596,-4.596c0.1,0.1 0.13,0.25 0.076,0.381c-0.018,0.043 -0.044,0.082 -0.076,0.114Zm-0.247,0.247l-0.92,0.919c0,0 3.642,3.642 3.642,3.642c0.332,0.332 0.332,0.87 0,1.202c0,-0 -0.707,0.707 -0.707,0.707c-0.332,0.332 -0.87,0.332 -1.202,0l-3.642,-3.642l-0.919,0.92l4.349,4.348c0.448,0.449 1.177,0.449 1.626,0c0,0 2.121,-2.121 2.121,-2.121c0.449,-0.449 0.449,-1.178 0,-1.626l-4.348,-4.349Z" style="fill:#ec1f27;"/><path d="M21.247,15.247l3,-3c0.137,-0.136 0.137,-0.358 0,-0.494c-0.136,-0.137 -0.358,-0.137 -0.494,-0l-3,3c-0.137,0.136 -0.137,0.358 -0,0.494c0.136,0.137 0.358,0.137 0.494,0Z" style="fill:#ec1f27;"/><path d="M12.247,24.247l3,-3c0.137,-0.136 0.137,-0.358 0,-0.494c-0.136,-0.137 -0.358,-0.137 -0.494,-0l-3,3c-0.137,0.136 -0.137,0.358 -0,0.494c0.136,0.137 0.358,0.137 0.494,0Z" style="fill:#ec1f27;"/><path d="M20.489,14l-0,-3c-0,-0.193 -0.157,-0.35 -0.35,-0.35c-0.193,-0 -0.35,0.157 -0.35,0.35l-0,3c-0,0.193 0.157,0.35 0.35,0.35c0.193,-0 0.35,-0.157 0.35,-0.35Z" style="fill:#ec1f27;"/><path d="M16.35,25l-0,-3c0,-0.193 -0.157,-0.35 -0.35,-0.35c-0.193,-0 -0.35,0.157 -0.35,0.35l-0,3c0,0.193 0.157,0.35 0.35,0.35c0.193,-0 0.35,-0.157 0.35,-0.35Z" style="fill:#ec1f27;"/><path d="M22,16.35l3,0c0.193,0 0.35,-0.157 0.35,-0.35c0,-0.193 -0.157,-0.35 -0.35,-0.35l-3,-0c-0.193,0 -0.35,0.157 -0.35,0.35c0,0.193 0.157,0.35 0.35,0.35Z" style="fill:#ec1f27;"/><path d="M11,20.489l3,-0c0.193,-0 0.35,-0.157 0.35,-0.35c0,-0.193 -0.157,-0.35 -0.35,-0.35l-3,-0c-0.193,-0 -0.35,0.157 -0.35,0.35c0,0.193 0.157,0.35 0.35,0.35Z" style="fill:#ec1f27;"/></svg>