<?xml version="1.0" encoding="UTF-8" standalone="no"?><!DOCTYPE svg PUBLIC "-//W3C//DTD SVG 1.1//EN" "http://www.w3.org/Graphics/SVG/1.1/DTD/svg11.dtd"><svg width="100%" height="100%" viewBox="0 0 36 36" version="1.1" xmlns="http://www.w3.org/2000/svg" xmlns:xlink="http://www.w3.org/1999/xlink" xml:space="preserve" xmlns:serif="http://www.serif.com/" style="fill-rule:evenodd;clip-rule:evenodd;stroke-linejoin:round;stroke-miterlimit:2;"><rect id="bullhorn" x="0" y="0" width="36" height="36" style="fill:none;"/><g id="bg-white"><circle cx="18" cy="18" r="18" style="fill:#fff;"/></g><path d="M22.512,16.194c0,0.8 0.55,1.4 1.15,1.4c0.6,0 1.15,-0.6 1.15,-1.4c0,-0.8 -0.55,-1.4 -1.15,-1.4c-0.6,0 -1.15,0.6 -1.15,1.4Zm0.8,0c0,-0.182 0.05,-0.348 0.14,-0.467c0.056,-0.074 0.125,-0.133 0.21,-0.133c0.085,0 0.155,0.059 0.21,0.133c0.09,0.119 0.14,0.285 0.14,0.467c0,0.182 -0.05,0.348 -0.14,0.467c-0.055,0.074 -0.125,0.133 -0.21,0.133c-0.085,0 -0.154,-0.059 -0.21,-0.133c-0.09,-0.119 -0.14,-0.285 -0.14,-0.467Z" style="fill:#ec1f27;"/><path d="M23.831,14.796l-3.759,-0.689c-0.217,-0.04 -0.426,0.104 -0.465,0.321c-0.04,0.217 0.104,0.426 0.321,0.465l3.758,0.69c0.218,0.039 0.426,-0.105 0.466,-0.322c0.04,-0.217 -0.104,-0.425 -0.321,-0.465Z" style="fill:#ec1f27;"/><path d="M23.584,16.917l-3.7,1.323c-0.208,0.074 -0.316,0.303 -0.242,0.511c0.074,0.208 0.303,0.316 0.511,0.242l3.7,-1.322c0.208,-0.075 0.316,-0.304 0.242,-0.511c-0.074,-0.208 -0.303,-0.317 -0.511,-0.243Z" style="fill:#ec1f27;"/><path d="M24.378,24.587c1.052,0 2.089,-0.491 2.948,-1.442c1.211,-1.341 2.076,-3.622 2.074,-6.678c-0.002,-3.035 -0.804,-5.557 -1.996,-7.113c-0.849,-1.109 -1.901,-1.739 -3.011,-1.78c-0.221,-0.008 -0.407,0.165 -0.415,0.385c-0.008,0.221 0.164,0.407 0.385,0.415c0.895,0.033 1.722,0.573 2.406,1.467c1.109,1.447 1.829,3.802 1.831,6.627c0.002,2.804 -0.756,4.91 -1.867,6.14c-0.69,0.763 -1.511,1.179 -2.355,1.179c-0.221,0 -0.4,0.18 -0.4,0.4c-0,0.221 0.179,0.4 0.4,0.4Z" style="fill:#ec1f27;"/><path d="M24.297,7.574c-1.052,0 -2.09,0.492 -2.949,1.443c-1.21,1.341 -2.075,3.622 -2.073,6.677c0.002,3.036 0.804,5.558 1.996,7.113c0.849,1.109 1.901,1.739 3.011,1.78c0.221,0.008 0.407,-0.164 0.415,-0.385c0.008,-0.22 -0.165,-0.406 -0.385,-0.414c-0.895,-0.033 -1.722,-0.574 -2.406,-1.467c-1.109,-1.448 -1.83,-3.802 -1.831,-6.627c-0.002,-2.805 0.756,-4.91 1.867,-6.141c0.689,-0.763 1.511,-1.179 2.355,-1.179c0.221,0 0.4,-0.179 0.4,-0.4c-0,-0.221 -0.179,-0.4 -0.4,-0.4Z" style="fill:#ec1f27;"/><path d="M10.235,18.458c-0.313,-0.366 -0.503,-0.664 -0.53,-0.917c0,0 0,0 0,0c-0.037,-0.346 0.202,-0.756 0.639,-1.267c0.143,-0.168 0.123,-0.42 -0.044,-0.564c-0.168,-0.143 -0.421,-0.124 -0.564,0.044c-0.631,0.737 -0.88,1.373 -0.826,1.873c0.039,0.365 0.265,0.822 0.717,1.351c0.144,0.168 0.396,0.187 0.564,0.044c0.168,-0.144 0.187,-0.397 0.044,-0.564Z" style="fill:#ec1f27;"/><path d="M11.024,19.769c0.029,0.778 0.03,1.377 0.001,1.797c-0.052,0.737 -0.393,1.379 -0.67,2.026c-0.327,0.765 -0.571,1.534 -0.369,2.412c0.104,0.452 0.363,1.056 0.787,1.807c0.063,0.111 0.175,0.186 0.302,0.2l3.104,0.36c0.118,0.014 0.236,-0.025 0.322,-0.107c0.598,-0.568 0.889,-1.084 0.929,-1.513c-0,-0 -0,-0 -0,-0c0.04,-0.439 -0.149,-0.762 -0.431,-1.046c-0.149,-0.149 -0.326,-0.286 -0.479,-0.439c-0.101,-0.101 -0.194,-0.208 -0.229,-0.348c-0.094,-0.379 -0.04,-0.726 0.06,-1.068c0.118,-0.406 0.299,-0.806 0.436,-1.233c0,-0 0,-0 0,-0c0.117,-0.361 0.32,-0.86 0.609,-1.498c0.091,-0.201 0.002,-0.438 -0.2,-0.529c-0.201,-0.091 -0.438,-0.002 -0.529,0.199c-0.305,0.674 -0.518,1.202 -0.641,1.583c-0.14,0.434 -0.323,0.841 -0.443,1.254c-0.139,0.476 -0.199,0.958 -0.069,1.484c0,0 0,0 0,0c0.09,0.363 0.338,0.637 0.616,0.885c0.12,0.108 0.245,0.21 0.348,0.323c0.091,0.1 0.169,0.208 0.155,0.36c-0.024,0.26 -0.22,0.544 -0.551,0.877c0,-0 -2.711,-0.315 -2.711,-0.315c-0.318,-0.581 -0.522,-1.052 -0.606,-1.415c0,-0 0,-0 0,-0c-0.16,-0.7 0.065,-1.309 0.326,-1.918c0.311,-0.728 0.674,-1.457 0.732,-2.285c-0,-0 -0,-0 -0,-0c0.03,-0.44 0.031,-1.068 0,-1.883c-0.008,-0.22 -0.194,-0.393 -0.414,-0.385c-0.221,0.009 -0.393,0.195 -0.385,0.415Z" style="fill:#ec1f27;"/><path d="M23.055,23.416l-3.974,-1.481c-0,0 -9.006,-3.489 -9.006,-3.489c-0.075,-0.029 -0.158,-0.035 -0.237,-0.016l-1.69,0.403c-0.246,0.037 -0.408,-0.106 -0.519,-0.299c-0.163,-0.286 -0.229,-0.671 -0.229,-1c0,-0.34 0.057,-0.804 0.236,-1.154c0.123,-0.242 0.317,-0.424 0.637,-0.35l1.645,0.34c0.098,0.02 0.2,0.003 0.286,-0.048l12.609,-7.507c0.19,-0.113 0.252,-0.359 0.139,-0.549c-0.113,-0.189 -0.358,-0.252 -0.548,-0.139l-12.476,7.428c-0,0 -1.481,-0.306 -1.481,-0.306c-0.749,-0.17 -1.235,0.2 -1.524,0.768c-0.235,0.461 -0.323,1.069 -0.323,1.517c0,0.46 0.106,0.997 0.335,1.397c0.281,0.492 0.728,0.798 1.36,0.688c0.008,-0.001 0.017,-0.003 0.025,-0.005l1.582,-0.377l8.897,3.447l3.977,1.481c0.207,0.077 0.437,-0.028 0.514,-0.235c0.077,-0.207 -0.028,-0.437 -0.235,-0.514Z" style="fill:#ec1f27;"/></svg>