<?xml version="1.0" encoding="UTF-8" standalone="no"?><!DOCTYPE svg PUBLIC "-//W3C//DTD SVG 1.1//EN" "http://www.w3.org/Graphics/SVG/1.1/DTD/svg11.dtd"><svg width="100%" height="100%" viewBox="0 0 36 36" version="1.1" xmlns="http://www.w3.org/2000/svg" xmlns:xlink="http://www.w3.org/1999/xlink" xml:space="preserve" xmlns:serif="http://www.serif.com/" style="fill-rule:evenodd;clip-rule:evenodd;stroke-linejoin:round;stroke-miterlimit:2;"><rect id="bus" x="0" y="0" width="36" height="36" style="fill:none;"/><g id="bg-white"><circle cx="18" cy="18" r="18" style="fill:#fff;"/></g><path d="M29.367,25.4l0.633,-0c0.221,-0 0.4,-0.179 0.4,-0.4l0,-10c0,-0.106 -0.042,-0.208 -0.117,-0.283l-1,-1c-0.075,-0.075 -0.177,-0.117 -0.283,-0.117l-7.834,0l-1.883,-1.883c-0.075,-0.075 -0.177,-0.117 -0.283,-0.117l-5,0c-0.106,0 -0.208,0.042 -0.283,0.117l-1.883,1.883c0,0 -4.834,0 -4.834,0c-0.106,0 -0.208,0.042 -0.283,0.117l-1,1c-0.075,0.075 -0.117,0.177 -0.117,0.283l-0,8c-0,0.106 0.042,0.208 0.117,0.283l2,2c0.075,0.075 0.177,0.117 0.283,0.117l1.633,0c0.191,1.134 1.179,2 2.367,2c1.188,-0 2.176,-0.866 2.367,-2c-0,0 10.266,-0 10.266,-0c0.191,1.134 1.179,2 2.367,2c1.188,-0 2.176,-0.865 2.367,-2Zm-0.367,-0l-0.4,-0.4c-0,0.883 -0.717,1.6 -1.6,1.6c-0.883,0 -1.6,-0.717 -1.6,-1.6c-0,-0.221 -0.179,-0.4 -0.4,-0.4l-11,0c-0.221,0 -0.4,0.179 -0.4,0.4c-0,0.883 -0.717,1.6 -1.6,1.6c-0.883,0 -1.6,-0.717 -1.6,-1.6c0,-0.221 -0.179,-0.4 -0.4,-0.4l-1.834,0c-0,0 -1.766,-1.766 -1.766,-1.766c0,0 0,-7.668 0,-7.668c0,-0 0.766,-0.766 0.766,-0.766c-0,-0 4.834,-0 4.834,-0c0.106,0 0.208,-0.042 0.283,-0.117l1.883,-1.883c-0,-0 4.668,-0 4.668,-0c0,-0 1.883,1.883 1.883,1.883c0.075,0.075 0.177,0.117 0.283,0.117l7.834,-0c0,0 0.766,0.766 0.766,0.766c-0,-0 -0,9.434 -0,9.434c-0,0 -0.6,0 -0.6,0l0,0.8Z" style="fill:#ec1f27;"/><path d="M24.4,17c0,-0.221 -0.179,-0.4 -0.4,-0.4l-4,0c-0.221,0 -0.4,0.179 -0.4,0.4l0,8c0,0.221 0.179,0.4 0.4,0.4l4,0c0.221,0 0.4,-0.179 0.4,-0.4l0,-8Zm-0.8,0.4l0,7.2c0,0 -3.2,0 -3.2,0c0,-0 0,-7.2 0,-7.2l3.2,0Z" style="fill:#ec1f27;"/><path d="M30.4,17c0,-0.221 -0.179,-0.4 -0.4,-0.4l-4,-0c-0.221,-0 -0.4,0.179 -0.4,0.4l-0,4c-0,0.221 0.179,0.4 0.4,0.4l4,-0c0.221,-0 0.4,-0.179 0.4,-0.4l-0,-4Zm-0.8,0.4l-0,3.2c0,-0 -3.2,-0 -3.2,-0c-0,0 -0,-3.2 -0,-3.2l3.2,-0Z" style="fill:#ec1f27;"/><path d="M12,22.6c-1.325,0 -2.4,1.075 -2.4,2.4c0,1.325 1.075,2.4 2.4,2.4c1.325,-0 2.4,-1.075 2.4,-2.4c-0,-1.325 -1.075,-2.4 -2.4,-2.4Zm0,0.8c0.883,-0 1.6,0.717 1.6,1.6c-0,0.883 -0.717,1.6 -1.6,1.6c-0.883,0 -1.6,-0.717 -1.6,-1.6c0,-0.883 0.717,-1.6 1.6,-1.6Z" style="fill:#ec1f27;"/><path d="M18.4,17c0,-0.221 -0.179,-0.4 -0.4,-0.4l-12,0c-0.221,0 -0.4,0.179 -0.4,0.4l0,4c0,0.221 0.179,0.4 0.4,0.4l12,0c0.221,0 0.4,-0.179 0.4,-0.4l0,-4Zm-0.8,0.4l0,3.2c0,0 -11.2,0 -11.2,0c0,0 -0,-3.2 -0,-3.2l11.2,-0Z" style="fill:#ec1f27;"/><path d="M21.6,17l-0,8c0,0.221 0.179,0.4 0.4,0.4c0.221,-0 0.4,-0.179 0.4,-0.4l0,-8c0,-0.221 -0.179,-0.4 -0.4,-0.4c-0.221,-0 -0.4,0.179 -0.4,0.4Z" style="fill:#ec1f27;"/><path d="M13.6,17l-0,4c0,0.221 0.179,0.4 0.4,0.4c0.221,-0 0.4,-0.179 0.4,-0.4l0,-4c0,-0.221 -0.179,-0.4 -0.4,-0.4c-0.221,-0 -0.4,0.179 -0.4,0.4Z" style="fill:#ec1f27;"/><path d="M9.6,17l-0,4c0,0.221 0.179,0.4 0.4,0.4c0.221,-0 0.4,-0.179 0.4,-0.4l0,-4c0,-0.221 -0.179,-0.4 -0.4,-0.4c-0.221,-0 -0.4,0.179 -0.4,0.4Z" style="fill:#ec1f27;"/><path d="M27,22.6c-1.325,0 -2.4,1.075 -2.4,2.4c0,1.325 1.075,2.4 2.4,2.4c1.325,-0 2.4,-1.075 2.4,-2.4c-0,-1.325 -1.075,-2.4 -2.4,-2.4Zm0,0.8c0.883,-0 1.6,0.717 1.6,1.6c-0,0.883 -0.717,1.6 -1.6,1.6c-0.883,0 -1.6,-0.717 -1.6,-1.6c0,-0.883 0.717,-1.6 1.6,-1.6Z" style="fill:#ec1f27;"/><path d="M12,14.4l9,-0c0.221,0 0.4,-0.179 0.4,-0.4c0,-0.221 -0.179,-0.4 -0.4,-0.4l-9,0c-0.221,0 -0.4,0.179 -0.4,0.4c0,0.221 0.179,0.4 0.4,0.4Z" style="fill:#ec1f27;"/></svg>