<?xml version="1.0" encoding="UTF-8" standalone="no"?><!DOCTYPE svg PUBLIC "-//W3C//DTD SVG 1.1//EN" "http://www.w3.org/Graphics/SVG/1.1/DTD/svg11.dtd"><svg width="100%" height="100%" viewBox="0 0 36 36" version="1.1" xmlns="http://www.w3.org/2000/svg" xmlns:xlink="http://www.w3.org/1999/xlink" xml:space="preserve" xmlns:serif="http://www.serif.com/" style="fill-rule:evenodd;clip-rule:evenodd;stroke-linejoin:round;stroke-miterlimit:2;"><rect id="calendar" x="0" y="0" width="36" height="36" style="fill:none;"/><g id="bg-white"><circle cx="18" cy="18" r="18" style="fill:#fff;"/></g><path d="M23.25,8.6l-4.5,0c-0.221,-0 -0.4,0.179 -0.4,0.4c-0,0.221 0.179,0.4 0.4,0.4l4.5,-0c0.221,-0 0.4,-0.179 0.4,-0.4c-0,-0.221 -0.179,-0.4 -0.4,-0.4Z" style="fill:#ec1f27;"/><path d="M17.25,8.6l-4.5,0c-0.221,-0 -0.4,0.179 -0.4,0.4c-0,0.221 0.179,0.4 0.4,0.4l4.5,-0c0.221,-0 0.4,-0.179 0.4,-0.4c-0,-0.221 -0.179,-0.4 -0.4,-0.4Z" style="fill:#ec1f27;"/><path d="M11.25,8.6l-2.506,0c-1.325,0 -2.4,1.075 -2.4,2.4c-0,0 -0,16 -0,16c-0,1.325 1.075,2.4 2.4,2.4c-0,-0 18.506,-0 18.506,-0c1.325,-0 2.4,-1.075 2.4,-2.4l0,-16c0,-1.325 -1.075,-2.4 -2.4,-2.4l-2.5,0c-0.221,-0 -0.4,0.179 -0.4,0.4c-0,0.221 0.179,0.4 0.4,0.4l2.5,-0c0.883,-0 1.6,0.717 1.6,1.6c-0,0 -0,16 -0,16c-0,0.883 -0.717,1.6 -1.6,1.6l-18.506,0c-0.883,0 -1.6,-0.717 -1.6,-1.6l-0,-16c-0,-0.883 0.717,-1.6 1.6,-1.6c-0,-0 2.506,-0 2.506,-0c0.221,-0 0.4,-0.179 0.4,-0.4c-0,-0.221 -0.179,-0.4 -0.4,-0.4Z" style="fill:#ec1f27;"/><path d="M6.744,12.9l22.506,-0c0.221,-0 0.4,-0.179 0.4,-0.4c-0,-0.221 -0.179,-0.4 -0.4,-0.4l-22.506,0c-0.221,-0 -0.4,0.179 -0.4,0.4c-0,0.221 0.179,0.4 0.4,0.4Z" style="fill:#ec1f27;"/><path d="M9,16.4l2.5,-0c0.221,-0 0.4,-0.179 0.4,-0.4c-0,-0.221 -0.179,-0.4 -0.4,-0.4l-2.5,0c-0.221,-0 -0.4,0.179 -0.4,0.4c-0,0.221 0.179,0.4 0.4,0.4Z" style="fill:#ec1f27;"/><path d="M9,19.4l2.5,-0c0.221,-0 0.4,-0.179 0.4,-0.4c-0,-0.221 -0.179,-0.4 -0.4,-0.4l-2.5,0c-0.221,-0 -0.4,0.179 -0.4,0.4c-0,0.221 0.179,0.4 0.4,0.4Z" style="fill:#ec1f27;"/><path d="M9,22.4l2.5,-0c0.221,0 0.4,-0.179 0.4,-0.4c0,-0.221 -0.179,-0.4 -0.4,-0.4l-2.5,0c-0.221,0 -0.4,0.179 -0.4,0.4c0,0.221 0.179,0.4 0.4,0.4Z" style="fill:#ec1f27;"/><path d="M9,25.4l2.5,-0c0.221,-0 0.4,-0.179 0.4,-0.4c-0,-0.221 -0.179,-0.4 -0.4,-0.4l-2.5,0c-0.221,-0 -0.4,0.179 -0.4,0.4c-0,0.221 0.179,0.4 0.4,0.4Z" style="fill:#ec1f27;"/><path d="M14,16.4l2.5,-0c0.221,-0 0.4,-0.179 0.4,-0.4c-0,-0.221 -0.179,-0.4 -0.4,-0.4l-2.5,0c-0.221,-0 -0.4,0.179 -0.4,0.4c-0,0.221 0.179,0.4 0.4,0.4Z" style="fill:#ec1f27;"/><path d="M14,19.4l2.5,-0c0.221,-0 0.4,-0.179 0.4,-0.4c-0,-0.221 -0.179,-0.4 -0.4,-0.4l-2.5,0c-0.221,-0 -0.4,0.179 -0.4,0.4c-0,0.221 0.179,0.4 0.4,0.4Z" style="fill:#ec1f27;"/><path d="M14,22.4l2.5,-0c0.221,0 0.4,-0.179 0.4,-0.4c0,-0.221 -0.179,-0.4 -0.4,-0.4l-2.5,0c-0.221,0 -0.4,0.179 -0.4,0.4c0,0.221 0.179,0.4 0.4,0.4Z" style="fill:#ec1f27;"/><path d="M14,25.4l2.5,-0c0.221,-0 0.4,-0.179 0.4,-0.4c-0,-0.221 -0.179,-0.4 -0.4,-0.4l-2.5,0c-0.221,-0 -0.4,0.179 -0.4,0.4c-0,0.221 0.179,0.4 0.4,0.4Z" style="fill:#ec1f27;"/><path d="M19,16.4l2.5,-0c0.221,-0 0.4,-0.179 0.4,-0.4c-0,-0.221 -0.179,-0.4 -0.4,-0.4l-2.5,0c-0.221,-0 -0.4,0.179 -0.4,0.4c-0,0.221 0.179,0.4 0.4,0.4Z" style="fill:#ec1f27;"/><path d="M19,19.4l2.5,-0c0.221,-0 0.4,-0.179 0.4,-0.4c-0,-0.221 -0.179,-0.4 -0.4,-0.4l-2.5,0c-0.221,-0 -0.4,0.179 -0.4,0.4c-0,0.221 0.179,0.4 0.4,0.4Z" style="fill:#ec1f27;"/><path d="M19,25.4l2.5,-0c0.221,-0 0.4,-0.179 0.4,-0.4c-0,-0.221 -0.179,-0.4 -0.4,-0.4l-2.5,0c-0.221,-0 -0.4,0.179 -0.4,0.4c-0,0.221 0.179,0.4 0.4,0.4Z" style="fill:#ec1f27;"/><path d="M24,16.4l2.5,-0c0.221,-0 0.4,-0.179 0.4,-0.4c-0,-0.221 -0.179,-0.4 -0.4,-0.4l-2.5,0c-0.221,-0 -0.4,0.179 -0.4,0.4c-0,0.221 0.179,0.4 0.4,0.4Z" style="fill:#ec1f27;"/><path d="M24,19.4l2.5,-0c0.221,-0 0.4,-0.179 0.4,-0.4c-0,-0.221 -0.179,-0.4 -0.4,-0.4l-2.5,0c-0.221,-0 -0.4,0.179 -0.4,0.4c-0,0.221 0.179,0.4 0.4,0.4Z" style="fill:#ec1f27;"/><path d="M24,22.4l2.5,-0c0.221,0 0.4,-0.179 0.4,-0.4c0,-0.221 -0.179,-0.4 -0.4,-0.4l-2.5,0c-0.221,0 -0.4,0.179 -0.4,0.4c0,0.221 0.179,0.4 0.4,0.4Z" style="fill:#ec1f27;"/><path d="M24,25.4l2.5,-0c0.221,-0 0.4,-0.179 0.4,-0.4c-0,-0.221 -0.179,-0.4 -0.4,-0.4l-2.5,0c-0.221,-0 -0.4,0.179 -0.4,0.4c-0,0.221 0.179,0.4 0.4,0.4Z" style="fill:#ec1f27;"/><path d="M21.9,21.375c-0,-0.566 -0.459,-1.025 -1.025,-1.025l-1.25,0c-0.566,0 -1.025,0.459 -1.025,1.025c-0,-0 -0,1.25 -0,1.25c-0,0.566 0.459,1.025 1.025,1.025l1.25,0c0.566,0 1.025,-0.459 1.025,-1.025c-0,0 -0,-1.25 -0,-1.25Zm-0.8,0l-0,1.25c-0,0.124 -0.101,0.225 -0.225,0.225c0,0 -1.25,0 -1.25,0c-0.124,0 -0.225,-0.101 -0.225,-0.225l-0,-1.25c-0,-0.124 0.101,-0.225 0.225,-0.225c-0,0 1.25,0 1.25,0c0.124,0 0.225,0.101 0.225,0.225Z" style="fill:#ec1f27;"/><path d="M13.15,7.375c0,-0.428 -0.347,-0.775 -0.775,-0.775l-0.75,0c-0.428,0 -0.775,0.347 -0.775,0.775c-0,-0 -0,3.25 -0,3.25c-0,0.428 0.347,0.775 0.775,0.775c-0,-0 0.75,-0 0.75,-0c0.428,-0 0.775,-0.347 0.775,-0.775c0,0 0,-3.25 0,-3.25Zm-1.5,0.025l0,3.2l0.7,0l-0,-3.2l-0.7,-0Z" style="fill:#ec1f27;"/><path d="M19.15,7.375c0,-0.428 -0.347,-0.775 -0.775,-0.775l-0.75,0c-0.428,0 -0.775,0.347 -0.775,0.775c-0,-0 -0,3.25 -0,3.25c-0,0.428 0.347,0.775 0.775,0.775c-0,-0 0.75,-0 0.75,-0c0.428,-0 0.775,-0.347 0.775,-0.775c0,0 0,-3.25 0,-3.25Zm-1.5,0.025l0,3.2l0.7,0l-0,-3.2l-0.7,-0Z" style="fill:#ec1f27;"/><path d="M25.15,7.375c0,-0.428 -0.347,-0.775 -0.775,-0.775l-0.75,0c-0.428,0 -0.775,0.347 -0.775,0.775c-0,-0 -0,3.25 -0,3.25c-0,0.428 0.347,0.775 0.775,0.775c-0,-0 0.75,-0 0.75,-0c0.428,-0 0.775,-0.347 0.775,-0.775c0,0 0,-3.25 0,-3.25Zm-1.5,0.025l0,3.2l0.7,0l-0,-3.2l-0.7,-0Z" style="fill:#ec1f27;"/></svg>