<?xml version="1.0" encoding="UTF-8" standalone="no"?><!DOCTYPE svg PUBLIC "-//W3C//DTD SVG 1.1//EN" "http://www.w3.org/Graphics/SVG/1.1/DTD/svg11.dtd"><svg width="100%" height="100%" viewBox="0 0 36 36" version="1.1" xmlns="http://www.w3.org/2000/svg" xmlns:xlink="http://www.w3.org/1999/xlink" xml:space="preserve" xmlns:serif="http://www.serif.com/" style="fill-rule:evenodd;clip-rule:evenodd;stroke-linejoin:round;stroke-miterlimit:2;"><rect id="checkbox" x="0" y="0" width="36" height="36" style="fill:none;"/><g id="bg-white"><circle cx="18" cy="18" r="18" style="fill:#fff;"/></g><path d="M18,6.6c-6.292,0 -11.4,5.108 -11.4,11.4c-0,6.292 5.108,11.4 11.4,11.4c6.292,-0 11.4,-5.108 11.4,-11.4c0,-6.292 -5.108,-11.4 -11.4,-11.4Zm0,0.8c5.85,-0 10.6,4.75 10.6,10.6c0,5.85 -4.75,10.6 -10.6,10.6c-5.85,0 -10.6,-4.75 -10.6,-10.6c0,-5.85 4.75,-10.6 10.6,-10.6Z" style="fill:#ec1f27;"/><path d="M18,6.6c-6.292,0 -11.4,5.108 -11.4,11.4c-0,6.292 5.108,11.4 11.4,11.4c6.292,-0 11.4,-5.108 11.4,-11.4c0,-6.292 -5.108,-11.4 -11.4,-11.4Zm0,0.8c5.85,-0 10.6,4.75 10.6,10.6c0,5.85 -4.75,10.6 -10.6,10.6c-5.85,0 -10.6,-4.75 -10.6,-10.6c0,-5.85 4.75,-10.6 10.6,-10.6Z" style="fill:#ec1f27;"/><path d="M12.688,19.25l4,5c0.085,0.106 0.218,0.162 0.354,0.148c0.136,-0.015 0.255,-0.097 0.316,-0.219l6,-12c0.099,-0.198 0.018,-0.438 -0.179,-0.537c-0.198,-0.099 -0.438,-0.018 -0.537,0.179l-5.72,11.441c-0,-0 -3.61,-4.512 -3.61,-4.512c-0.138,-0.172 -0.389,-0.2 -0.562,-0.062c-0.172,0.138 -0.2,0.389 -0.062,0.562Z" style="fill:#ec1f27;"/></svg>