<?xml version="1.0" encoding="UTF-8" standalone="no"?><!DOCTYPE svg PUBLIC "-//W3C//DTD SVG 1.1//EN" "http://www.w3.org/Graphics/SVG/1.1/DTD/svg11.dtd"><svg width="100%" height="100%" viewBox="0 0 36 36" version="1.1" xmlns="http://www.w3.org/2000/svg" xmlns:xlink="http://www.w3.org/1999/xlink" xml:space="preserve" xmlns:serif="http://www.serif.com/" style="fill-rule:evenodd;clip-rule:evenodd;stroke-linejoin:round;stroke-miterlimit:2;"><rect id="checkbox-blank" x="0" y="0" width="36" height="36" style="fill:none;"/><g id="bg-white"><circle cx="18" cy="18" r="18" style="fill:#fff;"/></g><path d="M18,6.6c-6.292,0 -11.4,5.108 -11.4,11.4c0,6.292 5.108,11.4 11.4,11.4c6.292,-0 11.4,-5.108 11.4,-11.4c0,-6.292 -5.108,-11.4 -11.4,-11.4Zm0,0.8c5.85,-0 10.6,4.75 10.6,10.6c0,5.85 -4.75,10.6 -10.6,10.6c-5.85,0 -10.6,-4.75 -10.6,-10.6c0,-5.85 4.75,-10.6 10.6,-10.6Z" style="fill:#ec1f27;"/></svg>