<?xml version="1.0" encoding="UTF-8" standalone="no"?><!DOCTYPE svg PUBLIC "-//W3C//DTD SVG 1.1//EN" "http://www.w3.org/Graphics/SVG/1.1/DTD/svg11.dtd"><svg width="100%" height="100%" viewBox="0 0 36 36" version="1.1" xmlns="http://www.w3.org/2000/svg" xmlns:xlink="http://www.w3.org/1999/xlink" xml:space="preserve" xmlns:serif="http://www.serif.com/" style="fill-rule:evenodd;clip-rule:evenodd;stroke-linejoin:round;stroke-miterlimit:2;"><rect id="computer" x="0" y="0" width="36" height="36" style="fill:none;"/><g id="bg-white"><circle cx="18" cy="18" r="18" style="fill:#fff;"/></g><path d="M27.9,11c0,-1.049 -0.851,-1.9 -1.9,-1.9c-0,-0 -16,-0 -16,-0c-1.049,-0 -1.9,0.851 -1.9,1.9l-0,11.5c0,0.221 0.179,0.4 0.4,0.4l19,-0c0.221,-0 0.4,-0.179 0.4,-0.4l0,-11.5Zm-0.8,0l-0,11.1c0,-0 -18.2,-0 -18.2,-0c0,0 0,-11.1 0,-11.1c0,-0.607 0.493,-1.1 1.1,-1.1l16,-0c0.607,-0 1.1,0.493 1.1,1.1Z" style="fill:#ec1f27;"/><path d="M25.9,12.1c-0,-0.552 -0.448,-1 -1,-1l-13.8,-0c-0.552,-0 -1,0.448 -1,1l-0,8.3c-0,0.552 0.448,1 1,1c0,-0 13.8,-0 13.8,-0c0.552,-0 1,-0.448 1,-1l-0,-8.3Zm-0.8,0l-0,8.3c-0,0.11 -0.09,0.2 -0.2,0.2l-13.8,0c-0.11,0 -0.2,-0.09 -0.2,-0.2c-0,-0 -0,-8.3 -0,-8.3c-0,-0.11 0.09,-0.2 0.2,-0.2c0,-0 13.8,-0 13.8,-0c0.11,-0 0.2,0.09 0.2,0.2Z" style="fill:#ec1f27;"/><path d="M7,22.1l-0.021,0.001l-0.002,-0l-0.018,0.001l-0.02,0.003l-0.02,0.003l-0.019,0.005l-0.002,0l-0.017,0.005l-0.002,0.001l-0.016,0.005l-0.002,0.001l-0.017,0.006l-0.002,0.001l-0.015,0.007l-0.002,0.001l-0.016,0.008l-0.001,0.001l-0.015,0.009l-0.002,0.001l-0.015,0.009l-0.001,0.002l-0.014,0.01l-0.002,0.001l-0.013,0.01l-0.002,0.002l-0.013,0.011l-0.014,0.013l-0.013,0.014l-0.013,0.015l-0.011,0.015l-0.012,0.015l-0.01,0.017l-0.01,0.016l-0.009,0.018l-0.008,0.017l-0.007,0.019l-0.006,0.018l-0.001,0.002l-0.004,0.017l-0.001,0.002l-0.004,0.017l-0,0.003l-0.003,0.017l-0.001,0.002l-0.002,0.018l-0,0.002l-0.001,0.018l-0.001,0.003l-0,0.018l0,0.002c0.005,0.991 0.301,1.799 0.85,2.305c0.384,0.353 0.893,0.569 1.535,0.593c0.005,-0 0.01,-0 0.015,-0l17.5,-0c0.006,-0 0.011,-0 0.017,-0c1.382,-0.059 2.327,-1.221 2.383,-2.887c0.003,-0.108 -0.037,-0.213 -0.112,-0.291c-0.076,-0.078 -0.18,-0.122 -0.288,-0.122l-21.5,0Zm0.423,0.8c0.108,0.978 0.612,1.661 1.585,1.7c-0,0 17.482,0 17.49,-0c0.856,-0.044 1.415,-0.733 1.564,-1.7l-20.639,-0Z" style="fill:#ec1f27;"/><path d="M21.9,22.5c0,-0.221 -0.179,-0.4 -0.4,-0.4l-7,0c-0.221,0 -0.4,0.179 -0.4,0.4l-0,0.625c-0,0.566 0.459,1.025 1.025,1.025l5.75,-0c0.566,-0 1.025,-0.459 1.025,-1.025c0,0 0,-0.625 0,-0.625Zm-0.8,0.4l-0,0.225c-0,0.124 -0.101,0.225 -0.225,0.225c-0,0 -5.75,0 -5.75,0c-0.124,0 -0.225,-0.101 -0.225,-0.225l0,-0.225l6.2,0Z" style="fill:#ec1f27;"/><path d="M21.532,13.899c0.549,-0.044 0.968,0.031 1.235,0.293c0.271,0.264 0.364,0.696 0.334,1.287c-0.012,0.221 0.158,0.409 0.378,0.42c0.221,0.012 0.409,-0.158 0.42,-0.378c0.046,-0.883 -0.169,-1.506 -0.572,-1.901c-0.406,-0.398 -1.025,-0.586 -1.859,-0.519c-0.22,0.018 -0.384,0.211 -0.367,0.431c0.018,0.22 0.211,0.384 0.431,0.367Z" style="fill:#ec1f27;"/></svg>