<?xml version="1.0" encoding="UTF-8" standalone="no"?><!DOCTYPE svg PUBLIC "-//W3C//DTD SVG 1.1//EN" "http://www.w3.org/Graphics/SVG/1.1/DTD/svg11.dtd"><svg width="100%" height="100%" viewBox="0 0 36 36" version="1.1" xmlns="http://www.w3.org/2000/svg" xmlns:xlink="http://www.w3.org/1999/xlink" xml:space="preserve" xmlns:serif="http://www.serif.com/" style="fill-rule:evenodd;clip-rule:evenodd;stroke-linejoin:round;stroke-miterlimit:2;"><rect id="cops" x="0" y="0" width="36" height="36" style="fill:none;"/><g><circle cx="18" cy="18" r="18" style="fill:#fff;"/></g><path d="M7.703,29.884c-0,0.099 0.039,0.195 0.11,0.265c0.07,0.07 0.166,0.11 0.265,0.11l19.834,-0c0.206,-0 0.374,-0.167 0.375,-0.373c-0,-0 0.023,-4.868 -0,-6.341c-0.021,-1.37 -0.317,-2.472 -1.055,-3.152c-0.505,-0.466 -1.22,-0.749 -2.225,-0.768c-1.693,-0.032 -4.672,0.04 -7.031,0.009c-2.258,-0.028 -5.262,-0.044 -6.984,-0.009c-0.939,0.019 -1.654,0.327 -2.176,0.824c-0.759,0.721 -1.114,1.863 -1.113,3.166c0.001,1.701 -0,6.269 -0,6.269Zm0.75,-0.375c0,-1.127 0,-4.489 -0,-5.894c-0,-1.074 0.254,-2.028 0.88,-2.623c0.4,-0.38 0.954,-0.602 1.675,-0.617c1.716,-0.035 4.708,-0.019 6.958,0.009c2.358,0.031 5.335,-0.041 7.027,-0.009c0.778,0.015 1.34,0.209 1.731,0.569c0.607,0.56 0.795,1.485 0.813,2.613c0.019,1.222 0.006,4.787 0.001,5.952l-19.085,-0Z" style="fill:#ec1f27;"/><path d="M17.983,15.605c-1.607,-0 -2.875,1.089 -2.875,2.375c-0,1.285 1.268,2.375 2.875,2.375c1.607,-0 2.875,-1.09 2.875,-2.375c-0,-1.286 -1.268,-2.375 -2.875,-2.375Zm-0,0.75c1.153,-0 2.125,0.702 2.125,1.625c-0,0.922 -0.972,1.625 -2.125,1.625c-1.153,-0 -2.125,-0.703 -2.125,-1.625c-0,-0.923 0.972,-1.625 2.125,-1.625Z" style="fill:#ec1f27;"/><path d="M17.983,15.605c-1.607,-0 -2.875,1.089 -2.875,2.375c-0,1.285 1.268,2.375 2.875,2.375c1.607,-0 2.875,-1.09 2.875,-2.375c-0,-1.286 -1.268,-2.375 -2.875,-2.375Zm-0,0.75c1.153,-0 2.125,0.702 2.125,1.625c-0,0.922 -0.972,1.625 -2.125,1.625c-1.153,-0 -2.125,-0.703 -2.125,-1.625c-0,-0.923 0.972,-1.625 2.125,-1.625Z" style="fill:#ec1f27;"/><circle cx="17" cy="18" r="0.5" style="fill:#ec1f27;"/><path d="M17,17.125c-0.483,0 -0.875,0.392 -0.875,0.875c0,0.483 0.392,0.875 0.875,0.875c0.483,0 0.875,-0.392 0.875,-0.875c0,-0.483 -0.392,-0.875 -0.875,-0.875Zm-0,0.75c0.069,0 0.125,0.056 0.125,0.125c0,0.069 -0.056,0.125 -0.125,0.125c-0.069,0 -0.125,-0.056 -0.125,-0.125c0,-0.069 0.056,-0.125 0.125,-0.125Z" style="fill:#ec1f27;"/><circle cx="19" cy="18" r="0.5" style="fill:#ec1f27;"/><path d="M19,17.125c-0.483,-0 -0.875,0.392 -0.875,0.875c0,0.483 0.392,0.875 0.875,0.875c0.483,-0 0.875,-0.392 0.875,-0.875c0,-0.483 -0.392,-0.875 -0.875,-0.875Zm0,0.75c0.069,-0 0.125,0.056 0.125,0.125c0,0.069 -0.056,0.125 -0.125,0.125c-0.069,-0 -0.125,-0.056 -0.125,-0.125c0,-0.069 0.056,-0.125 0.125,-0.125Z" style="fill:#ec1f27;"/><path d="M23.81,27.208c0.081,0.031 0.17,0.034 0.253,0.007c0,0 0.582,-0.189 1.05,-0.569c0.361,-0.294 0.643,-0.696 0.646,-1.187c0.003,-0.425 -0.013,-1.61 -0.013,-1.61c-0.002,-0.139 -0.08,-0.265 -0.204,-0.328c0,-0 -0.579,-0.297 -1.034,-0.475c-0.245,-0.096 -0.465,-0.153 -0.583,-0.152c-0.118,0 -0.328,0.051 -0.561,0.137c-0.437,0.161 -0.986,0.429 -0.986,0.429c-0.131,0.064 -0.213,0.198 -0.21,0.345c-0,-0 0.03,1.434 0.05,1.813c0.021,0.397 0.289,0.762 0.634,1.038c0.431,0.344 0.958,0.552 0.958,0.552Zm0.148,-0.754c-0.151,-0.07 -0.411,-0.203 -0.638,-0.384c-0.171,-0.137 -0.343,-0.294 -0.353,-0.492c-0.015,-0.276 -0.035,-1.125 -0.044,-1.546c0.186,-0.086 0.461,-0.209 0.7,-0.297c0.128,-0.047 0.24,-0.091 0.304,-0.091c0.064,-0 0.176,0.048 0.308,0.1c0.262,0.102 0.568,0.248 0.764,0.344c0.005,0.363 0.012,1.062 0.01,1.367c-0.001,0.259 -0.179,0.454 -0.369,0.609c-0.242,0.196 -0.522,0.326 -0.681,0.39l-0.001,0Z" style="fill:#ec1f27;"/><path d="M20.728,23.26c0.044,0.048 0.095,0.079 0.149,0.097c0.064,0.023 0.11,0.018 0.123,0.018l0,-0.75c0.027,0 0.363,0.465 0.363,0.465c0,0 0.01,-0.03 0.019,-0.06c0.155,-0.485 0.973,-2.91 0.973,-2.91c0.066,-0.196 -0.039,-0.409 -0.235,-0.475c-0.196,-0.066 -0.409,0.039 -0.475,0.235c-0,0 -0.527,1.562 -0.817,2.434c-0.847,-0.823 -2.647,-2.582 -2.647,-2.582c-0.071,-0.07 -0.167,-0.108 -0.266,-0.107c-0.1,0.001 -0.195,0.042 -0.265,0.113l-2.489,2.559c-0,-0 -0.805,-2.416 -0.805,-2.416c-0.066,-0.196 -0.278,-0.302 -0.475,-0.237c-0.196,0.066 -0.302,0.278 -0.237,0.475l1,3c0.042,0.124 0.145,0.217 0.272,0.247c0.128,0.029 0.261,-0.011 0.353,-0.104l2.657,-2.731c0.657,0.642 2.321,2.268 2.725,2.655c0.032,0.032 0.059,0.056 0.077,0.074Z" style="fill:#ec1f27;"/><path d="M16.735,20.735c-0.114,0.114 -0.143,0.288 -0.07,0.433l0.936,1.872c-0,-0 -1.834,6.745 -1.834,6.745c-0.03,0.113 -0.007,0.234 0.064,0.327c0.071,0.092 0.181,0.147 0.298,0.147l3.744,-0c0.117,-0 0.227,-0.055 0.298,-0.147c0.071,-0.093 0.094,-0.214 0.064,-0.327l-1.836,-6.745c0,-0 0.936,-1.872 0.936,-1.872c0.073,-0.145 0.044,-0.319 -0.07,-0.433l-1,-1c-0.146,-0.147 -0.384,-0.147 -0.53,-0l-1,1Zm1.265,3.694l1.382,5.08c0,-0 -2.762,-0 -2.762,-0l1.38,-5.08Zm0,-2.268l-0.544,-1.087l0.544,-0.544c0,0 0.544,0.544 0.544,0.544l-0.544,1.087Z" style="fill:#ec1f27;"/><path d="M13.407,12.917c-0.189,-0.053 -0.386,0.047 -0.454,0.231c-0.212,0.578 -0.328,1.201 -0.328,1.852c0,2.967 2.408,5.375 5.375,5.375c2.967,0 5.375,-2.408 5.375,-5.375c0,-0.618 -0.105,-1.212 -0.297,-1.765c-0.064,-0.184 -0.257,-0.288 -0.445,-0.241c-1.134,0.281 -2.889,0.631 -4.633,0.631c-1.725,-0 -3.461,-0.39 -4.593,-0.708Zm0.144,0.816c1.173,0.31 2.816,0.642 4.449,0.642c1.643,-0 3.296,-0.297 4.469,-0.57c0.102,0.381 0.156,0.782 0.156,1.195c0,2.553 -2.072,4.625 -4.625,4.625c-2.553,0 -4.625,-2.072 -4.625,-4.625c0,-0.439 0.061,-0.864 0.176,-1.267l-0,0Z" style="fill:#ec1f27;"/><path d="M11.625,11.089l0,1.773c0,0.156 0.097,0.296 0.243,0.351c-0,0 3.084,1.162 6.132,1.162c3.041,-0 6.118,-1.019 6.118,-1.019c0.153,-0.051 0.257,-0.194 0.257,-0.356l-0,-1.911c-0,-0 0.96,-1.921 0.96,-1.921c0.047,-0.093 0.053,-0.2 0.017,-0.297c-0.036,-0.097 -0.11,-0.175 -0.205,-0.216l-7,-2.983c-0.094,-0.041 -0.2,-0.041 -0.294,-0l-7,2.983c-0.095,0.041 -0.169,0.119 -0.205,0.216c-0.036,0.097 -0.03,0.204 0.017,0.297l0.96,1.921Zm0.75,-0.089c-0,-0.058 -0.014,-0.116 -0.04,-0.168l-0.821,-1.643c-0,-0 6.486,-2.765 6.486,-2.765c-0,0 6.486,2.765 6.486,2.765c0,-0 -0.821,1.643 -0.821,1.643c-0.026,0.052 -0.04,0.11 -0.04,0.168l-0,1.724c-0.78,0.234 -3.214,0.901 -5.625,0.901c-2.419,-0 -4.862,-0.766 -5.625,-1.027c-0,-0 -0,-1.598 -0,-1.598Z" style="fill:#ec1f27;"/><path d="M11.897,11.361c0,-0 4.072,1.153 6.103,1.153c2.031,-0 6.103,-1.153 6.103,-1.153c0.199,-0.057 0.314,-0.265 0.258,-0.464c-0.057,-0.199 -0.265,-0.314 -0.464,-0.258c0,0 -3.934,1.125 -5.897,1.125c-1.963,-0 -5.897,-1.125 -5.897,-1.125c-0.199,-0.056 -0.407,0.059 -0.464,0.258c-0.056,0.199 0.059,0.407 0.258,0.464Z" style="fill:#ec1f27;"/><path d="M19,7.625l-1.914,0c-0.207,0 -0.375,0.168 -0.375,0.375l0,2c0,0.094 0.035,0.184 0.098,0.253l0.914,1c0.069,0.076 0.166,0.12 0.269,0.122c0.102,0.002 0.201,-0.037 0.273,-0.11l1,-1c0.07,-0.07 0.11,-0.166 0.11,-0.265l0,-2c0,-0.207 -0.168,-0.375 -0.375,-0.375Zm-1,0.75l0.625,0c0,-0 0,1.47 0,1.47c0,-0 -0.613,0.612 -0.613,0.612c0,0 -0.551,-0.603 -0.551,-0.603c0,0 0,-1.479 0,-1.479c0,0 0.539,0 0.539,0Z" style="fill:#ec1f27;"/></svg>