<?xml version="1.0" encoding="UTF-8" standalone="no"?><!DOCTYPE svg PUBLIC "-//W3C//DTD SVG 1.1//EN" "http://www.w3.org/Graphics/SVG/1.1/DTD/svg11.dtd"><svg width="100%" height="100%" viewBox="0 0 36 36" version="1.1" xmlns="http://www.w3.org/2000/svg" xmlns:xlink="http://www.w3.org/1999/xlink" xml:space="preserve" xmlns:serif="http://www.serif.com/" style="fill-rule:evenodd;clip-rule:evenodd;stroke-linejoin:round;stroke-miterlimit:2;"><rect id="course" x="0" y="0" width="36" height="36" style="fill:none;"/><g id="bg-white"><circle cx="18" cy="18" r="18" style="fill:#fff;"/></g><path d="M23.6,9.5l-0,4.1c0,0 -11.6,0 -11.6,0c-0.221,0 -0.4,0.179 -0.4,0.4l-0,5c0,0.221 0.179,0.4 0.4,0.4l11.6,-0c0,0 0,4.2 0,4.2c-0,0 -9.1,0 -9.1,0c-0.221,0 -0.4,0.179 -0.4,0.4c0,0.221 0.179,0.4 0.4,0.4l9.5,-0c0.221,0 0.4,-0.179 0.4,-0.4l0,-5c0,-0.221 -0.179,-0.4 -0.4,-0.4l-11.6,0c-0,-0 0,-4.2 0,-4.2c-0,-0 11.6,-0 11.6,-0c0.221,0 0.4,-0.179 0.4,-0.4l0,-4.5c0,-0.221 -0.179,-0.4 -0.4,-0.4c-0.221,-0 -0.4,0.179 -0.4,0.4Z" style="fill:#ec1f27;"/><path d="M12,20.936c-1.604,-0 -2.9,1.271 -2.9,2.83c-0,0.442 0.232,1.125 0.578,1.858c0.747,1.58 1.99,3.435 1.99,3.435c0.074,0.11 0.199,0.177 0.332,0.177c0.133,-0 0.258,-0.067 0.332,-0.177c0,-0 1.243,-1.855 1.99,-3.435c0.346,-0.733 0.578,-1.416 0.578,-1.858c-0,-1.559 -1.296,-2.83 -2.9,-2.83Zm-0,0.8c1.156,-0 2.1,0.907 2.1,2.03c-0,0.363 -0.218,0.915 -0.502,1.516c-0.485,1.028 -1.188,2.176 -1.598,2.82c-0.41,-0.644 -1.113,-1.792 -1.598,-2.82c-0.284,-0.601 -0.502,-1.153 -0.502,-1.516c-0,-1.123 0.944,-2.03 2.1,-2.03Z" style="fill:#ec1f27;"/><path d="M22.283,11.783l4,-4c0.156,-0.156 0.156,-0.41 -0,-0.566c-0.156,-0.156 -0.41,-0.156 -0.566,0l-4,4c-0.156,0.156 -0.156,0.41 0,0.566c0.156,0.156 0.41,0.156 0.566,-0Z" style="fill:#ec1f27;"/><path d="M21.717,7.783l3.984,3.984c0.156,0.156 0.41,0.156 0.566,-0c0.156,-0.156 0.156,-0.41 -0,-0.566l-3.984,-3.984c-0.156,-0.156 -0.41,-0.156 -0.566,0c-0.156,0.156 -0.156,0.41 0,0.566Z" style="fill:#ec1f27;"/><path d="M12,22.65c-0.745,-0 -1.35,0.605 -1.35,1.35c-0,0.745 0.605,1.35 1.35,1.35c0.745,-0 1.35,-0.605 1.35,-1.35c-0,-0.745 -0.605,-1.35 -1.35,-1.35Zm-0,0.7c0.359,-0 0.65,0.291 0.65,0.65c-0,0.359 -0.291,0.65 -0.65,0.65c-0.359,-0 -0.65,-0.291 -0.65,-0.65c-0,-0.359 0.291,-0.65 0.65,-0.65Z" style="fill:#ec1f27;"/></svg>