<?xml version="1.0" encoding="UTF-8" standalone="no"?><!DOCTYPE svg PUBLIC "-//W3C//DTD SVG 1.1//EN" "http://www.w3.org/Graphics/SVG/1.1/DTD/svg11.dtd"><svg width="100%" height="100%" viewBox="0 0 36 36" version="1.1" xmlns="http://www.w3.org/2000/svg" xmlns:xlink="http://www.w3.org/1999/xlink" xml:space="preserve" xmlns:serif="http://www.serif.com/" style="fill-rule:evenodd;clip-rule:evenodd;stroke-linejoin:round;stroke-miterlimit:2;"><rect id="droplet" x="0" y="0" width="36" height="36" style="fill:none;"/><g><circle cx="18" cy="18" r="18" style="fill:#fff;"/></g><path d="M18.319,5.803c-0.07,-0.113 -0.194,-0.181 -0.327,-0.178c-0.133,0.003 -0.255,0.076 -0.319,0.192c-0,0 -3.403,6.093 -5.474,11.338c-0.903,2.29 -1.549,4.423 -1.574,5.838c-0.062,3.478 3.005,7.382 7.375,7.382c4.367,-0 7.323,-3.895 7.375,-7.369c0.025,-1.692 -0.601,-3.935 -1.501,-6.245c-2.066,-5.297 -5.555,-10.958 -5.555,-10.958Zm-0.304,0.949c0.914,1.538 3.501,6.028 5.16,10.282c0.86,2.206 1.474,4.345 1.45,5.96c-0.046,3.124 -2.699,6.631 -6.625,6.631c-3.922,-0 -6.68,-3.497 -6.625,-6.618c0.024,-1.353 0.658,-3.388 1.522,-5.576c1.677,-4.248 4.235,-9.057 5.118,-10.679Z" style="fill:#ec1f27;"/><path d="M18.002,28.375c1.135,-0.007 2.481,-0.73 3.538,-1.773c1.055,-1.042 1.815,-2.392 1.835,-3.596c0.003,-0.207 -0.162,-0.377 -0.369,-0.381c-0.207,-0.003 -0.377,0.162 -0.381,0.369c-0.017,1.035 -0.704,2.178 -1.612,3.074c-0.907,0.894 -2.042,1.551 -3.015,1.557c-0.207,0.001 -0.374,0.17 -0.373,0.377c0.001,0.207 0.17,0.374 0.377,0.373Z" style="fill:#ec1f27;"/></svg>