<?xml version="1.0" encoding="UTF-8" standalone="no"?><!DOCTYPE svg PUBLIC "-//W3C//DTD SVG 1.1//EN" "http://www.w3.org/Graphics/SVG/1.1/DTD/svg11.dtd"><svg width="100%" height="100%" viewBox="0 0 36 36" version="1.1" xmlns="http://www.w3.org/2000/svg" xmlns:xlink="http://www.w3.org/1999/xlink" xml:space="preserve" xmlns:serif="http://www.serif.com/" style="fill-rule:evenodd;clip-rule:evenodd;stroke-linejoin:round;stroke-miterlimit:2;"><rect id="fighter" x="0" y="0" width="36" height="36" style="fill:none;"/><g><circle cx="18" cy="18" r="18" style="fill:#fff;"/></g><path d="M12.533,30.19c-0.206,-0.445 -1.27,-2.547 -1.445,-2.894c-0,0 -2.311,-2.444 -2.311,-2.444l-2.929,-1.298c-0.113,-0.05 -0.194,-0.153 -0.217,-0.274c-0.022,-0.122 0.016,-0.247 0.104,-0.334l2.094,-2.095c0.071,-0.07 0.166,-0.11 0.266,-0.11c-0,0 2.589,0 2.589,0c0,0 1.505,-1.158 1.505,-1.158l-4.021,-3.54c-0.077,-0.068 -0.123,-0.165 -0.127,-0.269c-0.003,-0.103 0.036,-0.203 0.109,-0.276l1.75,-1.768c0.109,-0.11 0.273,-0.142 0.415,-0.081c-0,0 4.924,2.115 4.924,2.115c0.65,-0.663 2.886,-2.926 3.825,-3.663c0.443,-0.347 0.848,-0.291 1.103,-0.189c0.672,-0.535 2.889,-2.304 3.569,-2.899c2.104,-1.839 6.123,-3.479 6.123,-3.479c0.139,-0.056 0.298,-0.024 0.405,0.081c0.107,0.106 0.14,0.265 0.085,0.405c-0,0 -1.454,3.656 -3.51,6.016c-0.558,0.642 -2.21,2.577 -2.701,3.153c0.067,0.266 0.095,0.702 -0.237,1.13c-0.699,0.898 -3.13,3.333 -3.797,3.998l2.028,5.553c0.05,0.137 0.016,0.291 -0.087,0.394l-1.359,1.359c-0.071,0.071 -0.169,0.111 -0.27,0.109c-0.101,-0.001 -0.198,-0.043 -0.267,-0.117c-0,0 -3.658,-3.87 -3.658,-3.87c-0,0 -1.455,1.277 -1.455,1.277l0,3.34c0,0.112 -0.05,0.219 -0.136,0.29c-0,-0 -0.751,0.618 -1.264,1.116c-0.141,0.137 -0.292,0.313 -0.355,0.388c-0.011,0.115 -0.065,0.185 -0.111,0.23c-0.075,0.074 -0.168,0.114 -0.285,0.107c-0.049,-0.003 -0.146,-0.012 -0.244,-0.111c-0.052,-0.052 -0.09,-0.115 -0.108,-0.192Zm16.747,-23.587c-0.541,1.188 -1.634,3.365 -3.006,4.941c-0.661,0.758 -2.846,3.322 -2.846,3.322c-0.1,0.117 -0.118,0.284 -0.045,0.42c-0,-0 0.145,0.29 -0.074,0.572c-0.799,1.027 -3.903,4.096 -3.903,4.096c-0.105,0.103 -0.139,0.257 -0.089,0.395l2.029,5.554c-0,-0 -0.917,0.917 -0.917,0.917c-0,-0 -3.641,-3.853 -3.641,-3.853c-0.139,-0.146 -0.369,-0.157 -0.52,-0.024l-1.854,1.628c-0.081,0.071 -0.128,0.174 -0.128,0.282l0,3.334c-0.276,0.233 -0.909,0.774 -1.316,1.187c-0.438,-0.888 -1.238,-2.465 -1.238,-2.465c-0.016,-0.033 -0.037,-0.062 -0.062,-0.088l-2.4,-2.539c-0.034,-0.036 -0.075,-0.065 -0.12,-0.086l-2.498,-1.106c-0,-0 1.598,-1.599 1.598,-1.599c-0,0 2.562,0 2.562,0c0.083,0 0.163,-0.027 0.229,-0.077l1.967,-1.515c0.089,-0.068 0.142,-0.173 0.146,-0.285c0.003,-0.112 -0.043,-0.219 -0.127,-0.293l-4.065,-3.578c0,-0 1.291,-1.304 1.291,-1.304c0,0 4.926,2.116 4.926,2.116c0.143,0.061 0.309,0.028 0.417,-0.083c-0,-0 2.846,-2.929 3.931,-3.781c0.237,-0.186 0.438,-0.042 0.438,-0.042c0.137,0.113 0.334,0.116 0.473,0.005c0,0 2.981,-2.367 3.792,-3.076c1.432,-1.253 3.788,-2.406 5.05,-2.975Z" style="fill:#ec1f27;"/><path d="M8.223,16.458l5.434,-5.434c0.147,-0.146 0.147,-0.384 0,-0.53c-0.146,-0.147 -0.384,-0.147 -0.53,-0l-5.435,5.434c-0.146,0.146 -0.146,0.384 0,0.53c0.147,0.147 0.384,0.147 0.531,0Z" style="fill:#ec1f27;"/><path d="M20.111,28.207l5.434,-5.434c0.146,-0.147 0.146,-0.384 0,-0.531c-0.146,-0.146 -0.384,-0.146 -0.53,0l-5.435,5.435c-0.146,0.146 -0.146,0.384 0,0.53c0.147,0.147 0.384,0.147 0.531,0Z" style="fill:#ec1f27;"/><path d="M20.74,13.323c-0.843,0.844 -1.424,1.724 -1.583,2.291c-0.112,0.397 -0.031,0.695 0.14,0.866c0.172,0.172 0.469,0.252 0.866,0.141c0.567,-0.16 1.448,-0.74 2.291,-1.584c0.844,-0.843 1.424,-1.724 1.584,-2.291c0.111,-0.397 0.031,-0.694 -0.141,-0.866c-0.171,-0.172 -0.469,-0.252 -0.866,-0.14c-0.567,0.159 -1.447,0.74 -2.291,1.583l0,0Zm2.587,-0.872c-0.015,0.077 -0.042,0.194 -0.082,0.288c-0.211,0.486 -0.688,1.134 -1.321,1.768c-0.634,0.633 -1.282,1.11 -1.768,1.32c-0.094,0.041 -0.211,0.068 -0.288,0.082c0.015,-0.077 0.042,-0.194 0.082,-0.288c0.21,-0.486 0.687,-1.134 1.321,-1.768l-0,0c0.633,-0.633 1.281,-1.11 1.768,-1.32c0.093,-0.041 0.211,-0.067 0.288,-0.082Z" style="fill:#ec1f27;"/><path d="M12.483,22.774l-3.961,3.96c-0.146,0.146 -0.146,0.384 0,0.53c0.147,0.147 0.384,0.147 0.531,0l3.96,-3.96c0.146,-0.146 0.146,-0.384 -0,-0.53c-0.146,-0.147 -0.384,-0.147 -0.53,-0Z" style="fill:#ec1f27;"/></svg>