<?xml version="1.0" encoding="UTF-8" standalone="no"?><!DOCTYPE svg PUBLIC "-//W3C//DTD SVG 1.1//EN" "http://www.w3.org/Graphics/SVG/1.1/DTD/svg11.dtd"><svg width="100%" height="100%" viewBox="0 0 36 36" version="1.1" xmlns="http://www.w3.org/2000/svg" xmlns:xlink="http://www.w3.org/1999/xlink" xml:space="preserve" xmlns:serif="http://www.serif.com/" style="fill-rule:evenodd;clip-rule:evenodd;stroke-linejoin:round;stroke-miterlimit:2;"><rect id="flame" x="0" y="0" width="36" height="36" style="fill:none;"/><g id="bg-white"><circle cx="18" cy="18" r="18" style="fill:#fff;"/></g><path d="M14.874,27.88c0.144,0.047 0.303,0.01 0.41,-0.098c0.107,-0.108 0.144,-0.267 0.095,-0.41c-0.4,-1.18 -0.259,-2.335 0.421,-3.108c0.765,-0.869 1.475,-1.623 1.878,-2.555c0.267,0.388 0.4,0.984 0.422,1.802c0.004,0.155 0.098,0.294 0.241,0.356c0.143,0.062 0.309,0.035 0.425,-0.069c1.017,-0.908 1.679,-2.077 1.998,-3.498c0.442,0.563 0.736,1.425 0.837,2.731c0,0.002 0,0.004 0.001,0.005c0.035,0.387 -0.051,0.809 -0.209,1.296c-0.265,0.811 -0.729,1.779 -1.26,3.009c-0.061,0.142 -0.036,0.307 0.066,0.423c0.102,0.116 0.262,0.163 0.41,0.121c4.136,-1.175 5.804,-5.687 5.284,-8.459c-0.553,-2.952 -1.915,-5.679 -3.03,-8.094c-0.064,-0.139 -0.203,-0.23 -0.357,-0.232c-0.154,-0.002 -0.295,0.084 -0.364,0.221c-0.285,0.57 -0.482,1.112 -0.805,1.628c-0.245,-2.171 -1.176,-3.702 -2.597,-4.769c-0.123,-0.092 -0.288,-0.106 -0.424,-0.035c-0.137,0.071 -0.22,0.213 -0.216,0.367c0.091,2.996 -1.073,5.926 -2.692,8.837c-0.45,-0.525 -0.618,-1.12 -0.513,-1.787c0.026,-0.165 -0.053,-0.329 -0.199,-0.411c-0.146,-0.082 -0.328,-0.064 -0.455,0.044c-1.907,1.624 -3.033,3.676 -3.141,6.289c0,0.007 -0,0.015 0,0.023c0.058,3.445 1.335,5.563 3.774,6.373Zm-0.456,-1.059c-1.656,-0.87 -2.47,-2.658 -2.518,-5.313c0.087,-2.053 0.869,-3.721 2.199,-5.087c0.113,0.696 0.486,1.326 1.142,1.884c0.091,0.077 0.211,0.11 0.328,0.089c0.117,-0.021 0.219,-0.092 0.278,-0.195c1.664,-2.91 2.911,-5.843 3.046,-8.829c1.07,1.076 1.682,2.578 1.707,4.635c0.002,0.16 0.099,0.303 0.246,0.364c0.148,0.062 0.318,0.029 0.433,-0.082c0.603,-0.586 0.914,-1.197 1.217,-1.846c1.01,2.162 2.128,4.558 2.611,7.133c0.426,2.273 -0.8,5.855 -3.867,7.232c0.384,-0.867 0.707,-1.594 0.913,-2.226c0.197,-0.605 0.289,-1.132 0.246,-1.613c-0.162,-2.083 -0.812,-3.188 -1.668,-3.794c-0.114,-0.08 -0.263,-0.096 -0.391,-0.04c-0.128,0.056 -0.218,0.175 -0.236,0.314c-0.167,1.241 -0.589,2.294 -1.286,3.146c-0.166,-0.986 -0.563,-1.608 -1.113,-1.936c-0.108,-0.065 -0.24,-0.075 -0.357,-0.027c-0.117,0.048 -0.204,0.148 -0.235,0.27c-0.288,1.112 -1.079,1.888 -1.913,2.836c-0.697,0.792 -0.977,1.899 -0.782,3.085l0,0Z" style="fill:#ec1f27;"/></svg>