<?xml version="1.0" encoding="UTF-8" standalone="no"?><!DOCTYPE svg PUBLIC "-//W3C//DTD SVG 1.1//EN" "http://www.w3.org/Graphics/SVG/1.1/DTD/svg11.dtd"><svg width="100%" height="100%" viewBox="0 0 36 36" version="1.1" xmlns="http://www.w3.org/2000/svg" xmlns:xlink="http://www.w3.org/1999/xlink" xml:space="preserve" xmlns:serif="http://www.serif.com/" style="fill-rule:evenodd;clip-rule:evenodd;stroke-linejoin:round;stroke-miterlimit:2;"><rect id="foot" x="0" y="0" width="36" height="36" style="fill:none;"/><g id="bg-white"><circle cx="18" cy="18" r="18" style="fill:#fff;"/></g><path d="M24.6,18.507c0.011,0.696 -0.137,1.226 -0.487,1.576c-0.354,0.354 -0.897,0.512 -1.616,0.517c-0.221,0.002 -0.399,0.182 -0.397,0.403c0.002,0.221 0.182,0.399 0.403,0.397c0.975,-0.007 1.695,-0.271 2.175,-0.751c0.483,-0.483 0.738,-1.197 0.722,-2.156c-0.004,-0.22 -0.186,-0.397 -0.407,-0.393c-0.22,0.004 -0.397,0.186 -0.393,0.407Z" style="fill:#ec1f27;"/><path d="M9.102,26.535c-0,-0 0.137,1.362 1.397,1.365c0.482,0.001 0.753,-0 0.753,-0c0.22,-0.001 0.398,-0.18 0.398,-0.4l0,-1.5c-0,-0.221 -0.179,-0.4 -0.4,-0.4c-0.221,0 -0.4,0.179 -0.4,0.4l-0,1.101c-0.099,-0 -0.216,-0.001 -0.349,-0.001c-0.565,-0.002 -0.603,-0.635 -0.603,-0.635c-0.019,-0.22 -0.213,-0.383 -0.433,-0.363c-0.22,0.019 -0.383,0.213 -0.363,0.433Z" style="fill:#ec1f27;"/><path d="M25.102,7.463c-0.341,3.623 0.271,7.727 1.55,9.995c0.266,0.473 0.716,1.054 1.118,1.68c0.359,0.558 0.685,1.152 0.754,1.732c0.05,0.922 -0.342,1.615 -1.225,1.949c-0.921,0.35 -2.164,0.722 -3.282,1.148c-1.29,0.492 -2.945,0.901 -4.184,2.135c-1.949,1.94 -3.589,2.467 -5.254,2.496c-0.962,0.017 -4.077,0.002 -4.077,0.002c-0.001,0 -0.001,0 -0.002,0c-0.857,0 -1.6,-0.243 -1.6,-1.1c0,-0.234 0.043,-0.427 0.153,-0.579c0.112,-0.154 0.289,-0.26 0.525,-0.34c0.403,-0.137 0.954,-0.188 1.668,-0.181c0.037,0 0.073,-0.004 0.109,-0.014c-0,0 2.296,-0.619 3.954,-2.632c0.495,-0.601 2.595,-4.735 3.205,-8.931c0.417,-2.865 0.126,-5.747 -1.731,-7.606c-0.156,-0.156 -0.41,-0.156 -0.566,0c-0.156,0.156 -0.156,0.41 0,0.566c1.687,1.689 1.884,4.322 1.505,6.925c-0.582,4.006 -2.558,7.964 -3.031,8.538c-1.352,1.641 -3.173,2.254 -3.496,2.353c-2.223,-0.009 -3.095,0.615 -3.095,1.901c0,1.352 1.048,1.9 2.4,1.9c-0.002,-0 3.127,0.015 4.093,-0.002c1.836,-0.032 3.655,-0.59 5.804,-2.729c1.153,-1.147 2.706,-1.497 3.905,-1.955c1.117,-0.426 2.36,-0.798 3.281,-1.147c1.25,-0.473 1.815,-1.449 1.74,-2.746c-0,-0.007 -0.001,-0.014 -0.002,-0.021c-0.062,-0.565 -0.314,-1.147 -0.638,-1.704c-0.442,-0.758 -1.019,-1.471 -1.335,-2.031c-1.217,-2.161 -1.774,-6.075 -1.45,-9.528c0.021,-0.219 -0.141,-0.415 -0.361,-0.435c-0.219,-0.021 -0.415,0.141 -0.435,0.361Z" style="fill:#ec1f27;"/></svg>