<?xml version="1.0" encoding="UTF-8" standalone="no"?><!DOCTYPE svg PUBLIC "-//W3C//DTD SVG 1.1//EN" "http://www.w3.org/Graphics/SVG/1.1/DTD/svg11.dtd"><svg width="100%" height="100%" viewBox="0 0 36 36" version="1.1" xmlns="http://www.w3.org/2000/svg" xmlns:xlink="http://www.w3.org/1999/xlink" xml:space="preserve" xmlns:serif="http://www.serif.com/" style="fill-rule:evenodd;clip-rule:evenodd;stroke-linejoin:round;stroke-miterlimit:2;"><rect id="gear" x="0" y="0" width="36" height="36" style="fill:none;"/><g id="bg-white"><circle cx="18" cy="18" r="18" style="fill:#fff;"/></g><path d="M18,12.6c-2.98,0 -5.4,2.42 -5.4,5.4c-0,2.98 2.42,5.4 5.4,5.4c2.98,0 5.4,-2.42 5.4,-5.4c-0,-2.98 -2.42,-5.4 -5.4,-5.4Zm-0,0.8c2.539,0 4.6,2.061 4.6,4.6c-0,2.539 -2.061,4.6 -4.6,4.6c-2.539,0 -4.6,-2.061 -4.6,-4.6c-0,-2.539 2.061,-4.6 4.6,-4.6Z" style="fill:#ec1f27;"/><path d="M19,7.6l-2,0c-0.773,0 -1.4,0.627 -1.4,1.4c-0,-0 -0,0.949 -0,0.949c-0.558,0.166 -1.092,0.389 -1.595,0.662c-0,-0 -1.015,-1.015 -1.015,-1.015c-0.546,-0.547 -1.434,-0.547 -1.98,-0c0,-0 -1.414,1.414 -1.414,1.414c-0.547,0.546 -0.547,1.434 -0,1.98c-0,-0 1.015,1.015 1.015,1.015c-0.273,0.503 -0.496,1.037 -0.663,1.595l-0.948,0c-0.773,0 -1.4,0.627 -1.4,1.4c-0,-0 -0,2 -0,2c-0,0.773 0.627,1.4 1.4,1.4c-0,-0 0.949,-0 0.949,-0c0.166,0.558 0.389,1.092 0.662,1.595c-0,0 -1.015,1.015 -1.015,1.015c-0.547,0.546 -0.547,1.434 -0,1.98c-0,-0 1.414,1.414 1.414,1.414c0.546,0.547 1.434,0.547 1.98,0c-0,0 1.015,-1.015 1.015,-1.015c0.503,0.273 1.037,0.496 1.595,0.663c-0,-0.001 -0,0.948 -0,0.948c-0,0.773 0.627,1.4 1.4,1.4l2,-0c0.773,-0 1.4,-0.627 1.4,-1.4l-0,-0.949c0.558,-0.166 1.092,-0.389 1.595,-0.662c0,0 1.015,1.015 1.015,1.015c0.546,0.547 1.434,0.547 1.98,0c-0,0 1.414,-1.414 1.414,-1.414c0.547,-0.546 0.547,-1.434 0,-1.98c0,0 -1.015,-1.015 -1.015,-1.015c0.273,-0.503 0.496,-1.037 0.663,-1.595c-0.001,-0 0.948,-0 0.948,-0c0.773,-0 1.4,-0.627 1.4,-1.4c0,0 0,-2 0,-2c0,-0.773 -0.627,-1.4 -1.4,-1.4l-0.949,-0c-0.166,-0.558 -0.389,-1.092 -0.662,-1.595c0,-0 1.015,-1.015 1.015,-1.015c0.547,-0.546 0.547,-1.434 0,-1.98c0,0 -1.414,-1.414 -1.414,-1.414c-0.546,-0.547 -1.434,-0.547 -1.98,-0c0,-0 -1.015,1.015 -1.015,1.015c-0.503,-0.273 -1.037,-0.496 -1.595,-0.663c0,0.001 0,-0.948 0,-0.948c0,-0.773 -0.627,-1.4 -1.4,-1.4Zm0,0.8c0.331,0 0.6,0.269 0.6,0.6c-0,-0 -0,1.252 -0,1.252c0,0.183 0.123,0.342 0.3,0.388c0.697,0.179 1.355,0.455 1.959,0.813c0.158,0.093 0.358,0.067 0.487,-0.062l1.23,-1.229c0.234,-0.235 0.614,-0.235 0.848,-0c0,-0 1.414,1.414 1.414,1.414c0.235,0.234 0.235,0.614 0,0.848c0,0 -1.229,1.23 -1.229,1.23c-0.129,0.129 -0.155,0.329 -0.062,0.487c0.358,0.604 0.634,1.262 0.813,1.959c0.046,0.177 0.205,0.3 0.388,0.3l1.252,-0c0.331,0 0.6,0.269 0.6,0.6l-0,2c-0,0.331 -0.269,0.6 -0.6,0.6l-1.252,0c-0.183,0 -0.342,0.123 -0.388,0.3c-0.179,0.697 -0.455,1.355 -0.813,1.959c-0.093,0.158 -0.067,0.358 0.062,0.487l1.229,1.23c0.235,0.234 0.235,0.614 0,0.848c0,0 -1.414,1.414 -1.414,1.414c-0.234,0.235 -0.614,0.235 -0.848,0c-0,0 -1.23,-1.229 -1.23,-1.229c-0.129,-0.129 -0.329,-0.155 -0.487,-0.062c-0.604,0.358 -1.262,0.634 -1.959,0.813c-0.177,0.046 -0.3,0.205 -0.3,0.388l-0,1.252c-0,0.331 -0.269,0.6 -0.6,0.6c0,0 -2,0 -2,0c-0.331,0 -0.6,-0.269 -0.6,-0.6l-0,-1.252c-0,-0.183 -0.123,-0.342 -0.3,-0.388c-0.697,-0.179 -1.355,-0.455 -1.959,-0.813c-0.158,-0.093 -0.358,-0.067 -0.487,0.062l-1.23,1.229c-0.234,0.235 -0.614,0.235 -0.848,0c-0,0 -1.414,-1.414 -1.414,-1.414c-0.235,-0.234 -0.235,-0.614 -0,-0.848c-0,-0 1.229,-1.23 1.229,-1.23c0.129,-0.129 0.155,-0.329 0.062,-0.487c-0.358,-0.604 -0.634,-1.262 -0.813,-1.959c-0.046,-0.177 -0.205,-0.3 -0.388,-0.3l-1.252,0c-0.331,0 -0.6,-0.269 -0.6,-0.6l0,-2c0,-0.331 0.269,-0.6 0.6,-0.6c0,-0 1.252,-0 1.252,-0c0.183,-0 0.342,-0.123 0.388,-0.3c0.179,-0.697 0.455,-1.355 0.813,-1.959c0.093,-0.158 0.067,-0.358 -0.062,-0.487l-1.229,-1.23c-0.235,-0.234 -0.235,-0.614 -0,-0.848c-0,-0 1.414,-1.414 1.414,-1.414c0.234,-0.235 0.614,-0.235 0.848,-0c0,-0 1.23,1.229 1.23,1.229c0.129,0.129 0.329,0.155 0.487,0.062c0.604,-0.358 1.262,-0.634 1.959,-0.813c0.177,-0.046 0.3,-0.205 0.3,-0.388l0,-1.252c0,-0.331 0.269,-0.6 0.6,-0.6l2,0Z" style="fill:#ec1f27;"/></svg>