<?xml version="1.0" encoding="UTF-8" standalone="no"?><!DOCTYPE svg PUBLIC "-//W3C//DTD SVG 1.1//EN" "http://www.w3.org/Graphics/SVG/1.1/DTD/svg11.dtd"><svg width="100%" height="100%" viewBox="0 0 36 36" version="1.1" xmlns="http://www.w3.org/2000/svg" xmlns:xlink="http://www.w3.org/1999/xlink" xml:space="preserve" xmlns:serif="http://www.serif.com/" style="fill-rule:evenodd;clip-rule:evenodd;stroke-linejoin:round;stroke-miterlimit:2;"><rect id="hammer" x="0" y="0" width="36" height="36" style="fill:none;"/><g id="bg-white"><circle cx="18" cy="18" r="18" style="fill:#fff;"/></g><path d="M11.561,14.045l15.165,13.998c0.001,0.001 0.002,0.002 0.004,0.004c0.917,0.823 1.91,0.806 2.626,0.401c0.664,-0.376 1.092,-1.101 1.04,-1.864c-0.035,-0.499 -0.271,-1.023 -0.805,-1.471c0.004,0.003 -15.154,-13.989 -15.154,-13.989c-0.162,-0.15 -0.416,-0.14 -0.565,0.023c-0.15,0.162 -0.14,0.415 0.022,0.565l15.165,13.998c0.005,0.004 0.009,0.009 0.014,0.013c0.337,0.282 0.503,0.602 0.525,0.916c0.031,0.458 -0.237,0.887 -0.636,1.113c-0.464,0.263 -1.101,0.234 -1.696,-0.299c-0,-0 -15.162,-13.996 -15.162,-13.996c-0.162,-0.15 -0.416,-0.14 -0.565,0.023c-0.15,0.162 -0.14,0.415 0.022,0.565Z" style="fill:#ec1f27;"/><path d="M14.448,11.701l0.011,-0.011c0.754,-0.814 1.773,-1.274 2.912,-1.578c1.199,-0.319 2.528,-0.465 3.844,-0.63c0.186,-0.024 0.331,-0.174 0.348,-0.361c0.017,-0.187 -0.099,-0.361 -0.278,-0.417c-2.473,-0.784 -4.697,-1.212 -6.512,-1.08c-1.274,0.093 -2.353,0.459 -3.195,1.152c-0.01,0.008 -0.019,0.017 -0.028,0.026l-2.287,2.287c-0,0 -2.275,1.138 -2.275,1.138c-0.039,0.019 -0.074,0.044 -0.104,0.075l-1.167,1.166c-0.156,0.156 -0.156,0.41 0,0.566l3.5,3.499c0.156,0.156 0.409,0.156 0.565,0l1.167,-1.166c0.03,-0.031 0.056,-0.066 0.075,-0.104l1.137,-2.275c0,-0 2.287,-2.287 2.287,-2.287Zm-0.569,-0.562c1.282,-1.38 3.238,-1.881 5.329,-2.197c-1.265,-0.318 -2.44,-0.511 -3.498,-0.539c-1.467,-0.038 -2.701,0.239 -3.609,0.979l-2.319,2.319c-0.03,0.03 -0.065,0.055 -0.104,0.075c0,-0 -2.275,1.137 -2.275,1.137c0,0 -0.837,0.838 -0.837,0.838c-0,-0 2.934,2.934 2.934,2.934c-0,-0 0.837,-0.838 0.837,-0.838l1.138,-2.275c0.019,-0.038 0.044,-0.074 0.075,-0.104l2.329,-2.329Z" style="fill:#ec1f27;"/></svg>