<?xml version="1.0" encoding="UTF-8" standalone="no"?><!DOCTYPE svg PUBLIC "-//W3C//DTD SVG 1.1//EN" "http://www.w3.org/Graphics/SVG/1.1/DTD/svg11.dtd"><svg width="100%" height="100%" viewBox="0 0 36 36" version="1.1" xmlns="http://www.w3.org/2000/svg" xmlns:xlink="http://www.w3.org/1999/xlink" xml:space="preserve" xmlns:serif="http://www.serif.com/" style="fill-rule:evenodd;clip-rule:evenodd;stroke-linejoin:round;stroke-miterlimit:2;"><rect id="hand-fist" x="0" y="0" width="36" height="36" style="fill:none;"/><g><circle cx="18" cy="18" r="18" style="fill:#fff;"/></g><path d="M28.358,13.329c0,-1.31 -1.063,-2.373 -2.373,-2.373c-1.31,-0 -2.373,1.063 -2.373,2.373c-0,-0 -0,3.496 -0,3.496c-0,1.31 1.063,2.373 2.373,2.373c1.31,0 2.373,-1.063 2.373,-2.373c0,-0 0,-3.496 0,-3.496Zm-0.75,-0l0,3.496c0,0.896 -0.727,1.623 -1.623,1.623c-0.896,0 -1.623,-0.727 -1.623,-1.623l-0,-3.496c-0,-0.896 0.727,-1.623 1.623,-1.623c0.896,-0 1.623,0.727 1.623,1.623Z" style="fill:#ec1f27;"/><path d="M24.362,11.664c-0,-1.31 -1.064,-2.374 -2.374,-2.374c-1.31,0 -2.373,1.064 -2.373,2.374l0,5.161c0,1.31 1.063,2.373 2.373,2.373c1.31,0 2.374,-1.063 2.374,-2.373l-0,-5.161Zm-0.75,-0l-0,5.161c-0,0.896 -0.728,1.623 -1.624,1.623c-0.896,0 -1.623,-0.727 -1.623,-1.623c0,-0 0,-5.161 0,-5.161c0,-0.896 0.727,-1.624 1.623,-1.624c0.896,0 1.624,0.728 1.624,1.624Z" style="fill:#ec1f27;"/><path d="M15.618,15.972c0,0.207 0.167,0.374 0.373,0.375c0.839,0.005 1.557,0.012 1.993,0.021c0.645,0.014 1.156,0.313 1.423,0.788c0.066,0.118 0.191,0.191 0.327,0.191c0.135,0 0.26,-0.073 0.326,-0.191c0.194,-0.343 0.305,-0.74 0.305,-1.163c0,0 0,-5.995 0,-5.995c0,-1.31 -1.063,-2.373 -2.373,-2.373c-1.31,-0 -2.374,1.063 -2.374,2.373l0,5.974Zm0.75,-0.372l0,-5.602c0,-0.896 0.728,-1.623 1.624,-1.623c0.896,-0 1.623,0.727 1.623,1.623l0,5.995c0,0.076 -0.005,0.15 -0.015,0.222c-0.406,-0.362 -0.954,-0.583 -1.6,-0.597c-0.373,-0.007 -0.949,-0.014 -1.632,-0.018l0,-0Z" style="fill:#ec1f27;"/><path d="M11.622,15.971c-0,0.1 0.039,0.195 0.11,0.266c0.071,0.07 0.167,0.109 0.267,0.109c1.254,-0.007 2.755,-0.005 3.992,0.001c0.1,0.001 0.196,-0.038 0.267,-0.109c0.071,-0.07 0.11,-0.166 0.11,-0.266l0,-4.308c0,-1.31 -1.063,-2.374 -2.373,-2.374c-1.31,0 -2.373,1.064 -2.373,2.374l-0,4.307Zm0.75,-0.377l-0,-3.93c-0,-0.896 0.727,-1.624 1.623,-1.624c0.896,0 1.623,0.728 1.623,1.624l0,3.932c-1.033,-0.005 -2.203,-0.006 -3.246,-0.002Z" style="fill:#ec1f27;"/><path d="M27.608,15.996c0,-0 0.038,5.737 0,7.984c-0.034,2.042 -1.536,3.601 -3.626,3.628c-2.916,0.038 -9.117,-0.048 -11.992,0c-1.073,0.019 -1.982,-0.32 -2.619,-0.951c-0.639,-0.632 -0.999,-1.551 -0.996,-2.669c0.004,-1.711 1.418,-4.473 1.972,-5.857c0.213,-0.534 0.451,-0.995 0.749,-1.324c0.251,-0.276 0.545,-0.451 0.91,-0.46c1.66,-0.039 4.482,-0.01 5.978,0.021c0.971,0.021 1.631,0.706 1.631,1.624c0,0.916 -0.679,1.62 -1.624,1.623c-0.931,0.003 -2.534,0.002 -3.323,-0c-0.326,-0.001 -0.687,0.227 -0.998,0.602c-0.56,0.675 -1.018,1.799 -1.018,1.799c-0.077,0.192 0.016,0.411 0.207,0.488c0.192,0.078 0.411,-0.015 0.489,-0.207c-0,0 0.299,-0.742 0.701,-1.335c0.122,-0.18 0.253,-0.346 0.389,-0.466c0.078,-0.069 0.149,-0.131 0.228,-0.131c0.79,0.002 2.395,0.003 3.327,-0c1.382,-0.004 2.372,-1.035 2.372,-2.373c0,-1.337 -0.951,-2.344 -2.365,-2.374c-1.505,-0.031 -4.342,-0.06 -6.012,-0.02c-1.077,0.025 -1.808,0.928 -2.338,2.254c-0.578,1.447 -2.02,4.346 -2.025,6.134c-0.003,1.345 0.45,2.444 1.218,3.205c0.77,0.762 1.862,1.189 3.16,1.167c2.874,-0.048 9.073,0.038 11.988,0c2.516,-0.032 4.326,-1.907 4.367,-4.365c0.038,-2.252 0,-8.002 0,-8.002c-0.001,-0.207 -0.17,-0.374 -0.377,-0.373c-0.207,0.002 -0.374,0.171 -0.373,0.378Z" style="fill:#ec1f27;"/></svg>