<?xml version="1.0" encoding="UTF-8" standalone="no"?><!DOCTYPE svg PUBLIC "-//W3C//DTD SVG 1.1//EN" "http://www.w3.org/Graphics/SVG/1.1/DTD/svg11.dtd"><svg width="100%" height="100%" viewBox="0 0 36 36" version="1.1" xmlns="http://www.w3.org/2000/svg" xmlns:xlink="http://www.w3.org/1999/xlink" xml:space="preserve" xmlns:serif="http://www.serif.com/" style="fill-rule:evenodd;clip-rule:evenodd;stroke-linejoin:round;stroke-miterlimit:2;"><rect id="hand-peace" x="0" y="0" width="36" height="36" style="fill:none;"/><g><circle cx="18" cy="18" r="18" style="fill:#fff;"/></g><path d="M28.358,15.336c0,-1.31 -1.063,-2.374 -2.373,-2.374c-1.31,0 -2.373,1.064 -2.373,2.374l-0,3.496c-0,1.31 1.063,2.373 2.373,2.373c1.31,0 2.373,-1.063 2.373,-2.373l0,-3.496Zm-0.75,-0l0,3.496c0,0.896 -0.727,1.623 -1.623,1.623c-0.896,0 -1.623,-0.727 -1.623,-1.623c-0,-0 -0,-3.496 -0,-3.496c-0,-0.896 0.727,-1.624 1.623,-1.624c0.896,0 1.623,0.728 1.623,1.624Z" style="fill:#ec1f27;"/><path d="M24.362,13.671c-0,-1.31 -1.064,-2.374 -2.374,-2.374c-1.31,0 -2.373,1.064 -2.373,2.374l0,5.161c0,1.31 1.063,2.373 2.373,2.373c1.31,0 2.374,-1.063 2.374,-2.373c-0,-0 -0,-5.161 -0,-5.161Zm-0.75,-0l-0,5.161c-0,0.896 -0.728,1.623 -1.624,1.623c-0.896,0 -1.623,-0.727 -1.623,-1.623c0,-0 0,-5.161 0,-5.161c0,-0.896 0.727,-1.624 1.623,-1.624c0.896,0 1.624,0.728 1.624,1.624Z" style="fill:#ec1f27;"/><path d="M10.933,18.244c0.024,0.117 0.103,0.216 0.212,0.266c0.108,0.05 0.234,0.044 0.339,-0.014c0.157,-0.088 0.329,-0.137 0.522,-0.142c0.9,-0.021 2.143,-0.022 3.33,-0.014c0.113,0.001 0.221,-0.05 0.293,-0.137c0.071,-0.087 0.1,-0.203 0.077,-0.313l-2.092,-10.195c-0.263,-1.283 -1.518,-2.111 -2.802,-1.848c-1.283,0.263 -2.111,1.519 -1.847,2.802c-0,-0 1.968,9.595 1.968,9.595Zm0.646,-0.586l-1.88,-9.16c-0.18,-0.878 0.387,-1.736 1.264,-1.916c0.878,-0.18 1.737,0.386 1.917,1.264l1.999,9.741c-1.049,-0.005 -2.101,-0.001 -2.891,0.017c-0.143,0.004 -0.279,0.022 -0.409,0.054l-0,0Z" style="fill:#ec1f27;"/><path d="M14.905,17.906c-0.017,0.108 0.013,0.218 0.084,0.301c0.071,0.083 0.174,0.132 0.283,0.133c1.025,0.006 2.013,0.021 2.712,0.035c0.409,0.009 0.763,0.13 1.037,0.341c0.104,0.081 0.244,0.1 0.367,0.052c0.123,-0.049 0.211,-0.159 0.232,-0.29l1.604,-10.107c0.205,-1.294 -0.679,-2.511 -1.972,-2.716c-1.294,-0.206 -2.511,0.678 -2.716,1.972c-0,-0 -1.631,10.279 -1.631,10.279Zm0.809,-0.313l1.562,-9.849c0.141,-0.885 0.973,-1.489 1.858,-1.349c0.885,0.141 1.489,0.973 1.349,1.858c-0,-0 -1.519,9.571 -1.519,9.571c-0.287,-0.121 -0.611,-0.191 -0.964,-0.199c-0.602,-0.012 -1.418,-0.024 -2.286,-0.032l-0,-0Z" style="fill:#ec1f27;"/><path d="M27.608,18.003c0,-0 0.038,5.737 0,7.984c-0.034,2.042 -1.536,3.601 -3.626,3.628c-2.916,0.038 -9.117,-0.048 -11.992,0c-1.073,0.018 -1.982,-0.32 -2.619,-0.951c-0.639,-0.632 -0.999,-1.551 -0.996,-2.669c0.004,-1.711 1.418,-4.474 1.972,-5.857c0.213,-0.534 0.451,-0.995 0.749,-1.324c0.251,-0.276 0.545,-0.451 0.91,-0.46c1.66,-0.039 4.482,-0.01 5.978,0.021c0.971,0.02 1.631,0.706 1.631,1.624c0,0.915 -0.679,1.62 -1.624,1.623c-0.931,0.003 -2.534,0.002 -3.323,-0c-0.326,-0.001 -0.687,0.227 -0.998,0.602c-0.56,0.675 -1.018,1.799 -1.018,1.799c-0.077,0.192 0.016,0.411 0.207,0.488c0.192,0.078 0.411,-0.015 0.489,-0.207c-0,0 0.299,-0.742 0.701,-1.335c0.122,-0.18 0.253,-0.346 0.389,-0.466c0.078,-0.069 0.149,-0.131 0.228,-0.131c0.79,0.002 2.395,0.003 3.327,-0c1.382,-0.004 2.372,-1.035 2.372,-2.373c0,-1.337 -0.951,-2.344 -2.365,-2.374c-1.505,-0.031 -4.342,-0.06 -6.012,-0.021c-1.077,0.026 -1.808,0.929 -2.338,2.255c-0.578,1.447 -2.02,4.346 -2.025,6.134c-0.003,1.345 0.45,2.444 1.218,3.204c0.77,0.762 1.862,1.19 3.16,1.168c2.874,-0.048 9.073,0.038 11.988,0c2.516,-0.032 4.326,-1.907 4.367,-4.365c0.038,-2.252 0,-8.002 0,-8.002c-0.001,-0.207 -0.17,-0.374 -0.377,-0.373c-0.207,0.002 -0.374,0.171 -0.373,0.378Z" style="fill:#ec1f27;"/></svg>