<?xml version="1.0" encoding="UTF-8" standalone="no"?><!DOCTYPE svg PUBLIC "-//W3C//DTD SVG 1.1//EN" "http://www.w3.org/Graphics/SVG/1.1/DTD/svg11.dtd"><svg width="100%" height="100%" viewBox="0 0 36 36" version="1.1" xmlns="http://www.w3.org/2000/svg" xmlns:xlink="http://www.w3.org/1999/xlink" xml:space="preserve" xmlns:serif="http://www.serif.com/" style="fill-rule:evenodd;clip-rule:evenodd;stroke-linejoin:round;stroke-miterlimit:2;"><rect id="hand-thumsb-up" x="0" y="0" width="36" height="36" style="fill:none;"/><g><circle cx="18" cy="18" r="18" style="fill:#fff;"/></g><path d="M22,30.372c1.31,-0 2.373,-1.064 2.373,-2.374c0,-1.31 -1.063,-2.373 -2.373,-2.373l-2.999,0.003c-1.31,0 -2.373,1.064 -2.373,2.374c-0,1.31 1.063,2.373 2.373,2.373l2.999,-0.003Zm-0,-0.75l-2.999,0.003c-0.896,-0 -1.623,-0.727 -1.623,-1.623c-0,-0.896 0.727,-1.624 1.623,-1.624l2.999,-0.003c0.896,0 1.623,0.727 1.623,1.623c0,0.896 -0.727,1.624 -1.623,1.624Z" style="fill:#ec1f27;"/><path d="M23.665,26.375c1.31,-0 2.374,-1.063 2.374,-2.373c-0,-1.31 -1.064,-2.374 -2.374,-2.374l-4.664,0.004c-1.31,-0 -2.373,1.063 -2.373,2.373c-0,1.31 1.063,2.373 2.373,2.373l4.664,-0.003Zm0,-0.75l-4.664,0.003c-0.896,0 -1.623,-0.727 -1.623,-1.623c-0,-0.896 0.727,-1.623 1.623,-1.623l4.664,-0.004c0.896,0 1.624,0.728 1.624,1.624c-0,0.896 -0.728,1.623 -1.624,1.623Z" style="fill:#ec1f27;"/><path d="M23.505,18.373c0,0 0.001,0 0.001,0c1.31,0 2.373,-1.063 2.373,-2.373c0,-1.31 -1.063,-2.373 -2.373,-2.373l-4.505,-0.005c-1.31,-0 -2.373,1.063 -2.373,2.373c-0,1.31 1.063,2.373 2.373,2.373c-0,0 4.504,0.005 4.504,0.005Zm0.001,-0.75l-4.505,-0.005c-0.896,0 -1.623,-0.727 -1.623,-1.623c-0,-0.896 0.727,-1.623 1.623,-1.623l4.505,0.005c0.896,-0 1.623,0.727 1.623,1.623c0,0.896 -0.727,1.623 -1.623,1.623l-0,0Z" style="fill:#ec1f27;"/><path d="M25.332,22.378c1.31,0 2.374,-1.063 2.374,-2.373c-0,-1.31 -1.064,-2.373 -2.374,-2.373l-6.331,0.003c-1.31,0 -2.373,1.063 -2.373,2.373c-0,1.31 1.063,2.374 2.373,2.374l6.331,-0.004Zm0,-0.75l-6.331,0.004c-0.896,-0 -1.623,-0.728 -1.623,-1.624c-0,-0.896 0.727,-1.623 1.623,-1.623l6.331,-0.003c0.896,-0 1.624,0.727 1.624,1.623c-0,0.896 -0.728,1.623 -1.624,1.623Z" style="fill:#ec1f27;"/><path d="M19,29.633c-0,0 -3.736,0.013 -5.983,-0.025c-2.042,-0.034 -3.601,-1.536 -3.628,-3.626c-0.037,-2.917 0.035,-6.114 -0.013,-8.988c-0.022,-1.281 0.624,-2.064 1.339,-2.639c0.525,-0.423 1.088,-0.742 1.497,-1.048c1.477,-1.106 3.053,-2.733 3.163,-5.291c0.034,-0.785 0.78,-1.641 1.626,-1.641c0.845,0 1.581,0.668 1.625,1.642c0.055,1.227 -0.447,3.793 -0.96,4.815c-0.695,1.381 -2.877,2.858 -2.877,2.858c-0.171,0.117 -0.215,0.351 -0.098,0.522c0.117,0.171 0.35,0.214 0.521,0.098c0,-0 2.365,-1.633 3.124,-3.142c0.553,-1.1 1.098,-3.862 1.039,-5.185c-0.063,-1.41 -1.149,-2.358 -2.374,-2.358c-1.226,0 -2.326,1.221 -2.375,2.359c-0.099,2.291 -1.54,3.731 -2.863,4.723c-0.416,0.311 -0.986,0.635 -1.519,1.064c-0.873,0.703 -1.645,1.67 -1.618,3.235c0.048,2.874 -0.024,6.07 0.013,8.985c0.033,2.516 1.908,4.326 4.366,4.367c2.252,0.038 5.997,0.025 5.997,0.025c0.207,-0 0.375,-0.169 0.374,-0.376c-0.001,-0.207 -0.169,-0.374 -0.376,-0.374Z" style="fill:#ec1f27;"/><path d="M17.626,12.996c-0.005,0.418 0.099,0.753 0.312,0.988c0.215,0.237 0.551,0.393 1.067,0.388c0.207,-0.002 0.373,-0.172 0.371,-0.379c-0.002,-0.207 -0.171,-0.373 -0.378,-0.371c-0.238,0.002 -0.405,-0.032 -0.504,-0.142c-0.101,-0.111 -0.12,-0.278 -0.118,-0.476c0.002,-0.207 -0.165,-0.377 -0.372,-0.379c-0.207,-0.002 -0.376,0.164 -0.378,0.371Z" style="fill:#ec1f27;"/></svg>