<?xml version="1.0" encoding="UTF-8" standalone="no"?><!DOCTYPE svg PUBLIC "-//W3C//DTD SVG 1.1//EN" "http://www.w3.org/Graphics/SVG/1.1/DTD/svg11.dtd"><svg width="100%" height="100%" viewBox="0 0 36 36" version="1.1" xmlns="http://www.w3.org/2000/svg" xmlns:xlink="http://www.w3.org/1999/xlink" xml:space="preserve" xmlns:serif="http://www.serif.com/" style="fill-rule:evenodd;clip-rule:evenodd;stroke-linejoin:round;stroke-miterlimit:2;"><rect id="handcuffs" x="0" y="0" width="36" height="36" style="fill:none;"/><g><circle cx="18" cy="18" r="18" style="fill:#fff;"/></g><path d="M7.884,17.084c-0.012,0.552 -0.021,1.797 -0.021,1.797c-0,0 -0,0.001 -0,0.001c-0,0.963 0.792,1.748 1.773,1.748c0,-0 3.916,-0 3.916,-0c0.981,-0 1.774,-0.785 1.774,-1.748c-0,-0 -0,-0.001 -0,-0.001c-0,-0 -0.01,-1.245 -0.022,-1.797c1.377,-1.075 2.259,-2.734 2.259,-4.594c0,-3.235 -2.672,-5.865 -5.969,-5.865c-3.296,0 -5.969,2.63 -5.969,5.865c0,1.86 0.882,3.519 2.259,4.594Zm0.746,-0.113c0.028,-0.143 -0.029,-0.289 -0.147,-0.374c-1.278,-0.933 -2.108,-2.425 -2.108,-4.107c0,-2.825 2.341,-5.115 5.219,-5.115c2.879,-0 5.219,2.29 5.219,5.115c0,1.682 -0.83,3.174 -2.108,4.107c-0.117,0.085 -0.175,0.231 -0.147,0.374c0.015,0.08 0.018,1.913 0.018,1.913c-0,0.551 -0.461,0.996 -1.024,0.996l-3.916,-0c-0.563,-0 -1.023,-0.445 -1.023,-0.998c-0,0.002 0.002,-1.831 0.017,-1.911Z" style="fill:#ec1f27;"/><path d="M18.601,21.325c-0.398,0.382 -1.282,1.255 -1.282,1.255c-0.001,0 -0.001,0.001 -0.001,0.001c-0.679,0.68 -0.673,1.797 0.02,2.492c0,-0 2.769,2.775 2.769,2.775c0.694,0.696 1.809,0.702 2.488,0.021c0.001,-0 0.001,-0.001 0.001,-0.001c0,-0 0.871,-0.886 1.252,-1.285c1.732,0.215 3.527,-0.333 4.838,-1.648c2.282,-2.287 2.248,-6.041 -0.083,-8.377c-2.331,-2.337 -6.076,-2.371 -8.359,-0.083c-1.311,1.315 -1.858,3.113 -1.643,4.85Zm0.608,0.447c0.121,-0.082 0.183,-0.225 0.161,-0.369c-0.247,-1.565 0.219,-3.209 1.405,-4.398c1.993,-1.998 5.262,-1.957 7.297,0.083c2.036,2.041 2.077,5.32 0.083,7.318c-1.185,1.188 -2.824,1.655 -4.385,1.408c-0.144,-0.022 -0.289,0.04 -0.37,0.161c-0.046,0.068 -1.337,1.366 -1.337,1.366c-0.388,0.389 -1.027,0.376 -1.425,-0.022c0,-0 -2.769,-2.776 -2.769,-2.776c-0.398,-0.4 -0.411,-1.041 -0.02,-1.432c-0.002,0.001 1.292,-1.293 1.36,-1.339Z" style="fill:#ec1f27;"/><path d="M11.594,8.821c-2.061,0 -3.731,1.646 -3.731,3.669c-0,2.023 1.67,3.669 3.731,3.669c2.062,0 3.732,-1.646 3.732,-3.669c-0,-2.023 -1.67,-3.669 -3.732,-3.669Zm0,0.75c1.644,0 2.982,1.306 2.982,2.919c-0,1.613 -1.338,2.919 -2.982,2.919c-1.643,0 -2.981,-1.306 -2.981,-2.919c-0,-1.613 1.338,-2.919 2.981,-2.919Z" style="fill:#ec1f27;"/><path d="M27.054,18.111c-1.458,-1.462 -3.8,-1.481 -5.228,-0.05c-1.426,1.43 -1.407,3.777 0.05,5.238c1.458,1.462 3.801,1.481 5.228,0.05c1.427,-1.43 1.408,-3.777 -0.05,-5.238Zm-0.531,0.53c1.163,1.165 1.188,3.038 0.05,4.178c-1.137,1.141 -3.004,1.115 -4.166,-0.049c-1.162,-1.166 -1.188,-3.038 -0.05,-4.179c1.138,-1.141 3.005,-1.115 4.166,0.05Z" style="fill:#ec1f27;"/><path d="M11.594,16.821c-0.487,0 -0.883,0.396 -0.883,0.885c-0,0.488 0.396,0.885 0.883,0.885c0.488,-0 0.884,-0.397 0.884,-0.885c-0,-0.489 -0.396,-0.885 -0.884,-0.885Zm0,0.75c0.074,0 0.134,0.061 0.134,0.135c-0,0.074 -0.06,0.135 -0.134,0.135c-0.074,-0 -0.133,-0.061 -0.133,-0.135c-0,-0.074 0.059,-0.135 0.133,-0.135Z" style="fill:#ec1f27;"/><path d="M21.411,23.768c-0.345,-0.346 -0.905,-0.346 -1.25,-0c-0.344,0.345 -0.344,0.905 0,1.251c0.345,0.345 0.905,0.345 1.25,-0c0.345,-0.346 0.345,-0.906 0,-1.251Zm-0.531,0.53c0.053,0.052 0.053,0.138 0,0.191c-0.052,0.052 -0.136,0.052 -0.188,-0c-0.052,-0.053 -0.052,-0.139 0,-0.191c0.052,-0.053 0.136,-0.053 0.188,-0Z" style="fill:#ec1f27;"/><path d="M11.5,19.88c-1.01,-0 -1.875,0.987 -1.875,2.247c0,1.261 0.865,2.248 1.875,2.248c1.01,0 1.875,-0.987 1.875,-2.248c0,-1.26 -0.865,-2.247 -1.875,-2.247Zm0,0.75c0.646,-0 1.125,0.691 1.125,1.497c0,0.807 -0.479,1.498 -1.125,1.498c-0.646,0 -1.125,-0.691 -1.125,-1.498c0,-0.806 0.479,-1.497 1.125,-1.497Z" style="fill:#ec1f27;"/><path d="M19.286,26.107c-0.715,-0.714 -2.024,-0.628 -2.916,0.263c-0.891,0.892 -0.977,2.201 -0.263,2.916c0.714,0.714 2.024,0.628 2.915,-0.264c0.892,-0.891 0.978,-2.201 0.264,-2.915Zm-0.531,0.53c0.457,0.457 0.307,1.284 -0.263,1.855c-0.571,0.57 -1.398,0.72 -1.855,0.263c-0.457,-0.457 -0.307,-1.284 0.264,-1.854c0.57,-0.571 1.397,-0.721 1.854,-0.264Z" style="fill:#ec1f27;"/><path d="M16.375,28.5c0,-1.01 -0.987,-1.875 -2.248,-1.875c-1.26,0 -2.247,0.865 -2.247,1.875c-0,1.01 0.987,1.875 2.247,1.875c1.261,0 2.248,-0.865 2.248,-1.875Zm-0.75,0c-0,0.646 -0.691,1.125 -1.498,1.125c-0.806,0 -1.497,-0.479 -1.497,-1.125c-0,-0.646 0.691,-1.125 1.497,-1.125c0.807,0 1.498,0.479 1.498,1.125Z" style="fill:#ec1f27;"/><path d="M11.5,23.88c-1.01,-0 -1.875,0.987 -1.875,2.247c0,1.261 0.865,2.248 1.875,2.248c1.01,-0 1.875,-0.987 1.875,-2.248c0,-1.26 -0.865,-2.247 -1.875,-2.247Zm0,0.75c0.646,-0 1.125,0.691 1.125,1.497c0,0.807 -0.479,1.498 -1.125,1.498c-0.646,-0 -1.125,-0.691 -1.125,-1.498c0,-0.806 0.479,-1.497 1.125,-1.497Z" style="fill:#ec1f27;"/></svg>