<?xml version="1.0" encoding="UTF-8" standalone="no"?><!DOCTYPE svg PUBLIC "-//W3C//DTD SVG 1.1//EN" "http://www.w3.org/Graphics/SVG/1.1/DTD/svg11.dtd"><svg width="100%" height="100%" viewBox="0 0 36 36" version="1.1" xmlns="http://www.w3.org/2000/svg" xmlns:xlink="http://www.w3.org/1999/xlink" xml:space="preserve" xmlns:serif="http://www.serif.com/" style="fill-rule:evenodd;clip-rule:evenodd;stroke-linejoin:round;stroke-miterlimit:2;"><rect id="hand-middle-finger" x="0" y="0" width="36" height="36" style="fill:none;"/><g><circle cx="18" cy="18" r="18" style="fill:#fff;"/></g><path d="M28.358,16.664c0,-1.31 -1.063,-2.374 -2.373,-2.374c-1.31,0 -2.373,1.064 -2.373,2.374c-0,-0 -0,2.168 -0,2.168c-0,1.31 1.063,2.373 2.373,2.373c1.31,0 2.373,-1.063 2.373,-2.373l0,-2.168Zm-0.75,-0l0,2.168c0,0.896 -0.727,1.623 -1.623,1.623c-0.896,0 -1.623,-0.727 -1.623,-1.623l-0,-2.168c-0,-0.896 0.727,-1.624 1.623,-1.624c0.896,0 1.623,0.728 1.623,1.624Z" style="fill:#ec1f27;"/><path d="M24.373,14.999c0,0 0,-0 0,-0.001c0,-1.31 -1.063,-2.373 -2.373,-2.373c-1.31,-0 -2.373,1.063 -2.373,2.373c-0,-0.001 -0.012,3.833 -0.012,3.833c0,0 0,0 0,0.001c0,1.31 1.063,2.373 2.373,2.373c1.31,0 2.374,-1.063 2.374,-2.373c-0,0.001 0.011,-3.833 0.011,-3.833Zm-0.75,-0.001l-0.011,3.834c-0,0.896 -0.728,1.623 -1.624,1.623c-0.896,0 -1.623,-0.727 -1.623,-1.623l0.012,-3.834c-0,-0.896 0.727,-1.623 1.623,-1.623c0.896,-0 1.623,0.727 1.623,1.623l0,0Z" style="fill:#ec1f27;"/><path d="M16.383,14.999c0,0 0,-0 0,-0.001c0,-1.31 -1.063,-2.373 -2.373,-2.373c-1.31,-0 -2.373,1.063 -2.373,2.373c-0,-0.001 -0.012,3.833 -0.012,3.833c0,0 -0,0 -0,0.001c-0,1.31 1.063,2.373 2.373,2.373c1.31,0 2.374,-1.063 2.374,-2.373c-0,0.001 0.011,-3.833 0.011,-3.833Zm-0.75,-0.001l-0.011,3.834c-0,0.896 -0.728,1.623 -1.624,1.623c-0.896,0 -1.623,-0.727 -1.623,-1.623l0.012,-3.834c-0,-0.896 0.727,-1.623 1.623,-1.623c0.896,-0 1.623,0.727 1.623,1.623l0,0Z" style="fill:#ec1f27;"/><path d="M16.368,17.979l0,-9.981c0,-0.896 0.728,-1.623 1.624,-1.623c0.896,-0 1.623,0.727 1.623,1.623l0,10.002c0,0.207 0.168,0.375 0.375,0.375c0.207,0 0.375,-0.168 0.375,-0.375l0,-10.002c0,-1.31 -1.063,-2.373 -2.373,-2.373c-1.31,-0 -2.374,1.063 -2.374,2.373l0,9.981c0,0.207 0.168,0.375 0.375,0.375c0.207,0 0.375,-0.168 0.375,-0.375Z" style="fill:#ec1f27;"/><path d="M27.608,18.003c0,-0 0.038,5.737 0,7.984c-0.034,2.042 -1.536,3.601 -3.626,3.628c-2.916,0.038 -9.117,-0.048 -11.992,0c-1.073,0.018 -1.982,-0.32 -2.619,-0.951c-0.639,-0.632 -0.999,-1.551 -0.996,-2.669c0.004,-1.747 -0.038,-5.456 -0,-6.986c0.025,-1.008 0.809,-1.65 1.618,-1.634c0.809,0.016 1.631,0.774 1.632,1.605c0.001,1.053 -0.003,4.019 -0.003,4.019c-0.001,0.207 0.167,0.376 0.374,0.376c0.207,0 0.375,-0.167 0.376,-0.374c-0,-0 0.004,-2.968 0.003,-4.022c-0.001,-1.212 -1.188,-2.331 -2.368,-2.354c-1.179,-0.023 -2.345,0.893 -2.382,2.366c-0.038,1.533 0.004,5.25 0,7.002c-0.003,1.345 0.45,2.444 1.218,3.204c0.77,0.762 1.862,1.19 3.16,1.168c2.874,-0.048 9.073,0.038 11.988,0c2.516,-0.032 4.326,-1.907 4.367,-4.365c0.038,-2.252 0,-8.002 0,-8.002c-0.001,-0.207 -0.17,-0.374 -0.377,-0.373c-0.207,0.002 -0.374,0.171 -0.373,0.378Z" style="fill:#ec1f27;"/></svg>