<?xml version="1.0" encoding="UTF-8" standalone="no"?><!DOCTYPE svg PUBLIC "-//W3C//DTD SVG 1.1//EN" "http://www.w3.org/Graphics/SVG/1.1/DTD/svg11.dtd"><svg width="100%" height="100%" viewBox="0 0 36 36" version="1.1" xmlns="http://www.w3.org/2000/svg" xmlns:xlink="http://www.w3.org/1999/xlink" xml:space="preserve" xmlns:serif="http://www.serif.com/" style="fill-rule:evenodd;clip-rule:evenodd;stroke-linejoin:round;stroke-miterlimit:2;"><rect id="hat-education" x="0" y="0" width="36" height="36" style="fill:none;"/><g id="bg-white"><circle cx="18" cy="18" r="18" style="fill:#fff;"/></g><path d="M8.805,14.651l-0.004,0.002l-0.017,0.01l-0.017,0.012l-0.016,0.012l-0.015,0.012l-0.014,0.014l-0.009,0.009l-0.014,0.014l-0.012,0.015l-0.012,0.016l-0.012,0.017l-0.01,0.017l-0.002,0.004c-0.006,0.01 -0.012,0.021 -0.017,0.033c-0.018,0.042 -0.029,0.085 -0.033,0.128l-0,0.007l-0.001,0.02l0,0.019l0.001,0.015l0,0.007c0.004,0.043 0.015,0.086 0.033,0.128c0.005,0.012 0.011,0.023 0.017,0.033l0.002,0.004l0.01,0.017l0.012,0.017l0.012,0.016l0.012,0.015l0.014,0.014l0.009,0.009l0.014,0.014l0.015,0.012l0.016,0.012l0.017,0.012l0.017,0.01l0.004,0.002c0.01,0.006 0.021,0.012 0.033,0.017l9,4c0.103,0.045 0.221,0.045 0.324,-0l9,-4c0.145,-0.065 0.238,-0.208 0.238,-0.366c0,-0.158 -0.093,-0.301 -0.238,-0.366l-9,-4c-0.103,-0.045 -0.221,-0.045 -0.324,0l-9,4c-0.012,0.005 -0.023,0.011 -0.033,0.017Zm1.18,0.349l8.015,3.562c0,0 8.015,-3.562 8.015,-3.562c0,-0 -8.015,-3.562 -8.015,-3.562l-8.015,3.562Z" style="fill:#ec1f27;"/><path d="M11.6,16.5l-0,2.5c0,0.119 0.053,0.233 0.146,0.309c3.84,3.167 9.076,3.017 12.518,-0.009c0.086,-0.076 0.136,-0.185 0.136,-0.3l0,-2.5c0,-0.221 -0.179,-0.4 -0.4,-0.4c-0.221,-0 -0.4,0.179 -0.4,0.4l-0,2.317c-3.114,2.623 -7.742,2.735 -11.2,-0.008c-0,0 0,-2.309 0,-2.309c-0,-0.221 -0.179,-0.4 -0.4,-0.4c-0.221,0 -0.4,0.179 -0.4,0.4Z" style="fill:#ec1f27;"/><path d="M17.821,15.358l3.779,1.889c-0,0 -0,5.753 -0,5.753c-0,0.221 0.179,0.4 0.4,0.4c0.221,0 0.4,-0.179 0.4,-0.4l0,-6c0,-0.152 -0.086,-0.29 -0.221,-0.358l-4,-2c-0.198,-0.099 -0.438,-0.018 -0.537,0.179c-0.099,0.198 -0.018,0.438 0.179,0.537Z" style="fill:#ec1f27;"/><path d="M22,22.6c-0.773,0 -1.4,0.627 -1.4,1.4c-0,0.773 0.627,1.4 1.4,1.4c0.773,-0 1.4,-0.627 1.4,-1.4c0,-0.773 -0.627,-1.4 -1.4,-1.4Zm0,0.8c0.331,-0 0.6,0.269 0.6,0.6c-0,0.331 -0.269,0.6 -0.6,0.6c-0.331,0 -0.6,-0.269 -0.6,-0.6c0,-0.331 0.269,-0.6 0.6,-0.6Z" style="fill:#ec1f27;"/><ellipse cx="18" cy="15" rx="1" ry="0.5" style="fill:#ec1f27;"/><path d="M18,14.1c-0.511,0 -0.946,0.17 -1.166,0.382c-0.159,0.153 -0.234,0.334 -0.234,0.518c-0,0.184 0.075,0.365 0.234,0.518c0.22,0.212 0.655,0.382 1.166,0.382c0.511,-0 0.946,-0.17 1.166,-0.382c0.159,-0.153 0.234,-0.334 0.234,-0.518c0,-0.184 -0.075,-0.365 -0.234,-0.518c-0.22,-0.212 -0.655,-0.382 -1.166,-0.382Zm0.513,0.9c-0.02,0.011 -0.041,0.021 -0.06,0.028c-0.127,0.046 -0.284,0.072 -0.453,0.072c-0.169,0 -0.326,-0.026 -0.453,-0.072c-0.019,-0.007 -0.04,-0.017 -0.06,-0.028c0.02,-0.011 0.041,-0.021 0.06,-0.028c0.127,-0.046 0.284,-0.072 0.453,-0.072c0.169,-0 0.326,0.026 0.453,0.072c0.019,0.007 0.04,0.017 0.06,0.028Z" style="fill:#ec1f27;"/><path d="M20.6,24l-0,3c-0,0.221 0.179,0.4 0.4,0.4c0.221,0 0.4,-0.179 0.4,-0.4l0,-3c-0,-0.221 -0.179,-0.4 -0.4,-0.4c-0.221,0 -0.4,0.179 -0.4,0.4Z" style="fill:#ec1f27;"/><path d="M22.6,24l-0,3c0,0.221 0.179,0.4 0.4,0.4c0.221,-0 0.4,-0.179 0.4,-0.4l0,-3c0,-0.221 -0.179,-0.4 -0.4,-0.4c-0.221,-0 -0.4,0.179 -0.4,0.4Z" style="fill:#ec1f27;"/><path d="M21.6,25l-0,2c-0,0.221 0.179,0.4 0.4,0.4c0.221,0 0.4,-0.179 0.4,-0.4l0,-2c-0,-0.221 -0.179,-0.4 -0.4,-0.4c-0.221,0 -0.4,0.179 -0.4,0.4Z" style="fill:#ec1f27;"/></svg>