<?xml version="1.0" encoding="UTF-8" standalone="no"?><!DOCTYPE svg PUBLIC "-//W3C//DTD SVG 1.1//EN" "http://www.w3.org/Graphics/SVG/1.1/DTD/svg11.dtd"><svg width="100%" height="100%" viewBox="0 0 36 36" version="1.1" xmlns="http://www.w3.org/2000/svg" xmlns:xlink="http://www.w3.org/1999/xlink" xml:space="preserve" xmlns:serif="http://www.serif.com/" style="fill-rule:evenodd;clip-rule:evenodd;stroke-linejoin:round;stroke-miterlimit:2;"><rect id="helmet" x="0" y="0" width="36" height="36" style="fill:none;"/><g><circle cx="18" cy="18" r="18" style="fill:#fff;"/></g><path d="M9.772,16.106c0,0 0.023,1.344 -0.192,1.935c-0.095,0.261 -0.335,0.421 -0.544,0.62c-0.313,0.299 -0.59,0.644 -0.64,1.196c-0.067,0.755 0.322,1.251 0.736,1.555c0.386,0.284 0.789,0.39 0.789,0.39c0.2,0.054 0.406,-0.065 0.459,-0.265c0.054,-0.2 -0.065,-0.405 -0.265,-0.459c0,-0 -0.274,-0.076 -0.539,-0.27c-0.236,-0.174 -0.471,-0.452 -0.433,-0.884c0.038,-0.423 0.318,-0.636 0.558,-0.857c0.247,-0.228 0.471,-0.461 0.584,-0.77c0.244,-0.672 0.237,-2.198 0.237,-2.198c-0.002,-0.207 -0.171,-0.374 -0.378,-0.372c-0.207,0.003 -0.374,0.172 -0.372,0.379Z" style="fill:#ec1f27;"/><path d="M25.615,16.135c0,0 0.296,1.428 0.532,2.076c0.219,0.603 0.634,1.121 0.71,1.971c0.038,0.418 -0.248,0.663 -0.522,0.816c-0.332,0.185 -0.674,0.245 -0.674,0.245c-0.204,0.035 -0.341,0.229 -0.306,0.433c0.035,0.204 0.229,0.341 0.433,0.306c-0,-0 0.673,-0.117 1.186,-0.507c0.388,-0.296 0.686,-0.734 0.63,-1.36c-0.083,-0.929 -0.513,-1.501 -0.752,-2.161c-0.224,-0.614 -0.502,-1.97 -0.502,-1.97c-0.042,-0.203 -0.24,-0.334 -0.443,-0.292c-0.203,0.042 -0.333,0.24 -0.292,0.443Z" style="fill:#ec1f27;"/><path d="M8.992,15.495c-0.064,0.099 -0.078,0.222 -0.038,0.333c0.04,0.11 0.129,0.196 0.242,0.23c-0,0 5.605,1.724 9.036,1.723c3.991,-0.002 9.111,-1.759 9.111,-1.759c0.111,-0.038 0.198,-0.126 0.234,-0.238c0.037,-0.112 0.019,-0.234 -0.049,-0.331l-1.019,-1.463c-0.058,-0.539 -0.358,-3.106 -0.931,-4.048c-0.656,-1.077 -2.338,-4.318 -7.459,-4.317c-4.547,0.001 -6.391,2.468 -7.296,4.225c-0.704,1.368 -0.864,3.682 -0.891,4.204c-0,-0.001 -0.94,1.441 -0.94,1.441Zm0.903,-0.011l0.721,-1.107c0.037,-0.057 0.058,-0.124 0.06,-0.192c0,-0 0.076,-2.559 0.814,-3.992c0.821,-1.594 2.504,-3.817 6.629,-3.818c4.684,-0.001 6.219,2.972 6.818,3.957c0.592,0.972 0.835,3.827 0.835,3.827c0.006,0.064 0.029,0.126 0.066,0.18l0.787,1.129c-1.334,0.422 -5.228,1.561 -8.394,1.563c-2.751,0.001 -6.933,-1.141 -8.336,-1.547l-0,-0Z" style="fill:#ec1f27;"/><path d="M25.978,13.735c-0,0 -1.852,0.846 -3.575,1.235c-1.86,0.419 -4.119,0.442 -4.119,0.442c-0.206,0.003 -0.373,0.172 -0.37,0.379c0.002,0.207 0.172,0.374 0.379,0.371c-0,0 2.344,-0.025 4.275,-0.461c1.793,-0.404 3.721,-1.284 3.721,-1.284c0.189,-0.086 0.272,-0.308 0.186,-0.496c-0.086,-0.189 -0.309,-0.272 -0.497,-0.186Z" style="fill:#ec1f27;"/><path d="M16.723,10.492l1.555,-1.041c0,0 1.435,1.07 1.435,1.07c0.166,0.123 0.402,0.089 0.525,-0.077c0.124,-0.166 0.089,-0.401 -0.077,-0.525l-1.647,-1.227c-0.128,-0.095 -0.301,-0.099 -0.433,-0.011l-1.775,1.188c-0.172,0.115 -0.218,0.348 -0.103,0.52c0.115,0.172 0.348,0.218 0.52,0.103Z" style="fill:#ec1f27;"/><path d="M16.723,12.484l1.555,-1.041c0,0 1.435,1.069 1.435,1.069c0.166,0.124 0.402,0.09 0.525,-0.076c0.124,-0.166 0.089,-0.401 -0.077,-0.525l-1.647,-1.227c-0.128,-0.095 -0.301,-0.1 -0.433,-0.011l-1.775,1.188c-0.172,0.115 -0.218,0.348 -0.103,0.52c0.115,0.172 0.348,0.218 0.52,0.103Z" style="fill:#ec1f27;"/><path d="M14.85,20.642c-0.101,0.07 -0.162,0.185 -0.162,0.308l0,8c0,0.125 0.063,0.242 0.167,0.311c0,0 1.635,1.084 3.251,1.113c1.674,0.031 3.368,-1.115 3.368,-1.115c0.102,-0.069 0.164,-0.185 0.164,-0.309l-0,-7.95c-0,-0.119 -0.057,-0.232 -0.153,-0.302c-0,-0 -1.434,-1.056 -3.369,-1.073c-1.776,-0.015 -3.266,1.017 -3.266,1.017Zm0.588,0.514c0.393,-0.234 1.455,-0.792 2.672,-0.781c1.334,0.012 2.395,0.588 2.778,0.826c-0,0 -0,7.543 -0,7.543c-0.423,0.258 -1.6,0.902 -2.768,0.881c-1.128,-0.021 -2.264,-0.633 -2.682,-0.883c0,-0 0,-7.586 0,-7.586l0,0Z" style="fill:#ec1f27;"/><path d="M17.788,22.51l0,6.056c0,0.207 0.168,0.375 0.375,0.375c0.207,-0 0.375,-0.168 0.375,-0.375l0,-6.056c0,-0.207 -0.168,-0.375 -0.375,-0.375c-0.207,-0 -0.375,0.168 -0.375,0.375Z" style="fill:#ec1f27;"/><path d="M16.288,23.097l0,4.94c0,0.207 0.168,0.375 0.375,0.375c0.207,0 0.375,-0.168 0.375,-0.375l0,-4.94c0,-0.207 -0.168,-0.375 -0.375,-0.375c-0.207,0 -0.375,0.168 -0.375,0.375Z" style="fill:#ec1f27;"/><path d="M19.438,23.097l-0,4.94c-0,0.207 0.168,0.375 0.375,0.375c0.207,0 0.375,-0.168 0.375,-0.375l-0,-4.94c-0,-0.207 -0.168,-0.375 -0.375,-0.375c-0.207,0 -0.375,0.168 -0.375,0.375Z" style="fill:#ec1f27;"/><circle cx="21.763" cy="19.5" r="0.5" style="fill:#ec1f27;"/><path d="M21.763,18.625c-0.483,0 -0.875,0.392 -0.875,0.875c-0,0.483 0.392,0.875 0.875,0.875c0.483,0 0.875,-0.392 0.875,-0.875c-0,-0.483 -0.392,-0.875 -0.875,-0.875Zm-0,0.75c0.069,0 0.125,0.056 0.125,0.125c-0,0.069 -0.056,0.125 -0.125,0.125c-0.069,0 -0.125,-0.056 -0.125,-0.125c-0,-0.069 0.056,-0.125 0.125,-0.125Z" style="fill:#ec1f27;"/><circle cx="23.027" cy="18.35" r="0.5" style="fill:#ec1f27;"/><path d="M23.027,17.475c-0.482,0 -0.875,0.392 -0.875,0.875c0,0.483 0.393,0.875 0.875,0.875c0.483,0 0.875,-0.392 0.875,-0.875c0,-0.483 -0.392,-0.875 -0.875,-0.875Zm0,0.75c0.069,0 0.125,0.056 0.125,0.125c0,0.069 -0.056,0.125 -0.125,0.125c-0.069,0 -0.125,-0.056 -0.125,-0.125c0,-0.069 0.056,-0.125 0.125,-0.125Z" style="fill:#ec1f27;"/><path d="M13.889,18.247c-0,0.276 -0.224,0.5 -0.5,0.5c-0.276,-0 -0.5,-0.224 -0.5,-0.5c-0,-0.276 0.224,-0.5 0.5,-0.5c0.276,-0 0.5,0.224 0.5,0.5Z" style="fill:#ec1f27;"/><path d="M14.264,18.247c-0,-0.483 -0.392,-0.875 -0.875,-0.875c-0.483,-0 -0.875,0.392 -0.875,0.875c-0,0.483 0.392,0.875 0.875,0.875c0.483,-0 0.875,-0.392 0.875,-0.875Zm-0.75,-0c-0,0.069 -0.056,0.125 -0.125,0.125c-0.069,-0 -0.125,-0.056 -0.125,-0.125c-0,-0.069 0.056,-0.125 0.125,-0.125c0.069,-0 0.125,0.056 0.125,0.125Z" style="fill:#ec1f27;"/><path d="M14.889,19.588c-0,0.276 -0.224,0.5 -0.5,0.5c-0.276,0 -0.5,-0.224 -0.5,-0.5c-0,-0.276 0.224,-0.5 0.5,-0.5c0.276,0 0.5,0.224 0.5,0.5Z" style="fill:#ec1f27;"/><path d="M15.264,19.588c-0,-0.483 -0.392,-0.875 -0.875,-0.875c-0.483,0 -0.875,0.392 -0.875,0.875c-0,0.483 0.392,0.875 0.875,0.875c0.483,0 0.875,-0.392 0.875,-0.875Zm-0.75,0c-0,0.069 -0.056,0.125 -0.125,0.125c-0.069,0 -0.125,-0.056 -0.125,-0.125c-0,-0.069 0.056,-0.125 0.125,-0.125c0.069,0 0.125,0.056 0.125,0.125Z" style="fill:#ec1f27;"/><path d="M18.615,21.243c0,0.276 -0.224,0.5 -0.5,0.5c-0.276,-0 -0.5,-0.224 -0.5,-0.5c0,-0.276 0.224,-0.5 0.5,-0.5c0.276,-0 0.5,0.224 0.5,0.5Z" style="fill:#ec1f27;"/><path d="M18.99,21.243c0,-0.483 -0.392,-0.875 -0.875,-0.875c-0.483,-0 -0.875,0.392 -0.875,0.875c0,0.483 0.392,0.875 0.875,0.875c0.483,-0 0.875,-0.392 0.875,-0.875Zm-0.75,-0c0,0.069 -0.056,0.125 -0.125,0.125c-0.069,-0 -0.125,-0.056 -0.125,-0.125c0,-0.069 0.056,-0.125 0.125,-0.125c0.069,-0 0.125,0.056 0.125,0.125Z" style="fill:#ec1f27;"/></svg>