<?xml version="1.0" encoding="UTF-8" standalone="no"?><!DOCTYPE svg PUBLIC "-//W3C//DTD SVG 1.1//EN" "http://www.w3.org/Graphics/SVG/1.1/DTD/svg11.dtd"><svg width="100%" height="100%" viewBox="0 0 36 36" version="1.1" xmlns="http://www.w3.org/2000/svg" xmlns:xlink="http://www.w3.org/1999/xlink" xml:space="preserve" xmlns:serif="http://www.serif.com/" style="fill-rule:evenodd;clip-rule:evenodd;stroke-linejoin:round;stroke-miterlimit:2;"><rect id="housing-apartment" x="0" y="0" width="36" height="36" style="fill:none;"/><g id="bg-white"><circle cx="18" cy="18" r="18" style="fill:#fff;"/></g><path d="M20.4,8c0,-0.221 -0.179,-0.4 -0.4,-0.4l-14,-0c-0.221,0 -0.4,0.179 -0.4,0.4l-0,20c0,0.221 0.179,0.4 0.4,0.4l14,-0c0.221,0 0.4,-0.179 0.4,-0.4l0,-20Zm-0.8,0.4l-0,19.2c-0,0 -13.2,0 -13.2,0c-0,0 -0,-19.2 -0,-19.2l13.2,-0Z" style="fill:#ec1f27;"/><path d="M10.9,10c-0,-0.221 -0.179,-0.4 -0.4,-0.4l-2,0c-0.221,0 -0.4,0.179 -0.4,0.4l-0,2c0,0.221 0.179,0.4 0.4,0.4l2,-0c0.221,-0 0.4,-0.179 0.4,-0.4l-0,-2Zm-0.8,0.4l-0,1.2c0,0 -1.2,0 -1.2,0c-0,0 -0,-1.2 -0,-1.2l1.2,-0Z" style="fill:#ec1f27;"/><path d="M10.9,14c-0,-0.221 -0.179,-0.4 -0.4,-0.4l-2,0c-0.221,0 -0.4,0.179 -0.4,0.4l-0,2c0,0.221 0.179,0.4 0.4,0.4l2,-0c0.221,0 0.4,-0.179 0.4,-0.4l-0,-2Zm-0.8,0.4l-0,1.2c0,0 -1.2,0 -1.2,0c-0,0 -0,-1.2 -0,-1.2l1.2,-0Z" style="fill:#ec1f27;"/><path d="M10.9,18c-0,-0.221 -0.179,-0.4 -0.4,-0.4l-2,0c-0.221,0 -0.4,0.179 -0.4,0.4l-0,2c0,0.221 0.179,0.4 0.4,0.4l2,-0c0.221,0 0.4,-0.179 0.4,-0.4l-0,-2Zm-0.8,0.4l-0,1.2c0,-0 -1.2,0 -1.2,0c-0,0 -0,-1.2 -0,-1.2l1.2,-0Z" style="fill:#ec1f27;"/><path d="M10.9,22c-0,-0.221 -0.179,-0.4 -0.4,-0.4l-2,0c-0.221,0 -0.4,0.179 -0.4,0.4l-0,2c0,0.221 0.179,0.4 0.4,0.4l2,-0c0.221,-0 0.4,-0.179 0.4,-0.4l-0,-2Zm-0.8,0.4l-0,1.2c0,0 -1.2,0 -1.2,0c-0,0 -0,-1.2 -0,-1.2l1.2,-0Z" style="fill:#ec1f27;"/><path d="M14.4,25c0,-0.221 -0.179,-0.4 -0.4,-0.4l-2,0c-0.221,0 -0.4,0.179 -0.4,0.4l-0,3c0,0.221 0.179,0.4 0.4,0.4l2,0c0.221,0 0.4,-0.179 0.4,-0.4l0,-3Zm-0.8,0.4l0,2.2c0,0 -1.2,0 -1.2,0c0,-0 0,-2.2 0,-2.2l1.2,0Z" style="fill:#ec1f27;"/><path d="M17.9,10c0,-0.221 -0.179,-0.4 -0.4,-0.4l-2,0c-0.221,0 -0.4,0.179 -0.4,0.4l-0,2c-0,0.221 0.179,0.4 0.4,0.4l2,-0c0.221,-0 0.4,-0.179 0.4,-0.4l0,-2Zm-0.8,0.4l-0,1.2c0,0 -1.2,0 -1.2,0c0,0 0,-1.2 0,-1.2l1.2,-0Z" style="fill:#ec1f27;"/><path d="M17.9,14c0,-0.221 -0.179,-0.4 -0.4,-0.4l-2,0c-0.221,0 -0.4,0.179 -0.4,0.4l-0,2c-0,0.221 0.179,0.4 0.4,0.4l2,-0c0.221,0 0.4,-0.179 0.4,-0.4l0,-2Zm-0.8,0.4l-0,1.2c0,0 -1.2,0 -1.2,0c0,0 0,-1.2 0,-1.2l1.2,-0Z" style="fill:#ec1f27;"/><path d="M25.4,14c0,-0.221 -0.179,-0.4 -0.4,-0.4l-2,0c-0.221,0 -0.4,0.179 -0.4,0.4l-0,2c-0,0.221 0.179,0.4 0.4,0.4l2,-0c0.221,0 0.4,-0.179 0.4,-0.4l0,-2Zm-0.8,0.4l-0,1.2c0,0 -1.2,0 -1.2,0c0,0 0,-1.2 0,-1.2l1.2,-0Z" style="fill:#ec1f27;"/><path d="M25.4,18c0,-0.221 -0.179,-0.4 -0.4,-0.4l-2,0c-0.221,0 -0.4,0.179 -0.4,0.4l-0,2c-0,0.221 0.179,0.4 0.4,0.4l2,-0c0.221,0 0.4,-0.179 0.4,-0.4l0,-2Zm-0.8,0.4l-0,1.2c0,-0 -1.2,0 -1.2,0c0,0 0,-1.2 0,-1.2l1.2,-0Z" style="fill:#ec1f27;"/><path d="M17.9,18c0,-0.221 -0.179,-0.4 -0.4,-0.4l-2,0c-0.221,0 -0.4,0.179 -0.4,0.4l-0,2c-0,0.221 0.179,0.4 0.4,0.4l2,-0c0.221,0 0.4,-0.179 0.4,-0.4l0,-2Zm-0.8,0.4l-0,1.2c0,-0 -1.2,0 -1.2,0c0,0 0,-1.2 0,-1.2l1.2,-0Z" style="fill:#ec1f27;"/><path d="M17.9,22c0,-0.221 -0.179,-0.4 -0.4,-0.4l-2,0c-0.221,0 -0.4,0.179 -0.4,0.4l-0,2c-0,0.221 0.179,0.4 0.4,0.4l2,-0c0.221,-0 0.4,-0.179 0.4,-0.4l0,-2Zm-0.8,0.4l-0,1.2c0,0 -1.2,0 -1.2,0c0,0 0,-1.2 0,-1.2l1.2,-0Z" style="fill:#ec1f27;"/><path d="M25.4,22c0,-0.221 -0.179,-0.4 -0.4,-0.4l-2,0c-0.221,0 -0.4,0.179 -0.4,0.4l0,2c0,0.221 0.179,0.4 0.4,0.4l2,-0c0.221,-0 0.4,-0.179 0.4,-0.4l0,-2Zm-0.8,0.4l0,1.2c0,0 -1.2,0 -1.2,0c0,0 0,-1.2 0,-1.2l1.2,-0Z" style="fill:#ec1f27;"/><path d="M20,12.4l7.6,-0c0,-0 0,6.6 0,6.6c0,0.221 0.179,0.4 0.4,0.4c0.221,-0 0.4,-0.179 0.4,-0.4l0,-7c0,-0.221 -0.179,-0.4 -0.4,-0.4l-8,-0c-0.221,0 -0.4,0.179 -0.4,0.4c0,0.221 0.179,0.4 0.4,0.4Z" style="fill:#ec1f27;"/><path d="M20,28.4l8,-0c0.221,0 0.4,-0.179 0.4,-0.4l0,-2c0,-0.221 -0.179,-0.4 -0.4,-0.4c-0.221,-0 -0.4,0.179 -0.4,0.4l-0,1.6c-0,0 -7.6,0 -7.6,0c-0.221,0 -0.4,0.179 -0.4,0.4c0,0.221 0.179,0.4 0.4,0.4Z" style="fill:#ec1f27;"/><path d="M25.642,25.821l-0.003,0.006l-0.008,0.017l-0.007,0.019l-0.006,0.018l-0.005,0.019l-0.005,0.019l-0.003,0.017l-0.003,0.019l-0.001,0.019l-0.001,0.02l0,0.019l0.001,0.019l0.001,0.009l0.003,0.02l0.002,0.01c0.006,0.038 0.018,0.075 0.035,0.108l0.006,0.012l0.01,0.016l0.004,0.006l0.01,0.016l0.008,0.011c0.022,0.03 0.049,0.057 0.08,0.08l0.009,0.006l0.016,0.012l0.018,0.01l0.006,0.004l0.018,0.009l0.017,0.008l0.019,0.007l0.018,0.006l0.019,0.005l0.019,0.005l0.017,0.003l0.019,0.003l0.019,0.001l0.02,0.001l0.006,-0l4,-0c0.139,0 0.267,-0.072 0.34,-0.19c0.073,-0.118 0.08,-0.265 0.018,-0.389l-0.711,-1.421c0,-0 0.353,-0 0.353,-0c0.133,-0 0.257,-0.066 0.331,-0.176c0.075,-0.11 0.09,-0.249 0.04,-0.373l-2,-5c-0.06,-0.151 -0.207,-0.251 -0.371,-0.251c-0.164,-0 -0.311,0.1 -0.371,0.251l-2,5c-0.05,0.124 -0.035,0.263 0.04,0.373c0.074,0.11 0.198,0.176 0.331,0.176l0.353,-0c-0,-0 -0.711,1.421 -0.711,1.421Zm1.005,-0.221l2.706,0l-0.711,-1.421c-0.062,-0.124 -0.055,-0.271 0.018,-0.389c0.073,-0.118 0.201,-0.19 0.34,-0.19c0,0 0.409,0 0.409,0c0,0 -1.409,-3.523 -1.409,-3.523c-0,0 -1.409,3.523 -1.409,3.523l0.409,0c0.139,0 0.267,0.072 0.34,0.19c0.073,0.118 0.08,0.265 0.018,0.389l-0.711,1.421Z" style="fill:#ec1f27;"/></svg>