<?xml version="1.0" encoding="UTF-8" standalone="no"?><!DOCTYPE svg PUBLIC "-//W3C//DTD SVG 1.1//EN" "http://www.w3.org/Graphics/SVG/1.1/DTD/svg11.dtd"><svg width="100%" height="100%" viewBox="0 0 36 36" version="1.1" xmlns="http://www.w3.org/2000/svg" xmlns:xlink="http://www.w3.org/1999/xlink" xml:space="preserve" xmlns:serif="http://www.serif.com/" style="fill-rule:evenodd;clip-rule:evenodd;stroke-linejoin:round;stroke-miterlimit:2;"><rect id="jailbars" x="0" y="0" width="36" height="36" style="fill:none;"/><g><circle cx="18" cy="18" r="18" style="fill:#fff;"/></g><path d="M30.375,12c0,-3.518 -2.857,-6.375 -6.375,-6.375l-12,0c-3.518,0 -6.375,2.857 -6.375,6.375l0,12c0,3.518 2.857,6.375 6.375,6.375c-0,0 12,0 12,0c3.518,0 6.375,-2.857 6.375,-6.375l0,-12Zm-0.75,-0l0,12c0,3.105 -2.52,5.625 -5.625,5.625l-12,0c-3.105,0 -5.625,-2.52 -5.625,-5.625c0,0 0,-12 0,-12c0,-3.105 2.52,-5.625 5.625,-5.625c-0,0 12,0 12,0c3.105,0 5.625,2.52 5.625,5.625Z" style="fill:#ec1f27;"/><path d="M13.375,6c-0,-0.207 -0.168,-0.375 -0.375,-0.375l-1,-0c-0.009,-0 -0.017,0 -0.026,0.001c-0,-0 -1.371,0.104 -1.917,0.339c-0.315,0.136 -0.435,0.363 -0.432,0.541c-0,-0.006 -0,4.494 -0,4.494c-0,0.207 0.168,0.375 0.375,0.375l3,-0c0.207,-0 0.375,-0.168 0.375,-0.375l-0,-5Zm-3,0.655c0.095,-0.034 0.264,-0.091 0.402,-0.119c0.504,-0.104 1.126,-0.153 1.233,-0.161l0.615,-0l-0,4.25c-0,-0 -2.25,-0 -2.25,-0l-0,-3.97Z" style="fill:#ec1f27;"/><path d="M13.375,23c0,-0.207 -0.168,-0.375 -0.375,-0.375l-3,0c-0.207,0 -0.375,0.168 -0.375,0.375l0,6.5c0,0.096 0.037,0.188 0.103,0.258c0.424,0.449 1.281,0.617 1.772,0.617c-0,0 1.5,0 1.5,0c0.207,0 0.375,-0.168 0.375,-0.375l0,-7Zm-0.75,0.375l0,6.25c0,0 -1.125,0 -1.125,0c-0.301,0 -0.812,-0.06 -1.125,-0.292c0,-0 0,-5.958 0,-5.958l2.25,-0Z" style="fill:#ec1f27;"/><path d="M26.375,23c0,-0.207 -0.168,-0.375 -0.375,-0.375l-3,0c-0.207,0 -0.375,0.168 -0.375,0.375l0,7c0,0.207 0.168,0.375 0.375,0.375l1.5,0c0.478,0 1.071,-0.061 1.732,-0.58c0.09,-0.071 0.143,-0.18 0.143,-0.295l0,-6.5Zm-0.75,0.375l0,5.934c-0.426,0.284 -0.81,0.316 -1.125,0.316l-1.125,0c0,0 0,-6.25 0,-6.25l2.25,0Z" style="fill:#ec1f27;"/><path d="M26.375,6.5c0,-0.067 -0.018,-0.133 -0.052,-0.191c-0.096,-0.162 -0.302,-0.316 -0.581,-0.423c-0.472,-0.181 -1.174,-0.261 -1.492,-0.261l-1.25,-0c-0.207,-0 -0.375,0.168 -0.375,0.375l0,5c0,0.207 0.168,0.375 0.375,0.375l3,0c0.207,0 0.375,-0.168 0.375,-0.375l0,-4.5Zm-0.75,0.155l-0,3.97c-0,0 -2.25,0 -2.25,0c0,0 0,-4.25 0,-4.25c-0,0 0.875,0 0.875,0c0.226,0 0.686,0.048 1.058,0.156c0.109,0.032 0.211,0.068 0.292,0.112l0.025,0.012Z" style="fill:#ec1f27;"/><path d="M19.875,6.75c0,-0.621 -0.504,-1.125 -1.125,-1.125l-1.5,0c-0.621,0 -1.125,0.504 -1.125,1.125l0,22.5c0,0.621 0.504,1.125 1.125,1.125c-0,0 1.5,0 1.5,0c0.621,0 1.125,-0.504 1.125,-1.125l0,-22.5Zm-0.75,-0l0,22.5c0,0.207 -0.168,0.375 -0.375,0.375l-1.5,0c-0.207,0 -0.375,-0.168 -0.375,-0.375l0,-22.5c0,-0.207 0.168,-0.375 0.375,-0.375c-0,0 1.5,0 1.5,0c0.207,0 0.375,0.168 0.375,0.375Z" style="fill:#ec1f27;"/><path d="M14.018,20.375c0.326,-0.007 0.636,-0.198 0.875,-0.507c0.298,-0.385 0.484,-0.952 0.482,-1.37c-0.002,-0.41 -0.221,-0.978 -0.525,-1.365c-0.022,-0.028 -0.045,-0.055 -0.068,-0.081c0.067,-0.064 0.128,-0.136 0.183,-0.214c0.283,-0.398 0.41,-0.968 0.41,-1.338c0,-0.409 -0.188,-0.976 -0.485,-1.364c-0.243,-0.317 -0.56,-0.51 -0.887,-0.511c0.228,-0.386 0.372,-0.85 0.372,-1.124c0.001,-0.373 -0.21,-0.951 -0.513,-1.35c-0.251,-0.331 -0.572,-0.528 -0.864,-0.526c-0.988,0.005 -3.736,-0.013 -5.002,0c-0.269,0.003 -0.595,0.104 -0.917,0.255c-0.661,0.312 -1.312,0.826 -1.312,0.826c-0.09,0.071 -0.142,0.179 -0.142,0.294l0,12c0,0.144 0.082,0.275 0.212,0.338c0.129,0.062 0.283,0.045 0.396,-0.044c-0,0 0.427,-0.338 0.922,-0.61c0.29,-0.16 0.601,-0.306 0.849,-0.309c1.264,-0.013 4.995,-0 4.995,-0c0,-0 0.001,0 0.001,0c0.33,0 0.648,-0.189 0.892,-0.5c0.301,-0.383 0.49,-0.95 0.483,-1.381c-0.005,-0.341 -0.146,-0.768 -0.357,-1.119Zm-2.269,-3.751c0.431,0 0.863,0 1.294,0l0.957,0.001c0.21,0 0.339,-0.17 0.434,-0.354c0.132,-0.254 0.191,-0.56 0.191,-0.771c0,-0.273 -0.132,-0.649 -0.33,-0.907c-0.087,-0.114 -0.178,-0.218 -0.295,-0.218l-1.001,0l-1.692,0l-1.307,0c-0.207,-0 -0.375,-0.168 -0.375,-0.375c-0,-0.207 0.168,-0.375 0.375,-0.375l3,0c0.027,-0 0.051,-0.021 0.077,-0.04c0.068,-0.05 0.132,-0.123 0.191,-0.204c0.202,-0.278 0.357,-0.664 0.357,-0.882c0,-0.248 -0.157,-0.628 -0.36,-0.894c-0.059,-0.078 -0.122,-0.146 -0.188,-0.193c-0.026,-0.018 -0.049,-0.037 -0.075,-0.037c-0.987,0.005 -3.733,-0.013 -4.998,-0c-0.248,0.003 -0.559,0.149 -0.849,0.309c-0.321,0.176 -0.614,0.381 -0.78,0.503c-0,-0 -0,11.091 0,11.09c0.211,-0.135 0.457,-0.28 0.704,-0.397c0.322,-0.151 0.648,-0.252 0.917,-0.255c1.254,-0.013 4.928,-0 5.004,-0c0.119,-0 0.214,-0.101 0.302,-0.213c0.198,-0.252 0.328,-0.623 0.323,-0.906c-0.004,-0.287 -0.163,-0.66 -0.366,-0.915c-0.058,-0.073 -0.119,-0.136 -0.184,-0.18c-0.027,-0.017 -0.051,-0.036 -0.077,-0.036l-2.998,-0c-0.207,-0 -0.375,-0.168 -0.375,-0.375c0,-0.207 0.168,-0.375 0.375,-0.375l0,-0c1.596,0 2.303,-0.005 3.001,-0l0.999,-0c0.12,-0 0.212,-0.102 0.3,-0.215c0.198,-0.256 0.326,-0.631 0.325,-0.908c-0.001,-0.274 -0.162,-0.648 -0.365,-0.906c-0.059,-0.075 -0.121,-0.14 -0.187,-0.185c-0.025,-0.017 -0.048,-0.036 -0.074,-0.036l-3.999,-0c-0.207,-0 -0.375,-0.168 -0.375,-0.375c0,-0.207 0.168,-0.375 0.375,-0.375l1.749,-0.001Z" style="fill:#ec1f27;"/><path d="M21.997,13.625c-0.327,0.001 -0.644,0.194 -0.887,0.511c-0.297,0.388 -0.485,0.955 -0.485,1.364c0,0.37 0.127,0.94 0.41,1.338c0.055,0.078 0.116,0.15 0.183,0.214c-0.023,0.026 -0.046,0.053 -0.068,0.081c-0.304,0.387 -0.523,0.955 -0.525,1.365c-0.002,0.418 0.184,0.985 0.482,1.37c0.239,0.309 0.549,0.5 0.875,0.507c-0.211,0.351 -0.352,0.778 -0.357,1.119c-0.007,0.431 0.182,0.998 0.483,1.381c0.244,0.311 0.562,0.5 0.892,0.5c0,0 0.001,-0 0.001,-0c0,-0 3.731,-0.013 4.995,-0c0.248,0.003 0.559,0.149 0.849,0.309c0.495,0.272 0.922,0.61 0.922,0.61c0.113,0.089 0.267,0.106 0.396,0.044c0.13,-0.063 0.212,-0.194 0.212,-0.338l-0,-12c0,-0.115 -0.052,-0.223 -0.142,-0.294c-0,-0 -0.651,-0.514 -1.312,-0.826c-0.322,-0.151 -0.648,-0.252 -0.917,-0.255c-1.266,-0.013 -4.014,0.005 -5.002,0c-0.292,-0.002 -0.613,0.195 -0.864,0.526c-0.303,0.399 -0.514,0.977 -0.513,1.35c0,0.274 0.144,0.738 0.372,1.124Zm1.005,6.75c-0.026,0 -0.05,0.019 -0.077,0.036c-0.065,0.044 -0.126,0.107 -0.184,0.18c-0.203,0.255 -0.362,0.628 -0.366,0.915c-0.005,0.283 0.125,0.654 0.323,0.906c0.088,0.112 0.183,0.213 0.302,0.213c0.076,-0 3.75,-0.013 5.004,0c0.269,0.003 0.595,0.104 0.917,0.255c0.247,0.117 0.493,0.262 0.704,0.398c0,-0 0,-11.091 -0,-11.091c-0.166,-0.122 -0.459,-0.327 -0.78,-0.503c-0.29,-0.16 -0.601,-0.306 -0.849,-0.309c-1.265,-0.013 -4.011,0.005 -4.998,-0c-0.026,-0 -0.049,0.019 -0.075,0.037c-0.066,0.047 -0.129,0.115 -0.188,0.193c-0.203,0.266 -0.36,0.646 -0.36,0.894c0,0.218 0.155,0.604 0.357,0.882c0.059,0.081 0.123,0.154 0.191,0.204c0.026,0.019 0.05,0.04 0.077,0.04l3,0c0.207,0 0.375,0.168 0.375,0.375c-0,0.207 -0.168,0.375 -0.375,0.375l-1.307,0l-1.692,0l-1.001,0c-0.117,0 -0.208,0.104 -0.295,0.218c-0.198,0.258 -0.33,0.634 -0.33,0.907c0,0.211 0.059,0.517 0.191,0.771c0.095,0.184 0.224,0.354 0.434,0.354l0,0c0.847,-0.002 3.825,0 4,0l0,0c0.207,0 0.375,0.168 0.375,0.375c0,0.207 -0.168,0.375 -0.375,0.375l-3.999,-0c-0.026,0 -0.049,0.019 -0.074,0.036c-0.066,0.045 -0.128,0.11 -0.187,0.185c-0.203,0.258 -0.364,0.632 -0.365,0.906c-0.001,0.277 0.127,0.652 0.325,0.908c0.088,0.113 0.18,0.215 0.3,0.215l0.999,0c0.698,-0.005 1.405,0 3.001,0l0,0c0.207,0 0.375,0.168 0.375,0.375c0,0.207 -0.168,0.375 -0.375,0.375l-2.998,0Z" style="fill:#ec1f27;"/></svg>