<?xml version="1.0" encoding="UTF-8" standalone="no"?><!DOCTYPE svg PUBLIC "-//W3C//DTD SVG 1.1//EN" "http://www.w3.org/Graphics/SVG/1.1/DTD/svg11.dtd"><svg width="100%" height="100%" viewBox="0 0 36 36" version="1.1" xmlns="http://www.w3.org/2000/svg" xmlns:xlink="http://www.w3.org/1999/xlink" xml:space="preserve" xmlns:serif="http://www.serif.com/" style="fill-rule:evenodd;clip-rule:evenodd;stroke-linejoin:round;stroke-miterlimit:2;"><rect id="light-rail" x="0" y="0" width="36" height="36" style="fill:none;"/><g id="bg-white"><circle cx="18" cy="18" r="18" style="fill:#fff;"/></g><path d="M13,25.6l-0.013,0l-0.019,0.001l-0.009,0.001l-0.02,0.003l-0.01,0.002c-0.038,0.006 -0.075,0.018 -0.108,0.035l-0.012,0.006l-0.016,0.01l-0.013,0.008l-0.009,0.006l-0.011,0.008c-0.03,0.022 -0.057,0.049 -0.08,0.08l-0.006,0.009l-0.012,0.016l-0.01,0.018l-0.004,0.006l-0.006,0.012l-2,4c-0.062,0.124 -0.055,0.271 0.018,0.389c0.073,0.118 0.201,0.19 0.34,0.19l14,-0c0.139,0 0.267,-0.072 0.34,-0.19c0.073,-0.118 0.08,-0.265 0.018,-0.389l-2,-4c-0.068,-0.135 -0.206,-0.221 -0.358,-0.221l-10,0Zm0.247,0.8l-1.6,3.2c0,0 12.706,0 12.706,-0c-0,-0 -1.6,-3.2 -1.6,-3.2l-9.506,0Z" style="fill:#ec1f27;"/><path d="M21.4,8.5c0,-0.497 -0.403,-0.9 -0.9,-0.9l-5,-0c-0.497,-0 -0.9,0.403 -0.9,0.9c-0,-0 -0,1 -0,1c-0,0.497 0.403,0.9 0.9,0.9l5,0c0.497,0 0.9,-0.403 0.9,-0.9c0,0 0,-1 0,-1Zm-0.8,0l-0,1c-0,0.055 -0.045,0.1 -0.1,0.1c-0,0 -5,0 -5,0c-0.055,0 -0.1,-0.045 -0.1,-0.1l-0,-1c-0,-0.055 0.045,-0.1 0.1,-0.1c0,-0 5,-0 5,-0c0.055,-0 0.1,0.045 0.1,0.1Z" style="fill:#ec1f27;"/><path d="M12,28.4l12,-0c0.221,-0 0.4,-0.179 0.4,-0.4c-0,-0.221 -0.179,-0.4 -0.4,-0.4l-12,0c-0.221,-0 -0.4,0.179 -0.4,0.4c-0,0.221 0.179,0.4 0.4,0.4Z" style="fill:#ec1f27;"/><path d="M25.4,9.983c-0.009,-2.421 -1.977,-4.383 -4.4,-4.383c0,0 -6,0 -6,0c-2.424,0 -4.393,1.965 -4.4,4.387c0,-0.004 -0.999,11.98 -0.999,11.98c-0.001,0.011 -0.001,0.022 -0.001,0.033c-0,2.428 1.972,4.4 4.4,4.4l8,0c2.428,0 4.4,-1.972 4.4,-4.4c0,-0.011 -0,-0.022 -0.001,-0.033l-0.999,-11.984Zm-0.8,0.017c0,0.011 0,0.022 0.001,0.033l0.999,11.983c-0.009,1.98 -1.618,3.584 -3.6,3.584c0,0 -8,0 -8,0c-1.98,0 -3.588,-1.601 -3.6,-3.578c0,-0.006 0.999,-11.989 0.999,-11.989c0.001,-0.011 0.001,-0.022 0.001,-0.033c0,-1.987 1.613,-3.6 3.6,-3.6l6,0c1.987,0 3.6,1.613 3.6,3.6Z" style="fill:#ec1f27;"/><path d="M23.4,13.75c0,-1.187 -0.963,-2.15 -2.15,-2.15c0,0 -6.5,0 -6.5,0c-1.187,0 -2.15,0.963 -2.15,2.15l-0,3.5c-0,1.187 0.963,2.15 2.15,2.15c-0,-0 6.5,-0 6.5,-0c1.187,-0 2.15,-0.963 2.15,-2.15l0,-3.5Zm-0.8,-0l-0,3.5c-0,0.745 -0.605,1.35 -1.35,1.35l-6.5,0c-0.745,0 -1.35,-0.605 -1.35,-1.35c0,0 0,-3.5 0,-3.5c0,-0.745 0.605,-1.35 1.35,-1.35l6.5,0c0.745,0 1.35,0.605 1.35,1.35Z" style="fill:#ec1f27;"/><path d="M14.5,20.6c-1.049,0 -1.9,0.851 -1.9,1.9c-0,1.049 0.851,1.9 1.9,1.9c1.049,-0 1.9,-0.851 1.9,-1.9c0,-1.049 -0.851,-1.9 -1.9,-1.9Zm0,0.8c0.607,-0 1.1,0.493 1.1,1.1c-0,0.607 -0.493,1.1 -1.1,1.1c-0.607,0 -1.1,-0.493 -1.1,-1.1c0,-0.607 0.493,-1.1 1.1,-1.1Z" style="fill:#ec1f27;"/><path d="M21.5,20.6c-1.049,0 -1.9,0.851 -1.9,1.9c-0,1.049 0.851,1.9 1.9,1.9c1.049,-0 1.9,-0.851 1.9,-1.9c0,-1.049 -0.851,-1.9 -1.9,-1.9Zm0,0.8c0.607,0 1.1,0.493 1.1,1.1c-0,0.607 -0.493,1.1 -1.1,1.1c-0.607,0 -1.1,-0.493 -1.1,-1.1c0,-0.607 0.493,-1.1 1.1,-1.1Z" style="fill:#ec1f27;"/><path d="M19.995,14.4c0.204,0.003 0.367,0.034 0.472,0.137c0.102,0.1 0.134,0.257 0.133,0.461c-0.001,0.221 0.177,0.401 0.398,0.402c0.221,0.001 0.401,-0.177 0.402,-0.398c0.002,-0.469 -0.139,-0.807 -0.373,-1.037c-0.232,-0.227 -0.571,-0.359 -1.022,-0.365c-0.221,-0.003 -0.402,0.174 -0.405,0.395c-0.003,0.221 0.174,0.402 0.395,0.405Z" style="fill:#ec1f27;"/></svg>