<?xml version="1.0" encoding="UTF-8" standalone="no"?><!DOCTYPE svg PUBLIC "-//W3C//DTD SVG 1.1//EN" "http://www.w3.org/Graphics/SVG/1.1/DTD/svg11.dtd"><svg width="100%" height="100%" viewBox="0 0 36 36" version="1.1" xmlns="http://www.w3.org/2000/svg" xmlns:xlink="http://www.w3.org/1999/xlink" xml:space="preserve" xmlns:serif="http://www.serif.com/" style="fill-rule:evenodd;clip-rule:evenodd;stroke-linejoin:round;stroke-miterlimit:2;"><rect id="location" x="0" y="0" width="36" height="36" style="fill:none;"/><g id="bg-white"><circle cx="18" cy="18" r="18" style="fill:#fff;"/></g><path d="M17.652,29.198c0.069,0.121 0.197,0.198 0.337,0.202c0.14,0.004 0.271,-0.066 0.347,-0.183c1.912,-2.966 4.082,-6.539 5.501,-9.681c0.971,-2.147 1.586,-4.102 1.563,-5.542c-0.028,-1.77 -0.898,-3.642 -2.253,-5.057c-1.362,-1.421 -3.208,-2.378 -5.155,-2.337c-4.057,0.086 -7.337,3.951 -7.392,7.394c-0.023,1.462 0.632,3.387 1.636,5.506c1.463,3.085 3.658,6.603 5.416,9.698Zm0.368,-0.969c-1.688,-2.934 -3.695,-6.192 -5.061,-9.072c-0.941,-1.985 -1.581,-3.78 -1.559,-5.151c0.049,-3.076 2.982,-6.529 6.608,-6.606c1.727,-0.037 3.354,0.831 4.561,2.09c1.213,1.266 2.006,2.934 2.031,4.516c0.021,1.353 -0.58,3.183 -1.492,5.201c-1.316,2.915 -3.288,6.204 -5.088,9.022l-0,-0Z" style="fill:#ec1f27;"/><path d="M18,10.6c-1.877,0 -3.4,1.523 -3.4,3.4c0,1.877 1.523,3.4 3.4,3.4c1.877,-0 3.4,-1.523 3.4,-3.4c0,-1.877 -1.523,-3.4 -3.4,-3.4Zm0,0.8c1.435,-0 2.6,1.165 2.6,2.6c0,1.435 -1.165,2.6 -2.6,2.6c-1.435,0 -2.6,-1.165 -2.6,-2.6c0,-1.435 1.165,-2.6 2.6,-2.6Z" style="fill:#ec1f27;"/></svg>