<?xml version="1.0" encoding="UTF-8" standalone="no"?><!DOCTYPE svg PUBLIC "-//W3C//DTD SVG 1.1//EN" "http://www.w3.org/Graphics/SVG/1.1/DTD/svg11.dtd"><svg width="100%" height="100%" viewBox="0 0 36 36" version="1.1" xmlns="http://www.w3.org/2000/svg" xmlns:xlink="http://www.w3.org/1999/xlink" xml:space="preserve" xmlns:serif="http://www.serif.com/" style="fill-rule:evenodd;clip-rule:evenodd;stroke-linejoin:round;stroke-miterlimit:2;"><rect id="migrant-family" x="0" y="0" width="36" height="36" style="fill:none;"/><g id="bg-white"><circle cx="18" cy="18" r="18" style="fill:#fff;"/></g><path d="M11.559,11.943l-0.974,-0l-0.004,-0.001c-0.03,-0.002 -0.06,-0.001 -0.089,0.003c-0.832,0.04 -1.491,0.239 -1.695,0.969c-0.002,0.007 -0.004,0.014 -0.005,0.021l-1.404,6.322c-0.205,0.789 0.265,1.598 1.053,1.809c0.124,0.034 0.249,0.05 0.371,0.051l0.037,0c0.422,-0.006 0.819,-0.194 1.094,-0.506l-0,5.845c-0,0.82 0.665,1.485 1.485,1.485l0.039,-0c0.802,-0.02 1.447,-0.678 1.447,-1.485c-0,-0 -0,-2.857 -0,-2.857l1.371,-0c0,-0 0,2.857 0,2.857c0,0.82 0.666,1.485 1.486,1.485l0.038,-0c0.802,-0.02 1.447,-0.678 1.447,-1.485l0,-6.741l0.016,0.057c0.179,0.668 0.787,1.108 1.449,1.101l0.037,-0c0.11,-0.004 0.222,-0.021 0.333,-0.05c0.79,-0.212 1.261,-1.024 1.052,-1.814c0.001,0.004 -1.324,-6.025 -1.324,-6.025c-0.001,-0.006 -0.002,-0.012 -0.004,-0.018c-0.091,-0.342 -0.326,-0.593 -0.644,-0.759l-0.036,-0.019l-0.036,-0.017l-0.038,-0.017l-0.038,-0.016l-0.038,-0.015l-0.04,-0.015l-0.039,-0.014l-0.04,-0.013l-0.041,-0.013l-0.041,-0.012l-0.042,-0.011l-0.041,-0.011l-0.041,-0.01l-0.042,-0.009l-0.043,-0.009l-0.042,-0.008l-0.043,-0.008l-0.045,-0.007l-0.084,-0.012l-0.086,-0.01l-0.086,-0.008l-0.086,-0.005l-0.084,-0.004l-0.083,-0.002l-0.082,0.001l-1.224,-0c0.393,-0.594 0.57,-1.317 0.54,-1.834c-0.076,-1.316 -1.156,-2.509 -2.571,-2.509c-1.411,-0 -2.47,1.307 -2.569,2.499c-0.039,0.465 0.123,1.224 0.529,1.844Zm3.147,10.856c0.211,0.011 0.379,0.186 0.379,0.4c0,-0 0,3.257 0,3.257c0,0.378 0.307,0.685 0.686,0.685l0.035,-0c0.362,-0.019 0.65,-0.319 0.65,-0.685l0,-9.78c0,-0.2 0.149,-0.37 0.348,-0.396c0.019,-0.003 0.037,-0.004 0.056,-0.004l0.018,0.001c0.17,0.009 0.319,0.126 0.365,0.296c-0,-0 0.802,2.992 0.802,2.992c0.082,0.308 0.363,0.511 0.668,0.508l0.034,-0.001c0.046,-0.003 0.092,-0.01 0.137,-0.022c0.366,-0.098 0.583,-0.474 0.485,-0.84c-0.001,-0.006 -0.003,-0.012 -0.004,-0.018c-0,0 -1.325,-6.026 -1.326,-6.03c-0.048,-0.158 -0.199,-0.24 -0.364,-0.302c-0.078,-0.029 -0.162,-0.052 -0.247,-0.069l-0.052,-0.01c-0.155,-0.028 -0.315,-0.039 -0.464,-0.039l-0.056,0.001l0,-0c0,-0 -0.027,0 -0.032,0c-0.002,0 -0.003,-0 -0.005,-0l-2.134,-0c-0.178,-0 -0.334,-0.118 -0.384,-0.288c-0.05,-0.17 0.019,-0.353 0.168,-0.449c0.647,-0.415 0.934,-1.299 0.902,-1.851c-0.052,-0.914 -0.789,-1.755 -1.772,-1.755c-0.985,0 -1.703,0.934 -1.772,1.766c-0.041,0.484 0.217,1.426 0.893,1.834l-0.206,0.743l-1.958,-0l-0.08,0.003l-0.043,0.003l-0.04,0.002l-0.043,0.003l-0.039,0.003l-0.043,0.004l-0.037,0.003l-0.043,0.006l-0.035,0.004l-0.038,0.005l-0.037,0.006l-0.037,0.007l-0.036,0.007l-0.036,0.008l-0.035,0.009c-0.17,0.045 -0.31,0.123 -0.364,0.304l-1.402,6.317c-0.002,0.006 -0.003,0.011 -0.004,0.017c-0.098,0.365 0.119,0.742 0.484,0.84c0.056,0.015 0.113,0.022 0.168,0.023l0.033,-0c0.287,-0.01 0.546,-0.201 0.633,-0.488l0.465,-3.201c0.029,-0.201 0.204,-0.348 0.405,-0.343l0.019,0.001c0.21,0.015 0.372,0.189 0.372,0.399l-0,9.771c-0,0.378 0.307,0.685 0.685,0.685l0.035,-0c0.363,-0.019 0.651,-0.319 0.651,-0.685l-0,-3.257c-0,-0.221 0.179,-0.4 0.4,-0.4l2.171,-0l0.021,0Z" style="fill:#ec1f27;"/><path d="M8.571,22.656c0,-0.52 -0.422,-0.943 -0.943,-0.943l-1.085,0c-0.521,0 -0.943,0.423 -0.943,0.943c0,0 0,4.343 0,4.343c0,0.52 0.422,0.942 0.943,0.942l1.085,0c0.521,0 0.943,-0.422 0.943,-0.942c0,-0 0,-4.343 0,-4.343Zm-0.8,0l0,4.343c0,0.078 -0.064,0.142 -0.143,0.142c0,0 -1.085,0 -1.085,0c-0.079,0 -0.143,-0.064 -0.143,-0.142l0,-4.343c0,-0.079 0.064,-0.143 0.143,-0.143c-0,0 1.085,0 1.085,0c0.079,0 0.143,0.064 0.143,0.143Z" style="fill:#ec1f27;"/><path d="M6.686,21.028l-0,1.085c-0,0.221 0.179,0.4 0.4,0.4c0.22,0 0.4,-0.179 0.4,-0.4l-0,-1.085c-0,-0.221 -0.18,-0.4 -0.4,-0.4c-0.221,-0 -0.4,0.179 -0.4,0.4Z" style="fill:#ec1f27;"/><path d="M21.885,23.607l-0,2.849c-0,0.82 0.665,1.485 1.485,1.485c0.82,0 1.486,-0.665 1.486,-1.485c-0,-0 -0,-1.771 -0,-1.771c-0,-0 0.285,-0 0.285,-0c0,-0 0,1.771 0,1.771c0,0.82 0.666,1.485 1.486,1.485c0.82,0 1.486,-0.665 1.486,-1.485l-0,-3.017c0.409,0.443 1.084,0.561 1.628,0.247c0.63,-0.364 0.846,-1.171 0.482,-1.802c0,0 -1.535,-2.659 -1.535,-2.659c-0.104,-0.18 -0.243,-0.393 -0.409,-0.538c-0.164,-0.144 -0.355,-0.229 -0.563,-0.231c-0.351,-0.002 -0.501,-0.001 -0.903,0c0.133,-0.33 0.222,-0.747 0.214,-1.234c-0.017,-1.118 -0.911,-2.023 -2.028,-2.023c-1.12,0 -2.029,0.909 -2.029,2.029c0,0.551 0.069,0.925 0.198,1.227l0,-0c-0.404,-0.001 -0.553,-0.003 -0.888,0.001c-0.568,0.008 -1.244,0.25 -1.471,0.859c0,0 -1.071,2.878 -1.071,2.878c-0.254,0.682 0.094,1.442 0.776,1.696c0.489,0.182 1.017,0.055 1.371,-0.282Zm2.028,-4.351c0.157,0 0.3,-0.092 0.365,-0.235c0.064,-0.144 0.039,-0.312 -0.065,-0.429c-0.294,-0.333 -0.443,-0.638 -0.443,-1.364c0,-0.678 0.551,-1.229 1.229,-1.229c0.679,0 1.218,0.555 1.228,1.235c0.01,0.649 -0.178,1.128 -0.401,1.317c-0.128,0.109 -0.175,0.286 -0.117,0.443c0.057,0.157 0.207,0.262 0.375,0.262c1.034,0.001 1.12,-0.003 1.626,0c0.035,0.001 0.053,0.04 0.079,0.068c0.083,0.089 0.15,0.204 0.206,0.301c0,0 1.535,2.659 1.535,2.659c0.144,0.248 0.059,0.566 -0.189,0.709c-0.248,0.143 -0.566,0.058 -0.709,-0.19c-0,0 -0.573,-0.992 -0.573,-0.992c-0.09,-0.157 -0.275,-0.233 -0.45,-0.186c-0.175,0.047 -0.296,0.205 -0.296,0.386l-0,4.445c-0,0.378 -0.307,0.685 -0.686,0.685c-0.378,0 -0.686,-0.307 -0.686,-0.685c0,-0 0,-2.171 0,-2.171c0,-0.219 -0.175,-0.397 -0.394,-0.4c0,-0 -1.091,-0 -1.091,-0c-0.106,-0 -0.208,0.042 -0.283,0.117c-0.075,0.075 -0.117,0.176 -0.117,0.283c-0,-0 -0,2.171 -0,2.171c-0,0.378 -0.307,0.685 -0.686,0.685c-0.378,0 -0.685,-0.307 -0.685,-0.685c-0,-0 -0,-4.69 -0,-4.69c-0,-0.193 -0.139,-0.359 -0.33,-0.393c-0.19,-0.035 -0.378,0.072 -0.445,0.254l-0.45,1.207c-0.1,0.268 -0.398,0.405 -0.667,0.305c-0.268,-0.1 -0.405,-0.399 -0.305,-0.667c0,0 1.071,-2.878 1.071,-2.878c0.044,-0.119 0.141,-0.192 0.249,-0.241c0.151,-0.07 0.326,-0.095 0.482,-0.097c0.484,-0.006 0.577,-0 1.623,0Z" style="fill:#ec1f27;"/></svg>