<?xml version="1.0" encoding="UTF-8" standalone="no"?><!DOCTYPE svg PUBLIC "-//W3C//DTD SVG 1.1//EN" "http://www.w3.org/Graphics/SVG/1.1/DTD/svg11.dtd"><svg width="100%" height="100%" viewBox="0 0 36 36" version="1.1" xmlns="http://www.w3.org/2000/svg" xmlns:xlink="http://www.w3.org/1999/xlink" xml:space="preserve" xmlns:serif="http://www.serif.com/" style="fill-rule:evenodd;clip-rule:evenodd;stroke-linejoin:round;stroke-miterlimit:2;"><rect id="oil-barrel" x="0" y="0" width="36" height="36" style="fill:none;"/><g id="bg-white"><circle cx="18" cy="18" r="18" style="fill:#fff;"/></g><path d="M11.6,11.5l0,4.5c-0,0.221 0.179,0.4 0.4,0.4c0.221,0 0.4,-0.179 0.4,-0.4l-0,-4.5c-0,-0.221 -0.179,-0.4 -0.4,-0.4c-0.221,0 -0.4,0.179 -0.4,0.4Z" style="fill:#ec1f27;"/><path d="M11.6,16.5l0,4.5c-0,0.221 0.179,0.4 0.4,0.4c0.221,0 0.4,-0.179 0.4,-0.4l-0,-4.5c-0,-0.221 -0.179,-0.4 -0.4,-0.4c-0.221,0 -0.4,0.179 -0.4,0.4Z" style="fill:#ec1f27;"/><path d="M11.6,21.5l0,4.5c-0,0.221 0.179,0.4 0.4,0.4c0.221,0 0.4,-0.179 0.4,-0.4l-0,-4.5c-0,-0.221 -0.179,-0.4 -0.4,-0.4c-0.221,0 -0.4,0.179 -0.4,0.4Z" style="fill:#ec1f27;"/><path d="M23.6,11.5l-0,4.5c0,0.221 0.179,0.4 0.4,0.4c0.221,-0 0.4,-0.179 0.4,-0.4l0,-4.5c0,-0.221 -0.179,-0.4 -0.4,-0.4c-0.221,-0 -0.4,0.179 -0.4,0.4Z" style="fill:#ec1f27;"/><path d="M23.6,16.5l-0,4.5c0,0.221 0.179,0.4 0.4,0.4c0.221,-0 0.4,-0.179 0.4,-0.4l0,-4.5c0,-0.221 -0.179,-0.4 -0.4,-0.4c-0.221,-0 -0.4,0.179 -0.4,0.4Z" style="fill:#ec1f27;"/><path d="M23.6,21.5l-0,4.5c0,0.221 0.179,0.4 0.4,0.4c0.221,-0 0.4,-0.179 0.4,-0.4l0,-4.5c0,-0.221 -0.179,-0.4 -0.4,-0.4c-0.221,-0 -0.4,0.179 -0.4,0.4Z" style="fill:#ec1f27;"/><path d="M18,8.1c-2.601,0 -4.857,0.472 -5.978,1.137c-0.619,0.368 -0.922,0.821 -0.922,1.263c-0,0.442 0.303,0.895 0.922,1.263c1.121,0.665 3.377,1.137 5.978,1.137c2.601,0 4.857,-0.472 5.978,-1.137c0.619,-0.368 0.922,-0.821 0.922,-1.263c0,-0.442 -0.303,-0.895 -0.922,-1.263c-1.121,-0.665 -3.377,-1.137 -5.978,-1.137Zm0,0.8c2.089,0 3.942,0.306 5.09,0.788c0.344,0.144 0.62,0.301 0.807,0.474c0.119,0.11 0.203,0.216 0.203,0.338c0,0.122 -0.084,0.228 -0.203,0.338c-0.187,0.173 -0.463,0.33 -0.807,0.474c-1.148,0.482 -3.001,0.788 -5.09,0.788c-2.089,0 -3.942,-0.306 -5.09,-0.788c-0.344,-0.144 -0.62,-0.301 -0.807,-0.474c-0.119,-0.11 -0.203,-0.216 -0.203,-0.338c-0,-0.122 0.084,-0.228 0.203,-0.338c0.187,-0.173 0.463,-0.33 0.807,-0.474c1.148,-0.482 3.001,-0.788 5.09,-0.788Z" style="fill:#ec1f27;"/><path d="M23.768,15.062c0.202,0.145 0.332,0.27 0.332,0.438c0,0.122 -0.084,0.228 -0.203,0.338c-0.187,0.173 -0.463,0.33 -0.807,0.474c-1.148,0.482 -3.001,0.788 -5.09,0.788c-2.089,0 -3.942,-0.306 -5.09,-0.788c-0.344,-0.144 -0.62,-0.301 -0.807,-0.474c-0.119,-0.11 -0.203,-0.216 -0.203,-0.338c-0,-0.166 0.122,-0.278 0.322,-0.422c0.179,-0.129 0.22,-0.379 0.092,-0.558c-0.129,-0.18 -0.379,-0.221 -0.559,-0.092c-0.472,0.34 -0.655,0.679 -0.655,1.072c-0,0.442 0.303,0.895 0.922,1.263c1.121,0.665 3.377,1.137 5.978,1.137c2.601,0 4.857,-0.472 5.978,-1.137c0.619,-0.368 0.922,-0.821 0.922,-1.263c0,-0.389 -0.196,-0.75 -0.664,-1.087c-0.179,-0.129 -0.43,-0.089 -0.559,0.091c-0.129,0.179 -0.088,0.429 0.091,0.558Z" style="fill:#ec1f27;"/><path d="M23.768,20.062c0.202,0.145 0.332,0.27 0.332,0.438c0,0.122 -0.084,0.228 -0.203,0.338c-0.187,0.173 -0.463,0.33 -0.807,0.474c-1.148,0.482 -3.001,0.788 -5.09,0.788c-2.089,0 -3.942,-0.306 -5.09,-0.788c-0.344,-0.144 -0.62,-0.301 -0.807,-0.474c-0.119,-0.11 -0.203,-0.216 -0.203,-0.338c-0,-0.166 0.122,-0.278 0.322,-0.422c0.179,-0.129 0.22,-0.379 0.092,-0.558c-0.129,-0.18 -0.379,-0.221 -0.559,-0.092c-0.472,0.34 -0.655,0.679 -0.655,1.072c-0,0.442 0.303,0.895 0.922,1.263c1.121,0.665 3.377,1.137 5.978,1.137c2.601,0 4.857,-0.472 5.978,-1.137c0.619,-0.368 0.922,-0.821 0.922,-1.263c0,-0.389 -0.196,-0.75 -0.664,-1.087c-0.179,-0.129 -0.43,-0.089 -0.559,0.091c-0.129,0.179 -0.088,0.429 0.091,0.558Z" style="fill:#ec1f27;"/><path d="M23.768,25.062c0.202,0.145 0.332,0.27 0.332,0.438c0,0.122 -0.084,0.228 -0.203,0.338c-0.187,0.173 -0.463,0.33 -0.807,0.474c-1.148,0.482 -3.001,0.788 -5.09,0.788c-2.089,0 -3.942,-0.306 -5.09,-0.788c-0.344,-0.144 -0.62,-0.301 -0.807,-0.474c-0.119,-0.11 -0.203,-0.216 -0.203,-0.338c-0,-0.166 0.122,-0.278 0.322,-0.422c0.179,-0.129 0.22,-0.379 0.092,-0.558c-0.129,-0.18 -0.379,-0.221 -0.559,-0.092c-0.472,0.34 -0.655,0.679 -0.655,1.072c-0,0.442 0.303,0.895 0.922,1.263c1.121,0.665 3.377,1.137 5.978,1.137c2.601,0 4.857,-0.472 5.978,-1.137c0.619,-0.368 0.922,-0.821 0.922,-1.263c0,-0.389 -0.196,-0.75 -0.664,-1.087c-0.179,-0.129 -0.43,-0.089 -0.559,0.091c-0.129,0.179 -0.088,0.429 0.091,0.558Z" style="fill:#ec1f27;"/><path d="M13.1,13.619l0,1.881c0,0.221 0.179,0.4 0.4,0.4c0.221,-0 0.4,-0.179 0.4,-0.4l-0,-1.881c0,-0.221 -0.179,-0.4 -0.4,-0.4c-0.221,-0 -0.4,0.179 -0.4,0.4Z" style="fill:#ec1f27;"/><path d="M13.1,18.619l0,1.881c0,0.221 0.179,0.4 0.4,0.4c0.221,-0 0.4,-0.179 0.4,-0.4l-0,-1.881c0,-0.221 -0.179,-0.4 -0.4,-0.4c-0.221,-0 -0.4,0.179 -0.4,0.4Z" style="fill:#ec1f27;"/><path d="M13.1,23.619l0,1.881c0,0.221 0.179,0.4 0.4,0.4c0.221,-0 0.4,-0.179 0.4,-0.4l-0,-1.881c0,-0.221 -0.179,-0.4 -0.4,-0.4c-0.221,-0 -0.4,0.179 -0.4,0.4Z" style="fill:#ec1f27;"/><path d="M18,10.1c-0.675,0 -1.258,0.147 -1.549,0.334c-0.251,0.161 -0.351,0.372 -0.351,0.566c-0,0.194 0.1,0.405 0.351,0.566c0.291,0.187 0.874,0.334 1.549,0.334c0.675,-0 1.258,-0.147 1.549,-0.334c0.251,-0.161 0.351,-0.372 0.351,-0.566c0,-0.194 -0.1,-0.405 -0.351,-0.566c-0.291,-0.187 -0.874,-0.334 -1.549,-0.334Zm0.848,0.9c-0.229,0.064 -0.525,0.1 -0.848,0.1c-0.323,0 -0.619,-0.036 -0.848,-0.1c0.229,-0.064 0.525,-0.1 0.848,-0.1c0.323,-0 0.619,0.036 0.848,0.1Z" style="fill:#ec1f27;"/></svg>