<?xml version="1.0" encoding="UTF-8" standalone="no"?><!DOCTYPE svg PUBLIC "-//W3C//DTD SVG 1.1//EN" "http://www.w3.org/Graphics/SVG/1.1/DTD/svg11.dtd"><svg width="100%" height="100%" viewBox="0 0 36 36" version="1.1" xmlns="http://www.w3.org/2000/svg" xmlns:xlink="http://www.w3.org/1999/xlink" xml:space="preserve" xmlns:serif="http://www.serif.com/" style="fill-rule:evenodd;clip-rule:evenodd;stroke-linejoin:round;stroke-miterlimit:2;"><rect id="oil-pumpjack" x="0" y="0" width="36" height="36" style="fill:none;"/><g id="bg-white"><circle cx="18" cy="18" r="18" style="fill:#fff;"/></g><path d="M9.6,20l-0,5c0,0.221 0.179,0.4 0.4,0.4c0.221,-0 0.4,-0.179 0.4,-0.4l0,-5c0,-0.221 -0.179,-0.4 -0.4,-0.4c-0.221,-0 -0.4,0.179 -0.4,0.4Z" style="fill:#ec1f27;"/><path d="M12.4,25.3c0,-0.386 -0.314,-0.7 -0.7,-0.7l-3.4,0c-0.386,0 -0.7,0.314 -0.7,0.7l0,2.4c0,0.386 0.314,0.7 0.7,0.7c0,-0 3.4,-0 3.4,-0c0.386,-0 0.7,-0.314 0.7,-0.7l0,-2.4Zm-4,0.1l0,2.2l3.2,0l0,-2.2l-3.2,-0Z" style="fill:#ec1f27;"/><path d="M26.749,13.786c0.669,-0.386 0.899,-1.243 0.512,-1.912c0,-0 -2.25,-3.898 -2.25,-3.898c-0.386,-0.669 -1.243,-0.898 -1.912,-0.512c0,0 -1.299,0.75 -1.299,0.75c-0.191,0.11 -0.257,0.355 -0.146,0.546l3.25,5.63c0.11,0.191 0.355,0.256 0.546,0.146c-0,-0 1.299,-0.75 1.299,-0.75Zm-0.4,-0.693l-0.953,0.55c0,0 -2.85,-4.936 -2.85,-4.936c0,-0 0.953,-0.55 0.953,-0.55c0.287,-0.166 0.654,-0.067 0.82,0.219c-0,0 2.25,3.898 2.25,3.898c0.165,0.286 0.067,0.654 -0.22,0.819Z" style="fill:#ec1f27;"/><path d="M19.699,15.087l3.996,-2.308c0.43,-0.248 0.578,-0.799 0.33,-1.229c-0,-0 -0.5,-0.866 -0.5,-0.866c-0.249,-0.43 -0.8,-0.578 -1.23,-0.329c0,-0 -3.982,2.299 -3.982,2.299c-0.191,0.11 -0.257,0.355 -0.146,0.546c0.11,0.191 0.355,0.257 0.546,0.146l3.982,-2.299c0.048,-0.027 0.109,-0.011 0.137,0.037c-0,-0 0.5,0.866 0.5,0.866c0.027,0.048 0.011,0.109 -0.037,0.137c0,-0 -3.996,2.307 -3.996,2.307c-0.191,0.11 -0.257,0.355 -0.146,0.546c0.11,0.191 0.355,0.257 0.546,0.147Z" style="fill:#ec1f27;"/><path d="M16.309,13.811l-7.004,4.044c-0.43,0.248 -0.578,0.799 -0.33,1.229c0,-0 0.5,0.866 0.5,0.866c0.249,0.43 0.8,0.578 1.23,0.329c-0,0 6.812,-3.933 6.812,-3.933c0.191,-0.11 0.257,-0.355 0.146,-0.546c-0.11,-0.191 -0.355,-0.257 -0.546,-0.146l-6.812,3.933c-0.048,0.027 -0.109,0.011 -0.137,-0.037c0,-0 -0.5,-0.866 -0.5,-0.866c-0.027,-0.048 -0.011,-0.109 0.037,-0.137c-0,0 7.004,-4.043 7.004,-4.043c0.191,-0.111 0.257,-0.356 0.146,-0.547c-0.11,-0.191 -0.355,-0.257 -0.546,-0.146Z" style="fill:#ec1f27;"/><path d="M18,12.6c-1.049,0 -1.9,0.851 -1.9,1.9c-0,1.049 0.851,1.9 1.9,1.9c1.049,-0 1.9,-0.851 1.9,-1.9c0,-1.049 -0.851,-1.9 -1.9,-1.9Zm0,0.8c0.607,-0 1.1,0.493 1.1,1.1c-0,0.607 -0.493,1.1 -1.1,1.1c-0.607,0 -1.1,-0.493 -1.1,-1.1c0,-0.607 0.493,-1.1 1.1,-1.1Z" style="fill:#ec1f27;"/><path d="M17.172,15.886l-3.556,12c-0.035,0.121 -0.012,0.252 0.063,0.353c0.076,0.101 0.195,0.161 0.321,0.161l8,-0c0.126,-0 0.245,-0.06 0.321,-0.161c0.075,-0.101 0.098,-0.232 0.063,-0.353l-3.556,-12c-0.063,-0.211 -0.286,-0.332 -0.497,-0.27c-0.212,0.063 -0.333,0.286 -0.27,0.498l3.403,11.486c0,0 -6.928,0 -6.928,0c-0,0 3.403,-11.486 3.403,-11.486c0.063,-0.212 -0.058,-0.435 -0.27,-0.498c-0.211,-0.062 -0.434,0.059 -0.497,0.27Z" style="fill:#ec1f27;"/><path d="M14.33,28.227l5.5,-8c0.125,-0.182 0.079,-0.432 -0.103,-0.557c-0.182,-0.125 -0.432,-0.079 -0.557,0.103l-5.5,8c-0.125,0.182 -0.079,0.432 0.103,0.557c0.182,0.125 0.432,0.079 0.557,-0.103Z" style="fill:#ec1f27;"/><path d="M22.33,27.773l-5.5,-8c-0.125,-0.182 -0.375,-0.228 -0.557,-0.103c-0.182,0.125 -0.228,0.375 -0.103,0.557l5.5,8c0.125,0.182 0.375,0.228 0.557,0.103c0.182,-0.125 0.228,-0.375 0.103,-0.557Z" style="fill:#ec1f27;"/></svg>