<?xml version="1.0" encoding="UTF-8" standalone="no"?><!DOCTYPE svg PUBLIC "-//W3C//DTD SVG 1.1//EN" "http://www.w3.org/Graphics/SVG/1.1/DTD/svg11.dtd"><svg width="100%" height="100%" viewBox="0 0 36 36" version="1.1" xmlns="http://www.w3.org/2000/svg" xmlns:xlink="http://www.w3.org/1999/xlink" xml:space="preserve" xmlns:serif="http://www.serif.com/" style="fill-rule:evenodd;clip-rule:evenodd;stroke-linejoin:round;stroke-miterlimit:2;"><rect id="passport" x="0" y="0" width="36" height="36" style="fill:none;"/><g id="bg-white"><circle cx="18" cy="18" r="18" style="fill:#fff;"/></g><path d="M28.4,8c-0,-0.221 -0.179,-0.4 -0.4,-0.4l-4,-0c-0.221,0 -0.4,0.179 -0.4,0.4l0,19.6c0,0 -11.6,0 -11.6,0c-0.221,0 -0.4,0.179 -0.4,0.4l-0,2c-0,0.221 0.179,0.4 0.4,0.4l16,-0c0.221,0 0.4,-0.179 0.4,-0.4l-0,-22Zm-0.8,0.4l-0,21.2c-0,0 -15.2,0 -15.2,0c-0,0 -0,-1.2 -0,-1.2c-0,-0 11.6,-0 11.6,-0c0.221,-0 0.4,-0.179 0.4,-0.4l-0,-19.6l3.2,-0Z" style="fill:#ec1f27;"/><path d="M24.4,6c-0,-0.221 -0.179,-0.4 -0.4,-0.4l-16,-0c-0.221,0 -0.4,0.179 -0.4,0.4l-0,22c-0,0.221 0.179,0.4 0.4,0.4l16,-0c0.221,-0 0.4,-0.179 0.4,-0.4l-0,-22Zm-0.8,0.4l-0,21.2c-0,0 -15.2,0 -15.2,0c0,0 0,-21.2 0,-21.2l15.2,-0Z" style="fill:#ec1f27;"/><path d="M24,24.4l2,-0c0.221,0 0.4,-0.179 0.4,-0.4c0,-0.221 -0.179,-0.4 -0.4,-0.4l-2,0c-0.221,0 -0.4,0.179 -0.4,0.4c0,0.221 0.179,0.4 0.4,0.4Z" style="fill:#ec1f27;"/><path d="M24,22.4l2,-0c0.221,0 0.4,-0.179 0.4,-0.4c0,-0.221 -0.179,-0.4 -0.4,-0.4l-2,0c-0.221,0 -0.4,0.179 -0.4,0.4c0,0.221 0.179,0.4 0.4,0.4Z" style="fill:#ec1f27;"/><path d="M24,20.4l2,-0c0.221,0 0.4,-0.179 0.4,-0.4c0,-0.221 -0.179,-0.4 -0.4,-0.4l-2,0c-0.221,0 -0.4,0.179 -0.4,0.4c0,0.221 0.179,0.4 0.4,0.4Z" style="fill:#ec1f27;"/><path d="M24,18.4l2,-0c0.221,0 0.4,-0.179 0.4,-0.4c0,-0.221 -0.179,-0.4 -0.4,-0.4l-2,0c-0.221,0 -0.4,0.179 -0.4,0.4c0,0.221 0.179,0.4 0.4,0.4Z" style="fill:#ec1f27;"/><path d="M24,16.4l2,-0c0.221,-0 0.4,-0.179 0.4,-0.4c-0,-0.221 -0.179,-0.4 -0.4,-0.4l-2,0c-0.221,-0 -0.4,0.179 -0.4,0.4c-0,0.221 0.179,0.4 0.4,0.4Z" style="fill:#ec1f27;"/><path d="M24,14.4l2,-0c0.221,-0 0.4,-0.179 0.4,-0.4c-0,-0.221 -0.179,-0.4 -0.4,-0.4l-2,0c-0.221,-0 -0.4,0.179 -0.4,0.4c-0,0.221 0.179,0.4 0.4,0.4Z" style="fill:#ec1f27;"/><path d="M24,12.4l2,-0c0.221,0 0.4,-0.179 0.4,-0.4c0,-0.221 -0.179,-0.4 -0.4,-0.4l-2,0c-0.221,0 -0.4,0.179 -0.4,0.4c0,0.221 0.179,0.4 0.4,0.4Z" style="fill:#ec1f27;"/><path d="M11,22.4l10,-0c0.221,0 0.4,-0.179 0.4,-0.4c0,-0.221 -0.179,-0.4 -0.4,-0.4l-10,0c-0.221,0 -0.4,0.179 -0.4,0.4c0,0.221 0.179,0.4 0.4,0.4Z" style="fill:#ec1f27;"/><path d="M11,24.4l10,-0c0.221,0 0.4,-0.179 0.4,-0.4c0,-0.221 -0.179,-0.4 -0.4,-0.4l-10,0c-0.221,0 -0.4,0.179 -0.4,0.4c0,0.221 0.179,0.4 0.4,0.4Z" style="fill:#ec1f27;"/><path d="M15.6,9l0,10c-0,0.221 0.179,0.4 0.4,0.4c0.221,0 0.4,-0.179 0.4,-0.4l0,-10c-0,-0.221 -0.179,-0.4 -0.4,-0.4c-0.221,0 -0.4,0.179 -0.4,0.4Z" style="fill:#ec1f27;"/><path d="M20.375,12.35l-8.75,-0c-0.221,-0 -0.4,0.179 -0.4,0.4c-0,0.221 0.179,0.4 0.4,0.4l8.75,0c0.221,-0 0.4,-0.179 0.4,-0.4c-0,-0.221 -0.179,-0.4 -0.4,-0.4Z" style="fill:#ec1f27;"/><path d="M20.375,14.85l-8.75,-0c-0.221,0 -0.4,0.179 -0.4,0.4c0,0.221 0.179,0.4 0.4,0.4l8.75,0c0.221,0 0.4,-0.179 0.4,-0.4c0,-0.221 -0.179,-0.4 -0.4,-0.4Z" style="fill:#ec1f27;"/><path d="M15.718,9.284c1.594,1.581 2.492,3.149 2.531,4.729c0.04,1.568 -0.776,3.123 -2.517,4.69c-0.164,0.147 -0.177,0.401 -0.029,0.565c0.147,0.164 0.401,0.177 0.565,0.029c1.958,-1.763 2.825,-3.539 2.781,-5.304c-0.044,-1.755 -0.996,-3.521 -2.767,-5.277c-0.157,-0.155 -0.411,-0.154 -0.566,0.002c-0.155,0.157 -0.154,0.411 0.002,0.566Z" style="fill:#ec1f27;"/><path d="M15.733,8.702c-1.801,1.614 -2.749,3.309 -2.784,5.069c-0.034,1.754 0.838,3.596 2.769,5.513c0.157,0.155 0.41,0.154 0.566,-0.002c0.155,-0.157 0.154,-0.41 -0.002,-0.566c-1.735,-1.722 -2.564,-3.354 -2.533,-4.929c0.031,-1.567 0.915,-3.053 2.518,-4.489c0.164,-0.147 0.178,-0.401 0.031,-0.565c-0.147,-0.164 -0.401,-0.178 -0.565,-0.031Z" style="fill:#ec1f27;"/><path d="M16,8.6c-2.98,0 -5.4,2.42 -5.4,5.4c0,2.98 2.42,5.4 5.4,5.4c2.98,-0 5.4,-2.42 5.4,-5.4c0,-2.98 -2.42,-5.4 -5.4,-5.4Zm0,0.8c2.539,0 4.6,2.061 4.6,4.6c0,2.539 -2.061,4.6 -4.6,4.6c-2.539,0 -4.6,-2.061 -4.6,-4.6c0,-2.539 2.061,-4.6 4.6,-4.6Z" style="fill:#ec1f27;"/></svg>