<?xml version="1.0" encoding="UTF-8" standalone="no"?><!DOCTYPE svg PUBLIC "-//W3C//DTD SVG 1.1//EN" "http://www.w3.org/Graphics/SVG/1.1/DTD/svg11.dtd"><svg width="100%" height="100%" viewBox="0 0 36 36" version="1.1" xmlns="http://www.w3.org/2000/svg" xmlns:xlink="http://www.w3.org/1999/xlink" xml:space="preserve" xmlns:serif="http://www.serif.com/" style="fill-rule:evenodd;clip-rule:evenodd;stroke-linejoin:round;stroke-miterlimit:2;"><rect id="pencil" x="0" y="0" width="36" height="36" style="fill:none;"/><g id="bg-white"><circle cx="18" cy="18" r="18" style="fill:#fff;"/></g><path d="M9.283,13.283l4,-4c0.156,-0.156 0.156,-0.41 -0,-0.566c-0.156,-0.156 -0.41,-0.156 -0.566,0l-4,4c-0.156,0.156 -0.156,0.41 0,0.566c0.156,0.156 0.41,0.156 0.566,-0Z" style="fill:#ec1f27;"/><path d="M10.283,14.283l4,-4c0.156,-0.156 0.156,-0.41 -0,-0.566c-0.156,-0.156 -0.41,-0.156 -0.566,0l-4,4c-0.156,0.156 -0.156,0.41 0,0.566c0.156,0.156 0.41,0.156 0.566,-0Z" style="fill:#ec1f27;"/><path d="M11.283,15.283l4,-4c0.156,-0.156 0.156,-0.41 -0,-0.566c-0.156,-0.156 -0.41,-0.156 -0.566,0l-4,4c-0.156,0.156 -0.156,0.41 0,0.566c0.156,0.156 0.41,0.156 0.566,-0Z" style="fill:#ec1f27;"/><path d="M11.48,6.671c-0.742,-0.741 -1.946,-0.741 -2.687,0c-0,0 -2.122,2.122 -2.122,2.122c-0.741,0.741 -0.741,1.945 0,2.687c0,-0 14.849,14.849 14.849,14.849c0.195,0.194 0.873,0.493 1.743,0.781c1.848,0.613 4.591,1.298 4.591,1.298c0.136,0.033 0.279,-0.006 0.378,-0.104c0.099,-0.098 0.14,-0.24 0.109,-0.376c-0,0 -0.652,-2.777 -1.244,-4.645c-0.184,-0.581 -0.365,-1.077 -0.519,-1.385c-0.088,-0.177 -0.176,-0.304 -0.249,-0.378l-14.849,-14.849Zm-0.566,0.566l14.849,14.849c0.049,0.049 0.095,0.154 0.157,0.29c0.127,0.286 0.268,0.689 0.414,1.149c0.41,1.29 0.847,3.02 1.073,3.942c-0.913,-0.237 -2.618,-0.694 -3.892,-1.116c-0.455,-0.151 -0.855,-0.297 -1.137,-0.427c-0.138,-0.063 -0.243,-0.112 -0.292,-0.161c0,0 -14.849,-14.849 -14.849,-14.849c-0.429,-0.429 -0.429,-1.126 -0,-1.556c-0,0 2.121,-2.121 2.121,-2.121c0.43,-0.429 1.127,-0.429 1.556,-0Z" style="fill:#ec1f27;"/><path d="M25.207,27.083c-0.098,0.102 -0.134,0.248 -0.096,0.384c0.038,0.136 0.145,0.242 0.281,0.279l2.455,0.66c0.138,0.037 0.285,-0.002 0.386,-0.103c0.101,-0.1 0.141,-0.247 0.105,-0.385l-0.663,-2.538c-0.036,-0.14 -0.146,-0.25 -0.287,-0.286c-0.14,-0.037 -0.289,0.006 -0.389,0.111l-1.792,1.878Zm1.044,0.065l0.831,-0.872c0,0 0.308,1.178 0.308,1.178l-1.139,-0.306Z" style="fill:#ec1f27;"/><path d="M22.283,26.283l4,-4c0.156,-0.156 0.156,-0.41 -0,-0.566c-0.156,-0.156 -0.41,-0.156 -0.566,0l-4,4c-0.156,0.156 -0.156,0.41 0,0.566c0.156,0.156 0.41,0.156 0.566,-0Z" style="fill:#ec1f27;"/><path d="M14.717,13.783l8.5,8.5c0.156,0.156 0.41,0.156 0.566,-0c0.156,-0.156 0.156,-0.41 -0,-0.566l-8.5,-8.5c-0.156,-0.156 -0.41,-0.156 -0.566,0c-0.156,0.156 -0.156,0.41 0,0.566Z" style="fill:#ec1f27;"/><path d="M13.217,15.283l8.5,8.5c0.156,0.156 0.41,0.156 0.566,-0c0.156,-0.156 0.156,-0.41 -0,-0.566l-8.5,-8.5c-0.156,-0.156 -0.41,-0.156 -0.566,0c-0.156,0.156 -0.156,0.41 0,0.566Z" style="fill:#ec1f27;"/></svg>