<?xml version="1.0" encoding="UTF-8" standalone="no"?><!DOCTYPE svg PUBLIC "-//W3C//DTD SVG 1.1//EN" "http://www.w3.org/Graphics/SVG/1.1/DTD/svg11.dtd"><svg width="100%" height="100%" viewBox="0 0 36 36" version="1.1" xmlns="http://www.w3.org/2000/svg" xmlns:xlink="http://www.w3.org/1999/xlink" xml:space="preserve" xmlns:serif="http://www.serif.com/" style="fill-rule:evenodd;clip-rule:evenodd;stroke-linejoin:round;stroke-miterlimit:2;"><rect id="pills" x="0" y="0" width="36" height="36" style="fill:none;"/><g><circle cx="18" cy="18" r="18" style="fill:#fff;"/></g><path d="M25.78,16.625l-4.626,-0c-0.108,0 -0.21,0.047 -0.282,0.128c-0.045,0.051 -0.092,0.102 -0.14,0.152c-0.069,0.07 -0.107,0.164 -0.107,0.262l-0,8.274c0,0.207 0.168,0.375 0.375,0.375l4.78,-0c2.536,-0 4.595,-2.059 4.595,-4.596c-0,-2.536 -2.059,-4.595 -4.595,-4.595Zm-4.405,0.75l4.405,0c2.122,0 3.845,1.723 3.845,3.845c-0,2.123 -1.723,3.846 -3.845,3.846c-0,-0 -4.405,-0 -4.405,-0l0,-7.691Z" style="fill:#ec1f27;"/><path d="M21.375,17.167c0,-0.153 -0.092,-0.29 -0.234,-0.348c-0.141,-0.057 -0.303,-0.023 -0.409,0.086c-0.012,0.011 -0.023,0.023 -0.034,0.034l-6.759,6.759c-0.184,0.184 -0.381,0.345 -0.59,0.484c-0.099,0.066 -0.161,0.175 -0.166,0.294c-0.006,0.119 0.045,0.233 0.137,0.308c0.792,0.645 1.801,1.032 2.9,1.032c0,-0 4.78,-0 4.78,-0c0.207,-0 0.375,-0.168 0.375,-0.375l0,-8.274Zm-0.75,0.906l0,6.993c-0,-0 -4.405,-0 -4.405,-0c-0.745,-0 -1.441,-0.212 -2.03,-0.58c0.096,-0.081 0.189,-0.167 0.279,-0.258l6.156,-6.155Z" style="fill:#ec1f27;"/><path d="M11.35,14.35c-0.147,0.146 -0.147,0.384 -0,0.53l5.968,5.969c0.147,0.146 0.384,0.146 0.531,-0l3.379,-3.38c1.794,-1.793 1.794,-4.705 0,-6.499c-1.793,-1.793 -4.705,-1.793 -6.499,0c0,0 -3.379,3.38 -3.379,3.38Zm0.795,0.265l3.115,-3.115c1.5,-1.5 3.937,-1.5 5.438,0c1.501,1.501 1.501,3.938 0,5.439c0,-0 -3.114,3.114 -3.114,3.114l-5.439,-5.438Z" style="fill:#ec1f27;"/><path d="M17.849,20.849c0.146,-0.147 0.146,-0.384 -0,-0.531l-5.969,-5.968c-0.146,-0.147 -0.384,-0.147 -0.53,-0l-3.38,3.379c-1.793,1.794 -1.793,4.706 0,6.499c1.794,1.794 4.706,1.794 6.499,0l3.38,-3.379Zm-0.796,-0.265l-3.114,3.114c-1.501,1.501 -3.938,1.501 -5.439,0c-1.5,-1.501 -1.5,-3.938 0,-5.438c0,-0 3.115,-3.115 3.115,-3.115l5.438,5.439Z" style="fill:#ec1f27;"/><path d="M25.87,19.352c0.356,0.131 0.858,0.522 1.248,0.95c0.245,0.27 0.45,0.553 0.522,0.802c0.057,0.199 0.265,0.314 0.464,0.256c0.199,-0.057 0.314,-0.265 0.256,-0.464c-0.097,-0.337 -0.355,-0.733 -0.688,-1.099c-0.478,-0.524 -1.106,-0.987 -1.542,-1.149c-0.194,-0.072 -0.41,0.028 -0.482,0.222c-0.072,0.194 0.028,0.41 0.222,0.482Z" style="fill:#ec1f27;"/><path d="M19.734,13.265c0.206,0.206 0.323,0.524 0.367,0.87c0.071,0.556 -0.051,1.193 -0.396,1.634c-0.128,0.163 -0.099,0.399 0.064,0.526c0.163,0.128 0.399,0.099 0.526,-0.064c0.464,-0.593 0.645,-1.443 0.55,-2.191c-0.067,-0.523 -0.269,-0.993 -0.579,-1.305c-0.146,-0.146 -0.384,-0.147 -0.531,-0.001c-0.146,0.146 -0.147,0.384 -0.001,0.531Z" style="fill:#ec1f27;"/></svg>