<?xml version="1.0" encoding="UTF-8" standalone="no"?><!DOCTYPE svg PUBLIC "-//W3C//DTD SVG 1.1//EN" "http://www.w3.org/Graphics/SVG/1.1/DTD/svg11.dtd"><svg width="100%" height="100%" viewBox="0 0 36 36" version="1.1" xmlns="http://www.w3.org/2000/svg" xmlns:xlink="http://www.w3.org/1999/xlink" xml:space="preserve" xmlns:serif="http://www.serif.com/" style="fill-rule:evenodd;clip-rule:evenodd;stroke-linejoin:round;stroke-miterlimit:2;"><rect id="rose" x="0" y="0" width="36" height="36" style="fill:none;"/><g><circle cx="18" cy="18" r="18" style="fill:#fff;"/></g><path d="M10.075,8.502c-0.189,-0.038 -0.377,0.073 -0.433,0.257c-0.057,0.185 0.035,0.383 0.214,0.457c1.019,0.425 1.467,1.009 1.644,3.512c-0,0.005 0,3.832 0,3.832c0,0.005 0,0.009 0,0.014c0.062,1.677 1.092,2.972 2.358,3.845c1.242,0.855 2.703,1.296 3.634,1.316c1.975,0.042 3.084,-1.068 3.084,-1.068c0.081,-0.08 0.121,-0.193 0.109,-0.307c-0.682,-6.427 -4.021,-10.505 -10.61,-11.858Zm1.482,1.151c5.084,1.567 7.734,5.185 8.361,10.589c-0.308,0.237 -1.146,0.77 -2.41,0.743c-0.827,-0.017 -2.121,-0.424 -3.224,-1.184c-1.075,-0.74 -1.976,-1.821 -2.034,-3.241c0,-0.007 0,-3.84 0,-3.84c0,-0.009 -0,-0.017 -0.001,-0.026c-0.107,-1.538 -0.339,-2.448 -0.692,-3.041Z" style="fill:#ec1f27;"/><path d="M23.5,12.733c0.048,-1.344 0.386,-2.873 1.669,-3.518c0.151,-0.076 0.233,-0.245 0.198,-0.412c-0.035,-0.166 -0.177,-0.288 -0.347,-0.297c-2.265,-0.123 -5.786,0.826 -8.717,2.518c-0.093,0.054 -0.159,0.145 -0.18,0.25c-0.021,0.106 0.004,0.216 0.069,0.301c1.788,2.357 3.364,5.527 3.748,8.868c0.014,0.123 0.088,0.231 0.198,0.289c0.11,0.058 0.241,0.057 0.35,-0.001c0.912,-0.483 1.571,-1.331 2.032,-2.413c0.652,-1.532 0.907,-3.546 0.98,-5.585l-0,0Zm-0.75,-0.026c-0.069,1.94 -0.3,3.859 -0.92,5.317c-0.304,0.714 -0.7,1.314 -1.226,1.737c-0.482,-3.099 -1.91,-6.026 -3.559,-8.294c2.271,-1.242 4.85,-2.032 6.841,-2.192c-0.802,0.903 -1.092,2.218 -1.136,3.432l0,-0Z" style="fill:#ec1f27;"/><path d="M13.375,9.84c-0,0.121 0.058,0.235 0.157,0.305c1.106,0.79 0.991,0.769 2.752,1.928c0.128,0.085 0.295,0.082 0.421,-0.005l2.163,-1.509c0.082,-0.057 0.138,-0.144 0.155,-0.242c0.017,-0.098 -0.005,-0.199 -0.062,-0.28c-0.789,-1.131 -4.984,-4.335 -4.984,-4.335c-0.113,-0.087 -0.266,-0.101 -0.394,-0.038c-0.127,0.063 -0.208,0.193 -0.208,0.336l0,3.84Zm0.75,-0.193l0,-2.885c1.04,0.808 3.143,2.478 3.984,3.412c-0,0 -1.624,1.133 -1.624,1.133c-1.447,-0.956 -1.469,-1.018 -2.36,-1.66Z" style="fill:#ec1f27;"/><path d="M17.524,9.476c0.043,0.092 0.212,0.346 0.856,1.032c0.105,0.112 0.268,0.149 0.41,0.093l3.534,-1.382c0.118,-0.046 0.205,-0.149 0.231,-0.273c0.025,-0.124 -0.013,-0.252 -0.103,-0.342c-0.511,-0.51 -1.814,-2.791 -1.814,-2.791c-0.059,-0.102 -0.162,-0.17 -0.279,-0.185c-0.116,-0.015 -0.233,0.026 -0.315,0.11c-0,0 -2.212,2.269 -2.809,2.867c-0.141,0.14 -0.147,0.367 -0.014,0.515c0.166,0.185 0.269,0.314 0.303,0.356Zm0.707,-0.255c-0.01,-0.03 -0.024,-0.066 -0.045,-0.102c-0.021,-0.038 -0.066,-0.104 -0.174,-0.233c0.585,-0.592 1.673,-1.706 2.226,-2.273c0.326,0.548 0.904,1.498 1.337,2.094c-0,-0 -2.82,1.102 -2.82,1.102c-0.317,-0.343 -0.481,-0.536 -0.524,-0.588Z" style="fill:#ec1f27;"/><path d="M17.134,25.916c-0.011,0.049 -0.012,0.099 -0.003,0.148c0.023,0.138 0.11,0.29 0.291,0.415c0.215,0.148 0.624,0.283 1.141,0.332c1.589,0.148 4.237,-0.46 4.786,-3.323c0.033,-0.17 -0.056,-0.341 -0.214,-0.412c-2.933,-1.328 -5.445,0.41 -6.001,2.84Zm0.78,-0.02c0.519,-1.828 2.407,-3.093 4.63,-2.254c-0.575,2.112 -2.653,2.54 -3.911,2.422c-0.258,-0.024 -0.482,-0.071 -0.647,-0.135c-0.023,-0.008 -0.049,-0.021 -0.072,-0.033Z" style="fill:#ec1f27;"/><path d="M15.952,30.183c1.5,-2.68 2.713,-5.586 1.913,-8.911c-0.049,-0.201 -0.252,-0.325 -0.453,-0.277c-0.201,0.049 -0.325,0.252 -0.277,0.453c0.753,3.126 -0.428,5.849 -1.837,8.369c-0.101,0.181 -0.037,0.409 0.144,0.51c0.181,0.101 0.409,0.037 0.51,-0.144Z" style="fill:#ec1f27;"/><path d="M17.736,25.869c-0.246,-0.2 -0.661,-0.358 -1.132,-0.49c-0.599,-0.167 -1.299,-0.301 -1.755,-0.518c-0.165,-0.078 -0.361,-0.027 -0.467,0.121c-0.105,0.148 -0.09,0.35 0.037,0.48l1.875,1.92c0.145,0.148 0.382,0.151 0.531,0.006c0.148,-0.144 0.15,-0.382 0.006,-0.53l-0.848,-0.868c0.143,0.037 0.283,0.073 0.419,0.111c0.355,0.1 0.676,0.199 0.862,0.35c0.16,0.131 0.397,0.106 0.527,-0.055c0.131,-0.16 0.106,-0.397 -0.055,-0.527Z" style="fill:#ec1f27;"/></svg>