<?xml version="1.0" encoding="UTF-8" standalone="no"?><!DOCTYPE svg PUBLIC "-//W3C//DTD SVG 1.1//EN" "http://www.w3.org/Graphics/SVG/1.1/DTD/svg11.dtd"><svg width="100%" height="100%" viewBox="0 0 36 36" version="1.1" xmlns="http://www.w3.org/2000/svg" xmlns:xlink="http://www.w3.org/1999/xlink" xml:space="preserve" xmlns:serif="http://www.serif.com/" style="fill-rule:evenodd;clip-rule:evenodd;stroke-linejoin:round;stroke-miterlimit:2;"><rect id="scales" x="0" y="0" width="36" height="36" style="fill:none;"/><g><circle cx="18" cy="18" r="18" style="fill:#fff;"/></g><path d="M6.644,16.381c-0.038,0.115 -0.019,0.24 0.052,0.338c0.07,0.098 0.183,0.156 0.304,0.156l5,0c0.121,0 0.234,-0.058 0.304,-0.156c0.071,-0.098 0.09,-0.223 0.052,-0.338l-2.5,-7.5c-0.051,-0.153 -0.195,-0.256 -0.356,-0.256c-0.161,-0 -0.305,0.103 -0.356,0.256l-2.5,7.5Zm0.876,-0.256l1.98,-5.939c0,-0 1.98,5.939 1.98,5.939l-3.96,-0Z" style="fill:#ec1f27;"/><path d="M13.375,16.5c0,-0.207 -0.168,-0.375 -0.375,-0.375l-7,0c-0.207,0 -0.375,0.168 -0.375,0.375c0,2.139 1.736,3.875 3.875,3.875c2.139,0 3.875,-1.736 3.875,-3.875Zm-0.772,0.375c-0.186,1.548 -1.505,2.75 -3.103,2.75c-1.598,0 -2.917,-1.202 -3.103,-2.75l6.206,-0Z" style="fill:#ec1f27;"/><path d="M23.644,16.381c-0.038,0.115 -0.019,0.24 0.052,0.338c0.07,0.098 0.183,0.156 0.304,0.156l5,0c0.121,0 0.234,-0.058 0.304,-0.156c0.071,-0.098 0.09,-0.223 0.052,-0.338l-2.5,-7.5c-0.051,-0.153 -0.195,-0.256 -0.356,-0.256c-0.161,-0 -0.305,0.103 -0.356,0.256l-2.5,7.5Zm0.876,-0.256l1.98,-5.939c0,-0 1.98,5.939 1.98,5.939l-3.96,-0Z" style="fill:#ec1f27;"/><path d="M30.375,16.5c0,-0.207 -0.168,-0.375 -0.375,-0.375l-7,0c-0.207,0 -0.375,0.168 -0.375,0.375c0,2.139 1.736,3.875 3.875,3.875c2.139,0 3.875,-1.736 3.875,-3.875Zm-0.772,0.375c-0.186,1.548 -1.505,2.75 -3.103,2.75c-1.598,0 -2.917,-1.202 -3.103,-2.75l6.206,-0Z" style="fill:#ec1f27;"/><path d="M17.625,6l0,24c0,0.207 0.168,0.375 0.375,0.375c0.207,-0 0.375,-0.168 0.375,-0.375l0,-24c0,-0.207 -0.168,-0.375 -0.375,-0.375c-0.207,-0 -0.375,0.168 -0.375,0.375Z" style="fill:#ec1f27;"/><path d="M6,9.375l24,0c0.207,0 0.375,-0.168 0.375,-0.375c0,-0.207 -0.168,-0.375 -0.375,-0.375l-24,0c-0.207,0 -0.375,0.168 -0.375,0.375c0,0.207 0.168,0.375 0.375,0.375Z" style="fill:#ec1f27;"/><path d="M10,30.375l16,0c0.207,-0 0.375,-0.168 0.375,-0.375c-0,-0.207 -0.168,-0.375 -0.375,-0.375l-16,0c-0.207,-0 -0.375,0.168 -0.375,0.375c-0,0.207 0.168,0.375 0.375,0.375Z" style="fill:#ec1f27;"/></svg>