<?xml version="1.0" encoding="UTF-8" standalone="no"?><!DOCTYPE svg PUBLIC "-//W3C//DTD SVG 1.1//EN" "http://www.w3.org/Graphics/SVG/1.1/DTD/svg11.dtd"><svg width="100%" height="100%" viewBox="0 0 36 36" version="1.1" xmlns="http://www.w3.org/2000/svg" xmlns:xlink="http://www.w3.org/1999/xlink" xml:space="preserve" xmlns:serif="http://www.serif.com/" style="fill-rule:evenodd;clip-rule:evenodd;stroke-linejoin:round;stroke-miterlimit:2;"><rect id="shirt" x="0" y="0" width="36" height="36" style="fill:none;"/><g id="bg-white"><circle cx="18" cy="18" r="18" style="fill:#fff;"/></g><path d="M15,10.9l6,-0c0.221,0 0.4,-0.179 0.4,-0.4c0,-0.221 -0.179,-0.4 -0.4,-0.4l-6,0c-0.221,0 -0.4,0.179 -0.4,0.4c0,0.221 0.179,0.4 0.4,0.4Z" style="fill:#ec1f27;"/><path d="M11.6,27.5c-0,0.17 0.107,0.321 0.268,0.377c4.129,1.449 8.218,1.443 12.266,-0c0.16,-0.057 0.266,-0.208 0.266,-0.377l0,-10.534c-0,-0 1.817,1.817 1.817,1.817c0.156,0.156 0.41,0.156 0.566,-0l3,-3c0.149,-0.149 0.157,-0.388 0.018,-0.546l-3.5,-4c-0.013,-0.016 -0.028,-0.03 -0.044,-0.043c-1.035,-0.87 -2.249,-1.098 -2.758,-1.094c0,0 -2.499,0 -2.499,0c-0.108,0 -0.212,0.044 -0.287,0.122c-0.885,0.914 -1.769,1.465 -2.68,1.502c-0.9,0.036 -1.801,-0.442 -2.734,-1.49c-0.076,-0.085 -0.185,-0.134 -0.299,-0.134l-2,0c-0.015,0 -0.031,0.001 -0.046,0.003c-1.426,0.164 -1.766,0.316 -2.708,1.088c-0.003,0.002 -0.006,0.005 -0.009,0.008l-4,3.5c-0.084,0.073 -0.133,0.177 -0.137,0.288c-0.003,0.11 0.039,0.218 0.117,0.296l3,3c0.144,0.144 0.374,0.157 0.533,0.029l1.85,-1.48c0,0 -0,10.668 -0,10.668Zm0.8,-0.286l0,-11.214c0,-0.154 -0.088,-0.294 -0.227,-0.361c-0.138,-0.066 -0.303,-0.047 -0.423,0.049l-2.22,1.776c-0,-0 -2.445,-2.445 -2.445,-2.445c0,0 3.673,-3.214 3.673,-3.214c0.787,-0.644 1.081,-0.767 2.263,-0.905c0.002,-0 1.802,-0 1.802,-0c1.096,1.18 2.184,1.666 3.242,1.623c1.046,-0.042 2.086,-0.609 3.103,-1.623c-0.001,0 2.332,-0 2.332,-0c0.001,0 0.003,-0 0.004,-0c0.408,-0.004 1.376,0.194 2.214,0.886c0.002,0.001 3.235,3.696 3.235,3.696c-0,-0 -2.453,2.452 -2.453,2.452c0,0 -2.217,-2.217 -2.217,-2.217c-0.115,-0.114 -0.287,-0.148 -0.436,-0.087c-0.15,0.062 -0.247,0.208 -0.247,0.37l-0,11.216c-3.698,1.257 -7.431,1.261 -11.2,-0.002l-0,0Z" style="fill:#ec1f27;"/></svg>