<?xml version="1.0" encoding="UTF-8" standalone="no"?><!DOCTYPE svg PUBLIC "-//W3C//DTD SVG 1.1//EN" "http://www.w3.org/Graphics/SVG/1.1/DTD/svg11.dtd"><svg width="100%" height="100%" viewBox="0 0 36 36" version="1.1" xmlns="http://www.w3.org/2000/svg" xmlns:xlink="http://www.w3.org/1999/xlink" xml:space="preserve" xmlns:serif="http://www.serif.com/" style="fill-rule:evenodd;clip-rule:evenodd;stroke-linejoin:round;stroke-miterlimit:2;"><rect id="sickle" x="0" y="0" width="36" height="36" style="fill:none;"/><g id="bg-white"><circle cx="18" cy="18" r="18" style="fill:#fff;"/></g><path d="M13.531,25.271c0.014,-0.011 0.029,-0.022 0.042,-0.035c0.161,-0.151 0.168,-0.404 0.017,-0.565c-0.055,-0.059 -0.221,-0.216 -0.479,-0.08c-0.012,0.007 -0.075,0.048 -0.168,0.132c-0.501,0.45 -2.945,2.764 -2.976,2.793c0,0 0,0 0,0c-0.1,0.098 -0.26,0.076 -0.419,0.036c-0.238,-0.059 -0.483,-0.2 -0.661,-0.374c-0.213,-0.21 -0.415,-0.54 -0.473,-0.836c-0.02,-0.101 -0.041,-0.198 0.021,-0.259c0.031,-0.029 1.129,-0.987 3.295,-2.874c0.166,-0.145 0.184,-0.397 0.039,-0.564c-0.145,-0.166 -0.398,-0.184 -0.565,-0.039c-2.188,1.907 -3.296,2.874 -3.325,2.902c-0.001,0 -0.001,0.001 -0.001,0.001c-0.246,0.239 -0.326,0.593 -0.249,0.986c0.086,0.443 0.379,0.94 0.697,1.253c0,-0 0,-0 0,-0c0.334,0.329 0.824,0.575 1.263,0.623c0.366,0.04 0.699,-0.051 0.935,-0.281c0.03,-0.029 2.457,-2.326 2.954,-2.773l0.053,-0.046Zm-0.198,0.072c-0.118,0.01 -0.238,-0.031 -0.325,-0.124c0.066,0.07 0.166,0.14 0.325,0.124Zm0.023,-0.002l-0.002,-0l0.002,-0l-0,-0Z" style="fill:#ec1f27;"/><path d="M13.008,25.22c0.671,0.71 2.703,3.153 6.879,3.153c4.182,0 7.368,-3.65 8.328,-7.969c0.763,-3.43 -0.812,-7.998 -5.429,-11.804c-0.849,-0.7 -1.754,-0.693 -3.238,-0.992c-0.176,-0.036 -0.354,0.05 -0.435,0.21c-0.082,0.16 -0.047,0.354 0.085,0.476c2.618,2.416 4.416,4.645 5.384,6.696c0.931,1.97 1.084,3.763 0.429,5.382c-0.924,2.287 -2.341,4.24 -4.696,4.761c-0.94,0.208 -1.968,-0.01 -3.089,-0.625c-1.19,-0.652 -2.473,-1.744 -3.856,-3.268c-0.148,-0.164 -0.401,-0.176 -0.565,-0.028c-0.163,0.148 -0.176,0.401 -0.027,0.565c1.454,1.605 2.811,2.746 4.063,3.433c1.322,0.724 2.539,0.949 3.646,0.704c2.617,-0.578 4.239,-2.701 5.266,-5.242c0.732,-1.811 0.593,-3.82 -0.447,-6.024c-0.88,-1.863 -2.413,-3.874 -4.607,-6.03c0.153,0.027 0.299,0.054 0.439,0.085c0.427,0.095 0.791,0.227 1.139,0.514c4.321,3.563 5.871,7.803 5.157,11.014c-0.877,3.945 -3.727,7.342 -7.547,7.342c-3.826,0 -5.683,-2.252 -6.297,-2.903c-0.152,-0.16 -0.405,-0.167 -0.566,-0.016c-0.16,0.152 -0.168,0.405 -0.016,0.566Z" style="fill:#ec1f27;"/><path d="M12.811,21.207c-0.588,0.512 -1.124,0.979 -1.607,1.399c-0.166,0.145 -0.184,0.398 -0.039,0.565c0.145,0.166 0.398,0.184 0.565,0.038c0.483,-0.42 1.018,-0.887 1.607,-1.399c0.166,-0.145 0.183,-0.398 0.039,-0.564c-0.145,-0.167 -0.398,-0.184 -0.565,-0.039Z" style="fill:#ec1f27;"/><path d="M13.59,24.67l-1.832,-1.939c-0.152,-0.161 -0.405,-0.168 -0.566,-0.016c-0.16,0.151 -0.167,0.405 -0.016,0.565l1.832,1.94c0.152,0.16 0.405,0.167 0.565,0.016c0.161,-0.152 0.168,-0.405 0.017,-0.566Z" style="fill:#ec1f27;"/></svg>