<?xml version="1.0" encoding="UTF-8" standalone="no"?><!DOCTYPE svg PUBLIC "-//W3C//DTD SVG 1.1//EN" "http://www.w3.org/Graphics/SVG/1.1/DTD/svg11.dtd"><svg width="100%" height="100%" viewBox="0 0 36 36" version="1.1" xmlns="http://www.w3.org/2000/svg" xmlns:xlink="http://www.w3.org/1999/xlink" xml:space="preserve" xmlns:serif="http://www.serif.com/" style="fill-rule:evenodd;clip-rule:evenodd;stroke-linejoin:round;stroke-miterlimit:2;"><rect id="skull" x="0" y="0" width="36" height="36" style="fill:none;"/><g><circle cx="18" cy="18" r="18" style="fill:#fff;"/></g><path d="M17.625,26.728l-0,3.272c0,0.207 0.168,0.375 0.375,0.375c0.207,-0 0.375,-0.168 0.375,-0.375l-0,-3.272c0,-0.207 -0.168,-0.375 -0.375,-0.375c-0.207,-0 -0.375,0.168 -0.375,0.375Z" style="fill:#ec1f27;"/><path d="M15.626,27l0,2.998c0,0.207 0.168,0.375 0.375,0.375c0.207,-0 0.375,-0.168 0.375,-0.375l0,-2.998c0,-0.207 -0.168,-0.375 -0.375,-0.375c-0.207,-0 -0.375,0.168 -0.375,0.375Z" style="fill:#ec1f27;"/><path d="M19.624,27l-0,2.998c-0,0.207 0.168,0.375 0.375,0.375c0.207,-0 0.375,-0.168 0.375,-0.375l-0,-2.998c-0,-0.207 -0.168,-0.375 -0.375,-0.375c-0.207,0 -0.375,0.168 -0.375,0.375Z" style="fill:#ec1f27;"/><path d="M21.805,27.816l0,2.182c0,0.207 0.169,0.375 0.375,0.375c0.207,-0 0.375,-0.168 0.375,-0.375l0,-2.182c0,-0.207 -0.168,-0.375 -0.375,-0.375c-0.206,0 -0.375,0.168 -0.375,0.375Z" style="fill:#ec1f27;"/><path d="M13.625,27.816l-0,2.182c0,0.207 0.168,0.375 0.375,0.375c0.207,-0 0.375,-0.168 0.375,-0.375l-0,-2.182c0,-0.207 -0.168,-0.375 -0.375,-0.375c-0.207,0 -0.375,0.168 -0.375,0.375Z" style="fill:#ec1f27;"/><path d="M7.967,18.419c-0.221,0.578 -0.342,1.204 -0.342,1.857c-0,2.204 1.377,4.097 3.333,4.888c0,0 0,2.652 0,2.652c0,0.006 0,0.012 0.001,0.017c0.066,1.459 1.192,2.603 2.611,2.539c-0.006,0.001 8.874,0.001 8.874,0.001c0.745,-0 1.36,-0.249 1.808,-0.689c0.44,-0.432 0.723,-1.055 0.788,-1.837c0.001,-0.01 0.002,-0.02 0.002,-0.031l-0,-2.652c1.956,-0.791 3.333,-2.684 3.333,-4.888c-0,-0.654 -0.121,-1.28 -0.342,-1.858c0.223,-0.829 0.342,-1.702 0.342,-2.601c-0,-5.623 -4.647,-10.192 -10.375,-10.192c-5.728,-0 -10.375,4.569 -10.375,10.192c-0,0.899 0.119,1.771 0.342,2.602Zm0.741,0.164c0.032,-0.077 0.037,-0.163 0.015,-0.244c-0.227,-0.803 -0.348,-1.649 -0.348,-2.522c-0,-5.213 4.315,-9.442 9.625,-9.442c5.31,-0 9.625,4.229 9.625,9.442c-0,0.873 -0.121,1.719 -0.348,2.522c-0.022,0.081 -0.017,0.167 0.015,0.244c0.215,0.523 0.333,1.094 0.333,1.693c-0,1.972 -1.288,3.651 -3.081,4.274c-0.151,0.053 -0.252,0.195 -0.252,0.354l-0,2.896c-0.051,0.571 -0.243,1.033 -0.565,1.349c-0.317,0.311 -0.756,0.474 -1.283,0.474l-8.888,-0c-0.006,-0 -0.012,-0 -0.018,0c-1.002,0.046 -1.775,-0.78 -1.829,-1.808c-0.001,-0.008 -0.001,-2.911 -0.001,-2.911c0,-0.159 -0.101,-0.301 -0.252,-0.354c-1.793,-0.623 -3.081,-2.302 -3.081,-4.274c-0,-0.599 0.118,-1.17 0.333,-1.693Z" style="fill:#ec1f27;"/><path d="M18.447,20.231c-0.051,-0.153 -0.195,-0.257 -0.356,-0.257c-0.162,0 -0.305,0.104 -0.356,0.257l-1.091,3.272c-0.038,0.114 -0.019,0.24 0.052,0.338c0.07,0.098 0.183,0.156 0.304,0.156l2.182,-0c0.12,-0 0.233,-0.058 0.304,-0.156c0.07,-0.098 0.089,-0.224 0.051,-0.338l-1.09,-3.272Zm-0.356,1.304l0.57,1.712c0,-0 -1.141,-0 -1.141,-0l0.571,-1.712Z" style="fill:#ec1f27;"/><path d="M15.96,19.649c1.204,-0.695 1.618,-2.237 0.922,-3.441c-0.695,-1.205 -2.237,-1.618 -3.441,-0.923c0,0 -1.009,0.583 -1.009,0.583c-1.204,0.695 -1.618,2.237 -0.922,3.442c0.695,1.204 2.237,1.617 3.441,0.922c-0,-0 1.009,-0.583 1.009,-0.583Zm-0.375,-0.65l-1.009,0.583c-0.846,0.488 -1.929,0.198 -2.417,-0.647c-0.488,-0.846 -0.198,-1.929 0.648,-2.417c-0,-0 1.009,-0.583 1.009,-0.583c0.846,-0.488 1.929,-0.198 2.417,0.648c0.488,0.845 0.198,1.928 -0.648,2.416Z" style="fill:#ec1f27;"/><path d="M21.28,20.26c1.177,0.68 2.684,0.276 3.364,-0.901c0.679,-1.177 0.275,-2.684 -0.902,-3.364c0,0 -1.108,-0.64 -1.108,-0.64c-1.176,-0.679 -2.684,-0.275 -3.363,0.902c-0.68,1.177 -0.276,2.684 0.901,3.363c0,0 1.108,0.64 1.108,0.64Zm0.375,-0.649l-1.108,-0.64c-0.818,-0.473 -1.099,-1.521 -0.627,-2.339c0.473,-0.819 1.521,-1.1 2.339,-0.627c0,-0 1.108,0.64 1.108,0.64c0.819,0.472 1.1,1.52 0.627,2.339c-0.472,0.818 -1.521,1.099 -2.339,0.627Z" style="fill:#ec1f27;"/><path d="M15.919,8.151c0,0 -1.849,0.416 -3.166,1.567c-1.453,1.27 -2.107,3.159 -2.107,3.159c-0.068,0.196 0.036,0.41 0.231,0.477c0.196,0.068 0.41,-0.036 0.477,-0.231c0,-0 0.587,-1.699 1.893,-2.841c1.179,-1.03 2.836,-1.399 2.836,-1.399c0.202,-0.045 0.329,-0.246 0.284,-0.448c-0.045,-0.202 -0.246,-0.329 -0.448,-0.284Z" style="fill:#ec1f27;"/></svg>