<?xml version="1.0" encoding="UTF-8" standalone="no"?><!DOCTYPE svg PUBLIC "-//W3C//DTD SVG 1.1//EN" "http://www.w3.org/Graphics/SVG/1.1/DTD/svg11.dtd"><svg width="100%" height="100%" viewBox="0 0 36 36" version="1.1" xmlns="http://www.w3.org/2000/svg" xmlns:xlink="http://www.w3.org/1999/xlink" xml:space="preserve" xmlns:serif="http://www.serif.com/" style="fill-rule:evenodd;clip-rule:evenodd;stroke-linejoin:round;stroke-miterlimit:2;"><rect id="spaghetti" x="0" y="0" width="36" height="36" style="fill:none;"/><g id="bg-white"><circle cx="18" cy="18" r="18" style="fill:#fff;"/></g><path d="M8.6,26l-0,0.75c-0,0.911 0.739,1.65 1.65,1.65l15.5,-0c0.911,-0 1.65,-0.739 1.65,-1.65c0,0 0,-0.75 0,-0.75c-0,-0.221 -0.179,-0.4 -0.4,-0.4c-0.221,0 -0.4,0.179 -0.4,0.4l-0,0.75c-0,0.469 -0.381,0.85 -0.85,0.85c-0,0 -15.5,0 -15.5,0c-0.469,0 -0.85,-0.381 -0.85,-0.85l0,-0.75c0,-0.221 -0.179,-0.4 -0.4,-0.4c-0.221,-0 -0.4,0.179 -0.4,0.4Z" style="fill:#ec1f27;"/><path d="M8,26.4l20,-0c0.221,0 0.4,-0.179 0.4,-0.4c0,-0.221 -0.179,-0.4 -0.4,-0.4l-20,0c-0.221,0 -0.4,0.179 -0.4,0.4c0,0.221 0.179,0.4 0.4,0.4Z" style="fill:#ec1f27;"/><path d="M14.887,20.384c0.936,0.275 1.553,0.809 1.833,1.504c0.437,1.085 0.065,2.508 -1.031,3.86c-0.139,0.172 -0.112,0.424 0.059,0.563c0.172,0.139 0.424,0.112 0.563,-0.059c1.317,-1.625 1.676,-3.358 1.151,-4.663c-0.362,-0.899 -1.138,-1.617 -2.349,-1.973c-0.212,-0.062 -0.435,0.059 -0.497,0.271c-0.062,0.212 0.059,0.435 0.271,0.497Z" style="fill:#ec1f27;"/><path d="M18.346,26.201c0.909,-1.566 1.2,-3.111 0.893,-4.474c-0.31,-1.378 -1.227,-2.582 -2.777,-3.439c-0.835,-0.463 -1.64,-0.337 -2.127,-0.012c-0.246,0.164 -0.417,0.382 -0.499,0.612c-0.181,0.505 0.005,1.167 1.044,1.494c0.211,0.066 0.436,-0.052 0.502,-0.262c0.066,-0.211 -0.052,-0.436 -0.262,-0.502c-0.199,-0.062 -0.347,-0.138 -0.446,-0.228c-0.053,-0.049 -0.088,-0.099 -0.096,-0.153c-0.015,-0.116 0.081,-0.216 0.201,-0.296c0.297,-0.198 0.787,-0.235 1.296,0.047c1.32,0.73 2.119,1.741 2.383,2.915c0.268,1.188 -0.011,2.53 -0.804,3.896c-0.111,0.191 -0.046,0.436 0.145,0.547c0.191,0.111 0.436,0.046 0.547,-0.145Z" style="fill:#ec1f27;"/><path d="M20.375,26.138c0.704,-1.91 0.938,-3.397 0.624,-4.712c-0.315,-1.326 -1.185,-2.493 -2.75,-3.739c-0.702,-0.559 -1.307,-0.531 -1.686,-0.318c-0.651,0.365 -0.811,1.368 0.039,1.929c0.184,0.122 0.432,0.071 0.554,-0.113c0.122,-0.184 0.071,-0.433 -0.113,-0.554c-0.252,-0.166 -0.281,-0.457 -0.088,-0.565c0.184,-0.103 0.455,-0.025 0.796,0.247c1.39,1.106 2.19,2.121 2.47,3.298c0.283,1.188 0.039,2.526 -0.596,4.251c-0.077,0.207 0.03,0.437 0.237,0.513c0.207,0.077 0.437,-0.03 0.513,-0.237Z" style="fill:#ec1f27;"/><path d="M19.384,19.371c2.742,-0.089 4.595,0.727 5.736,2.001c1.133,1.265 1.558,2.965 1.48,4.609c-0.01,0.221 0.161,0.408 0.381,0.419c0.221,0.01 0.408,-0.161 0.419,-0.381c0.087,-1.85 -0.409,-3.758 -1.684,-5.181c-1.268,-1.415 -3.311,-2.366 -6.358,-2.266c-0.221,0.007 -0.394,0.192 -0.387,0.412c0.007,0.221 0.192,0.394 0.413,0.387Z" style="fill:#ec1f27;"/><path d="M20.554,21.442c1.15,-0.038 2.172,0.302 2.898,1.047c0.742,0.761 1.168,1.93 1.148,3.506c-0.003,0.221 0.174,0.402 0.395,0.405c0.221,0.003 0.402,-0.174 0.405,-0.395c0.023,-1.837 -0.511,-3.188 -1.375,-4.074c-0.878,-0.902 -2.107,-1.335 -3.498,-1.289c-0.22,0.007 -0.393,0.193 -0.386,0.413c0.007,0.221 0.192,0.394 0.413,0.387Z" style="fill:#ec1f27;"/><path d="M20.759,23.606c0.585,0.01 1.022,0.148 1.331,0.415c0.479,0.412 0.641,1.101 0.645,1.956c0.002,0.221 0.182,0.399 0.403,0.398c0.22,-0.002 0.399,-0.182 0.397,-0.403c-0.006,-1.128 -0.291,-2.013 -0.922,-2.557c-0.431,-0.371 -1.028,-0.595 -1.841,-0.609c-0.22,-0.003 -0.403,0.173 -0.406,0.394c-0.004,0.22 0.172,0.403 0.393,0.406Z" style="fill:#ec1f27;"/><path d="M14.087,19.266c-3.379,0.781 -5.685,2.867 -5.488,6.665c0.011,0.221 0.199,0.39 0.42,0.379c0.22,-0.012 0.39,-0.2 0.379,-0.42c-0.174,-3.346 1.892,-5.156 4.869,-5.845c0.215,-0.05 0.35,-0.265 0.3,-0.48c-0.05,-0.215 -0.265,-0.349 -0.48,-0.299Z" style="fill:#ec1f27;"/><path d="M11.149,25.725c-0.226,-2.486 1.539,-3.931 5.319,-4.414c0.219,-0.028 0.374,-0.228 0.346,-0.447c-0.028,-0.219 -0.228,-0.374 -0.447,-0.346c-4.377,0.559 -6.277,2.401 -6.015,5.28c0.02,0.219 0.215,0.382 0.435,0.362c0.22,-0.02 0.382,-0.215 0.362,-0.435Z" style="fill:#ec1f27;"/><path d="M13.164,25.865c-0.036,-1.706 1.264,-2.686 4.005,-2.987c0.22,-0.024 0.379,-0.222 0.354,-0.441c-0.024,-0.22 -0.221,-0.378 -0.441,-0.354c-3.323,0.364 -4.762,1.73 -4.718,3.799c0.005,0.22 0.188,0.396 0.408,0.391c0.221,-0.005 0.396,-0.188 0.392,-0.408Z" style="fill:#ec1f27;"/><path d="M14.789,25.909c0.156,-0.542 0.355,-0.926 0.675,-1.134c0.315,-0.204 0.73,-0.223 1.28,-0.114c0.217,0.044 0.427,-0.097 0.471,-0.314c0.043,-0.216 -0.098,-0.427 -0.315,-0.47c-0.806,-0.161 -1.41,-0.072 -1.871,0.227c-0.456,0.296 -0.787,0.812 -1.009,1.584c-0.061,0.212 0.061,0.434 0.274,0.495c0.212,0.061 0.434,-0.062 0.495,-0.274Z" style="fill:#ec1f27;"/><path d="M12,12.4l5,-0c0.221,-0 0.4,-0.179 0.4,-0.4c-0,-0.221 -0.179,-0.4 -0.4,-0.4l-5,0c-0.221,-0 -0.4,0.179 -0.4,0.4c-0,0.221 0.179,0.4 0.4,0.4Z" style="fill:#ec1f27;"/><path d="M18.595,18.039l-0.037,0.427c-0.019,0.22 0.145,0.414 0.364,0.433c0.22,0.019 0.414,-0.145 0.433,-0.365l0.044,-0.5c0.001,-0.016 0.001,-0.032 0.001,-0.048c-0.006,-0.157 -0.093,-0.369 -0.289,-0.592c-0.284,-0.324 -0.83,-0.744 -1.377,-1.168c-0.431,-0.334 -0.861,-0.671 -1.135,-0.964c-0.091,-0.098 -0.187,-0.253 -0.199,-0.274l0,-5.988c0,-0.007 -0,-0.014 -0.001,-0.021c-0.019,-0.377 -0.172,-0.642 -0.376,-0.817c-0.303,-0.259 -0.742,-0.32 -1.126,-0.197c-0.435,0.141 -0.786,0.508 -0.797,1.026l-0,3.985c-0,0.221 0.179,0.4 0.4,0.4c0.221,0 0.4,-0.179 0.4,-0.4l0,-3.97c0.004,-0.147 0.119,-0.239 0.243,-0.279c0.122,-0.04 0.264,-0.039 0.36,0.043c0.058,0.05 0.089,0.131 0.097,0.236c-0,0.006 -0,5.994 -0,5.994c-0.002,0.174 0.079,0.398 0.264,0.632c0.279,0.357 0.826,0.797 1.38,1.226c0.435,0.338 0.873,0.669 1.154,0.947c0.081,0.079 0.167,0.192 0.197,0.234Z" style="fill:#ec1f27;"/><path d="M12,10.4l5.001,-0c0.624,-0.002 0.943,0.224 1.267,0.44c0.436,0.29 0.879,0.571 1.734,0.56l7.004,-0c0.201,-0.003 0.351,0.052 0.446,0.156c0.149,0.162 0.164,0.412 0.096,0.626c-0.072,0.228 -0.255,0.425 -0.538,0.418c-0.003,0 -0.007,-0 -0.01,0l-6.999,0c-0.958,-0.007 -1.42,0.265 -1.839,0.545c-0.311,0.208 -0.586,0.432 -1.163,0.455c-0.006,0 -4.999,0 -4.999,0c-0.221,0 -0.4,0.179 -0.4,0.4c0,0.221 0.179,0.4 0.4,0.4l5,-0c0.005,0 0.009,-0 0.014,-0c0.645,-0.022 1.022,-0.216 1.369,-0.441c0.389,-0.253 0.724,-0.566 1.614,-0.559l6.999,0c0.68,0.014 1.141,-0.429 1.315,-0.976c0.154,-0.484 0.067,-1.042 -0.269,-1.408c-0.226,-0.248 -0.567,-0.422 -1.043,-0.416l-7.005,0c-0.635,0.009 -0.959,-0.211 -1.283,-0.426c-0.436,-0.291 -0.871,-0.576 -1.712,-0.574c0.001,0 -4.999,0 -4.999,0c-0.221,0 -0.4,0.179 -0.4,0.4c0,0.221 0.179,0.4 0.4,0.4Z" style="fill:#ec1f27;"/><path d="M16.777,10l-0,3.866c-0,0.221 0.179,0.4 0.4,0.4c0.221,0 0.4,-0.179 0.4,-0.4l-0,-3.866c-0,-0.221 -0.179,-0.4 -0.4,-0.4c-0.221,-0 -0.4,0.179 -0.4,0.4Z" style="fill:#ec1f27;"/></svg>