<?xml version="1.0" encoding="UTF-8" standalone="no"?><!DOCTYPE svg PUBLIC "-//W3C//DTD SVG 1.1//EN" "http://www.w3.org/Graphics/SVG/1.1/DTD/svg11.dtd"><svg width="100%" height="100%" viewBox="0 0 36 36" version="1.1" xmlns="http://www.w3.org/2000/svg" xmlns:xlink="http://www.w3.org/1999/xlink" xml:space="preserve" xmlns:serif="http://www.serif.com/" style="fill-rule:evenodd;clip-rule:evenodd;stroke-linejoin:round;stroke-miterlimit:2;"><rect id="symbol-distribute" x="0" y="0" width="36" height="36" style="fill:none;"/><g id="bg-white"><circle cx="18" cy="18" r="18" style="fill:#fff;"/></g><path d="M12.5,8.1c-2.428,-0 -4.4,1.972 -4.4,4.4c-0,2.428 1.972,4.4 4.4,4.4c2.428,-0 4.4,-1.972 4.4,-4.4c0,-2.428 -1.972,-4.4 -4.4,-4.4Zm-0,0.8c1.987,-0 3.6,1.613 3.6,3.6c-0,1.987 -1.613,3.6 -3.6,3.6c-1.987,-0 -3.6,-1.613 -3.6,-3.6c0,-1.987 1.613,-3.6 3.6,-3.6Z" style="fill:#ec1f27;"/><path d="M24,19.6c-2.428,0 -4.4,1.972 -4.4,4.4c-0,2.428 1.972,4.4 4.4,4.4c2.428,-0 4.4,-1.972 4.4,-4.4c-0,-2.428 -1.972,-4.4 -4.4,-4.4Zm0,0.8c1.987,-0 3.6,1.613 3.6,3.6c-0,1.987 -1.613,3.6 -3.6,3.6c-1.987,0 -3.6,-1.613 -3.6,-3.6c-0,-1.987 1.613,-3.6 3.6,-3.6Z" style="fill:#ec1f27;"/><path d="M24.4,17.534l0,-2.531c0.016,-0.928 -0.216,-1.646 -0.686,-2.138c-0.47,-0.491 -1.192,-0.772 -2.215,-0.765c0,0 -3.499,0 -3.499,0c-0.221,-0 -0.4,0.179 -0.4,0.4c-0,0.221 0.179,0.4 0.4,0.4l3.503,-0c0.748,-0.005 1.29,0.159 1.633,0.519c0.344,0.359 0.476,0.895 0.464,1.574l0,2.541l-1.817,-1.817c-0.156,-0.156 -0.41,-0.156 -0.566,0c-0.156,0.156 -0.156,0.41 0,0.566l2.5,2.5l0.004,0.003l0.002,0.003l0.004,0.003l0.005,0.005l0.014,0.012c0.007,0.006 0.014,0.011 0.022,0.016l0.002,0.003c0.016,0.011 0.033,0.02 0.049,0.029l0.001,0c0.017,0.009 0.036,0.017 0.054,0.023l0.002,0c0.018,0.006 0.036,0.011 0.054,0.014l0.003,0l0.003,0.001c0.008,0.001 0.017,0.002 0.026,0.003l0.019,0.002l0.007,-0l0.003,-0l0.004,-0c0.008,0 0.016,-0 0.025,-0.001l0.018,-0.001l0.008,-0.001l0.003,-0l0.003,-0c0.018,-0.003 0.035,-0.006 0.053,-0.011l0.002,-0.001c0.018,-0.005 0.036,-0.011 0.054,-0.019l0.001,-0c0.017,-0.008 0.033,-0.016 0.05,-0.027l0.002,-0.001c0.015,-0.01 0.03,-0.021 0.044,-0.033l0.003,-0.002l0.002,-0.002l0.005,-0.004l0.015,-0.014c-0,-0 2.5,-2.5 2.5,-2.5l-0.566,-0.566l-1.817,1.817Z" style="fill:#ec1f27;"/><path d="M12.509,17.6l-0.004,0c-0.008,-0 -0.016,-0 -0.025,0l-0.018,0.002l-0.008,0.001l-0.003,-0l-0.003,0c-0.018,0.003 -0.035,0.006 -0.053,0.011l-0.002,0.001c-0.018,0.005 -0.036,0.011 -0.054,0.019l-0.001,-0c-0.017,0.008 -0.033,0.016 -0.05,0.026l-0.002,0.002c-0.015,0.01 -0.03,0.021 -0.044,0.033l-0.003,0.002l-0.002,0.002l-0.005,0.004l-0.015,0.014c0,0 -2.5,2.5 -2.5,2.5c-0.156,0.156 -0.156,0.41 0,0.566c0.078,0.078 0.181,0.117 0.283,0.117l0.019,-0.001c0.096,-0.004 0.191,-0.043 0.264,-0.116l1.817,-1.817c0,-0 -0,3.031 -0,3.031c-0.013,0.764 0.146,1.294 0.449,1.66c0.44,0.533 1.227,0.751 2.452,0.743c0,-0 3.499,-0 3.499,-0c0.221,-0 0.4,-0.179 0.4,-0.4c-0,-0.221 -0.179,-0.4 -0.4,-0.4l-3.503,-0c-0.49,0.003 -0.896,-0.025 -1.223,-0.11c-0.263,-0.068 -0.467,-0.171 -0.608,-0.342c-0.206,-0.25 -0.275,-0.62 -0.266,-1.141l-0,-3.041l1.817,1.817c0.156,0.156 0.41,0.156 0.566,-0c0.156,-0.156 0.156,-0.41 -0,-0.566l-2.5,-2.5l-0.004,-0.004l-0.002,-0.002l-0.004,-0.003l-0.005,-0.005l-0.014,-0.012c-0.007,-0.006 -0.014,-0.011 -0.022,-0.017l-0.002,-0.002c-0.016,-0.011 -0.033,-0.021 -0.049,-0.029l-0.001,-0c-0.017,-0.009 -0.036,-0.017 -0.054,-0.023l-0.002,-0c-0.018,-0.006 -0.036,-0.011 -0.054,-0.014l-0.003,-0l-0.003,-0.001c-0.008,-0.001 -0.017,-0.002 -0.026,-0.003l-0.019,-0.002l-0.007,0l-0.003,-0Z" style="fill:#ec1f27;"/></svg>