<?xml version="1.0" encoding="UTF-8" standalone="no"?><!DOCTYPE svg PUBLIC "-//W3C//DTD SVG 1.1//EN" "http://www.w3.org/Graphics/SVG/1.1/DTD/svg11.dtd"><svg width="100%" height="100%" viewBox="0 0 36 36" version="1.1" xmlns="http://www.w3.org/2000/svg" xmlns:xlink="http://www.w3.org/1999/xlink" xml:space="preserve" xmlns:serif="http://www.serif.com/" style="fill-rule:evenodd;clip-rule:evenodd;stroke-linejoin:round;stroke-miterlimit:2;"><rect id="symbol-equality" x="0" y="0" width="36" height="36" style="fill:none;"/><g id="bg-white"><circle cx="18" cy="18" r="18" style="fill:#fff;"/></g><path d="M29.35,11.5c0,-1.021 -0.829,-1.85 -1.85,-1.85l-19,-0c-1.021,-0 -1.85,0.829 -1.85,1.85c0,-0 0,3 0,3c0,1.021 0.829,1.85 1.85,1.85l19,0c1.021,0 1.85,-0.829 1.85,-1.85c0,0 0,-3 0,-3Zm-0.7,0l0,3c0,0.635 -0.515,1.15 -1.15,1.15c-0,-0 -19,-0 -19,-0c-0.635,-0 -1.15,-0.515 -1.15,-1.15l0,-3c0,-0.635 0.515,-1.15 1.15,-1.15c0,0 19,0 19,0c0.635,0 1.15,0.515 1.15,1.15Z" style="fill:#ec1f27;"/><path d="M29.35,21.5c0,-1.021 -0.829,-1.85 -1.85,-1.85l-19,-0c-1.021,-0 -1.85,0.829 -1.85,1.85c0,-0 0,3 0,3c0,1.021 0.829,1.85 1.85,1.85l19,0c1.021,0 1.85,-0.829 1.85,-1.85c0,0 0,-3 0,-3Zm-0.7,0l0,3c0,0.635 -0.515,1.15 -1.15,1.15c-0,-0 -19,-0 -19,-0c-0.635,-0 -1.15,-0.515 -1.15,-1.15l0,-3c0,-0.635 0.515,-1.15 1.15,-1.15c0,0 19,0 19,0c0.635,0 1.15,0.515 1.15,1.15Z" style="fill:#ec1f27;"/></svg>