<?xml version="1.0" encoding="UTF-8" standalone="no"?><!DOCTYPE svg PUBLIC "-//W3C//DTD SVG 1.1//EN" "http://www.w3.org/Graphics/SVG/1.1/DTD/svg11.dtd"><svg width="100%" height="100%" viewBox="0 0 36 36" version="1.1" xmlns="http://www.w3.org/2000/svg" xmlns:xlink="http://www.w3.org/1999/xlink" xml:space="preserve" xmlns:serif="http://www.serif.com/" style="fill-rule:evenodd;clip-rule:evenodd;stroke-linejoin:round;stroke-miterlimit:2;"><rect id="tent" x="0" y="0" width="36" height="36" style="fill:none;"/><g id="bg-white"><circle cx="18" cy="18" r="18" style="fill:#fff;"/></g><path d="M5.642,23.821c-0.062,0.124 -0.055,0.271 0.018,0.389c0.073,0.118 0.201,0.19 0.34,0.19l12,0c0.152,0 0.29,-0.086 0.358,-0.221l6,-12c0.062,-0.124 0.055,-0.271 -0.018,-0.389c-0.073,-0.118 -0.201,-0.19 -0.34,-0.19l-12,0c-0.152,0 -0.29,0.086 -0.358,0.221l-6,12Zm1.005,-0.221l5.6,-11.2c0,0 11.106,0 11.106,0c-0,-0 -5.6,11.2 -5.6,11.2l-11.106,0Z" style="fill:#ec1f27;"/><path d="M23.642,12.179l5.711,11.421c-0,0 -11.353,0 -11.353,0c-0.221,0 -0.4,0.179 -0.4,0.4c0,0.221 0.179,0.4 0.4,0.4l12,-0c0.139,-0 0.267,-0.072 0.34,-0.19c0.073,-0.118 0.08,-0.265 0.018,-0.389l-6,-12c-0.099,-0.197 -0.339,-0.278 -0.537,-0.179c-0.197,0.099 -0.278,0.339 -0.179,0.537Z" style="fill:#ec1f27;"/><path d="M23.6,12l-0,11.761c0,0.221 0.179,0.4 0.4,0.4c0.221,0 0.4,-0.179 0.4,-0.4l-0,-11.761c0,-0.221 -0.179,-0.4 -0.4,-0.4c-0.221,-0 -0.4,0.179 -0.4,0.4Z" style="fill:#ec1f27;"/><path d="M23.617,11.885l-3,10c-0.036,0.121 -0.013,0.252 0.062,0.353c0.075,0.102 0.194,0.162 0.32,0.162c0.821,0.002 1.394,0.164 1.807,0.446c0.4,0.274 0.642,0.656 0.828,1.077c0.09,0.202 0.326,0.293 0.528,0.204c0.202,-0.09 0.293,-0.326 0.204,-0.528c-0.246,-0.556 -0.58,-1.052 -1.109,-1.413c-0.423,-0.289 -0.976,-0.496 -1.726,-0.563c-0,0 2.852,-9.508 2.852,-9.508c0.064,-0.212 -0.057,-0.435 -0.268,-0.498c-0.212,-0.064 -0.435,0.057 -0.498,0.268Z" style="fill:#ec1f27;"/></svg>