<?xml version="1.0" encoding="UTF-8" standalone="no"?><!DOCTYPE svg PUBLIC "-//W3C//DTD SVG 1.1//EN" "http://www.w3.org/Graphics/SVG/1.1/DTD/svg11.dtd"><svg width="100%" height="100%" viewBox="0 0 36 36" version="1.1" xmlns="http://www.w3.org/2000/svg" xmlns:xlink="http://www.w3.org/1999/xlink" xml:space="preserve" xmlns:serif="http://www.serif.com/" style="fill-rule:evenodd;clip-rule:evenodd;stroke-linejoin:round;stroke-miterlimit:2;"><rect id="testify" x="0" y="0" width="36" height="36" style="fill:none;"/><g id="bg-white"><circle cx="18" cy="18" r="18" style="fill:#fff;"/></g><path d="M16.9,15.75c0,-0.911 -0.739,-1.65 -1.65,-1.65l-3.5,0c-0.911,0 -1.65,0.739 -1.65,1.65c0,0 0,4.25 0,4.25c0,0.221 0.179,0.4 0.4,0.4l6,-0c0.221,0 0.4,-0.179 0.4,-0.4l0,-4.25Zm-0.8,0l0,3.85c-0,0 -5.2,0 -5.2,0c0,0 0,-3.85 0,-3.85c0,-0.469 0.381,-0.85 0.85,-0.85c-0,-0 3.5,-0 3.5,-0c0.469,-0 0.85,0.381 0.85,0.85Z" style="fill:#ec1f27;"/><path d="M11.3,25.4c0.331,-0 0.6,-0.269 0.6,-0.6l-0,-2.6c-0,-0.331 -0.269,-0.6 -0.6,-0.6c0,0 -1.6,0 -1.6,0c-0.331,0 -0.6,0.269 -0.6,0.6c-0,0 -0,2.6 -0,2.6c-0,0.331 0.269,0.6 0.6,0.6c0,-0 1.6,-0 1.6,-0Zm-1.4,-3l-0,2.2l1.2,0l-0,-2.2l-1.2,0Z" style="fill:#ec1f27;"/><path d="M26.3,25.4c0.331,-0 0.6,-0.269 0.6,-0.6l-0,-2.6c-0,-0.331 -0.269,-0.6 -0.6,-0.6c0,0 -1.6,0 -1.6,0c-0.331,0 -0.6,0.269 -0.6,0.6c-0,0 -0,2.6 -0,2.6c-0,0.331 0.269,0.6 0.6,0.6c0,-0 1.6,-0 1.6,-0Zm-1.4,-3l-0,2.2l1.2,0l-0,-2.2l-1.2,0Z" style="fill:#ec1f27;"/><path d="M29.4,20.2c-0,-0.331 -0.269,-0.6 -0.6,-0.6c0,0 -21.6,0 -21.6,0c-0.331,0 -0.6,0.269 -0.6,0.6l0,1.6c0,0.331 0.269,0.6 0.6,0.6l21.6,-0c0.331,-0 0.6,-0.269 0.6,-0.6l-0,-1.6Zm-22,0.2l-0,1.2l21.2,0l0,-1.2l-21.2,-0Z" style="fill:#ec1f27;"/><path d="M13.5,10.1c-1.325,0 -2.4,1.075 -2.4,2.4c0,1.325 1.075,2.4 2.4,2.4c1.325,-0 2.4,-1.075 2.4,-2.4c0,-1.325 -1.075,-2.4 -2.4,-2.4Zm0,0.8c0.883,-0 1.6,0.717 1.6,1.6c0,0.883 -0.717,1.6 -1.6,1.6c-0.883,0 -1.6,-0.717 -1.6,-1.6c0,-0.883 0.717,-1.6 1.6,-1.6Z" style="fill:#ec1f27;"/><path d="M25.9,15.75c-0,-0.911 -0.739,-1.65 -1.65,-1.65l-3.5,0c-0.911,0 -1.65,0.739 -1.65,1.65c-0,0 -0,4.25 -0,4.25c-0,0.221 0.179,0.4 0.4,0.4l6,-0c0.221,0 0.4,-0.179 0.4,-0.4l-0,-4.25Zm-0.8,0l0,3.85c-0,0 -5.2,0 -5.2,0c-0,0 -0,-3.85 -0,-3.85c-0,-0.469 0.381,-0.85 0.85,-0.85c-0,-0 3.5,-0 3.5,-0c0.469,-0 0.85,0.381 0.85,0.85Z" style="fill:#ec1f27;"/><path d="M22.5,10.1c-1.325,0 -2.4,1.075 -2.4,2.4c0,1.325 1.075,2.4 2.4,2.4c1.325,-0 2.4,-1.075 2.4,-2.4c0,-1.325 -1.075,-2.4 -2.4,-2.4Zm0,0.8c0.883,-0 1.6,0.717 1.6,1.6c0,0.883 -0.717,1.6 -1.6,1.6c-0.883,0 -1.6,-0.717 -1.6,-1.6c0,-0.883 0.717,-1.6 1.6,-1.6Z" style="fill:#ec1f27;"/><path d="M13.9,19l0,-1.75c0,-0.221 -0.179,-0.4 -0.4,-0.4c-0.221,-0 -0.4,0.179 -0.4,0.4l0,1.75c0,0.221 0.179,0.4 0.4,0.4c0.221,-0 0.4,-0.179 0.4,-0.4Z" style="fill:#ec1f27;"/><circle cx="13.5" cy="16.75" r="0.5" style="fill:#ec1f27;"/><path d="M13.5,15.85c-0.497,0 -0.9,0.403 -0.9,0.9c-0,0.497 0.403,0.9 0.9,0.9c0.497,-0 0.9,-0.403 0.9,-0.9c0,-0.497 -0.403,-0.9 -0.9,-0.9Zm0,0.8c0.055,-0 0.1,0.045 0.1,0.1c-0,0.055 -0.045,0.1 -0.1,0.1c-0.055,0 -0.1,-0.045 -0.1,-0.1c0,-0.055 0.045,-0.1 0.1,-0.1Z" style="fill:#ec1f27;"/><path d="M15.4,19.25c0,-0.359 -0.291,-0.65 -0.65,-0.65c-0,0 -2.5,0 -2.5,0c-0.359,0 -0.65,0.291 -0.65,0.65l0,0.5c0,0.359 0.291,0.65 0.65,0.65l2.5,-0c0.359,-0 0.65,-0.291 0.65,-0.65c0,0 0,-0.5 0,-0.5Zm-3,0.15l0,0.2l2.2,0l-0,-0.2l-2.2,-0Z" style="fill:#ec1f27;"/></svg>