<?xml version="1.0" encoding="UTF-8" standalone="no"?><!DOCTYPE svg PUBLIC "-//W3C//DTD SVG 1.1//EN" "http://www.w3.org/Graphics/SVG/1.1/DTD/svg11.dtd"><svg width="100%" height="100%" viewBox="0 0 36 36" version="1.1" xmlns="http://www.w3.org/2000/svg" xmlns:xlink="http://www.w3.org/1999/xlink" xml:space="preserve" xmlns:serif="http://www.serif.com/" style="fill-rule:evenodd;clip-rule:evenodd;stroke-linejoin:round;stroke-miterlimit:2;"><rect id="tomato" x="0" y="0" width="36" height="36" style="fill:none;"/><g id="bg-white"><circle cx="18" cy="18" r="18" style="fill:#fff;"/></g><path d="M9.4,16.99c-0.014,-0.536 0.217,-1.087 0.872,-1.697c0.162,-0.151 0.171,-0.404 0.021,-0.565c-0.151,-0.162 -0.404,-0.171 -0.565,-0.021c-0.881,0.82 -1.146,1.583 -1.128,2.303c0.006,0.221 0.189,0.395 0.41,0.39c0.221,-0.006 0.395,-0.189 0.39,-0.41Z" style="fill:#ec1f27;"/><path d="M8.615,19.107c1.33,4.791 4.254,7.001 8.357,7.292c0.22,0.016 0.411,-0.151 0.427,-0.371c0.016,-0.22 -0.151,-0.411 -0.371,-0.427c-3.761,-0.267 -6.423,-2.315 -7.643,-6.708c-0.059,-0.213 -0.279,-0.337 -0.492,-0.278c-0.213,0.059 -0.337,0.279 -0.278,0.492Z" style="fill:#ec1f27;"/><path d="M22.902,11.388c2.405,0.61 4.083,1.915 4.991,3.645c0.912,1.739 1.048,3.898 0.4,6.187c-1.218,4.305 -5.684,6.964 -10.231,6.271c-0.04,-0.007 -0.081,-0.007 -0.12,-0c-4.548,0.693 -9.014,-1.966 -10.232,-6.271c-0.647,-2.289 -0.513,-4.448 0.399,-6.187c0.907,-1.73 2.584,-3.035 4.989,-3.645c0.214,-0.055 0.344,-0.272 0.29,-0.486c-0.055,-0.214 -0.272,-0.344 -0.486,-0.29c-2.659,0.675 -4.499,2.137 -5.502,4.05c-0.998,1.905 -1.169,4.268 -0.459,6.776c1.32,4.666 6.134,7.575 11.062,6.852c4.926,0.722 9.74,-2.187 11.06,-6.852c0.709,-2.508 0.538,-4.871 -0.462,-6.776c-1.004,-1.913 -2.844,-3.375 -5.503,-4.05c-0.214,-0.054 -0.431,0.076 -0.486,0.29c-0.054,0.214 0.076,0.431 0.29,0.486Z" style="fill:#ec1f27;"/><path d="M18.5,8c0.276,0 0.5,0.256 0.5,0.571l0,1.429c1.858,-0.397 3.098,0.066 4,1c-1.107,-0.228 -1.781,0.003 -2,0.714l0,2.286c-0.52,-2.534 -5.345,-2.384 -6,0l0,-2.286c-0.296,-0.852 -1.02,-0.996 -2,-0.714c0.812,-0.982 2.183,-1.269 4,-1l0,-1.429c0,-0.315 0.224,-0.571 0.5,-0.571l1,0Z" style="fill:#ec1f27;"/><path d="M18.5,7.6l-1,0c-0.481,0 -0.9,0.421 -0.9,0.971c-0,0 -0,0.976 -0,0.976c-1.761,-0.176 -3.089,0.207 -3.908,1.198c-0.112,0.135 -0.123,0.327 -0.027,0.474c0.097,0.147 0.277,0.214 0.446,0.165c0.466,-0.134 0.858,-0.176 1.149,-0.019c0.15,0.082 0.261,0.222 0.34,0.42c-0,0.001 -0,2.215 -0,2.215c0,0.2 0.148,0.37 0.347,0.396c0.198,0.027 0.386,-0.097 0.439,-0.29c0.283,-1.033 1.498,-1.534 2.67,-1.55c1.157,-0.016 2.33,0.442 2.552,1.524c0.041,0.201 0.228,0.339 0.432,0.318c0.205,-0.021 0.36,-0.193 0.36,-0.398l0,-2.22c0.184,-0.489 0.714,-0.554 1.519,-0.388c0.172,0.035 0.347,-0.046 0.431,-0.199c0.085,-0.154 0.06,-0.345 -0.062,-0.471c-0.907,-0.938 -2.121,-1.459 -3.888,-1.201c0,0 0,-0.95 0,-0.95c0,-0.55 -0.419,-0.971 -0.9,-0.971Zm0,0.8c0.072,0 0.1,0.089 0.1,0.171l-0,1.429c-0,0.121 0.055,0.235 0.148,0.311c0.094,0.076 0.218,0.105 0.336,0.08c1.096,-0.234 1.956,-0.146 2.649,0.177c-0.58,0.128 -0.947,0.483 -1.115,1.029c-0.012,0.038 -0.018,0.077 -0.018,0.117l-0,0.868c-0.648,-0.561 -1.591,-0.839 -2.555,-0.826c-0.987,0.014 -1.97,0.335 -2.645,0.922c0,0.001 0,-0.964 0,-0.964c0,-0.044 -0.008,-0.089 -0.022,-0.131c-0.157,-0.452 -0.414,-0.746 -0.737,-0.921c-0.098,-0.053 -0.203,-0.095 -0.315,-0.126c0.693,-0.266 1.576,-0.294 2.615,-0.14c0.115,0.017 0.232,-0.017 0.32,-0.093c0.088,-0.076 0.139,-0.187 0.139,-0.303l0,-1.429c0,-0.082 0.028,-0.171 0.1,-0.171l1,0Z" style="fill:#ec1f27;"/></svg>