<?xml version="1.0" encoding="UTF-8" standalone="no"?><!DOCTYPE svg PUBLIC "-//W3C//DTD SVG 1.1//EN" "http://www.w3.org/Graphics/SVG/1.1/DTD/svg11.dtd"><svg width="100%" height="100%" viewBox="0 0 36 36" version="1.1" xmlns="http://www.w3.org/2000/svg" xmlns:xlink="http://www.w3.org/1999/xlink" xml:space="preserve" xmlns:serif="http://www.serif.com/" style="fill-rule:evenodd;clip-rule:evenodd;stroke-linejoin:round;stroke-miterlimit:2;"><rect id="tree" x="0" y="0" width="36" height="36" style="fill:none;"/><g><circle cx="18" cy="18" r="18" style="fill:#fff;"/></g><path d="M17.625,20l0,10c0,0.207 0.168,0.375 0.375,0.375c0.207,-0 0.375,-0.168 0.375,-0.375l0,-10c0,-0.207 -0.168,-0.375 -0.375,-0.375c-0.207,-0 -0.375,0.168 -0.375,0.375Z" style="fill:#ec1f27;"/><path d="M18.354,5.876c-0.053,-0.15 -0.195,-0.251 -0.354,-0.251c-0.159,-0 -0.301,0.101 -0.354,0.251l-7,20c-0.04,0.115 -0.022,0.242 0.048,0.341c0.07,0.099 0.184,0.158 0.306,0.158l14,-0c0.122,-0 0.236,-0.059 0.306,-0.158c0.07,-0.099 0.088,-0.226 0.048,-0.341l-7,-20Zm-0.354,1.259l6.471,18.49c0,0 -12.942,0 -12.942,0l6.471,-18.49Z" style="fill:#ec1f27;"/></svg>