<?xml version="1.0" encoding="UTF-8" standalone="no"?><!DOCTYPE svg PUBLIC "-//W3C//DTD SVG 1.1//EN" "http://www.w3.org/Graphics/SVG/1.1/DTD/svg11.dtd"><svg width="100%" height="100%" viewBox="0 0 36 36" version="1.1" xmlns="http://www.w3.org/2000/svg" xmlns:xlink="http://www.w3.org/1999/xlink" xml:space="preserve" xmlns:serif="http://www.serif.com/" style="fill-rule:evenodd;clip-rule:evenodd;stroke-linejoin:round;stroke-miterlimit:2;"><rect id="typewriter" x="0" y="0" width="36" height="36" style="fill:none;"/><g id="bg-white"><circle cx="18" cy="18" r="18" style="fill:#fff;"/></g><path d="M28,28.9c0.221,0 0.4,-0.179 0.4,-0.4l0,-14c0,-0.221 -0.179,-0.4 -0.4,-0.4l-20,0c-0.221,0 -0.4,0.179 -0.4,0.4l0,14c0,0.221 0.179,0.4 0.4,0.4l20,0Zm-0.4,-0.8l-19.2,0c-0,-0 -0,-13.2 -0,-13.2c-0,0 19.2,0 19.2,0l0,13.2Z" style="fill:#ec1f27;"/><path d="M12.6,13c-0,0.221 0.179,0.4 0.4,0.4l10,0c0.221,0 0.4,-0.179 0.4,-0.4l0,-6c0,-0.221 -0.179,-0.4 -0.4,-0.4l-10,0c-0.221,0 -0.4,0.179 -0.4,0.4l-0,6Zm0.8,-0.4l-0,-5.2c0,-0 9.2,-0 9.2,-0c-0,0 -0,5.2 -0,5.2l-9.2,-0Z" style="fill:#ec1f27;"/><path d="M8,27.4l20,-0c0.221,-0 0.4,-0.179 0.4,-0.4c-0,-0.221 -0.179,-0.4 -0.4,-0.4l-20,0c-0.221,-0 -0.4,0.179 -0.4,0.4c-0,0.221 0.179,0.4 0.4,0.4Z" style="fill:#ec1f27;"/><path d="M11,15.6c-0.773,0 -1.4,0.627 -1.4,1.4c0,0.773 0.627,1.4 1.4,1.4c0.773,-0 1.4,-0.627 1.4,-1.4c0,-0.773 -0.627,-1.4 -1.4,-1.4Zm0,0.8c0.331,-0 0.6,0.269 0.6,0.6c0,0.331 -0.269,0.6 -0.6,0.6c-0.331,0 -0.6,-0.269 -0.6,-0.6c0,-0.331 0.269,-0.6 0.6,-0.6Z" style="fill:#ec1f27;"/><path d="M11,19.1c-0.773,0 -1.4,0.627 -1.4,1.4c0,0.773 0.627,1.4 1.4,1.4c0.773,-0 1.4,-0.627 1.4,-1.4c0,-0.773 -0.627,-1.4 -1.4,-1.4Zm0,0.8c0.331,-0 0.6,0.269 0.6,0.6c0,0.331 -0.269,0.6 -0.6,0.6c-0.331,0 -0.6,-0.269 -0.6,-0.6c0,-0.331 0.269,-0.6 0.6,-0.6Z" style="fill:#ec1f27;"/><path d="M11,22.6c-0.773,0 -1.4,0.627 -1.4,1.4c0,0.773 0.627,1.4 1.4,1.4c0.773,-0 1.4,-0.627 1.4,-1.4c0,-0.773 -0.627,-1.4 -1.4,-1.4Zm0,0.8c0.331,-0 0.6,0.269 0.6,0.6c0,0.331 -0.269,0.6 -0.6,0.6c-0.331,0 -0.6,-0.269 -0.6,-0.6c0,-0.331 0.269,-0.6 0.6,-0.6Z" style="fill:#ec1f27;"/><path d="M11.5,13.4l13,0c0.221,0 0.4,-0.179 0.4,-0.4c0,-0.221 -0.179,-0.4 -0.4,-0.4l-13,0c-0.221,0 -0.4,0.179 -0.4,0.4c0,0.221 0.179,0.4 0.4,0.4Z" style="fill:#ec1f27;"/><path d="M14.5,15.6c-0.773,0 -1.4,0.627 -1.4,1.4c0,0.773 0.627,1.4 1.4,1.4c0.773,-0 1.4,-0.627 1.4,-1.4c0,-0.773 -0.627,-1.4 -1.4,-1.4Zm0,0.8c0.331,-0 0.6,0.269 0.6,0.6c0,0.331 -0.269,0.6 -0.6,0.6c-0.331,0 -0.6,-0.269 -0.6,-0.6c0,-0.331 0.269,-0.6 0.6,-0.6Z" style="fill:#ec1f27;"/><path d="M14.5,19.1c-0.773,0 -1.4,0.627 -1.4,1.4c0,0.773 0.627,1.4 1.4,1.4c0.773,-0 1.4,-0.627 1.4,-1.4c0,-0.773 -0.627,-1.4 -1.4,-1.4Zm0,0.8c0.331,-0 0.6,0.269 0.6,0.6c0,0.331 -0.269,0.6 -0.6,0.6c-0.331,0 -0.6,-0.269 -0.6,-0.6c0,-0.331 0.269,-0.6 0.6,-0.6Z" style="fill:#ec1f27;"/><path d="M18,15.6c-0.773,0 -1.4,0.627 -1.4,1.4c0,0.773 0.627,1.4 1.4,1.4c0.773,-0 1.4,-0.627 1.4,-1.4c0,-0.773 -0.627,-1.4 -1.4,-1.4Zm0,0.8c0.331,-0 0.6,0.269 0.6,0.6c0,0.331 -0.269,0.6 -0.6,0.6c-0.331,0 -0.6,-0.269 -0.6,-0.6c0,-0.331 0.269,-0.6 0.6,-0.6Z" style="fill:#ec1f27;"/><path d="M18,19.1c-0.773,0 -1.4,0.627 -1.4,1.4c0,0.773 0.627,1.4 1.4,1.4c0.773,-0 1.4,-0.627 1.4,-1.4c0,-0.773 -0.627,-1.4 -1.4,-1.4Zm0,0.8c0.331,-0 0.6,0.269 0.6,0.6c0,0.331 -0.269,0.6 -0.6,0.6c-0.331,0 -0.6,-0.269 -0.6,-0.6c0,-0.331 0.269,-0.6 0.6,-0.6Z" style="fill:#ec1f27;"/><path d="M21.5,15.6c-0.773,0 -1.4,0.627 -1.4,1.4c0,0.773 0.627,1.4 1.4,1.4c0.773,-0 1.4,-0.627 1.4,-1.4c0,-0.773 -0.627,-1.4 -1.4,-1.4Zm0,0.8c0.331,-0 0.6,0.269 0.6,0.6c0,0.331 -0.269,0.6 -0.6,0.6c-0.331,0 -0.6,-0.269 -0.6,-0.6c0,-0.331 0.269,-0.6 0.6,-0.6Z" style="fill:#ec1f27;"/><path d="M21.5,19.1c-0.773,0 -1.4,0.627 -1.4,1.4c0,0.773 0.627,1.4 1.4,1.4c0.773,-0 1.4,-0.627 1.4,-1.4c0,-0.773 -0.627,-1.4 -1.4,-1.4Zm0,0.8c0.331,-0 0.6,0.269 0.6,0.6c0,0.331 -0.269,0.6 -0.6,0.6c-0.331,0 -0.6,-0.269 -0.6,-0.6c0,-0.331 0.269,-0.6 0.6,-0.6Z" style="fill:#ec1f27;"/><path d="M25,15.6c-0.773,0 -1.4,0.627 -1.4,1.4c0,0.773 0.627,1.4 1.4,1.4c0.773,-0 1.4,-0.627 1.4,-1.4c0,-0.773 -0.627,-1.4 -1.4,-1.4Zm0,0.8c0.331,-0 0.6,0.269 0.6,0.6c0,0.331 -0.269,0.6 -0.6,0.6c-0.331,0 -0.6,-0.269 -0.6,-0.6c0,-0.331 0.269,-0.6 0.6,-0.6Z" style="fill:#ec1f27;"/><path d="M25,19.1c-0.773,0 -1.4,0.627 -1.4,1.4c0,0.773 0.627,1.4 1.4,1.4c0.773,-0 1.4,-0.627 1.4,-1.4c0,-0.773 -0.627,-1.4 -1.4,-1.4Zm0,0.8c0.331,-0 0.6,0.269 0.6,0.6c0,0.331 -0.269,0.6 -0.6,0.6c-0.331,0 -0.6,-0.269 -0.6,-0.6c0,-0.331 0.269,-0.6 0.6,-0.6Z" style="fill:#ec1f27;"/><path d="M25,22.6c-0.773,0 -1.4,0.627 -1.4,1.4c0,0.773 0.627,1.4 1.4,1.4c0.773,-0 1.4,-0.627 1.4,-1.4c0,-0.773 -0.627,-1.4 -1.4,-1.4Zm0,0.8c0.331,-0 0.6,0.269 0.6,0.6c0,0.331 -0.269,0.6 -0.6,0.6c-0.331,0 -0.6,-0.269 -0.6,-0.6c0,-0.331 0.269,-0.6 0.6,-0.6Z" style="fill:#ec1f27;"/><path d="M9.6,14.5c0,0.221 0.179,0.4 0.4,0.4l1.5,-0c0.221,0 0.4,-0.179 0.4,-0.4l0,-3c0,-0.221 -0.179,-0.4 -0.4,-0.4l-1.5,0c-0.221,0 -0.4,0.179 -0.4,0.4l0,3Zm0.8,-0.4l0,-2.2c-0,-0 0.7,-0 0.7,-0c0,0 0,2.2 0,2.2l-0.7,-0Z" style="fill:#ec1f27;"/><path d="M24.1,14.5c0,0.221 0.179,0.4 0.4,0.4l1.5,-0c0.221,0 0.4,-0.179 0.4,-0.4l0,-3c0,-0.221 -0.179,-0.4 -0.4,-0.4l-1.5,0c-0.221,0 -0.4,0.179 -0.4,0.4l0,3Zm0.8,-0.4l-0,-2.2c-0,-0 0.7,-0 0.7,-0c0,0 0,2.2 0,2.2l-0.7,-0Z" style="fill:#ec1f27;"/><path d="M15,8.9l6,-0c0.221,-0 0.4,-0.179 0.4,-0.4c-0,-0.221 -0.179,-0.4 -0.4,-0.4l-6,0c-0.221,-0 -0.4,0.179 -0.4,0.4c-0,0.221 0.179,0.4 0.4,0.4Z" style="fill:#ec1f27;"/><path d="M15,10.4l6,-0c0.221,-0 0.4,-0.179 0.4,-0.4c-0,-0.221 -0.179,-0.4 -0.4,-0.4l-6,0c-0.221,-0 -0.4,0.179 -0.4,0.4c-0,0.221 0.179,0.4 0.4,0.4Z" style="fill:#ec1f27;"/><path d="M15,11.9l6,-0c0.221,0 0.4,-0.179 0.4,-0.4c0,-0.221 -0.179,-0.4 -0.4,-0.4l-6,0c-0.221,0 -0.4,0.179 -0.4,0.4c0,0.221 0.179,0.4 0.4,0.4Z" style="fill:#ec1f27;"/><path d="M10.4,10c0,-0.221 -0.179,-0.4 -0.4,-0.4l-2,0c-0.221,0 -0.4,0.179 -0.4,0.4l0,3c0,0.221 0.179,0.4 0.4,0.4l2,0c0.221,0 0.4,-0.179 0.4,-0.4l0,-3Zm-0.8,0.4l0,2.2c0,0 -1.2,0 -1.2,0c0,-0 0,-2.2 0,-2.2l1.2,0Z" style="fill:#ec1f27;"/><path d="M28.4,10c-0,-0.221 -0.179,-0.4 -0.4,-0.4l-2,0c-0.221,0 -0.4,0.179 -0.4,0.4l-0,3c-0,0.221 0.179,0.4 0.4,0.4l2,0c0.221,0 0.4,-0.179 0.4,-0.4l-0,-3Zm-0.8,0.4l0,2.2c0,0 -1.2,0 -1.2,0c-0,-0 -0,-2.2 -0,-2.2l1.2,0Z" style="fill:#ec1f27;"/><path d="M22.9,24c-0,-0.773 -0.627,-1.4 -1.4,-1.4c-0,0 -7,0 -7,0c-0.773,0 -1.4,0.627 -1.4,1.4c-0,0.773 0.627,1.4 1.4,1.4l7,-0c0.773,-0 1.4,-0.627 1.4,-1.4Zm-0.8,0c0,0.331 -0.269,0.6 -0.6,0.6c-0,0 -7,0 -7,0c-0.331,0 -0.6,-0.269 -0.6,-0.6c0,-0.331 0.269,-0.6 0.6,-0.6l7,-0c0.331,-0 0.6,0.269 0.6,0.6Z" style="fill:#ec1f27;"/></svg>