<?xml version="1.0" encoding="UTF-8" standalone="no"?><!DOCTYPE svg PUBLIC "-//W3C//DTD SVG 1.1//EN" "http://www.w3.org/Graphics/SVG/1.1/DTD/svg11.dtd"><svg width="100%" height="100%" viewBox="0 0 36 36" version="1.1" xmlns="http://www.w3.org/2000/svg" xmlns:xlink="http://www.w3.org/1999/xlink" xml:space="preserve" xmlns:serif="http://www.serif.com/" style="fill-rule:evenodd;clip-rule:evenodd;stroke-linejoin:round;stroke-miterlimit:2;"><rect id="x-ray" x="0" y="0" width="36" height="36" style="fill:none;"/><g><circle cx="18" cy="18" r="18" style="fill:#fff;"/></g><path d="M27.375,10.5c0,-2.691 -2.184,-4.875 -4.875,-4.875l-9,0c-2.691,0 -4.875,2.184 -4.875,4.875c0,-0 0,15 0,15c0,2.691 2.184,4.875 4.875,4.875l9,0c2.691,0 4.875,-2.184 4.875,-4.875l0,-15Zm-0.75,-0l0,15c0,2.277 -1.848,4.125 -4.125,4.125c0,0 -9,0 -9,0c-2.277,0 -4.125,-1.848 -4.125,-4.125l0,-15c0,-2.277 1.848,-4.125 4.125,-4.125c-0,0 9,0 9,0c2.277,0 4.125,1.848 4.125,4.125Z" style="fill:#ec1f27;"/><path d="M16,7.625c-0.207,0 -0.375,0.168 -0.375,0.375l-0,3.736c-0.287,0.114 -0.755,0.331 -1.16,0.664c-0.466,0.385 -0.84,0.918 -0.84,1.6c0,1.667 1.242,2.372 2.374,2.375c0.25,0.001 0.572,-0.098 0.896,-0.251c0.419,-0.198 0.848,-0.481 1.102,-0.659c0.255,0.183 0.687,0.474 1.109,0.673c0.329,0.155 0.657,0.249 0.912,0.237c0.535,-0.026 1.13,-0.29 1.586,-0.713c0.466,-0.431 0.782,-1.023 0.771,-1.668c-0.012,-0.718 -0.391,-1.253 -0.853,-1.63c-0.4,-0.327 -0.86,-0.53 -1.147,-0.636c-0,0.001 -0,-3.728 -0,-3.728c0,-0.207 -0.168,-0.375 -0.375,-0.375l-4,0Zm0.375,0.75l3.25,0c-0,-0 -0,3.625 -0,3.625c0,0.171 0.115,0.32 0.28,0.363c0,-0 0.632,0.165 1.143,0.582c0.303,0.248 0.569,0.59 0.577,1.061c0.007,0.431 -0.22,0.818 -0.531,1.106c-0.321,0.298 -0.735,0.495 -1.112,0.513c-0.222,0.011 -0.518,-0.135 -0.801,-0.291c-0.5,-0.276 -0.949,-0.629 -0.949,-0.629c-0.135,-0.105 -0.324,-0.107 -0.46,-0.003c0,-0 -0.45,0.343 -0.951,0.618c-0.29,0.158 -0.593,0.306 -0.82,0.305c-0.775,-0.002 -1.626,-0.484 -1.626,-1.625c0,-0.441 0.266,-0.773 0.568,-1.021c0.517,-0.427 1.164,-0.62 1.164,-0.62c0.159,-0.047 0.268,-0.193 0.268,-0.359l-0,-3.625Z" style="fill:#ec1f27;"/><path d="M20,28.375c0.207,0 0.375,-0.168 0.375,-0.375l0,-3.736c0.287,-0.114 0.756,-0.331 1.16,-0.664c0.466,-0.385 0.84,-0.918 0.84,-1.6c0,-1.667 -1.242,-2.372 -2.374,-2.375c-0.25,-0.001 -0.572,0.098 -0.896,0.251c-0.419,0.198 -0.848,0.481 -1.102,0.659c-0.255,-0.183 -0.686,-0.474 -1.108,-0.673c-0.33,-0.155 -0.658,-0.249 -0.913,-0.237c-0.535,0.026 -1.13,0.29 -1.586,0.713c-0.465,0.431 -0.782,1.023 -0.771,1.668c0.013,0.718 0.391,1.253 0.853,1.63c0.4,0.327 0.86,0.53 1.147,0.636c0,-0.001 0,3.728 0,3.728c0,0.207 0.168,0.375 0.375,0.375l4,0Zm-0.375,-0.75l-3.25,0c0,0 0,-3.625 0,-3.625c0,-0.171 -0.115,-0.32 -0.28,-0.363c-0,0 -0.632,-0.165 -1.143,-0.582c-0.303,-0.248 -0.569,-0.59 -0.577,-1.061c-0.007,-0.431 0.22,-0.818 0.531,-1.106c0.321,-0.298 0.735,-0.495 1.112,-0.513c0.222,-0.011 0.518,0.135 0.802,0.291c0.5,0.276 0.948,0.629 0.948,0.629c0.135,0.105 0.324,0.107 0.46,0.003c-0,0 0.45,-0.343 0.951,-0.618c0.29,-0.158 0.593,-0.306 0.82,-0.305c0.775,0.002 1.626,0.484 1.626,1.625c0,0.441 -0.266,0.773 -0.567,1.021c-0.518,0.427 -1.165,0.62 -1.165,0.62c-0.159,0.047 -0.268,0.193 -0.268,0.359l0,3.625Z" style="fill:#ec1f27;"/><path d="M25.375,11.5c0,-2.139 -1.736,-3.875 -3.875,-3.875c0,-0 -7,-0 -7,-0c-2.139,-0 -3.875,1.736 -3.875,3.875l0,13c0,2.139 1.736,3.875 3.875,3.875l7,-0c2.139,-0 3.875,-1.736 3.875,-3.875l0,-13Zm-0.75,-0l-0,13c-0,1.725 -1.4,3.125 -3.125,3.125c0,0 -7,0 -7,0c-1.725,0 -3.125,-1.4 -3.125,-3.125c-0,0 -0,-13 -0,-13c-0,-1.725 1.4,-3.125 3.125,-3.125l7,-0c1.725,-0 3.125,1.4 3.125,3.125Z" style="fill:#ec1f27;"/><path d="M23,17.625l-1,0c-0.207,0 -0.375,0.168 -0.375,0.375c0,0.207 0.168,0.375 0.375,0.375l1,0c0.207,0 0.375,-0.168 0.375,-0.375c0,-0.207 -0.168,-0.375 -0.375,-0.375Z" style="fill:#ec1f27;"/><path d="M23.265,19.735l-0.707,-0.707c-0.146,-0.147 -0.384,-0.147 -0.53,-0c-0.146,0.146 -0.146,0.384 -0,0.53l0.707,0.707c0.146,0.146 0.384,0.147 0.53,0c0.146,-0.146 0.147,-0.384 0,-0.53Z" style="fill:#ec1f27;"/><path d="M22.81,15.676l-0.706,0.415c-0.179,0.104 -0.239,0.334 -0.134,0.513c0.104,0.178 0.334,0.238 0.513,0.134l0.707,-0.414c0.178,-0.105 0.238,-0.335 0.134,-0.514c-0.105,-0.178 -0.335,-0.238 -0.514,-0.134Z" style="fill:#ec1f27;"/><path d="M13,18.375l1,0c0.207,0 0.375,-0.168 0.375,-0.375c0,-0.207 -0.168,-0.375 -0.375,-0.375l-1,0c-0.207,0 -0.375,0.168 -0.375,0.375c0,0.207 0.168,0.375 0.375,0.375Z" style="fill:#ec1f27;"/><path d="M12.783,16.306l1,0.707c0.169,0.12 0.404,0.08 0.523,-0.089c0.12,-0.169 0.079,-0.404 -0.089,-0.523l-1,-0.707c-0.169,-0.12 -0.404,-0.079 -0.523,0.089c-0.12,0.169 -0.079,0.404 0.089,0.523Z" style="fill:#ec1f27;"/><path d="M13.217,20.306l1,-0.707c0.168,-0.119 0.209,-0.354 0.089,-0.523c-0.119,-0.169 -0.354,-0.209 -0.523,-0.089l-1,0.707c-0.168,0.119 -0.209,0.354 -0.089,0.523c0.119,0.168 0.354,0.209 0.523,0.089Z" style="fill:#ec1f27;"/></svg>