<?xml version="1.0" encoding="UTF-8" standalone="no"?><!DOCTYPE svg PUBLIC "-//W3C//DTD SVG 1.1//EN" "http://www.w3.org/Graphics/SVG/1.1/DTD/svg11.dtd"><svg width="100%" height="100%" viewBox="0 0 150 150" version="1.1" xmlns="http://www.w3.org/2000/svg" xmlns:xlink="http://www.w3.org/1999/xlink" xml:space="preserve" xmlns:serif="http://www.serif.com/" style="fill-rule:evenodd;clip-rule:evenodd;stroke-linecap:round;stroke-linejoin:round;stroke-miterlimit:3;"><rect id="ambulance" x="0" y="0" width="150" height="150" style="fill:none;"/><g><circle cx="75" cy="75" r="75" style="fill:#f00;"/></g><g id="Ambulance"><path d="M70.833,50l50,0c2.877,0 4.21,2.839 4.21,5.779l0,38.645c0,2.318 -1.527,5.576 -3.926,5.576l-8.617,0c0,0 -0.314,-8.208 -8.686,-8.333c-7.703,-0.116 -7.981,8.333 -7.981,8.333l-41.666,0c0,0 -0.234,-8.192 -8.334,-8.333c-8.657,-0.152 -8.333,8.333 -8.333,8.333l-7.345,0c-1.459,0 -5.218,-2.498 -5.155,-4.167c0.137,-3.598 0,-14.745 0,-14.793c0,-1.841 2.599,-6.04 4.167,-6.04l8.333,0c0.537,0 10.996,-12.544 12.7,-12.544c0.102,0 10.533,0.044 16.467,0.044l0,-8.333c0,-3.213 1.48,-4.167 4.166,-4.167Z" style="fill:none;fill-rule:nonzero;stroke:#fff;stroke-width:3.13px;"/><path d="M37.5,100c0,4.599 3.734,8.333 8.333,8.333c4.6,0 8.334,-3.734 8.334,-8.333c0,-4.599 -3.734,-8.333 -8.334,-8.333c-4.599,0 -8.333,3.734 -8.333,8.333Z" style="fill:none;stroke:#fff;stroke-width:3.13px;stroke-linecap:square;stroke-linejoin:miter;"/><path d="M72.917,58.333c0,1.15 0.933,2.084 2.083,2.084c1.15,0 2.083,-0.934 2.083,-2.084c0,-1.149 -0.933,-2.083 -2.083,-2.083c-1.15,0 -2.083,0.934 -2.083,2.083Z" style="fill:#ec1f27;stroke:#fff;stroke-width:3.13px;stroke-linecap:square;stroke-linejoin:miter;"/><path d="M114.583,58.333c0,1.15 0.934,2.084 2.084,2.084c1.149,0 2.083,-0.934 2.083,-2.084c0,-1.149 -0.934,-2.083 -2.083,-2.083c-1.15,0 -2.084,0.934 -2.084,2.083Z" style="fill:#ec1f27;stroke:#fff;stroke-width:3.13px;stroke-linecap:square;stroke-linejoin:miter;"/><path d="M95.833,100c0,4.599 3.734,8.333 8.334,8.333c4.599,0 8.333,-3.734 8.333,-8.333c0,-4.599 -3.734,-8.333 -8.333,-8.333c-4.6,0 -8.334,3.734 -8.334,8.333Z" style="fill:none;stroke:#fff;stroke-width:3.13px;stroke-linecap:square;stroke-linejoin:miter;"/><path d="M26.985,83.585l98.058,0" style="fill:none;fill-rule:nonzero;stroke:#fff;stroke-width:3.13px;stroke-linejoin:miter;"/><path d="M66.667,83.333l0,-29.166" style="fill:none;fill-rule:nonzero;stroke:#fff;stroke-width:3.13px;stroke-linejoin:miter;"/><path d="M92.029,62.386l0,-4.226c0,-1.069 0.682,-1.875 1.909,-1.909c0.076,-0.002 3.794,0 3.828,0c0.989,0 1.909,0.92 1.909,1.909l0,4.226l4.09,0c1.398,0 2.318,1.091 2.318,2.318l0,3.545c0,1.5 -0.818,2.522 -2.318,2.522l-4.09,0l0,4.607c0,1.141 -0.869,1.908 -1.909,1.908l-3.828,0c-1.091,0 -1.909,-0.733 -1.909,-1.908l0,-4.607l-4.363,0c-1.182,0 -2.249,-1.017 -2.249,-2.522l0,-3.545c0,-1.393 0.93,-2.318 2.249,-2.318l4.363,0Z" style="fill:none;fill-rule:nonzero;stroke:#fff;stroke-width:3.13px;stroke-linecap:square;stroke-linejoin:miter;"/><path d="M58.333,62.456c-0.824,-1.264 2.822,-9.154 8.334,-8.289c0.034,0.005 0,8.289 0,8.289l-8.334,0Z" style="fill:none;fill-rule:nonzero;stroke:#fff;stroke-width:3.13px;stroke-linecap:square;stroke-linejoin:miter;"/><path d="M50,75l4.167,-4.167l4.166,0l0,4.167l-8.333,0Z" style="fill:none;fill-rule:nonzero;stroke:#fff;stroke-width:3.13px;"/></g></svg>