<?xml version="1.0" encoding="UTF-8" standalone="no"?><!DOCTYPE svg PUBLIC "-//W3C//DTD SVG 1.1//EN" "http://www.w3.org/Graphics/SVG/1.1/DTD/svg11.dtd"><svg width="100%" height="100%" viewBox="0 0 150 150" version="1.1" xmlns="http://www.w3.org/2000/svg" xmlns:xlink="http://www.w3.org/1999/xlink" xml:space="preserve" xmlns:serif="http://www.serif.com/" style="fill-rule:evenodd;clip-rule:evenodd;stroke-linecap:round;stroke-linejoin:round;stroke-miterlimit:1.5;"><rect id="baby" x="0" y="0" width="150" height="150" style="fill:none;"/><g id="bg-white"><circle cx="75" cy="75" r="75" style="fill:#f00;"/></g><path d="M45.833,50l25,25" style="fill:none;stroke:#fff;stroke-width:3.33px;"/><path d="M95.275,43.112c5.345,2.011 8.892,5.002 8.892,8.971l0,41.667c0,16.098 -13.069,29.167 -29.167,29.167c-16.098,0 -29.167,-13.069 -29.167,-29.167l0,-41.667c0,-3.969 3.547,-6.96 8.892,-8.971c-0.365,1.542 -0.558,3.151 -0.558,4.805c0,11.498 9.335,20.833 20.833,20.833c11.498,0 20.833,-9.335 20.833,-20.833c0,-1.654 -0.193,-3.263 -0.558,-4.805Z" style="fill:none;stroke:#fff;stroke-width:3.33px;"/><circle cx="75" cy="47.917" r="20.833" style="fill:none;stroke:#fff;stroke-width:3.33px;"/><path d="M45.833,95.833l58.334,-43.75" style="fill:none;stroke:#fff;stroke-width:3.33px;"/><path d="M64.583,45.833c0.863,-2.567 6.862,-3.053 8.334,0" style="fill:none;stroke:#fff;stroke-width:3.33px;"/><path d="M77.083,45.833c0.863,-2.567 6.862,-3.053 8.334,0" style="fill:none;stroke:#fff;stroke-width:3.33px;"/><path d="M68.75,56.25c3.988,3.592 8.124,4.205 12.5,0" style="fill:none;stroke:#fff;stroke-width:3.33px;"/><circle cx="83.333" cy="33.333" r="4.167" style="fill:none;stroke:#fff;stroke-width:3.33px;"/><circle cx="75" cy="33.333" r="4.167" style="fill:none;stroke:#fff;stroke-width:3.33px;"/><circle cx="66.667" cy="33.333" r="4.167" style="fill:none;stroke:#fff;stroke-width:3.33px;"/></svg>