<?xml version="1.0" encoding="UTF-8" standalone="no"?><!DOCTYPE svg PUBLIC "-//W3C//DTD SVG 1.1//EN" "http://www.w3.org/Graphics/SVG/1.1/DTD/svg11.dtd"><svg width="100%" height="100%" viewBox="0 0 150 150" version="1.1" xmlns="http://www.w3.org/2000/svg" xmlns:xlink="http://www.w3.org/1999/xlink" xml:space="preserve" xmlns:serif="http://www.serif.com/" style="fill-rule:evenodd;clip-rule:evenodd;stroke-linecap:round;stroke-linejoin:round;stroke-miterlimit:1.5;"><rect id="ballot" x="0" y="0" width="150" height="150" style="fill:none;"/><g id="bg-white"><circle cx="75" cy="75" r="75" style="fill:#f00;"/></g><path d="M100,49.167c-0.823,-1.987 -1.494,-3.334 -3.333,-3.334l-43.334,0c-1.839,0 -2.716,1.611 -3.333,3.334l-10.417,24.583c-1.043,2.682 1.494,3.333 3.334,3.333l64.166,0c1.84,0 3.931,-1.861 3.334,-3.333l-10.417,-24.583Z" style="fill:none;stroke:#fff;stroke-width:3.33px;"/><path d="M58.333,62.5l-4.166,0c-1.15,0 -2.272,0.769 -2.648,1.966l-1.519,4.284c-0.611,1.22 0.934,2.083 2.083,2.083l45.834,0c1.149,0 2.436,-1.051 2.083,-2.083l-1.637,-4.308c-0.658,-1.408 -1.38,-1.942 -2.53,-1.942l-4.166,0" style="fill:none;stroke:#fff;stroke-width:3.33px;"/><path d="M91.667,55.417c0,-1.84 -1.494,-3.334 -3.334,-3.334l-26.666,0c-1.84,0 -3.334,1.494 -3.334,3.334l0,15.416l33.334,0l0,-15.416Z" style="fill:none;stroke:#fff;stroke-width:3.33px;"/><path d="M64.583,58.333l8.334,0" style="fill:none;stroke:#fff;stroke-width:3.33px;"/><path d="M64.583,64.583l8.334,0" style="fill:none;stroke:#fff;stroke-width:3.33px;"/><path d="M110.521,75.625c0.018,-1.326 -0.65,1.477 -2.709,1.458l-65.782,0c-2.698,-0.018 -2.784,-2.407 -2.708,-1.458l0,25.833c0,1.495 1.213,2.709 2.708,2.709l65.782,0c1.495,0 2.709,-1.214 2.709,-2.709l0,-25.833Z" style="fill:none;stroke:#fff;stroke-width:3.33px;"/><path d="M79.167,58.333l6.25,6.25" style="fill:none;stroke:#fff;stroke-width:3.33px;"/><path d="M85.417,58.333l-6.25,6.25" style="fill:none;stroke:#fff;stroke-width:3.33px;"/></svg>