<?xml version="1.0" encoding="UTF-8" standalone="no"?><!DOCTYPE svg PUBLIC "-//W3C//DTD SVG 1.1//EN" "http://www.w3.org/Graphics/SVG/1.1/DTD/svg11.dtd"><svg width="100%" height="100%" viewBox="0 0 150 150" version="1.1" xmlns="http://www.w3.org/2000/svg" xmlns:xlink="http://www.w3.org/1999/xlink" xml:space="preserve" xmlns:serif="http://www.serif.com/" style="fill-rule:evenodd;clip-rule:evenodd;stroke-linecap:round;stroke-linejoin:round;stroke-miterlimit:1.5;"><rect id="barb-wire-fence" x="0" y="0" width="150" height="150" style="fill:none;"/><g id="bg-white"><circle cx="75" cy="75" r="75" style="fill:#f00;"/></g><rect x="33.333" y="58.333" width="83.333" height="66.667" style="fill:none;stroke:#fff;stroke-width:3.33px;"/><path d="M63.536,125l-18.257,0l-11.946,-11.946l0,-18.257l30.203,30.203Z" style="fill:none;stroke:#fff;stroke-width:3.33px;"/><path d="M33.333,98.098l0,-18.257l21.508,-21.508l18.257,0l-39.765,39.765Z" style="fill:none;stroke:#fff;stroke-width:3.33px;"/><path d="M102.264,125l-18.256,0l-50.675,-50.674l0,-15.993l2.265,0l66.666,66.667Z" style="fill:none;stroke:#fff;stroke-width:3.33px;"/><path d="M33.333,118.569l60.236,-60.236l18.257,0l-66.667,66.667l-11.826,0l0,-6.431Z" style="fill:none;stroke:#fff;stroke-width:3.33px;"/><path d="M116.667,100.674l0,18.257l-60.598,-60.598l18.257,0l42.341,42.341Z" style="fill:none;stroke:#fff;stroke-width:3.33px;"/><path d="M116.667,92.221l-32.78,32.779l-18.256,0l51.036,-51.036l0,18.257Z" style="fill:none;stroke:#fff;stroke-width:3.33px;"/><path d="M116.667,61.946l0,18.257l-21.87,-21.87l18.257,0l3.613,3.613Z" style="fill:none;stroke:#fff;stroke-width:3.33px;"/><path d="M116.667,125l-12.308,0l12.308,-12.308l0,12.308Z" style="fill:none;stroke:#fff;stroke-width:3.33px;"/><rect x="33.333" y="41.667" width="83.333" height="16.667" style="fill:none;stroke:#fff;stroke-width:3.33px;"/><path d="M25,33.333l8.333,8.334" style="fill:none;stroke:#fff;stroke-width:3.33px;"/><path d="M62.5,33.333l8.333,8.334" style="fill:none;stroke:#fff;stroke-width:3.33px;"/><path d="M100,33.333l8.333,8.334" style="fill:none;stroke:#fff;stroke-width:3.33px;"/><path d="M50,50l-8.333,-8.333" style="fill:none;stroke:#fff;stroke-width:3.33px;"/><path d="M87.5,50l-8.333,-8.333" style="fill:none;stroke:#fff;stroke-width:3.33px;"/><path d="M125,50l-8.333,-8.333" style="fill:none;stroke:#fff;stroke-width:3.33px;"/><path d="M41.667,37.5l-4.167,4.167" style="fill:none;stroke:#fff;stroke-width:3.33px;"/><path d="M79.167,37.5l-4.167,4.167" style="fill:none;stroke:#fff;stroke-width:3.33px;"/><path d="M116.667,37.5l-4.167,4.167" style="fill:none;stroke:#fff;stroke-width:3.33px;"/><path d="M37.5,37.5l-12.5,12.5" style="fill:none;stroke:#fff;stroke-width:3.33px;"/><path d="M75,37.5l-12.5,12.5" style="fill:none;stroke:#fff;stroke-width:3.33px;"/><path d="M112.5,37.5l-12.5,12.5" style="fill:none;stroke:#fff;stroke-width:3.33px;"/><path d="M41.667,41.667l8.333,-8.334" style="fill:none;stroke:#fff;stroke-width:3.33px;"/><path d="M79.167,41.667l8.333,-8.334" style="fill:none;stroke:#fff;stroke-width:3.33px;"/><path d="M116.667,41.667l8.333,-8.334" style="fill:none;stroke:#fff;stroke-width:3.33px;"/></svg>