<?xml version="1.0" encoding="UTF-8" standalone="no"?><!DOCTYPE svg PUBLIC "-//W3C//DTD SVG 1.1//EN" "http://www.w3.org/Graphics/SVG/1.1/DTD/svg11.dtd"><svg width="100%" height="100%" viewBox="0 0 150 150" version="1.1" xmlns="http://www.w3.org/2000/svg" xmlns:xlink="http://www.w3.org/1999/xlink" xml:space="preserve" xmlns:serif="http://www.serif.com/" style="fill-rule:evenodd;clip-rule:evenodd;stroke-linecap:round;stroke-linejoin:round;stroke-miterlimit:1.5;"><rect id="bike" x="0" y="0" width="150" height="150" style="fill:none;"/><g id="bg-white"><circle cx="75" cy="75" r="75" style="fill:#f00;"/></g><circle cx="45.833" cy="87.5" r="16.667" style="fill:none;stroke:#fff;stroke-width:3.33px;"/><circle cx="104.167" cy="87.5" r="16.667" style="fill:none;stroke:#fff;stroke-width:3.33px;"/><path d="M54.167,50l12.5,0l-20.834,37.5" style="fill:none;stroke:#fff;stroke-width:3.33px;"/><path d="M95.833,50l-18.75,33.333" style="fill:none;stroke:#fff;stroke-width:3.33px;"/><circle cx="75" cy="87.5" r="4.167" style="fill:none;stroke:#fff;stroke-width:3.33px;"/><circle cx="75" cy="87.5" r="4.167" style="fill:none;stroke:#fff;stroke-width:3.33px;"/><path d="M87.5,50l16.667,0" style="fill:none;stroke:#fff;stroke-width:3.33px;"/><path d="M66.667,100l8.333,0" style="fill:none;stroke:#fff;stroke-width:3.33px;"/><path d="M104.167,87.5l-25,0c0,-2.3 -1.867,-4.167 -4.167,-4.167c-0.583,0 -1.138,0.12 -1.642,0.337l-10.858,-25.337l29.167,0l12.5,29.167Z" style="fill:none;stroke:#fff;stroke-width:3.33px;"/><path d="M75,91.667l-4.167,8.333" style="fill:none;stroke:#fff;stroke-width:3.33px;"/></svg>