<?xml version="1.0" encoding="UTF-8" standalone="no"?><!DOCTYPE svg PUBLIC "-//W3C//DTD SVG 1.1//EN" "http://www.w3.org/Graphics/SVG/1.1/DTD/svg11.dtd"><svg width="100%" height="100%" viewBox="0 0 150 150" version="1.1" xmlns="http://www.w3.org/2000/svg" xmlns:xlink="http://www.w3.org/1999/xlink" xml:space="preserve" xmlns:serif="http://www.serif.com/" style="fill-rule:evenodd;clip-rule:evenodd;stroke-linecap:round;stroke-linejoin:round;stroke-miterlimit:1.5;"><rect id="boiling-pot" x="0" y="0" width="150" height="150" style="fill:none;"/><g id="bg-white"><circle cx="75" cy="75" r="75" style="fill:#f00;"/></g><path d="M102.279,95.833l0,12.5c0.052,5.995 -2.432,8.362 -7.839,8.334" style="fill:none;stroke:#fff;stroke-width:3.33px;"/><path d="M112.5,87.5l0,22.917c0,8.048 -6.919,14.583 -15.441,14.583l-44.118,0c-8.522,0 -15.441,-6.535 -15.441,-14.583l0,-22.917l-8.333,0l0,-8.333l91.666,0l0,8.333l-8.333,0" style="fill:none;stroke:#fff;stroke-width:3.33px;"/><path d="M50,37.5c-4.828,5.722 -4.421,11.266 0,16.667c6.139,5.747 5.503,11.283 0,16.666" style="fill:none;stroke:#fff;stroke-width:3.33px;"/><path d="M65.97,37.5c-4.828,5.722 -4.421,11.266 0,16.667c6.139,5.747 5.503,11.283 0,16.666" style="fill:none;stroke:#fff;stroke-width:3.33px;"/><path d="M81.94,37.5c-4.828,5.722 -4.421,11.266 0,16.667c6.139,5.747 5.503,11.283 0,16.666" style="fill:none;stroke:#fff;stroke-width:3.33px;"/><path d="M97.91,37.5c-4.828,5.722 -4.421,11.266 0,16.667c6.139,5.747 5.502,11.283 0,16.666" style="fill:none;stroke:#fff;stroke-width:3.33px;"/></svg>