<?xml version="1.0" encoding="UTF-8" standalone="no"?><!DOCTYPE svg PUBLIC "-//W3C//DTD SVG 1.1//EN" "http://www.w3.org/Graphics/SVG/1.1/DTD/svg11.dtd"><svg width="100%" height="100%" viewBox="0 0 150 150" version="1.1" xmlns="http://www.w3.org/2000/svg" xmlns:xlink="http://www.w3.org/1999/xlink" xml:space="preserve" xmlns:serif="http://www.serif.com/" style="fill-rule:evenodd;clip-rule:evenodd;stroke-linecap:round;stroke-linejoin:round;stroke-miterlimit:1.5;"><rect id="bomb" x="0" y="0" width="150" height="150" style="fill:none;"/><g><circle cx="75" cy="75" r="75" style="fill:#f00;"/></g><path d="M31.004,119.421c6.944,7.669 17.864,6.589 26,1.825c11.555,-6.766 40.834,-40.813 41.052,-41.053c3.692,-4.066 0,-11.86 0,-11.86l11.404,0l14.14,-14.14l-26.912,-0.456l-3.193,-28.737l-12.772,12.316l1.368,15.052c0,0 -7.956,-2.8 -12.498,1.095c-2.052,1.759 -31.823,27.414 -38.817,38.818c-4.982,8.121 -6.717,19.471 0.228,27.14Z" style="fill:none;stroke:#fff;stroke-width:3.13px;"/><path d="M32.414,91.164c0,0 13.451,0.597 20.8,6.842c7.623,6.478 8.695,18.534 8.695,18.534" style="fill:none;stroke:#fff;stroke-width:3.13px;"/><path d="M54.848,67.468c0,0 13.899,0.604 21.492,6.918c7.876,6.55 8.984,18.739 8.984,18.739" style="fill:none;stroke:#fff;stroke-width:3.13px;"/><path d="M38.484,114.698c0,0 4.685,1.499 8.688,0.981c3.847,-0.498 6.866,-2.803 6.866,-2.803" style="fill:none;stroke:#fff;stroke-width:3.13px;"/><path d="M85.947,64.579l25.179,-25.179" style="fill:none;stroke:#fff;stroke-width:3.13px;"/><path d="M66.667,104.167c0,0 12.559,-13.065 12.499,-13.003" style="fill:none;stroke:#fff;stroke-width:3.13px;"/></svg>