<?xml version="1.0" encoding="UTF-8" standalone="no"?><!DOCTYPE svg PUBLIC "-//W3C//DTD SVG 1.1//EN" "http://www.w3.org/Graphics/SVG/1.1/DTD/svg11.dtd"><svg width="100%" height="100%" viewBox="0 0 150 150" version="1.1" xmlns="http://www.w3.org/2000/svg" xmlns:xlink="http://www.w3.org/1999/xlink" xml:space="preserve" xmlns:serif="http://www.serif.com/" style="fill-rule:evenodd;clip-rule:evenodd;stroke-linecap:round;stroke-linejoin:round;stroke-miterlimit:1.5;"><rect id="books" x="0" y="0" width="150" height="150" style="fill:none;"/><g id="bg-white"><circle cx="75" cy="75" r="75" style="fill:#f00;"/></g><path d="M50,91.667l20.833,0" style="fill:none;stroke:#fff;stroke-width:3.33px;"/><path d="M50,104.167l20.833,0" style="fill:none;stroke:#fff;stroke-width:3.33px;"/><rect x="50" y="70.833" width="20.833" height="8.333" style="fill:none;stroke:#fff;stroke-width:3.33px;"/><path d="M91.667,108.333l0,-58.333l-45.834,0c-5.366,0.471 -8.311,3.1 -8.333,8.333l0,58.334l45.833,0l0,-58.334l-37.5,0" style="fill:none;stroke:#fff;stroke-width:3.33px;"/><path d="M112.5,87.5l0,-58.333l-45.833,0c-5.367,0.47 -8.312,3.099 -8.334,8.333l0,12.5" style="fill:none;stroke:#fff;stroke-width:3.33px;"/><path d="M91.667,95.833l12.5,0l0,-58.333l-37.5,0" style="fill:none;stroke:#fff;stroke-width:3.33px;"/></svg>