<?xml version="1.0" encoding="UTF-8" standalone="no"?><!DOCTYPE svg PUBLIC "-//W3C//DTD SVG 1.1//EN" "http://www.w3.org/Graphics/SVG/1.1/DTD/svg11.dtd"><svg width="100%" height="100%" viewBox="0 0 150 150" version="1.1" xmlns="http://www.w3.org/2000/svg" xmlns:xlink="http://www.w3.org/1999/xlink" xml:space="preserve" xmlns:serif="http://www.serif.com/" style="fill-rule:evenodd;clip-rule:evenodd;stroke-linecap:round;stroke-linejoin:round;stroke-miterlimit:1.5;"><rect id="bread" x="0" y="0" width="150" height="150" style="fill:none;"/><g id="bg-white"><circle cx="75" cy="75" r="75" style="fill:#f00;"/></g><path d="M91.667,41.667c9.198,0 16.666,7.468 16.666,16.666c0,4.223 -1.574,8.081 -4.166,11.02l0,32.73c0,3.45 -2.801,6.25 -6.25,6.25l-50,0c-3.45,0 -6.25,-2.8 -6.25,-6.25l0,-32.73c-2.593,-2.939 -4.167,-6.797 -4.167,-11.02c0,-9.198 7.468,-16.666 16.667,-16.666l8.333,0c3.94,0 7.563,1.37 10.417,3.659c2.854,-2.289 6.476,-3.659 10.416,-3.659l8.334,0Z" style="fill:none;stroke:#fff;stroke-width:3.33px;"/><path d="M50,83.333l0,12.5c-0.073,3.379 1.604,4.375 4.167,4.167l12.5,0" style="fill:none;stroke:#fff;stroke-width:3.33px;"/><path d="M50,66.667c-8.31,-13.004 -0.217,-18.506 16.667,-16.667" style="fill:none;stroke:#fff;stroke-width:3.33px;"/></svg>