<?xml version="1.0" encoding="UTF-8" standalone="no"?><!DOCTYPE svg PUBLIC "-//W3C//DTD SVG 1.1//EN" "http://www.w3.org/Graphics/SVG/1.1/DTD/svg11.dtd"><svg width="100%" height="100%" viewBox="0 0 150 150" version="1.1" xmlns="http://www.w3.org/2000/svg" xmlns:xlink="http://www.w3.org/1999/xlink" xml:space="preserve" xmlns:serif="http://www.serif.com/" style="fill-rule:evenodd;clip-rule:evenodd;stroke-linecap:round;stroke-linejoin:round;stroke-miterlimit:3;"><rect id="bullhorn" x="0" y="0" width="150" height="150" style="fill:none;"/><g id="bg-white"><circle cx="75" cy="75" r="75" style="fill:#f00;"/></g><g id="Bullhorn"><path d="M101.574,100.781c9.875,0 19.272,-11.819 19.259,-32.167c-0.012,-20.348 -8.816,-35.002 -19.259,-35.389" style="fill:none;fill-rule:nonzero;stroke:#fff;stroke-width:3.33px;"/><path d="M101.237,33.225c-9.875,0 -19.271,11.819 -19.259,32.167c0.012,20.348 8.816,35.003 19.259,35.389" style="fill:none;fill-rule:nonzero;stroke:#fff;stroke-width:3.33px;"/><path d="M41.379,77.99c-1.594,-1.862 -2.46,-3.437 -2.598,-4.723c-0.189,-1.763 0.828,-3.944 3.051,-6.541" style="fill:none;fill-rule:nonzero;stroke:#fff;stroke-width:3.33px;"/><path d="M95.467,67.475c0,2.3 1.4,4.167 3.125,4.167c1.725,0 3.125,-1.867 3.125,-4.167c0,-2.299 -1.4,-4.166 -3.125,-4.166c-1.725,0 -3.125,1.867 -3.125,4.166Z" style="fill:none;stroke:#fff;stroke-width:3.33px;"/><path d="M98.994,63.288l-17.004,-2.347" style="fill:none;fill-rule:nonzero;stroke:#fff;stroke-width:3.33px;"/><path d="M98.826,72.059l-15.416,5.509" style="fill:none;fill-rule:nonzero;stroke:#fff;stroke-width:3.33px;"/><path d="M47.599,82.309c0.124,3.318 0.124,5.874 0,7.666c-0.455,6.52 -5.877,11.428 -4.367,18c0.407,1.775 1.443,4.136 3.107,7.084l12.933,1.5c2.101,-1.994 3.22,-3.744 3.359,-5.25c0.294,-3.205 -3.973,-4.132 -4.703,-7.084c-0.933,-3.771 0.943,-6.909 2.1,-10.499c0.497,-1.545 1.365,-3.684 2.603,-6.417" style="fill:none;fill-rule:nonzero;stroke:#fff;stroke-width:3.33px;"/><path d="M95.48,99.126l-16.57,-6.17l-37.531,-14.543l-7.1,1.691c-3.681,0.639 -5.112,-3.758 -5.112,-7.045c0,-3.288 1.21,-8.922 5.68,-7.891l6.816,1.409l52.539,-31.281" style="fill:none;fill-rule:nonzero;stroke:#fff;stroke-width:3.33px;"/></g></svg>