<?xml version="1.0" encoding="UTF-8" standalone="no"?><!DOCTYPE svg PUBLIC "-//W3C//DTD SVG 1.1//EN" "http://www.w3.org/Graphics/SVG/1.1/DTD/svg11.dtd"><svg width="100%" height="100%" viewBox="0 0 150 150" version="1.1" xmlns="http://www.w3.org/2000/svg" xmlns:xlink="http://www.w3.org/1999/xlink" xml:space="preserve" xmlns:serif="http://www.serif.com/" style="fill-rule:evenodd;clip-rule:evenodd;stroke-linecap:round;stroke-linejoin:round;stroke-miterlimit:1.5;"><rect id="bus" x="0" y="0" width="150" height="150" style="fill:none;"/><g id="bg-white"><circle cx="75" cy="75" r="75" style="fill:#f00;"/></g><circle cx="50" cy="104.167" r="8.333" style="fill:none;stroke:#fff;stroke-width:3.33px;"/><circle cx="112.5" cy="104.167" r="8.333" style="fill:none;stroke:#fff;stroke-width:3.33px;"/><path d="M87.5,58.333l33.333,0l4.167,4.167l0,41.667l-4.167,0c0,4.599 -3.734,8.333 -8.333,8.333c-4.599,0 -8.333,-3.734 -8.333,-8.333l-45.834,0c0,4.599 -3.734,8.333 -8.333,8.333c-4.599,0 -8.333,-3.734 -8.333,-8.333l-8.334,0l-8.333,-8.334l0,-33.333l4.167,-4.167l20.833,0l8.333,-8.333l20.834,0l8.333,8.333Z" style="fill:none;stroke:#fff;stroke-width:3.33px;"/><rect x="25" y="70.833" width="50" height="16.667" style="fill:none;stroke:#fff;stroke-width:3.33px;"/><rect x="83.333" y="70.833" width="16.667" height="33.333" style="fill:none;stroke:#fff;stroke-width:3.33px;"/><rect x="108.333" y="70.833" width="16.667" height="16.667" style="fill:none;stroke:#fff;stroke-width:3.33px;"/><path d="M58.333,70.833l0,16.667" style="fill:none;stroke:#fff;stroke-width:3.33px;"/><path d="M41.667,70.833l0,16.667" style="fill:none;stroke:#fff;stroke-width:3.33px;"/><path d="M91.667,70.833l0,33.334" style="fill:none;stroke:#fff;stroke-width:3.33px;"/><path d="M50,58.333l37.5,0" style="fill:none;stroke:#fff;stroke-width:3.33px;"/></svg>