<?xml version="1.0" encoding="UTF-8" standalone="no"?><!DOCTYPE svg PUBLIC "-//W3C//DTD SVG 1.1//EN" "http://www.w3.org/Graphics/SVG/1.1/DTD/svg11.dtd"><svg width="100%" height="100%" viewBox="0 0 150 150" version="1.1" xmlns="http://www.w3.org/2000/svg" xmlns:xlink="http://www.w3.org/1999/xlink" xml:space="preserve" xmlns:serif="http://www.serif.com/" style="fill-rule:evenodd;clip-rule:evenodd;stroke-linecap:round;stroke-linejoin:round;stroke-miterlimit:1.5;"><rect id="butterfly" x="0" y="0" width="150" height="150" style="fill:none;"/><g id="bg-white"><circle cx="75" cy="75" r="75" style="fill:#f00;"/></g><path d="M79.167,68.75c-0.042,-6.708 -8.376,-6.73 -8.334,0l2.084,29.167c-0.048,4.725 4.116,4.882 4.166,0l2.084,-29.167Z" style="fill:none;stroke:#fff;stroke-width:3.33px;"/><path d="M70.833,68.75c-14.853,-15.631 -34.814,-26.129 -37.5,-27.083c-4.92,-1.749 -12.553,4.916 -5.649,8.677c6.147,3.35 4.867,13.926 9.816,24.656l8.333,0c-5.811,3.853 -7.99,8.081 -8.333,12.5c-0.15,14.295 8.268,20.022 20.833,20.833c7.816,0.505 12.055,-12.451 13.542,-16.666" style="fill:none;stroke:#fff;stroke-width:3.33px;"/><path d="M79.091,68.75c14.853,-15.631 34.814,-26.129 37.5,-27.083c4.92,-1.749 12.553,4.916 5.649,8.677c-6.148,3.35 -4.867,13.926 -9.816,24.656l-8.333,0c5.811,3.853 7.99,8.081 8.333,12.5c0.15,14.295 -8.268,20.022 -20.833,20.833c-7.817,0.505 -12.055,-12.451 -13.542,-16.666" style="fill:none;stroke:#fff;stroke-width:3.33px;"/></svg>