<?xml version="1.0" encoding="UTF-8" standalone="no"?><!DOCTYPE svg PUBLIC "-//W3C//DTD SVG 1.1//EN" "http://www.w3.org/Graphics/SVG/1.1/DTD/svg11.dtd"><svg width="100%" height="100%" viewBox="0 0 150 150" version="1.1" xmlns="http://www.w3.org/2000/svg" xmlns:xlink="http://www.w3.org/1999/xlink" xml:space="preserve" xmlns:serif="http://www.serif.com/" style="fill-rule:evenodd;clip-rule:evenodd;stroke-linecap:round;stroke-linejoin:round;stroke-miterlimit:1.5;"><rect id="condom" x="0" y="0" width="150" height="150" style="fill:none;"/><g id="condom1" serif:id="condom"><g id="bg-white"><circle cx="75" cy="75" r="75" style="fill:#f00;"/></g><rect x="37.5" y="33.333" width="75" height="83.333" style="fill:none;stroke:#fff;stroke-width:3.33px;"/><path d="M43.75,33.333l0,83.334" style="fill:none;stroke:#fff;stroke-width:3.33px;"/><path d="M106.25,33.333l0,83.334" style="fill:none;stroke:#fff;stroke-width:3.33px;"/><circle cx="75" cy="75" r="20.833" style="fill:none;stroke:#fff;stroke-width:3.33px;"/><circle cx="75" cy="75" r="14.583" style="fill:none;stroke:#fff;stroke-width:3.33px;"/><path d="M112.5,116.667l6.25,-5.209c0,0 -6.25,-3.125 -6.25,-5.208c0,-2.083 6.25,-5.208 6.25,-5.208c0,0 -6.25,-3.125 -6.25,-5.209c0,-2.083 6.25,-6.25 6.25,-6.25c0,0 -6.25,-2.083 -6.25,-4.166c0,-2.084 6.25,-5.209 6.25,-5.209c0,0 -6.25,-3.125 -6.25,-5.208c0,-2.083 6.25,-5.208 6.25,-5.208c0,0 -6.25,-3.125 -6.25,-5.209c0,-2.083 6.25,-5.208 6.25,-5.208c0,0 -6.25,-3.125 -6.25,-5.208c0,-2.084 6.25,-5.209 6.25,-5.209c0,0 -6.25,-3.472 -6.25,-5.208c0,-1.736 6.25,-5.208 6.25,-5.208l-6.25,-5.209" style="fill:none;stroke:#fff;stroke-width:3.33px;"/><path d="M37.5,116.667l-6.25,-5.209c0,0 6.25,-3.125 6.25,-5.208c0,-2.083 -6.25,-5.208 -6.25,-5.208c0,0 6.25,-3.125 6.25,-5.209c0,-2.083 -6.25,-6.25 -6.25,-6.25c0,0 6.25,-2.083 6.25,-4.166c0,-2.084 -6.25,-5.209 -6.25,-5.209c0,0 6.25,-3.125 6.25,-5.208c0,-2.083 -6.25,-5.208 -6.25,-5.208c0,0 6.25,-3.125 6.25,-5.209c0,-2.083 -6.25,-5.208 -6.25,-5.208c0,0 6.25,-3.125 6.25,-5.208c0,-2.084 -6.25,-5.209 -6.25,-5.209c0,0 6.25,-3.472 6.25,-5.208c0,-1.736 -6.25,-5.208 -6.25,-5.208l6.25,-5.209" style="fill:none;stroke:#fff;stroke-width:3.33px;"/></g></svg>