<?xml version="1.0" encoding="UTF-8" standalone="no"?><!DOCTYPE svg PUBLIC "-//W3C//DTD SVG 1.1//EN" "http://www.w3.org/Graphics/SVG/1.1/DTD/svg11.dtd"><svg width="100%" height="100%" viewBox="0 0 150 150" version="1.1" xmlns="http://www.w3.org/2000/svg" xmlns:xlink="http://www.w3.org/1999/xlink" xml:space="preserve" xmlns:serif="http://www.serif.com/" style="fill-rule:evenodd;clip-rule:evenodd;stroke-linecap:round;stroke-linejoin:round;stroke-miterlimit:1.5;"><rect id="course" x="0" y="0" width="150" height="150" style="fill:none;"/><g id="bg-white"><circle cx="75" cy="75" r="75" style="fill:#f00;"/></g><path d="M100,39.583l0,18.75l-50,0l0,20.834l50,0l0,20.833l-39.583,0" style="fill:none;stroke:#fff;stroke-width:3.33px;"/><path d="M50,88.9c5.749,0 10.417,4.537 10.417,10.126c0,5.589 -10.417,21.124 -10.417,21.124c0,0 -10.417,-15.535 -10.417,-21.124c0,-5.589 4.668,-10.126 10.417,-10.126Z" style="fill:none;stroke:#fff;stroke-width:3.33px;"/><path d="M91.667,47.917l16.666,-16.667" style="fill:none;stroke:#fff;stroke-width:3.33px;"/><path d="M91.667,31.25l16.599,16.6" style="fill:none;stroke:#fff;stroke-width:3.33px;"/><circle cx="50" cy="100" r="4.167" style="fill:#ec1f27;stroke:#fff;stroke-width:2.92px;"/></svg>