<?xml version="1.0" encoding="UTF-8" standalone="no"?><!DOCTYPE svg PUBLIC "-//W3C//DTD SVG 1.1//EN" "http://www.w3.org/Graphics/SVG/1.1/DTD/svg11.dtd"><svg width="100%" height="100%" viewBox="0 0 150 150" version="1.1" xmlns="http://www.w3.org/2000/svg" xmlns:xlink="http://www.w3.org/1999/xlink" xml:space="preserve" xmlns:serif="http://www.serif.com/" style="fill-rule:evenodd;clip-rule:evenodd;stroke-linecap:round;stroke-linejoin:round;stroke-miterlimit:1.5;"><rect id="envelope" x="0" y="0" width="150" height="150" style="fill:none;"/><g id="bg-white"><circle cx="75" cy="75" r="75" style="fill:#f00;"/></g><path d="M125,47.083c0,-4.139 -3.361,-7.5 -7.5,-7.5l-85,0c-4.139,0 -7.5,3.361 -7.5,7.5l0,60c0,4.14 3.361,7.5 7.5,7.5l85,0c4.139,0 7.5,-3.36 7.5,-7.5l0,-60Z" style="fill:none;stroke:#fff;stroke-width:3.33px;"/><path d="M27.083,41.667l41.393,32.394c4.064,3.42 8.431,3.491 13.132,-0.116l40.846,-32.278" style="fill:none;stroke:#fff;stroke-width:3.33px;"/><path d="M27.083,110.417l38.024,-38.024" style="fill:none;stroke:#fff;stroke-width:3.33px;"/><path d="M122.454,110.417l-38.024,-38.024" style="fill:none;stroke:#fff;stroke-width:3.33px;"/></svg>