<?xml version="1.0" encoding="UTF-8" standalone="no"?><!DOCTYPE svg PUBLIC "-//W3C//DTD SVG 1.1//EN" "http://www.w3.org/Graphics/SVG/1.1/DTD/svg11.dtd"><svg width="100%" height="100%" viewBox="0 0 36 36" version="1.1" xmlns="http://www.w3.org/2000/svg" xmlns:xlink="http://www.w3.org/1999/xlink" xml:space="preserve" xmlns:serif="http://www.serif.com/" style="fill-rule:evenodd;clip-rule:evenodd;stroke-linecap:round;stroke-linejoin:round;stroke-miterlimit:1.5;"><rect id="ferry" x="0" y="0" width="36" height="36" style="fill:none;"/><g id="bg-white"><circle cx="18" cy="18" r="18" style="fill:#ec1f27;"/></g><path d="M27,26l0,-0.167c0,-0.46 -0.336,-0.833 -0.75,-0.833l-16.5,0c-0.414,0 -0.75,0.373 -0.75,0.833l0,0.167l18,0Z" style="fill:#fff;stroke:#fff;stroke-width:0.8px;"/><path d="M10,25l1,-8l14,0l1,8" style="fill:none;stroke:#fff;stroke-width:0.8px;"/><path d="M10,17l1,0" style="fill:none;stroke:#fff;stroke-width:0.8px;"/><path d="M25,17l1,0" style="fill:none;stroke:#fff;stroke-width:0.8px;"/><path d="M6,28.222c0.886,1.047 1.875,1.114 3,0c1.055,1.034 2.064,1.044 3,0c1.029,1.026 2.022,1.115 3,0c0.948,1.092 1.942,1.098 3,0c0.923,0.98 1.914,1.093 3,0c1.082,1.104 2.078,1.028 3,0c1.026,1.028 2.022,1.104 3,0c1.117,1.03 2.112,0.987 3,0" style="fill:none;stroke:#fff;stroke-width:0.8px;"/><path d="M6,26c0.886,1.047 1.875,1.114 3,0c1.055,1.035 2.064,1.044 3,0c1.029,1.027 2.022,1.115 3,0c0.948,1.092 1.942,1.098 3,0c0.923,0.98 1.914,1.094 3,0c1.082,1.104 2.078,1.029 3,0c1.026,1.029 2.022,1.104 3,0c1.117,1.031 2.112,0.987 3,0" style="fill:none;stroke:#fff;stroke-width:0.8px;"/><path d="M23,19.6c-0.149,-0.491 -0.331,-0.63 -1,-0.6l-8,0c-0.759,0 -0.881,0.199 -1,0.6l-1,5.4l12,0l-1,-5.4Z" style="fill:none;stroke:#fff;stroke-width:0.8px;"/><path d="M17,23.5c0,-0.276 -0.224,-0.5 -0.5,-0.5l-2,0c-0.276,0 -0.5,0.224 -0.5,0.5l0,1c0,0.276 0.224,0.5 0.5,0.5l2,0c0.276,0 0.5,-0.224 0.5,-0.5l0,-1Z" style="fill:none;stroke:#fff;stroke-width:0.8px;"/><path d="M22,23.5c0,-0.276 -0.224,-0.5 -0.5,-0.5l-2,0c-0.276,0 -0.5,0.224 -0.5,0.5l0,1c0,0.276 0.224,0.5 0.5,0.5l2,0c0.276,0 0.5,-0.224 0.5,-0.5l0,-1Z" style="fill:none;stroke:#fff;stroke-width:0.8px;"/><path d="M13,17l1,-2l8,0l1,2l-10,0" style="fill:#fff;stroke:#fff;stroke-width:0.8px;"/><path d="M19,12.75c0,-0.414 -0.252,-0.75 -0.561,-0.75l-1.878,0c-0.309,0 -0.561,0.336 -0.561,0.75l0,1.5c0,0.414 0.252,0.75 0.561,0.75l1.878,0c0.309,0 0.561,-0.336 0.561,-0.75l0,-1.5Z" style="fill:none;stroke:#fff;stroke-width:0.8px;"/><path d="M16,13.5l3,0" style="fill:none;stroke:#fff;stroke-width:0.8px;"/><path d="M21,15l0,-2" style="fill:none;stroke:#fff;stroke-width:0.8px;"/><path d="M6,8c1.268,-1.205 2.189,-0.851 3,0c0.86,-1.114 1.844,-1.242 3,0" style="fill:none;stroke:#fff;stroke-width:0.8px;"/><path d="M8,11.284c1.268,-1.204 2.189,-0.851 3,0c0.86,-1.113 1.844,-1.242 3,0" style="fill:none;stroke:#fff;stroke-width:0.8px;"/></svg>