<?xml version="1.0" encoding="UTF-8" standalone="no"?><!DOCTYPE svg PUBLIC "-//W3C//DTD SVG 1.1//EN" "http://www.w3.org/Graphics/SVG/1.1/DTD/svg11.dtd"><svg width="100%" height="100%" viewBox="0 0 150 150" version="1.1" xmlns="http://www.w3.org/2000/svg" xmlns:xlink="http://www.w3.org/1999/xlink" xml:space="preserve" xmlns:serif="http://www.serif.com/" style="fill-rule:evenodd;clip-rule:evenodd;stroke-linecap:round;stroke-linejoin:round;stroke-miterlimit:1.5;"><rect id="fighter" x="0" y="0" width="150" height="150" style="fill:none;"/><g><circle cx="75" cy="75" r="75" style="fill:#f00;"/></g><g id="FIghter-Jet" serif:id="FIghter Jet"><path d="M125,24.507c0,0 -5.938,14.963 -14.348,24.618c-2.75,3.158 -11.846,13.829 -11.846,13.829c0,0 1.11,2.072 -0.453,4.081c-3.358,4.317 -16.397,17.216 -16.397,17.216l8.793,24.078l-5.661,5.661l-16.275,-17.219l-7.725,6.782l0,14.624c0,0 -8.019,6.604 -7.312,7.312c0.27,0.269 -6.286,-12.663 -6.286,-12.663l-9.999,-10.579l-12.491,-5.535l8.727,-8.727l11.322,0l8.197,-6.31l-18.179,-16.002l7.295,-7.366l21.501,9.236c0,0 11.974,-12.312 16.536,-15.892c2.041,-1.602 3.789,-0.148 3.789,-0.148c0,0 12.375,-9.829 15.74,-12.771c8.612,-7.53 25.072,-14.225 25.072,-14.225Z" style="fill:none;stroke:#fff;stroke-width:3.13px;"/><path d="M33.157,67.472l22.643,-22.644" style="fill:none;stroke:#fff;stroke-width:3.13px;"/><path d="M82.69,116.425l22.643,-22.643" style="fill:none;stroke:#fff;stroke-width:3.13px;"/><path d="M87.523,56.618c4.679,-4.68 9.584,-7.374 10.945,-6.013c1.361,1.361 -1.334,6.265 -6.013,10.945c-4.68,4.679 -9.584,7.374 -10.945,6.013c-1.361,-1.361 1.333,-6.266 6.013,-10.945Z" style="fill:none;stroke:#fff;stroke-width:3.13px;"/><path d="M53.116,95.995l-16.502,16.502" style="fill:none;stroke:#fff;stroke-width:3.13px;"/></g></svg>