<?xml version="1.0" encoding="UTF-8" standalone="no"?><!DOCTYPE svg PUBLIC "-//W3C//DTD SVG 1.1//EN" "http://www.w3.org/Graphics/SVG/1.1/DTD/svg11.dtd"><svg width="100%" height="100%" viewBox="0 0 150 150" version="1.1" xmlns="http://www.w3.org/2000/svg" xmlns:xlink="http://www.w3.org/1999/xlink" xml:space="preserve" xmlns:serif="http://www.serif.com/" style="fill-rule:evenodd;clip-rule:evenodd;stroke-linecap:round;stroke-miterlimit:3;"><rect id="gavel" x="0" y="0" width="150" height="150" style="fill:none;"/><g><circle cx="75" cy="75" r="75" style="fill:#f00;"/></g><g id="Gavel"><path d="M79.84,51.188l-24.064,24.063l-19.432,-19.432l24.063,-24.063l19.433,19.432Z" style="fill:none;stroke:#fff;stroke-width:3.13px;"/><path d="M27.355,56.534l2.729,-2.729c0.687,-0.687 1.804,-0.687 2.491,0l23.792,23.792c0.688,0.687 0.688,1.804 0,2.492l-2.729,2.728c-0.688,0.688 -1.804,0.688 -2.492,0l-23.791,-23.791c-0.688,-0.687 -0.688,-1.804 0,-2.492Z" style="fill:none;fill-rule:nonzero;stroke:#fff;stroke-width:3.13px;"/><path d="M58.354,25.5l2.664,-2.664c0.707,-0.708 1.856,-0.708 2.564,0l23.754,23.755c0.708,0.707 0.708,1.856 0,2.564l-2.664,2.663c-0.707,0.708 -1.856,0.708 -2.563,0l-23.755,-23.754c-0.707,-0.708 -0.707,-1.856 0,-2.564Z" style="fill:none;fill-rule:nonzero;stroke:#fff;stroke-width:3.13px;"/><path d="M29.167,114.106l0,-3.287c0,-1.372 0.769,-2.486 1.717,-2.486l39.838,0c0.947,0 1.717,1.114 1.717,2.486l0,3.287c0,1.372 -0.77,2.486 -1.717,2.486l-39.838,0c-0.948,0 -1.717,-1.114 -1.717,-2.486Z" style="fill:none;fill-rule:nonzero;stroke:#fff;stroke-width:3.13px;"/><path d="M35.259,106.152l0,-3.896c0,-1.204 0.652,-2.181 1.454,-2.181l29.246,0c0.802,0 1.454,0.977 1.454,2.181l0,3.896c0,1.204 -0.652,2.181 -1.454,2.181l-29.246,0c-0.802,0 -1.454,-0.977 -1.454,-2.181Z" style="fill:none;fill-rule:nonzero;stroke:#fff;stroke-width:3.13px;"/><path d="M119.343,115.311c-1.545,1.553 -4.243,1.878 -5.703,0.417c-0.033,-0.033 -16.388,-16.388 -49.066,-49.066l6.364,-6.294c32.654,33.026 48.998,49.555 49.031,49.588c1.391,1.391 0.814,3.907 -0.626,5.355Z" style="fill:none;fill-rule:nonzero;stroke:#fff;stroke-width:3.13px;"/></g></svg>