<?xml version="1.0" encoding="UTF-8" standalone="no"?><!DOCTYPE svg PUBLIC "-//W3C//DTD SVG 1.1//EN" "http://www.w3.org/Graphics/SVG/1.1/DTD/svg11.dtd"><svg width="100%" height="100%" viewBox="0 0 150 150" version="1.1" xmlns="http://www.w3.org/2000/svg" xmlns:xlink="http://www.w3.org/1999/xlink" xml:space="preserve" xmlns:serif="http://www.serif.com/" style="fill-rule:evenodd;clip-rule:evenodd;stroke-linecap:round;stroke-linejoin:round;stroke-miterlimit:1.5;"><rect id="gear" x="0" y="0" width="150" height="150" style="fill:none;"/><g id="bg-white"><circle cx="75" cy="75" r="75" style="fill:#f00;"/></g><circle cx="75" cy="75" r="20.833" style="fill:none;stroke:#fff;stroke-width:3.33px;"/><path d="M79.167,33.333c2.299,0 4.166,1.867 4.166,4.167l0,5.219c3.057,0.788 5.944,1.999 8.596,3.567l5.125,-5.125c1.626,-1.626 4.266,-1.626 5.892,0l5.893,5.893c1.626,1.626 1.626,4.266 0,5.892l-5.125,5.125c1.568,2.652 2.779,5.539 3.567,8.596l5.219,0c2.3,0 4.167,1.867 4.167,4.166l0,8.334c0,2.299 -1.867,4.166 -4.167,4.166l-5.219,0c-0.788,3.057 -1.999,5.944 -3.567,8.596l5.125,5.125c1.626,1.626 1.626,4.266 0,5.892l-5.893,5.893c-1.626,1.626 -4.266,1.626 -5.892,0l-5.125,-5.125c-2.652,1.568 -5.539,2.779 -8.596,3.567l0,5.219c0,2.3 -1.867,4.167 -4.166,4.167l-8.334,0c-2.299,0 -4.166,-1.867 -4.166,-4.167l0,-5.219c-3.057,-0.788 -5.944,-1.999 -8.596,-3.567l-5.125,5.125c-1.626,1.626 -4.266,1.626 -5.892,0l-5.893,-5.893c-1.626,-1.626 -1.626,-4.266 0,-5.892l5.125,-5.125c-1.568,-2.652 -2.779,-5.539 -3.567,-8.596l-5.219,0c-2.3,0 -4.167,-1.867 -4.167,-4.166l0,-8.334c0,-2.299 1.867,-4.166 4.167,-4.166l5.219,0c0.788,-3.057 1.999,-5.944 3.567,-8.596l-5.125,-5.125c-1.626,-1.626 -1.626,-4.266 0,-5.892l5.893,-5.893c1.626,-1.626 4.266,-1.626 5.892,0l5.125,5.125c2.652,-1.568 5.539,-2.779 8.596,-3.567l0,-5.219c0,-2.3 1.867,-4.167 4.166,-4.167l8.334,0Z" style="fill:none;stroke:#fff;stroke-width:3.33px;"/></svg>