<?xml version="1.0" encoding="UTF-8" standalone="no"?><!DOCTYPE svg PUBLIC "-//W3C//DTD SVG 1.1//EN" "http://www.w3.org/Graphics/SVG/1.1/DTD/svg11.dtd"><svg width="100%" height="100%" viewBox="0 0 150 150" version="1.1" xmlns="http://www.w3.org/2000/svg" xmlns:xlink="http://www.w3.org/1999/xlink" xml:space="preserve" xmlns:serif="http://www.serif.com/" style="fill-rule:evenodd;clip-rule:evenodd;stroke-linecap:round;stroke-linejoin:round;stroke-miterlimit:1.5;"><rect id="hand-peace" x="0" y="0" width="150" height="150" style="fill:none;"/><g><circle cx="75" cy="75" r="75" style="fill:#f00;"/></g><path d="M116.597,63.899c0,-4.595 -3.731,-8.326 -8.326,-8.326c-4.596,0 -8.327,3.731 -8.327,8.326l0,14.567c0,4.595 3.731,8.326 8.327,8.326c4.595,0 8.326,-3.731 8.326,-8.326l0,-14.567Z" style="fill:none;stroke:#fff;stroke-width:3.13px;"/><path d="M99.944,56.961c0,-4.596 -3.73,-8.327 -8.326,-8.327c-4.595,0 -8.326,3.731 -8.326,8.327l0,21.505c0,4.595 3.731,8.326 8.326,8.326c4.596,0 8.326,-3.731 8.326,-8.326l0,-21.505Z" style="fill:none;stroke:#fff;stroke-width:3.13px;"/><path d="M47.087,75.703l-8.204,-39.98c-0.924,-4.502 1.981,-8.906 6.483,-9.83c4.502,-0.924 8.906,1.981 9.83,6.483l8.716,42.478c-4.963,-0.035 -10.159,-0.03 -13.926,0.06c-1.068,0.025 -2.028,0.302 -2.899,0.789Z" style="fill:none;stroke:#fff;stroke-width:3.13px;"/><path d="M63.646,74.852l6.796,-42.829c0.72,-4.539 4.99,-7.639 9.528,-6.919c4.539,0.72 7.639,4.99 6.919,9.528l-6.683,42.114c-1.383,-1.066 -3.172,-1.702 -5.241,-1.745c-2.918,-0.061 -7.043,-0.12 -11.319,-0.149Z" style="fill:none;stroke:#fff;stroke-width:3.13px;"/><path d="M116.597,75.001c0,0 0.156,23.931 0,33.306c-0.156,9.374 -7.057,16.529 -16.653,16.652c-12.149,0.157 -37.983,-0.202 -49.958,0c-9.88,0.167 -16.679,-6.386 -16.653,-16.652c0.019,-7.288 5.97,-19.084 8.327,-24.98c1.932,-4.833 4.402,-8.32 8.326,-8.413c6.939,-0.165 18.729,-0.044 24.979,0.087c4.972,0.104 8.327,3.63 8.327,8.326c0,4.697 -3.477,8.312 -8.327,8.327c-3.879,0.012 -10.564,0.009 -13.854,0c-3.29,-0.009 -6.944,9.027 -6.944,9.027" style="fill:none;stroke:#fff;stroke-width:3.13px;"/></svg>