<?xml version="1.0" encoding="UTF-8" standalone="no"?><!DOCTYPE svg PUBLIC "-//W3C//DTD SVG 1.1//EN" "http://www.w3.org/Graphics/SVG/1.1/DTD/svg11.dtd"><svg width="100%" height="100%" viewBox="0 0 150 150" version="1.1" xmlns="http://www.w3.org/2000/svg" xmlns:xlink="http://www.w3.org/1999/xlink" xml:space="preserve" xmlns:serif="http://www.serif.com/" style="fill-rule:evenodd;clip-rule:evenodd;stroke-linecap:round;stroke-linejoin:round;stroke-miterlimit:1.5;"><rect id="handshake" x="0" y="0" width="150" height="150" style="fill:none;"/><g id="bg-white"><circle cx="75" cy="75" r="75" style="fill:#f00;"/></g><g><path d="M73.005,116.545c-2.538,2.539 -6.661,2.539 -9.199,0c-2.539,-2.538 -2.539,-6.66 0,-9.199l6.91,-6.895c2.539,-2.539 6.661,-2.539 9.2,0c2.538,2.539 2.538,6.661 0,9.199l-6.911,6.895Z" style="fill:none;stroke:#fff;stroke-width:3.33px;"/><path d="M59.973,111.179c-2.539,2.539 -6.661,2.539 -9.2,0c-2.539,-2.539 -2.539,-6.661 0,-9.199l10.744,-10.729c2.538,-2.538 6.66,-2.538 9.199,0c2.539,2.539 2.539,6.661 0,9.2l-10.743,10.728Z" style="fill:none;stroke:#fff;stroke-width:3.33px;"/><path d="M41.922,92.394c-2.539,2.538 -6.661,2.538 -9.199,0c-2.539,-2.539 -2.539,-6.661 0,-9.2l10.356,-10.38c2.539,-2.539 6.661,-2.539 9.2,0c2.538,2.539 2.538,6.661 0,9.2l-10.357,10.38Z" style="fill:none;stroke:#fff;stroke-width:3.33px;"/><path d="M46.936,105.817c-2.539,2.538 -6.661,2.538 -9.2,0c-2.538,-2.539 -2.538,-6.661 0,-9.2l14.581,-14.565c2.539,-2.539 6.661,-2.539 9.2,0c2.538,2.539 2.538,6.661 0,9.199l-14.581,14.566Z" style="fill:none;stroke:#fff;stroke-width:3.33px;"/><path d="M113.058,85.22c0,0 -0.08,0.127 4.416,-4.116c5.327,-5.027 5.233,-13.03 0,-18.399c-6.626,-6.798 -14.15,-13.99 -20.654,-20.717c-5.366,-5.55 -11.918,-2.911 -16.066,-2.317c-5.636,0.808 -12.64,0.752 -18.461,-4.589c-2.309,-2.119 -6.824,-2.383 -9.207,0c-2.383,2.384 -2.622,6.341 0,9.208c2.804,3.066 10.142,7.992 13.811,9.207c4.997,1.654 13.811,0 13.811,0" style="fill:none;stroke:#fff;stroke-width:3.33px;"/></g><path d="M80.357,110.689c0.394,0.361 0.664,0.421 2.959,2.539c4.079,3.764 7.168,2.059 9.227,0c2.538,-2.539 2.538,-6.661 0,-9.199l-17.537,-18.327" style="fill:none;stroke:#fff;stroke-width:3.33px;"/><path d="M70.363,118.819c4.079,3.764 7.168,2.059 9.226,0c2.539,-2.539 2.892,-6.307 0.353,-8.846" style="fill:none;stroke:#fff;stroke-width:3.33px;"/><path d="M84.266,76.502l21.298,21.016c2.538,2.539 2.538,6.661 0,9.2c-2.539,2.538 -6.661,2.538 -9.2,0l-21.345,-21.065" style="fill:none;stroke:#fff;stroke-width:3.33px;"/><path d="M80.357,54.269l29.445,29.431c2.539,2.538 2.539,6.66 0,9.199c-2.538,2.539 -6.66,2.539 -9.199,0l-16.397,-16.397" style="fill:none;stroke:#fff;stroke-width:3.33px;"/><path d="M33.948,81.442c0,0 -1.644,-1.611 -2.638,-2.639c-5.092,-5.265 -5.233,-13.03 0,-18.399c6.625,-6.798 13.052,-12.828 19.555,-19.555" style="fill:none;stroke:#fff;stroke-width:3.33px;"/><path d="M58.909,32.806c5.365,-5.551 12.741,-5.686 18.399,0c4.015,4.036 23.846,6.028 23.846,6.028c14.51,-0.201 11.24,12.445 4.378,11.166" style="fill:none;stroke:#fff;stroke-width:3.33px;"/></svg>