<?xml version="1.0" encoding="UTF-8" standalone="no"?><!DOCTYPE svg PUBLIC "-//W3C//DTD SVG 1.1//EN" "http://www.w3.org/Graphics/SVG/1.1/DTD/svg11.dtd"><svg width="100%" height="100%" viewBox="0 0 150 150" version="1.1" xmlns="http://www.w3.org/2000/svg" xmlns:xlink="http://www.w3.org/1999/xlink" xml:space="preserve" xmlns:serif="http://www.serif.com/" style="fill-rule:evenodd;clip-rule:evenodd;stroke-linecap:round;stroke-linejoin:round;stroke-miterlimit:1.5;"><rect id="hand-added" x="0" y="0" width="150" height="150" style="fill:none;"/><g id="bg-white"><circle cx="75" cy="75" r="75" style="fill:#f00;"/></g><path d="M93.229,54.167c1.437,0 2.604,1.167 2.604,2.604l0,4.687l4.688,0c1.437,0 2.604,1.167 2.604,2.605l0,5.208c0,1.437 -1.167,2.604 -2.604,2.604l-4.688,0l0,4.688c0,1.437 -1.167,2.604 -2.604,2.604l-5.208,0c-1.437,0 -2.604,-1.167 -2.604,-2.604l0,-4.688l-4.688,0c-1.437,0 -2.604,-1.167 -2.604,-2.604l0,-5.209c0,-1.437 1.167,-2.604 2.604,-2.604l4.688,0l0,-4.687c0,-1.437 1.167,-2.604 2.604,-2.604l5.208,0Z" style="fill:none;stroke:#fff;stroke-width:3.33px;"/><path d="M64.063,39.583c1.437,0 2.604,1.167 2.604,2.604l0,4.688l4.687,0c1.437,0 2.604,1.167 2.604,2.604l0,5.209c0,1.437 -1.167,2.604 -2.604,2.604l-4.687,0l0,4.687c0,1.437 -1.167,2.604 -2.604,2.604l-5.209,0c-1.437,0 -2.604,-1.167 -2.604,-2.604l0,-4.687l-4.688,0c-1.437,0 -2.604,-1.167 -2.604,-2.605l0,-5.208c0,-1.437 1.167,-2.604 2.604,-2.604l4.688,0l0,-4.688c0,-1.437 1.167,-2.604 2.604,-2.604l5.209,0Z" style="fill:none;stroke:#fff;stroke-width:3.33px;"/><path d="M59.419,97.886l22.829,0c3.473,0 6.294,-2.82 6.294,-6.294c0,-3.473 -2.821,-6.294 -6.294,-6.294l-26.996,0c-3.473,0 -10.974,-2.059 -15.669,-2.039c-4.228,0.018 -12.5,2.158 -12.5,2.158l0,20.833c0,0 8.962,-2.018 12.435,-1.995c3.014,0.021 4.124,1.849 8.399,2.144c6.704,-0.048 27.674,-0.057 40.224,-0.286c6.489,-0.118 30.115,-12.794 30.115,-12.794c6.819,-4.024 1.802,-11.852 -4.314,-9.849c0,0 -25.473,10.184 -25.746,10.184" style="fill:none;stroke:#fff;stroke-width:3.33px;"/></svg>