<?xml version="1.0" encoding="UTF-8" standalone="no"?><!DOCTYPE svg PUBLIC "-//W3C//DTD SVG 1.1//EN" "http://www.w3.org/Graphics/SVG/1.1/DTD/svg11.dtd"><svg width="100%" height="100%" viewBox="0 0 150 150" version="1.1" xmlns="http://www.w3.org/2000/svg" xmlns:xlink="http://www.w3.org/1999/xlink" xml:space="preserve" xmlns:serif="http://www.serif.com/" style="fill-rule:evenodd;clip-rule:evenodd;stroke-linecap:round;stroke-linejoin:round;stroke-miterlimit:1.5;"><rect id="hand-fist" x="0" y="0" width="150" height="150" style="fill:none;"/><g><circle cx="75" cy="75" r="75" style="fill:#f00;"/></g><path d="M116.597,55.537c0,-4.595 -3.731,-8.326 -8.326,-8.326c-4.596,0 -8.327,3.731 -8.327,8.326l0,14.567c0,4.595 3.731,8.326 8.327,8.326c4.595,0 8.326,-3.731 8.326,-8.326l0,-14.567Z" style="fill:none;stroke:#fff;stroke-width:3.13px;"/><path d="M99.944,48.598c0,-4.595 -3.73,-8.326 -8.326,-8.326c-4.595,0 -8.326,3.731 -8.326,8.326l0,21.506c0,4.595 3.731,8.326 8.326,8.326c4.596,0 8.326,-3.731 8.326,-8.326l0,-21.506Z" style="fill:none;stroke:#fff;stroke-width:3.13px;"/><path d="M66.639,66.552l0,-24.892c0,-4.596 3.731,-8.327 8.326,-8.327c4.596,0 8.327,3.731 8.327,8.327l0,24.979c0,1.482 -0.388,2.873 -1.068,4.079c-1.366,-2.43 -3.955,-4.01 -7.259,-4.079c-1.821,-0.038 -4.819,-0.068 -8.326,-0.087Z" style="fill:none;stroke:#fff;stroke-width:3.13px;"/><path d="M49.986,66.545l0,-17.947c0,-4.595 3.731,-8.326 8.327,-8.326c4.595,0 8.326,3.731 8.326,8.326l0,17.954c-5.161,-0.029 -11.423,-0.034 -16.653,-0.007Z" style="fill:none;stroke:#fff;stroke-width:3.13px;"/><path d="M116.597,66.639c0,0 0.156,23.931 0,33.305c-0.156,9.374 -7.057,16.53 -16.653,16.653c-12.149,0.156 -37.983,-0.202 -49.958,0c-9.88,0.167 -16.679,-6.386 -16.653,-16.653c0.019,-7.287 5.97,-19.083 8.327,-24.979c1.932,-4.833 4.402,-8.32 8.326,-8.413c6.939,-0.166 18.729,-0.044 24.979,0.087c4.972,0.104 8.327,3.63 8.327,8.326c0,4.696 -3.477,8.312 -8.327,8.327c-3.879,0.012 -10.564,0.009 -13.854,0c-3.29,-0.01 -6.944,9.027 -6.944,9.027" style="fill:none;stroke:#fff;stroke-width:3.13px;"/></svg>