<?xml version="1.0" encoding="UTF-8" standalone="no"?><!DOCTYPE svg PUBLIC "-//W3C//DTD SVG 1.1//EN" "http://www.w3.org/Graphics/SVG/1.1/DTD/svg11.dtd"><svg width="100%" height="100%" viewBox="0 0 150 150" version="1.1" xmlns="http://www.w3.org/2000/svg" xmlns:xlink="http://www.w3.org/1999/xlink" xml:space="preserve" xmlns:serif="http://www.serif.com/" style="fill-rule:evenodd;clip-rule:evenodd;stroke-linecap:round;stroke-linejoin:round;stroke-miterlimit:1.5;"><rect id="hand-thumsb-up" x="0" y="0" width="150" height="150" style="fill:none;"/><g><circle cx="75" cy="75" r="75" style="fill:#f00;"/></g><path d="M91.667,124.986c4.595,0 8.326,-3.731 8.326,-8.326c0,-4.596 -3.731,-8.327 -8.326,-8.327l-12.495,0.014c-4.596,0 -8.327,3.731 -8.327,8.327c0,4.595 3.731,8.326 8.327,8.326l12.495,-0.014Z" style="fill:none;stroke:#fff;stroke-width:3.13px;"/><path d="M98.605,108.333c4.596,0 8.327,-3.731 8.327,-8.326c0,-4.596 -3.731,-8.326 -8.327,-8.326l-19.433,0.013c-4.596,0 -8.327,3.731 -8.327,8.327c0,4.595 3.731,8.326 8.327,8.326l19.433,-0.014Z" style="fill:none;stroke:#fff;stroke-width:3.13px;"/><path d="M97.94,74.994c4.596,0 8.327,-3.731 8.327,-8.327c0,-4.595 -3.731,-8.326 -8.327,-8.326l-18.768,-0.021c-4.596,0 -8.327,3.73 -8.327,8.326c0,4.595 3.731,8.326 8.327,8.326l18.768,0.022Z" style="fill:none;stroke:#fff;stroke-width:3.13px;"/><path d="M105.551,91.681c4.596,0 8.327,-3.731 8.327,-8.327c0,-4.595 -3.731,-8.326 -8.327,-8.326l-26.379,0.014c-4.596,0 -8.327,3.731 -8.327,8.326c0,4.596 3.731,8.326 8.327,8.326l26.379,-0.013Z" style="fill:none;stroke:#fff;stroke-width:3.13px;"/><path d="M79.172,125.034c0,0 -15.585,0.053 -24.959,-0.103c-9.374,-0.157 -16.53,-7.058 -16.653,-16.653c-0.156,-12.15 0.145,-25.47 -0.058,-37.445c-0.166,-9.88 8.152,-13.421 12.445,-16.638c5.833,-4.37 12.121,-10.76 12.555,-20.862c0.173,-4.008 4.02,-8.333 8.334,-8.333c4.314,0 8.111,3.366 8.333,8.333c0.238,5.313 -1.945,16.413 -4.167,20.834c-3.025,6.019 -12.5,12.5 -12.5,12.5" style="fill:none;stroke:#fff;stroke-width:3.13px;"/><path d="M75.002,54.167c-0.025,2.567 1.03,4.182 4.17,4.153" style="fill:none;stroke:#fff;stroke-width:3.13px;"/></svg>