<?xml version="1.0" encoding="UTF-8" standalone="no"?><!DOCTYPE svg PUBLIC "-//W3C//DTD SVG 1.1//EN" "http://www.w3.org/Graphics/SVG/1.1/DTD/svg11.dtd"><svg width="100%" height="100%" viewBox="0 0 150 150" version="1.1" xmlns="http://www.w3.org/2000/svg" xmlns:xlink="http://www.w3.org/1999/xlink" xml:space="preserve" xmlns:serif="http://www.serif.com/" style="fill-rule:evenodd;clip-rule:evenodd;stroke-linecap:round;stroke-linejoin:round;stroke-miterlimit:1.5;"><rect id="heart" x="0" y="0" width="150" height="150" style="fill:none;"/><g id="bg-white"><circle cx="75" cy="75" r="75" style="fill:#f00;"/></g><path d="M31.321,57.011c-0.014,-0.341 -0.021,-0.684 -0.021,-1.029c0,-13.624 11.061,-24.685 24.685,-24.685c7.654,0 14.499,3.491 19.028,8.966c4.529,-5.475 11.374,-8.966 19.028,-8.966c13.624,0 24.685,11.061 24.685,24.685c0,0.345 -0.007,0.688 -0.021,1.029l0.021,0c0.693,14.371 -13.911,33.962 -43.199,59.656c-28.857,-24.324 -45.302,-44.745 -44.227,-59.656l0.021,0Z" style="fill:none;stroke:#fff;stroke-width:3.33px;"/><path d="M94.041,42.611c8.876,0.956 13.253,6.155 14.4,14.4" style="fill:none;stroke:#fff;stroke-width:3.33px;"/></svg>