<?xml version="1.0" encoding="UTF-8" standalone="no"?><!DOCTYPE svg PUBLIC "-//W3C//DTD SVG 1.1//EN" "http://www.w3.org/Graphics/SVG/1.1/DTD/svg11.dtd"><svg width="100%" height="100%" viewBox="0 0 150 150" version="1.1" xmlns="http://www.w3.org/2000/svg" xmlns:xlink="http://www.w3.org/1999/xlink" xml:space="preserve" xmlns:serif="http://www.serif.com/" style="fill-rule:evenodd;clip-rule:evenodd;stroke-linecap:round;stroke-linejoin:round;stroke-miterlimit:1.5;"><rect id="helmet" x="0" y="0" width="150" height="150" style="fill:none;"/><g><circle cx="75" cy="75" r="75" style="fill:#f00;"/></g><path d="M38.777,65.417l4.147,-6.365c0,0 0.364,-11.085 3.563,-17.297c3.595,-6.982 10.942,-16.751 29.009,-16.755c20.427,-0.005 27.129,12.941 29.744,17.238c2.571,4.223 3.701,16.614 3.701,16.614l4.478,6.43c0,0 -21.046,7.235 -37.454,7.241c-14.122,0.006 -37.188,-7.106 -37.188,-7.106Z" style="fill:none;stroke:#fff;stroke-width:3.13px;"/><path d="M108.89,58.651c0,0 -7.875,3.595 -15.201,5.246c-7.897,1.781 -17.487,1.884 -17.487,1.884" style="fill:none;stroke:#fff;stroke-width:3.13px;"/><path d="M68.812,42.419l7.395,-4.95l6.866,5.114" style="fill:none;stroke:#fff;stroke-width:3.13px;"/><path d="M68.812,50.718l7.395,-4.95l6.866,5.114" style="fill:none;stroke:#fff;stroke-width:3.13px;"/><path d="M42.281,67.094c0,0 0.06,5.978 -0.897,8.609c-0.956,2.63 -4.511,3.467 -4.842,7.174c-0.442,4.943 5.201,6.457 5.201,6.457" style="fill:none;stroke:#fff;stroke-width:3.13px;"/><path d="M108.261,66.914c0,0 1.196,5.799 2.152,8.43c0.957,2.631 2.718,4.902 3.049,8.609c0.442,4.943 -6.277,6.098 -6.277,6.098" style="fill:none;stroke:#fff;stroke-width:3.13px;"/><path d="M62.764,87.292c0,0 5.797,-4.019 12.707,-3.958c7.535,0.067 13.124,4.166 13.124,4.166l0,33.123c0,0 -6.596,4.492 -13.124,4.375c-6.32,-0.114 -12.707,-4.375 -12.707,-4.375l0,-33.331Z" style="fill:none;stroke:#fff;stroke-width:3.13px;"/><path d="M75.679,93.792l0,25.231" style="fill:none;stroke:#fff;stroke-width:3.13px;"/><path d="M69.43,96.238l0,20.583" style="fill:none;stroke:#fff;stroke-width:3.13px;"/><path d="M82.554,96.238l0,20.583" style="fill:none;stroke:#fff;stroke-width:3.13px;"/><circle cx="90.679" cy="81.25" r="2.083" style="fill:#ec1f27;stroke:#fff;stroke-width:3.13px;"/><circle cx="95.948" cy="76.459" r="2.083" style="fill:#ec1f27;stroke:#fff;stroke-width:3.13px;"/><path d="M57.869,76.028c0,1.15 -0.933,2.084 -2.083,2.084c-1.15,0 -2.084,-0.934 -2.084,-2.084c0,-1.149 0.934,-2.083 2.084,-2.083c1.15,0 2.083,0.934 2.083,2.083Z" style="fill:#ec1f27;stroke:#fff;stroke-width:3.13px;"/><path d="M62.036,81.617c0,1.15 -0.934,2.083 -2.084,2.083c-1.149,0 -2.083,-0.933 -2.083,-2.083c0,-1.15 0.934,-2.083 2.083,-2.083c1.15,0 2.084,0.933 2.084,2.083Z" style="fill:#ec1f27;stroke:#fff;stroke-width:3.13px;"/><path d="M77.563,88.512c0,1.15 -0.934,2.083 -2.084,2.083c-1.15,0 -2.083,-0.933 -2.083,-2.083c0,-1.15 0.933,-2.084 2.083,-2.084c1.15,0 2.084,0.934 2.084,2.084Z" style="fill:#ec1f27;stroke:#fff;stroke-width:3.13px;"/></svg>