<?xml version="1.0" encoding="UTF-8" standalone="no"?><!DOCTYPE svg PUBLIC "-//W3C//DTD SVG 1.1//EN" "http://www.w3.org/Graphics/SVG/1.1/DTD/svg11.dtd"><svg width="100%" height="100%" viewBox="0 0 150 150" version="1.1" xmlns="http://www.w3.org/2000/svg" xmlns:xlink="http://www.w3.org/1999/xlink" xml:space="preserve" xmlns:serif="http://www.serif.com/" style="fill-rule:evenodd;clip-rule:evenodd;stroke-linecap:round;stroke-linejoin:round;stroke-miterlimit:1.5;"><rect id="migrant-family" x="0" y="0" width="150" height="150" style="fill:none;"/><g id="bg-white"><circle cx="75" cy="75" r="75" style="fill:#f00;"/></g><path d="M52.141,51.427c-3.401,-2.049 -4.727,-6.772 -4.524,-9.209c0.352,-4.216 4.054,-8.885 9.047,-8.885c4.994,0 8.78,4.238 9.047,8.885c0.158,2.75 -1.298,7.143 -4.523,9.209l9.047,0c2.563,-0.039 5.905,0.618 6.551,3.029l5.528,25.155c0.647,2.411 -0.787,4.894 -3.198,5.54c-2.412,0.646 -4.894,-0.787 -5.54,-3.199l-3.341,-12.467l0,40.748c0,2.496 -2.027,4.523 -4.524,4.523c-2.496,0 -4.523,-2.027 -4.523,-4.523l0,-13.571l-9.047,0l0,13.571c0,2.496 -2.027,4.523 -4.524,4.523c-2.496,0 -4.523,-2.027 -4.523,-4.523l0,-15.67l0,-25.042l-1.95,13.447c-0.646,2.412 -3.129,3.845 -5.54,3.199c-2.412,-0.646 -3.845,-3.129 -3.199,-5.54l5.854,-26.37c0.662,-2.374 2.974,-2.715 5.696,-2.83l8.186,0Zm-8.19,-0.007c0.015,0.001 0.035,0.006 0.004,0.007c-2.722,0.115 -5.034,0.456 -5.696,2.83l-5.854,26.37c-0.646,2.411 0.787,4.894 3.199,5.54c2.411,0.646 4.894,-0.787 5.54,-3.199l1.95,-13.447l0,40.712c0,2.496 2.027,4.523 4.523,4.523c2.497,0 4.524,-2.027 4.524,-4.523l0,-13.571l9.047,0l0,13.571c0,2.496 2.027,4.523 4.523,4.523c2.497,0 4.524,-2.027 4.524,-4.523l0,-40.748l3.341,12.467c0.646,2.412 3.128,3.845 5.54,3.199c2.411,-0.646 3.845,-3.129 3.198,-5.54l-5.528,-25.155c-0.646,-2.411 -3.988,-3.068 -6.551,-3.029c-0.373,0.006 0,0 0,0" style="fill:none;stroke:#fff;stroke-width:3.33px;"/><path d="M34.047,94.4c0,-1.248 -1.013,-2.261 -2.262,-2.261l-4.523,0c-1.249,0 -2.262,1.013 -2.262,2.261l0,18.094c0,1.249 1.013,2.262 2.262,2.262l4.523,0c1.249,0 2.262,-1.013 2.262,-2.262l0,-18.094Z" style="fill:none;stroke:#fff;stroke-width:3.33px;"/><path d="M29.523,87.615l0,4.524" style="fill:none;stroke:#fff;stroke-width:3.33px;"/><path d="M99.638,78.568c-1.465,-1.658 -2.262,-3.161 -2.262,-6.785c0,-3.745 3.04,-6.785 6.785,-6.785c3.745,0 6.728,3.041 6.785,6.785c0.052,3.368 -1.104,5.804 -2.261,6.785c4.315,0.004 4.674,-0.015 6.785,0c1.177,0.009 2.037,1.361 2.62,2.37l6.397,11.081c1.056,1.829 0.429,4.173 -1.401,5.229c-1.83,1.056 -4.173,0.428 -5.23,-1.401l-2.386,-4.134l0,18.52c0,2.496 -2.027,4.523 -4.524,4.523c-2.496,0 -4.523,-2.027 -4.523,-4.523l0,-9.047c0,0 -4.524,0 -4.524,0c0,0 0,9.047 0,9.047c0,2.496 -2.027,4.523 -4.523,4.523c-2.497,0 -4.524,-2.027 -4.524,-4.523l0,-19.54l-1.872,5.03c-0.737,1.98 -2.943,2.99 -4.923,2.253c-1.98,-0.737 -2.989,-2.943 -2.252,-4.923l4.463,-11.991c0.695,-1.868 2.845,-2.472 4.584,-2.494c2.023,-0.025 2.415,-0.001 6.786,0Z" style="fill:none;stroke:#fff;stroke-width:3.33px;"/></svg>