<?xml version="1.0" encoding="UTF-8" standalone="no"?><!DOCTYPE svg PUBLIC "-//W3C//DTD SVG 1.1//EN" "http://www.w3.org/Graphics/SVG/1.1/DTD/svg11.dtd"><svg width="100%" height="100%" viewBox="0 0 150 150" version="1.1" xmlns="http://www.w3.org/2000/svg" xmlns:xlink="http://www.w3.org/1999/xlink" xml:space="preserve" xmlns:serif="http://www.serif.com/" style="fill-rule:evenodd;clip-rule:evenodd;stroke-linecap:round;stroke-linejoin:round;stroke-miterlimit:1.5;"><rect id="migrant-boat" x="0" y="0" width="150" height="150" style="fill:none;"/><g id="bg-white"><circle cx="75" cy="75" r="75" style="fill:#f00;"/></g><path d="M33.333,91.667l0,25l62.5,0c13.272,-0.118 20.02,-12.342 20.834,-25l-83.334,0Z" style="fill:none;stroke:#fff;stroke-width:3.33px;"/><circle cx="95.833" cy="104.167" r="4.167" style="fill:none;stroke:#fff;stroke-width:3.33px;"/><circle cx="75" cy="104.167" r="4.167" style="fill:none;stroke:#fff;stroke-width:3.33px;"/><circle cx="54.167" cy="104.167" r="4.167" style="fill:none;stroke:#fff;stroke-width:3.33px;"/><path d="M75,62.5l0,-29.167" style="fill:none;stroke:#fff;stroke-width:3.33px;"/><path d="M53.125,74.163l0,0.837c-1.725,0 -3.125,1.4 -3.125,3.125l0,3.305c-3.85,3.826 -8.02,7.233 -12.5,10.237m37.5,-54.167c-3.274,11.003 -7.609,20.622 -12.943,28.937" style="fill:none;stroke:#fff;stroke-width:3.33px;"/><path d="M53.125,74.163c-1.868,-1.082 -3.125,-3.102 -3.125,-5.413c0,-3.449 2.801,-6.25 6.25,-6.25c3.449,0 6.25,2.801 6.25,6.25c0,2.311 -1.257,4.331 -3.125,5.413l0,0.837c1.725,0 3.125,1.4 3.125,3.125l0,10.417c0,1.724 -1.4,3.125 -3.125,3.125l-6.25,0c-1.725,0 -3.125,-1.401 -3.125,-3.125l0,-10.417c0,-1.725 1.4,-3.125 3.125,-3.125l0,-0.837Z" style="fill:none;stroke:#fff;stroke-width:3.33px;"/><path d="M75,37.5c42.01,0.132 41.903,54.199 29.167,54.167" style="fill:none;stroke:#fff;stroke-width:3.33px;"/><path d="M73.958,74.163c-1.867,-1.082 -3.125,-3.102 -3.125,-5.413c0,-3.449 2.801,-6.25 6.25,-6.25c3.45,0 6.25,2.801 6.25,6.25c0,2.311 -1.257,4.331 -3.125,5.413l0,0.837c1.725,0 3.125,1.4 3.125,3.125l0,10.417c0,1.724 -1.4,3.125 -3.125,3.125l-6.25,0c-1.724,0 -3.125,-1.401 -3.125,-3.125l0,-10.417c0,-1.725 1.401,-3.125 3.125,-3.125l0,-0.837Z" style="fill:none;stroke:#fff;stroke-width:3.33px;"/><path d="M94.792,74.163c-1.868,-1.082 -3.125,-3.102 -3.125,-5.413c0,-3.449 2.8,-6.25 6.25,-6.25c3.449,0 6.25,2.801 6.25,6.25c0,2.311 -1.258,4.331 -3.125,5.413l0,0.837c1.724,0 3.125,1.4 3.125,3.125l0,10.417c0,1.724 -1.401,3.125 -3.125,3.125l-6.25,0c-1.725,0 -3.125,-1.401 -3.125,-3.125l0,-10.417c0,-1.725 1.4,-3.125 3.125,-3.125l0,-0.837Z" style="fill:none;stroke:#fff;stroke-width:3.33px;"/></svg>