<?xml version="1.0" encoding="UTF-8" standalone="no"?><!DOCTYPE svg PUBLIC "-//W3C//DTD SVG 1.1//EN" "http://www.w3.org/Graphics/SVG/1.1/DTD/svg11.dtd"><svg width="100%" height="100%" viewBox="0 0 150 150" version="1.1" xmlns="http://www.w3.org/2000/svg" xmlns:xlink="http://www.w3.org/1999/xlink" xml:space="preserve" xmlns:serif="http://www.serif.com/" style="fill-rule:evenodd;clip-rule:evenodd;stroke-linecap:round;stroke-linejoin:round;stroke-miterlimit:1.5;"><rect id="oil-pumpjack" x="0" y="0" width="150" height="150" style="fill:none;"/><g id="bg-white"><circle cx="75" cy="75" r="75" style="fill:#f00;"/></g><path d="M41.667,83.333l0,20.834" style="fill:none;stroke:#fff;stroke-width:3.33px;"/><path d="M50,105.417c0,-0.69 -0.56,-1.25 -1.25,-1.25l-14.167,0c-0.69,0 -1.25,0.56 -1.25,1.25l0,10c0,0.69 0.56,1.25 1.25,1.25l14.167,0c0.69,0 1.25,-0.56 1.25,-1.25l0,-10Z" style="fill:none;stroke:#fff;stroke-width:3.33px;"/><path d="M110.621,55.998c1.992,-1.15 2.675,-3.7 1.525,-5.692l-9.375,-16.237c-1.15,-1.992 -3.7,-2.675 -5.692,-1.526l-5.412,3.125l13.541,23.455l5.413,-3.125Z" style="fill:none;stroke:#fff;stroke-width:3.33px;"/><path d="M81.246,61.418l16.651,-9.614c0.995,-0.575 1.337,-1.85 0.762,-2.846l-2.083,-3.608c-0.575,-0.996 -1.85,-1.338 -2.846,-0.763l-16.592,9.58" style="fill:none;stroke:#fff;stroke-width:3.33px;"/><path d="M68.787,58.988l-29.184,16.849c-0.995,0.575 -1.337,1.85 -0.762,2.846l2.083,3.609c0.575,0.995 1.85,1.337 2.846,0.762l28.384,-16.387" style="fill:none;stroke:#fff;stroke-width:3.33px;"/><circle cx="75" cy="60.417" r="6.25" style="fill:none;stroke:#fff;stroke-width:3.33px;"/><path d="M73.148,66.667l-14.815,50l33.334,0l-14.815,-50" style="fill:none;stroke:#fff;stroke-width:3.33px;"/><path d="M58.333,116.667l22.917,-33.334" style="fill:none;stroke:#fff;stroke-width:3.33px;"/><path d="M91.667,116.667l-22.917,-33.334" style="fill:none;stroke:#fff;stroke-width:3.33px;"/></svg>