<?xml version="1.0" encoding="UTF-8" standalone="no"?><!DOCTYPE svg PUBLIC "-//W3C//DTD SVG 1.1//EN" "http://www.w3.org/Graphics/SVG/1.1/DTD/svg11.dtd"><svg width="100%" height="100%" viewBox="0 0 150 150" version="1.1" xmlns="http://www.w3.org/2000/svg" xmlns:xlink="http://www.w3.org/1999/xlink" xml:space="preserve" xmlns:serif="http://www.serif.com/" style="fill-rule:evenodd;clip-rule:evenodd;stroke-linecap:round;stroke-linejoin:round;stroke-miterlimit:1.5;"><rect id="passport" x="0" y="0" width="150" height="150" style="fill:none;"/><g id="bg-white"><circle cx="75" cy="75" r="75" style="fill:#f00;"/></g><path d="M116.667,33.333l0,91.667l-66.667,0l0,-8.333l50,0l0,-83.334l16.667,0Z" style="fill:none;stroke:#fff;stroke-width:3.33px;"/><rect x="33.333" y="25" width="66.667" height="91.667" style="fill:none;stroke:#fff;stroke-width:3.33px;"/><path d="M100,100l8.333,0" style="fill:none;stroke:#fff;stroke-width:3.33px;"/><path d="M100,91.667l8.333,0" style="fill:none;stroke:#fff;stroke-width:3.33px;"/><path d="M100,83.333l8.333,0" style="fill:none;stroke:#fff;stroke-width:3.33px;"/><path d="M100,75l8.333,0" style="fill:none;stroke:#fff;stroke-width:3.33px;"/><path d="M100,66.667l8.333,0" style="fill:none;stroke:#fff;stroke-width:3.33px;"/><path d="M100,58.333l8.333,0" style="fill:none;stroke:#fff;stroke-width:3.33px;"/><path d="M100,50l8.333,0" style="fill:none;stroke:#fff;stroke-width:3.33px;"/><path d="M45.833,91.667l41.667,0" style="fill:none;stroke:#fff;stroke-width:3.33px;"/><path d="M45.833,100l41.667,0" style="fill:none;stroke:#fff;stroke-width:3.33px;"/><circle cx="66.667" cy="58.333" r="20.833" style="fill:none;stroke:#fff;stroke-width:3.33px;"/><path d="M66.667,37.5l0,41.667" style="fill:none;stroke:#fff;stroke-width:3.33px;"/><path d="M84.896,53.125l-36.459,0" style="fill:none;stroke:#fff;stroke-width:3.33px;"/><path d="M84.896,63.542l-36.459,0" style="fill:none;stroke:#fff;stroke-width:3.33px;"/><path d="M66.667,37.5c14.02,13.902 15.414,27.793 0,41.667" style="fill:none;stroke:#fff;stroke-width:3.33px;"/><path d="M66.667,37.5c-14.181,12.708 -15.274,26.506 0,41.667" style="fill:none;stroke:#fff;stroke-width:3.33px;"/></svg>