<?xml version="1.0" encoding="UTF-8" standalone="no"?><!DOCTYPE svg PUBLIC "-//W3C//DTD SVG 1.1//EN" "http://www.w3.org/Graphics/SVG/1.1/DTD/svg11.dtd"><svg width="100%" height="100%" viewBox="0 0 150 150" version="1.1" xmlns="http://www.w3.org/2000/svg" xmlns:xlink="http://www.w3.org/1999/xlink" xml:space="preserve" xmlns:serif="http://www.serif.com/" style="fill-rule:evenodd;clip-rule:evenodd;stroke-linecap:round;stroke-linejoin:round;stroke-miterlimit:1.5;"><rect id="picket-line" x="0" y="0" width="150" height="150" style="fill:none;"/><g id="bg-white"><circle cx="75" cy="75" r="75" style="fill:#f00;"/></g><path d="M79.079,54.972l-2.521,-16.237c-0.124,-0.796 -0.869,-1.341 -1.665,-1.218l-42.408,6.586c-0.796,0.123 -1.341,0.869 -1.218,1.665l4.028,25.939c0.124,0.795 0.87,1.34 1.665,1.217l31.486,-4.69" style="fill:none;stroke:#fff;stroke-width:3.33px;"/><path d="M116.231,64.374c0.163,-0.788 -0.345,-1.56 -1.133,-1.723l-42.034,-8.663c-0.788,-0.163 -1.56,0.345 -1.722,1.133l-5.299,25.71c-0.163,0.788 0.345,1.56 1.133,1.723l42.033,8.664c0.789,0.162 1.561,-0.346 1.723,-1.134l5.299,-25.71Z" style="fill:none;stroke:#fff;stroke-width:3.33px;"/><path d="M58.197,70.026l4.123,26.368" style="fill:none;stroke:#fff;stroke-width:3.33px;"/><path d="M87.772,88.926l-5.047,24.485" style="fill:none;stroke:#fff;stroke-width:3.33px;"/><path d="M53.256,38.021l0.433,2.789" style="fill:none;stroke:#fff;stroke-width:3.33px;"/><path d="M94.575,55.923l-0.147,0.712" style="fill:none;stroke:#fff;stroke-width:3.33px;"/></svg>