<?xml version="1.0" encoding="UTF-8" standalone="no"?><!DOCTYPE svg PUBLIC "-//W3C//DTD SVG 1.1//EN" "http://www.w3.org/Graphics/SVG/1.1/DTD/svg11.dtd"><svg width="100%" height="100%" viewBox="0 0 150 150" version="1.1" xmlns="http://www.w3.org/2000/svg" xmlns:xlink="http://www.w3.org/1999/xlink" xml:space="preserve" xmlns:serif="http://www.serif.com/" style="fill-rule:evenodd;clip-rule:evenodd;stroke-linecap:round;stroke-linejoin:round;stroke-miterlimit:1.5;"><rect id="recycle" x="0" y="0" width="150" height="150" style="fill:none;"/><g><circle cx="75" cy="75" r="75" style="fill:#f00;"/></g><path d="M86.812,113.361l15.89,0c17.154,0.024 21.339,-10.785 15.891,-23.277l-17.678,-34.528" style="fill:none;stroke:#fff;stroke-width:3.13px;"/><path d="M94.757,43.53l-3.972,-7.76c-7.949,-14.36 -23.839,-14.36 -31.781,0l-11.918,23.278" style="fill:none;stroke:#fff;stroke-width:3.13px;"/><path d="M42.283,70.686l-11.087,19.398c-4.973,11.945 -1.222,22.607 15.89,23.277l27.808,0" style="fill:none;stroke:#fff;stroke-width:3.13px;"/><path d="M62.976,101.723l11.918,11.638l-11.918,11.639" style="fill:none;stroke:#fff;stroke-width:3.13px;"/><path d="M94.757,70.646l5.733,-15.478l15.849,5.599" style="fill:none;stroke:#fff;stroke-width:3.13px;"/><path d="M62.976,55.081l-16.261,4.329l-4.432,-15.88" style="fill:none;stroke:#fff;stroke-width:3.13px;"/></svg>