<?xml version="1.0" encoding="UTF-8" standalone="no"?><!DOCTYPE svg PUBLIC "-//W3C//DTD SVG 1.1//EN" "http://www.w3.org/Graphics/SVG/1.1/DTD/svg11.dtd"><svg width="100%" height="100%" viewBox="0 0 150 150" version="1.1" xmlns="http://www.w3.org/2000/svg" xmlns:xlink="http://www.w3.org/1999/xlink" xml:space="preserve" xmlns:serif="http://www.serif.com/" style="fill-rule:evenodd;clip-rule:evenodd;stroke-linecap:round;stroke-linejoin:round;stroke-miterlimit:1.5;"><rect id="rose" x="0" y="0" width="150" height="150" style="fill:none;"/><g><circle cx="75" cy="75" r="75" style="fill:#f00;"/></g><path d="M41.667,36.957c4.679,1.951 7.006,4.506 7.812,16.043l0,16c0.477,12.933 16.112,19.844 23.438,20c7.493,0.159 11.718,-4 11.718,-4c-2.763,-26.035 -16.279,-42.566 -42.968,-48.043Z" style="fill:none;stroke:#fff;stroke-width:3.13px;"/><path d="M96.354,53c0.221,-6.148 1.947,-13.049 7.813,-16c-9.216,-0.499 -23.532,3.402 -35.457,10.286c7.605,10.02 14.294,23.508 15.925,37.714c8.745,-4.636 11.223,-18.182 11.719,-32Z" style="fill:none;stroke:#fff;stroke-width:3.13px;"/><path d="M57.292,41l0,-16c0,0 17.2,13.087 20.432,17.714l-9.014,6.286c-7.309,-4.809 -6.83,-4.722 -11.418,-8Z" style="fill:none;stroke:#fff;stroke-width:3.13px;"/><path d="M72.917,36.957c2.493,-2.493 11.718,-11.957 11.718,-11.957c0,0 5.619,9.768 7.813,11.957l-14.724,5.757c-5.637,-6.011 -1.34,-1.894 -4.807,-5.757Z" style="fill:none;stroke:#fff;stroke-width:3.13px;"/><path d="M72.917,108.333c0.473,2.729 19.848,4.809 22.836,-10.762c-11.152,-5.049 -20.726,1.521 -22.836,10.762Z" style="fill:none;stroke:#fff;stroke-width:3.13px;"/><path d="M65.104,125c6.06,-10.834 11.048,-22.562 7.813,-36" style="fill:none;stroke:#fff;stroke-width:3.13px;"/><path d="M72.917,109c-2.254,-1.829 -8.44,-2.441 -11.719,-4l7.812,8" style="fill:none;stroke:#fff;stroke-width:3.13px;"/></svg>