<?xml version="1.0" encoding="UTF-8" standalone="no"?><!DOCTYPE svg PUBLIC "-//W3C//DTD SVG 1.1//EN" "http://www.w3.org/Graphics/SVG/1.1/DTD/svg11.dtd"><svg width="100%" height="100%" viewBox="0 0 150 150" version="1.1" xmlns="http://www.w3.org/2000/svg" xmlns:xlink="http://www.w3.org/1999/xlink" xml:space="preserve" xmlns:serif="http://www.serif.com/" style="fill-rule:evenodd;clip-rule:evenodd;stroke-linecap:round;stroke-linejoin:round;stroke-miterlimit:1.5;"><rect id="scales" x="0" y="0" width="150" height="150" style="fill:none;"/><g><circle cx="75" cy="75" r="75" style="fill:#f00;"/></g><path d="M54.167,68.75l-29.167,0c0,8.049 6.535,14.583 14.583,14.583c8.049,0 14.584,-6.534 14.584,-14.583Z" style="fill:none;stroke:#fff;stroke-width:3.13px;"/><path d="M125,68.75l-29.167,0c0,8.049 6.535,14.583 14.584,14.583c8.048,0 14.583,-6.534 14.583,-14.583Z" style="fill:none;stroke:#fff;stroke-width:3.13px;"/><path d="M75,25l0,100" style="fill:none;stroke:#fff;stroke-width:3.13px;"/><path d="M29.167,68.75l10.416,-31.25l10.417,31.25l-20.833,0Z" style="fill:none;stroke:#fff;stroke-width:3.13px;"/><path d="M100,68.75l10.417,-31.25l10.416,31.25l-20.833,0Z" style="fill:none;stroke:#fff;stroke-width:3.13px;"/><path d="M25,37.5l100,0" style="fill:none;stroke:#fff;stroke-width:3.13px;"/><path d="M41.667,125l66.666,0" style="fill:none;stroke:#fff;stroke-width:3.13px;"/></svg>