<?xml version="1.0" encoding="UTF-8" standalone="no"?><!DOCTYPE svg PUBLIC "-//W3C//DTD SVG 1.1//EN" "http://www.w3.org/Graphics/SVG/1.1/DTD/svg11.dtd"><svg width="100%" height="100%" viewBox="0 0 150 150" version="1.1" xmlns="http://www.w3.org/2000/svg" xmlns:xlink="http://www.w3.org/1999/xlink" xml:space="preserve" xmlns:serif="http://www.serif.com/" style="fill-rule:evenodd;clip-rule:evenodd;stroke-linecap:round;stroke-linejoin:round;stroke-miterlimit:1.5;"><rect id="smoke" x="0" y="0" width="150" height="150" style="fill:none;"/><g id="bg-white"><circle cx="75" cy="75" r="75" style="fill:#f00;"/></g><path d="M31.25,85.417l16.667,0" style="fill:none;stroke:#fff;stroke-width:3.33px;"/><path d="M31.25,77.083l16.667,0" style="fill:none;stroke:#fff;stroke-width:3.33px;"/><path d="M31.25,68.75l14.583,0" style="fill:none;stroke:#fff;stroke-width:3.33px;"/><path d="M31.25,60.417l14.583,0" style="fill:none;stroke:#fff;stroke-width:3.33px;"/><path d="M31.25,52.083l18.75,0" style="fill:none;stroke:#fff;stroke-width:3.33px;"/><path d="M31.25,43.75l42.857,0" style="fill:none;stroke:#fff;stroke-width:3.33px;"/><path d="M31.25,35.417l87.5,0" style="fill:none;stroke:#fff;stroke-width:3.33px;"/><path d="M97.917,43.75l20.833,0" style="fill:none;stroke:#fff;stroke-width:3.33px;"/><path d="M106.25,52.083l12.5,0" style="fill:none;stroke:#fff;stroke-width:3.33px;"/><path d="M113.333,60.417l5.417,0" style="fill:none;stroke:#fff;stroke-width:3.33px;"/><path d="M116.403,68.75l2.347,0" style="fill:none;stroke:#fff;stroke-width:3.33px;"/><path d="M116.667,77.083l2.083,0" style="fill:none;stroke:#fff;stroke-width:3.33px;"/><path d="M116.667,85.417l2.083,0" style="fill:none;stroke:#fff;stroke-width:3.33px;"/><path d="M117.708,93.75l1.042,0" style="fill:none;stroke:#fff;stroke-width:3.33px;"/><path d="M66.667,66.667c3.428,-5.724 11.792,-5.505 14.583,0" style="fill:none;stroke:#fff;stroke-width:3.33px;"/><path d="M85.417,81.25c3.428,-5.723 11.792,-5.505 14.583,0" style="fill:none;stroke:#fff;stroke-width:3.33px;"/><path d="M75,97.917c3.428,-5.724 11.792,-5.505 14.583,0" style="fill:none;stroke:#fff;stroke-width:3.33px;"/><path d="M73.663,53.87c2.656,-3.609 6.933,-5.953 11.754,-5.953c6.772,0 12.473,4.627 14.11,10.889c6.263,1.637 10.89,7.338 10.89,14.111c0,3.097 -0.968,5.97 -2.617,8.333c2.014,1.739 2.956,9.103 2.46,10.474c2.669,2.644 4.323,6.31 4.323,10.359c0,8.049 -6.534,14.584 -14.583,14.584c-3.569,0 -6.839,-1.285 -9.375,-3.416c-2.536,2.131 -5.806,3.416 -9.375,3.416c-4.079,0 -7.769,-1.679 -10.417,-4.382c-2.647,2.703 -6.337,4.382 -10.416,4.382c-8.049,0 -14.584,-6.535 -14.584,-14.584c0,-6.629 4.433,-12.231 10.493,-14.001c0.33,-3.219 1.709,-6.131 3.79,-8.385c-4.763,-2.401 -8.033,-7.337 -8.033,-13.03c0,-8.049 6.535,-14.584 14.584,-14.584c2.534,0 4.918,0.648 6.996,1.787Z" style="fill:none;stroke:#fff;stroke-width:3.33px;"/></svg>