<?xml version="1.0" encoding="UTF-8" standalone="no"?><!DOCTYPE svg PUBLIC "-//W3C//DTD SVG 1.1//EN" "http://www.w3.org/Graphics/SVG/1.1/DTD/svg11.dtd"><svg width="100%" height="100%" viewBox="0 0 150 150" version="1.1" xmlns="http://www.w3.org/2000/svg" xmlns:xlink="http://www.w3.org/1999/xlink" xml:space="preserve" xmlns:serif="http://www.serif.com/" style="fill-rule:evenodd;clip-rule:evenodd;stroke-linecap:round;stroke-linejoin:round;stroke-miterlimit:1.5;"><rect id="socks" x="0" y="0" width="150" height="150" style="fill:none;"/><g id="bg-white"><circle cx="75" cy="75" r="75" style="fill:#f00;"/></g><path d="M70.313,29.167c3.737,0 6.77,3.034 6.77,6.77l0,33.654c0,0 -0.076,1.888 -0.219,2.435c-0.475,2.617 -1.723,5.12 -3.744,7.141l-19.151,19.15c-5.285,5.285 -13.866,5.285 -19.151,0c-5.285,-5.284 -5.285,-13.866 0,-19.15l15.182,-15.182l0,-28.048c0,-3.736 3.034,-6.77 6.771,-6.77l13.542,0Z" style="fill:none;stroke:#fff;stroke-width:3.33px;"/><path d="M107.813,43.552c3.737,0 6.77,3.034 6.77,6.771l0,33.654c0,0 -0.076,1.887 -0.219,2.435c-0.475,2.616 -1.723,5.119 -3.744,7.14l-19.151,19.151c-5.285,5.285 -13.866,5.285 -19.151,0c-5.285,-5.285 -5.285,-13.866 0,-19.151l15.182,-15.182l0,-28.047c0,-3.737 3.034,-6.771 6.771,-6.771l13.542,0Z" style="fill:none;stroke:#fff;stroke-width:3.33px;"/><path d="M50,39.583l27.083,0" style="fill:none;stroke:#fff;stroke-width:3.33px;"/><path d="M87.5,53.969l27.083,0" style="fill:none;stroke:#fff;stroke-width:3.33px;"/><path d="M34.174,80.007l18.662,18.662" style="fill:none;stroke:#fff;stroke-width:3.33px;"/><path d="M71.674,94.393l18.662,18.661" style="fill:none;stroke:#fff;stroke-width:3.33px;"/><path d="M68.75,83.333c-8.724,-7.981 -2.746,-21.118 8.333,-18.75" style="fill:none;stroke:#fff;stroke-width:3.33px;"/><path d="M106.25,97.719c-8.724,-7.982 -2.746,-21.119 8.333,-18.75" style="fill:none;stroke:#fff;stroke-width:3.33px;"/></svg>