<?xml version="1.0" encoding="UTF-8" standalone="no"?><!DOCTYPE svg PUBLIC "-//W3C//DTD SVG 1.1//EN" "http://www.w3.org/Graphics/SVG/1.1/DTD/svg11.dtd"><svg width="100%" height="100%" viewBox="0 0 150 150" version="1.1" xmlns="http://www.w3.org/2000/svg" xmlns:xlink="http://www.w3.org/1999/xlink" xml:space="preserve" xmlns:serif="http://www.serif.com/" style="fill-rule:evenodd;clip-rule:evenodd;stroke-linecap:square;stroke-miterlimit:3;"><rect id="stethescope" x="0" y="0" width="150" height="150" style="fill:none;"/><g><circle cx="75" cy="75" r="75" style="fill:#f00;"/></g><g id="Stethescope"><path d="M50,95.833c0,4.6 3.734,8.334 8.333,8.334c4.6,0 8.334,-3.734 8.334,-8.334c0,-4.599 -3.734,-8.333 -8.334,-8.333c-4.599,0 -8.333,3.734 -8.333,8.333Z" style="fill:none;stroke:#fff;stroke-width:3.13px;"/><path d="M54.167,29.167c0,2.299 1.867,4.166 4.166,4.166c2.3,0 4.167,-1.867 4.167,-4.166c0,-2.3 -1.867,-4.167 -4.167,-4.167c-2.299,0 -4.166,1.867 -4.166,4.167Z" style="fill:none;stroke:#fff;stroke-width:3.13px;"/><path d="M104.167,29.167c0,2.299 1.867,4.166 4.166,4.166c2.3,0 4.167,-1.867 4.167,-4.166c0,-2.3 -1.867,-4.167 -4.167,-4.167c-2.299,0 -4.166,1.867 -4.166,4.167Z" style="fill:none;stroke:#fff;stroke-width:3.13px;"/><path d="M58.333,33.333c0.001,9.29 0,12.606 0,12.585c-0.084,7.958 6.405,12.161 12.5,12.415c0.254,0.011 20.664,0 20.834,0c7.873,0 16.666,-5.642 16.666,-12.5l0,-12.5" style="fill:none;fill-rule:nonzero;stroke:#fff;stroke-width:3.13px;stroke-linecap:round;"/><path d="M83.333,58.338c0,0 0.069,38.198 0,49.995c-0.069,11.797 -4.906,16.588 -12.5,16.667c-7.593,0.079 -12.569,-6.315 -12.5,-16.667c0.034,-4.95 0,-4.166 0,-4.166" style="fill:none;fill-rule:nonzero;stroke:#fff;stroke-width:3.13px;stroke-linecap:round;"/></g></svg>