<?xml version="1.0" encoding="UTF-8" standalone="no"?><!DOCTYPE svg PUBLIC "-//W3C//DTD SVG 1.1//EN" "http://www.w3.org/Graphics/SVG/1.1/DTD/svg11.dtd"><svg width="100%" height="100%" viewBox="0 0 150 150" version="1.1" xmlns="http://www.w3.org/2000/svg" xmlns:xlink="http://www.w3.org/1999/xlink" xml:space="preserve" xmlns:serif="http://www.serif.com/" style="fill-rule:evenodd;clip-rule:evenodd;stroke-linecap:round;stroke-linejoin:round;stroke-miterlimit:1.5;"><rect id="symbol-equality" x="0" y="0" width="150" height="150" style="fill:none;"/><g id="bg-white"><circle cx="75" cy="75" r="75" style="fill:#f00;"/></g><path d="M120.833,47.917c0,-3.45 -2.8,-6.25 -6.25,-6.25l-79.166,0c-3.45,0 -6.25,2.8 -6.25,6.25l0,12.5c0,3.449 2.8,6.25 6.25,6.25l79.166,0c3.45,0 6.25,-2.801 6.25,-6.25l0,-12.5Z" style="fill:none;stroke:#fff;stroke-width:2.92px;"/><path d="M120.833,89.583c0,-3.449 -2.8,-6.25 -6.25,-6.25l-79.166,0c-3.45,0 -6.25,2.801 -6.25,6.25l0,12.5c0,3.45 2.8,6.25 6.25,6.25l79.166,0c3.45,0 6.25,-2.8 6.25,-6.25l0,-12.5Z" style="fill:none;stroke:#fff;stroke-width:2.92px;"/></svg>