<?xml version="1.0" encoding="UTF-8" standalone="no"?><!DOCTYPE svg PUBLIC "-//W3C//DTD SVG 1.1//EN" "http://www.w3.org/Graphics/SVG/1.1/DTD/svg11.dtd"><svg width="100%" height="100%" viewBox="0 0 150 150" version="1.1" xmlns="http://www.w3.org/2000/svg" xmlns:xlink="http://www.w3.org/1999/xlink" xml:space="preserve" xmlns:serif="http://www.serif.com/" style="fill-rule:evenodd;clip-rule:evenodd;stroke-linecap:round;stroke-linejoin:round;stroke-miterlimit:1.5;"><rect id="wrench" x="0" y="0" width="150" height="150" style="fill:none;"/><g id="bg-white"><circle cx="75" cy="75" r="75" style="fill:#f00;"/></g><path d="M77.689,54.59c-2.745,-7.725 -1.029,-16.687 5.149,-22.866c6.933,-6.933 21.105,-9.823 28.785,-2.214c0.014,0.013 -17.714,17.716 -17.714,17.716l8.857,8.858c0,0 17.696,-17.735 17.714,-17.716c7.661,8.081 4.678,21.895 -2.214,28.788c-6.178,6.179 -15.139,7.895 -22.863,5.15l-51.314,51.319c-1.833,1.833 -4.81,1.833 -6.643,0l-11.071,-11.072c-1.833,-1.834 -1.833,-4.81 0,-6.644l51.314,-51.319Z" style="fill:none;stroke:#fff;stroke-width:3.33px;"/><path d="M45.196,104.802c1.222,1.222 1.222,3.207 0,4.429c-1.222,1.222 -3.206,1.222 -4.429,0c-1.222,-1.222 -1.222,-3.207 0,-4.429c1.223,-1.222 3.207,-1.222 4.429,0Z" style="fill:none;stroke:#fff;stroke-width:3.33px;"/><path d="M77.113,69.75l3.131,3.132" style="fill:none;stroke:#fff;stroke-width:3.33px;"/><path d="M83.375,63.487l3.132,3.132" style="fill:none;stroke:#fff;stroke-width:3.33px;"/></svg>