<?xml version="1.0" encoding="UTF-8" standalone="no"?><!DOCTYPE svg PUBLIC "-//W3C//DTD SVG 1.1//EN" "http://www.w3.org/Graphics/SVG/1.1/DTD/svg11.dtd"><svg width="100%" height="100%" viewBox="0 0 36 36" version="1.1" xmlns="http://www.w3.org/2000/svg" xmlns:xlink="http://www.w3.org/1999/xlink" xml:space="preserve" xmlns:serif="http://www.serif.com/" style="fill-rule:evenodd;clip-rule:evenodd;stroke-linecap:round;stroke-linejoin:round;stroke-miterlimit:1.5;"><rect id="course" x="0" y="0" width="36" height="36" style="fill:none;"/><g id="bg-white"><circle cx="18" cy="18" r="18" style="fill:#fff;"/></g><path d="M24,11l0,3l-12,0l0,5l12,0l0,5l-10,0" style="fill:none;stroke:#000;stroke-width:0.7px;"/><path d="M12,22c1.104,0 2,0.896 2,2c0,1.104 -2,4.172 -2,4.172c0,0 -2,-3.068 -2,-4.172c0,-1.104 0.896,-2 2,-2Z" style="fill:none;stroke:#000;stroke-width:0.7px;"/><path d="M22.616,11.384l2.768,-2.768" style="fill:none;stroke:#000;stroke-width:0.7px;"/><path d="M22.616,8.616l2.757,2.757" style="fill:none;stroke:#000;stroke-width:0.7px;"/><circle cx="12" cy="24" r="1"/></svg>