<?xml version="1.0" encoding="UTF-8" standalone="no"?><!DOCTYPE svg PUBLIC "-//W3C//DTD SVG 1.1//EN" "http://www.w3.org/Graphics/SVG/1.1/DTD/svg11.dtd"><svg width="100%" height="100%" viewBox="0 0 150 150" version="1.1" xmlns="http://www.w3.org/2000/svg" xmlns:xlink="http://www.w3.org/1999/xlink" xml:space="preserve" xmlns:serif="http://www.serif.com/" style="fill-rule:evenodd;clip-rule:evenodd;stroke-linecap:round;stroke-miterlimit:3;"><rect id="apple" x="0" y="0" width="150" height="150" style="fill:none;"/><g id="bg-white"><circle cx="75" cy="75" r="75" style="fill:#fff;"/></g><g id="Apple"><path d="M61.957,116.66c4.204,0.045 3.163,-3.765 7.171,-3.582c4.009,0.184 2.622,3.394 7.172,3.582c4.442,0.184 3.674,-3.644 7.171,-3.582c3.528,0.062 -1.303,3.581 7.172,3.579c16.783,-0.003 33.573,-67.217 10.757,-69.019c-11.473,-0.907 -15.389,3.286 -25.1,3.632c-7.747,0.277 -16.129,-4.266 -25.1,-3.622c-29.907,2.147 -3.628,68.859 10.757,69.012Z" style="fill:none;fill-rule:nonzero;stroke:#ec1f27;stroke-width:3.33px;"/><path d="M76.3,51.27c0.481,-6.375 8.007,-17.297 12.763,-18.772" style="fill:none;fill-rule:nonzero;stroke:#ec1f27;stroke-width:3.33px;stroke-linejoin:round;"/><path d="M76.3,51.27c-7.216,-3.39 -11.307,-5.908 -13.089,-9.757c-1.443,-3.116 -1.748,-7.872 -0.915,-14.27c5.053,2.445 8.139,4.378 10.418,9.496c1.551,3.483 3.053,7.406 3.586,14.531Z" style="fill:none;fill-rule:nonzero;stroke:#ec1f27;stroke-width:3.33px;stroke-linejoin:round;"/><path d="M89.541,59.996c8.78,-3.332 15.26,2.646 13.584,13.243" style="fill:none;fill-rule:nonzero;stroke:#ec1f27;stroke-width:3.33px;"/></g></svg>