<?xml version="1.0" encoding="UTF-8" standalone="no"?><!DOCTYPE svg PUBLIC "-//W3C//DTD SVG 1.1//EN" "http://www.w3.org/Graphics/SVG/1.1/DTD/svg11.dtd"><svg width="100%" height="100%" viewBox="0 0 36 36" version="1.1" xmlns="http://www.w3.org/2000/svg" xmlns:xlink="http://www.w3.org/1999/xlink" xml:space="preserve" xmlns:serif="http://www.serif.com/" style="fill-rule:evenodd;clip-rule:evenodd;stroke-linejoin:round;stroke-miterlimit:2;"><rect id="baby" x="0" y="0" width="36" height="36" style="fill:none;"/><g id="bg-white"><circle cx="18" cy="18" r="18" style="fill:#fff;"/></g><path d="M10.717,12.283l6,6c0.156,0.156 0.41,0.156 0.566,-0c0.156,-0.156 0.156,-0.41 -0,-0.566l-6,-6c-0.156,-0.156 -0.41,-0.156 -0.566,0c-0.156,0.156 -0.156,0.41 0,0.566Z" style="fill:#ec1f27;"/><path d="M23.007,9.972c-0.138,-0.052 -0.294,-0.023 -0.405,0.074c-0.111,0.098 -0.159,0.249 -0.125,0.393c0.08,0.341 0.123,0.696 0.123,1.061c-0,2.539 -2.061,4.6 -4.6,4.6c-2.539,-0 -4.6,-2.061 -4.6,-4.6c-0,-0.365 0.043,-0.72 0.123,-1.061c0.034,-0.144 -0.014,-0.295 -0.125,-0.393c-0.111,-0.097 -0.267,-0.126 -0.405,-0.074c-1.473,0.555 -2.393,1.434 -2.393,2.528l0,10c0,4.084 3.316,7.4 7.4,7.4c4.084,-0 7.4,-3.316 7.4,-7.4l0,-10c0,-1.094 -0.92,-1.973 -2.393,-2.528Zm0.371,1.037c0.298,0.156 0.555,0.331 0.759,0.527c0.288,0.277 0.463,0.596 0.463,0.964c-0,-0 -0,10 -0,10c-0,3.643 -2.957,6.6 -6.6,6.6c-3.643,0 -6.6,-2.957 -6.6,-6.6c0,0 0,-10 0,-10c0,-0.368 0.175,-0.687 0.463,-0.964c0.204,-0.196 0.46,-0.371 0.759,-0.527c-0.015,0.162 -0.022,0.326 -0.022,0.491c-0,2.98 2.42,5.4 5.4,5.4c2.98,-0 5.4,-2.42 5.4,-5.4c-0,-0.165 -0.007,-0.329 -0.022,-0.49l-0,-0.001Z" style="fill:#ec1f27;"/><path d="M18,6.1c-2.98,0 -5.4,2.42 -5.4,5.4c-0,2.98 2.42,5.4 5.4,5.4c2.98,-0 5.4,-2.42 5.4,-5.4c-0,-2.98 -2.42,-5.4 -5.4,-5.4Zm-0,0.8c2.539,-0 4.6,2.061 4.6,4.6c-0,2.539 -2.061,4.6 -4.6,4.6c-2.539,0 -4.6,-2.061 -4.6,-4.6c-0,-2.539 2.061,-4.6 4.6,-4.6Z" style="fill:#ec1f27;"/><path d="M11.24,23.32l14,-10.5c0.177,-0.132 0.212,-0.383 0.08,-0.56c-0.132,-0.177 -0.383,-0.212 -0.56,-0.08l-14,10.5c-0.177,0.132 -0.212,0.383 -0.08,0.56c0.132,0.177 0.383,0.212 0.56,0.08Z" style="fill:#ec1f27;"/><path d="M15.879,11.127c0.015,-0.043 0.053,-0.072 0.095,-0.1c0.082,-0.054 0.184,-0.09 0.294,-0.112c0.183,-0.035 0.385,-0.03 0.562,0.026c0.131,0.043 0.251,0.112 0.31,0.233c0.096,0.199 0.335,0.282 0.534,0.186c0.199,-0.096 0.282,-0.335 0.186,-0.534c-0.286,-0.593 -1.079,-0.826 -1.745,-0.696c-0.485,0.095 -0.872,0.379 -0.994,0.743c-0.07,0.209 0.042,0.436 0.252,0.506c0.209,0.07 0.436,-0.042 0.506,-0.252Z" style="fill:#ec1f27;"/><path d="M18.879,11.127c0.015,-0.043 0.053,-0.072 0.095,-0.1c0.082,-0.054 0.184,-0.09 0.294,-0.112c0.183,-0.035 0.385,-0.03 0.562,0.026c0.131,0.043 0.251,0.112 0.31,0.233c0.096,0.199 0.335,0.282 0.534,0.186c0.199,-0.096 0.282,-0.335 0.186,-0.534c-0.286,-0.593 -1.079,-0.826 -1.745,-0.696c-0.485,0.095 -0.872,0.379 -0.994,0.743c-0.07,0.209 0.042,0.436 0.252,0.506c0.209,0.07 0.436,-0.042 0.506,-0.252Z" style="fill:#ec1f27;"/><path d="M16.232,13.797c0.559,0.504 1.135,0.783 1.718,0.804c0.592,0.022 1.205,-0.215 1.827,-0.813c0.159,-0.153 0.164,-0.406 0.011,-0.565c-0.153,-0.159 -0.406,-0.164 -0.565,-0.011c-0.428,0.411 -0.836,0.605 -1.243,0.59c-0.416,-0.015 -0.814,-0.24 -1.212,-0.599c-0.164,-0.148 -0.417,-0.135 -0.565,0.029c-0.148,0.164 -0.135,0.417 0.029,0.565Z" style="fill:#ec1f27;"/><path d="M20,6.6c-0.773,-0 -1.4,0.627 -1.4,1.4c-0,0.773 0.627,1.4 1.4,1.4c0.773,0 1.4,-0.627 1.4,-1.4c0,-0.773 -0.627,-1.4 -1.4,-1.4Zm0,0.8c0.331,0 0.6,0.269 0.6,0.6c-0,0.331 -0.269,0.6 -0.6,0.6c-0.331,-0 -0.6,-0.269 -0.6,-0.6c0,-0.331 0.269,-0.6 0.6,-0.6Z" style="fill:#ec1f27;"/><path d="M18,6.6c-0.773,-0 -1.4,0.627 -1.4,1.4c-0,0.773 0.627,1.4 1.4,1.4c0.773,0 1.4,-0.627 1.4,-1.4c0,-0.773 -0.627,-1.4 -1.4,-1.4Zm0,0.8c0.331,0 0.6,0.269 0.6,0.6c-0,0.331 -0.269,0.6 -0.6,0.6c-0.331,-0 -0.6,-0.269 -0.6,-0.6c0,-0.331 0.269,-0.6 0.6,-0.6Z" style="fill:#ec1f27;"/><path d="M16,6.6c-0.773,-0 -1.4,0.627 -1.4,1.4c-0,0.773 0.627,1.4 1.4,1.4c0.773,0 1.4,-0.627 1.4,-1.4c0,-0.773 -0.627,-1.4 -1.4,-1.4Zm0,0.8c0.331,0 0.6,0.269 0.6,0.6c-0,0.331 -0.269,0.6 -0.6,0.6c-0.331,-0 -0.6,-0.269 -0.6,-0.6c0,-0.331 0.269,-0.6 0.6,-0.6Z" style="fill:#ec1f27;"/></svg>