<?xml version="1.0" encoding="UTF-8" standalone="no"?><!DOCTYPE svg PUBLIC "-//W3C//DTD SVG 1.1//EN" "http://www.w3.org/Graphics/SVG/1.1/DTD/svg11.dtd"><svg width="100%" height="100%" viewBox="0 0 36 36" version="1.1" xmlns="http://www.w3.org/2000/svg" xmlns:xlink="http://www.w3.org/1999/xlink" xml:space="preserve" xmlns:serif="http://www.serif.com/" style="fill-rule:evenodd;clip-rule:evenodd;stroke-linejoin:round;stroke-miterlimit:2;"><rect id="barb-wire-fence" x="0" y="0" width="36" height="36" style="fill:none;"/><g id="bg-white"><circle cx="18" cy="18" r="18" style="fill:#fff;"/></g><path d="M15.249,30.4c0.161,0 0.307,-0.097 0.369,-0.247c0.062,-0.149 0.028,-0.321 -0.087,-0.436l-7.248,-7.248c-0.115,-0.115 -0.287,-0.149 -0.436,-0.087c-0.15,0.062 -0.247,0.208 -0.247,0.369l-0,4.382c0,0.106 0.042,0.208 0.117,0.283l2.867,2.867c0.075,0.075 0.177,0.117 0.283,0.117l4.382,0Zm-0.966,-0.8l-3.25,0c-0,-0 -2.633,-2.633 -2.633,-2.633c0,0 0,-3.25 0,-3.25l5.883,5.883Z" style="fill:#ec1f27;"/><path d="M7.6,23.543c0,0.162 0.097,0.308 0.247,0.37c0.149,0.062 0.321,0.028 0.436,-0.087l9.543,-9.543c0.115,-0.115 0.149,-0.287 0.087,-0.436c-0.062,-0.15 -0.208,-0.247 -0.37,-0.247l-4.381,-0c-0.106,-0 -0.208,0.042 -0.283,0.117l-5.162,5.162c-0.075,0.075 -0.117,0.177 -0.117,0.283l-0,4.381Zm0.8,-0.965l0,-3.251c0,0 4.927,-4.927 4.927,-4.927c0,0 3.251,-0 3.251,-0l-8.178,8.178Z" style="fill:#ec1f27;"/><path d="M24.543,30.4c0.162,0 0.308,-0.097 0.37,-0.247c0.062,-0.149 0.028,-0.321 -0.087,-0.436l-16,-16c-0.075,-0.075 -0.177,-0.117 -0.283,-0.117l-0.543,-0c-0.221,-0 -0.4,0.179 -0.4,0.4l-0,3.838c0,0.106 0.042,0.208 0.117,0.283l12.162,12.162c0.075,0.075 0.177,0.117 0.283,0.117l4.381,0Zm-16.143,-15.978l15.178,15.178l-3.251,0c0,0 -11.927,-11.927 -11.927,-11.927l-0,-3.251Z" style="fill:#ec1f27;"/><path d="M7.717,28.174c-0.075,0.075 -0.117,0.177 -0.117,0.283l-0,1.543c0,0.221 0.179,0.4 0.4,0.4l2.838,-0c0.106,0 0.208,-0.042 0.283,-0.117l16,-16c0.114,-0.115 0.149,-0.287 0.087,-0.436c-0.062,-0.15 -0.208,-0.247 -0.37,-0.247l-4.381,-0c-0.106,-0 -0.208,0.042 -0.283,0.117l-14.457,14.457Zm0.683,0.448l14.222,-14.222c0,0 3.251,-0 3.251,-0c-0,-0 -15.2,15.2 -15.2,15.2c-0,0 -2.273,0 -2.273,0l0,-0.978Z" style="fill:#ec1f27;"/><path d="M28.4,24.162c0,-0.106 -0.042,-0.208 -0.117,-0.283l-10.162,-10.162c-0.075,-0.075 -0.177,-0.117 -0.283,-0.117l-4.381,-0c-0.162,-0 -0.308,0.097 -0.37,0.247c-0.062,0.149 -0.028,0.321 0.087,0.436l14.543,14.543c0.115,0.115 0.287,0.149 0.436,0.087c0.15,-0.062 0.247,-0.208 0.247,-0.37l0,-4.381Zm-0.8,0.165l0,3.251c-0,-0 -13.178,-13.178 -13.178,-13.178c0,0 3.251,0 3.251,0l9.927,9.927Z" style="fill:#ec1f27;"/><path d="M28.283,22.416c0.075,-0.075 0.117,-0.177 0.117,-0.283l0,-4.382c0,-0.161 -0.097,-0.307 -0.247,-0.369c-0.149,-0.062 -0.321,-0.028 -0.436,0.087l-12.248,12.248c-0.115,0.115 -0.149,0.287 -0.087,0.436c0.062,0.15 0.208,0.247 0.369,0.247l4.382,-0c0.106,0 0.208,-0.042 0.283,-0.117l7.867,-7.867Zm-0.683,-0.449l-7.633,7.633c0,0 -3.25,0 -3.25,0c0,-0 10.883,-10.883 10.883,-10.883l0,3.25Z" style="fill:#ec1f27;"/><path d="M28.4,14.867c0,-0.106 -0.042,-0.208 -0.117,-0.283l-0.867,-0.867c-0.075,-0.075 -0.177,-0.117 -0.283,-0.117l-4.382,-0c-0.161,-0 -0.307,0.097 -0.369,0.247c-0.062,0.149 -0.028,0.321 0.087,0.436l5.248,5.248c0.115,0.115 0.287,0.149 0.436,0.087c0.15,-0.062 0.247,-0.208 0.247,-0.369l0,-4.382Zm-0.8,0.166l0,3.25c-0,-0 -3.883,-3.883 -3.883,-3.883c0,0 3.25,0 3.25,0l0.633,0.633Z" style="fill:#ec1f27;"/><path d="M28,30.4c0.221,0 0.4,-0.179 0.4,-0.4l0,-2.954c0,-0.162 -0.097,-0.307 -0.247,-0.369c-0.149,-0.062 -0.321,-0.028 -0.436,0.086l-2.954,2.954c-0.114,0.115 -0.148,0.287 -0.086,0.436c0.062,0.15 0.207,0.247 0.369,0.247l2.954,-0Zm-0.4,-0.8l-1.588,0c-0,0 1.588,-1.588 1.588,-1.588l0,1.588Z" style="fill:#ec1f27;"/><path d="M28.4,14c0,-0.221 -0.179,-0.4 -0.4,-0.4l-20,0c-0.221,0 -0.4,0.179 -0.4,0.4l-0,16c0,0.221 0.179,0.4 0.4,0.4l20,0c0.221,0 0.4,-0.179 0.4,-0.4l0,-16Zm-0.8,0.4l0,15.2c0,0 -19.2,0 -19.2,0c0,-0 -0,-15.2 -0,-15.2l19.2,0Z" style="fill:#ec1f27;"/><path d="M28.4,10c0,-0.221 -0.179,-0.4 -0.4,-0.4l-20,0c-0.221,0 -0.4,0.179 -0.4,0.4l0,4c0,0.221 0.179,0.4 0.4,0.4l20,-0c0.221,-0 0.4,-0.179 0.4,-0.4l0,-4Zm-0.8,0.4l0,3.2c0,0 -19.2,-0 -19.2,-0c0,0 0,-3.2 0,-3.2l19.2,-0Z" style="fill:#ec1f27;"/><path d="M5.717,8.283l2,2c0.156,0.156 0.41,0.156 0.566,-0c0.156,-0.156 0.156,-0.41 -0,-0.566l-2,-2c-0.156,-0.156 -0.41,-0.156 -0.566,0c-0.156,0.156 -0.156,0.41 0,0.566Z" style="fill:#ec1f27;"/><path d="M14.717,8.283l2,2c0.156,0.156 0.41,0.156 0.566,-0c0.156,-0.156 0.156,-0.41 -0,-0.566l-2,-2c-0.156,-0.156 -0.41,-0.156 -0.566,0c-0.156,0.156 -0.156,0.41 0,0.566Z" style="fill:#ec1f27;"/><path d="M23.717,8.283l2,2c0.156,0.156 0.41,0.156 0.566,-0c0.156,-0.156 0.156,-0.41 -0,-0.566l-2,-2c-0.156,-0.156 -0.41,-0.156 -0.566,0c-0.156,0.156 -0.156,0.41 0,0.566Z" style="fill:#ec1f27;"/><path d="M12.283,11.717l-2,-2c-0.156,-0.156 -0.41,-0.156 -0.566,0c-0.156,0.156 -0.156,0.41 0,0.566l2,2c0.156,0.156 0.41,0.156 0.566,-0c0.156,-0.156 0.156,-0.41 -0,-0.566Z" style="fill:#ec1f27;"/><path d="M21.283,11.717l-2,-2c-0.156,-0.156 -0.41,-0.156 -0.566,0c-0.156,0.156 -0.156,0.41 0,0.566l2,2c0.156,0.156 0.41,0.156 0.566,-0c0.156,-0.156 0.156,-0.41 -0,-0.566Z" style="fill:#ec1f27;"/><path d="M30.283,11.717l-2,-2c-0.156,-0.156 -0.41,-0.156 -0.566,0c-0.156,0.156 -0.156,0.41 0,0.566l2,2c0.156,0.156 0.41,0.156 0.566,-0c0.156,-0.156 0.156,-0.41 -0,-0.566Z" style="fill:#ec1f27;"/><path d="M9.717,8.717l-1,1c-0.156,0.156 -0.156,0.41 0,0.566c0.156,0.156 0.41,0.156 0.566,-0l1,-1c0.156,-0.156 0.156,-0.41 -0,-0.566c-0.156,-0.156 -0.41,-0.156 -0.566,0Z" style="fill:#ec1f27;"/><path d="M18.717,8.717l-1,1c-0.156,0.156 -0.156,0.41 0,0.566c0.156,0.156 0.41,0.156 0.566,-0l1,-1c0.156,-0.156 0.156,-0.41 -0,-0.566c-0.156,-0.156 -0.41,-0.156 -0.566,0Z" style="fill:#ec1f27;"/><path d="M27.717,8.717l-1,1c-0.156,0.156 -0.156,0.41 0,0.566c0.156,0.156 0.41,0.156 0.566,-0l1,-1c0.156,-0.156 0.156,-0.41 -0,-0.566c-0.156,-0.156 -0.41,-0.156 -0.566,0Z" style="fill:#ec1f27;"/><path d="M8.717,8.717l-3,3c-0.156,0.156 -0.156,0.41 0,0.566c0.156,0.156 0.41,0.156 0.566,-0l3,-3c0.156,-0.156 0.156,-0.41 -0,-0.566c-0.156,-0.156 -0.41,-0.156 -0.566,0Z" style="fill:#ec1f27;"/><path d="M17.717,8.717l-3,3c-0.156,0.156 -0.156,0.41 0,0.566c0.156,0.156 0.41,0.156 0.566,-0l3,-3c0.156,-0.156 0.156,-0.41 -0,-0.566c-0.156,-0.156 -0.41,-0.156 -0.566,0Z" style="fill:#ec1f27;"/><path d="M26.717,8.717l-3,3c-0.156,0.156 -0.156,0.41 0,0.566c0.156,0.156 0.41,0.156 0.566,-0l3,-3c0.156,-0.156 0.156,-0.41 -0,-0.566c-0.156,-0.156 -0.41,-0.156 -0.566,0Z" style="fill:#ec1f27;"/><path d="M10.283,10.283l2,-2c0.156,-0.156 0.156,-0.41 -0,-0.566c-0.156,-0.156 -0.41,-0.156 -0.566,0l-2,2c-0.156,0.156 -0.156,0.41 0,0.566c0.156,0.156 0.41,0.156 0.566,-0Z" style="fill:#ec1f27;"/><path d="M19.283,10.283l2,-2c0.156,-0.156 0.156,-0.41 -0,-0.566c-0.156,-0.156 -0.41,-0.156 -0.566,0l-2,2c-0.156,0.156 -0.156,0.41 0,0.566c0.156,0.156 0.41,0.156 0.566,-0Z" style="fill:#ec1f27;"/><path d="M28.283,10.283l2,-2c0.156,-0.156 0.156,-0.41 -0,-0.566c-0.156,-0.156 -0.41,-0.156 -0.566,0l-2,2c-0.156,0.156 -0.156,0.41 0,0.566c0.156,0.156 0.41,0.156 0.566,-0Z" style="fill:#ec1f27;"/></svg>