<?xml version="1.0" encoding="UTF-8" standalone="no"?><!DOCTYPE svg PUBLIC "-//W3C//DTD SVG 1.1//EN" "http://www.w3.org/Graphics/SVG/1.1/DTD/svg11.dtd"><svg width="100%" height="100%" viewBox="0 0 36 36" version="1.1" xmlns="http://www.w3.org/2000/svg" xmlns:xlink="http://www.w3.org/1999/xlink" xml:space="preserve" xmlns:serif="http://www.serif.com/" style="fill-rule:evenodd;clip-rule:evenodd;stroke-linejoin:round;stroke-miterlimit:2;"><rect id="books" x="0" y="0" width="36" height="36" style="fill:none;"/><g id="bg-white"><circle cx="18" cy="18" r="18" style="fill:#fff;"/></g><path d="M12,22.4l5,-0c0.221,-0 0.4,-0.179 0.4,-0.4c-0,-0.221 -0.179,-0.4 -0.4,-0.4l-5,0c-0.221,-0 -0.4,0.179 -0.4,0.4c-0,0.221 0.179,0.4 0.4,0.4Z" style="fill:#ec1f27;"/><path d="M12,25.4l5,-0c0.221,-0 0.4,-0.179 0.4,-0.4c-0,-0.221 -0.179,-0.4 -0.4,-0.4l-5,0c-0.221,-0 -0.4,0.179 -0.4,0.4c-0,0.221 0.179,0.4 0.4,0.4Z" style="fill:#ec1f27;"/><path d="M17.4,17c0,-0.221 -0.179,-0.4 -0.4,-0.4l-5,0c-0.221,0 -0.4,0.179 -0.4,0.4l-0,2c0,0.221 0.179,0.4 0.4,0.4l5,-0c0.221,-0 0.4,-0.179 0.4,-0.4l0,-2Zm-0.8,0.4l-0,1.2c-0,0 -4.2,0 -4.2,0c-0,0 -0,-1.2 -0,-1.2l4.2,-0Z" style="fill:#ec1f27;"/><path d="M22.4,26l0,-14c0,-0.221 -0.179,-0.4 -0.4,-0.4l-11,0c-0.012,0 -0.023,0.001 -0.035,0.002c-0.753,0.066 -1.329,0.298 -1.725,0.683c-0.407,0.395 -0.637,0.957 -0.64,1.713l-0,14.002c0,0.221 0.179,0.4 0.4,0.4l11,-0c0.221,0 0.4,-0.179 0.4,-0.4l0,-14c0,-0.221 -0.179,-0.4 -0.4,-0.4l-9,0c-0.221,-0 -0.4,0.179 -0.4,0.4c-0,0.221 0.179,0.4 0.4,0.4l8.6,-0c-0,0 -0,13.2 -0,13.2c-0,0 -10.2,0 -10.2,0c0,-0 0,-13.599 0,-13.599c0.002,-0.5 0.128,-0.881 0.398,-1.143c0.278,-0.27 0.691,-0.409 1.218,-0.458c0.002,-0 10.584,-0 10.584,-0c-0,0 -0,13.6 -0,13.6c-0,0.221 0.179,0.4 0.4,0.4c0.221,0 0.4,-0.179 0.4,-0.4Z" style="fill:#ec1f27;"/><path d="M27.4,21l0,-14c0,-0.221 -0.179,-0.4 -0.4,-0.4l-11,0c-0.012,0 -0.023,0.001 -0.035,0.002c-0.753,0.066 -1.329,0.298 -1.725,0.683c-0.407,0.395 -0.637,0.957 -0.64,1.713l-0,3.002c0,0.221 0.179,0.4 0.4,0.4c0.221,-0 0.4,-0.179 0.4,-0.4l0,-2.999c0.002,-0.5 0.128,-0.881 0.398,-1.143c0.278,-0.27 0.691,-0.409 1.218,-0.458c0.002,-0 10.584,-0 10.584,-0c0,0 0,13.6 0,13.6c-0,0.221 0.179,0.4 0.4,0.4c0.221,0 0.4,-0.179 0.4,-0.4Z" style="fill:#ec1f27;"/><path d="M22,23.4l3,-0c0.221,-0 0.4,-0.179 0.4,-0.4l0,-14c0,-0.221 -0.179,-0.4 -0.4,-0.4l-9,0c-0.221,-0 -0.4,0.179 -0.4,0.4c-0,0.221 0.179,0.4 0.4,0.4l8.6,-0c0,0 0,13.2 0,13.2c-0,0 -2.6,0 -2.6,0c-0.221,0 -0.4,0.179 -0.4,0.4c0,0.221 0.179,0.4 0.4,0.4Z" style="fill:#ec1f27;"/></svg>