<?xml version="1.0" encoding="UTF-8" standalone="no"?><!DOCTYPE svg PUBLIC "-//W3C//DTD SVG 1.1//EN" "http://www.w3.org/Graphics/SVG/1.1/DTD/svg11.dtd"><svg width="100%" height="100%" viewBox="0 0 150 150" version="1.1" xmlns="http://www.w3.org/2000/svg" xmlns:xlink="http://www.w3.org/1999/xlink" xml:space="preserve" xmlns:serif="http://www.serif.com/" style="fill-rule:evenodd;clip-rule:evenodd;stroke-linecap:round;stroke-linejoin:round;stroke-miterlimit:1.5;"><rect id="brain" x="0" y="0" width="150" height="150" style="fill:none;"/><g id="bg-white"><circle cx="75" cy="75" r="75" style="fill:#fff;"/></g><path d="M79.167,36.458c1.352,-2.777 2.955,-3.125 6.25,-3.125c4.599,0 8.333,3.734 8.333,8.334l0.054,0c4.574,0.029 8.279,3.752 8.279,8.333l0.054,0c4.575,0.029 8.28,3.752 8.28,8.333c0,0.365 -0.024,0.725 -0.069,1.077c2.528,1.432 4.235,4.146 4.235,7.257c0,2.04 -0.734,3.91 -1.954,5.359c2.419,1.459 4.038,4.112 4.038,7.141c0,3.61 -2.302,6.688 -5.516,7.844c2.08,1.516 3.432,3.971 3.432,6.739c0,3.11 -1.707,5.825 -4.235,7.257c0.045,0.352 0.069,0.711 0.069,1.076c0,4.582 -3.705,8.304 -8.28,8.333l-0.054,0.001c0,4.599 -3.734,8.333 -8.333,8.333c-3.633,0 -6.726,-2.33 -7.865,-5.575c-1.411,1.334 -4.326,1.948 -6.718,0.367l0,-77.084" style="fill:none;stroke:#ec1f27;stroke-width:3.33px;"/><path d="M70.833,113.542c-0.464,3.053 -5.934,3.381 -7.086,0.515c-1.352,2.777 -4.203,4.693 -7.497,4.693c-4.599,0 -8.333,-3.734 -8.333,-8.333l-0.054,-0.001c-4.575,-0.029 -8.28,-3.751 -8.28,-8.333c0,-0.365 0.024,-0.724 0.069,-1.076c-2.528,-1.432 -4.235,-4.147 -4.235,-7.257c0,-2.768 1.352,-5.223 3.432,-6.739c-3.214,-1.156 -5.516,-4.234 -5.516,-7.844c0,-3.029 1.619,-5.682 4.038,-7.141c-1.22,-1.449 -1.954,-3.319 -1.954,-5.359c0,-3.111 1.707,-5.825 4.235,-7.257c-0.045,-0.352 -0.069,-0.712 -0.069,-1.077c0,-4.599 3.734,-8.333 8.334,-8.333l0,-0.054c0.029,-4.574 3.752,-8.279 8.333,-8.279l0,-0.054c0.029,-4.575 3.752,-8.28 8.333,-8.28c3.295,0 4.898,0.348 6.25,3.125l0,77.084" style="fill:none;stroke:#ec1f27;stroke-width:3.33px;"/><path d="M45.833,70.833c11.217,0.864 16.321,-5.204 16.667,-16.666" style="fill:none;stroke:#ec1f27;stroke-width:3.33px;"/><path d="M104.167,70.833c-11.217,0.864 -16.321,-5.204 -16.667,-16.666" style="fill:none;stroke:#ec1f27;stroke-width:3.33px;"/><path d="M47.917,91.667c0.501,-7.593 4.93,-11.515 12.5,-12.5" style="fill:none;stroke:#ec1f27;stroke-width:3.33px;"/><path d="M102.083,91.667c-0.501,-7.593 -4.93,-11.515 -12.5,-12.5" style="fill:none;stroke:#ec1f27;stroke-width:3.33px;"/><path d="M60.417,97.917c4.074,3.947 3.449,7.347 0,10.416" style="fill:none;stroke:#ec1f27;stroke-width:3.33px;"/><path d="M89.583,97.917c-4.074,3.947 -3.449,7.347 0,10.416" style="fill:none;stroke:#ec1f27;stroke-width:3.33px;"/><path d="M70.833,54.167c-0.063,-4.323 -2.115,-6.441 -6.25,-6.25" style="fill:none;stroke:#ec1f27;stroke-width:3.33px;"/><path d="M79.167,54.167c0.063,-4.323 2.115,-6.441 6.25,-6.25" style="fill:none;stroke:#ec1f27;stroke-width:3.33px;"/><path d="M70.833,85.417c-0.017,4.846 -2.537,6.345 -6.25,6.25" style="fill:none;stroke:#ec1f27;stroke-width:3.33px;"/><path d="M79.167,85.417c0.017,4.846 2.537,6.345 6.25,6.25" style="fill:none;stroke:#ec1f27;stroke-width:3.33px;"/></svg>