<?xml version="1.0" encoding="UTF-8" standalone="no"?><!DOCTYPE svg PUBLIC "-//W3C//DTD SVG 1.1//EN" "http://www.w3.org/Graphics/SVG/1.1/DTD/svg11.dtd"><svg width="100%" height="100%" viewBox="0 0 36 36" version="1.1" xmlns="http://www.w3.org/2000/svg" xmlns:xlink="http://www.w3.org/1999/xlink" xml:space="preserve" xmlns:serif="http://www.serif.com/" style="fill-rule:evenodd;clip-rule:evenodd;stroke-linejoin:round;stroke-miterlimit:2;"><rect id="brain" x="0" y="0" width="36" height="36" style="fill:none;"/><g id="bg-white"><circle cx="18" cy="18" r="18" style="fill:#fff;"/></g><path d="M10.969,17.399c1.494,0.115 2.573,-0.256 3.298,-1.013c0.71,-0.742 1.088,-1.878 1.133,-3.374c0.006,-0.221 -0.167,-0.405 -0.388,-0.412c-0.221,-0.006 -0.405,0.167 -0.412,0.388c-0.038,1.255 -0.314,2.222 -0.911,2.845c-0.581,0.607 -1.46,0.86 -2.658,0.768c-0.22,-0.017 -0.413,0.148 -0.43,0.368c-0.017,0.22 0.148,0.413 0.368,0.43Z" style="fill:#ec1f27;"/><path d="M24.969,16.601c-1.198,0.092 -2.077,-0.161 -2.658,-0.768c-0.597,-0.623 -0.873,-1.59 -0.911,-2.845c-0.007,-0.221 -0.191,-0.394 -0.412,-0.388c-0.221,0.007 -0.394,0.191 -0.388,0.412c0.045,1.496 0.423,2.632 1.133,3.374c0.725,0.757 1.804,1.128 3.298,1.013c0.22,-0.017 0.385,-0.21 0.368,-0.43c-0.017,-0.22 -0.21,-0.385 -0.43,-0.368Z" style="fill:#ec1f27;"/><path d="M11.899,22.026c0.053,-0.795 0.3,-1.403 0.743,-1.834c0.453,-0.439 1.1,-0.69 1.91,-0.795c0.219,-0.029 0.373,-0.23 0.345,-0.449c-0.029,-0.219 -0.23,-0.373 -0.449,-0.345c-1.007,0.131 -1.8,0.469 -2.363,1.015c-0.572,0.555 -0.916,1.329 -0.984,2.356c-0.015,0.22 0.152,0.411 0.373,0.425c0.22,0.015 0.411,-0.152 0.425,-0.373Z" style="fill:#ec1f27;"/><path d="M24.899,21.974c-0.068,-1.027 -0.412,-1.801 -0.984,-2.356c-0.563,-0.546 -1.356,-0.884 -2.363,-1.015c-0.219,-0.028 -0.42,0.126 -0.449,0.345c-0.028,0.219 0.126,0.42 0.345,0.449c0.81,0.105 1.457,0.356 1.91,0.795c0.443,0.431 0.69,1.039 0.743,1.834c0.014,0.221 0.205,0.388 0.425,0.373c0.221,-0.014 0.388,-0.205 0.373,-0.425Z" style="fill:#ec1f27;"/><path d="M14.222,23.787c0.381,0.37 0.57,0.7 0.556,1.024c-0.015,0.32 -0.225,0.606 -0.544,0.89c-0.165,0.147 -0.18,0.4 -0.033,0.565c0.147,0.165 0.4,0.18 0.565,0.033c0.509,-0.453 0.788,-0.942 0.811,-1.452c0.023,-0.505 -0.202,-1.057 -0.799,-1.634c-0.158,-0.154 -0.412,-0.15 -0.565,0.009c-0.154,0.158 -0.15,0.412 0.009,0.565Z" style="fill:#ec1f27;"/><path d="M21.222,23.213c-0.597,0.577 -0.822,1.129 -0.799,1.634c0.023,0.51 0.302,0.999 0.811,1.452c0.165,0.147 0.418,0.132 0.565,-0.033c0.147,-0.165 0.132,-0.418 -0.033,-0.565c-0.319,-0.284 -0.529,-0.57 -0.544,-0.89c-0.014,-0.324 0.175,-0.654 0.556,-1.024c0.159,-0.153 0.163,-0.407 0.009,-0.565c-0.153,-0.159 -0.407,-0.163 -0.565,-0.009Z" style="fill:#ec1f27;"/><path d="M17.4,12.994c-0.01,-0.646 -0.19,-1.119 -0.5,-1.432c-0.318,-0.321 -0.785,-0.491 -1.418,-0.462c-0.221,0.011 -0.392,0.198 -0.382,0.418c0.011,0.221 0.198,0.392 0.418,0.382c0.359,-0.017 0.634,0.044 0.814,0.225c0.189,0.19 0.262,0.489 0.268,0.881c0.003,0.221 0.185,0.397 0.406,0.394c0.221,-0.003 0.397,-0.185 0.394,-0.406Z" style="fill:#ec1f27;"/><path d="M19.4,13.006c0.006,-0.392 0.079,-0.691 0.268,-0.881c0.18,-0.181 0.455,-0.242 0.814,-0.225c0.22,0.01 0.407,-0.161 0.418,-0.382c0.01,-0.22 -0.161,-0.407 -0.382,-0.418c-0.633,-0.029 -1.1,0.141 -1.418,0.462c-0.31,0.313 -0.49,0.786 -0.5,1.432c-0.003,0.221 0.173,0.403 0.394,0.406c0.221,0.003 0.403,-0.173 0.406,-0.394Z" style="fill:#ec1f27;"/><path d="M16.6,20.499c-0.002,0.431 -0.087,0.723 -0.282,0.896c-0.195,0.172 -0.478,0.214 -0.808,0.205c-0.22,-0.006 -0.404,0.169 -0.41,0.39c-0.006,0.22 0.169,0.404 0.39,0.41c0.561,0.014 1.026,-0.113 1.357,-0.405c0.331,-0.293 0.55,-0.762 0.553,-1.494c0.001,-0.22 -0.178,-0.4 -0.399,-0.401c-0.22,-0.001 -0.4,0.178 -0.401,0.399Z" style="fill:#ec1f27;"/><path d="M18.6,20.501c0.003,0.732 0.222,1.201 0.553,1.494c0.331,0.292 0.796,0.419 1.357,0.405c0.221,-0.006 0.396,-0.19 0.39,-0.41c-0.006,-0.221 -0.19,-0.396 -0.41,-0.39c-0.33,0.009 -0.613,-0.033 -0.808,-0.205c-0.195,-0.173 -0.28,-0.465 -0.282,-0.896c-0.001,-0.221 -0.181,-0.4 -0.401,-0.399c-0.221,0.001 -0.4,0.181 -0.399,0.401Z" style="fill:#ec1f27;"/><path d="M18.64,8.575c-0.011,0.024 -0.021,0.049 -0.028,0.076l-0.004,0.019c-0.005,0.026 -0.008,0.053 -0.008,0.08l-0,-0l-0,18.5c-0,0.134 0.067,0.26 0.179,0.334c0.55,0.363 1.187,0.349 1.663,0.15c0.42,0.699 1.185,1.166 2.058,1.166c1.198,-0 2.193,-0.88 2.371,-2.029c1.149,-0.178 2.029,-1.173 2.029,-2.371c0,-0.017 -0,-0.034 -0.001,-0.051c0.606,-0.435 1.001,-1.146 1.001,-1.949c0,-0.577 -0.204,-1.106 -0.543,-1.52c0.63,-0.433 1.043,-1.159 1.043,-1.98c0,-0.719 -0.317,-1.365 -0.819,-1.805c0.203,-0.352 0.319,-0.76 0.319,-1.195c0,-0.803 -0.395,-1.514 -1.001,-1.95c0.001,-0.016 0.001,-0.033 0.001,-0.05c0,-1.198 -0.88,-2.193 -2.029,-2.371c-0.16,-1.028 -0.972,-1.84 -2,-2c-0.178,-1.149 -1.173,-2.029 -2.371,-2.029c-0.575,0 -0.967,0.06 -1.278,0.263c-0.223,0.146 -0.413,0.365 -0.582,0.712l0,-0Zm5.86,18.325c-0.214,-0.007 -0.386,-0.183 -0.387,-0.399c-0.001,-0.22 0.177,-0.4 0.397,-0.401c0.879,-0.006 1.59,-0.72 1.59,-1.6c-0,-0.07 -0.005,-0.139 -0.013,-0.207c-0.021,-0.161 0.058,-0.319 0.199,-0.399c0.486,-0.275 0.814,-0.797 0.814,-1.394c-0,-0.532 -0.26,-1.003 -0.659,-1.294c-0.12,-0.087 -0.182,-0.233 -0.161,-0.38c0.021,-0.147 0.121,-0.27 0.261,-0.32c0.617,-0.222 1.059,-0.813 1.059,-1.506c-0,-0.582 -0.311,-1.091 -0.776,-1.371c-0.1,-0.061 -0.168,-0.162 -0.188,-0.277c-0.019,-0.116 0.014,-0.234 0.089,-0.323c0.234,-0.278 0.375,-0.637 0.375,-1.029c-0,-0.597 -0.328,-1.119 -0.814,-1.394c-0.141,-0.08 -0.22,-0.238 -0.199,-0.399c0.008,-0.068 0.013,-0.137 0.013,-0.207c-0,-0.88 -0.711,-1.594 -1.587,-1.6l-0.013,-0c-0.221,-0 -0.4,-0.179 -0.4,-0.4c-0,-0.88 -0.711,-1.594 -1.587,-1.6l-0.013,-0c-0.221,-0 -0.4,-0.179 -0.4,-0.4c-0,-0.883 -0.717,-1.6 -1.6,-1.6c-0.375,-0 -0.638,0 -0.841,0.133c-0.102,0.067 -0.182,0.169 -0.259,0.313l0,18.164c0.355,0.141 0.737,0.05 0.938,-0.139c0.098,-0.093 0.237,-0.13 0.369,-0.098c0.131,0.032 0.238,0.129 0.283,0.256c0.219,0.624 0.812,1.071 1.51,1.071c0.883,0 1.6,-0.717 1.6,-1.6c0,0.221 0.179,0.4 0.4,0.4l0,-0Z" style="fill:#ec1f27;"/><path d="M13.129,9.629c-1.028,0.16 -1.84,0.972 -2,2c-1.149,0.178 -2.029,1.173 -2.029,2.371c-0,0.017 0,0.034 0.001,0.051c-0.606,0.435 -1.001,1.146 -1.001,1.949c-0,0.435 0.116,0.843 0.319,1.195c-0.502,0.44 -0.819,1.086 -0.819,1.805c-0,0.821 0.413,1.547 1.043,1.98c-0.339,0.414 -0.543,0.943 -0.543,1.52c-0,0.803 0.395,1.514 1.001,1.95c-0.001,0.016 -0.001,0.033 -0.001,0.05c-0,1.198 0.88,2.193 2.029,2.371c0.178,1.149 1.173,2.029 2.371,2.029c0.745,-0 1.412,-0.34 1.852,-0.874c0.252,0.163 0.571,0.239 0.886,0.218c0.566,-0.038 1.071,-0.38 1.157,-0.929c0.001,-0.008 0.002,-0.017 0.003,-0.025l0.001,-0.02c0.001,-0.007 0.001,-0.015 0.001,-0.023l0,-18.497c0,-0.061 -0.014,-0.121 -0.04,-0.175c-0.169,-0.347 -0.359,-0.566 -0.582,-0.712c-0.311,-0.203 -0.703,-0.263 -1.278,-0.263c-1.198,-0 -2.193,0.88 -2.371,2.029Zm3.471,17.583l-0,-18.366c-0.078,-0.144 -0.158,-0.247 -0.259,-0.313c-0.203,-0.133 -0.466,-0.133 -0.841,-0.133c-0.879,-0 -1.594,0.711 -1.6,1.589l-0.4,0.411c-0.879,-0 -1.594,0.711 -1.6,1.589l-0.4,0.411c-0.883,-0 -1.6,0.717 -1.6,1.6c-0,0.07 0.005,0.139 0.013,0.207c0.021,0.161 -0.058,0.319 -0.199,0.399c-0.486,0.275 -0.814,0.797 -0.814,1.394c-0,0.392 0.141,0.751 0.375,1.029c0.075,0.089 0.108,0.207 0.089,0.323c-0.02,0.115 -0.088,0.216 -0.188,0.277c-0.465,0.28 -0.776,0.789 -0.776,1.371c-0,0.693 0.442,1.284 1.059,1.506c0.14,0.05 0.24,0.173 0.261,0.32c0.021,0.147 -0.041,0.293 -0.161,0.38c-0.399,0.291 -0.659,0.762 -0.659,1.294c-0,0.597 0.328,1.119 0.814,1.394c0.141,0.08 0.22,0.238 0.199,0.399c-0.008,0.068 -0.013,0.137 -0.013,0.207c-0,0.877 0.707,1.59 1.589,1.6c-0,-0 -0,-0 -0,-0c0.133,0 0.011,0.8 0.011,0.8l0.4,-0.4c-0,0.883 0.717,1.6 1.6,1.6c0.633,0 1.18,-0.368 1.44,-0.901c0.069,-0.143 0.215,-0.231 0.374,-0.225c0.158,0.005 0.297,0.104 0.356,0.25c0.076,0.188 0.309,0.235 0.515,0.221c0.179,-0.012 0.375,-0.068 0.415,-0.233Zm-5.1,-14.825c-0,0 0,0 0,0l-0,0Zm2,-2c-0,0 0,0 0,0l-0,0Z" style="fill:#ec1f27;"/></svg>