<?xml version="1.0" encoding="UTF-8" standalone="no"?><!DOCTYPE svg PUBLIC "-//W3C//DTD SVG 1.1//EN" "http://www.w3.org/Graphics/SVG/1.1/DTD/svg11.dtd"><svg width="100%" height="100%" viewBox="0 0 150 150" version="1.1" xmlns="http://www.w3.org/2000/svg" xmlns:xlink="http://www.w3.org/1999/xlink" xml:space="preserve" xmlns:serif="http://www.serif.com/" style="fill-rule:evenodd;clip-rule:evenodd;stroke-linecap:round;stroke-linejoin:round;stroke-miterlimit:1.5;"><rect id="brake-light" x="0" y="0" width="150" height="150" style="fill:none;"/><g id="bg-white"><circle cx="75" cy="75" r="75" style="fill:#fff;"/></g><path d="M72.917,97.917l8.333,4.166" style="fill:none;stroke:#ec1f27;stroke-width:3.33px;"/><path d="M75,89.583l8.333,0" style="fill:none;stroke:#ec1f27;stroke-width:3.33px;"/><circle cx="56.25" cy="89.583" r="12.5" style="fill:none;stroke:#ec1f27;stroke-width:3.33px;"/><path d="M45.833,83.333l20.834,0" style="fill:none;stroke:#ec1f27;stroke-width:3.33px;"/><path d="M45.833,89.583l20.834,0" style="fill:none;stroke:#ec1f27;stroke-width:3.33px;"/><path d="M45.833,95.833l20.834,0" style="fill:none;stroke:#ec1f27;stroke-width:3.33px;"/><path d="M33.333,108.333l0,-14.583c0.906,-10.574 5.335,-19.152 14.584,-25c0,0 2.518,-42.098 25,-41.667l43.75,0" style="fill:none;stroke:#ec1f27;stroke-width:3.33px;"/><path d="M116.667,108.333l-83.855,0c-2.012,0 -3.645,1.634 -3.645,3.646l0,7.292c0,2.012 1.633,3.646 3.645,3.646l83.855,0" style="fill:none;stroke:#ec1f27;stroke-width:3.33px;"/><path d="M116.667,35.417l-42.709,0c-5.174,0 -10.144,6.178 -11.458,13.541l-2.083,10.417c0,5.174 4.2,9.375 9.375,9.375l46.875,0" style="fill:none;stroke:#ec1f27;stroke-width:3.33px;"/><path d="M70.833,52.083c0.916,-6.05 4.244,-9.668 10.417,-10.416" style="fill:none;stroke:#ec1f27;stroke-width:3.33px;"/><path d="M116.667,81.25l-21.875,0c-2.875,0 -5.209,2.334 -5.209,5.208l0,10.417c0,2.875 2.334,5.208 5.209,5.208l21.875,0" style="fill:none;stroke:#ec1f27;stroke-width:3.33px;"/><path d="M72.917,81.25l8.333,-4.167" style="fill:none;stroke:#ec1f27;stroke-width:3.33px;"/></svg>