<?xml version="1.0" encoding="UTF-8" standalone="no"?><!DOCTYPE svg PUBLIC "-//W3C//DTD SVG 1.1//EN" "http://www.w3.org/Graphics/SVG/1.1/DTD/svg11.dtd"><svg width="100%" height="100%" viewBox="0 0 36 36" version="1.1" xmlns="http://www.w3.org/2000/svg" xmlns:xlink="http://www.w3.org/1999/xlink" xml:space="preserve" xmlns:serif="http://www.serif.com/" style="fill-rule:evenodd;clip-rule:evenodd;stroke-linecap:round;stroke-linejoin:round;stroke-miterlimit:1.5;"><rect id="broken-bank" x="0" y="0" width="36" height="36" style="fill:none;"/><g id="bg-white"><circle cx="18" cy="18" r="18" style="fill:#fff;"/></g><path d="M11,24c0,0 -1.736,-2.475 -2.5,-3c-0.764,-0.525 -2.432,-0.604 -2.5,-1.5c-0.068,-0.896 0.3,-3.982 1,-4.5c0.7,-0.518 1.556,-0.185 2.5,-0.5c0.944,-0.315 1.5,-1 1.5,-1c0,0 -2.656,-3.287 -2,-4.5c0,0 3.304,4.014 4,3c0.696,-1.014 0.721,-0.882 2,-1c1.279,-0.118 7.213,0.233 9,2c1.787,1.767 1.602,3.593 2,4c0.398,0.407 2.88,-0.109 3,-1c0.12,-0.891 -0.605,-1.498 -1,-1c-0.395,0.498 -0.324,0.901 -0.03,1.868c0.295,0.967 1.53,1.132 1.53,1.132c-0.311,0.331 -3.401,-1.231 -3,-3c0.275,-1.213 0.859,-1.552 1.5,-1.5c0.641,0.052 1.768,1.19 2,2c0.433,1.513 -2.28,3.109 -3,3c-0.568,-0.086 -1.273,2.218 -1,3c0.273,0.782 1.786,2.999 1.5,4c-0.286,1.001 -0.653,1.772 -1,2c-0.347,0.228 -0.833,0.7 -1,0.5c-0.167,-0.2 -0.548,-0.667 -0.5,-1c0.048,-0.333 0,-0.5 0,-0.5l-1,-2.5l0.5,3c0,0 0.227,1.373 0,1.5c-0.227,0.127 -0.323,0.494 -1.5,0.5c-1.177,0.006 -1.277,-0.575 -1.5,-1c-0.223,-0.425 -1,-2.5 -1,-2.5c0,0 -1.068,1.016 -2,1c-0.932,-0.016 -4.5,0 -4.5,0c0,0 -0.676,1.998 -1,2c-0.324,0.002 -1.329,0.571 -2,0c-0.671,-0.571 -0.448,-0.864 -0.5,-1.5c-0.052,-0.636 0.5,-3 0.5,-3Z" style="fill:none;stroke:#f00;stroke-width:0.8px;"/><path d="M16.5,12.5c0,0 4.524,0.16 6.5,1.5" style="fill:none;stroke:#231f20;stroke-width:0.8px;"/><path d="M20,13l1,1.5l-1.5,1.5l-3,1l0,2.5l1,1.5l-1.5,1.5" style="fill:none;stroke:#231f20;stroke-width:0.8px;"/><path d="M20.5,15.5l1,1.5l-1,1" style="fill:none;stroke:#231f20;stroke-width:0.8px;"/><path d="M13,11.5c0,0 -1.462,-1.104 -2.5,-3c0,0 2.75,1.083 3.5,1.5c0.412,0.229 1,1 1,1" style="fill:none;stroke:#f00;stroke-width:0.8px;"/><path d="M14.5,7l0.5,0l1.5,0.5c0,0 -0.124,1.253 0,1.5c0.124,0.247 0.5,1 0.5,1l-2,-1l-0.5,-2Z" style="fill:none;stroke:#f00;stroke-width:0.8px;"/><path d="M17.5,7l1.5,0.5l-1,2l-0.5,-2.5Z" style="fill:none;stroke:#f00;stroke-width:0.8px;"/><circle cx="11.5" cy="16.5" r="1" style="fill:none;stroke:#231f20;stroke-width:0.8px;"/></svg>