<?xml version="1.0" encoding="UTF-8" standalone="no"?><!DOCTYPE svg PUBLIC "-//W3C//DTD SVG 1.1//EN" "http://www.w3.org/Graphics/SVG/1.1/DTD/svg11.dtd"><svg width="100%" height="100%" viewBox="0 0 36 36" version="1.1" xmlns="http://www.w3.org/2000/svg" xmlns:xlink="http://www.w3.org/1999/xlink" xml:space="preserve" xmlns:serif="http://www.serif.com/" style="fill-rule:evenodd;clip-rule:evenodd;stroke-linejoin:round;stroke-miterlimit:2;"><rect id="broken-bank" x="0" y="0" width="36" height="36" style="fill:none;"/><g id="bg-white"><circle cx="18" cy="18" r="18" style="fill:#fff;"/></g><path d="M24.998,28.01c0.073,0.099 0.143,0.185 0.195,0.247c0.153,0.183 0.383,0.251 0.674,0.14c0.242,-0.092 0.587,-0.389 0.852,-0.563c0.179,-0.116 0.371,-0.337 0.549,-0.651c0.22,-0.389 0.435,-0.937 0.617,-1.573c0.132,-0.465 -0.034,-1.163 -0.343,-1.883c-0.396,-0.92 -1.002,-1.895 -1.164,-2.359c-0.061,-0.175 -0.048,-0.444 -0.006,-0.741c0.072,-0.51 0.249,-1.089 0.46,-1.471c0.054,-0.099 0.148,-0.21 0.185,-0.253c0.143,0.008 0.328,-0.016 0.54,-0.08c0.321,-0.097 0.724,-0.287 1.124,-0.543c0.218,0.088 0.41,0.142 0.553,0.158c0.275,0.03 0.461,-0.061 0.557,-0.164c0.103,-0.109 0.136,-0.267 0.086,-0.408c-0.05,-0.141 -0.175,-0.243 -0.324,-0.262l-0.013,-0.003c0.651,-0.642 1.063,-1.447 0.845,-2.211c-0.157,-0.546 -0.665,-1.232 -1.21,-1.7c-0.4,-0.344 -0.825,-0.563 -1.142,-0.589c-0.342,-0.028 -0.671,0.033 -0.967,0.214c-0.4,0.243 -0.758,0.723 -0.956,1.597c-0.147,0.648 0.079,1.282 0.493,1.829c-0.045,0.001 -0.087,-0 -0.127,-0.002c-0.075,-0.005 -0.174,-0.028 -0.204,-0.035c-0.035,-0.049 -0.05,-0.126 -0.077,-0.219c-0.053,-0.18 -0.102,-0.404 -0.169,-0.661c-0.217,-0.833 -0.605,-1.981 -1.745,-3.108c-0.756,-0.748 -2.206,-1.276 -3.77,-1.609c-2.266,-0.481 -4.763,-0.578 -5.548,-0.505c-0.877,0.081 -1.232,0.092 -1.553,0.312c-0.213,0.146 -0.417,0.39 -0.733,0.849c-0.013,-0 -0.035,-0.001 -0.049,-0.004c-0.029,-0.005 -0.06,-0.014 -0.091,-0.025c-0.145,-0.051 -0.308,-0.145 -0.481,-0.264c-1.177,-0.809 -2.747,-2.724 -2.747,-2.724c-0.085,-0.103 -0.215,-0.157 -0.347,-0.144c-0.133,0.013 -0.25,0.091 -0.314,0.208c-0.24,0.444 -0.168,1.122 0.124,1.846c0.431,1.072 1.295,2.279 1.699,2.814c-0.219,0.198 -0.596,0.483 -1.097,0.651c-0.435,0.144 -0.85,0.134 -1.236,0.153c-0.5,0.025 -0.959,0.096 -1.376,0.405c-0.255,0.189 -0.503,0.643 -0.682,1.237c-0.359,1.189 -0.528,2.961 -0.479,3.614c0.038,0.498 0.392,0.849 0.918,1.096c0.55,0.258 1.311,0.399 1.754,0.704c0.627,0.43 1.926,2.23 2.298,2.755l0,0c-0.127,0.575 -0.515,2.393 -0.47,2.947c0.02,0.248 -0.003,0.443 0.004,0.623c0.015,0.365 0.103,0.697 0.636,1.15c0.436,0.371 0.975,0.395 1.463,0.303c0.239,-0.045 0.462,-0.117 0.639,-0.168c0.067,-0.019 0.121,-0.04 0.16,-0.04c0.084,-0.001 0.177,-0.023 0.271,-0.082c0.085,-0.053 0.189,-0.156 0.288,-0.306c0.257,-0.388 0.567,-1.192 0.721,-1.613c0.858,-0.003 3.439,-0.012 4.21,0.001c0.441,0.007 0.911,-0.17 1.311,-0.398c0.194,-0.11 0.371,-0.23 0.519,-0.34c0.251,0.655 0.668,1.729 0.823,2.024c0.161,0.308 0.29,0.669 0.657,0.918c0.251,0.171 0.617,0.299 1.199,0.296c0.99,-0.005 1.337,-0.249 1.554,-0.431c0.054,-0.046 0.091,-0.093 0.139,-0.12c0.118,-0.066 0.251,-0.229 0.288,-0.498c0.014,-0.096 0.018,-0.214 0.015,-0.341Zm-15.586,-17.93c0.03,0.091 0.064,0.184 0.102,0.278c0.537,1.335 1.797,2.891 1.797,2.891c0.119,0.146 0.119,0.356 -0,0.503c-0,-0 -0.623,0.774 -1.685,1.127c-0.51,0.17 -0.995,0.172 -1.448,0.194c-0.339,0.017 -0.657,0.039 -0.94,0.248c-0.065,0.049 -0.117,0.14 -0.173,0.25c-0.081,0.159 -0.153,0.356 -0.219,0.576c-0.33,1.093 -0.493,2.722 -0.447,3.323c0.008,0.109 0.075,0.187 0.162,0.256c0.149,0.118 0.351,0.206 0.57,0.289c0.551,0.209 1.191,0.378 1.596,0.655c0.791,0.544 2.6,3.1 2.6,3.1c0.066,0.093 0.088,0.21 0.063,0.321c-0,-0 -0.541,2.267 -0.491,2.877c0.016,0.205 0.007,0.378 0.005,0.535c-0.004,0.236 0.029,0.415 0.355,0.692c0.294,0.251 0.68,0.163 0.99,0.083c0.239,-0.062 0.451,-0.128 0.606,-0.16c0.048,-0.074 0.164,-0.258 0.236,-0.41c0.271,-0.568 0.53,-1.336 0.53,-1.336c0.055,-0.162 0.206,-0.271 0.377,-0.272c0,0 3.575,-0.016 4.509,0c0.305,0.005 0.625,-0.135 0.902,-0.293c0.464,-0.264 0.815,-0.597 0.815,-0.597c0.098,-0.092 0.235,-0.13 0.366,-0.1c0.131,0.03 0.238,0.124 0.285,0.25c-0,-0 0.76,2.037 0.979,2.454c0.107,0.203 0.157,0.464 0.399,0.628c0.155,0.106 0.386,0.16 0.745,0.158c0.755,-0.004 0.962,-0.171 1.106,-0.299c0.029,-0.026 0.057,-0.05 0.085,-0.072c0.006,-0.058 0.013,-0.16 0.011,-0.24c-0.009,-0.408 -0.094,-0.918 -0.095,-0.924l-0.5,-2.999c-0.033,-0.202 0.09,-0.396 0.287,-0.451c0.197,-0.055 0.404,0.047 0.479,0.236l1,2.5c0.005,0.012 0.009,0.024 0.013,0.037l0.001,0.005l0.002,0.005l0.001,0.004l0.002,0.009c0.01,0.039 0.062,0.255 0.006,0.646c-0.009,0.062 0.032,0.129 0.067,0.199c0.06,0.118 0.14,0.232 0.214,0.326c0.15,-0.106 0.444,-0.312 0.604,-0.416c0.099,-0.066 0.191,-0.202 0.291,-0.377c0.195,-0.346 0.382,-0.834 0.543,-1.399c0.042,-0.145 0.02,-0.326 -0.025,-0.527c-0.058,-0.255 -0.16,-0.534 -0.283,-0.82c-0.405,-0.94 -1.019,-1.937 -1.185,-2.411c-0.092,-0.263 -0.105,-0.67 -0.042,-1.117c0.085,-0.605 0.301,-1.292 0.552,-1.746c0.132,-0.24 0.281,-0.421 0.422,-0.525c0.168,-0.125 0.342,-0.164 0.506,-0.14c0.098,0.015 0.248,-0.034 0.427,-0.103c0.111,-0.042 0.23,-0.095 0.352,-0.158c-0.178,-0.112 -0.356,-0.239 -0.527,-0.378c-0.406,0.076 -0.793,0.096 -1.068,0.053c-0.245,-0.038 -0.425,-0.131 -0.53,-0.239c-0.152,-0.155 -0.266,-0.463 -0.372,-0.893c-0.183,-0.741 -0.445,-1.936 -1.623,-3.102c-0.674,-0.666 -1.981,-1.098 -3.374,-1.394c-2.169,-0.461 -4.558,-0.561 -5.308,-0.492c-0.377,0.035 -0.643,0.047 -0.849,0.075c-0.136,0.018 -0.235,0.038 -0.325,0.101c-0.16,0.109 -0.296,0.306 -0.533,0.652c-0.168,0.244 -0.406,0.352 -0.703,0.337c-0.277,-0.014 -0.638,-0.168 -1.025,-0.434c-0.724,-0.498 -1.591,-1.39 -2.19,-2.049Zm19.313,7.181c0.299,-0.246 0.569,-0.531 0.742,-0.836c0.149,-0.263 0.227,-0.54 0.148,-0.815c-0.121,-0.426 -0.536,-0.948 -0.961,-1.313c-0.247,-0.212 -0.491,-0.382 -0.687,-0.398c-0.485,-0.04 -0.869,0.272 -1.077,1.189c-0.087,0.385 0.054,0.753 0.284,1.083c0.083,0.118 0.177,0.232 0.279,0.339c-0.213,-0.828 -0.168,-1.252 0.234,-1.759c0.188,-0.238 0.423,-0.332 0.655,-0.33c0.213,0.001 0.435,0.09 0.624,0.266c0.29,0.27 0.511,0.768 0.43,1.367c-0.036,0.268 -0.197,0.525 -0.464,0.742c-0.118,0.096 -0.259,0.185 -0.415,0.266c0.062,0.077 0.133,0.143 0.208,0.199Zm-0.503,-0.948c0.033,-0.019 0.065,-0.038 0.095,-0.058c0.144,-0.094 0.27,-0.184 0.287,-0.309c0.039,-0.292 -0.042,-0.542 -0.183,-0.674c-0.018,-0.017 -0.037,-0.031 -0.056,-0.041c-0.008,-0.004 -0.014,-0.014 -0.022,-0.011c-0.012,0.004 -0.02,0.016 -0.03,0.029c-0.25,0.315 -0.228,0.584 -0.091,1.064Z" style="fill:#ec1f27;"/><path d="M16.486,12.9c-0,-0 4.379,0.135 6.29,1.431c0.182,0.124 0.431,0.076 0.555,-0.107c0.124,-0.182 0.076,-0.431 -0.107,-0.555c-2.041,-1.384 -6.71,-1.569 -6.71,-1.569c-0.22,-0.008 -0.406,0.165 -0.414,0.386c-0.008,0.22 0.165,0.406 0.386,0.414Z" style="fill:#ec1f27;"/><path d="M19.667,13.222l0.818,1.227c0,0 -1.201,1.201 -1.201,1.201c-0,0 -2.91,0.971 -2.91,0.971c-0.164,0.054 -0.274,0.207 -0.274,0.379l-0,2.5c-0,0.079 0.023,0.156 0.067,0.222l0.818,1.227c0,0 -1.268,1.268 -1.268,1.268c-0.156,0.156 -0.156,0.41 0,0.566c0.156,0.156 0.41,0.156 0.566,-0l1.5,-1.5c0.135,-0.135 0.156,-0.346 0.05,-0.505l-0.933,-1.399c0,-0 0,-2.091 0,-2.091c0,0 2.726,-0.909 2.726,-0.909c0.059,-0.019 0.113,-0.052 0.157,-0.096l1.5,-1.5c0.135,-0.135 0.156,-0.346 0.05,-0.505l-1,-1.5c-0.123,-0.184 -0.371,-0.233 -0.555,-0.111c-0.184,0.123 -0.233,0.371 -0.111,0.555Z" style="fill:#ec1f27;"/><path d="M20.167,15.722l0.818,1.227c0,0 -0.768,0.768 -0.768,0.768c-0.156,0.156 -0.156,0.41 0,0.566c0.156,0.156 0.41,0.156 0.566,-0l1,-1c0.135,-0.135 0.156,-0.346 0.05,-0.505l-1,-1.5c-0.123,-0.184 -0.371,-0.233 -0.555,-0.111c-0.184,0.123 -0.233,0.371 -0.111,0.555Z" style="fill:#ec1f27;"/><path d="M13.241,11.181c0,-0 -0.879,-0.666 -1.738,-1.847c0.833,0.34 1.884,0.783 2.303,1.016c0.364,0.202 0.876,0.893 0.876,0.893c0.134,0.175 0.385,0.209 0.561,0.075c0.175,-0.134 0.209,-0.385 0.075,-0.561c0,0 -0.664,-0.851 -1.124,-1.107c-0.76,-0.422 -3.547,-1.522 -3.547,-1.522c-0.157,-0.062 -0.336,-0.019 -0.447,0.107c-0.111,0.127 -0.132,0.309 -0.051,0.457c1.082,1.977 2.61,3.127 2.61,3.127c0.176,0.133 0.427,0.098 0.56,-0.078c0.133,-0.176 0.098,-0.427 -0.078,-0.56Z" style="fill:#ec1f27;"/><path d="M16.866,8.838c-0.003,-0.026 -0.019,-0.172 -0.021,-0.276c-0.006,-0.434 0.053,-1.023 0.053,-1.023c0.018,-0.185 -0.094,-0.359 -0.272,-0.418l-1.5,-0.5c-0.04,-0.014 -0.083,-0.021 -0.126,-0.021l-0.5,0c-0.123,0 -0.239,0.057 -0.315,0.154c-0.076,0.097 -0.103,0.224 -0.073,0.343l0.5,2c0.028,0.113 0.105,0.209 0.209,0.261l2,1c0.154,0.077 0.34,0.047 0.462,-0.075c0.121,-0.122 0.152,-0.308 0.075,-0.462c-0,0 -0.359,-0.719 -0.492,-0.983Zm-1.523,-0.113l-0.324,-1.297l1.056,0.352c-0.016,0.226 -0.033,0.534 -0.03,0.792c0.003,0.224 0.031,0.418 0.07,0.538l-0.772,-0.385Z" style="fill:#ec1f27;"/><path d="M17.626,6.621c-0.135,-0.046 -0.284,-0.015 -0.391,0.079c-0.107,0.094 -0.155,0.239 -0.127,0.378l0.5,2.5c0.033,0.168 0.17,0.296 0.339,0.318c0.169,0.023 0.334,-0.064 0.411,-0.217l1,-2c0.052,-0.104 0.056,-0.225 0.012,-0.332c-0.045,-0.107 -0.134,-0.19 -0.244,-0.226l-1.5,-0.5Zm0.401,0.976l0.409,0.137c-0,-0 -0.272,0.544 -0.272,0.544l-0.137,-0.681Z" style="fill:#ec1f27;"/><path d="M11.5,15.1c-0.773,0 -1.4,0.627 -1.4,1.4c0,0.773 0.627,1.4 1.4,1.4c0.773,-0 1.4,-0.627 1.4,-1.4c-0,-0.773 -0.627,-1.4 -1.4,-1.4Zm0,0.8c0.331,-0 0.6,0.269 0.6,0.6c0,0.331 -0.269,0.6 -0.6,0.6c-0.331,0 -0.6,-0.269 -0.6,-0.6c-0,-0.331 0.269,-0.6 0.6,-0.6Z" style="fill:#ec1f27;"/></svg>