<?xml version="1.0" encoding="UTF-8" standalone="no"?><!DOCTYPE svg PUBLIC "-//W3C//DTD SVG 1.1//EN" "http://www.w3.org/Graphics/SVG/1.1/DTD/svg11.dtd"><svg width="100%" height="100%" viewBox="0 0 150 150" version="1.1" xmlns="http://www.w3.org/2000/svg" xmlns:xlink="http://www.w3.org/1999/xlink" xml:space="preserve" xmlns:serif="http://www.serif.com/" style="fill-rule:evenodd;clip-rule:evenodd;stroke-linecap:round;stroke-linejoin:round;stroke-miterlimit:1.5;"><rect id="broken-chain" x="0" y="0" width="150" height="150" style="fill:none;"/><g id="bg-white"><circle cx="75" cy="75" r="75" style="fill:#fff;"/></g><path d="M80.325,62.647l-19.151,-19.151c-2.439,-2.439 -6.4,-2.439 -8.839,0l-8.839,8.839c-2.439,2.439 -2.439,6.4 0,8.839l19.151,19.151l5.892,-5.893l-16.204,-16.205c-0.813,-0.813 -0.813,-2.133 0,-2.946l2.946,-2.946c0.813,-0.813 2.133,-0.813 2.946,0l16.205,16.204l5.893,-5.892" style="fill:none;stroke:#ec1f27;stroke-width:2.92px;"/><path d="M70.833,88.511l19.151,19.151c2.439,2.439 6.4,2.439 8.839,0l8.839,-8.839c2.439,-2.439 2.439,-6.4 0,-8.839l-19.151,-19.151l-5.893,5.893l16.205,16.204c0.813,0.813 0.813,2.134 0,2.947l-2.946,2.946c-0.813,0.813 -2.134,0.813 -2.947,0l-16.204,-16.205l-5.893,5.893" style="fill:none;stroke:#ec1f27;stroke-width:2.92px;"/><path d="M87.5,62.5l12.5,-12.5" style="fill:none;stroke:#ec1f27;stroke-width:2.92px;"/><path d="M50,100l12.5,-12.5" style="fill:none;stroke:#ec1f27;stroke-width:2.92px;"/><path d="M83.912,58.333l0,-12.5" style="fill:none;stroke:#ec1f27;stroke-width:2.92px;"/><path d="M66.667,104.167l0,-12.5" style="fill:none;stroke:#ec1f27;stroke-width:2.92px;"/><path d="M91.667,66.667l12.5,0" style="fill:none;stroke:#ec1f27;stroke-width:2.92px;"/><path d="M45.833,83.912l12.5,0" style="fill:none;stroke:#ec1f27;stroke-width:2.92px;"/></svg>