<?xml version="1.0" encoding="UTF-8" standalone="no"?><!DOCTYPE svg PUBLIC "-//W3C//DTD SVG 1.1//EN" "http://www.w3.org/Graphics/SVG/1.1/DTD/svg11.dtd"><svg width="100%" height="100%" viewBox="0 0 36 36" version="1.1" xmlns="http://www.w3.org/2000/svg" xmlns:xlink="http://www.w3.org/1999/xlink" xml:space="preserve" xmlns:serif="http://www.serif.com/" style="fill-rule:evenodd;clip-rule:evenodd;stroke-linejoin:round;stroke-miterlimit:2;"><rect id="butterfly" x="0" y="0" width="36" height="36" style="fill:none;"/><g id="bg-white"><circle cx="18" cy="18" r="18" style="fill:#fff;"/></g><path d="M17.29,16.224c-3.624,-3.814 -8.501,-6.368 -9.156,-6.601c-0.707,-0.251 -1.606,0.058 -2.116,0.592c-0.387,0.406 -0.548,0.924 -0.354,1.412c0.112,0.283 0.353,0.569 0.789,0.807c0.502,0.273 0.737,0.798 0.932,1.452c0.349,1.166 0.53,2.717 1.252,4.282c0.065,0.141 0.207,0.232 0.363,0.232l0.854,-0c-0.842,0.813 -1.184,1.679 -1.253,2.569c-0,0.009 -0.001,0.018 -0.001,0.027c-0.019,1.857 0.537,3.151 1.487,4.014c0.937,0.851 2.276,1.285 3.887,1.389c0.883,0.057 1.622,-0.463 2.196,-1.222c0.761,-1.003 1.235,-2.414 1.457,-3.044c0.074,-0.208 -0.036,-0.437 -0.244,-0.51c-0.208,-0.074 -0.437,0.036 -0.51,0.244c-0.206,0.584 -0.636,1.897 -1.34,2.827c-0.402,0.531 -0.889,0.947 -1.507,0.907c-1.405,-0.091 -2.584,-0.441 -3.402,-1.184c-0.801,-0.728 -1.237,-1.831 -1.224,-3.395c0.078,-0.957 0.568,-1.858 1.821,-2.689c0.147,-0.097 0.213,-0.279 0.162,-0.448c-0.051,-0.169 -0.207,-0.285 -0.383,-0.285l-1.74,0c-0.618,-1.446 -0.786,-2.864 -1.108,-3.943c-0.264,-0.883 -0.638,-1.556 -1.316,-1.926c-0.227,-0.123 -0.37,-0.253 -0.429,-0.4c-0.079,-0.199 0.031,-0.398 0.19,-0.564c0.308,-0.323 0.842,-0.542 1.269,-0.39c0.634,0.225 5.339,2.71 8.844,6.399c0.152,0.16 0.406,0.166 0.566,0.014c0.16,-0.152 0.166,-0.406 0.014,-0.566Z" style="fill:#ec1f27;"/><path d="M19.272,16.776c3.505,-3.689 8.21,-6.174 8.844,-6.399c0.427,-0.152 0.961,0.067 1.269,0.39c0.158,0.166 0.269,0.365 0.19,0.564c-0.059,0.147 -0.202,0.277 -0.429,0.4c-0.678,0.37 -1.052,1.043 -1.316,1.926c-0.323,1.079 -0.49,2.497 -1.108,3.943c-0,0 -1.74,0 -1.74,0c-0.177,-0 -0.332,0.116 -0.383,0.285c-0.051,0.169 0.015,0.351 0.162,0.448c1.252,0.83 1.742,1.73 1.821,2.682c0.014,1.569 -0.422,2.674 -1.225,3.402c-0.817,0.743 -1.996,1.093 -3.401,1.184c-0.618,0.04 -1.105,-0.376 -1.507,-0.907c-0.705,-0.93 -1.134,-2.243 -1.34,-2.827c-0.073,-0.208 -0.302,-0.318 -0.51,-0.244c-0.209,0.073 -0.318,0.302 -0.244,0.51c0.222,0.63 0.696,2.041 1.456,3.044c0.575,0.759 1.314,1.279 2.197,1.222c1.61,-0.104 2.95,-0.538 3.887,-1.389c0.95,-0.863 1.506,-2.157 1.487,-4.014c-0,-0.009 -0.001,-0.018 -0.001,-0.027c-0.069,-0.89 -0.412,-1.757 -1.253,-2.569c-0,-0 0.854,-0 0.854,-0c0.156,-0 0.298,-0.091 0.363,-0.232c0.722,-1.565 0.903,-3.116 1.251,-4.282c0.195,-0.654 0.431,-1.179 0.933,-1.452c0.436,-0.238 0.676,-0.524 0.789,-0.807c0.194,-0.488 0.033,-1.006 -0.354,-1.412c-0.51,-0.534 -1.41,-0.843 -2.116,-0.592c-0.656,0.233 -5.532,2.787 -9.156,6.601c-0.152,0.16 -0.146,0.414 0.014,0.566c0.16,0.152 0.414,0.146 0.566,-0.014Z" style="fill:#ec1f27;"/><path d="M19.399,16.528c0.001,-0.01 0.001,-0.02 0.001,-0.031c-0.007,-1.092 -0.729,-1.605 -1.407,-1.606c-0.681,-0.001 -1.4,0.512 -1.393,1.612c0,0.008 0,0.017 0.001,0.025l0.499,6.985c-0.002,0.869 0.498,1.244 0.884,1.252c0.387,0.007 0.905,-0.35 0.916,-1.256c-0,0.008 0.499,-6.981 0.499,-6.981Zm-1.405,7.406c-0.011,-0.015 -0.024,-0.034 -0.031,-0.051c-0.043,-0.095 -0.065,-0.222 -0.063,-0.379c0,-0.011 -0,-0.022 -0.001,-0.032l-0.499,-6.987c0.001,-0.509 0.275,-0.795 0.592,-0.794c0.318,0 0.598,0.286 0.608,0.792l-0,0.005l-0.499,6.984l-0.011,0.178c-0.004,0.04 -0.011,0.077 -0.019,0.112c-0.015,0.063 -0.052,0.132 -0.077,0.172Z" style="fill:#ec1f27;"/></svg>