<?xml version="1.0" encoding="UTF-8" standalone="no"?><!DOCTYPE svg PUBLIC "-//W3C//DTD SVG 1.1//EN" "http://www.w3.org/Graphics/SVG/1.1/DTD/svg11.dtd"><svg width="100%" height="100%" viewBox="0 0 36 36" version="1.1" xmlns="http://www.w3.org/2000/svg" xmlns:xlink="http://www.w3.org/1999/xlink" xml:space="preserve" xmlns:serif="http://www.serif.com/" style="fill-rule:evenodd;clip-rule:evenodd;stroke-linejoin:round;stroke-miterlimit:2;"><rect id="cellphone" x="0" y="0" width="36" height="36" style="fill:none;"/><g id="bg-white"><circle cx="18" cy="18" r="18" style="fill:#fff;"/></g><path d="M24.9,7.3c0,-0.938 -0.762,-1.7 -1.7,-1.7c-0,0 -10.4,0 -10.4,0c-0.938,0 -1.7,0.762 -1.7,1.7c-0,0 -0,21.4 -0,21.4c-0,0.938 0.762,1.7 1.7,1.7l10.4,-0c0.938,-0 1.7,-0.762 1.7,-1.7l0,-21.4Zm-0.8,-0l0,21.4c0,0.497 -0.403,0.9 -0.9,0.9c-0,0 -10.4,0 -10.4,0c-0.497,0 -0.9,-0.403 -0.9,-0.9l-0,-21.4c-0,-0.497 0.403,-0.9 0.9,-0.9l10.4,-0c0.497,-0 0.9,0.403 0.9,0.9Z" style="fill:#ec1f27;"/><path d="M24.9,9c0,-0.221 -0.179,-0.4 -0.4,-0.4l-13,-0c-0.221,-0 -0.4,0.179 -0.4,0.4l-0,17c-0,0.221 0.179,0.4 0.4,0.4l13,-0c0.221,-0 0.4,-0.179 0.4,-0.4l0,-17Zm-0.8,0.4l-0,16.2c-0,-0 -12.2,-0 -12.2,-0c0,-0 -0,-16.2 -0,-16.2l12.2,0Z" style="fill:#ec1f27;"/><path d="M16,7.9l4,-0c0.221,-0 0.4,-0.179 0.4,-0.4c-0,-0.221 -0.179,-0.4 -0.4,-0.4l-4,0c-0.221,-0 -0.4,0.179 -0.4,0.4c-0,0.221 0.179,0.4 0.4,0.4Z" style="fill:#ec1f27;"/><path d="M18,26.6c-0.773,0 -1.4,0.627 -1.4,1.4c-0,0.773 0.627,1.4 1.4,1.4c0.773,-0 1.4,-0.627 1.4,-1.4c0,-0.773 -0.627,-1.4 -1.4,-1.4Zm0,0.8c0.331,-0 0.6,0.269 0.6,0.6c-0,0.331 -0.269,0.6 -0.6,0.6c-0.331,0 -0.6,-0.269 -0.6,-0.6c0,-0.331 0.269,-0.6 0.6,-0.6Z" style="fill:#ec1f27;"/></svg>