<?xml version="1.0" encoding="UTF-8" standalone="no"?><!DOCTYPE svg PUBLIC "-//W3C//DTD SVG 1.1//EN" "http://www.w3.org/Graphics/SVG/1.1/DTD/svg11.dtd"><svg width="100%" height="100%" viewBox="0 0 150 150" version="1.1" xmlns="http://www.w3.org/2000/svg" xmlns:xlink="http://www.w3.org/1999/xlink" xml:space="preserve" xmlns:serif="http://www.serif.com/" style="fill-rule:evenodd;clip-rule:evenodd;stroke-linecap:round;stroke-linejoin:round;stroke-miterlimit:1.5;"><rect id="clock" x="0" y="0" width="150" height="150" style="fill:none;"/><g id="bg-white"><circle cx="75" cy="75" r="75" style="fill:#fff;"/></g><circle cx="75" cy="75" r="43.75" style="fill:none;stroke:#ec1f27;stroke-width:3.33px;"/><path d="M75,47.917l0,27.083l12.5,-10.417" style="fill:none;stroke:#ec1f27;stroke-width:3.33px;"/><circle cx="75" cy="75" r="37.5" style="fill:none;stroke:#ec1f27;stroke-width:3.33px;"/><path d="M37.5,75l4.167,0" style="fill:none;stroke:#ec1f27;stroke-width:3.33px;"/><path d="M42.524,56.25l3.608,2.083" style="fill:none;stroke:#ec1f27;stroke-width:3.33px;"/><path d="M56.25,42.524l2.083,3.608" style="fill:none;stroke:#ec1f27;stroke-width:3.33px;"/><path d="M108.333,75l4.167,0" style="fill:none;stroke:#ec1f27;stroke-width:3.33px;"/><path d="M103.868,91.667l3.608,2.083" style="fill:none;stroke:#ec1f27;stroke-width:3.33px;"/><path d="M91.667,103.868l2.083,3.608" style="fill:none;stroke:#ec1f27;stroke-width:3.33px;"/><path d="M75,112.5l0,-4.167" style="fill:none;stroke:#ec1f27;stroke-width:3.33px;"/><path d="M56.25,107.476l2.083,-3.608" style="fill:none;stroke:#ec1f27;stroke-width:3.33px;"/><path d="M42.524,93.75l3.608,-2.083" style="fill:none;stroke:#ec1f27;stroke-width:3.33px;"/><path d="M75,37.5l0,4.167" style="fill:none;stroke:#ec1f27;stroke-width:3.33px;"/><path d="M93.75,42.524l-2.083,3.608" style="fill:none;stroke:#ec1f27;stroke-width:3.33px;"/><path d="M107.476,56.25l-3.608,2.083" style="fill:none;stroke:#ec1f27;stroke-width:3.33px;"/></svg>