<?xml version="1.0" encoding="UTF-8" standalone="no"?><!DOCTYPE svg PUBLIC "-//W3C//DTD SVG 1.1//EN" "http://www.w3.org/Graphics/SVG/1.1/DTD/svg11.dtd"><svg width="100%" height="100%" viewBox="0 0 36 36" version="1.1" xmlns="http://www.w3.org/2000/svg" xmlns:xlink="http://www.w3.org/1999/xlink" xml:space="preserve" xmlns:serif="http://www.serif.com/" style="fill-rule:evenodd;clip-rule:evenodd;stroke-linejoin:round;stroke-miterlimit:2;"><rect id="clock" x="0" y="0" width="36" height="36" style="fill:none;"/><g id="bg-white"><circle cx="18" cy="18" r="18" style="fill:#fff;"/></g><path d="M9,18.4l1,-0c0.221,-0 0.4,-0.179 0.4,-0.4c-0,-0.221 -0.179,-0.4 -0.4,-0.4l-1,0c-0.221,-0 -0.4,0.179 -0.4,0.4c-0,0.221 0.179,0.4 0.4,0.4Z" style="fill:#ec1f27;"/><path d="M10.006,13.846l0.866,0.5c0.191,0.111 0.436,0.045 0.546,-0.146c0.111,-0.191 0.045,-0.436 -0.146,-0.546l-0.866,-0.5c-0.191,-0.111 -0.436,-0.045 -0.547,0.146c-0.11,0.191 -0.044,0.436 0.147,0.546Z" style="fill:#ec1f27;"/><path d="M13.154,10.406l0.5,0.866c0.11,0.191 0.355,0.257 0.546,0.146c0.191,-0.11 0.257,-0.355 0.146,-0.546l-0.5,-0.866c-0.11,-0.191 -0.355,-0.257 -0.546,-0.147c-0.191,0.111 -0.257,0.356 -0.146,0.547Z" style="fill:#ec1f27;"/><path d="M26,18.4l1,-0c0.221,-0 0.4,-0.179 0.4,-0.4c-0,-0.221 -0.179,-0.4 -0.4,-0.4l-1,0c-0.221,-0 -0.4,0.179 -0.4,0.4c-0,0.221 0.179,0.4 0.4,0.4Z" style="fill:#ec1f27;"/><path d="M24.728,22.346l0.866,0.5c0.191,0.111 0.436,0.045 0.547,-0.146c0.11,-0.191 0.044,-0.436 -0.147,-0.546l-0.866,-0.5c-0.191,-0.111 -0.436,-0.045 -0.546,0.146c-0.111,0.191 -0.045,0.436 0.146,0.546Z" style="fill:#ec1f27;"/><path d="M21.654,25.128l0.5,0.866c0.11,0.191 0.355,0.257 0.546,0.147c0.191,-0.111 0.257,-0.356 0.146,-0.547l-0.5,-0.866c-0.11,-0.191 -0.355,-0.257 -0.546,-0.146c-0.191,0.11 -0.257,0.355 -0.146,0.546Z" style="fill:#ec1f27;"/><path d="M18.4,27l0,-1c0,-0.221 -0.179,-0.4 -0.4,-0.4c-0.221,-0 -0.4,0.179 -0.4,0.4l0,1c0,0.221 0.179,0.4 0.4,0.4c0.221,-0 0.4,-0.179 0.4,-0.4Z" style="fill:#ec1f27;"/><path d="M13.846,25.994l0.5,-0.866c0.111,-0.191 0.045,-0.436 -0.146,-0.546c-0.191,-0.111 -0.436,-0.045 -0.546,0.146l-0.5,0.866c-0.111,0.191 -0.045,0.436 0.146,0.547c0.191,0.11 0.436,0.044 0.546,-0.147Z" style="fill:#ec1f27;"/><path d="M10.406,22.846l0.866,-0.5c0.191,-0.11 0.257,-0.355 0.146,-0.546c-0.11,-0.191 -0.355,-0.257 -0.546,-0.146l-0.866,0.5c-0.191,0.11 -0.257,0.355 -0.147,0.546c0.111,0.191 0.356,0.257 0.547,0.146Z" style="fill:#ec1f27;"/><path d="M17.6,9l-0,1c0,0.221 0.179,0.4 0.4,0.4c0.221,-0 0.4,-0.179 0.4,-0.4l-0,-1c0,-0.221 -0.179,-0.4 -0.4,-0.4c-0.221,-0 -0.4,0.179 -0.4,0.4Z" style="fill:#ec1f27;"/><path d="M22.154,10.006l-0.5,0.866c-0.111,0.191 -0.045,0.436 0.146,0.546c0.191,0.111 0.436,0.045 0.546,-0.146l0.5,-0.866c0.111,-0.191 0.045,-0.436 -0.146,-0.547c-0.191,-0.11 -0.436,-0.044 -0.546,0.147Z" style="fill:#ec1f27;"/><path d="M25.594,13.154l-0.866,0.5c-0.191,0.11 -0.257,0.355 -0.146,0.546c0.11,0.191 0.355,0.257 0.546,0.146l0.866,-0.5c0.191,-0.11 0.257,-0.355 0.147,-0.546c-0.111,-0.191 -0.356,-0.257 -0.547,-0.146Z" style="fill:#ec1f27;"/><path d="M18,7.1c-6.016,0 -10.9,4.884 -10.9,10.9c0,6.016 4.884,10.9 10.9,10.9c6.016,-0 10.9,-4.884 10.9,-10.9c0,-6.016 -4.884,-10.9 -10.9,-10.9Zm0,0.8c5.574,-0 10.1,4.526 10.1,10.1c0,5.574 -4.526,10.1 -10.1,10.1c-5.574,0 -10.1,-4.526 -10.1,-10.1c0,-5.574 4.526,-10.1 10.1,-10.1Z" style="fill:#ec1f27;"/><path d="M17.6,11.5l0,6.5c0,0.155 0.09,0.296 0.23,0.362c0.141,0.066 0.307,0.045 0.426,-0.055l3,-2.5c0.17,-0.141 0.193,-0.393 0.051,-0.563c-0.141,-0.17 -0.393,-0.193 -0.563,-0.051l-2.344,1.953c0,-0 0,-5.646 0,-5.646c0,-0.221 -0.179,-0.4 -0.4,-0.4c-0.221,-0 -0.4,0.179 -0.4,0.4Z" style="fill:#ec1f27;"/><path d="M18,8.6c-5.188,-0 -9.4,4.212 -9.4,9.4c0,5.188 4.212,9.4 9.4,9.4c5.188,-0 9.4,-4.212 9.4,-9.4c0,-5.188 -4.212,-9.4 -9.4,-9.4Zm0,0.8c4.746,-0 8.6,3.854 8.6,8.6c0,4.746 -3.854,8.6 -8.6,8.6c-4.746,-0 -8.6,-3.854 -8.6,-8.6c0,-4.746 3.854,-8.6 8.6,-8.6Z" style="fill:#ec1f27;"/></svg>