<?xml version="1.0" encoding="UTF-8" standalone="no"?><!DOCTYPE svg PUBLIC "-//W3C//DTD SVG 1.1//EN" "http://www.w3.org/Graphics/SVG/1.1/DTD/svg11.dtd"><svg width="100%" height="100%" viewBox="0 0 36 36" version="1.1" xmlns="http://www.w3.org/2000/svg" xmlns:xlink="http://www.w3.org/1999/xlink" xml:space="preserve" xmlns:serif="http://www.serif.com/" style="fill-rule:evenodd;clip-rule:evenodd;stroke-linejoin:round;stroke-miterlimit:2;"><rect id="coin-stacks" x="0" y="0" width="36" height="36" style="fill:none;"/><g id="bg-white"><circle cx="18" cy="18" r="18" style="fill:#fff;"/></g><path d="M22,10.4c-1.087,0 -2.049,0.276 -2.646,0.684c-0.492,0.336 -0.754,0.768 -0.754,1.216c-0,0.448 0.262,0.88 0.754,1.216c0.597,0.408 1.559,0.684 2.646,0.684c1.087,0 2.049,-0.276 2.646,-0.684c0.492,-0.336 0.754,-0.768 0.754,-1.216c0,-0.448 -0.262,-0.88 -0.754,-1.216c-0.597,-0.408 -1.559,-0.684 -2.646,-0.684Zm0,0.8c0.9,-0 1.701,0.208 2.195,0.545c0.237,0.161 0.405,0.34 0.405,0.555c-0,0.215 -0.168,0.394 -0.405,0.555c-0.494,0.337 -1.295,0.545 -2.195,0.545c-0.9,0 -1.701,-0.208 -2.195,-0.545c-0.237,-0.161 -0.405,-0.34 -0.405,-0.555c0,-0.215 0.168,-0.394 0.405,-0.555c0.494,-0.337 1.295,-0.545 2.195,-0.545Z" style="fill:#ec1f27;"/><path d="M24.6,24.25c-0,0.215 -0.168,0.394 -0.405,0.555c-0.494,0.337 -1.295,0.545 -2.195,0.545c-0.9,0 -1.701,-0.208 -2.195,-0.545c-0.237,-0.161 -0.405,-0.34 -0.405,-0.555c0,-0.221 -0.179,-0.4 -0.4,-0.4c-0.221,0 -0.4,0.179 -0.4,0.4c-0,0.448 0.262,0.88 0.754,1.216c0.597,0.408 1.559,0.684 2.646,0.684c1.087,-0 2.049,-0.276 2.646,-0.684c0.492,-0.336 0.754,-0.768 0.754,-1.216c0,-0.221 -0.179,-0.4 -0.4,-0.4c-0.221,0 -0.4,0.179 -0.4,0.4Z" style="fill:#ec1f27;"/><path d="M16.6,24.25c0,0.215 -0.168,0.394 -0.405,0.555c-0.494,0.337 -1.295,0.545 -2.195,0.545c-0.9,0 -1.701,-0.208 -2.195,-0.545c-0.237,-0.161 -0.405,-0.34 -0.405,-0.555c0,-0.221 -0.179,-0.4 -0.4,-0.4c-0.221,0 -0.4,0.179 -0.4,0.4c0,0.448 0.262,0.88 0.754,1.216c0.597,0.408 1.559,0.684 2.646,0.684c1.087,-0 2.049,-0.276 2.646,-0.684c0.492,-0.336 0.754,-0.768 0.754,-1.216c0,-0.221 -0.179,-0.4 -0.4,-0.4c-0.221,0 -0.4,0.179 -0.4,0.4Z" style="fill:#ec1f27;"/><path d="M16.6,22.25c0,0.215 -0.168,0.394 -0.405,0.555c-0.494,0.337 -1.295,0.545 -2.195,0.545c-0.9,0 -1.701,-0.208 -2.195,-0.545c-0.237,-0.161 -0.405,-0.34 -0.405,-0.555c0,-0.221 -0.179,-0.4 -0.4,-0.4c-0.221,0 -0.4,0.179 -0.4,0.4c0,0.448 0.262,0.88 0.754,1.216c0.597,0.408 1.559,0.684 2.646,0.684c1.087,-0 2.049,-0.276 2.646,-0.684c0.492,-0.336 0.754,-0.768 0.754,-1.216c0,-0.221 -0.179,-0.4 -0.4,-0.4c-0.221,0 -0.4,0.179 -0.4,0.4Z" style="fill:#ec1f27;"/><path d="M24.6,22.25c-0,0.215 -0.168,0.394 -0.405,0.555c-0.494,0.337 -1.295,0.545 -2.195,0.545c-0.9,0 -1.701,-0.208 -2.195,-0.545c-0.237,-0.161 -0.405,-0.34 -0.405,-0.555c0,-0.221 -0.179,-0.4 -0.4,-0.4c-0.221,0 -0.4,0.179 -0.4,0.4c-0,0.448 0.262,0.88 0.754,1.216c0.597,0.408 1.559,0.684 2.646,0.684c1.087,-0 2.049,-0.276 2.646,-0.684c0.492,-0.336 0.754,-0.768 0.754,-1.216c0,-0.221 -0.179,-0.4 -0.4,-0.4c-0.221,0 -0.4,0.179 -0.4,0.4Z" style="fill:#ec1f27;"/><path d="M24.6,18.25c-0,0.215 -0.168,0.394 -0.405,0.555c-0.494,0.337 -1.295,0.545 -2.195,0.545c-0.9,0 -1.701,-0.208 -2.195,-0.545c-0.237,-0.161 -0.405,-0.34 -0.405,-0.555c0,-0.221 -0.179,-0.4 -0.4,-0.4c-0.221,0 -0.4,0.179 -0.4,0.4c-0,0.448 0.262,0.88 0.754,1.216c0.597,0.408 1.559,0.684 2.646,0.684c1.087,-0 2.049,-0.276 2.646,-0.684c0.492,-0.336 0.754,-0.768 0.754,-1.216c0,-0.221 -0.179,-0.4 -0.4,-0.4c-0.221,0 -0.4,0.179 -0.4,0.4Z" style="fill:#ec1f27;"/><path d="M24.6,14.25c-0,0.215 -0.168,0.394 -0.405,0.555c-0.494,0.337 -1.295,0.545 -2.195,0.545c-0.9,0 -1.701,-0.208 -2.195,-0.545c-0.237,-0.161 -0.405,-0.34 -0.405,-0.555c0,-0.221 -0.179,-0.4 -0.4,-0.4c-0.221,0 -0.4,0.179 -0.4,0.4c-0,0.448 0.262,0.88 0.754,1.216c0.597,0.408 1.559,0.684 2.646,0.684c1.087,-0 2.049,-0.276 2.646,-0.684c0.492,-0.336 0.754,-0.768 0.754,-1.216c0,-0.221 -0.179,-0.4 -0.4,-0.4c-0.221,0 -0.4,0.179 -0.4,0.4Z" style="fill:#ec1f27;"/><path d="M16.6,20.25c0,0.215 -0.168,0.394 -0.405,0.555c-0.494,0.337 -1.295,0.545 -2.195,0.545c-0.9,0 -1.701,-0.208 -2.195,-0.545c-0.237,-0.161 -0.405,-0.34 -0.405,-0.555c0,-0.221 -0.179,-0.4 -0.4,-0.4c-0.221,0 -0.4,0.179 -0.4,0.4c0,0.448 0.262,0.88 0.754,1.216c0.597,0.408 1.559,0.684 2.646,0.684c1.087,-0 2.049,-0.276 2.646,-0.684c0.492,-0.336 0.754,-0.768 0.754,-1.216c0,-0.221 -0.179,-0.4 -0.4,-0.4c-0.221,0 -0.4,0.179 -0.4,0.4Z" style="fill:#ec1f27;"/><path d="M24.6,20.25c-0,0.215 -0.168,0.394 -0.405,0.555c-0.494,0.337 -1.295,0.545 -2.195,0.545c-0.9,0 -1.701,-0.208 -2.195,-0.545c-0.237,-0.161 -0.405,-0.34 -0.405,-0.555c0,-0.221 -0.179,-0.4 -0.4,-0.4c-0.221,0 -0.4,0.179 -0.4,0.4c-0,0.448 0.262,0.88 0.754,1.216c0.597,0.408 1.559,0.684 2.646,0.684c1.087,-0 2.049,-0.276 2.646,-0.684c0.492,-0.336 0.754,-0.768 0.754,-1.216c0,-0.221 -0.179,-0.4 -0.4,-0.4c-0.221,0 -0.4,0.179 -0.4,0.4Z" style="fill:#ec1f27;"/><path d="M24.6,16.25c-0,0.215 -0.168,0.394 -0.405,0.555c-0.494,0.337 -1.295,0.545 -2.195,0.545c-0.9,0 -1.701,-0.208 -2.195,-0.545c-0.237,-0.161 -0.405,-0.34 -0.405,-0.555c0,-0.221 -0.179,-0.4 -0.4,-0.4c-0.221,0 -0.4,0.179 -0.4,0.4c-0,0.448 0.262,0.88 0.754,1.216c0.597,0.408 1.559,0.684 2.646,0.684c1.087,-0 2.049,-0.276 2.646,-0.684c0.492,-0.336 0.754,-0.768 0.754,-1.216c0,-0.221 -0.179,-0.4 -0.4,-0.4c-0.221,0 -0.4,0.179 -0.4,0.4Z" style="fill:#ec1f27;"/><path d="M14,16.4c-1.087,-0 -2.049,0.276 -2.646,0.684c-0.492,0.336 -0.754,0.768 -0.754,1.216c0,0.448 0.262,0.88 0.754,1.216c0.597,0.408 1.559,0.684 2.646,0.684c1.087,-0 2.049,-0.276 2.646,-0.684c0.492,-0.336 0.754,-0.768 0.754,-1.216c0,-0.448 -0.262,-0.88 -0.754,-1.216c-0.597,-0.408 -1.559,-0.684 -2.646,-0.684Zm0,0.8c0.9,-0 1.701,0.208 2.195,0.545c0.237,0.161 0.405,0.34 0.405,0.555c0,0.215 -0.168,0.394 -0.405,0.555c-0.494,0.337 -1.295,0.545 -2.195,0.545c-0.9,0 -1.701,-0.208 -2.195,-0.545c-0.237,-0.161 -0.405,-0.34 -0.405,-0.555c0,-0.215 0.168,-0.394 0.405,-0.555c0.494,-0.337 1.295,-0.545 2.195,-0.545Z" style="fill:#ec1f27;"/><path d="M10.6,18l-0,6.25c-0,0.221 0.179,0.4 0.4,0.4c0.221,0 0.4,-0.179 0.4,-0.4l0,-6.25c-0,-0.221 -0.179,-0.4 -0.4,-0.4c-0.221,0 -0.4,0.179 -0.4,0.4Z" style="fill:#ec1f27;"/><path d="M16.6,18l-0,6.25c0,0.221 0.179,0.4 0.4,0.4c0.221,-0 0.4,-0.179 0.4,-0.4l0,-6.25c0,-0.221 -0.179,-0.4 -0.4,-0.4c-0.221,-0 -0.4,0.179 -0.4,0.4Z" style="fill:#ec1f27;"/><path d="M18.6,12l-0,12.25c-0,0.221 0.179,0.4 0.4,0.4c0.221,0 0.4,-0.179 0.4,-0.4l0,-12.25c-0,-0.221 -0.179,-0.4 -0.4,-0.4c-0.221,0 -0.4,0.179 -0.4,0.4Z" style="fill:#ec1f27;"/><path d="M24.6,12l-0,12.25c0,0.221 0.179,0.4 0.4,0.4c0.221,-0 0.4,-0.179 0.4,-0.4l0,-12.25c0,-0.221 -0.179,-0.4 -0.4,-0.4c-0.221,-0 -0.4,0.179 -0.4,0.4Z" style="fill:#ec1f27;"/></svg>