<?xml version="1.0" encoding="UTF-8" standalone="no"?><!DOCTYPE svg PUBLIC "-//W3C//DTD SVG 1.1//EN" "http://www.w3.org/Graphics/SVG/1.1/DTD/svg11.dtd"><svg width="100%" height="100%" viewBox="0 0 150 150" version="1.1" xmlns="http://www.w3.org/2000/svg" xmlns:xlink="http://www.w3.org/1999/xlink" xml:space="preserve" xmlns:serif="http://www.serif.com/" style="fill-rule:evenodd;clip-rule:evenodd;stroke-linecap:round;stroke-linejoin:round;stroke-miterlimit:1.5;"><rect id="coin-stacks" x="0" y="0" width="150" height="150" style="fill:none;"/><g id="bg-white"><circle cx="75" cy="75" r="75" style="fill:#fff;"/></g><ellipse cx="91.667" cy="51.25" rx="12.5" ry="6.25" style="fill:none;stroke:#ec1f27;stroke-width:3.33px;"/><path d="M104.167,101.042c0,3.449 -5.601,6.25 -12.5,6.25c-6.899,0 -12.5,-2.801 -12.5,-6.25" style="fill:none;stroke:#ec1f27;stroke-width:3.33px;"/><path d="M70.833,101.042c0,3.449 -5.601,6.25 -12.5,6.25c-6.899,0 -12.5,-2.801 -12.5,-6.25" style="fill:none;stroke:#ec1f27;stroke-width:3.33px;"/><path d="M70.833,92.708c0,3.45 -5.601,6.25 -12.5,6.25c-6.899,0 -12.5,-2.8 -12.5,-6.25" style="fill:none;stroke:#ec1f27;stroke-width:3.33px;"/><path d="M104.167,92.708c0,3.45 -5.601,6.25 -12.5,6.25c-6.899,0 -12.5,-2.8 -12.5,-6.25" style="fill:none;stroke:#ec1f27;stroke-width:3.33px;"/><path d="M104.167,76.042c0,3.449 -5.601,6.25 -12.5,6.25c-6.899,0 -12.5,-2.801 -12.5,-6.25" style="fill:none;stroke:#ec1f27;stroke-width:3.33px;"/><path d="M104.167,59.375c0,3.449 -5.601,6.25 -12.5,6.25c-6.899,0 -12.5,-2.801 -12.5,-6.25" style="fill:none;stroke:#ec1f27;stroke-width:3.33px;"/><path d="M70.833,84.375c0,3.449 -5.601,6.25 -12.5,6.25c-6.899,0 -12.5,-2.801 -12.5,-6.25" style="fill:none;stroke:#ec1f27;stroke-width:3.33px;"/><path d="M104.167,84.375c0,3.449 -5.601,6.25 -12.5,6.25c-6.899,0 -12.5,-2.801 -12.5,-6.25" style="fill:none;stroke:#ec1f27;stroke-width:3.33px;"/><path d="M104.167,67.708c0,3.45 -5.601,6.25 -12.5,6.25c-6.899,0 -12.5,-2.8 -12.5,-6.25" style="fill:none;stroke:#ec1f27;stroke-width:3.33px;"/><ellipse cx="58.333" cy="76.25" rx="12.5" ry="6.25" style="fill:none;stroke:#ec1f27;stroke-width:3.33px;"/><path d="M45.833,75l0,26.042" style="fill:none;stroke:#ec1f27;stroke-width:3.33px;"/><path d="M70.833,75l0,26.042" style="fill:none;stroke:#ec1f27;stroke-width:3.33px;"/><path d="M79.167,50l0,51.042" style="fill:none;stroke:#ec1f27;stroke-width:3.33px;"/><path d="M104.167,50l0,51.042" style="fill:none;stroke:#ec1f27;stroke-width:3.33px;"/></svg>