<?xml version="1.0" encoding="UTF-8" standalone="no"?><!DOCTYPE svg PUBLIC "-//W3C//DTD SVG 1.1//EN" "http://www.w3.org/Graphics/SVG/1.1/DTD/svg11.dtd"><svg width="100%" height="100%" viewBox="0 0 150 150" version="1.1" xmlns="http://www.w3.org/2000/svg" xmlns:xlink="http://www.w3.org/1999/xlink" xml:space="preserve" xmlns:serif="http://www.serif.com/" style="fill-rule:evenodd;clip-rule:evenodd;stroke-linecap:round;stroke-linejoin:round;stroke-miterlimit:1.5;"><rect id="computer" x="0" y="0" width="150" height="150" style="fill:none;"/><g id="bg-white"><circle cx="75" cy="75" r="75" style="fill:#fff;"/></g><path d="M114.583,45.833c0,-3.449 -2.8,-6.25 -6.25,-6.25l-66.666,0c-3.45,0 -6.25,2.801 -6.25,6.25l0,47.917l79.166,0l0,-47.917Z" style="fill:none;stroke:#ec1f27;stroke-width:3.33px;"/><path d="M106.25,50.417c0,-1.38 -1.12,-2.5 -2.5,-2.5l-57.5,0c-1.38,0 -2.5,1.12 -2.5,2.5l0,34.583c0,1.38 1.12,2.5 2.5,2.5l57.5,0c1.38,0 2.5,-1.12 2.5,-2.5l0,-34.583Z" style="fill:none;stroke:#ec1f27;stroke-width:3.33px;"/><path d="M29.167,93.75l89.583,0c-0.198,5.937 -3.408,10.207 -8.333,10.417l-72.917,0c-5.565,-0.204 -8.302,-4.428 -8.333,-10.417" style="fill:none;stroke:#ec1f27;stroke-width:3.33px;"/><path d="M89.583,93.75l-29.166,0l0,2.604c0,1.437 1.167,2.604 2.604,2.604l23.958,0c1.437,0 2.604,-1.167 2.604,-2.604l0,-2.604Z" style="fill:none;stroke:#ec1f27;stroke-width:3.33px;"/><path d="M89.583,56.25c5.761,-0.462 8.652,2.193 8.334,8.333" style="fill:none;stroke:#ec1f27;stroke-width:3.33px;"/></svg>