<?xml version="1.0" encoding="UTF-8" standalone="no"?><!DOCTYPE svg PUBLIC "-//W3C//DTD SVG 1.1//EN" "http://www.w3.org/Graphics/SVG/1.1/DTD/svg11.dtd"><svg width="100%" height="100%" viewBox="0 0 150 150" version="1.1" xmlns="http://www.w3.org/2000/svg" xmlns:xlink="http://www.w3.org/1999/xlink" xml:space="preserve" xmlns:serif="http://www.serif.com/" style="fill-rule:evenodd;clip-rule:evenodd;stroke-linecap:round;stroke-linejoin:round;stroke-miterlimit:1.5;"><rect id="cops" x="0" y="0" width="150" height="150" style="fill:none;"/><g><circle cx="75" cy="75" r="75" style="fill:#fff;"/></g><path d="M33.658,124.516c0,0 0.003,-19.034 0,-26.119c-0.003,-8.255 3.526,-14.886 12.175,-15.064c7.163,-0.147 19.655,-0.08 29.045,0.04c9.829,0.125 22.238,-0.174 29.289,-0.04c9.284,0.177 11.998,6.12 12.132,14.797c0.096,6.128 0,26.386 0,26.386l-82.641,0Z" style="fill:none;stroke:#ec1f27;stroke-width:3.13px;"/><ellipse cx="74.928" cy="74.916" rx="10.417" ry="8.333" style="fill:none;stroke:#ec1f27;stroke-width:3.13px;"/><ellipse cx="74.928" cy="74.916" rx="10.417" ry="8.333" style="fill:none;stroke:#ec1f27;stroke-width:3.13px;"/><circle cx="70.833" cy="75" r="2.083" style="fill:#ec1f27;stroke:#ec1f27;stroke-width:3.13px;"/><circle cx="79.167" cy="75" r="2.083" style="fill:#ec1f27;stroke:#ec1f27;stroke-width:3.13px;"/><path d="M99.78,111.911c0,0 -5.481,-2.155 -5.645,-5.252c-0.083,-1.567 -0.207,-7.506 -0.207,-7.506c0,0 4.501,-2.196 5.763,-2.2c1.261,-0.004 6.022,2.44 6.022,2.44c0,0 0.067,4.912 0.056,6.678c-0.024,3.903 -5.989,5.84 -5.989,5.84Z" style="fill:none;stroke:#ec1f27;stroke-width:3.13px;"/><path d="M58.333,83.333l4.167,12.5l12.164,-12.5c0,0 12.785,12.5 12.836,12.5c-0.051,0 4.167,-12.5 4.167,-12.5" style="fill:none;stroke:#ec1f27;stroke-width:3.13px;"/><path d="M70.833,87.5l4.167,8.333l-7.795,28.683l15.598,0l-7.803,-28.683l4.167,-8.333l-4.167,-4.167l-4.167,4.167Z" style="fill:none;stroke:#ec1f27;stroke-width:3.13px;"/><path d="M55.438,55.323c4.82,1.354 12.216,3.01 19.562,3.01c7.407,0 14.864,-1.48 19.682,-2.675c0.746,2.143 1.151,4.446 1.151,6.842c0,11.498 -9.335,20.833 -20.833,20.833c-11.498,0 -20.833,-9.335 -20.833,-20.833c0,-2.522 0.449,-4.939 1.271,-7.177Z" style="fill:none;stroke:#ec1f27;stroke-width:3.13px;"/><path d="M50,45.833l0,7.76c0,0 12.572,4.74 25,4.74c12.428,0 25,-4.166 25,-4.166l0,-8.334l4.167,-8.333l-29.167,-12.431l-29.167,12.431l4.167,8.333Z" style="fill:none;stroke:#ec1f27;stroke-width:3.13px;"/><path d="M50,45.833c0,0 16.678,4.745 25,4.745c8.322,0 25,-4.745 25,-4.745" style="fill:none;stroke:#ec1f27;stroke-width:3.13px;"/><path d="M75,33.333l-3.807,0l0,8.334l3.807,4.166l4.167,-4.166l0,-8.334l-4.167,0Z" style="fill:none;stroke:#ec1f27;stroke-width:3.13px;"/></svg>