<?xml version="1.0" encoding="UTF-8" standalone="no"?><!DOCTYPE svg PUBLIC "-//W3C//DTD SVG 1.1//EN" "http://www.w3.org/Graphics/SVG/1.1/DTD/svg11.dtd"><svg width="100%" height="100%" viewBox="0 0 36 36" version="1.1" xmlns="http://www.w3.org/2000/svg" xmlns:xlink="http://www.w3.org/1999/xlink" xml:space="preserve" xmlns:serif="http://www.serif.com/" style="fill-rule:evenodd;clip-rule:evenodd;stroke-linejoin:round;stroke-miterlimit:2;"><rect id="ear" x="0" y="0" width="36" height="36" style="fill:none;"/><g id="bg-white"><circle cx="18" cy="18" r="18" style="fill:#fff;"/></g><path d="M14.538,15.398c1.122,-0.107 1.971,0.798 2.513,1.804c0.345,0.641 0.564,1.336 0.63,1.896c0.037,0.307 0.037,0.566 -0.041,0.728c-0.096,0.198 -0.013,0.438 0.186,0.534c0.198,0.096 0.438,0.013 0.534,-0.186c0.126,-0.26 0.175,-0.674 0.116,-1.17c-0.077,-0.644 -0.324,-1.444 -0.721,-2.181c-0.696,-1.292 -1.852,-2.359 -3.293,-2.221c-0.22,0.021 -0.381,0.216 -0.36,0.436c0.021,0.22 0.216,0.381 0.436,0.36Z" style="fill:#ec1f27;"/><path d="M12.399,13.473c-0.045,-0.682 0.271,-1.368 0.858,-1.952c0.958,-0.954 2.619,-1.627 4.742,-1.621c3.198,0.008 5.407,2.681 5.601,5.616c0.092,2.433 -1.025,4.64 -3.591,4.584c-0.108,-0.002 -0.212,0.039 -0.289,0.114c-0.077,0.075 -0.12,0.178 -0.12,0.286l-0,2.464c-0.202,1.11 -0.578,2.014 -1.282,2.563c-0.46,0.359 -1.059,0.557 -1.826,0.573c-0.004,0 -0.007,0 -0.01,0c-1.457,0.068 -2.538,-0.211 -3.233,-0.883c-0.45,-0.435 -0.729,-1.032 -0.854,-1.783c-0.037,-0.218 -0.243,-0.365 -0.461,-0.329c-0.218,0.037 -0.365,0.243 -0.329,0.461c0.157,0.94 0.524,1.681 1.088,2.226c0.825,0.798 2.092,1.187 3.82,1.108c0.968,-0.021 1.717,-0.29 2.297,-0.743c0.852,-0.664 1.344,-1.74 1.584,-3.087c0.004,-0.023 0.006,-0.046 0.006,-0.07l-0,-2.107c2.798,-0.159 4.106,-2.627 4,-5.408c-0,-0.004 -0.001,-0.007 -0.001,-0.011c-0.216,-3.344 -2.756,-6.364 -6.398,-6.374c-2.381,-0.006 -4.233,0.784 -5.309,1.854c-0.769,0.765 -1.151,1.678 -1.091,2.573c0.015,0.22 0.205,0.387 0.426,0.372c0.22,-0.015 0.387,-0.205 0.372,-0.426Z" style="fill:#ec1f27;"/><path d="M13.197,20.848c0,-0 1.728,-0.989 1.703,-2.853c-0.023,-1.666 -0.004,-2.371 -0,-2.992c0.002,-0.328 0.091,-1.159 0.759,-1.791c0.465,-0.44 1.203,-0.773 2.355,-0.812c2.045,-0.071 3.055,1.77 3.086,3.109c0.005,0.221 0.189,0.396 0.409,0.391c0.221,-0.005 0.396,-0.189 0.391,-0.409c-0.039,-1.687 -1.338,-3.979 -3.914,-3.891c-1.413,0.049 -2.306,0.491 -2.877,1.03c-0.884,0.837 -1.006,1.934 -1.009,2.367c-0.004,0.625 -0.023,1.333 0,3.008c0.019,1.408 -1.297,2.147 -1.297,2.147c-0.192,0.109 -0.26,0.353 -0.151,0.545c0.109,0.192 0.353,0.26 0.545,0.151Z" style="fill:#ec1f27;"/><path d="M15.506,24.9c0.947,-0.015 1.635,-0.302 2.107,-0.795c0.465,-0.485 0.727,-1.185 0.786,-2.078c0.015,-0.221 -0.152,-0.411 -0.372,-0.426c-0.221,-0.015 -0.411,0.152 -0.426,0.372c-0.045,0.675 -0.215,1.213 -0.566,1.579c-0.343,0.358 -0.853,0.537 -1.541,0.548c-0.221,0.004 -0.397,0.186 -0.394,0.406c0.004,0.221 0.186,0.397 0.406,0.394Z" style="fill:#ec1f27;"/></svg>