<?xml version="1.0" encoding="UTF-8" standalone="no"?><!DOCTYPE svg PUBLIC "-//W3C//DTD SVG 1.1//EN" "http://www.w3.org/Graphics/SVG/1.1/DTD/svg11.dtd"><svg width="100%" height="100%" viewBox="0 0 150 150" version="1.1" xmlns="http://www.w3.org/2000/svg" xmlns:xlink="http://www.w3.org/1999/xlink" xml:space="preserve" xmlns:serif="http://www.serif.com/" style="fill-rule:evenodd;clip-rule:evenodd;stroke-linecap:round;stroke-linejoin:round;stroke-miterlimit:1.5;"><rect id="ear" x="0" y="0" width="150" height="150" style="fill:none;"/><g id="bg-white"><circle cx="75" cy="75" r="75" style="fill:#fff;"/></g><path d="M50,56.25c-0.546,-8.214 9.361,-16.708 25,-16.667c14.258,0.038 24.155,11.91 25,25c0.425,11.133 -4.9,21.091 -16.667,20.834l0,10.416c-1.529,8.582 -5.534,14.399 -14.583,14.584c-11.07,0.512 -17.282,-3.691 -18.75,-12.5" style="fill:none;stroke:#ec1f27;stroke-width:3.33px;"/><path d="M54.167,85.417c0,0 6.343,-3.599 6.25,-10.417c-0.095,-6.96 -0.019,-9.905 0,-12.5c0.018,-2.643 1.224,-12.04 14.583,-12.5c9.628,-0.331 14.438,8.279 14.583,14.583" style="fill:none;stroke:#ec1f27;stroke-width:3.33px;"/><path d="M60.417,62.5c10.677,-1.019 16.715,16.434 14.583,20.833" style="fill:none;stroke:#ec1f27;stroke-width:3.33px;"/><path d="M64.583,102.083c6.812,-0.106 9.982,-3.883 10.417,-10.416" style="fill:none;stroke:#ec1f27;stroke-width:3.33px;"/></svg>