<?xml version="1.0" encoding="UTF-8" standalone="no"?><!DOCTYPE svg PUBLIC "-//W3C//DTD SVG 1.1//EN" "http://www.w3.org/Graphics/SVG/1.1/DTD/svg11.dtd"><svg width="100%" height="100%" viewBox="0 0 36 36" version="1.1" xmlns="http://www.w3.org/2000/svg" xmlns:xlink="http://www.w3.org/1999/xlink" xml:space="preserve" xmlns:serif="http://www.serif.com/" style="fill-rule:evenodd;clip-rule:evenodd;stroke-linejoin:round;stroke-miterlimit:2;"><rect id="envelope" x="0" y="0" width="36" height="36" style="fill:none;"/><g id="bg-white"><circle cx="18" cy="18" r="18" style="fill:#fff;"/></g><path d="M30.4,11.3c-0,-1.214 -0.986,-2.2 -2.2,-2.2c-0,0 -20.4,0 -20.4,0c-1.214,0 -2.2,0.986 -2.2,2.2l-0,14.4c-0,1.214 0.986,2.2 2.2,2.2c0,-0 20.4,-0 20.4,-0c1.214,-0 2.2,-0.986 2.2,-2.2c-0,-0 -0,-14.4 -0,-14.4Zm-0.8,0l0,14.4c0,0.773 -0.627,1.4 -1.4,1.4l-20.4,0c-0.773,0 -1.4,-0.627 -1.4,-1.4c0,-0 0,-14.4 0,-14.4c0,-0.773 0.627,-1.4 1.4,-1.4l20.4,-0c0.773,-0 1.4,0.627 1.4,1.4Z" style="fill:#ec1f27;"/><path d="M6.253,10.315l9.93,7.771c0.567,0.476 1.16,0.709 1.771,0.707c0.601,-0.001 1.229,-0.233 1.875,-0.729c0.002,-0.001 0.003,-0.002 0.005,-0.003l9.803,-7.747c0.173,-0.137 0.203,-0.389 0.066,-0.562c-0.137,-0.173 -0.389,-0.203 -0.562,-0.066l-9.801,7.745c-0.481,0.369 -0.94,0.561 -1.388,0.562c-0.437,0.001 -0.854,-0.183 -1.26,-0.524c-0.004,-0.003 -0.007,-0.006 -0.011,-0.009l-9.934,-7.775c-0.174,-0.136 -0.426,-0.105 -0.562,0.068c-0.136,0.174 -0.105,0.426 0.068,0.562Z" style="fill:#ec1f27;"/><path d="M6.783,26.783l9.126,-9.126c0.156,-0.156 0.156,-0.41 -0,-0.566c-0.156,-0.156 -0.41,-0.156 -0.566,0l-9.126,9.126c-0.156,0.156 -0.156,0.41 0,0.566c0.156,0.156 0.41,0.156 0.566,-0Z" style="fill:#ec1f27;"/><path d="M29.672,26.217l-9.126,-9.126c-0.156,-0.156 -0.41,-0.156 -0.566,0c-0.156,0.156 -0.156,0.41 0,0.566l9.126,9.126c0.156,0.156 0.41,0.156 0.566,-0c0.156,-0.156 0.156,-0.41 -0,-0.566Z" style="fill:#ec1f27;"/></svg>