<?xml version="1.0" encoding="UTF-8" standalone="no"?><!DOCTYPE svg PUBLIC "-//W3C//DTD SVG 1.1//EN" "http://www.w3.org/Graphics/SVG/1.1/DTD/svg11.dtd"><svg width="100%" height="100%" viewBox="0 0 150 150" version="1.1" xmlns="http://www.w3.org/2000/svg" xmlns:xlink="http://www.w3.org/1999/xlink" xml:space="preserve" xmlns:serif="http://www.serif.com/" style="fill-rule:evenodd;clip-rule:evenodd;stroke-linecap:round;stroke-linejoin:round;stroke-miterlimit:1.5;"><rect id="eye" x="0" y="0" width="150" height="150" style="fill:none;"/><g id="bg-white"><circle cx="75" cy="75" r="75" style="fill:#fff;"/></g><circle cx="75" cy="81.25" r="25" style="fill:none;stroke:#ec1f27;stroke-width:3.33px;"/><path d="M25,81.25c0,0 31.188,-25 50,-25c20.481,0 50,25 50,25c0,0 -27.373,25 -50,25c-22.627,0 -50,-25 -50,-25Z" style="fill:none;stroke:#ec1f27;stroke-width:3.33px;"/><path d="M73.958,70.833l1.042,0c5.749,0 10.417,4.668 10.417,10.417c0,5.749 -4.668,10.417 -10.417,10.417c-5.749,0 -10.417,-4.668 -10.417,-10.417l0,-1.042c8.484,1.192 10.458,-3.243 9.375,-9.375Z" style="fill:none;stroke:#ec1f27;stroke-width:3.33px;"/><path d="M116.667,76.042c-3.225,2.622 -2.575,7.344 0,10.416" style="fill:none;stroke:#ec1f27;stroke-width:3.33px;"/><path d="M75,56.25l0,-16.667" style="fill:none;stroke:#ec1f27;stroke-width:3.33px;"/><path d="M58.772,61.112l-9.21,-13.891" style="fill:none;stroke:#ec1f27;stroke-width:3.33px;"/><path d="M89.583,61.112l9.21,-13.891" style="fill:none;stroke:#ec1f27;stroke-width:3.33px;"/><path d="M42.435,68.988l-15.352,-6.488" style="fill:none;stroke:#ec1f27;stroke-width:3.33px;"/><path d="M108.003,68.988l15.352,-6.488" style="fill:none;stroke:#ec1f27;stroke-width:3.33px;"/></svg>