<?xml version="1.0" encoding="UTF-8" standalone="no"?><!DOCTYPE svg PUBLIC "-//W3C//DTD SVG 1.1//EN" "http://www.w3.org/Graphics/SVG/1.1/DTD/svg11.dtd"><svg width="100%" height="100%" viewBox="0 0 36 36" version="1.1" xmlns="http://www.w3.org/2000/svg" xmlns:xlink="http://www.w3.org/1999/xlink" xml:space="preserve" xmlns:serif="http://www.serif.com/" style="fill-rule:evenodd;clip-rule:evenodd;stroke-linejoin:round;stroke-miterlimit:2;"><rect id="eye" x="0" y="0" width="36" height="36" style="fill:none;"/><g id="bg-white"><circle cx="18" cy="18" r="18" style="fill:#fff;"/></g><path d="M18.4,13.5l-0,-4c0,-0.221 -0.179,-0.4 -0.4,-0.4c-0.221,-0 -0.4,0.179 -0.4,0.4l-0,4c0,0.221 0.179,0.4 0.4,0.4c0.221,-0 0.4,-0.179 0.4,-0.4Z" style="fill:#ec1f27;"/><path d="M14.439,14.446l-2.211,-3.334c-0.122,-0.184 -0.37,-0.234 -0.554,-0.112c-0.184,0.122 -0.235,0.37 -0.113,0.554l2.211,3.334c0.122,0.184 0.37,0.234 0.554,0.112c0.184,-0.122 0.235,-0.37 0.113,-0.554Z" style="fill:#ec1f27;"/><path d="M21.833,14.888l2.211,-3.334c0.122,-0.184 0.071,-0.432 -0.113,-0.554c-0.184,-0.122 -0.432,-0.072 -0.554,0.112l-2.21,3.334c-0.122,0.184 -0.072,0.432 0.112,0.554c0.184,0.122 0.432,0.072 0.554,-0.112Z" style="fill:#ec1f27;"/><path d="M10.34,16.189l-3.684,-1.557c-0.204,-0.086 -0.439,0.009 -0.524,0.212c-0.086,0.204 0.009,0.439 0.212,0.524l3.685,1.557c0.203,0.086 0.438,-0.009 0.524,-0.212c0.086,-0.204 -0.009,-0.438 -0.213,-0.524Z" style="fill:#ec1f27;"/><path d="M26.076,16.925l3.685,-1.557c0.203,-0.085 0.299,-0.32 0.213,-0.524c-0.086,-0.203 -0.321,-0.298 -0.524,-0.212l-3.685,1.557c-0.203,0.086 -0.299,0.32 -0.213,0.524c0.086,0.203 0.321,0.298 0.524,0.212Z" style="fill:#ec1f27;"/><path d="M18,13.1c-3.532,-0 -6.4,2.868 -6.4,6.4c0,3.532 2.868,6.4 6.4,6.4c3.532,-0 6.4,-2.868 6.4,-6.4c0,-3.532 -2.868,-6.4 -6.4,-6.4Zm0,0.8c3.091,-0 5.6,2.509 5.6,5.6c0,3.091 -2.509,5.6 -5.6,5.6c-3.091,-0 -5.6,-2.509 -5.6,-5.6c0,-3.091 2.509,-5.6 5.6,-5.6Z" style="fill:#ec1f27;"/><path d="M5.75,19.188c-0.091,0.073 -0.146,0.182 -0.15,0.299c-0.004,0.117 0.044,0.23 0.13,0.308c0,0 2.397,2.19 5.504,3.941c2.103,1.186 4.53,2.164 6.766,2.164c2.236,-0 4.663,-0.978 6.766,-2.164c3.107,-1.751 5.504,-3.941 5.504,-3.941c0.085,-0.077 0.132,-0.188 0.13,-0.302c-0.002,-0.115 -0.054,-0.224 -0.141,-0.298c-0,-0 -2.58,-2.185 -5.717,-3.932c-2.13,-1.187 -4.517,-2.163 -6.542,-2.163c-1.861,0 -4.217,0.975 -6.368,2.162c-3.161,1.745 -5.882,3.926 -5.882,3.926Zm0.878,0.33c0.841,-0.644 2.986,-2.228 5.391,-3.556c2.023,-1.117 4.23,-2.062 5.981,-2.062c1.907,-0 4.147,0.944 6.153,2.061c2.377,1.325 4.427,2.905 5.228,3.549c-0.758,0.65 -2.678,2.216 -5.007,3.53c-1.984,1.118 -4.266,2.06 -6.374,2.06c-2.108,-0 -4.39,-0.942 -6.374,-2.06c-2.32,-1.309 -4.234,-2.867 -4.998,-3.522Z" style="fill:#ec1f27;"/><path d="M15.9,19.234c-0.008,-0.191 -0.151,-0.353 -0.344,-0.38c0.825,0.116 1.345,0.012 1.621,-0.324c0.278,-0.338 0.285,-0.86 0.179,-1.46c0.034,0.191 0.2,0.33 0.394,0.33c0,-0 -0.532,-0.8 0.002,-0.8l0.248,0c1.601,0 2.9,1.299 2.9,2.9c-0,1.601 -1.299,2.9 -2.9,2.9c-1.601,0 -2.9,-1.299 -2.9,-2.9l0,-0.248l0.4,0.398l0.017,-0.033c0.075,-0.14 0.371,-0.673 0.383,-0.383Zm2.304,-1.824c1.063,0.102 1.896,1 1.896,2.09c-0,1.159 -0.941,2.1 -2.1,2.1c-1.095,0 -1.995,-0.84 -2.091,-1.91c0.939,0.046 1.535,-0.225 1.886,-0.652c0.327,-0.398 0.454,-0.963 0.409,-1.628Zm-2.304,1.826l-0,0.01l-0,-0.007l-0,-0.003Z" style="fill:#ec1f27;"/><path d="M27.748,17.94c-0.95,0.772 -0.813,2.162 -0.055,3.067c0.142,0.169 0.395,0.191 0.564,0.05c0.169,-0.142 0.191,-0.395 0.05,-0.564c-0.478,-0.57 -0.653,-1.446 -0.055,-1.933c0.172,-0.139 0.198,-0.391 0.058,-0.562c-0.139,-0.172 -0.391,-0.198 -0.562,-0.058Z" style="fill:#ec1f27;"/></svg>