<?xml version="1.0" encoding="UTF-8" standalone="no"?><!DOCTYPE svg PUBLIC "-//W3C//DTD SVG 1.1//EN" "http://www.w3.org/Graphics/SVG/1.1/DTD/svg11.dtd"><svg width="100%" height="100%" viewBox="0 0 150 150" version="1.1" xmlns="http://www.w3.org/2000/svg" xmlns:xlink="http://www.w3.org/1999/xlink" xml:space="preserve" xmlns:serif="http://www.serif.com/" style="fill-rule:evenodd;clip-rule:evenodd;stroke-linecap:round;stroke-linejoin:round;stroke-miterlimit:1.5;"><rect id="ferry" x="0" y="0" width="150" height="150" style="fill:none;"/><g id="bg-white"><circle cx="75" cy="75" r="75" style="fill:#fff;"/></g><path d="M36.111,96.249l4.861,-33.333l68.056,0l4.861,33.333" style="fill:none;stroke:#ec1f27;stroke-width:3.33px;"/><path d="M36.111,62.916l4.861,0" style="fill:none;stroke:#ec1f27;stroke-width:3.33px;"/><path d="M109.028,62.916l4.861,0" style="fill:none;stroke:#ec1f27;stroke-width:3.33px;"/><path d="M25,109.673c3.692,4.363 7.813,4.643 12.5,0c4.396,4.311 8.601,4.349 12.5,0c4.286,4.277 8.425,4.645 12.5,0c3.95,4.55 8.091,4.576 12.5,0c3.844,4.084 7.974,4.557 12.5,0c4.507,4.599 8.66,4.286 12.5,0c4.274,4.286 8.426,4.599 12.5,0c4.653,4.294 8.799,4.113 12.5,0" style="fill:none;stroke:#ec1f27;stroke-width:3.33px;"/><path d="M25,100.416c3.692,4.363 7.813,4.643 12.5,0c4.396,4.311 8.601,4.349 12.5,0c4.286,4.277 8.425,4.645 12.5,0c3.95,4.55 8.091,4.576 12.5,0c3.844,4.084 7.974,4.556 12.5,0c4.507,4.599 8.66,4.286 12.5,0c4.274,4.286 8.426,4.599 12.5,0c4.653,4.294 8.799,4.113 12.5,0l-5.907,3.153c-0.088,-3.602 -0.06,-7.24 -3.989,-7.32l-80.208,0c-3.521,0.284 -3.882,2.566 -3.784,7.543" style="fill:#ec1f27;stroke:#ec1f27;stroke-width:3.33px;"/><path d="M99.306,73.748c-0.725,-2.044 -1.608,-2.623 -4.862,-2.499l-38.888,0c-3.689,0 -4.282,0.828 -4.862,2.499l-4.861,22.501l58.334,0l-4.861,-22.501Z" style="fill:none;stroke:#ec1f27;stroke-width:3.33px;"/><path d="M70.139,89.999c0,-1.15 -0.934,-2.083 -2.083,-2.083l-10.417,0c-1.15,0 -2.083,0.933 -2.083,2.083l0,4.167c0,1.149 0.933,2.083 2.083,2.083l10.417,0c1.149,0 2.083,-0.934 2.083,-2.083l0,-4.167Z" style="fill:none;stroke:#ec1f27;stroke-width:3.33px;"/><path d="M94.444,89.999c0,-1.15 -0.933,-2.083 -2.083,-2.083l-10.417,0c-1.149,0 -2.083,0.933 -2.083,2.083l0,4.167c0,1.149 0.934,2.083 2.083,2.083l10.417,0c1.15,0 2.083,-0.934 2.083,-2.083l0,-4.167Z" style="fill:none;stroke:#ec1f27;stroke-width:3.33px;"/><path d="M50.694,62.916l4.862,-8.334l38.888,0l4.862,8.334l-48.612,0" style="fill:#ec1f27;stroke:#ec1f27;stroke-width:3.33px;"/><path d="M79.861,45.207c0,-1.724 -1.223,-3.125 -2.729,-3.125l-9.126,0c-1.506,0 -2.728,1.401 -2.728,3.125l0,9.361l14.583,0l0,-9.361Z" style="fill:none;stroke:#ec1f27;stroke-width:3.33px;"/><path d="M65.278,48.332l14.583,0" style="fill:none;stroke:#ec1f27;stroke-width:3.33px;"/><path d="M89.583,54.582l0,-8.333" style="fill:none;stroke:#ec1f27;stroke-width:3.33px;"/><path d="M27.083,49.933c5.282,-5.02 9.122,-3.547 12.5,0c3.585,-4.64 7.684,-5.177 12.5,0" style="fill:none;stroke:#ec1f27;stroke-width:3.33px;"/><path d="M35.417,39.101c5.282,-5.02 9.121,-3.548 12.5,0c3.584,-4.64 7.684,-5.177 12.5,0" style="fill:none;stroke:#ec1f27;stroke-width:3.33px;"/></svg>