<?xml version="1.0" encoding="UTF-8" standalone="no"?><!DOCTYPE svg PUBLIC "-//W3C//DTD SVG 1.1//EN" "http://www.w3.org/Graphics/SVG/1.1/DTD/svg11.dtd"><svg width="100%" height="100%" viewBox="0 0 36 36" version="1.1" xmlns="http://www.w3.org/2000/svg" xmlns:xlink="http://www.w3.org/1999/xlink" xml:space="preserve" xmlns:serif="http://www.serif.com/" style="fill-rule:evenodd;clip-rule:evenodd;stroke-linejoin:round;stroke-miterlimit:2;"><rect id="ferry" x="0" y="0" width="36" height="36" style="fill:none;"/><g id="bg-white"><circle cx="18" cy="18" r="18" style="fill:#fff;"/></g><path d="M9.062,23.157l1.117,-7.657c0,-0 15.642,-0 15.642,-0c-0,-0 1.117,7.657 1.117,7.657c0.031,0.219 0.235,0.37 0.453,0.339c0.219,-0.032 0.37,-0.236 0.338,-0.454l-1.167,-8c-0.028,-0.197 -0.197,-0.342 -0.395,-0.342l-16.334,-0c-0.198,-0 -0.367,0.145 -0.395,0.342l-1.167,8c-0.032,0.218 0.119,0.422 0.338,0.454c0.218,0.031 0.422,-0.12 0.453,-0.339Z" style="fill:#ec1f27;"/><path d="M8.667,15.5l1.166,-0c0.221,-0 0.4,-0.179 0.4,-0.4c0,-0.221 -0.179,-0.4 -0.4,-0.4l-1.166,-0c-0.221,-0 -0.4,0.179 -0.4,0.4c-0,0.221 0.179,0.4 0.4,0.4Z" style="fill:#ec1f27;"/><path d="M26.167,15.5l1.166,-0c0.221,-0 0.4,-0.179 0.4,-0.4c0,-0.221 -0.179,-0.4 -0.4,-0.4l-1.166,-0c-0.221,-0 -0.4,0.179 -0.4,0.4c-0,0.221 0.179,0.4 0.4,0.4Z" style="fill:#ec1f27;"/><path d="M5.695,26.58c0.533,0.629 1.109,0.942 1.709,0.952c0.502,0.008 1.039,-0.198 1.598,-0.67c0.524,0.432 1.043,0.638 1.542,0.639c0.499,0.001 0.994,-0.199 1.469,-0.626c0.504,0.423 1.007,0.639 1.497,0.649c0.497,0.011 0.997,-0.182 1.488,-0.629c0.476,0.44 0.967,0.647 1.46,0.648c0.497,0.001 1.016,-0.211 1.541,-0.668c0.46,0.4 0.939,0.61 1.428,0.624c0.502,0.014 1.029,-0.176 1.571,-0.632c0.54,0.462 1.068,0.664 1.57,0.654c0.494,-0.009 0.98,-0.222 1.445,-0.645c0.504,0.423 1.007,0.636 1.497,0.645c0.506,0.01 1.016,-0.192 1.515,-0.653c0.546,0.424 1.071,0.616 1.565,0.61c0.599,-0.006 1.174,-0.297 1.707,-0.889c0.148,-0.164 0.135,-0.417 -0.029,-0.565c-0.165,-0.148 -0.418,-0.134 -0.565,0.03c-0.356,0.395 -0.722,0.62 -1.122,0.624c-0.415,0.005 -0.845,-0.221 -1.31,-0.65c-0.079,-0.073 -0.184,-0.111 -0.291,-0.106c-0.107,0.005 -0.208,0.054 -0.279,0.134c-0.392,0.443 -0.775,0.673 -1.176,0.665c-0.412,-0.008 -0.818,-0.257 -1.242,-0.682c-0.077,-0.078 -0.184,-0.12 -0.294,-0.117c-0.11,0.003 -0.214,0.051 -0.287,0.133c-0.372,0.415 -0.746,0.659 -1.15,0.666c-0.409,0.008 -0.823,-0.227 -1.266,-0.679c-0.075,-0.077 -0.178,-0.12 -0.285,-0.121c-0.107,0 -0.209,0.043 -0.285,0.119c-0.444,0.447 -0.858,0.671 -1.266,0.659c-0.406,-0.011 -0.784,-0.253 -1.159,-0.652c-0.075,-0.079 -0.179,-0.125 -0.289,-0.126c-0.109,-0 -0.214,0.044 -0.29,0.123c-0.435,0.451 -0.843,0.7 -1.253,0.699c-0.4,-0.001 -0.776,-0.245 -1.157,-0.684c-0.076,-0.087 -0.185,-0.137 -0.301,-0.138c-0.115,0 -0.226,0.05 -0.302,0.137c-0.391,0.446 -0.772,0.675 -1.171,0.667c-0.413,-0.01 -0.82,-0.262 -1.245,-0.687c-0.078,-0.077 -0.184,-0.119 -0.294,-0.116c-0.11,0.003 -0.214,0.051 -0.287,0.132c-0.375,0.419 -0.754,0.648 -1.156,0.647c-0.415,-0.001 -0.83,-0.238 -1.266,-0.665c-0.156,-0.153 -0.406,-0.153 -0.562,0.001c-0.464,0.461 -0.889,0.702 -1.301,0.695c-0.397,-0.007 -0.758,-0.251 -1.112,-0.669c-0.142,-0.168 -0.395,-0.189 -0.563,-0.047c-0.169,0.143 -0.19,0.395 -0.047,0.564Z" style="fill:#ec1f27;"/><path d="M24.224,17.615c-0.003,-0.017 -0.008,-0.033 -0.014,-0.049c-0.099,-0.279 -0.218,-0.471 -0.383,-0.607c-0.226,-0.186 -0.562,-0.282 -1.171,-0.259c0.004,-0 -9.323,-0 -9.323,-0c-0.688,-0 -1.02,0.135 -1.222,0.321c-0.15,0.138 -0.242,0.316 -0.322,0.547c-0.006,0.016 -0.01,0.031 -0.013,0.047l-1.167,5.4c-0.026,0.118 0.004,0.242 0.08,0.336c0.076,0.094 0.19,0.149 0.311,0.149l14,-0c0.121,-0 0.235,-0.055 0.311,-0.149c0.076,-0.094 0.106,-0.218 0.08,-0.336l-1.167,-5.4Zm-0.776,0.194l1.056,4.891c0,-0 -13.008,-0 -13.008,-0c-0,-0 1.057,-4.893 1.057,-4.893c0.027,-0.08 0.048,-0.149 0.101,-0.198c0.035,-0.033 0.086,-0.05 0.155,-0.066c0.129,-0.031 0.298,-0.043 0.524,-0.043l9.334,-0c0.005,-0 0.01,-0 0.015,-0.001c0.198,-0.007 0.353,-0.004 0.477,0.018c0.067,0.012 0.119,0.027 0.159,0.059c0.061,0.051 0.093,0.13 0.129,0.23l0.001,0.003Z" style="fill:#ec1f27;"/><path d="M17.233,21.6c0,-0.497 -0.403,-0.9 -0.9,-0.9c0,-0 -2.5,-0 -2.5,-0c-0.496,-0 -0.9,0.403 -0.9,0.9c0,-0 0,1 0,1c0,0.496 0.404,0.9 0.9,0.9l2.5,-0c0.497,-0 0.9,-0.404 0.9,-0.9l0,-1Zm-0.8,-0l0,1c0,0.055 -0.044,0.1 -0.1,0.1c0,-0 -2.5,-0 -2.5,-0c-0.055,-0 -0.1,-0.045 -0.1,-0.1l0,-1c0,-0.055 0.045,-0.1 0.1,-0.1l2.5,-0c0.056,-0 0.1,0.045 0.1,0.1Z" style="fill:#ec1f27;"/><path d="M23.067,21.6c-0,-0.497 -0.404,-0.9 -0.9,-0.9c-0,-0 -2.5,-0 -2.5,-0c-0.497,-0 -0.9,0.403 -0.9,0.9c-0,-0 -0,1 -0,1c-0,0.496 0.403,0.9 0.9,0.9l2.5,-0c0.496,-0 0.9,-0.404 0.9,-0.9c-0,-0 -0,-1 -0,-1Zm-0.8,-0l-0,1c-0,0.055 -0.045,0.1 -0.1,0.1c-0,-0 -2.5,-0 -2.5,-0c-0.056,-0 -0.1,-0.045 -0.1,-0.1l-0,-1c-0,-0.055 0.044,-0.1 0.1,-0.1l2.5,-0c0.055,-0 0.1,0.045 0.1,0.1Z" style="fill:#ec1f27;"/><path d="M7.066,24.441c-0.264,-0.101 -0.514,-0.308 -0.761,-0.6c-0.142,-0.168 -0.395,-0.189 -0.563,-0.047c-0.169,0.143 -0.19,0.396 -0.047,0.564c0.533,0.63 1.109,0.942 1.709,0.952c0.021,0.001 0.043,0.001 0.065,0l0.006,0l0.008,-0c0.479,-0.014 0.989,-0.223 1.519,-0.67c0.524,0.433 1.043,0.638 1.542,0.639c0.499,0.001 0.994,-0.198 1.469,-0.625c0.504,0.423 1.007,0.638 1.497,0.649c0.497,0.011 0.997,-0.182 1.488,-0.63c0.476,0.44 0.967,0.647 1.46,0.648c0.497,0.001 1.016,-0.211 1.541,-0.668c0.46,0.4 0.939,0.61 1.428,0.624c0.502,0.015 1.029,-0.176 1.571,-0.631c0.54,0.462 1.068,0.663 1.57,0.653c0.494,-0.009 0.98,-0.222 1.445,-0.644c0.504,0.422 1.007,0.635 1.497,0.644c0.506,0.01 1.016,-0.191 1.515,-0.653c0.54,0.42 1.06,0.612 1.55,0.61l0.015,0c0.599,-0.006 1.174,-0.296 1.707,-0.889c0.13,-0.144 0.138,-0.361 0.018,-0.514c-0.12,-0.153 -0.332,-0.198 -0.503,-0.106l-0.856,0.457c-0.012,-0.146 -0.029,-0.286 -0.057,-0.417c-0.064,-0.303 -0.184,-0.56 -0.375,-0.748c-0.2,-0.197 -0.481,-0.331 -0.891,-0.339c-0.003,-0 -0.005,-0 -0.008,-0l-19.25,-0c-0.011,-0 -0.021,0 -0.032,0.001c-0.354,0.029 -0.608,0.13 -0.796,0.286c-0.185,0.153 -0.314,0.363 -0.39,0.644c-0.058,0.216 -0.084,0.484 -0.091,0.81Zm21.102,-0.053c-0.008,-0.153 -0.023,-0.3 -0.052,-0.435c-0.033,-0.156 -0.076,-0.295 -0.192,-0.376c-0.074,-0.052 -0.175,-0.074 -0.304,-0.077c0,-0 -19.228,-0 -19.232,0c-0.161,0.014 -0.279,0.044 -0.356,0.127c-0.089,0.096 -0.119,0.241 -0.142,0.427c-0.014,0.111 -0.021,0.234 -0.024,0.37c0.272,-0.107 0.554,-0.313 0.852,-0.608c0.156,-0.154 0.406,-0.155 0.562,-0.002c0.436,0.428 0.851,0.664 1.266,0.665c0.402,0.001 0.781,-0.227 1.156,-0.646c0.073,-0.082 0.177,-0.13 0.287,-0.133c0.11,-0.003 0.216,0.039 0.294,0.117c0.425,0.424 0.832,0.677 1.245,0.686c0.399,0.009 0.78,-0.221 1.171,-0.667c0.076,-0.087 0.187,-0.137 0.302,-0.136c0.116,0 0.225,0.05 0.301,0.138c0.381,0.438 0.757,0.683 1.157,0.683c0.41,0.001 0.818,-0.248 1.253,-0.699c0.076,-0.079 0.181,-0.123 0.29,-0.122c0.11,0 0.214,0.046 0.289,0.126c0.375,0.398 0.753,0.64 1.159,0.652c0.408,0.011 0.822,-0.213 1.266,-0.66c0.076,-0.076 0.178,-0.119 0.285,-0.118c0.107,0 0.21,0.043 0.285,0.12c0.443,0.452 0.857,0.687 1.266,0.68c0.404,-0.008 0.778,-0.252 1.15,-0.667c0.073,-0.082 0.177,-0.13 0.287,-0.133c0.11,-0.003 0.217,0.039 0.294,0.117c0.424,0.425 0.83,0.675 1.242,0.683c0.401,0.007 0.784,-0.223 1.176,-0.665c0.071,-0.081 0.172,-0.129 0.279,-0.135c0.107,-0.005 0.212,0.033 0.291,0.106c0.313,0.288 0.61,0.485 0.897,0.582Z" style="fill:#ec1f27;"/><path d="M15.667,12l3.5,-0c0.22,-0 0.4,-0.179 0.4,-0.4c-0,-0.221 -0.18,-0.4 -0.4,-0.4l-3.5,-0c-0.221,-0 -0.4,0.179 -0.4,0.4c-0,0.221 0.179,0.4 0.4,0.4Z" style="fill:#ec1f27;"/><path d="M19.567,10.85c-0,-0.649 -0.489,-1.15 -1.055,-1.15c-0,-0 -2.19,-0 -2.19,-0c-0.567,-0 -1.055,0.501 -1.055,1.15l-0,2.246c-0,0.221 0.179,0.4 0.4,0.4l3.5,0c0.221,0 0.4,-0.179 0.4,-0.4l-0,-2.246Zm-0.8,-0l-0,1.846c-0,0 -2.7,0 -2.7,0c-0,0 -0,-1.846 -0,-1.846c-0,-0.18 0.097,-0.35 0.255,-0.35l2.19,-0c0.157,-0 0.255,0.17 0.255,0.35Z" style="fill:#ec1f27;"/><path d="M21.9,13.1l0,-2c0,-0.221 -0.179,-0.4 -0.4,-0.4c-0.221,-0 -0.4,0.179 -0.4,0.4l-0,2c0,0.221 0.179,0.4 0.4,0.4c0.221,-0 0.4,-0.179 0.4,-0.4Z" style="fill:#ec1f27;"/><path d="M11.821,14.898l-0.01,0.018l-0.005,0.01l-0.008,0.018l-0.007,0.018l-0.006,0.019l-0.006,0.019l-0.004,0.019l-0.004,0.02l-0.001,0.009l-0.002,0.02l-0.001,0.019l-0,0.02l0,0.013l0.002,0.021l0,0.004c0.007,0.056 0.024,0.108 0.051,0.154c0.026,0.046 0.062,0.088 0.107,0.121l0.004,0.003l0.017,0.011l0.017,0.011l0.011,0.006l0.017,0.009l0.018,0.008l0.018,0.007l0.019,0.007l0.019,0.005l0.019,0.005l0.02,0.003l0.009,0.002l0.02,0.002l0.019,0.001l0.013,-0l11.666,-0c0.144,-0 0.276,-0.077 0.347,-0.201c0.072,-0.124 0.071,-0.277 -0.001,-0.401l-1.167,-2c-0.072,-0.123 -0.203,-0.198 -0.345,-0.198l-9.334,-0c-0.142,-0 -0.273,0.075 -0.345,0.198l-1.167,2Zm1.042,-0.198l10.274,-0c-0,-0 -0.7,-1.2 -0.7,-1.2c-0,-0 -8.874,-0 -8.874,-0l-0.7,1.2Z" style="fill:#ec1f27;"/><path d="M6.776,12.274c0.52,-0.495 0.957,-0.699 1.359,-0.663c0.401,0.036 0.744,0.301 1.075,0.649c0.081,0.084 0.194,0.129 0.311,0.123c0.116,-0.006 0.224,-0.062 0.296,-0.155c0.341,-0.442 0.69,-0.715 1.085,-0.728c0.409,-0.013 0.831,0.246 1.305,0.756c0.151,0.162 0.404,0.171 0.565,0.021c0.162,-0.151 0.171,-0.404 0.021,-0.566c-0.682,-0.732 -1.329,-1.029 -1.917,-1.01c-0.491,0.016 -0.964,0.251 -1.404,0.704c-0.391,-0.333 -0.811,-0.55 -1.265,-0.591c-0.577,-0.052 -1.236,0.17 -1.983,0.88c-0.16,0.152 -0.166,0.405 -0.014,0.565c0.152,0.16 0.406,0.167 0.566,0.015Z" style="fill:#ec1f27;"/><path d="M8.776,9.674c0.52,-0.495 0.957,-0.699 1.359,-0.663c0.401,0.037 0.744,0.301 1.075,0.649c0.081,0.084 0.194,0.13 0.311,0.124c0.116,-0.006 0.224,-0.063 0.296,-0.155c0.341,-0.442 0.69,-0.716 1.085,-0.729c0.409,-0.013 0.831,0.247 1.305,0.757c0.151,0.161 0.404,0.17 0.565,0.02c0.162,-0.15 0.171,-0.404 0.021,-0.565c-0.682,-0.733 -1.329,-1.03 -1.917,-1.011c-0.491,0.016 -0.964,0.251 -1.404,0.705c-0.391,-0.334 -0.811,-0.55 -1.265,-0.591c-0.577,-0.052 -1.236,0.169 -1.983,0.879c-0.16,0.152 -0.166,0.406 -0.014,0.566c0.152,0.16 0.406,0.166 0.566,0.014Z" style="fill:#ec1f27;"/></svg>