<?xml version="1.0" encoding="UTF-8" standalone="no"?><!DOCTYPE svg PUBLIC "-//W3C//DTD SVG 1.1//EN" "http://www.w3.org/Graphics/SVG/1.1/DTD/svg11.dtd"><svg width="100%" height="100%" viewBox="0 0 36 36" version="1.1" xmlns="http://www.w3.org/2000/svg" xmlns:xlink="http://www.w3.org/1999/xlink" xml:space="preserve" xmlns:serif="http://www.serif.com/" style="fill-rule:evenodd;clip-rule:evenodd;stroke-linejoin:round;stroke-miterlimit:2;"><rect id="flag" x="0" y="0" width="36" height="36" style="fill:none;"/><g id="bg-white"><circle cx="18" cy="18" r="18" style="fill:#fff;"/></g><path d="M8.932,9.975c1.985,-1.672 3.69,-2.226 5.957,-1.642c2.454,0.973 3.542,1.367 5.185,1.009c1.195,-0.26 2.244,-0.87 3.23,-1.238c0.823,-0.308 1.597,-0.439 2.387,0.104c0,0.001 1.8,7.198 1.8,7.198c-0.833,-0.258 -1.69,-0.195 -2.554,0.035c-1.028,0.275 -2.067,0.791 -3.079,1.239c-1.912,0.846 -2.829,0.052 -4.687,-0.986c-0.009,-0.004 -0.018,-0.009 -0.027,-0.013c-1.267,-0.572 -2.138,-0.71 -2.821,-0.603c-1.017,0.158 -1.637,0.871 -2.551,1.657c-0.147,0.125 -0.163,0.347 -0.037,0.493c0.125,0.147 0.347,0.163 0.493,0.037c0.423,-0.363 0.774,-0.717 1.138,-0.997c0.32,-0.247 0.649,-0.434 1.065,-0.499c0.585,-0.091 1.325,0.056 2.41,0.543c2.091,1.169 3.146,1.962 5.301,1.008c0.978,-0.433 1.981,-0.937 2.976,-1.203c0.923,-0.246 1.839,-0.285 2.715,0.191c0.122,0.066 0.272,0.054 0.381,-0.031c0.11,-0.085 0.159,-0.227 0.126,-0.362l-2,-8c-0.02,-0.077 -0.065,-0.146 -0.129,-0.194c-1.046,-0.794 -2.064,-0.68 -3.152,-0.273c-0.957,0.358 -1.973,0.958 -3.133,1.21c-1.522,0.331 -2.519,-0.08 -4.797,-0.983c-0.013,-0.006 -0.027,-0.01 -0.041,-0.014c-2.515,-0.654 -4.409,-0.073 -6.607,1.778c-0.148,0.125 -0.167,0.346 -0.042,0.493c0.124,0.148 0.345,0.167 0.493,0.043Z" style="fill:#ec1f27;"/><path d="M10.304,10.358c-0.193,-0.72 -0.934,-1.148 -1.653,-0.955c-0.72,0.193 -1.148,0.934 -0.955,1.654c0,-0 4.902,18.292 4.902,18.292c0.193,0.72 0.933,1.148 1.653,0.955c0.72,-0.193 1.148,-0.934 0.955,-1.654c-0,0 -4.902,-18.292 -4.902,-18.292Zm-0.676,0.181l4.902,18.293c0.092,0.346 -0.114,0.703 -0.46,0.796c-0.347,0.093 -0.703,-0.113 -0.796,-0.46c-0,0 -4.902,-18.293 -4.902,-18.293c-0.093,-0.346 0.113,-0.703 0.46,-0.796c0.346,-0.093 0.703,0.113 0.796,0.46Z" style="fill:#ec1f27;"/></svg>