<?xml version="1.0" encoding="UTF-8" standalone="no"?><!DOCTYPE svg PUBLIC "-//W3C//DTD SVG 1.1//EN" "http://www.w3.org/Graphics/SVG/1.1/DTD/svg11.dtd"><svg width="100%" height="100%" viewBox="0 0 150 150" version="1.1" xmlns="http://www.w3.org/2000/svg" xmlns:xlink="http://www.w3.org/1999/xlink" xml:space="preserve" xmlns:serif="http://www.serif.com/" style="fill-rule:evenodd;clip-rule:evenodd;stroke-linecap:round;stroke-linejoin:round;stroke-miterlimit:1.5;"><rect id="flag" x="0" y="0" width="150" height="150" style="fill:none;"/><g id="bg-white"><circle cx="75" cy="75" r="75" style="fill:#fff;"/></g><path d="M41.525,43.535c-0.595,-2.222 -2.881,-3.542 -5.103,-2.947c-2.221,0.595 -3.541,2.882 -2.946,5.103l20.423,76.22c0.595,2.221 2.882,3.541 5.103,2.946c2.221,-0.595 3.542,-2.882 2.946,-5.103l-20.423,-76.219Z" style="fill:none;stroke:#ec1f27;stroke-width:2.92px;"/><path d="M36.277,40.445c8.728,-7.35 16.237,-9.711 26.223,-7.112c9.884,3.922 14.23,5.604 20.833,4.167c9.813,-2.135 17.206,-10.077 25,-4.167l8.334,33.334c-7.99,-4.338 -16.707,0.495 -25,4.166c-8.482,3.755 -12.593,0.437 -20.834,-4.166c-12.291,-5.548 -14.883,-0.947 -20.833,4.166" style="fill:none;stroke:#ec1f27;stroke-width:2.92px;"/></svg>