<?xml version="1.0" encoding="UTF-8" standalone="no"?><!DOCTYPE svg PUBLIC "-//W3C//DTD SVG 1.1//EN" "http://www.w3.org/Graphics/SVG/1.1/DTD/svg11.dtd"><svg width="100%" height="100%" viewBox="0 0 150 150" version="1.1" xmlns="http://www.w3.org/2000/svg" xmlns:xlink="http://www.w3.org/1999/xlink" xml:space="preserve" xmlns:serif="http://www.serif.com/" style="fill-rule:evenodd;clip-rule:evenodd;stroke-linecap:round;stroke-linejoin:round;stroke-miterlimit:1.5;"><rect id="flame" x="0" y="0" width="150" height="150" style="fill:none;"/><g id="bg-white"><circle cx="75" cy="75" r="75" style="fill:#fff;"/></g><path d="M62.5,114.583c-9.533,-3.163 -14.357,-11.536 -14.583,-25c0.427,-10.388 4.917,-18.544 12.5,-25c-0.629,3.988 0.704,7.474 4.166,10.417c7.453,-13.032 12.907,-26.163 12.5,-39.583c6.456,4.845 10.288,12.147 10.417,22.916c3.321,-3.225 4.377,-6.671 6.25,-10.416c4.594,9.945 10.22,21.171 12.5,33.333c2.048,10.926 -4.532,28.704 -20.833,33.333c3.732,-8.639 6.663,-14.225 6.25,-18.75c-0.619,-7.977 -2.972,-12.265 -6.25,-14.583c-0.927,6.913 -3.665,12.498 -8.334,16.667c-0.147,-5.542 -1.611,-8.889 -4.166,-10.417c-1.262,4.885 -4.671,8.336 -8.334,12.5c-3.194,3.631 -3.963,9.041 -2.083,14.583Z" style="fill:none;stroke:#ec1f27;stroke-width:3.33px;"/></svg>