<?xml version="1.0" encoding="UTF-8" standalone="no"?><!DOCTYPE svg PUBLIC "-//W3C//DTD SVG 1.1//EN" "http://www.w3.org/Graphics/SVG/1.1/DTD/svg11.dtd"><svg width="100%" height="100%" viewBox="0 0 150 150" version="1.1" xmlns="http://www.w3.org/2000/svg" xmlns:xlink="http://www.w3.org/1999/xlink" xml:space="preserve" xmlns:serif="http://www.serif.com/" style="fill-rule:evenodd;clip-rule:evenodd;stroke-linecap:round;stroke-linejoin:round;stroke-miterlimit:1.5;"><rect id="foot" x="0" y="0" width="150" height="150" style="fill:none;"/><g id="bg-white"><circle cx="75" cy="75" r="75" style="fill:#fff;"/></g><path d="M106.25,31.25c-1.384,14.74 1.05,31.447 6.25,40.672c2.197,3.896 7.425,9.576 8.015,14.928c0.266,4.617 -1.726,8.102 -6.178,9.789c-3.837,1.455 -9.016,3.004 -13.671,4.78c-5.185,1.978 -11.87,3.56 -16.854,8.521c-8.537,8.497 -15.742,10.758 -23.037,10.886c-4.016,0.07 -17.025,0.007 -17.025,0.007c-4.599,0 -8.333,-1.65 -8.333,-6.25c0,-4.599 3.425,-6.326 11.458,-6.25c0,0 9.07,-2.46 15.625,-10.416c3.36,-4.079 24.711,-48.19 6.25,-66.667" style="fill:none;stroke:#ec1f27;stroke-width:3.33px;"/><path d="M104.167,77.083c0.113,6.896 -3.359,10.368 -10.417,10.417" style="fill:none;stroke:#ec1f27;stroke-width:3.33px;"/><path d="M39.583,110.417c0,0 0.365,4.156 4.167,4.166c2.001,0.006 3.125,0 3.125,0l0,-6.25" style="fill:none;stroke:#ec1f27;stroke-width:3.33px;"/></svg>