<?xml version="1.0" encoding="UTF-8" standalone="no"?><!DOCTYPE svg PUBLIC "-//W3C//DTD SVG 1.1//EN" "http://www.w3.org/Graphics/SVG/1.1/DTD/svg11.dtd"><svg width="100%" height="100%" viewBox="0 0 150 150" version="1.1" xmlns="http://www.w3.org/2000/svg" xmlns:xlink="http://www.w3.org/1999/xlink" xml:space="preserve" xmlns:serif="http://www.serif.com/" style="fill-rule:evenodd;clip-rule:evenodd;stroke-linecap:round;stroke-linejoin:round;stroke-miterlimit:1.5;"><rect id="gas-mask" x="0" y="0" width="150" height="150" style="fill:none;"/><g id="bg-white"><circle cx="75" cy="75" r="75" style="fill:#fff;"/></g><path d="M77.083,62.5c-5.555,0 -11.618,3.565 -16.666,8.333c-6.25,5.903 -21.013,12.907 -20.834,27.084c0.234,18.406 25.348,20.833 37.5,20.833c12.153,0 35.232,-6.027 35.417,-20.833c0.165,-13.205 -12.847,-21.181 -18.75,-27.084c-4.91,-4.91 -11.111,-8.333 -16.667,-8.333Z" style="fill:none;stroke:#ec1f27;stroke-width:3.33px;"/><path d="M64.583,79.167c0,0 2.875,-1.222 4.167,-2.084c2.083,-1.389 3.225,-6.33 8.333,-6.25c5.737,0.09 6.25,4.861 8.334,6.25c1.292,0.862 4.166,2.084 4.166,2.084" style="fill:none;stroke:#ec1f27;stroke-width:3.33px;"/><path d="M110.24,79.167l-9.021,5.208l3.125,5.413l9.021,-5.209l-3.125,-5.412Z" style="fill:none;stroke:#ec1f27;stroke-width:3.33px;"/><path d="M115.448,107.292l-9.021,-5.209l-3.125,5.413l9.021,5.208l3.125,-5.412Z" style="fill:none;stroke:#ec1f27;stroke-width:3.33px;"/><path d="M50.81,84.375l-9.021,-5.208l-3.125,5.412l9.021,5.209l3.125,-5.413Z" style="fill:none;stroke:#ec1f27;stroke-width:3.33px;"/><path d="M45.547,102.083l-9.021,5.209l3.125,5.412l9.021,-5.208l-3.125,-5.413Z" style="fill:none;stroke:#ec1f27;stroke-width:3.33px;"/><path d="M85.417,93.954c0,-2.299 -1.867,-4.166 -4.167,-4.166l-8.333,0c-2.3,0 -4.167,1.867 -4.167,4.166l0,10.213c0,2.299 1.867,4.166 4.167,4.166l8.333,0c2.3,0 4.167,-1.867 4.167,-4.166l0,-10.213Z" style="fill:none;stroke:#ec1f27;stroke-width:3.33px;"/><path d="M47.917,79.167c0,0 -6.627,-5.557 -6.25,-14.584c0.376,-9.026 12.907,-8.988 13.255,-20.833c0.348,-11.845 14.998,-12.5 22.161,-12.5c7.164,0 20.481,1.006 20.818,12.5c0.348,11.845 12.879,11.807 13.255,20.833c0.377,9.027 -6.25,14.584 -6.25,14.584" style="fill:none;stroke:#ec1f27;stroke-width:3.33px;"/></svg>