<?xml version="1.0" encoding="UTF-8" standalone="no"?><!DOCTYPE svg PUBLIC "-//W3C//DTD SVG 1.1//EN" "http://www.w3.org/Graphics/SVG/1.1/DTD/svg11.dtd"><svg width="100%" height="100%" viewBox="0 0 36 36" version="1.1" xmlns="http://www.w3.org/2000/svg" xmlns:xlink="http://www.w3.org/1999/xlink" xml:space="preserve" xmlns:serif="http://www.serif.com/" style="fill-rule:evenodd;clip-rule:evenodd;stroke-linejoin:round;stroke-miterlimit:2;"><rect id="gas-mask" x="0" y="0" width="36" height="36" style="fill:none;"/><g id="bg-white"><circle cx="18" cy="18" r="18" style="fill:#fff;"/></g><path d="M18.5,14.6c-1.421,0 -2.983,0.889 -4.275,2.109c-0.75,0.709 -2.012,1.484 -3.08,2.507c-1.145,1.096 -2.068,2.466 -2.045,4.289c0.024,1.93 1.082,3.196 2.559,4.013c2.087,1.155 5.039,1.382 6.841,1.382c1.809,-0 4.593,-0.542 6.542,-1.766c1.378,-0.866 2.338,-2.07 2.358,-3.629c0.021,-1.693 -0.789,-3.057 -1.807,-4.181c-0.958,-1.057 -2.098,-1.895 -2.81,-2.607c-1.259,-1.259 -2.859,-2.117 -4.283,-2.117Zm-0,0.8c1.242,-0 2.619,0.785 3.717,1.883c0.705,0.705 1.835,1.532 2.783,2.578c0.887,0.98 1.618,2.158 1.6,3.634c-0.016,1.284 -0.849,2.248 -1.984,2.961c-1.821,1.145 -4.425,1.644 -6.116,1.644c-1.698,0 -4.486,-0.193 -6.454,-1.282c-1.228,-0.679 -2.126,-1.719 -2.146,-3.323c-0.02,-1.579 0.807,-2.752 1.798,-3.701c1.067,-1.022 2.327,-1.795 3.077,-2.503c1.132,-1.069 2.479,-1.891 3.725,-1.891Z" style="fill:#ec1f27;"/><path d="M15.656,19.368c0,0 0.735,-0.315 1.066,-0.535c0.231,-0.154 0.432,-0.456 0.666,-0.773c0.238,-0.32 0.533,-0.669 1.106,-0.66c0.647,0.01 0.936,0.343 1.152,0.66c0.217,0.317 0.396,0.616 0.632,0.773c0.331,0.22 1.066,0.535 1.066,0.535c0.203,0.086 0.438,-0.008 0.524,-0.212c0.086,-0.203 -0.008,-0.438 -0.212,-0.524c0,-0 -0.645,-0.272 -0.934,-0.465c-0.164,-0.109 -0.264,-0.337 -0.415,-0.558c-0.336,-0.492 -0.795,-0.993 -1.801,-1.009c-0.761,-0.012 -1.231,0.342 -1.584,0.759c-0.148,0.176 -0.274,0.363 -0.394,0.527c-0.084,0.115 -0.159,0.22 -0.25,0.281c-0.289,0.193 -0.934,0.465 -0.934,0.465c-0.204,0.086 -0.298,0.321 -0.212,0.524c0.086,0.204 0.321,0.298 0.524,0.212Z" style="fill:#ec1f27;"/><path d="M26.804,18.8c-0.111,-0.191 -0.355,-0.257 -0.546,-0.146l-2.166,1.25c-0.191,0.11 -0.256,0.355 -0.146,0.546l0.75,1.299c0.111,0.191 0.355,0.257 0.546,0.146l2.166,-1.25c0.191,-0.11 0.256,-0.355 0.146,-0.546l-0.75,-1.299Zm-0.493,0.746l0.35,0.607c0,-0 -1.472,0.85 -1.472,0.85c-0,-0 -0.35,-0.607 -0.35,-0.607l1.472,-0.85Z" style="fill:#ec1f27;"/><path d="M28.054,25.95c0.11,-0.191 0.045,-0.436 -0.146,-0.546l-2.166,-1.25c-0.191,-0.111 -0.435,-0.045 -0.546,0.146l-0.75,1.299c-0.11,0.191 -0.045,0.436 0.146,0.546l2.166,1.25c0.191,0.111 0.435,0.045 0.546,-0.146l0.75,-1.299Zm-0.893,-0.054l-0.35,0.607c0,-0 -1.472,-0.85 -1.472,-0.85c-0,-0 0.35,-0.607 0.35,-0.607l1.472,0.85Z" style="fill:#ec1f27;"/><path d="M12.541,20.45c0.11,-0.191 0.045,-0.436 -0.147,-0.546l-2.165,-1.25c-0.191,-0.111 -0.436,-0.045 -0.546,0.146l-0.75,1.299c-0.111,0.191 -0.045,0.436 0.146,0.546l2.165,1.25c0.192,0.111 0.436,0.045 0.547,-0.146l0.75,-1.299Zm-0.893,-0.054l-0.35,0.607c-0,-0 -1.472,-0.85 -1.472,-0.85c-0,-0 0.35,-0.607 0.35,-0.607l1.472,0.85Z" style="fill:#ec1f27;"/><path d="M11.278,24.3c-0.111,-0.191 -0.355,-0.257 -0.547,-0.146l-2.165,1.25c-0.191,0.11 -0.257,0.355 -0.146,0.546l0.75,1.299c0.11,0.191 0.355,0.257 0.546,0.146l2.165,-1.25c0.192,-0.11 0.257,-0.355 0.147,-0.546l-0.75,-1.299Zm-0.493,0.746l0.35,0.607c-0,-0 -1.472,0.85 -1.472,0.85c-0,-0 -0.35,-0.607 -0.35,-0.607l1.472,-0.85Z" style="fill:#ec1f27;"/><path d="M20.9,22.549c0,-0.773 -0.627,-1.4 -1.4,-1.4l-2,0c-0.773,0 -1.4,0.627 -1.4,1.4c-0,0 -0,2.451 -0,2.451c-0,0.773 0.627,1.4 1.4,1.4c-0,0 2,0 2,0c0.773,0 1.4,-0.627 1.4,-1.4l0,-2.451Zm-0.8,0l-0,2.451c-0,0.331 -0.269,0.6 -0.6,0.6l-2,0c-0.331,0 -0.6,-0.269 -0.6,-0.6l0,-2.451c0,-0.331 0.269,-0.6 0.6,-0.6c-0,0 2,0 2,0c0.331,0 0.6,0.269 0.6,0.6Z" style="fill:#ec1f27;"/><path d="M11.757,18.694c0,-0 -1.439,-1.212 -1.357,-3.177c0.039,-0.955 0.762,-1.402 1.444,-1.952c0.855,-0.689 1.691,-1.483 1.737,-3.053c0.036,-1.226 0.828,-1.861 1.781,-2.201c1.059,-0.379 2.314,-0.411 3.138,-0.411c0.819,-0 1.99,0.052 2.965,0.438c0.882,0.348 1.597,0.987 1.631,2.174c0.047,1.57 0.882,2.364 1.737,3.053c0.682,0.55 1.405,0.997 1.445,1.952c0.082,1.965 -1.357,3.177 -1.357,3.177c-0.17,0.141 -0.192,0.394 -0.05,0.563c0.142,0.169 0.394,0.191 0.564,0.049c-0,0 1.741,-1.455 1.642,-3.823c-0.041,-0.995 -0.595,-1.604 -1.279,-2.169c-0.816,-0.673 -1.856,-1.27 -1.902,-2.826c-0.046,-1.571 -0.97,-2.433 -2.136,-2.894c-1.073,-0.425 -2.36,-0.494 -3.26,-0.494c-0.895,0 -2.257,0.046 -3.407,0.457c-1.256,0.449 -2.264,1.315 -2.312,2.931c-0.045,1.556 -1.086,2.153 -1.901,2.826c-0.684,0.565 -1.238,1.174 -1.28,2.169c-0.098,2.368 1.643,3.823 1.643,3.823c0.169,0.142 0.422,0.12 0.563,-0.049c0.142,-0.169 0.12,-0.422 -0.049,-0.563Z" style="fill:#ec1f27;"/></svg>