<?xml version="1.0" encoding="UTF-8" standalone="no"?><!DOCTYPE svg PUBLIC "-//W3C//DTD SVG 1.1//EN" "http://www.w3.org/Graphics/SVG/1.1/DTD/svg11.dtd"><svg width="100%" height="100%" viewBox="0 0 36 36" version="1.1" xmlns="http://www.w3.org/2000/svg" xmlns:xlink="http://www.w3.org/1999/xlink" xml:space="preserve" xmlns:serif="http://www.serif.com/" style="fill-rule:evenodd;clip-rule:evenodd;stroke-linejoin:round;stroke-miterlimit:2;"><rect id="gavel" x="0" y="0" width="36" height="36" style="fill:none;"/><g><circle cx="18" cy="18" r="18" style="fill:#fff;"/></g><path d="M6.3,13.303c-0.311,0.311 -0.311,0.817 -0,1.128l5.71,5.71c0.311,0.312 0.817,0.312 1.128,0c0,0 0.655,-0.655 0.655,-0.655c0.312,-0.311 0.312,-0.817 0,-1.128c0,0 -5.71,-5.71 -5.71,-5.71c-0.311,-0.311 -0.817,-0.311 -1.128,0l-0.655,0.655Zm0.53,0.53l0.655,-0.655c0.019,-0.018 0.049,-0.018 0.068,0c-0,0 5.71,5.71 5.71,5.71c0.019,0.019 0.019,0.049 -0,0.068l-0.655,0.655c-0.019,0.019 -0.049,0.019 -0.068,0l-5.71,-5.71c-0.018,-0.019 -0.018,-0.049 0,-0.068Z" style="fill:#ec1f27;"/><path d="M14.379,5.215l-0.639,0.64c-0.316,0.316 -0.316,0.829 -0,1.145l5.701,5.702c0.316,0.316 0.829,0.316 1.146,-0c-0,-0 0.639,-0.64 0.639,-0.64c0.316,-0.316 0.316,-0.829 -0,-1.145l-5.701,-5.702c-0.316,-0.316 -0.83,-0.316 -1.146,0Zm-0.109,1.17l0.639,-0.639c0.024,-0.024 0.062,-0.024 0.085,-0c0,-0 5.702,5.701 5.702,5.701c0.023,0.023 0.023,0.061 -0,0.085c-0,-0 -0.64,0.639 -0.64,0.639c-0.023,0.024 -0.061,0.024 -0.085,0l-5.701,-5.701c-0.023,-0.023 -0.023,-0.061 0,-0.085Z" style="fill:#ec1f27;"/><path d="M28.908,27.939c0.487,-0.489 0.619,-1.345 0.15,-1.815l-12.03,-12.166l-2.062,2.039l12.042,12.043c0.486,0.486 1.386,0.416 1.9,-0.101l0,0Zm-0.532,-0.529l0,0c-0.228,0.229 -0.622,0.315 -0.837,0.1l-11.509,-11.51c-0,0 0.992,-0.981 0.992,-0.981c7.662,7.749 11.498,11.628 11.505,11.636c0.082,0.081 0.092,0.2 0.074,0.315c-0.024,0.161 -0.107,0.322 -0.225,0.44Z" style="fill:#ec1f27;"/><path d="M13.386,18.591l6.306,-6.306l-5.194,-5.194l-6.306,6.306l5.194,5.194Zm5.245,-6.306l-5.245,5.245c0,0 -4.133,-4.133 -4.133,-4.133c-0,-0 5.245,-5.245 5.245,-5.245l4.133,4.133Z" style="fill:#ec1f27;"/><path d="M6.625,27.386c0,0.567 0.395,0.971 0.787,0.971c0,0 9.561,0 9.561,0c0.392,0 0.787,-0.404 0.787,-0.971c0,-0 0,-0.789 0,-0.789c0,-0.568 -0.395,-0.972 -0.787,-0.972l-9.561,0c-0.392,0 -0.787,0.404 -0.787,0.972l0,0.789Zm10.319,-1.011c0.008,0.01 0.021,0.026 0.027,0.039c0.026,0.051 0.039,0.114 0.039,0.183l0,0.789c0,0.068 -0.013,0.131 -0.039,0.182c-0.006,0.013 -0.019,0.029 -0.027,0.039l-9.503,0c-0.008,-0.01 -0.021,-0.026 -0.027,-0.039c-0.026,-0.051 -0.039,-0.114 -0.039,-0.182l0,-0.789c0,-0.069 0.013,-0.132 0.039,-0.183c0.006,-0.013 0.019,-0.029 0.027,-0.039l9.503,0Z" style="fill:#ec1f27;"/><path d="M8.087,25.476c0,0.279 0.102,0.522 0.241,0.675c0.134,0.148 0.304,0.224 0.483,0.224l7.019,-0c0.179,-0 0.35,-0.076 0.484,-0.224c0.139,-0.153 0.24,-0.396 0.24,-0.675l0,-0.935c0,-0.278 -0.101,-0.521 -0.24,-0.674c-0.134,-0.148 -0.305,-0.224 -0.484,-0.224l-7.019,-0c-0.179,-0 -0.349,0.076 -0.483,0.224c-0.139,0.153 -0.241,0.396 -0.241,0.674l0,0.935Zm7.681,-1.083c0.013,0.034 0.036,0.1 0.036,0.148c0,0 0,0.935 0,0.935c0,0.049 -0.023,0.115 -0.036,0.149l-6.894,-0c-0.014,-0.034 -0.037,-0.1 -0.037,-0.149l0,-0.935c0,-0.048 0.023,-0.114 0.037,-0.148l6.894,-0Z" style="fill:#ec1f27;"/></svg>