<?xml version="1.0" encoding="UTF-8" standalone="no"?><!DOCTYPE svg PUBLIC "-//W3C//DTD SVG 1.1//EN" "http://www.w3.org/Graphics/SVG/1.1/DTD/svg11.dtd"><svg width="100%" height="100%" viewBox="0 0 36 36" version="1.1" xmlns="http://www.w3.org/2000/svg" xmlns:xlink="http://www.w3.org/1999/xlink" xml:space="preserve" xmlns:serif="http://www.serif.com/" style="fill-rule:evenodd;clip-rule:evenodd;stroke-linejoin:round;stroke-miterlimit:2;"><rect id="globe" x="0" y="0" width="36" height="36" style="fill:none;"/><g id="bg-white"><circle cx="18" cy="18" r="18" style="fill:#fff;"/></g><path d="M17.6,8.5l-0,19c-0,0.221 0.179,0.4 0.4,0.4c0.221,0 0.4,-0.179 0.4,-0.4l0,-19c-0,-0.221 -0.179,-0.4 -0.4,-0.4c-0.221,0 -0.4,0.179 -0.4,0.4Z" style="fill:#ec1f27;"/><path d="M26.855,14.682l-17.71,0c-0.221,0 -0.4,0.179 -0.4,0.4c-0,0.221 0.179,0.4 0.4,0.4l17.71,0c0.221,0 0.4,-0.179 0.4,-0.4c0,-0.221 -0.179,-0.4 -0.4,-0.4Z" style="fill:#ec1f27;"/><path d="M26.855,20.518l-17.71,-0c-0.221,-0 -0.4,0.179 -0.4,0.4c-0,0.221 0.179,0.4 0.4,0.4l17.71,-0c0.221,-0 0.4,-0.179 0.4,-0.4c0,-0.221 -0.179,-0.4 -0.4,-0.4Z" style="fill:#ec1f27;"/><path d="M17.718,8.784c3.109,3.082 4.838,6.152 4.915,9.231c0.077,3.068 -1.495,6.123 -4.901,9.188c-0.164,0.147 -0.177,0.401 -0.029,0.565c0.147,0.164 0.401,0.177 0.565,0.029c3.623,-3.261 5.247,-6.537 5.165,-9.802c-0.081,-3.255 -1.866,-6.522 -5.151,-9.779c-0.157,-0.155 -0.411,-0.154 -0.566,0.002c-0.155,0.157 -0.154,0.411 0.002,0.566Z" style="fill:#ec1f27;"/><path d="M17.733,8.202c-3.332,2.986 -5.105,6.112 -5.17,9.371c-0.064,3.25 1.575,6.657 5.155,10.211c0.157,0.155 0.41,0.154 0.566,-0.002c0.155,-0.157 0.154,-0.41 -0.002,-0.566c-3.384,-3.359 -4.979,-6.555 -4.919,-9.627c0.061,-3.065 1.77,-5.982 4.904,-8.791c0.164,-0.147 0.178,-0.401 0.031,-0.565c-0.147,-0.164 -0.401,-0.178 -0.565,-0.031Z" style="fill:#ec1f27;"/><path d="M18,8.1c-5.464,-0 -9.9,4.436 -9.9,9.9c0,5.464 4.436,9.9 9.9,9.9c5.464,-0 9.9,-4.436 9.9,-9.9c0,-5.464 -4.436,-9.9 -9.9,-9.9Zm0,0.8c5.022,-0 9.1,4.078 9.1,9.1c0,5.022 -4.078,9.1 -9.1,9.1c-5.022,-0 -9.1,-4.078 -9.1,-9.1c0,-5.022 4.078,-9.1 9.1,-9.1Z" style="fill:#ec1f27;"/></svg>