<?xml version="1.0" encoding="UTF-8" standalone="no"?><!DOCTYPE svg PUBLIC "-//W3C//DTD SVG 1.1//EN" "http://www.w3.org/Graphics/SVG/1.1/DTD/svg11.dtd"><svg width="100%" height="100%" viewBox="0 0 36 36" version="1.1" xmlns="http://www.w3.org/2000/svg" xmlns:xlink="http://www.w3.org/1999/xlink" xml:space="preserve" xmlns:serif="http://www.serif.com/" style="fill-rule:evenodd;clip-rule:evenodd;stroke-linejoin:round;stroke-miterlimit:2;"><rect id="graph-pie" x="0" y="0" width="36" height="36" style="fill:none;"/><g id="bg-white"><circle cx="18" cy="18" r="18" style="fill:#fff;"/></g><path d="M18,9.6c-4.056,0 -7.652,0.833 -9.881,2.1c-1.611,0.916 -2.519,2.079 -2.519,3.3c0,1.221 0.908,2.384 2.519,3.3c2.229,1.267 5.825,2.1 9.881,2.1c4.056,-0 7.652,-0.833 9.881,-2.1c1.611,-0.916 2.519,-2.079 2.519,-3.3c0,-1.221 -0.908,-2.384 -2.519,-3.3c-2.229,-1.267 -5.825,-2.1 -9.881,-2.1Zm0,0.8c3.892,-0 7.346,0.78 9.486,1.996c1.302,0.739 2.114,1.617 2.114,2.604c-0,0.987 -0.812,1.865 -2.114,2.604c-2.14,1.216 -5.594,1.996 -9.486,1.996c-3.892,0 -7.346,-0.78 -9.486,-1.996c-1.302,-0.739 -2.114,-1.617 -2.114,-2.604c-0,-0.987 0.812,-1.865 2.114,-2.604c2.14,-1.216 5.594,-1.996 9.486,-1.996Z" style="fill:#ec1f27;"/><path d="M20.661,9.988l-3,4.8c-0.089,0.142 -0.08,0.324 0.023,0.457c0.102,0.132 0.277,0.187 0.436,0.136l9.5,-3c0.211,-0.066 0.328,-0.291 0.261,-0.501c-0.066,-0.211 -0.291,-0.328 -0.501,-0.261l-8.466,2.673c0,-0 2.425,-3.88 2.425,-3.88c0.117,-0.187 0.06,-0.434 -0.127,-0.551c-0.187,-0.117 -0.434,-0.06 -0.551,0.127Z" style="fill:#ec1f27;"/><path d="M5.6,15l0,6c0,0.04 0.006,0.08 0.018,0.119c0.44,1.418 1.589,2.571 3.194,3.43c2.301,1.232 5.55,1.866 8.842,1.877c3.288,0.011 6.617,-0.6 9.083,-1.832c1.704,-0.85 3,-2.001 3.629,-3.433c0.022,-0.051 0.034,-0.106 0.034,-0.161l0,-6c0,-0.221 -0.179,-0.4 -0.4,-0.4c-0.221,-0 -0.4,0.179 -0.4,0.4l-0,5.914c-0.574,1.241 -1.732,2.221 -3.22,2.965c-2.368,1.182 -5.566,1.757 -8.723,1.747c-3.152,-0.01 -6.265,-0.603 -8.468,-1.782c-1.375,-0.737 -2.392,-1.698 -2.789,-2.906c0,-0 -0,-5.938 -0,-5.938c0,-0.221 -0.179,-0.4 -0.4,-0.4c-0.221,-0 -0.4,0.179 -0.4,0.4Z" style="fill:#ec1f27;"/></svg>