<?xml version="1.0" encoding="UTF-8" standalone="no"?><!DOCTYPE svg PUBLIC "-//W3C//DTD SVG 1.1//EN" "http://www.w3.org/Graphics/SVG/1.1/DTD/svg11.dtd"><svg width="100%" height="100%" viewBox="0 0 150 150" version="1.1" xmlns="http://www.w3.org/2000/svg" xmlns:xlink="http://www.w3.org/1999/xlink" xml:space="preserve" xmlns:serif="http://www.serif.com/" style="fill-rule:evenodd;clip-rule:evenodd;stroke-linecap:round;stroke-linejoin:round;stroke-miterlimit:1.5;"><rect id="hand-stop" x="0" y="0" width="150" height="150" style="fill:none;"/><g><circle cx="75" cy="75" r="75" style="fill:#fff;"/></g><path d="M116.597,79.167l0,-31.963c0,-4.596 -3.731,-8.327 -8.326,-8.327c-4.596,0 -8.327,3.731 -8.327,8.327l0,31.963" style="fill:none;stroke:#ec1f27;stroke-width:3.13px;"/><path d="M99.944,79.167l0,-38.902c0,-4.595 -3.73,-8.326 -8.326,-8.326c-4.595,0 -8.326,3.731 -8.326,8.326l0,38.902" style="fill:none;stroke:#ec1f27;stroke-width:3.13px;"/><path d="M66.667,74.847l-0.028,-41.521c0,-4.595 3.731,-8.326 8.326,-8.326c4.596,0 8.327,3.731 8.327,8.326l0.027,41.608" style="fill:none;stroke:#ec1f27;stroke-width:3.13px;"/><path d="M50,79.167l-0.014,-38.902c0,-4.595 3.731,-8.326 8.327,-8.326c4.595,0 8.326,3.731 8.326,8.326l0,38.902" style="fill:none;stroke:#ec1f27;stroke-width:3.13px;"/><path d="M116.597,75.001c0,0 0.156,23.931 0,33.306c-0.156,9.374 -7.057,16.529 -16.653,16.652c-12.149,0.157 -37.983,-0.202 -49.958,0c-9.88,0.167 -16.679,-6.386 -16.653,-16.652c0.019,-7.288 -0.021,-31.229 0,-37.627c0.014,-4.247 3.814,-8.188 8.334,-8.18c4.52,0.008 8.364,2.918 8.319,8.18c-0.043,5.055 0,16.82 0,16.82" style="fill:none;stroke:#ec1f27;stroke-width:3.13px;"/></svg>