<?xml version="1.0" encoding="UTF-8" standalone="no"?><!DOCTYPE svg PUBLIC "-//W3C//DTD SVG 1.1//EN" "http://www.w3.org/Graphics/SVG/1.1/DTD/svg11.dtd"><svg width="100%" height="100%" viewBox="0 0 150 150" version="1.1" xmlns="http://www.w3.org/2000/svg" xmlns:xlink="http://www.w3.org/1999/xlink" xml:space="preserve" xmlns:serif="http://www.serif.com/" style="fill-rule:evenodd;clip-rule:evenodd;stroke-linecap:round;stroke-linejoin:round;stroke-miterlimit:1.5;"><rect id="handcuffs" x="0" y="0" width="150" height="150" style="fill:none;"/><g><circle cx="75" cy="75" r="75" style="fill:#fff;"/></g><path d="M34.426,70.415c-5.718,-4.171 -9.426,-10.85 -9.426,-18.372c0,-12.626 10.444,-22.876 23.309,-22.876c12.864,0 23.309,10.25 23.309,22.876c0,7.522 -3.708,14.201 -9.426,18.372c0.067,0.347 0.102,8.262 0.102,8.262c0,3.156 -2.611,5.718 -5.827,5.718l-16.316,0c-3.216,0 -5.827,-2.562 -5.827,-5.718c0,0 0.035,-7.915 0.102,-8.262Z" style="fill:none;stroke:#ec1f27;stroke-width:3.13px;"/><path d="M79.163,89.422c-1.102,-7.002 0.988,-14.354 6.294,-19.673c8.906,-8.928 23.521,-8.772 32.618,0.347c9.097,9.119 9.251,23.77 0.346,32.698c-5.307,5.319 -12.64,7.414 -19.625,6.309c-0.197,0.293 -5.755,5.915 -5.755,5.915c-2.227,2.232 -5.88,2.193 -8.155,-0.087l-11.537,-11.565c-2.274,-2.28 -2.313,-5.943 -0.086,-8.175c0,0 5.607,-5.571 5.9,-5.769Z" style="fill:none;stroke:#ec1f27;stroke-width:3.13px;"/><ellipse cx="48.309" cy="52.043" rx="13.985" ry="13.726" style="fill:none;stroke:#ec1f27;stroke-width:3.13px;"/><path d="M111.62,76.566c5.458,5.471 5.551,14.262 0.208,19.619c-5.344,5.356 -14.113,5.263 -19.571,-0.208c-5.458,-5.472 -5.551,-14.262 -0.207,-19.619c5.343,-5.357 14.113,-5.263 19.57,0.208Z" style="fill:none;stroke:#ec1f27;stroke-width:3.13px;"/><ellipse cx="48.309" cy="73.775" rx="2.119" ry="2.124" style="fill:none;stroke:#ec1f27;stroke-width:3.13px;"/><path d="M88.108,100.136c0.827,0.829 0.827,2.175 0,3.004c-0.827,0.829 -2.17,0.829 -2.997,0c-0.827,-0.829 -0.827,-2.175 0,-3.004c0.827,-0.829 2.17,-0.829 2.997,0Z" style="fill:none;stroke:#ec1f27;stroke-width:3.13px;"/><ellipse cx="47.917" cy="92.198" rx="6.25" ry="7.802" style="fill:none;stroke:#ec1f27;stroke-width:3.13px;"/><path d="M79.251,109.884c2.44,2.439 1.948,6.892 -1.097,9.937c-3.045,3.044 -7.497,3.536 -9.937,1.097c-2.439,-2.439 -1.947,-6.891 1.098,-9.936c3.045,-3.045 7.497,-3.537 9.936,-1.098Z" style="fill:none;stroke:#ec1f27;stroke-width:3.13px;"/><path d="M66.667,118.75c0,3.449 -3.496,6.25 -7.803,6.25c-4.306,0 -7.802,-2.801 -7.802,-6.25c0,-3.449 3.496,-6.25 7.802,-6.25c4.307,0 7.803,2.801 7.803,6.25Z" style="fill:none;stroke:#ec1f27;stroke-width:3.13px;"/><ellipse cx="47.917" cy="108.864" rx="6.25" ry="7.802" style="fill:none;stroke:#ec1f27;stroke-width:3.13px;"/></svg>