<?xml version="1.0" encoding="UTF-8" standalone="no"?><!DOCTYPE svg PUBLIC "-//W3C//DTD SVG 1.1//EN" "http://www.w3.org/Graphics/SVG/1.1/DTD/svg11.dtd"><svg width="100%" height="100%" viewBox="0 0 36 36" version="1.1" xmlns="http://www.w3.org/2000/svg" xmlns:xlink="http://www.w3.org/1999/xlink" xml:space="preserve" xmlns:serif="http://www.serif.com/" style="fill-rule:evenodd;clip-rule:evenodd;stroke-linejoin:round;stroke-miterlimit:2;"><rect id="hand-stop" x="0" y="0" width="36" height="36" style="fill:none;"/><g><circle cx="18" cy="18" r="18" style="fill:#fff;"/></g><path d="M28.358,19l0,-7.671c0,-1.31 -1.063,-2.373 -2.373,-2.373c-1.31,-0 -2.373,1.063 -2.373,2.373l-0,7.671c-0,0.207 0.168,0.375 0.375,0.375c0.207,-0 0.375,-0.168 0.375,-0.375l-0,-7.671c-0,-0.896 0.727,-1.623 1.623,-1.623c0.896,-0 1.623,0.727 1.623,1.623l0,7.671c0,0.207 0.168,0.375 0.375,0.375c0.207,-0 0.375,-0.168 0.375,-0.375Z" style="fill:#ec1f27;"/><path d="M24.362,19l-0,-9.336c-0,-1.31 -1.064,-2.374 -2.374,-2.374c-1.31,0 -2.373,1.064 -2.373,2.374l0,9.336c0,0.207 0.168,0.375 0.375,0.375c0.207,0 0.375,-0.168 0.375,-0.375l0,-9.336c0,-0.896 0.727,-1.624 1.623,-1.624c0.896,0 1.624,0.728 1.624,1.624l-0,9.336c-0,0.207 0.168,0.375 0.375,0.375c0.207,0 0.375,-0.168 0.375,-0.375Z" style="fill:#ec1f27;"/><path d="M16.375,17.963l-0.007,-9.965c0,-0.896 0.728,-1.623 1.624,-1.623c0.896,-0 1.623,0.727 1.623,1.623l0.007,9.986c-0,0.207 0.168,0.375 0.375,0.375c0.207,-0 0.375,-0.168 0.375,-0.375l-0.007,-9.986c0,-1.31 -1.063,-2.373 -2.373,-2.373c-1.31,-0 -2.374,1.063 -2.374,2.373l0.007,9.965c0,0.207 0.168,0.375 0.375,0.375c0.207,0 0.375,-0.168 0.375,-0.375Z" style="fill:#ec1f27;"/><path d="M12.375,19l-0.003,-9.336c-0,-0.896 0.727,-1.624 1.623,-1.624c0.896,0 1.623,0.728 1.623,1.624l0,9.336c0,0.207 0.168,0.375 0.375,0.375c0.207,-0 0.375,-0.168 0.375,-0.375l0,-9.336c0,-1.31 -1.063,-2.374 -2.373,-2.374c-1.31,0 -2.373,1.064 -2.373,2.374l0.003,9.336c0,0.207 0.168,0.375 0.375,0.375c0.207,-0 0.375,-0.168 0.375,-0.375Z" style="fill:#ec1f27;"/><path d="M27.608,18.003c0,-0 0.038,5.737 0,7.984c-0.034,2.042 -1.536,3.601 -3.626,3.628c-2.916,0.038 -9.117,-0.048 -11.992,0c-1.073,0.018 -1.982,-0.32 -2.619,-0.951c-0.639,-0.632 -0.999,-1.551 -0.996,-2.669c0.004,-1.75 -0.005,-7.495 -0,-9.031c0.003,-0.826 0.745,-1.591 1.624,-1.589c0.879,0.002 1.631,0.562 1.623,1.585c-0.011,1.214 -0,4.041 -0,4.041c0,0.207 0.169,0.375 0.376,0.374c0.207,-0.001 0.374,-0.169 0.374,-0.376c-0,-0 -0.011,-2.821 -0,-4.033c0.013,-1.502 -1.08,-2.339 -2.371,-2.341c-1.29,-0.002 -2.372,1.125 -2.376,2.337c-0.005,1.536 0.004,7.281 0,9.031c-0.003,1.345 0.45,2.444 1.218,3.204c0.77,0.762 1.862,1.19 3.16,1.168c2.874,-0.048 9.073,0.038 11.988,0c2.516,-0.032 4.326,-1.907 4.367,-4.365c0.038,-2.252 0,-8.002 0,-8.002c-0.001,-0.207 -0.17,-0.374 -0.377,-0.373c-0.207,0.002 -0.374,0.171 -0.373,0.378Z" style="fill:#ec1f27;"/></svg>