<?xml version="1.0" encoding="UTF-8" standalone="no"?><!DOCTYPE svg PUBLIC "-//W3C//DTD SVG 1.1//EN" "http://www.w3.org/Graphics/SVG/1.1/DTD/svg11.dtd"><svg width="100%" height="100%" viewBox="0 0 36 36" version="1.1" xmlns="http://www.w3.org/2000/svg" xmlns:xlink="http://www.w3.org/1999/xlink" xml:space="preserve" xmlns:serif="http://www.serif.com/" style="fill-rule:evenodd;clip-rule:evenodd;stroke-linejoin:round;stroke-miterlimit:2;"><rect id="handshake" x="0" y="0" width="36" height="36" style="fill:none;"/><g id="bg-white"><circle cx="18" cy="18" r="18" style="fill:#fff;"/></g><path d="M19.016,26.86c0.094,0.087 0.159,0.101 0.709,0.609c0.479,0.442 0.92,0.613 1.306,0.638c0.594,0.037 1.089,-0.276 1.462,-0.649c0.765,-0.765 0.765,-2.008 0.001,-2.773c0.003,0.003 -4.203,-4.393 -4.203,-4.393c-0.153,-0.16 -0.407,-0.165 -0.566,-0.013c-0.16,0.153 -0.165,0.406 -0.012,0.566l4.208,4.398c0.002,0.003 0.004,0.005 0.006,0.007c0.454,0.453 0.454,1.189 0,1.642c-0.22,0.22 -0.495,0.438 -0.846,0.416c-0.244,-0.015 -0.51,-0.147 -0.814,-0.427c-0.552,-0.51 -0.617,-0.524 -0.711,-0.611c-0.163,-0.149 -0.416,-0.138 -0.565,0.025c-0.149,0.163 -0.138,0.416 0.025,0.565Z" style="fill:#ec1f27;"/><path d="M16.616,28.811c0.48,0.442 0.92,0.613 1.306,0.637c0.594,0.038 1.089,-0.276 1.462,-0.649c0.772,-0.771 0.856,-1.917 0.085,-2.688c-0.156,-0.156 -0.41,-0.156 -0.566,-0c-0.156,0.156 -0.156,0.409 0,0.565c0.448,0.448 0.363,1.11 -0.084,1.558c-0.22,0.22 -0.496,0.438 -0.847,0.416c-0.244,-0.015 -0.51,-0.147 -0.814,-0.427c-0.162,-0.15 -0.415,-0.14 -0.565,0.022c-0.15,0.163 -0.139,0.416 0.023,0.566Z" style="fill:#ec1f27;"/><path d="M19.943,18.645l5.11,5.043c0.453,0.453 0.452,1.188 -0.001,1.641c-0.453,0.454 -1.189,0.454 -1.642,0l-5.125,-5.057c-0.157,-0.155 -0.41,-0.153 -0.565,0.004c-0.155,0.157 -0.154,0.41 0.004,0.566l5.122,5.055c0.766,0.763 2.007,0.763 2.772,-0.002c0.766,-0.765 0.766,-2.008 0,-2.774l-5.113,-5.045c-0.157,-0.155 -0.411,-0.154 -0.566,0.004c-0.155,0.157 -0.153,0.41 0.004,0.565Z" style="fill:#ec1f27;"/><path d="M19.003,13.308l7.067,7.063c0.453,0.453 0.453,1.189 -0,1.642c-0.453,0.453 -1.189,0.453 -1.642,-0c-0,-0 -3.936,-3.935 -3.936,-3.935c-0.156,-0.156 -0.409,-0.156 -0.565,-0c-0.157,0.156 -0.157,0.409 -0,0.565l3.935,3.936c0.765,0.765 2.008,0.765 2.773,-0c0.766,-0.766 0.766,-2.009 0,-2.774l-7.067,-7.063c-0.156,-0.156 -0.409,-0.156 -0.565,-0c-0.156,0.156 -0.156,0.409 -0,0.566Z" style="fill:#ec1f27;"/><path d="M8.428,19.26c-0,0 -0.39,-0.382 -0.626,-0.625c-1.068,-1.104 -1.099,-2.733 -0.001,-3.859c1.59,-1.632 3.133,-3.079 4.694,-4.694c0.154,-0.159 0.149,-0.412 -0.009,-0.566c-0.159,-0.153 -0.412,-0.149 -0.566,0.01c-1.56,1.614 -3.102,3.061 -4.692,4.692c-1.414,1.451 -1.378,3.55 -0.001,4.973c0.241,0.249 0.641,0.641 0.641,0.641c0.157,0.154 0.411,0.152 0.565,-0.006c0.155,-0.158 0.152,-0.411 -0.005,-0.566Z" style="fill:#ec1f27;"/><path d="M14.426,8.151c0.56,-0.58 1.222,-0.885 1.896,-0.889c0.676,-0.003 1.355,0.297 1.948,0.893c0.322,0.324 1.015,0.618 1.84,0.844c1.757,0.48 4.127,0.719 4.127,0.719c0.015,0.002 0.03,0.002 0.046,0.002c0.895,-0.012 1.47,0.185 1.786,0.499c0.574,0.573 0.102,1.531 -0.668,1.388c-0.217,-0.041 -0.426,0.103 -0.467,0.32c-0.04,0.217 0.103,0.426 0.32,0.466c1.319,0.246 2.229,-1.11 1.738,-2.223c-0.287,-0.649 -1.083,-1.267 -2.701,-1.25c-0.232,-0.025 -2.365,-0.254 -3.97,-0.693c-0.658,-0.18 -1.227,-0.378 -1.484,-0.636c-0.764,-0.768 -1.649,-1.133 -2.519,-1.129c-0.873,0.005 -1.741,0.381 -2.468,1.133c-0.153,0.159 -0.149,0.412 0.01,0.566c0.159,0.153 0.412,0.149 0.566,-0.01Z" style="fill:#ec1f27;"/><path d="M17.804,28.254l1.659,-1.655c0.765,-0.765 0.765,-2.008 -0,-2.774c-0.766,-0.765 -2.009,-0.765 -2.774,0l-1.658,1.655c-0.766,0.766 -0.766,2.008 -0,2.774c0.765,0.765 2.008,0.765 2.773,-0l-0,0Zm-0.565,-0.566c-0,-0 -0,-0 -0.001,0c-0.453,0.453 -1.189,0.453 -1.642,0c-0.453,-0.453 -0.453,-1.189 0,-1.642l1.659,-1.655c0.453,-0.453 1.189,-0.453 1.642,0c0.453,0.453 0.453,1.189 -0,1.642c-0,0 -1.658,1.655 -1.658,1.655Z" style="fill:#ec1f27;"/><path d="M14.676,26.966l2.579,-2.575c0.765,-0.765 0.765,-2.008 -0,-2.774c-0.766,-0.765 -2.008,-0.765 -2.774,0l-2.578,2.575c-0.766,0.766 -0.766,2.008 -0,2.774c0.765,0.765 2.008,0.765 2.773,-0l0,0Zm2.013,-3.141l-2.578,2.575c-0.454,0.453 -1.189,0.453 -1.643,0c-0.453,-0.453 -0.453,-1.189 0,-1.642l2.579,-2.575c0.453,-0.453 1.189,-0.453 1.642,0c0.453,0.453 0.453,1.189 0,1.642Z" style="fill:#ec1f27;"/><path d="M10.344,22.457l2.486,-2.491c0.765,-0.765 0.765,-2.008 -0,-2.773c-0.766,-0.766 -2.008,-0.766 -2.774,-0l-2.486,2.491c-0.765,0.765 -0.765,2.008 0.001,2.773c0.765,0.766 2.008,0.766 2.773,0Zm-0.566,-0.565c-0.453,0.453 -1.189,0.453 -1.642,-0c-0.453,-0.454 -0.453,-1.189 0,-1.643l2.486,-2.491c0.453,-0.453 1.189,-0.453 1.642,0c0.453,0.453 0.453,1.189 0,1.642l-2.486,2.492Z" style="fill:#ec1f27;"/><path d="M11.547,25.679l3.5,-3.496c0.765,-0.765 0.765,-2.008 -0,-2.773c-0.766,-0.766 -2.008,-0.766 -2.774,-0l-3.499,3.495c-0.766,0.766 -0.766,2.008 -0,2.774c0.765,0.765 2.008,0.765 2.773,-0l0,0Zm2.934,-4.062l-3.499,3.496c-0.453,0.453 -1.189,0.453 -1.642,0c-0.454,-0.453 -0.454,-1.189 -0,-1.642l3.499,-3.496c0.453,-0.453 1.189,-0.453 1.642,0c0.453,0.453 0.453,1.189 0,1.642Z" style="fill:#ec1f27;"/><path d="M26.809,20.269l-0.015,-0.027c-0.001,0.002 -0.006,0.009 -0.012,0.021c-0.01,0.018 -0.019,0.042 -0.028,0.07c-0.013,0.033 -0.02,0.076 -0.02,0.12l0,0.02c0.006,0.114 0.055,0.211 0.141,0.285c0.032,0.027 0.07,0.051 0.117,0.069l0.023,0.008l0.019,0.005l0.019,0.005l0.021,0.003l0.027,0.004l0.03,0.001c0.023,0 0.094,0.016 0.219,-0.063c0.007,-0.005 0.097,-0.07 1.118,-1.034c1.444,-1.362 1.43,-3.531 0.012,-4.986c-1.59,-1.631 -3.395,-3.357 -4.956,-4.971c-0.878,-0.908 -1.87,-1.022 -2.769,-0.925c-0.533,0.057 -1.029,0.193 -1.431,0.251c-1.251,0.18 -2.811,0.186 -4.103,-1c-0.693,-0.636 -2.048,-0.703 -2.763,0.012c-0.715,0.715 -0.799,1.902 -0.013,2.762c0.707,0.774 2.559,2.014 3.485,2.32c1.271,0.421 3.514,0.013 3.514,0.013c0.217,-0.04 0.36,-0.25 0.319,-0.467c-0.041,-0.217 -0.25,-0.36 -0.467,-0.319c0,0 -1.988,0.387 -3.115,0.014c-0.836,-0.277 -2.506,-1.402 -3.145,-2.1c-0.472,-0.516 -0.441,-1.228 -0.013,-1.657c0.429,-0.429 1.241,-0.37 1.657,0.012c1.502,1.377 3.304,1.41 4.758,1.202c0.394,-0.056 0.88,-0.191 1.402,-0.248c0.684,-0.073 1.442,-0.004 2.109,0.686c1.562,1.615 3.368,3.342 4.958,4.973c1.094,1.123 1.126,2.795 0.012,3.846c-0.849,0.801 -1.035,0.967 -1.035,0.967c-0,-0 0.251,-0.088 0.257,-0.088c0.207,0.004 0.296,0.115 0.348,0.215c0.047,0.092 0.059,0.226 0.016,0.334c-0.091,0.226 -0.371,0.251 -0.371,0.251c-0.134,-0.486 -0.253,-0.611 -0.325,-0.584Z" style="fill:#ec1f27;"/></svg>