<?xml version="1.0" encoding="UTF-8" standalone="no"?><!DOCTYPE svg PUBLIC "-//W3C//DTD SVG 1.1//EN" "http://www.w3.org/Graphics/SVG/1.1/DTD/svg11.dtd"><svg width="100%" height="100%" viewBox="0 0 36 36" version="1.1" xmlns="http://www.w3.org/2000/svg" xmlns:xlink="http://www.w3.org/1999/xlink" xml:space="preserve" xmlns:serif="http://www.serif.com/" style="fill-rule:evenodd;clip-rule:evenodd;stroke-linejoin:round;stroke-miterlimit:2;"><rect id="hand-added" x="0" y="0" width="36" height="36" style="fill:none;"/><g id="bg-white"><circle cx="18" cy="18" r="18" style="fill:#fff;"/></g><path d="M22.375,12.6l-1.25,0c-0.566,0 -1.025,0.459 -1.025,1.025l-0,0.725l-0.725,0c-0.566,0 -1.025,0.459 -1.025,1.025l-0,1.25c-0,0.566 0.459,1.025 1.025,1.025c-0,-0 0.725,-0 0.725,-0c-0,0 -0,0.725 -0,0.725c-0,0.566 0.459,1.025 1.025,1.025c-0,-0 1.25,-0 1.25,-0c0.566,-0 1.025,-0.459 1.025,-1.025l0,-0.725c0,-0 0.725,-0 0.725,-0c0.566,-0 1.025,-0.459 1.025,-1.025c0,0 0,-1.25 0,-1.25c0,-0.566 -0.459,-1.025 -1.025,-1.025l-0.725,0c-0,-0 0,-0.725 0,-0.725c0,-0.566 -0.459,-1.025 -1.025,-1.025Zm0,0.8c0.124,0 0.225,0.101 0.225,0.225c-0,-0 -0,1.125 -0,1.125c0,0.221 0.179,0.4 0.4,0.4l1.125,-0c0.124,0 0.225,0.101 0.225,0.225l-0,1.25c-0,0.124 -0.101,0.225 -0.225,0.225l-1.125,0c-0.221,0 -0.4,0.179 -0.4,0.4l-0,1.125c-0,0.124 -0.101,0.225 -0.225,0.225l-1.25,0c-0.124,0 -0.225,-0.101 -0.225,-0.225c0,0 0,-1.125 0,-1.125c0,-0.221 -0.179,-0.4 -0.4,-0.4l-1.125,0c-0.124,0 -0.225,-0.101 -0.225,-0.225c0,0 0,-1.25 0,-1.25c0,-0.124 0.101,-0.225 0.225,-0.225c0,0 1.125,-0 1.125,-0c0.221,0 0.4,-0.179 0.4,-0.4l0,-1.125c0,-0.124 0.101,-0.225 0.225,-0.225l1.25,0Z" style="fill:#ec1f27;"/><path d="M15.375,9.1l-1.25,0c-0.566,0 -1.025,0.459 -1.025,1.025l0,0.725l-0.725,0c-0.566,0 -1.025,0.459 -1.025,1.025l-0,1.25c-0,0.566 0.459,1.025 1.025,1.025c-0,-0 0.725,-0 0.725,-0c-0,0 -0,0.725 -0,0.725c-0,0.566 0.459,1.025 1.025,1.025c-0,-0 1.25,-0 1.25,-0c0.566,-0 1.025,-0.459 1.025,-1.025c0,0 0,-0.725 0,-0.725c0,-0 0.725,-0 0.725,-0c0.566,-0 1.025,-0.459 1.025,-1.025c0,0 0,-1.25 0,-1.25c0,-0.566 -0.459,-1.025 -1.025,-1.025l-0.725,0c0,-0 0,-0.725 0,-0.725c0,-0.566 -0.459,-1.025 -1.025,-1.025Zm0,0.8c0.124,0 0.225,0.101 0.225,0.225l-0,1.125c-0,0.221 0.179,0.4 0.4,0.4l1.125,-0c0.124,0 0.225,0.101 0.225,0.225l-0,1.25c-0,0.124 -0.101,0.225 -0.225,0.225l-1.125,0c-0.221,0 -0.4,0.179 -0.4,0.4l-0,1.125c-0,0.124 -0.101,0.225 -0.225,0.225l-1.25,0c-0.124,0 -0.225,-0.101 -0.225,-0.225c0,0 0,-1.125 0,-1.125c0,-0.221 -0.179,-0.4 -0.4,-0.4l-1.125,0c-0.124,0 -0.225,-0.101 -0.225,-0.225c0,0 0,-1.25 0,-1.25c0,-0.124 0.101,-0.225 0.225,-0.225c0,-0 1.125,-0 1.125,-0c0.221,0 0.4,-0.179 0.4,-0.4l0,-1.125c0,-0.124 0.101,-0.225 0.225,-0.225l1.25,0Z" style="fill:#ec1f27;"/><path d="M21.646,21.867c-0.059,-1.001 -0.891,-1.795 -1.907,-1.795l-6.478,-0c-0.835,-0 -2.635,-0.495 -3.763,-0.49c-1.048,0.005 -3.098,0.531 -3.098,0.531c-0.177,0.045 -0.3,0.205 -0.3,0.387l-0,5c0,0.122 0.055,0.236 0.15,0.312c0.095,0.076 0.219,0.105 0.338,0.078c-0,0 2.085,-0.474 2.893,-0.469c0.302,0.002 0.506,0.103 0.744,0.202c0.317,0.132 0.677,0.272 1.247,0.312l0.028,0.001l-0,-0l0.003,-0c1.61,-0.012 6.645,-0.014 9.658,-0.069c0.497,-0.009 1.39,-0.294 2.393,-0.706c2.217,-0.91 5.016,-2.412 5.016,-2.412c0.005,-0.003 0.01,-0.005 0.015,-0.008c0.844,-0.498 1.07,-1.202 0.955,-1.807c-0.174,-0.91 -1.179,-1.654 -2.318,-1.281c-0.009,0.002 -0.017,0.005 -0.024,0.008c-0,0 -3.984,1.593 -5.552,2.206Zm-10.132,3.269c1.627,-0.012 6.633,-0.014 9.633,-0.069c0.438,-0.008 1.219,-0.282 2.103,-0.646c2.119,-0.87 4.776,-2.288 4.939,-2.376c0.457,-0.273 0.628,-0.631 0.565,-0.961c-0.094,-0.495 -0.654,-0.87 -1.272,-0.675c-0.279,0.112 -4.975,1.989 -5.984,2.373l-0.028,0.011c-0.305,0.649 -0.966,1.1 -1.731,1.1l-5.478,-0c-0.221,-0 -0.4,-0.18 -0.4,-0.4c-0,-0.221 0.179,-0.4 0.4,-0.4l5.478,-0c0.613,-0 1.111,-0.498 1.111,-1.111c-0,-0.613 -0.498,-1.11 -1.111,-1.11c0,-0 -6.478,-0 -6.478,-0c-0.834,-0 -2.633,-0.495 -3.759,-0.49c-0.743,0.003 -2.023,0.291 -2.602,0.431c-0,-0 0,4.193 0,4.193c0.703,-0.145 1.982,-0.389 2.587,-0.385c0.348,0.003 0.608,0.085 0.874,0.192c0.298,0.121 0.604,0.283 1.153,0.323Z" style="fill:#ec1f27;"/></svg>