<?xml version="1.0" encoding="UTF-8" standalone="no"?><!DOCTYPE svg PUBLIC "-//W3C//DTD SVG 1.1//EN" "http://www.w3.org/Graphics/SVG/1.1/DTD/svg11.dtd"><svg width="100%" height="100%" viewBox="0 0 150 150" version="1.1" xmlns="http://www.w3.org/2000/svg" xmlns:xlink="http://www.w3.org/1999/xlink" xml:space="preserve" xmlns:serif="http://www.serif.com/" style="fill-rule:evenodd;clip-rule:evenodd;stroke-linecap:round;stroke-linejoin:round;stroke-miterlimit:1.5;"><rect id="hand-middle-finger" x="0" y="0" width="150" height="150" style="fill:none;"/><g><circle cx="75" cy="75" r="75" style="fill:#fff;"/></g><path d="M116.597,69.432c0,-4.596 -3.731,-8.327 -8.326,-8.327c-4.596,0 -8.327,3.731 -8.327,8.327l0,9.034c0,4.595 3.731,8.326 8.327,8.326c4.595,0 8.326,-3.731 8.326,-8.326l0,-9.034Z" style="fill:none;stroke:#ec1f27;stroke-width:3.13px;"/><path d="M99.993,62.493c0,-4.595 -3.731,-8.326 -8.326,-8.326c-4.596,0 -8.327,3.731 -8.327,8.326l-0.048,15.973c0,4.595 3.731,8.326 8.326,8.326c4.596,0 8.326,-3.731 8.326,-8.326l0.049,-15.973Z" style="fill:none;stroke:#ec1f27;stroke-width:3.13px;"/><path d="M66.701,62.493c0,-4.595 -3.731,-8.326 -8.326,-8.326c-4.595,0 -8.326,3.731 -8.326,8.326l-0.049,15.973c0,4.595 3.731,8.326 8.326,8.326c4.596,0 8.327,-3.731 8.327,-8.326l0.048,-15.973Z" style="fill:none;stroke:#ec1f27;stroke-width:3.13px;"/><path d="M66.639,74.914l0,-41.588c0,-4.595 3.731,-8.326 8.326,-8.326c4.596,0 8.327,3.731 8.327,8.326l0,41.675" style="fill:none;stroke:#ec1f27;stroke-width:3.13px;"/><path d="M116.597,75.001c0,0 0.156,23.931 0,33.306c-0.156,9.374 -7.057,16.529 -16.653,16.652c-12.149,0.157 -37.983,-0.202 -49.958,0c-9.88,0.167 -16.679,-6.386 -16.653,-16.652c0.019,-7.288 -0.16,-22.758 0,-29.14c0.13,-5.169 4.192,-8.416 8.334,-8.334c4.144,0.082 8.328,3.993 8.333,8.247c0.005,4.392 -0.014,16.753 -0.014,16.753" style="fill:none;stroke:#ec1f27;stroke-width:3.13px;"/></svg>