<?xml version="1.0" encoding="UTF-8" standalone="no"?><!DOCTYPE svg PUBLIC "-//W3C//DTD SVG 1.1//EN" "http://www.w3.org/Graphics/SVG/1.1/DTD/svg11.dtd"><svg width="100%" height="100%" viewBox="0 0 36 36" version="1.1" xmlns="http://www.w3.org/2000/svg" xmlns:xlink="http://www.w3.org/1999/xlink" xml:space="preserve" xmlns:serif="http://www.serif.com/" style="fill-rule:evenodd;clip-rule:evenodd;stroke-linejoin:round;stroke-miterlimit:2;"><rect id="heart" x="0" y="0" width="36" height="36" style="fill:none;"/><g id="bg-white"><circle cx="18" cy="18" r="18" style="fill:#fff;"/></g><path d="M7.512,14.082l-0,0.001c-0.111,-0 -0.217,-0.047 -0.293,-0.128c-0.076,-0.081 -0.114,-0.19 -0.106,-0.301c-0.108,1.501 0.471,3.229 1.692,5.148c1.762,2.77 4.87,5.969 9.064,9.504c0.151,0.127 0.373,0.125 0.521,-0.005c4.257,-3.734 7.229,-6.94 8.892,-9.656c1.151,-1.878 1.682,-3.537 1.612,-4.982l-0.004,0.004c0.003,-0.077 0.004,-0.154 0.004,-0.231c0,-3.491 -2.834,-6.325 -6.324,-6.325c-1.794,0 -3.415,0.749 -4.567,1.951c-1.151,-1.202 -2.772,-1.951 -4.567,-1.951c-3.49,0 -6.324,2.834 -6.324,6.325c-0,0.088 0.002,0.176 0.005,0.263c0.009,0.213 0.183,0.381 0.395,0.383Zm20.585,-0.32c0.046,1.3 -0.466,2.782 -1.497,4.465c-1.599,2.611 -4.438,5.676 -8.479,9.245c-3.984,-3.382 -6.949,-6.439 -8.641,-9.1c-1.092,-1.716 -1.651,-3.253 -1.573,-4.601c0.008,-0.034 0.011,-0.069 0.01,-0.105c-0.004,-0.076 -0.005,-0.153 -0.005,-0.23c-0,-3.049 2.475,-5.525 5.524,-5.525c1.713,0 3.245,0.782 4.259,2.007c0.076,0.092 0.189,0.145 0.308,0.145c0.119,0 0.232,-0.053 0.308,-0.145c1.014,-1.225 2.546,-2.007 4.259,-2.007c3.049,0 5.524,2.476 5.524,5.525c0,0.077 -0.001,0.154 -0.004,0.23c-0.002,0.032 0.001,0.065 0.007,0.096Zm0.452,0.264l-0.048,0.045l-0.007,0.012l0.055,-0.057Z" style="fill:#ec1f27;"/><path d="M22.527,10.624c0.955,0.103 1.673,0.424 2.178,0.951c0.51,0.533 0.8,1.267 0.925,2.163c0.03,0.218 0.232,0.371 0.451,0.341c0.219,-0.031 0.371,-0.233 0.341,-0.452c-0.151,-1.083 -0.523,-1.961 -1.14,-2.605c-0.621,-0.649 -1.494,-1.066 -2.669,-1.193c-0.22,-0.024 -0.417,0.135 -0.441,0.355c-0.023,0.219 0.136,0.417 0.355,0.44Z" style="fill:#ec1f27;"/></svg>