<?xml version="1.0" encoding="UTF-8" standalone="no"?><!DOCTYPE svg PUBLIC "-//W3C//DTD SVG 1.1//EN" "http://www.w3.org/Graphics/SVG/1.1/DTD/svg11.dtd"><svg width="100%" height="100%" viewBox="0 0 150 150" version="1.1" xmlns="http://www.w3.org/2000/svg" xmlns:xlink="http://www.w3.org/1999/xlink" xml:space="preserve" xmlns:serif="http://www.serif.com/" style="fill-rule:evenodd;clip-rule:evenodd;stroke-linecap:round;stroke-linejoin:round;stroke-miterlimit:3;"><rect id="hospital-bed" x="0" y="0" width="150" height="150" style="fill:none;"/><g><circle cx="75" cy="75" r="75" style="fill:#fff;"/></g><g id="Hospital-Bed" serif:id="Hospital Bed"><path d="M50,79.167l75,0l0,8.333l-75,0l-25,-25l4.167,-4.167l20.833,20.834Z" style="fill:none;fill-rule:nonzero;stroke:#ec1f27;stroke-width:3.13px;"/><path d="M58.333,86.526l0,-7.359l8.334,0l0,7.359l-8.334,0Z" style="fill:none;stroke:#ec1f27;stroke-width:3.13px;"/><path d="M50,87.5l0,25l8.333,0l0,-16.667l58.334,0l0,16.667l8.333,0l0,-25l-75,0Z" style="fill:none;fill-rule:nonzero;stroke:#ec1f27;stroke-width:3.13px;"/><path d="M70.833,41.667l0,-4.167l16.667,0l0,4.167" style="fill:none;fill-rule:nonzero;stroke:#ec1f27;stroke-width:3.13px;"/><path d="M79.167,33.333l0,45.834" style="fill:none;fill-rule:nonzero;stroke:#ec1f27;stroke-width:3.13px;"/><path d="M79.167,95.833l0,12.5" style="fill:none;fill-rule:nonzero;stroke:#ec1f27;stroke-width:3.13px;"/><path d="M70.833,108.333l16.667,0" style="fill:none;fill-rule:nonzero;stroke:#ec1f27;stroke-width:3.13px;"/><path d="M70.833,110.417c0,1.149 0.934,2.083 2.084,2.083c1.149,0 2.083,-0.934 2.083,-2.083c0,-1.15 -0.934,-2.084 -2.083,-2.084c-1.15,0 -2.084,0.934 -2.084,2.084Z" style="fill:none;stroke:#ec1f27;stroke-width:3.13px;"/><path d="M83.333,110.576c0,1.238 1.005,2.243 2.243,2.243c1.238,0 2.243,-1.005 2.243,-2.243c0,-1.238 -1.005,-2.243 -2.243,-2.243c-1.238,0 -2.243,1.005 -2.243,2.243Z" style="fill:none;stroke:#ec1f27;stroke-width:3.13px;"/></g><path d="M53.127,76.042c1.724,-1.724 1.724,-4.524 0,-6.248l-12.503,-12.503c-1.724,-1.724 -4.524,-1.724 -6.248,0c-1.725,1.724 -1.725,4.524 0,6.249l12.502,12.502c1.724,1.725 4.524,1.725 6.249,0Z" style="fill:none;stroke:#ec1f27;stroke-width:3.13px;stroke-miterlimit:1.5;"/></svg>