<?xml version="1.0" encoding="UTF-8" standalone="no"?><!DOCTYPE svg PUBLIC "-//W3C//DTD SVG 1.1//EN" "http://www.w3.org/Graphics/SVG/1.1/DTD/svg11.dtd"><svg width="100%" height="100%" viewBox="0 0 36 36" version="1.1" xmlns="http://www.w3.org/2000/svg" xmlns:xlink="http://www.w3.org/1999/xlink" xml:space="preserve" xmlns:serif="http://www.serif.com/" style="fill-rule:evenodd;clip-rule:evenodd;stroke-linejoin:round;stroke-miterlimit:2;"><rect id="hospital-bed" x="0" y="0" width="36" height="36" style="fill:none;"/><g><circle cx="18" cy="18" r="18" style="fill:#fff;"/></g><path d="M18.625,8l0,11c0,0.207 0.168,0.375 0.375,0.375c0.207,-0 0.375,-0.168 0.375,-0.375l-0,-11c0,-0.207 -0.168,-0.375 -0.375,-0.375c-0.207,-0 -0.375,0.168 -0.375,0.375Z" style="fill:#ec1f27;"/><path d="M18.625,23l-0,3c0,0.207 0.168,0.375 0.375,0.375c0.207,-0 0.375,-0.168 0.375,-0.375l-0,-3c0,-0.207 -0.168,-0.375 -0.375,-0.375c-0.207,-0 -0.375,0.168 -0.375,0.375Z" style="fill:#ec1f27;"/><path d="M12.155,18.625l-4.89,-4.89c-0.146,-0.147 -0.384,-0.147 -0.53,-0l-1,1c-0.147,0.146 -0.147,0.384 -0,0.53l6,6c0.07,0.07 0.166,0.11 0.265,0.11l18,-0c0.207,-0 0.375,-0.168 0.375,-0.375l-0,-2c0,-0.207 -0.168,-0.375 -0.375,-0.375l-17.845,-0Zm-0.42,0.64c0.07,0.07 0.166,0.11 0.265,0.11l17.625,-0c-0,-0 -0,1.25 -0,1.25c0,-0 -17.47,-0 -17.47,-0c0,-0 -5.625,-5.625 -5.625,-5.625c0,-0 0.47,-0.47 0.47,-0.47c-0,0 4.735,4.735 4.735,4.735Z" style="fill:#ec1f27;"/><path d="M13.625,20.766c0,0.207 0.168,0.375 0.375,0.375l2,0c0.207,0 0.375,-0.168 0.375,-0.375l0,-1.766c0,-0.207 -0.168,-0.375 -0.375,-0.375l-2,-0c-0.207,0 -0.375,0.168 -0.375,0.375l-0,1.766Zm0.75,-0.375l0,-1.016c-0,-0 1.25,-0 1.25,-0c0,0 0,1.016 0,1.016l-1.25,0Z" style="fill:#ec1f27;"/><path d="M12,20.625c-0.207,-0 -0.375,0.168 -0.375,0.375l-0,6c0,0.207 0.168,0.375 0.375,0.375l2,-0c0.207,-0 0.375,-0.168 0.375,-0.375l-0,-3.625c0,-0 13.25,-0 13.25,-0c-0,-0 -0,3.625 -0,3.625c0,0.207 0.168,0.375 0.375,0.375l2,0c0.207,0 0.375,-0.168 0.375,-0.375l-0,-6c0,-0.207 -0.168,-0.375 -0.375,-0.375l-18,-0Zm0.375,0.75l17.25,0c-0,-0 -0,5.25 -0,5.25c0,-0 -1.25,-0 -1.25,-0c-0,0 -0,-3.625 -0,-3.625c0,-0.207 -0.168,-0.375 -0.375,-0.375l-14,0c-0.207,0 -0.375,0.168 -0.375,0.375l-0,3.625c0,-0 -1.25,0 -1.25,0l-0,-5.25Z" style="fill:#ec1f27;"/><path d="M17.375,10l-0,-0.625c-0,-0 3.25,-0 3.25,-0c-0,0 -0,0.625 -0,0.625c-0,0.207 0.168,0.375 0.375,0.375c0.207,0 0.375,-0.168 0.375,-0.375l-0,-1c-0,-0.207 -0.168,-0.375 -0.375,-0.375l-4,-0c-0.207,0 -0.375,0.168 -0.375,0.375l-0,1c-0,0.207 0.168,0.375 0.375,0.375c0.207,0 0.375,-0.168 0.375,-0.375Z" style="fill:#ec1f27;"/><path d="M17,26.375l4,-0c0.207,-0 0.375,-0.168 0.375,-0.375c-0,-0.207 -0.168,-0.375 -0.375,-0.375l-4,-0c-0.207,-0 -0.375,0.168 -0.375,0.375c-0,0.207 0.168,0.375 0.375,0.375Z" style="fill:#ec1f27;"/><path d="M16.625,26.5c0,0.483 0.392,0.875 0.875,0.875c0.483,0 0.875,-0.392 0.875,-0.875c0,-0.483 -0.392,-0.875 -0.875,-0.875c-0.483,0 -0.875,0.392 -0.875,0.875Zm0.75,0c-0,-0.069 0.056,-0.125 0.125,-0.125c0.069,0 0.125,0.056 0.125,0.125c0,0.069 -0.056,0.125 -0.125,0.125c-0.069,0 -0.125,-0.056 -0.125,-0.125Z" style="fill:#ec1f27;"/><path d="M19.625,26.538c0,0.504 0.409,0.914 0.913,0.914c0.504,-0 0.914,-0.41 0.914,-0.914c-0,-0.504 -0.41,-0.913 -0.914,-0.913c-0.504,0 -0.913,0.409 -0.913,0.913Zm0.75,0c0,-0.09 0.073,-0.163 0.163,-0.163c0.09,0 0.164,0.073 0.164,0.163c-0,0.09 -0.074,0.164 -0.164,0.164c-0.09,-0 -0.163,-0.074 -0.163,-0.164Z" style="fill:#ec1f27;"/><path d="M13.016,18.515c0.56,-0.56 0.56,-1.47 -0,-2.03c-0,0 -3.001,-3 -3.001,-3c-0.56,-0.561 -1.47,-0.561 -2.03,-0c-0.56,0.56 -0.56,1.47 -0,2.03c-0,-0 3.001,3 3.001,3c0.56,0.561 1.469,0.561 2.03,0Zm-0.531,-0.53c-0.267,0.267 -0.702,0.267 -0.969,-0c-0,-0 -3.001,-3.001 -3.001,-3.001c-0.267,-0.267 -0.267,-0.701 0,-0.969c0.268,-0.267 0.702,-0.267 0.97,0c-0,0 3,3.001 3,3.001c0.268,0.267 0.268,0.701 0,0.969Z" style="fill:#ec1f27;"/></svg>