<?xml version="1.0" encoding="UTF-8" standalone="no"?><!DOCTYPE svg PUBLIC "-//W3C//DTD SVG 1.1//EN" "http://www.w3.org/Graphics/SVG/1.1/DTD/svg11.dtd"><svg width="100%" height="100%" viewBox="0 0 150 150" version="1.1" xmlns="http://www.w3.org/2000/svg" xmlns:xlink="http://www.w3.org/1999/xlink" xml:space="preserve" xmlns:serif="http://www.serif.com/" style="fill-rule:evenodd;clip-rule:evenodd;stroke-linecap:round;stroke-linejoin:round;stroke-miterlimit:1.5;"><rect id="housing-tower" x="0" y="0" width="150" height="150" style="fill:none;"/><g id="bg-white"><circle cx="75" cy="75" r="75" style="fill:#fff;"/></g><rect x="37.5" y="87.5" width="16.667" height="37.5" style="fill:none;stroke:#ec1f27;stroke-width:3.33px;"/><rect x="54.167" y="70.833" width="33.333" height="54.167" style="fill:none;stroke:#ec1f27;stroke-width:3.33px;"/><path d="M45.833,87.5l0,-54.167l37.5,0l0,16.667" style="fill:none;stroke:#ec1f27;stroke-width:3.33px;"/><path d="M50,33.333l0,-8.333l29.167,0l0,8.333" style="fill:none;stroke:#ec1f27;stroke-width:3.33px;"/><path d="M62.5,62.5l8.333,-4.167l8.334,4.167l0,8.333l-16.667,0l0,-8.333" style="fill:none;stroke:#ec1f27;stroke-width:3.33px;"/><path d="M79.167,62.5l-4.167,-2.083l0,-10.417l37.5,8.333l0,66.667l-25,0l0,-54.167l-8.333,0l0,-8.333Z" style="fill:none;stroke:#ec1f27;stroke-width:3.33px;"/><path d="M100,62.5l0,54.167" style="fill:none;stroke:#ec1f27;stroke-width:3.33px;"/><path d="M79.167,83.333l-16.667,0" style="fill:none;stroke:#ec1f27;stroke-width:3.33px;"/><path d="M58.333,41.667l-4.166,0" style="fill:none;stroke:#ec1f27;stroke-width:3.33px;"/><path d="M54.167,95.833l-8.334,0" style="fill:none;stroke:#ec1f27;stroke-width:3.33px;"/><path d="M70.833,41.667l4.167,0" style="fill:none;stroke:#ec1f27;stroke-width:3.33px;"/><path d="M79.167,95.833l-16.667,0" style="fill:none;stroke:#ec1f27;stroke-width:3.33px;"/><path d="M58.333,58.333l-4.166,0" style="fill:none;stroke:#ec1f27;stroke-width:3.33px;"/><path d="M54.167,112.5l-8.334,0" style="fill:none;stroke:#ec1f27;stroke-width:3.33px;"/><path d="M70.833,58.333l4.167,0" style="fill:none;stroke:#ec1f27;stroke-width:3.33px;"/><path d="M79.167,108.333l-16.667,0" style="fill:none;stroke:#ec1f27;stroke-width:3.33px;"/><path d="M58.333,50l-4.166,0" style="fill:none;stroke:#ec1f27;stroke-width:3.33px;"/><path d="M54.167,104.167l-8.334,0" style="fill:none;stroke:#ec1f27;stroke-width:3.33px;"/><path d="M70.833,50l4.167,0" style="fill:none;stroke:#ec1f27;stroke-width:3.33px;"/><path d="M87.5,62.5l0,8.333" style="fill:none;stroke:#ec1f27;stroke-width:3.33px;"/></svg>