<?xml version="1.0" encoding="UTF-8" standalone="no"?><!DOCTYPE svg PUBLIC "-//W3C//DTD SVG 1.1//EN" "http://www.w3.org/Graphics/SVG/1.1/DTD/svg11.dtd"><svg width="100%" height="100%" viewBox="0 0 36 36" version="1.1" xmlns="http://www.w3.org/2000/svg" xmlns:xlink="http://www.w3.org/1999/xlink" xml:space="preserve" xmlns:serif="http://www.serif.com/" style="fill-rule:evenodd;clip-rule:evenodd;stroke-linejoin:round;stroke-miterlimit:2;"><rect id="housing-tower" x="0" y="0" width="36" height="36" style="fill:none;"/><g id="bg-white"><circle cx="18" cy="18" r="18" style="fill:#fff;"/></g><path d="M13.4,21c-0,-0.221 -0.179,-0.4 -0.4,-0.4l-4,0c-0.221,0 -0.4,0.179 -0.4,0.4l0,9c0,0.221 0.179,0.4 0.4,0.4l4,-0c0.221,0 0.4,-0.179 0.4,-0.4l-0,-9Zm-0.8,0.4l-0,8.2c0,0 -3.2,0 -3.2,0c0,0 0,-8.2 0,-8.2l3.2,-0Z" style="fill:#ec1f27;"/><path d="M12.4,8l-0,-1.6c-0,-0 6.2,-0 6.2,-0c-0,-0 -0,1.6 -0,1.6c0,0.221 0.179,0.4 0.4,0.4c0.221,-0 0.4,-0.179 0.4,-0.4l0,-2c0,-0.221 -0.179,-0.4 -0.4,-0.4l-7,0c-0.221,0 -0.4,0.179 -0.4,0.4l0,2c-0,0.221 0.179,0.4 0.4,0.4c0.221,0 0.4,-0.179 0.4,-0.4Z" style="fill:#ec1f27;"/><path d="M21.4,17c0,-0.221 -0.179,-0.4 -0.4,-0.4l-8,0c-0.221,0 -0.4,0.179 -0.4,0.4l-0,13c-0,0.221 0.179,0.4 0.4,0.4l8,-0c0.221,0 0.4,-0.179 0.4,-0.4l0,-13Zm-0.8,0.4l-0,12.2c-0,0 -7.2,0 -7.2,0c0,-0 -0,-12.2 -0,-12.2l7.2,0Z" style="fill:#ec1f27;"/><path d="M11.4,21l-0,-12.6c-0,-0 8.2,-0 8.2,-0c-0,-0 -0,3.6 -0,3.6c-0,0.221 0.179,0.4 0.4,0.4c0.221,0 0.4,-0.179 0.4,-0.4l0,-4c0,-0.221 -0.179,-0.4 -0.4,-0.4l-9,0c-0.221,0 -0.4,0.179 -0.4,0.4l0,13c0,0.221 0.179,0.4 0.4,0.4c0.221,-0 0.4,-0.179 0.4,-0.4Z" style="fill:#ec1f27;"/><path d="M14.821,14.642l-0.012,0.006l-0.016,0.01l-0.008,0.004l-0.016,0.012l-0.009,0.006c-0.031,0.023 -0.058,0.05 -0.08,0.08l-0.008,0.011l-0.01,0.016l-0.008,0.012l-0.006,0.01l-0.006,0.012c-0.016,0.034 -0.029,0.07 -0.035,0.108l-0.002,0.01l-0.003,0.02l-0.001,0.02l-0.001,0.008l0,0.013l0,2c0,0.221 0.179,0.4 0.4,0.4l4,-0c0.221,-0 0.4,-0.179 0.4,-0.4l0,-2c0,-0.152 -0.086,-0.29 -0.221,-0.358l-2,-1c-0.113,-0.056 -0.245,-0.056 -0.358,0l-2,1Zm0.579,0.605l-0,1.353c-0,0 3.2,0 3.2,-0c-0,-0 -0,-1.353 0,-1.353c0,0 -1.6,-0.8 -1.6,-0.8l-1.6,0.8Z" style="fill:#ec1f27;"/><path d="M18.6,15.247l-0,1.753c-0,0.221 0.179,0.4 0.4,0.4l1.6,-0c-0,0 -0,12.6 -0,12.6c0,0.221 0.179,0.4 0.4,0.4l6,-0c0.221,0 0.4,-0.179 0.4,-0.4l0,-16c0,-0.187 -0.13,-0.35 -0.313,-0.39l-9,-2c-0.119,-0.027 -0.243,0.002 -0.337,0.078c-0.095,0.076 -0.15,0.191 -0.15,0.312l-0,2.5c0,0.152 0.086,0.29 0.221,0.358l0.779,0.389Zm0.8,-0.247c0,-0.152 -0.086,-0.29 -0.221,-0.358l-0.779,-0.389c0,-0 -0,-1.754 -0,-1.754c-0,-0 8.2,1.822 8.2,1.822c-0,-0 -0,15.279 -0,15.279c-0,-0 -5.2,0 -5.2,0c0,-0 0,-12.6 0,-12.6c0,-0.221 -0.179,-0.4 -0.4,-0.4l-1.6,0c0,0 0,-1.6 0,-1.6Z" style="fill:#ec1f27;"/><path d="M23.6,15l-0,13c0,0.221 0.179,0.4 0.4,0.4c0.221,-0 0.4,-0.179 0.4,-0.4l0,-13c0,-0.221 -0.179,-0.4 -0.4,-0.4c-0.221,-0 -0.4,0.179 -0.4,0.4Z" style="fill:#ec1f27;"/><path d="M19,19.6l-4,0c-0.221,0 -0.4,0.179 -0.4,0.4c0,0.221 0.179,0.4 0.4,0.4l4,-0c0.221,0 0.4,-0.179 0.4,-0.4c0,-0.221 -0.179,-0.4 -0.4,-0.4Z" style="fill:#ec1f27;"/><path d="M14,9.6l-1,-0c-0.221,0 -0.4,0.179 -0.4,0.4c0,0.221 0.179,0.4 0.4,0.4l1,-0c0.221,0 0.4,-0.179 0.4,-0.4c0,-0.221 -0.179,-0.4 -0.4,-0.4Z" style="fill:#ec1f27;"/><path d="M13,22.6l-2,0c-0.221,-0 -0.4,0.179 -0.4,0.4c-0,0.221 0.179,0.4 0.4,0.4l2,-0c0.221,-0 0.4,-0.179 0.4,-0.4c-0,-0.221 -0.179,-0.4 -0.4,-0.4Z" style="fill:#ec1f27;"/><path d="M17,10.4l1,-0c0.221,0 0.4,-0.179 0.4,-0.4c0,-0.221 -0.179,-0.4 -0.4,-0.4l-1,0c-0.221,0 -0.4,0.179 -0.4,0.4c0,0.221 0.179,0.4 0.4,0.4Z" style="fill:#ec1f27;"/><path d="M19,22.6l-4,0c-0.221,-0 -0.4,0.179 -0.4,0.4c-0,0.221 0.179,0.4 0.4,0.4l4,-0c0.221,-0 0.4,-0.179 0.4,-0.4c-0,-0.221 -0.179,-0.4 -0.4,-0.4Z" style="fill:#ec1f27;"/><path d="M14,13.6l-1,-0c-0.221,0 -0.4,0.179 -0.4,0.4c0,0.221 0.179,0.4 0.4,0.4l1,-0c0.221,0 0.4,-0.179 0.4,-0.4c0,-0.221 -0.179,-0.4 -0.4,-0.4Z" style="fill:#ec1f27;"/><path d="M13,26.6l-2,0c-0.221,0 -0.4,0.179 -0.4,0.4c0,0.221 0.179,0.4 0.4,0.4l2,-0c0.221,0 0.4,-0.179 0.4,-0.4c0,-0.221 -0.179,-0.4 -0.4,-0.4Z" style="fill:#ec1f27;"/><path d="M19,25.6l-4,0c-0.221,-0 -0.4,0.179 -0.4,0.4c-0,0.221 0.179,0.4 0.4,0.4l4,-0c0.221,-0 0.4,-0.179 0.4,-0.4c-0,-0.221 -0.179,-0.4 -0.4,-0.4Z" style="fill:#ec1f27;"/><path d="M14,11.6l-1,-0c-0.221,0 -0.4,0.179 -0.4,0.4c0,0.221 0.179,0.4 0.4,0.4l1,-0c0.221,0 0.4,-0.179 0.4,-0.4c0,-0.221 -0.179,-0.4 -0.4,-0.4Z" style="fill:#ec1f27;"/><path d="M13,24.6l-2,0c-0.221,-0 -0.4,0.179 -0.4,0.4c-0,0.221 0.179,0.4 0.4,0.4l2,-0c0.221,-0 0.4,-0.179 0.4,-0.4c-0,-0.221 -0.179,-0.4 -0.4,-0.4Z" style="fill:#ec1f27;"/><path d="M17,12.4l1,-0c0.221,0 0.4,-0.179 0.4,-0.4c0,-0.221 -0.179,-0.4 -0.4,-0.4l-1,0c-0.221,0 -0.4,0.179 -0.4,0.4c0,0.221 0.179,0.4 0.4,0.4Z" style="fill:#ec1f27;"/><path d="M20.6,15l-0,2c0,0.221 0.179,0.4 0.4,0.4c0.221,-0 0.4,-0.179 0.4,-0.4l0,-2c0,-0.221 -0.179,-0.4 -0.4,-0.4c-0.221,-0 -0.4,0.179 -0.4,0.4Z" style="fill:#ec1f27;"/></svg>