<?xml version="1.0" encoding="UTF-8" standalone="no"?><!DOCTYPE svg PUBLIC "-//W3C//DTD SVG 1.1//EN" "http://www.w3.org/Graphics/SVG/1.1/DTD/svg11.dtd"><svg width="100%" height="100%" viewBox="0 0 150 150" version="1.1" xmlns="http://www.w3.org/2000/svg" xmlns:xlink="http://www.w3.org/1999/xlink" xml:space="preserve" xmlns:serif="http://www.serif.com/" style="fill-rule:evenodd;clip-rule:evenodd;stroke-linecap:round;stroke-linejoin:round;stroke-miterlimit:1.5;"><rect id="housing-apartment" x="0" y="0" width="150" height="150" style="fill:none;"/><g id="bg-white"><circle cx="75" cy="75" r="75" style="fill:#fff;"/></g><rect x="25" y="33.333" width="58.333" height="83.333" style="fill:none;stroke:#ec1f27;stroke-width:3.33px;"/><rect x="35.417" y="41.667" width="8.333" height="8.333" style="fill:none;stroke:#ec1f27;stroke-width:3.33px;"/><rect x="35.417" y="58.333" width="8.333" height="8.333" style="fill:none;stroke:#ec1f27;stroke-width:3.33px;"/><rect x="35.417" y="75" width="8.333" height="8.333" style="fill:none;stroke:#ec1f27;stroke-width:3.33px;"/><rect x="35.417" y="91.667" width="8.333" height="8.333" style="fill:none;stroke:#ec1f27;stroke-width:3.33px;"/><rect x="50" y="104.167" width="8.333" height="12.5" style="fill:none;stroke:#ec1f27;stroke-width:3.33px;"/><rect x="64.583" y="41.667" width="8.333" height="8.333" style="fill:none;stroke:#ec1f27;stroke-width:3.33px;"/><rect x="64.583" y="58.333" width="8.333" height="8.333" style="fill:none;stroke:#ec1f27;stroke-width:3.33px;"/><rect x="95.833" y="58.333" width="8.333" height="8.333" style="fill:none;stroke:#ec1f27;stroke-width:3.33px;"/><rect x="95.833" y="75" width="8.333" height="8.333" style="fill:none;stroke:#ec1f27;stroke-width:3.33px;"/><rect x="64.583" y="75" width="8.333" height="8.333" style="fill:none;stroke:#ec1f27;stroke-width:3.33px;"/><rect x="64.583" y="91.667" width="8.333" height="8.333" style="fill:none;stroke:#ec1f27;stroke-width:3.33px;"/><rect x="95.833" y="91.667" width="8.333" height="8.333" style="fill:none;stroke:#ec1f27;stroke-width:3.33px;"/><path d="M83.333,50l33.334,0l0,29.167" style="fill:none;stroke:#ec1f27;stroke-width:3.33px;"/><path d="M83.333,116.667l33.334,0l0,-8.334" style="fill:none;stroke:#ec1f27;stroke-width:3.33px;"/><path d="M108.333,108.333l16.667,0l-4.167,-8.333l4.167,0l-8.333,-20.833l-8.334,20.833l4.167,0l-4.167,8.333" style="fill:none;stroke:#ec1f27;stroke-width:3.33px;"/></svg>