<?xml version="1.0" encoding="UTF-8" standalone="no"?><!DOCTYPE svg PUBLIC "-//W3C//DTD SVG 1.1//EN" "http://www.w3.org/Graphics/SVG/1.1/DTD/svg11.dtd"><svg width="100%" height="100%" viewBox="0 0 150 150" version="1.1" xmlns="http://www.w3.org/2000/svg" xmlns:xlink="http://www.w3.org/1999/xlink" xml:space="preserve" xmlns:serif="http://www.serif.com/" style="fill-rule:evenodd;clip-rule:evenodd;stroke-linecap:round;stroke-linejoin:round;stroke-miterlimit:1.5;"><rect id="housing-single-family" x="0" y="0" width="150" height="150" style="fill:none;"/><g id="bg-white"><circle cx="75" cy="75" r="75" style="fill:#fff;"/></g><path d="M29.167,62.5l29.166,-13.264l29.167,13.264" style="fill:none;stroke:#ec1f27;stroke-width:3.33px;"/><path d="M33.333,62.5l0,29.167l8.334,0l0,-29.167" style="fill:none;stroke:#ec1f27;stroke-width:3.33px;"/><path d="M83.333,62.5l0,29.167l-8.333,0l0,-29.167" style="fill:none;stroke:#ec1f27;stroke-width:3.33px;"/><path d="M33.333,62.5l83.334,0" style="fill:none;stroke:#ec1f27;stroke-width:3.33px;"/><path d="M83.333,91.667l8.334,0l0,16.666l-8.334,0l0,-16.666" style="fill:none;stroke:#ec1f27;stroke-width:3.33px;"/><path d="M108.333,91.667l8.334,0l0,16.666l-8.334,0l0,-16.666" style="fill:none;stroke:#ec1f27;stroke-width:3.33px;"/><rect x="91.667" y="91.667" width="16.667" height="8.333" style="fill:none;stroke:#ec1f27;stroke-width:3.33px;"/><rect x="91.667" y="100" width="16.667" height="8.333" style="fill:none;stroke:#ec1f27;stroke-width:3.33px;"/><rect x="33.333" y="91.667" width="50" height="16.667" style="fill:none;stroke:#ec1f27;stroke-width:3.33px;"/><rect x="100" y="70.833" width="8.333" height="8.333" style="fill:none;stroke:#ec1f27;stroke-width:3.33px;"/><rect x="83.333" y="70.833" width="8.333" height="8.333" style="fill:none;stroke:#ec1f27;stroke-width:3.33px;"/><rect x="50" y="70.833" width="16.667" height="20.833" style="fill:none;stroke:#ec1f27;stroke-width:3.33px;"/><path d="M58.333,70.833l0,20.834" style="fill:none;stroke:#ec1f27;stroke-width:3.33px;"/><path d="M29.167,62.5l45.833,-20.833l45.833,20.833" style="fill:none;stroke:#ec1f27;stroke-width:3.33px;"/><path d="M116.667,62.5l0,29.167" style="fill:none;stroke:#ec1f27;stroke-width:3.33px;"/></svg>