<?xml version="1.0" encoding="UTF-8" standalone="no"?><!DOCTYPE svg PUBLIC "-//W3C//DTD SVG 1.1//EN" "http://www.w3.org/Graphics/SVG/1.1/DTD/svg11.dtd"><svg width="100%" height="100%" viewBox="0 0 36 36" version="1.1" xmlns="http://www.w3.org/2000/svg" xmlns:xlink="http://www.w3.org/1999/xlink" xml:space="preserve" xmlns:serif="http://www.serif.com/" style="fill-rule:evenodd;clip-rule:evenodd;stroke-linejoin:round;stroke-miterlimit:2;"><rect id="housing-single-family" x="0" y="0" width="36" height="36" style="fill:none;"/><g id="bg-white"><circle cx="18" cy="18" r="18" style="fill:#fff;"/></g><path d="M7.166,15.364l6.834,-3.108c-0,0 6.834,3.108 6.834,3.108c0.201,0.092 0.439,0.003 0.53,-0.198c0.092,-0.201 0.003,-0.439 -0.198,-0.53l-7,-3.183c-0.106,-0.048 -0.226,-0.048 -0.332,-0l-7,3.183c-0.201,0.091 -0.29,0.329 -0.198,0.53c0.091,0.201 0.329,0.29 0.53,0.198Z" style="fill:#ec1f27;"/><path d="M7.6,15l-0,7c0,0.221 0.179,0.4 0.4,0.4l2,-0c0.221,-0 0.4,-0.179 0.4,-0.4l-0,-7c0,-0.221 -0.179,-0.4 -0.4,-0.4c-0.221,-0 -0.4,0.179 -0.4,0.4l-0,6.6c0,-0 -1.2,0 -1.2,0c0,0 0,-6.6 0,-6.6c0,-0.221 -0.179,-0.4 -0.4,-0.4c-0.221,-0 -0.4,0.179 -0.4,0.4Z" style="fill:#ec1f27;"/><path d="M22.4,17c-0,-0.221 -0.179,-0.4 -0.4,-0.4l-2,0c-0.221,0 -0.4,0.179 -0.4,0.4l-0,2c0,0.221 0.179,0.4 0.4,0.4l2,-0c0.221,-0 0.4,-0.179 0.4,-0.4l-0,-2Zm-0.8,0.4l-0,1.2c0,0 -1.2,0 -1.2,0c-0,0 -0,-1.2 -0,-1.2l1.2,-0Z" style="fill:#ec1f27;"/><path d="M13.6,17l-0,5c0,0.221 0.179,0.4 0.4,0.4c0.221,-0 0.4,-0.179 0.4,-0.4l-0,-5c0,-0.221 -0.179,-0.4 -0.4,-0.4c-0.221,-0 -0.4,0.179 -0.4,0.4Z" style="fill:#ec1f27;"/><path d="M19.6,15l-0,6.6c0,-0 -1.2,0 -1.2,0c-0,0 -0,-6.6 -0,-6.6c-0,-0.221 -0.179,-0.4 -0.4,-0.4c-0.221,0 -0.4,0.179 -0.4,0.4l-0,7c0,0.221 0.179,0.4 0.4,0.4l2,-0c0.221,-0 0.4,-0.179 0.4,-0.4l0,-7c0,-0.221 -0.179,-0.4 -0.4,-0.4c-0.221,-0 -0.4,0.179 -0.4,0.4Z" style="fill:#ec1f27;"/><path d="M8,15.4l20,-0c0.221,-0 0.4,-0.179 0.4,-0.4c-0,-0.221 -0.179,-0.4 -0.4,-0.4l-20,0c-0.221,-0 -0.4,0.179 -0.4,0.4c-0,0.221 0.179,0.4 0.4,0.4Z" style="fill:#ec1f27;"/><path d="M19.999,21.6c-0.158,0.001 -0.295,0.093 -0.36,0.227l-0.008,0.017l-0.007,0.019l-0.006,0.018l-0.005,0.019l-0.005,0.019l-0.003,0.02l-0.003,0.02l-0.001,0.02l-0.001,0.021l-0,4c0,0.221 0.179,0.4 0.4,0.4l2,0c0.221,0 0.4,-0.179 0.4,-0.4l0,-4c0,-0.221 -0.179,-0.4 -0.4,-0.4l-2,-0l-0.001,0Zm0.401,0.8l-0,3.2c-0,0 1.2,-0 1.2,0c0,0 0,-3.2 0,-3.2l-1.2,-0Z" style="fill:#ec1f27;"/><path d="M25.998,21.6c-0.151,0.001 -0.282,0.085 -0.35,0.209l-0.009,0.018l-0.008,0.017l-0.007,0.019l-0.006,0.018l-0.005,0.019l-0.005,0.019l-0.003,0.02l-0.003,0.02l-0.001,0.02l-0.001,0.021l-0,4c-0,0.221 0.179,0.4 0.4,0.4l2,-0c0.221,0 0.4,-0.179 0.4,-0.4l-0,-4c0,-0.221 -0.179,-0.4 -0.4,-0.4l-2,-0l-0.002,0Zm0.402,0.8l-0,3.2c-0,-0 1.2,-0 1.2,0c-0,0 -0,-3.2 0,-3.2l-1.2,-0Z" style="fill:#ec1f27;"/><path d="M26.4,22c0,-0.221 -0.179,-0.4 -0.4,-0.4l-4,0c-0.221,0 -0.4,0.179 -0.4,0.4l-0,2c-0,0.221 0.179,0.4 0.4,0.4l4,-0c0.221,-0 0.4,-0.179 0.4,-0.4l0,-2Zm-0.8,0.4l-0,1.2c0,0 -3.2,0 -3.2,0c-0,0 -0,-1.2 -0,-1.2l3.2,-0Z" style="fill:#ec1f27;"/><path d="M26.4,24c0,-0.221 -0.179,-0.4 -0.4,-0.4l-4,0c-0.221,0 -0.4,0.179 -0.4,0.4l-0,2c-0,0.221 0.179,0.4 0.4,0.4l4,-0c0.221,0 0.4,-0.179 0.4,-0.4l0,-2Zm-0.8,0.4l0,1.2c0,0 -3.2,0 -3.2,0c-0,0 0,-1.2 0,-1.2l3.2,-0Z" style="fill:#ec1f27;"/><path d="M8,21.6c-0.221,-0 -0.4,0.179 -0.4,0.4l-0,4c0,0.221 0.179,0.4 0.4,0.4l12,-0c0.221,0 0.4,-0.179 0.4,-0.4l0,-4c0,-0.221 -0.179,-0.4 -0.4,-0.4l-12,-0Zm0.4,0.8l11.2,-0c-0,-0 -0,3.2 -0,3.2c0,0 -11.2,-0 -11.2,-0l-0,-3.2Z" style="fill:#ec1f27;"/><path d="M26.4,17c-0,-0.221 -0.179,-0.4 -0.4,-0.4l-2,0c-0.221,0 -0.4,0.179 -0.4,0.4l-0,2c0,0.221 0.179,0.4 0.4,0.4l2,-0c0.221,-0 0.4,-0.179 0.4,-0.4l-0,-2Zm-0.8,0.4l-0,1.2c0,0 -1.2,0 -1.2,0c-0,0 -0,-1.2 -0,-1.2l1.2,-0Z" style="fill:#ec1f27;"/><path d="M16.4,17c-0,-0.221 -0.179,-0.4 -0.4,-0.4l-4,-0c-0.221,-0 -0.4,0.179 -0.4,0.4l-0,5c-0,0.221 0.179,0.4 0.4,0.4l4,-0c0.221,-0 0.4,-0.179 0.4,-0.4l-0,-5Zm-0.8,0.4l-0,4.2c0,0 -3.2,0 -3.2,0c-0,-0 -0,-4.2 -0,-4.2l3.2,0Z" style="fill:#ec1f27;"/><path d="M7.166,15.364l10.834,-4.925c-0,0 10.834,4.925 10.834,4.925c0.201,0.092 0.439,0.002 0.53,-0.198c0.092,-0.201 0.002,-0.439 -0.198,-0.53l-11,-5c-0.106,-0.048 -0.226,-0.048 -0.332,-0l-11,5c-0.2,0.091 -0.29,0.329 -0.198,0.53c0.091,0.2 0.329,0.29 0.53,0.198Z" style="fill:#ec1f27;"/><path d="M27.6,15l-0,7c-0,0.221 0.179,0.4 0.4,0.4c0.221,0 0.4,-0.179 0.4,-0.4l0,-7c-0,-0.221 -0.179,-0.4 -0.4,-0.4c-0.221,0 -0.4,0.179 -0.4,0.4Z" style="fill:#ec1f27;"/></svg>