<?xml version="1.0" encoding="UTF-8" standalone="no"?><!DOCTYPE svg PUBLIC "-//W3C//DTD SVG 1.1//EN" "http://www.w3.org/Graphics/SVG/1.1/DTD/svg11.dtd"><svg width="100%" height="100%" viewBox="0 0 150 150" version="1.1" xmlns="http://www.w3.org/2000/svg" xmlns:xlink="http://www.w3.org/1999/xlink" xml:space="preserve" xmlns:serif="http://www.serif.com/" style="fill-rule:evenodd;clip-rule:evenodd;stroke-linecap:round;stroke-linejoin:round;stroke-miterlimit:1.5;"><rect id="jailbars" x="0" y="0" width="150" height="150" style="fill:none;"/><g><circle cx="75" cy="75" r="75" style="fill:#fff;"/></g><path d="M125,50c0,-13.798 -11.202,-25 -25,-25l-50,0c-13.798,0 -25,11.202 -25,25l0,50c0,13.798 11.202,25 25,25l50,0c13.798,0 25,-11.202 25,-25l0,-50Z" style="fill:none;stroke:#ec1f27;stroke-width:3.13px;"/><path d="M54.167,25l-4.167,0c0,0 -8.358,0.584 -8.333,2.083l0,18.75l12.5,0l0,-20.833Z" style="fill:none;stroke:#ec1f27;stroke-width:3.13px;"/><path d="M54.167,95.833l-12.5,0l0,27.084c1.49,1.575 4.525,2.083 6.25,2.083l6.25,0l0,-29.167Z" style="fill:none;stroke:#ec1f27;stroke-width:3.13px;"/><path d="M108.333,95.833l-12.5,0l0,29.167l6.25,0c1.725,0 3.866,-0.21 6.25,-2.083l0,-27.084Z" style="fill:none;stroke:#ec1f27;stroke-width:3.13px;"/><path d="M108.333,27.083c-0.875,-1.474 -5.567,-2.083 -7.291,-2.083l-5.209,0l0,20.833l12.5,0l0,-18.75Z" style="fill:none;stroke:#ec1f27;stroke-width:3.13px;"/><path d="M81.25,28.125c0,-1.725 -1.4,-3.125 -3.125,-3.125l-6.25,0c-1.725,0 -3.125,1.4 -3.125,3.125l0,93.75c0,1.725 1.4,3.125 3.125,3.125l6.25,0c1.725,0 3.125,-1.4 3.125,-3.125l0,-93.75Z" style="fill:none;stroke:#ec1f27;stroke-width:3.13px;"/><path d="M58.333,83.333c2.352,0 4.179,-3.835 4.167,-6.25c-0.012,-2.372 -2.202,-6.246 -4.167,-6.25c-3.522,-0.006 -15.938,0 -16.666,0c0.72,0 13.14,0 16.666,0c2.966,0 4.167,-4.097 4.167,-6.25c0,-2.367 -1.848,-6.25 -4.167,-6.25l-16.666,0c0.813,0 9.543,0.004 12.5,0c2.118,-0.002 4.163,-4.375 4.166,-6.25c0.004,-2.156 -2.129,-6.261 -4.166,-6.25c-4.116,0.022 -15.561,-0.054 -20.834,0c-3.105,0.033 -8.333,4.167 -8.333,4.167l0,50c0,0 5.228,-4.134 8.333,-4.167c5.273,-0.054 20.834,0 20.834,0c2.339,0 4.206,-3.769 4.166,-6.25c-0.039,-2.481 -2.202,-6.237 -4.166,-6.25c-2.907,-0.019 -5.85,0.001 -12.5,0l16.666,0Z" style="fill:none;stroke:#ec1f27;stroke-width:3.13px;"/><path d="M91.667,83.333c-2.352,0 -4.179,-3.835 -4.167,-6.25c0.012,-2.372 2.202,-6.246 4.167,-6.25c3.522,-0.006 15.938,0 16.666,0c-0.72,0 -13.14,0 -16.666,0c-2.966,0 -4.167,-4.097 -4.167,-6.25c0,-2.367 1.848,-6.25 4.167,-6.25l16.666,0c-0.813,0 -9.543,0.004 -12.5,0c-2.118,-0.002 -4.163,-4.375 -4.166,-6.25c-0.004,-2.156 2.129,-6.261 4.166,-6.25c4.116,0.022 15.561,-0.054 20.834,0c3.105,0.033 8.333,4.167 8.333,4.167l0,50c0,0 -5.228,-4.134 -8.333,-4.167c-5.273,-0.054 -20.834,0 -20.834,0c-2.339,0 -4.206,-3.769 -4.166,-6.25c0.039,-2.481 2.202,-6.237 4.166,-6.25c2.907,-0.019 5.85,0.001 12.5,0l-16.666,0Z" style="fill:none;stroke:#ec1f27;stroke-width:3.13px;"/></svg>