<?xml version="1.0" encoding="UTF-8" standalone="no"?><!DOCTYPE svg PUBLIC "-//W3C//DTD SVG 1.1//EN" "http://www.w3.org/Graphics/SVG/1.1/DTD/svg11.dtd"><svg width="100%" height="100%" viewBox="0 0 150 150" version="1.1" xmlns="http://www.w3.org/2000/svg" xmlns:xlink="http://www.w3.org/1999/xlink" xml:space="preserve" xmlns:serif="http://www.serif.com/" style="fill-rule:evenodd;clip-rule:evenodd;stroke-linecap:round;stroke-linejoin:round;stroke-miterlimit:1.5;"><rect id="light-rail" x="0" y="0" width="150" height="150" style="fill:none;"/><g id="bg-white"><circle cx="75" cy="75" r="75" style="fill:#fff;"/></g><path d="M104.167,41.667c0,-9.199 -7.468,-16.667 -16.667,-16.667l-25,0c-9.199,0 -16.667,7.468 -16.667,16.667l-4.166,50c0,9.198 7.468,16.666 16.666,16.666l33.334,0c9.198,0 16.666,-7.468 16.666,-16.666l-4.166,-50Z" style="fill:none;stroke:#ec1f27;stroke-width:3.33px;"/><path d="M95.833,57.292c0,-4.025 -3.267,-7.292 -7.291,-7.292l-27.084,0c-4.024,0 -7.291,3.267 -7.291,7.292l0,14.583c0,4.024 3.267,7.292 7.291,7.292l27.084,0c4.024,0 7.291,-3.268 7.291,-7.292l0,-14.583Z" style="fill:none;stroke:#ec1f27;stroke-width:3.33px;"/><path d="M87.5,35.417c0,-1.15 -0.934,-2.084 -2.083,-2.084l-20.834,0c-1.149,0 -2.083,0.934 -2.083,2.084l0,4.166c0,1.15 0.934,2.084 2.083,2.084l20.834,0c1.149,0 2.083,-0.934 2.083,-2.084l0,-4.166Z" style="fill:none;stroke:#ec1f27;stroke-width:3.33px;"/><path d="M54.167,108.333l-8.334,16.667l58.334,0l-8.334,-16.667l-41.666,0" style="fill:none;stroke:#ec1f27;stroke-width:3.33px;"/><path d="M50,116.667l50,0" style="fill:none;stroke:#ec1f27;stroke-width:3.33px;"/><circle cx="60.417" cy="93.75" r="6.25" style="fill:none;stroke:#ec1f27;stroke-width:3.33px;"/><circle cx="89.583" cy="93.75" r="6.25" style="fill:none;stroke:#ec1f27;stroke-width:3.33px;"/><path d="M83.333,58.333c2.732,0.036 4.18,1.365 4.167,4.167" style="fill:none;stroke:#ec1f27;stroke-width:3.33px;"/></svg>