<?xml version="1.0" encoding="UTF-8" standalone="no"?><!DOCTYPE svg PUBLIC "-//W3C//DTD SVG 1.1//EN" "http://www.w3.org/Graphics/SVG/1.1/DTD/svg11.dtd"><svg width="100%" height="100%" viewBox="0 0 36 36" version="1.1" xmlns="http://www.w3.org/2000/svg" xmlns:xlink="http://www.w3.org/1999/xlink" xml:space="preserve" xmlns:serif="http://www.serif.com/" style="fill-rule:evenodd;clip-rule:evenodd;stroke-linejoin:round;stroke-miterlimit:2;"><rect id="migrant-boat" x="0" y="0" width="36" height="36" style="fill:none;"/><g id="bg-white"><circle cx="18" cy="18" r="18" style="fill:#fff;"/></g><path d="M12.75,18.199l-0,-0.599c-0.089,0 -0.176,0.01 -0.259,0.029c-0.049,-0.035 -0.088,-0.014 -0.112,0.032c-0.453,0.155 -0.779,0.584 -0.779,1.089c-0,-0 -0,0.626 -0,0.626c-0.873,0.853 -1.815,1.616 -2.823,2.292c-0.183,0.123 -0.232,0.371 -0.109,0.555c0.123,0.183 0.371,0.232 0.555,0.109c1.096,-0.735 2.117,-1.569 3.059,-2.505c0.076,-0.075 0.118,-0.177 0.118,-0.284l0,-0.793c0,-0.193 0.157,-0.35 0.35,-0.35c0,-0 0.4,-0.037 0.4,-0.405l0,-0.19c-0,-0.361 -0.4,0.394 -0.4,0.394l-0,0Zm4.867,-9.313c-0.775,2.602 -1.799,4.877 -3.06,6.843c-0.119,0.186 -0.065,0.433 0.121,0.552c0.186,0.12 0.433,0.066 0.552,-0.12c1.299,-2.025 2.356,-4.367 3.153,-7.047c0.063,-0.212 -0.057,-0.434 -0.269,-0.497c-0.212,-0.063 -0.434,0.057 -0.497,0.269Z" style="fill:#ec1f27;"/><path d="M18.4,15l0,-7c-0,-0.221 -0.179,-0.4 -0.4,-0.4c-0.221,0 -0.4,0.179 -0.4,0.4l-0,7c-0,0.221 0.179,0.4 0.4,0.4c0.221,0 0.4,-0.179 0.4,-0.4Z" style="fill:#ec1f27;"/><path d="M12.11,17.795c-0.307,0.206 -0.51,0.557 -0.51,0.955c-0,-0 -0,2.5 -0,2.5c-0,0.635 0.515,1.15 1.15,1.15l1.5,-0c0.635,-0 1.15,-0.515 1.15,-1.15l0,-2.5c0,-0.398 -0.203,-0.749 -0.51,-0.955c0.316,-0.34 0.51,-0.795 0.51,-1.295c0,-1.049 -0.851,-1.9 -1.9,-1.9c-1.049,-0 -1.9,0.851 -1.9,1.9c-0,0.5 0.194,0.955 0.51,1.295Zm1.04,0.009c0.002,-0.142 -0.072,-0.277 -0.2,-0.351c-0.328,-0.19 -0.55,-0.546 -0.55,-0.953c0,-0.607 0.493,-1.1 1.1,-1.1c0.607,-0 1.1,0.493 1.1,1.1c-0,0.407 -0.222,0.763 -0.55,0.953l0.2,0.746c-0,0 -0.4,-0.394 -0.4,-0.394c0,-0 0,0.164 -0,0.19c-0,0.368 0.4,0.405 0.4,0.405c-0,-0 -0,-0 -0,-0c0.193,0 0.35,0.157 0.35,0.35c-0,-0 -0,2.5 -0,2.5c-0,0.193 -0.157,0.35 -0.35,0.35c-0,-0 -1.5,-0 -1.5,-0c-0.193,-0 -0.35,-0.157 -0.35,-0.35l0,-2.5c0,-0.193 0.157,-0.35 0.35,-0.35c0,-0 0.4,-0.037 0.4,-0.405l-0,-0.191Zm1.45,0.389c-0.107,0.184 -0.35,0.207 -0.35,0.207c0.151,-0 0.282,-0.084 0.35,-0.207Zm0.002,-0.003l-0,0.001l0,-0.001Zm0.041,-0.116l-0.001,0.007l0.001,-0.007Zm0.006,-0.045l-0.003,0.029l0.002,-0.017l0.001,-0.012Zm0.001,-0.017l-0.001,0.001l-0,0.016l0,-0.008l0.001,-0.009Z" style="fill:#ec1f27;"/><path d="M17.11,17.795c-0.307,0.206 -0.51,0.557 -0.51,0.955c-0,-0 -0,2.5 -0,2.5c-0,0.635 0.515,1.15 1.15,1.15l1.5,-0c0.635,-0 1.15,-0.515 1.15,-1.15l0,-2.5c0,-0.398 -0.203,-0.749 -0.51,-0.955c0.316,-0.34 0.51,-0.795 0.51,-1.295c0,-1.049 -0.851,-1.9 -1.9,-1.9c-1.049,0 -1.9,0.851 -1.9,1.9c-0,0.5 0.194,0.955 0.51,1.295Zm1.04,0.009c0.002,-0.142 -0.072,-0.277 -0.2,-0.351c-0.328,-0.19 -0.55,-0.546 -0.55,-0.953c0,-0.607 0.493,-1.1 1.1,-1.1c0.607,-0 1.1,0.493 1.1,1.1c-0,0.407 -0.222,0.763 -0.55,0.953l0.2,0.746c-0,0 -0.4,-0.394 -0.4,-0.394c-0,-0 -0,0.19 -0,0.19l0.4,0.405c0.193,0 0.35,0.157 0.35,0.35c-0,-0 -0,2.5 -0,2.5c-0,0.193 -0.157,0.35 -0.35,0.35c-0,0 -1.5,0 -1.5,0c-0.193,0 -0.35,-0.157 -0.35,-0.35l0,-2.5c0,-0.193 0.157,-0.35 0.35,-0.35c-0,-0 0.4,-0.037 0.4,-0.405l-0,-0.191Zm1.45,0.389c-0.107,0.184 -0.35,0.207 -0.35,0.207c0.151,-0 0.282,-0.084 0.35,-0.207Zm0.002,-0.003l-0,0.001l0,-0.001Zm0.041,-0.116l-0.001,0.007l0.001,-0.007Zm0.006,-0.045l-0.003,0.029l0.002,-0.017l0.001,-0.012Zm0.001,-0.017l-0.001,0.001l-0,0.016l0,-0.008l0.001,-0.009Z" style="fill:#ec1f27;"/><path d="M8,21.6c-0.221,0 -0.4,0.179 -0.4,0.4l-0,6c-0,0.221 0.179,0.4 0.4,0.4l15.004,-0c3.405,-0.03 5.186,-3.126 5.395,-6.374c0.007,-0.111 -0.032,-0.219 -0.107,-0.3c-0.076,-0.08 -0.181,-0.126 -0.292,-0.126l-20,0Zm0.4,0.8l19.164,-0c-0.295,2.673 -1.751,5.174 -4.566,5.2c-0,0 -14.598,0 -14.598,0l-0,-5.2Z" style="fill:#ec1f27;"/><path d="M23,23.6c-0.773,-0 -1.4,0.627 -1.4,1.4c-0,0.773 0.627,1.4 1.4,1.4c0.773,-0 1.4,-0.627 1.4,-1.4c0,-0.773 -0.627,-1.4 -1.4,-1.4Zm0,0.8c0.331,-0 0.6,0.269 0.6,0.6c-0,0.331 -0.269,0.6 -0.6,0.6c-0.331,-0 -0.6,-0.269 -0.6,-0.6c0,-0.331 0.269,-0.6 0.6,-0.6Z" style="fill:#ec1f27;"/><path d="M18,23.6c-0.773,-0 -1.4,0.627 -1.4,1.4c-0,0.773 0.627,1.4 1.4,1.4c0.773,-0 1.4,-0.627 1.4,-1.4c0,-0.773 -0.627,-1.4 -1.4,-1.4Zm0,0.8c0.331,-0 0.6,0.269 0.6,0.6c-0,0.331 -0.269,0.6 -0.6,0.6c-0.331,-0 -0.6,-0.269 -0.6,-0.6c0,-0.331 0.269,-0.6 0.6,-0.6Z" style="fill:#ec1f27;"/><path d="M13,23.6c-0.773,-0 -1.4,0.627 -1.4,1.4c-0,0.773 0.627,1.4 1.4,1.4c0.773,-0 1.4,-0.627 1.4,-1.4c0,-0.773 -0.627,-1.4 -1.4,-1.4Zm0,0.8c0.331,-0 0.6,0.269 0.6,0.6c-0,0.331 -0.269,0.6 -0.6,0.6c-0.331,-0 -0.6,-0.269 -0.6,-0.6c0,-0.331 0.269,-0.6 0.6,-0.6Z" style="fill:#ec1f27;"/><path d="M17.999,9.4c6.745,0.021 8.747,6.112 8.345,9.758c-0.083,0.75 -0.266,1.395 -0.54,1.85c-0.214,0.356 -0.474,0.593 -0.803,0.592c-0.221,-0.001 -0.4,0.178 -0.401,0.399c-0.001,0.221 0.178,0.4 0.399,0.401c0.483,0.001 0.916,-0.229 1.268,-0.661c0.439,-0.538 0.754,-1.421 0.872,-2.494c0.44,-3.983 -1.768,-10.622 -9.138,-10.645c-0.221,-0.001 -0.4,0.178 -0.401,0.399c-0.001,0.221 0.178,0.4 0.399,0.401Z" style="fill:#ec1f27;"/><path d="M22.11,17.795c-0.307,0.206 -0.51,0.557 -0.51,0.955c-0,-0 -0,2.5 -0,2.5c-0,0.635 0.515,1.15 1.15,1.15l1.5,-0c0.635,-0 1.15,-0.515 1.15,-1.15l0,-2.5c0,-0.398 -0.203,-0.749 -0.51,-0.955c0.316,-0.34 0.51,-0.795 0.51,-1.295c0,-1.049 -0.851,-1.9 -1.9,-1.9c-1.049,0 -1.9,0.851 -1.9,1.9c-0,0.5 0.194,0.955 0.51,1.295Zm1.04,0.009c0.002,-0.142 -0.072,-0.277 -0.2,-0.351c-0.328,-0.19 -0.55,-0.546 -0.55,-0.953c0,-0.607 0.493,-1.1 1.1,-1.1c0.607,-0 1.1,0.493 1.1,1.1c-0,0.407 -0.222,0.763 -0.55,0.953l0.2,0.746c-0,0 -0.4,-0.394 -0.4,-0.394c-0,-0 -0,0.19 -0,0.19l0.4,0.405c0.193,0 0.35,0.157 0.35,0.35c-0,-0 -0,2.5 -0,2.5c-0,0.193 -0.157,0.35 -0.35,0.35c-0,0 -1.5,0 -1.5,0c-0.193,0 -0.35,-0.157 -0.35,-0.35l0,-2.5c0,-0.193 0.157,-0.35 0.35,-0.35c-0,-0 0.4,-0.037 0.4,-0.405l-0,-0.191Zm1.45,0.389c-0.107,0.184 -0.35,0.207 -0.35,0.207c0.151,-0 0.282,-0.084 0.35,-0.207Zm0.002,-0.003l-0,0.001l0,-0.001Zm0.041,-0.116l-0.001,0.007l0.001,-0.007Zm0.006,-0.045l-0.003,0.029l0.002,-0.017l0.001,-0.012Zm0.001,-0.017l-0.001,0.001l-0,0.016l0,-0.008l0.001,-0.009Z" style="fill:#ec1f27;"/></svg>