<?xml version="1.0" encoding="UTF-8" standalone="no"?><!DOCTYPE svg PUBLIC "-//W3C//DTD SVG 1.1//EN" "http://www.w3.org/Graphics/SVG/1.1/DTD/svg11.dtd"><svg width="100%" height="100%" viewBox="0 0 150 150" version="1.1" xmlns="http://www.w3.org/2000/svg" xmlns:xlink="http://www.w3.org/1999/xlink" xml:space="preserve" xmlns:serif="http://www.serif.com/" style="fill-rule:evenodd;clip-rule:evenodd;stroke-linecap:round;stroke-linejoin:round;stroke-miterlimit:1.5;"><rect id="oil-barrel" x="0" y="0" width="150" height="150" style="fill:none;"/><g id="bg-white"><circle cx="75" cy="75" r="75" style="fill:#fff;"/></g><path d="M50,47.917l0,18.75" style="fill:none;stroke:#ec1f27;stroke-width:3.33px;"/><path d="M50,68.75l0,18.75" style="fill:none;stroke:#ec1f27;stroke-width:3.33px;"/><path d="M50,89.583l0,18.75" style="fill:none;stroke:#ec1f27;stroke-width:3.33px;"/><path d="M100,47.917l0,18.75" style="fill:none;stroke:#ec1f27;stroke-width:3.33px;"/><path d="M100,68.75l0,18.75" style="fill:none;stroke:#ec1f27;stroke-width:3.33px;"/><path d="M100,89.583l0,18.75" style="fill:none;stroke:#ec1f27;stroke-width:3.33px;"/><ellipse cx="75" cy="43.75" rx="27.083" ry="8.333" style="fill:none;stroke:#ec1f27;stroke-width:3.33px;"/><path d="M100.009,61.406c1.393,1.003 2.074,2.018 2.074,3.177c0,4.6 -12.135,8.334 -27.083,8.334c-14.948,0 -27.083,-3.734 -27.083,-8.334c0,-1.162 0.636,-2.106 2.036,-3.112" style="fill:none;stroke:#ec1f27;stroke-width:3.33px;"/><path d="M100.009,82.239c1.393,1.004 2.074,2.018 2.074,3.178c0,4.599 -12.135,8.333 -27.083,8.333c-14.948,0 -27.083,-3.734 -27.083,-8.333c0,-1.163 0.636,-2.107 2.036,-3.112" style="fill:none;stroke:#ec1f27;stroke-width:3.33px;"/><path d="M100.009,103.072c1.393,1.004 2.074,2.018 2.074,3.178c0,4.599 -12.135,8.333 -27.083,8.333c-14.948,0 -27.083,-3.734 -27.083,-8.333c0,-1.162 0.636,-2.106 2.036,-3.112" style="fill:none;stroke:#ec1f27;stroke-width:3.33px;"/><path d="M56.25,56.744l0,7.839" style="fill:none;stroke:#ec1f27;stroke-width:3.33px;"/><path d="M56.25,77.578l0,7.839" style="fill:none;stroke:#ec1f27;stroke-width:3.33px;"/><path d="M56.25,98.411l0,7.839" style="fill:none;stroke:#ec1f27;stroke-width:3.33px;"/><ellipse cx="75" cy="45.833" rx="6.25" ry="2.083" style="fill:none;stroke:#ec1f27;stroke-width:3.33px;"/></svg>