<?xml version="1.0" encoding="UTF-8" standalone="no"?><!DOCTYPE svg PUBLIC "-//W3C//DTD SVG 1.1//EN" "http://www.w3.org/Graphics/SVG/1.1/DTD/svg11.dtd"><svg width="100%" height="100%" viewBox="0 0 150 150" version="1.1" xmlns="http://www.w3.org/2000/svg" xmlns:xlink="http://www.w3.org/1999/xlink" xml:space="preserve" xmlns:serif="http://www.serif.com/" style="fill-rule:evenodd;clip-rule:evenodd;stroke-linecap:round;stroke-linejoin:round;stroke-miterlimit:1.5;"><rect id="pencil" x="0" y="0" width="150" height="150" style="fill:none;"/><g id="bg-white"><circle cx="75" cy="75" r="75" style="fill:#fff;"/></g><path d="M46.653,28.975c-2.439,-2.439 -6.4,-2.439 -8.839,0l-8.839,8.839c-2.439,2.439 -2.439,6.4 0,8.839l61.872,61.872c2.439,2.439 25.616,8.223 25.616,8.223c0,0 -5.499,-23.462 -7.938,-25.901l-61.872,-61.872Z" style="fill:none;stroke:#ec1f27;stroke-width:3.33px;"/><path d="M106.234,113.997l7.467,-7.826l2.762,10.577l-10.229,-2.751Z" style="fill:none;stroke:#ec1f27;stroke-width:3.33px;"/><path d="M91.667,108.333l16.666,-16.666" style="fill:none;stroke:#ec1f27;stroke-width:3.33px;"/><path d="M37.5,54.167l16.667,-16.667" style="fill:none;stroke:#ec1f27;stroke-width:3.33px;"/><path d="M41.667,58.333l16.666,-16.666" style="fill:none;stroke:#ec1f27;stroke-width:3.33px;"/><path d="M45.833,62.5l16.667,-16.667" style="fill:none;stroke:#ec1f27;stroke-width:3.33px;"/><path d="M62.5,56.25l35.417,35.417" style="fill:none;stroke:#ec1f27;stroke-width:3.33px;"/><path d="M56.25,62.5l35.417,35.417" style="fill:none;stroke:#ec1f27;stroke-width:3.33px;"/></svg>