<?xml version="1.0" encoding="UTF-8" standalone="no"?><!DOCTYPE svg PUBLIC "-//W3C//DTD SVG 1.1//EN" "http://www.w3.org/Graphics/SVG/1.1/DTD/svg11.dtd"><svg width="100%" height="100%" viewBox="0 0 36 36" version="1.1" xmlns="http://www.w3.org/2000/svg" xmlns:xlink="http://www.w3.org/1999/xlink" xml:space="preserve" xmlns:serif="http://www.serif.com/" style="fill-rule:evenodd;clip-rule:evenodd;stroke-linejoin:round;stroke-miterlimit:2;"><rect id="picket-line" x="0" y="0" width="36" height="36" style="fill:none;"/><g id="bg-white"><circle cx="18" cy="18" r="18" style="fill:#fff;"/></g><path d="M13.572,16.868l0.99,6.328c0.034,0.218 0.239,0.368 0.457,0.334c0.218,-0.034 0.367,-0.239 0.333,-0.457l-0.99,-6.329c-0.034,-0.218 -0.238,-0.367 -0.456,-0.333c-0.219,0.034 -0.368,0.239 -0.334,0.457Z" style="fill:#ec1f27;"/><path d="M20.674,21.262l-1.212,5.876c-0.044,0.216 0.095,0.428 0.311,0.472c0.217,0.045 0.428,-0.094 0.473,-0.311l1.211,-5.876c0.045,-0.216 -0.095,-0.428 -0.311,-0.473c-0.216,-0.044 -0.428,0.095 -0.472,0.312Z" style="fill:#ec1f27;"/><path d="M12.386,9.186l0.104,0.67c0.034,0.218 0.239,0.368 0.457,0.334c0.218,-0.034 0.367,-0.239 0.334,-0.457l-0.104,-0.669c-0.034,-0.219 -0.239,-0.368 -0.457,-0.334c-0.218,0.034 -0.368,0.238 -0.334,0.456Z" style="fill:#ec1f27;"/><path d="M8.859,17.099l-0.952,-6.127l10.079,-1.565l0.598,3.848c0.034,0.218 0.238,0.367 0.456,0.334c0.219,-0.034 0.368,-0.239 0.334,-0.457l-0.605,-3.897c-0.063,-0.409 -0.447,-0.69 -0.856,-0.626c-0,-0 -10.178,1.58 -10.178,1.58c-0.409,0.064 -0.69,0.448 -0.626,0.857c-0,-0 0.967,6.225 0.967,6.225c0.063,0.409 0.447,0.69 0.856,0.626c-0.003,0 7.554,-1.125 7.554,-1.125c0.218,-0.033 0.369,-0.237 0.337,-0.455c-0.033,-0.218 -0.237,-0.369 -0.455,-0.337l-7.509,1.119Z" style="fill:#ec1f27;"/><path d="M22.642,13.992l0.021,0.001l0.014,-0.001c0.063,-0.005 0.32,-0.041 0.378,-0.323c0.005,-0.022 0.034,-0.162 0.034,-0.162c-0,-0 -0.391,0.314 -0.391,0.314c-0.194,-0.704 -0.357,-0.649 -0.392,-0.475l-0.001,-0.001c0,0 -0.033,0.163 -0.033,0.163l0,0c-0.006,0.026 -0.009,0.055 -0.009,0.085c-0,0.213 0.168,0.388 0.379,0.399Z" style="fill:#ec1f27;"/><path d="M28.287,15.531c0.084,-0.406 -0.177,-0.803 -0.583,-0.886c0,-0 -10.088,-2.08 -10.088,-2.08c-0.405,-0.083 -0.802,0.178 -0.886,0.583c0,0 -1.272,6.171 -1.272,6.171c-0.083,0.405 0.178,0.802 0.584,0.886c-0,-0 10.088,2.079 10.088,2.079c0.405,0.084 0.802,-0.178 0.885,-0.583c0,-0 1.272,-6.17 1.272,-6.17Zm-12.035,3.9l9.99,2.059l1.252,-6.072l-9.99,-2.059l-1.252,6.072Z" style="fill:#ec1f27;"/></svg>