<?xml version="1.0" encoding="UTF-8" standalone="no"?><!DOCTYPE svg PUBLIC "-//W3C//DTD SVG 1.1//EN" "http://www.w3.org/Graphics/SVG/1.1/DTD/svg11.dtd"><svg width="100%" height="100%" viewBox="0 0 150 150" version="1.1" xmlns="http://www.w3.org/2000/svg" xmlns:xlink="http://www.w3.org/1999/xlink" xml:space="preserve" xmlns:serif="http://www.serif.com/" style="fill-rule:evenodd;clip-rule:evenodd;stroke-linecap:round;stroke-linejoin:round;stroke-miterlimit:1.5;"><rect id="pills" x="0" y="0" width="150" height="150" style="fill:none;"/><g><circle cx="75" cy="75" r="75" style="fill:#fff;"/></g><path d="M107.415,70.833c9.705,0.001 17.585,7.88 17.585,17.586c0,9.705 -7.88,17.585 -17.585,17.585l-19.915,0l0,-34.476c0.222,-0.227 0.436,-0.459 0.643,-0.695l19.272,0Z" style="fill:none;stroke:#ec1f27;stroke-width:3.13px;"/><path d="M87.5,71.528l0,34.476l-19.915,0c-4.206,0 -8.069,-1.48 -11.097,-3.947c0.952,-0.634 1.856,-1.371 2.695,-2.21l14.082,-14.082l14.082,-14.082c0.051,-0.051 0.102,-0.103 0.153,-0.155Z" style="fill:none;stroke:#ec1f27;stroke-width:3.13px;"/><path d="M73.265,85.765l-24.869,-24.869l-14.082,14.081c-6.863,6.863 -6.863,18.007 0,24.87c6.863,6.863 18.006,6.863 24.869,0l14.082,-14.082Z" style="fill:none;stroke:#ec1f27;stroke-width:3.13px;"/><path d="M48.396,60.896l24.869,24.869l14.082,-14.082c6.863,-6.863 6.863,-18.006 0,-24.869c-6.863,-6.863 -18.007,-6.863 -24.87,0l-14.081,14.082Z" style="fill:none;stroke:#ec1f27;stroke-width:3.13px;"/><path d="M108.333,79.167c2.751,1.017 7.453,5.28 8.334,8.333" style="fill:none;fill-rule:nonzero;stroke:#ec1f27;stroke-width:3.13px;stroke-linejoin:miter;stroke-miterlimit:3;"/><path d="M83.333,54.167c2.686,2.698 2.81,8.909 0,12.5" style="fill:none;fill-rule:nonzero;stroke:#ec1f27;stroke-width:3.13px;stroke-linejoin:miter;stroke-miterlimit:3;"/></svg>