<?xml version="1.0" encoding="UTF-8" standalone="no"?><!DOCTYPE svg PUBLIC "-//W3C//DTD SVG 1.1//EN" "http://www.w3.org/Graphics/SVG/1.1/DTD/svg11.dtd"><svg width="100%" height="100%" viewBox="0 0 150 150" version="1.1" xmlns="http://www.w3.org/2000/svg" xmlns:xlink="http://www.w3.org/1999/xlink" xml:space="preserve" xmlns:serif="http://www.serif.com/" style="fill-rule:evenodd;clip-rule:evenodd;stroke-linecap:round;stroke-linejoin:round;stroke-miterlimit:1.5;"><rect id="pizza" x="0" y="0" width="150" height="150" style="fill:none;"/><g id="bg-white"><circle cx="75" cy="75" r="75" style="fill:#fff;"/></g><path d="M37.5,70.833c-0.066,-2.616 0.966,-5.355 4.167,-8.333" style="fill:none;stroke:#ec1f27;stroke-width:3.33px;"/><path d="M37.5,79.167c5.314,19.134 16.95,28.005 33.333,29.166" style="fill:none;stroke:#ec1f27;stroke-width:3.33px;"/><path d="M95.833,45.833c21.103,5.356 29.313,23.05 23.659,43.038c-5.298,18.727 -24.701,30.336 -44.484,27.321c-19.783,3.015 -39.187,-8.594 -44.485,-27.321c-5.654,-19.988 2.541,-37.682 23.644,-43.038" style="fill:none;stroke:#ec1f27;stroke-width:3.33px;"/><path d="M77.083,33.333c1.15,0 2.084,1.067 2.084,2.381l0,5.953c7.742,-1.656 12.907,0.276 16.666,4.166c-4.614,-0.95 -7.421,0.012 -8.333,2.977l0,9.523c-2.166,-10.557 -22.271,-9.933 -25,0l0,-9.523c-1.235,-3.552 -4.249,-4.151 -8.333,-2.977c3.383,-4.092 9.094,-5.287 16.666,-4.166l0,-5.953c0,-1.314 0.934,-2.381 2.084,-2.381l4.166,0Z" style="fill:#fff;stroke:#ec1f27;stroke-width:3.33px;"/></svg>