<?xml version="1.0" encoding="UTF-8" standalone="no"?><!DOCTYPE svg PUBLIC "-//W3C//DTD SVG 1.1//EN" "http://www.w3.org/Graphics/SVG/1.1/DTD/svg11.dtd"><svg width="100%" height="100%" viewBox="0 0 150 150" version="1.1" xmlns="http://www.w3.org/2000/svg" xmlns:xlink="http://www.w3.org/1999/xlink" xml:space="preserve" xmlns:serif="http://www.serif.com/" style="fill-rule:evenodd;clip-rule:evenodd;stroke-linecap:round;stroke-linejoin:round;stroke-miterlimit:1.5;"><rect id="presentation" x="0" y="0" width="150" height="150" style="fill:none;"/><g id="presentation1" serif:id="presentation"><g id="bg-white"><circle cx="75" cy="75" r="75" style="fill:#fff;"/></g><path d="M118.75,32.813c0,-0.863 -0.7,-1.563 -1.563,-1.563l-84.374,0c-0.863,0 -1.563,0.7 -1.563,1.563l0,3.125c0,0.862 0.7,1.562 1.563,1.562l84.374,0c0.863,0 1.563,-0.7 1.563,-1.562l0,-3.125Z" style="fill:none;stroke:#ec1f27;stroke-width:3.33px;"/><rect x="37.5" y="37.5" width="75" height="47.917" style="fill:none;stroke:#ec1f27;stroke-width:3.33px;"/><path d="M31.25,85.417l87.5,0" style="fill:none;stroke:#ec1f27;stroke-width:3.33px;"/><path d="M62.5,118.75l12.5,-33.333l12.5,33.333" style="fill:none;stroke:#ec1f27;stroke-width:3.33px;"/><path d="M75,85.417l0,33.333" style="fill:none;stroke:#ec1f27;stroke-width:3.33px;"/><path d="M104.167,49.479c0,-0.862 -0.7,-1.562 -1.563,-1.562l-32.291,0c-0.863,0 -1.563,0.7 -1.563,1.562l0,3.125c0,0.863 0.7,1.563 1.563,1.563l32.291,0c0.863,0 1.563,-0.7 1.563,-1.563l0,-3.125Z" style="fill:none;stroke:#ec1f27;stroke-width:3.33px;"/><path d="M104.167,61.979c0,-0.862 -0.7,-1.562 -1.563,-1.562l-32.291,0c-0.863,0 -1.563,0.7 -1.563,1.562l0,3.125c0,0.863 0.7,1.563 1.563,1.563l32.291,0c0.863,0 1.563,-0.7 1.563,-1.563l0,-3.125Z" style="fill:none;stroke:#ec1f27;stroke-width:3.33px;"/><path d="M104.167,74.479c0,-0.862 -0.7,-1.562 -1.563,-1.562l-32.291,0c-0.863,0 -1.563,0.7 -1.563,1.562l0,3.125c0,0.863 0.7,1.563 1.563,1.563l32.291,0c0.863,0 1.563,-0.7 1.563,-1.563l0,-3.125Z" style="fill:none;stroke:#ec1f27;stroke-width:3.33px;"/><path d="M60.417,55.208c0,-4.024 -3.268,-7.291 -7.292,-7.291c-4.024,0 -7.292,3.267 -7.292,7.291c0,4.025 3.268,7.292 7.292,7.292c4.024,0 7.292,-3.267 7.292,-7.292Z" style="fill:none;stroke:#ec1f27;stroke-width:3.33px;"/></g></svg>