<?xml version="1.0" encoding="UTF-8" standalone="no"?><!DOCTYPE svg PUBLIC "-//W3C//DTD SVG 1.1//EN" "http://www.w3.org/Graphics/SVG/1.1/DTD/svg11.dtd"><svg width="100%" height="100%" viewBox="0 0 36 36" version="1.1" xmlns="http://www.w3.org/2000/svg" xmlns:xlink="http://www.w3.org/1999/xlink" xml:space="preserve" xmlns:serif="http://www.serif.com/" style="fill-rule:evenodd;clip-rule:evenodd;stroke-linejoin:round;stroke-miterlimit:2;"><rect id="presentation" x="0" y="0" width="36" height="36" style="fill:none;"/><g id="presentation1" serif:id="presentation"><g id="bg-white"><circle cx="18" cy="18" r="18" style="fill:#fff;"/></g><path d="M28.9,7.875c0,-0.428 -0.347,-0.775 -0.775,-0.775l-20.25,0c-0.428,0 -0.775,0.347 -0.775,0.775l-0,0.75c-0,0.428 0.347,0.775 0.775,0.775l20.25,0c0.428,0 0.775,-0.347 0.775,-0.775c0,0 0,-0.75 0,-0.75Zm-21,0.025l0,0.7l20.2,0l0,-0.7l-20.2,0Z" style="fill:#ec1f27;"/><path d="M15.375,28.64l2.625,-7.001c-0,0 2.625,7.001 2.625,7.001c0.078,0.207 0.309,0.312 0.515,0.235c0.207,-0.078 0.312,-0.309 0.235,-0.515l-3,-8c-0.059,-0.157 -0.208,-0.26 -0.375,-0.26c-0.167,0 -0.316,0.103 -0.375,0.26l-3,8c-0.077,0.206 0.028,0.437 0.235,0.515c0.206,0.077 0.437,-0.028 0.515,-0.235Z" style="fill:#ec1f27;"/><path d="M17.6,20.5l0,8c0,0.221 0.179,0.4 0.4,0.4c0.221,-0 0.4,-0.179 0.4,-0.4l0,-8c0,-0.221 -0.179,-0.4 -0.4,-0.4c-0.221,-0 -0.4,0.179 -0.4,0.4Z" style="fill:#ec1f27;"/><path d="M27.4,9c0,-0.221 -0.179,-0.4 -0.4,-0.4l-18,0c-0.221,0 -0.4,0.179 -0.4,0.4l-0,11.5c-0,0.221 0.179,0.4 0.4,0.4l18,0c0.221,0 0.4,-0.179 0.4,-0.4l-0,-11.5Zm-0.8,0.4l0,10.7c0,0 -17.2,0 -17.2,0c-0,0 -0,-10.7 -0,-10.7l17.2,-0Z" style="fill:#ec1f27;"/><path d="M7.5,20.9l21,0c0.221,0 0.4,-0.179 0.4,-0.4c0,-0.221 -0.179,-0.4 -0.4,-0.4l-21,0c-0.221,0 -0.4,0.179 -0.4,0.4c0,0.221 0.179,0.4 0.4,0.4Z" style="fill:#ec1f27;"/><path d="M25.4,11.875c0,-0.428 -0.347,-0.775 -0.775,-0.775l-7.75,0c-0.428,0 -0.775,0.347 -0.775,0.775c-0,-0 -0,0.75 -0,0.75c-0,0.428 0.347,0.775 0.775,0.775l7.75,-0c0.428,-0 0.775,-0.347 0.775,-0.775l0,-0.75Zm-8.5,0.025l-0,0.7l7.7,0l0,-0.7l-7.7,-0Z" style="fill:#ec1f27;"/><path d="M25.4,14.875c0,-0.428 -0.347,-0.775 -0.775,-0.775l-7.75,0c-0.428,0 -0.775,0.347 -0.775,0.775c-0,-0 -0,0.75 -0,0.75c-0,0.428 0.347,0.775 0.775,0.775l7.75,-0c0.428,-0 0.775,-0.347 0.775,-0.775l0,-0.75Zm-8.5,0.025l-0,0.7l7.7,0l0,-0.7l-7.7,-0Z" style="fill:#ec1f27;"/><path d="M25.4,17.875c0,-0.428 -0.347,-0.775 -0.775,-0.775c-0,0 -7.75,0 -7.75,0c-0.428,0 -0.775,0.347 -0.775,0.775c-0,-0 -0,0.75 -0,0.75c-0,0.428 0.347,0.775 0.775,0.775c0,-0 7.75,-0 7.75,-0c0.428,-0 0.775,-0.347 0.775,-0.775l0,-0.75Zm-8.5,0.025l-0,0.7l7.7,0l0,-0.7l-7.7,-0Z" style="fill:#ec1f27;"/><path d="M14.9,13.25c0,-1.187 -0.963,-2.15 -2.15,-2.15c-1.187,0 -2.15,0.963 -2.15,2.15c0,1.187 0.963,2.15 2.15,2.15c1.187,-0 2.15,-0.963 2.15,-2.15Zm-0.8,0c-0,0.745 -0.605,1.35 -1.35,1.35c-0.745,0 -1.35,-0.605 -1.35,-1.35c0,-0.745 0.605,-1.35 1.35,-1.35c0.745,-0 1.35,0.605 1.35,1.35Z" style="fill:#ec1f27;"/></g></svg>