<?xml version="1.0" encoding="UTF-8" standalone="no"?><!DOCTYPE svg PUBLIC "-//W3C//DTD SVG 1.1//EN" "http://www.w3.org/Graphics/SVG/1.1/DTD/svg11.dtd"><svg width="100%" height="100%" viewBox="0 0 36 36" version="1.1" xmlns="http://www.w3.org/2000/svg" xmlns:xlink="http://www.w3.org/1999/xlink" xml:space="preserve" xmlns:serif="http://www.serif.com/" style="fill-rule:evenodd;clip-rule:evenodd;stroke-linejoin:round;stroke-miterlimit:2;"><rect id="recycle" x="0" y="0" width="36" height="36" style="fill:none;"/><g><circle cx="18" cy="18" r="18" style="fill:#fff;"/></g><path d="M20.835,27.582l3.814,-0c2.236,0.003 3.609,-0.741 4.264,-1.852c0.654,-1.111 0.603,-2.631 -0.107,-4.26c-0.003,-0.007 -0.006,-0.014 -0.01,-0.021l-4.243,-8.286c-0.094,-0.185 -0.32,-0.258 -0.504,-0.163c-0.185,0.094 -0.258,0.32 -0.163,0.504l4.237,8.276c0.593,1.366 0.692,2.638 0.143,3.57c-0.55,0.934 -1.736,1.484 -3.617,1.482l-3.814,-0c-0.207,-0 -0.375,0.168 -0.375,0.375c-0,0.207 0.168,0.375 0.375,0.375Z" style="fill:#ec1f27;"/><path d="M23.075,10.276l-0.959,-1.873c-1.032,-1.865 -2.594,-2.778 -4.142,-2.778c-1.548,-0 -3.11,0.913 -4.141,2.778c-0.002,0.004 -0.004,0.007 -0.006,0.011l-2.86,5.587c-0.094,0.184 -0.021,0.41 0.163,0.504c0.184,0.095 0.41,0.022 0.504,-0.163l2.858,-5.58c0.874,-1.578 2.171,-2.387 3.482,-2.387c1.31,-0 2.606,0.807 3.481,2.382c0.002,0.005 0.953,1.861 0.953,1.861c0.094,0.184 0.32,0.257 0.505,0.163c0.184,-0.094 0.257,-0.321 0.162,-0.505Z" style="fill:#ec1f27;"/><path d="M9.822,16.779l-2.661,4.655c-0.007,0.014 -0.014,0.028 -0.02,0.042c-0.649,1.558 -0.7,3.033 -0.059,4.14c0.638,1.104 1.978,1.878 4.204,1.965c0.005,0.001 0.01,0.001 0.015,0.001l6.674,-0c0.207,-0 0.375,-0.168 0.375,-0.375c-0,-0.207 -0.168,-0.375 -0.375,-0.375l-6.667,-0c-1.877,-0.075 -3.038,-0.66 -3.577,-1.592c-0.535,-0.924 -0.444,-2.153 0.093,-3.453c0,-0.001 2.649,-4.636 2.649,-4.636c0.103,-0.18 0.041,-0.409 -0.139,-0.512c-0.18,-0.103 -0.409,-0.04 -0.512,0.14Z" style="fill:#ec1f27;"/><path d="M14.852,24.682l2.586,2.525c-0,-0 -2.586,2.525 -2.586,2.525c-0.148,0.144 -0.151,0.382 -0.006,0.53c0.145,0.148 0.382,0.151 0.53,0.006l2.861,-2.793c0.072,-0.071 0.113,-0.167 0.113,-0.268c-0,-0.101 -0.041,-0.198 -0.113,-0.269l-2.861,-2.793c-0.148,-0.144 -0.385,-0.142 -0.53,0.006c-0.145,0.149 -0.142,0.386 0.006,0.531Z" style="fill:#ec1f27;"/><path d="M23.093,17.085l1.248,-3.368c-0,-0 3.456,1.221 3.456,1.221c0.195,0.069 0.409,-0.034 0.478,-0.229c0.069,-0.195 -0.034,-0.41 -0.229,-0.479l-3.804,-1.343c-0.193,-0.068 -0.405,0.031 -0.476,0.223l-1.376,3.715c-0.072,0.194 0.027,0.41 0.221,0.482c0.195,0.072 0.41,-0.028 0.482,-0.222Z" style="fill:#ec1f27;"/><path d="M15.018,12.857l-3.545,0.944c0,-0 -0.964,-3.455 -0.964,-3.455c-0.056,-0.199 -0.263,-0.316 -0.462,-0.26c-0.199,0.056 -0.316,0.263 -0.26,0.462l1.064,3.811c0.055,0.198 0.259,0.315 0.457,0.262l3.903,-1.039c0.2,-0.054 0.319,-0.259 0.266,-0.459c-0.054,-0.2 -0.259,-0.319 -0.459,-0.266Z" style="fill:#ec1f27;"/></svg>