<?xml version="1.0" encoding="UTF-8" standalone="no"?><!DOCTYPE svg PUBLIC "-//W3C//DTD SVG 1.1//EN" "http://www.w3.org/Graphics/SVG/1.1/DTD/svg11.dtd"><svg width="100%" height="100%" viewBox="0 0 150 150" version="1.1" xmlns="http://www.w3.org/2000/svg" xmlns:xlink="http://www.w3.org/1999/xlink" xml:space="preserve" xmlns:serif="http://www.serif.com/" style="fill-rule:evenodd;clip-rule:evenodd;stroke-linecap:round;stroke-linejoin:round;stroke-miterlimit:1.5;"><rect id="rifle" x="0" y="0" width="150" height="150" style="fill:none;"/><g><circle cx="75" cy="75" r="75" style="fill:#fff;"/></g><path d="M25,104.432c0,0 1.683,8.88 4.167,12.235c3.527,4.763 8.333,8.333 8.333,8.333l16.667,-20.833l12.5,12.5l9.74,-8.334c0,0 -4.226,-3.019 -5.504,-4.166c-1.474,-1.323 -8.403,-8.334 -8.403,-8.334l8.333,-8.333c8.126,8.706 17.149,15.641 29.167,16.667l4.167,-12.292c-8.817,-2.539 -16.805,-7.43 -23.898,-14.865l3.807,-4.304l1.903,1.014l30.688,-32.103l-8.334,-8.284l-32.836,29.486l0.818,2.001l-2.521,2.686l-11.294,0l-16.667,15.827l0,6.383l-20.833,14.716Z" style="fill:none;stroke:#ec1f27;stroke-width:3.13px;"/><path d="M112.5,37.5l8.333,-8.333" style="fill:none;stroke:#ec1f27;stroke-width:3.13px;"/><path d="M112.696,37.5l-0.196,-9.089l8.424,9.089" style="fill:none;stroke:#ec1f27;stroke-width:3.13px;"/><path d="M45.833,87.235l0,-12.235l8.334,-7.494l12.5,0" style="fill:none;stroke:#ec1f27;stroke-width:3.13px;"/><path d="M83.931,83.333l-4.764,8.334l-8.334,12.5" style="fill:none;stroke:#ec1f27;stroke-width:3.13px;"/><path d="M62.5,95.833c0,0 4.292,2.56 8.333,0" style="fill:none;stroke:#ec1f27;stroke-width:3.13px;"/><path d="M41.667,120.833l4.166,4.167" style="fill:none;stroke:#ec1f27;stroke-width:3.13px;"/><path d="M116.667,41.667l4.166,4.166" style="fill:none;stroke:#ec1f27;stroke-width:3.13px;"/><path d="M81.841,87.5c5.383,5.467 11.09,8.223 18.159,9.471" style="fill:none;stroke:#ec1f27;stroke-width:3.13px;"/><path d="M76.407,65.102l7.524,7.316" style="fill:none;stroke:#ec1f27;stroke-width:3.13px;"/><path d="M73.794,67.506l8.047,7.733" style="fill:none;stroke:#ec1f27;stroke-width:3.13px;"/><path d="M120.833,27.495l1.463,1.672l2.613,-2.508l-1.359,-1.568l-2.717,2.404Z" style="stroke:#ec1f27;stroke-width:3.13px;"/></svg>