<?xml version="1.0" encoding="UTF-8" standalone="no"?><!DOCTYPE svg PUBLIC "-//W3C//DTD SVG 1.1//EN" "http://www.w3.org/Graphics/SVG/1.1/DTD/svg11.dtd"><svg width="100%" height="100%" viewBox="0 0 36 36" version="1.1" xmlns="http://www.w3.org/2000/svg" xmlns:xlink="http://www.w3.org/1999/xlink" xml:space="preserve" xmlns:serif="http://www.serif.com/" style="fill-rule:evenodd;clip-rule:evenodd;stroke-linejoin:round;stroke-miterlimit:2;"><rect id="rifle" x="0" y="0" width="36" height="36" style="fill:none;"/><g><circle cx="18" cy="18" r="18" style="fill:#fff;"/></g><path d="M27.265,9.265l2,-2c0.147,-0.146 0.147,-0.384 0,-0.53c-0.146,-0.147 -0.384,-0.147 -0.53,-0l-2,2c-0.147,0.146 -0.147,0.384 -0,0.53c0.146,0.147 0.384,0.147 0.53,0Z" style="fill:#ec1f27;"/><path d="M27.422,8.992l-0.026,-1.194c0,-0 1.351,1.457 1.351,1.457c0.141,0.152 0.378,0.161 0.53,0.02c0.152,-0.141 0.161,-0.378 0.02,-0.53l-2.022,-2.181c-0.106,-0.114 -0.271,-0.151 -0.416,-0.093c-0.144,0.059 -0.237,0.2 -0.234,0.356l0.047,2.181c0.005,0.207 0.176,0.371 0.383,0.367c0.207,-0.005 0.371,-0.176 0.367,-0.383Z" style="fill:#ec1f27;"/><path d="M18.076,15.893l1.806,1.756c0.148,0.144 0.386,0.141 0.53,-0.007c0.145,-0.149 0.141,-0.386 -0.007,-0.531l-1.806,-1.755c-0.148,-0.145 -0.386,-0.141 -0.53,0.007c-0.145,0.149 -0.141,0.386 0.007,0.53Z" style="fill:#ec1f27;"/><path d="M17.451,16.472l1.931,1.856c0.149,0.143 0.387,0.138 0.53,-0.011c0.144,-0.149 0.139,-0.387 -0.01,-0.53l-1.932,-1.856c-0.149,-0.143 -0.386,-0.139 -0.53,0.011c-0.143,0.149 -0.138,0.386 0.011,0.53Z" style="fill:#ec1f27;"/><path d="M11.375,20.936l-0,-2.769c-0,0 1.769,-1.591 1.769,-1.591c-0,0 2.856,0 2.856,0c0.207,0 0.375,-0.168 0.375,-0.375c-0,-0.207 -0.168,-0.375 -0.375,-0.375l-3,0c-0.093,0 -0.182,0.035 -0.251,0.097l-2,1.798c-0.079,0.071 -0.124,0.173 -0.124,0.279l-0,2.936c0,0.207 0.168,0.375 0.375,0.375c0.207,0 0.375,-0.168 0.375,-0.375Z" style="fill:#ec1f27;"/><path d="M27.735,10.265l1,1c0.146,0.147 0.384,0.147 0.53,0c0.147,-0.146 0.147,-0.384 0,-0.53l-1,-1c-0.146,-0.147 -0.384,-0.147 -0.53,-0c-0.147,0.146 -0.147,0.384 -0,0.53Z" style="fill:#ec1f27;"/><path d="M13.031,25.561l2.704,2.704c0.138,0.139 0.36,0.147 0.509,0.02l2.337,-2c0.088,-0.075 0.136,-0.186 0.131,-0.301c-0.005,-0.116 -0.063,-0.222 -0.156,-0.289c-0,-0 -0.99,-0.706 -1.289,-0.974c-0.263,-0.236 -1.258,-1.236 -1.738,-1.72c0,0 1.464,-1.463 1.464,-1.463c1.947,2.024 4.125,3.592 6.975,3.836c0.172,0.014 0.332,-0.09 0.387,-0.254l1,-2.95c0.033,-0.097 0.025,-0.203 -0.023,-0.294c-0.047,-0.091 -0.13,-0.158 -0.228,-0.186c-1.956,-0.563 -3.736,-1.625 -5.328,-3.22c0,-0 0.487,-0.55 0.487,-0.55c0,-0 0.196,0.104 0.196,0.104c0.148,0.079 0.331,0.049 0.447,-0.072l7.365,-7.705c0.141,-0.147 0.138,-0.381 -0.007,-0.525l-2,-1.988c-0.141,-0.14 -0.367,-0.146 -0.515,-0.013l-7.88,7.076c-0.118,0.106 -0.157,0.275 -0.097,0.421l0.105,0.258c0,-0 -0.329,0.35 -0.329,0.35c0,0 -2.548,0 -2.548,0c-0.096,0 -0.189,0.037 -0.258,0.104l-4,3.798c-0.075,0.071 -0.117,0.169 -0.117,0.272l-0,1.338c-0,-0 -4.841,3.419 -4.841,3.419c-0.12,0.085 -0.18,0.232 -0.152,0.376c-0,0 0.438,2.242 1.067,3.09c0.879,1.188 2.077,2.078 2.077,2.078c0.162,0.12 0.391,0.091 0.517,-0.067l3.738,-4.673Zm-6.616,-0.332l4.801,-3.391c0.1,-0.07 0.159,-0.184 0.159,-0.306l-0,-1.371c-0,0 3.775,-3.585 3.775,-3.585c-0,0 2.561,0 2.561,0c0.103,0 0.202,-0.042 0.273,-0.118l0.605,-0.645c0.1,-0.107 0.129,-0.262 0.074,-0.398l-0.097,-0.236c0,0 7.421,-6.663 7.421,-6.663c-0,-0 1.488,1.479 1.488,1.479c-0,-0 -6.915,7.233 -6.915,7.233c0,0 -0.205,-0.11 -0.205,-0.11c-0.154,-0.081 -0.343,-0.047 -0.458,0.083l-0.913,1.033c-0.129,0.146 -0.125,0.366 0.009,0.507c1.651,1.73 3.498,2.901 5.528,3.555c-0,-0 -0.78,2.3 -0.78,2.3c-2.643,-0.322 -4.648,-1.903 -6.467,-3.852c-0.069,-0.074 -0.166,-0.117 -0.268,-0.119c-0.101,-0.002 -0.199,0.038 -0.271,0.11l-2,2c-0.146,0.146 -0.147,0.382 -0.002,0.529c0,-0 1.677,1.695 2.033,2.015c0.189,0.169 0.637,0.504 0.966,0.745c0,0 -1.712,1.466 -1.712,1.466c-0,-0 -2.755,-2.755 -2.755,-2.755l-0.265,0.64l-0.293,-0.609l-3.766,4.708c-0.383,-0.317 -1.081,-0.942 -1.64,-1.697c-0.446,-0.602 -0.77,-1.992 -0.886,-2.547l0,-0.001Z" style="fill:#ec1f27;"/><path d="M19.818,19.814l-1.137,1.989c-0,-0 -1.993,2.989 -1.993,2.989c-0.115,0.172 -0.068,0.405 0.104,0.52c0.172,0.115 0.405,0.068 0.52,-0.104l2,-3c0.005,-0.007 0.009,-0.014 0.014,-0.022l1.143,-2c0.103,-0.18 0.04,-0.409 -0.139,-0.512c-0.18,-0.102 -0.409,-0.04 -0.512,0.14Z" style="fill:#ec1f27;"/><path d="M14.808,23.322c-0,0 1.232,0.73 2.393,-0.005c0.175,-0.111 0.227,-0.343 0.116,-0.518c-0.111,-0.175 -0.343,-0.227 -0.518,-0.116c-0.779,0.494 -1.607,-0.005 -1.607,-0.005c-0.178,-0.106 -0.408,-0.048 -0.514,0.13c-0.106,0.178 -0.048,0.408 0.13,0.514Z" style="fill:#ec1f27;"/><path d="M9.735,29.265l1,1c0.146,0.147 0.384,0.147 0.53,0c0.147,-0.146 0.147,-0.384 0,-0.53l-1,-1c-0.146,-0.147 -0.384,-0.147 -0.53,-0c-0.147,0.146 -0.147,0.384 -0,0.53Z" style="fill:#ec1f27;"/><path d="M29,6.599l0.351,0.401l0.627,-0.602l-0.326,-0.376l-0.652,0.577Z" style="fill:#ec1f27;"/><path d="M28.752,6.318c-0.155,0.137 -0.17,0.372 -0.034,0.528l0.351,0.401c0.067,0.077 0.163,0.123 0.266,0.128c0.102,0.004 0.202,-0.034 0.276,-0.104l0.627,-0.602c0.144,-0.139 0.154,-0.366 0.024,-0.517l-0.327,-0.376c-0.065,-0.075 -0.158,-0.122 -0.258,-0.128c-0.1,-0.007 -0.198,0.027 -0.273,0.093l-0.652,0.577Z" style="fill:#ec1f27;"/><path d="M19.375,21.263c1.352,1.373 2.785,2.066 4.56,2.379c0.204,0.036 0.398,-0.1 0.434,-0.304c0.036,-0.204 -0.1,-0.398 -0.304,-0.434c-1.617,-0.286 -2.924,-0.916 -4.156,-2.167c-0.145,-0.148 -0.383,-0.149 -0.53,-0.004c-0.148,0.145 -0.15,0.383 -0.004,0.53Z" style="fill:#ec1f27;"/></svg>