<?xml version="1.0" encoding="UTF-8" standalone="no"?><!DOCTYPE svg PUBLIC "-//W3C//DTD SVG 1.1//EN" "http://www.w3.org/Graphics/SVG/1.1/DTD/svg11.dtd"><svg width="100%" height="100%" viewBox="0 0 150 150" version="1.1" xmlns="http://www.w3.org/2000/svg" xmlns:xlink="http://www.w3.org/1999/xlink" xml:space="preserve" xmlns:serif="http://www.serif.com/" style="fill-rule:evenodd;clip-rule:evenodd;stroke-linecap:round;stroke-linejoin:round;stroke-miterlimit:3;"><rect id="sickle" x="0" y="0" width="150" height="150" style="fill:none;"/><g id="bg-white"><circle cx="75" cy="75" r="75" style="fill:#fff;"/></g><g id="Sickle"><path d="M54.474,89.618c-13.511,11.767 -20.34,17.721 -20.487,17.864c-1.607,1.559 0.03,5.13 1.875,6.947c1.886,1.857 5.222,2.977 6.829,1.418c0.14,-0.136 12.654,-11.981 12.721,-11.91c2.678,2.836 10.779,12.618 27.45,12.618c16.671,0 29.245,-14.681 33.074,-31.899c3.077,-13.834 -3.433,-32.186 -22.056,-47.539c-3.334,-2.748 -6.926,-2.608 -12.759,-3.784c22.203,20.493 30.416,37.884 24.639,52.174c-4.067,10.058 -10.397,18.552 -20.756,20.841c-8.531,1.885 -18.707,-3.692 -30.53,-16.73Z" style="fill:none;fill-rule:nonzero;stroke:#ec1f27;stroke-width:3.33px;"/><path d="M55.412,103.937l-7.633,-8.081" style="fill:none;fill-rule:nonzero;stroke:#ec1f27;stroke-width:3.33px;stroke-linejoin:miter;"/></g></svg>