<?xml version="1.0" encoding="UTF-8" standalone="no"?><!DOCTYPE svg PUBLIC "-//W3C//DTD SVG 1.1//EN" "http://www.w3.org/Graphics/SVG/1.1/DTD/svg11.dtd"><svg width="100%" height="100%" viewBox="0 0 150 150" version="1.1" xmlns="http://www.w3.org/2000/svg" xmlns:xlink="http://www.w3.org/1999/xlink" xml:space="preserve" xmlns:serif="http://www.serif.com/" style="fill-rule:evenodd;clip-rule:evenodd;stroke-linecap:round;stroke-linejoin:round;stroke-miterlimit:1.5;"><rect id="skull" x="0" y="0" width="150" height="150" style="fill:none;"/><g><circle cx="75" cy="75" r="75" style="fill:#fff;"/></g><path d="M75,111.365l0,13.635" style="fill:none;stroke:#ec1f27;stroke-width:3.13px;"/><path d="M66.671,112.5l0,12.491" style="fill:none;stroke:#ec1f27;stroke-width:3.13px;"/><path d="M83.329,112.5l0,12.491" style="fill:none;stroke:#ec1f27;stroke-width:3.13px;"/><path d="M92.419,115.901l0,9.09" style="fill:none;stroke:#ec1f27;stroke-width:3.13px;"/><path d="M58.333,115.901l0,9.09" style="fill:none;stroke:#ec1f27;stroke-width:3.13px;"/><path d="M34.84,76.836c-0.982,-3.48 -1.507,-7.146 -1.507,-10.931c0,-22.576 18.671,-40.905 41.667,-40.905c22.996,0 41.667,18.329 41.667,40.905c0,3.785 -0.525,7.451 -1.507,10.931c0.972,2.362 1.507,4.943 1.507,7.646c0,8.898 -5.801,16.476 -13.889,19.287l0,12.132c-0.474,5.663 -3.964,9.09 -9.259,9.09l-37.038,0c-5.058,0.232 -9.022,-3.892 -9.259,-9.09l0,-12.132c-8.088,-2.811 -13.889,-10.389 -13.889,-19.287c0,-2.703 0.535,-5.284 1.507,-7.646Z" style="fill:none;stroke:#ec1f27;stroke-width:3.13px;"/><path d="M75.378,84.788l-4.545,13.636l9.09,0l-4.545,-13.636Z" style="fill:none;stroke:#ec1f27;stroke-width:3.13px;"/><path d="M65.72,80.517c4.27,-2.466 5.736,-7.934 3.27,-12.204c-2.465,-4.271 -7.934,-5.736 -12.204,-3.271l-4.206,2.429c-4.271,2.465 -5.736,7.934 -3.27,12.204c2.465,4.27 7.934,5.736 12.204,3.27l4.206,-2.428Z" style="fill:none;stroke:#ec1f27;stroke-width:3.13px;"/><path d="M89.448,83.064c4.157,2.4 9.481,0.973 11.881,-3.184c2.4,-4.157 0.973,-9.481 -3.184,-11.881l-4.616,-2.665c-4.157,-2.4 -9.481,-0.974 -11.881,3.184c-2.4,4.157 -0.973,9.48 3.184,11.881l4.616,2.665Z" style="fill:none;stroke:#ec1f27;stroke-width:3.13px;"/><path d="M66.671,35.488c0,0 -7.305,1.634 -12.504,6.179c-5.749,5.026 -8.334,12.5 -8.334,12.5" style="fill:none;stroke:#ec1f27;stroke-width:3.13px;"/></svg>