<?xml version="1.0" encoding="UTF-8" standalone="no"?><!DOCTYPE svg PUBLIC "-//W3C//DTD SVG 1.1//EN" "http://www.w3.org/Graphics/SVG/1.1/DTD/svg11.dtd"><svg width="100%" height="100%" viewBox="0 0 36 36" version="1.1" xmlns="http://www.w3.org/2000/svg" xmlns:xlink="http://www.w3.org/1999/xlink" xml:space="preserve" xmlns:serif="http://www.serif.com/" style="fill-rule:evenodd;clip-rule:evenodd;stroke-linejoin:round;stroke-miterlimit:2;"><rect id="smoke" x="0" y="0" width="36" height="36" style="fill:none;"/><g id="bg-white"><circle cx="18" cy="18" r="18" style="fill:#fff;"/></g><path d="M7.5,20.9l4,-0c0.221,0 0.4,-0.179 0.4,-0.4c0,-0.221 -0.179,-0.4 -0.4,-0.4l-4,0c-0.221,0 -0.4,0.179 -0.4,0.4c0,0.221 0.179,0.4 0.4,0.4Z" style="fill:#ec1f27;"/><path d="M7.5,18.9l4,-0c0.221,-0 0.4,-0.179 0.4,-0.4c-0,-0.221 -0.179,-0.4 -0.4,-0.4l-4,0c-0.221,-0 -0.4,0.179 -0.4,0.4c-0,0.221 0.179,0.4 0.4,0.4Z" style="fill:#ec1f27;"/><path d="M7.5,16.9l3.5,-0c0.221,-0 0.4,-0.179 0.4,-0.4c-0,-0.221 -0.179,-0.4 -0.4,-0.4l-3.5,0c-0.221,-0 -0.4,0.179 -0.4,0.4c-0,0.221 0.179,0.4 0.4,0.4Z" style="fill:#ec1f27;"/><path d="M7.5,14.9l3.5,-0c0.221,-0 0.4,-0.179 0.4,-0.4c-0,-0.221 -0.179,-0.4 -0.4,-0.4l-3.5,0c-0.221,-0 -0.4,0.179 -0.4,0.4c-0,0.221 0.179,0.4 0.4,0.4Z" style="fill:#ec1f27;"/><path d="M7.5,12.9l4.5,-0c0.221,-0 0.4,-0.179 0.4,-0.4c-0,-0.221 -0.179,-0.4 -0.4,-0.4l-4.5,0c-0.221,-0 -0.4,0.179 -0.4,0.4c-0,0.221 0.179,0.4 0.4,0.4Z" style="fill:#ec1f27;"/><path d="M7.5,10.9l10.286,-0c0.22,0 0.4,-0.179 0.4,-0.4c-0,-0.221 -0.18,-0.4 -0.4,-0.4l-10.286,0c-0.221,0 -0.4,0.179 -0.4,0.4c0,0.221 0.179,0.4 0.4,0.4Z" style="fill:#ec1f27;"/><path d="M7.5,8.9l21,-0c0.221,-0 0.4,-0.179 0.4,-0.4c-0,-0.221 -0.179,-0.4 -0.4,-0.4l-21,0c-0.221,-0 -0.4,0.179 -0.4,0.4c-0,0.221 0.179,0.4 0.4,0.4Z" style="fill:#ec1f27;"/><path d="M23.5,10.9l5,-0c0.221,0 0.4,-0.179 0.4,-0.4c0,-0.221 -0.179,-0.4 -0.4,-0.4l-5,0c-0.221,0 -0.4,0.179 -0.4,0.4c0,0.221 0.179,0.4 0.4,0.4Z" style="fill:#ec1f27;"/><path d="M25.5,12.9l3,-0c0.221,-0 0.4,-0.179 0.4,-0.4c-0,-0.221 -0.179,-0.4 -0.4,-0.4l-3,0c-0.221,-0 -0.4,0.179 -0.4,0.4c-0,0.221 0.179,0.4 0.4,0.4Z" style="fill:#ec1f27;"/><path d="M27.2,14.9l1.3,-0c0.221,-0 0.4,-0.179 0.4,-0.4c-0,-0.221 -0.179,-0.4 -0.4,-0.4l-1.3,0c-0.221,-0 -0.4,0.179 -0.4,0.4c-0,0.221 0.179,0.4 0.4,0.4Z" style="fill:#ec1f27;"/><path d="M27.937,16.9l0.563,-0c0.221,-0 0.4,-0.179 0.4,-0.4c-0,-0.221 -0.179,-0.4 -0.4,-0.4l-0.563,0c-0.221,-0 -0.4,0.179 -0.4,0.4c-0,0.221 0.179,0.4 0.4,0.4Z" style="fill:#ec1f27;"/><path d="M28,18.9l0.5,-0c0.221,-0 0.4,-0.179 0.4,-0.4c-0,-0.221 -0.179,-0.4 -0.4,-0.4l-0.5,0c-0.221,-0 -0.4,0.179 -0.4,0.4c-0,0.221 0.179,0.4 0.4,0.4Z" style="fill:#ec1f27;"/><path d="M28,20.9l0.5,-0c0.221,0 0.4,-0.179 0.4,-0.4c0,-0.221 -0.179,-0.4 -0.4,-0.4l-0.5,0c-0.221,0 -0.4,0.179 -0.4,0.4c0,0.221 0.179,0.4 0.4,0.4Z" style="fill:#ec1f27;"/><path d="M28.25,22.9l0.25,-0c0,-0 0.414,-0.8 -0.054,-0.8l-0.192,0c-0.2,0 -0.247,0.117 -0.229,0.262c-0.106,-0.121 -0.175,0.001 -0.175,0.138c0,0.221 0.179,0.4 0.4,0.4Z" style="fill:#ec1f27;"/><path d="M16.343,16.206c0.658,-1.099 2.264,-1.082 2.8,-0.025c0.1,0.197 0.341,0.276 0.538,0.176c0.197,-0.1 0.276,-0.341 0.176,-0.538c-0.804,-1.585 -3.213,-1.673 -4.2,-0.025c-0.114,0.19 -0.052,0.436 0.137,0.549c0.19,0.114 0.436,0.052 0.549,-0.137Z" style="fill:#ec1f27;"/><path d="M20.843,19.706c0.658,-1.099 2.264,-1.082 2.8,-0.025c0.1,0.197 0.341,0.276 0.538,0.176c0.197,-0.1 0.276,-0.341 0.176,-0.538c-0.804,-1.585 -3.213,-1.673 -4.2,-0.025c-0.114,0.19 -0.052,0.436 0.137,0.549c0.19,0.114 0.436,0.052 0.549,-0.137Z" style="fill:#ec1f27;"/><path d="M18.343,23.706c0.658,-1.099 2.264,-1.082 2.8,-0.025c0.1,0.197 0.341,0.276 0.538,0.176c0.197,-0.1 0.276,-0.341 0.176,-0.538c-0.804,-1.585 -3.213,-1.673 -4.2,-0.025c-0.114,0.19 -0.052,0.436 0.137,0.549c0.19,0.114 0.436,0.052 0.549,-0.137Z" style="fill:#ec1f27;"/><path d="M17.568,12.429c-0.48,-0.212 -1.01,-0.329 -1.568,-0.329c-2.152,0 -3.9,1.748 -3.9,3.9c-0,1.347 0.684,2.536 1.724,3.237c-0.334,0.467 -0.567,1.012 -0.668,1.601c-1.491,0.548 -2.556,1.982 -2.556,3.662c-0,2.152 1.748,3.9 3.9,3.9c0.951,-0 1.823,-0.341 2.5,-0.907c0.677,0.566 1.549,0.907 2.5,0.907c0.838,-0 1.614,-0.265 2.25,-0.715c0.636,0.45 1.412,0.715 2.25,0.715c2.152,-0 3.9,-1.748 3.9,-3.9c0,-1.008 -0.383,-1.928 -1.013,-2.621c0.005,-0.05 0.007,-0.107 0.007,-0.168c-0.001,-0.342 -0.064,-0.862 -0.183,-1.338c-0.086,-0.343 -0.209,-0.66 -0.351,-0.894c0.343,-0.58 0.54,-1.257 0.54,-1.979c0,-1.731 -1.13,-3.2 -2.692,-3.709c-0.508,-1.561 -1.977,-2.691 -3.708,-2.691c-1.168,0 -2.217,0.514 -2.932,1.329Zm8.515,9.458c-0.048,0.144 -0.01,0.304 0.098,0.411c0.567,0.562 0.919,1.341 0.919,2.202c-0,1.711 -1.389,3.1 -3.1,3.1c-0.758,-0 -1.454,-0.273 -1.993,-0.726c-0.148,-0.125 -0.366,-0.125 -0.514,-0c-0.539,0.453 -1.235,0.726 -1.993,0.726c-0.867,-0 -1.651,-0.357 -2.214,-0.931c-0.075,-0.077 -0.178,-0.121 -0.286,-0.121c-0.108,0 -0.211,0.044 -0.286,0.121c-0.563,0.574 -1.347,0.931 -2.214,0.931c-1.711,-0 -3.1,-1.389 -3.1,-3.1c0,-1.409 0.942,-2.6 2.23,-2.976c0.157,-0.046 0.27,-0.182 0.286,-0.343c0.07,-0.685 0.364,-1.303 0.806,-1.782c0.085,-0.093 0.122,-0.219 0.099,-0.343c-0.022,-0.123 -0.101,-0.229 -0.213,-0.286c-1.013,-0.51 -1.708,-1.56 -1.708,-2.77c0,-1.711 1.389,-3.1 3.1,-3.1c0.539,-0 1.045,0.138 1.487,0.38c0.176,0.096 0.395,0.047 0.514,-0.114c0.565,-0.767 1.474,-1.266 2.499,-1.266c1.44,-0 2.652,0.983 3,2.315c0.036,0.14 0.145,0.249 0.285,0.285c1.332,0.348 2.315,1.56 2.315,3c-0,0.658 -0.206,1.269 -0.556,1.771c-0.117,0.168 -0.089,0.398 0.067,0.532c0.15,0.129 0.242,0.438 0.324,0.765c0.088,0.351 0.141,0.731 0.155,1.018c0.007,0.132 -0.007,0.299 -0.007,0.301Z" style="fill:#ec1f27;"/></svg>