<?xml version="1.0" encoding="UTF-8" standalone="no"?><!DOCTYPE svg PUBLIC "-//W3C//DTD SVG 1.1//EN" "http://www.w3.org/Graphics/SVG/1.1/DTD/svg11.dtd"><svg width="100%" height="100%" viewBox="0 0 36 36" version="1.1" xmlns="http://www.w3.org/2000/svg" xmlns:xlink="http://www.w3.org/1999/xlink" xml:space="preserve" xmlns:serif="http://www.serif.com/" style="fill-rule:evenodd;clip-rule:evenodd;stroke-linejoin:round;stroke-miterlimit:2;"><rect id="socks" x="0" y="0" width="36" height="36" style="fill:none;"/><g id="bg-white"><circle cx="18" cy="18" r="18" style="fill:#fff;"/></g><path d="M7.919,19.485l4.479,4.478c0.156,0.156 0.409,0.156 0.565,0c0.156,-0.156 0.156,-0.409 0,-0.565l-4.478,-4.479c-0.156,-0.156 -0.41,-0.156 -0.566,-0c-0.156,0.156 -0.156,0.41 -0,0.566Z" style="fill:#ec1f27;"/><path d="M25.77,23.157c-0.897,-0.82 -1.055,-1.902 -0.687,-2.722c0.359,-0.801 1.221,-1.329 2.333,-1.091c0.216,0.046 0.429,-0.092 0.475,-0.308c0.046,-0.216 -0.091,-0.428 -0.307,-0.475c-1.547,-0.33 -2.732,0.433 -3.231,1.546c-0.491,1.094 -0.32,2.546 0.877,3.641c0.163,0.149 0.416,0.137 0.565,-0.025c0.149,-0.163 0.138,-0.417 -0.025,-0.566Z" style="fill:#ec1f27;"/><path d="M18.899,16.725l0.001,-0.007l-0,0l-0,-0.016l0,-8.077c0,-1.118 -0.907,-2.025 -2.025,-2.025l-3.25,0c-1.118,0 -2.025,0.907 -2.025,2.025l-0,6.566c0,-0 -3.526,3.526 -3.526,3.526c-1.425,1.425 -1.425,3.738 -0,5.162c1.424,1.424 3.737,1.424 5.161,0c0,0 4.597,-4.596 4.597,-4.596c0.543,-0.543 0.879,-1.216 1.008,-1.919c0.033,-0.15 0.056,-0.579 0.059,-0.639Zm-0.799,-0.03c-0.002,0.061 -0.013,0.388 -0.04,0.49c-0.002,0.01 -0.004,0.02 -0.006,0.03c-0.1,0.55 -0.363,1.077 -0.788,1.502c-0,0 -4.596,4.596 -4.596,4.596c-1.113,1.113 -2.919,1.113 -4.031,0c-1.112,-1.112 -1.112,-2.918 0,-4.03c0,-0 3.644,-3.644 3.644,-3.644c0.075,-0.075 0.117,-0.177 0.117,-0.283l-0,-6.731c-0,-0.676 0.549,-1.225 1.225,-1.225l3.25,0c0.676,0 1.225,0.549 1.225,1.225l-0,8.07Z" style="fill:#ec1f27;"/><path d="M16.919,22.937l4.479,4.479c0.156,0.156 0.409,0.156 0.565,-0c0.156,-0.156 0.156,-0.41 0,-0.566l-4.478,-4.479c-0.156,-0.156 -0.41,-0.156 -0.566,0c-0.156,0.157 -0.156,0.41 -0,0.566Z" style="fill:#ec1f27;"/><path d="M27.899,20.178l0.001,-0.007l-0,-0l-0,-0.017l0,-8.076c0,-1.118 -0.907,-2.025 -2.025,-2.025l-3.25,-0c-1.118,-0 -2.025,0.907 -2.025,2.025c-0,-0 -0,6.565 -0,6.565c0,0 -3.526,3.527 -3.526,3.527c-1.425,1.424 -1.425,3.737 -0,5.162c1.424,1.424 3.737,1.424 5.161,-0c0,-0 4.597,-4.597 4.597,-4.597c0.543,-0.543 0.879,-1.215 1.008,-1.918c0.033,-0.151 0.056,-0.579 0.059,-0.639Zm-0.799,-0.03c-0.002,0.06 -0.013,0.388 -0.04,0.49c-0.002,0.009 -0.004,0.019 -0.006,0.029c-0.1,0.551 -0.363,1.077 -0.788,1.503c-0,-0 -4.596,4.596 -4.596,4.596c-1.113,1.112 -2.919,1.112 -4.031,-0c-1.112,-1.112 -1.112,-2.918 0,-4.031c0,0 3.644,-3.643 3.644,-3.643c0.075,-0.075 0.117,-0.177 0.117,-0.283l-0,-6.731c-0,-0.677 0.549,-1.225 1.225,-1.225l3.25,-0c0.676,-0 1.225,0.548 1.225,1.225l-0,8.07Z" style="fill:#ec1f27;"/><path d="M12,9.9l6.5,-0c0.221,-0 0.4,-0.179 0.4,-0.4c-0,-0.221 -0.179,-0.4 -0.4,-0.4l-6.5,0c-0.221,-0 -0.4,0.179 -0.4,0.4c-0,0.221 0.179,0.4 0.4,0.4Z" style="fill:#ec1f27;"/><path d="M21,13.353l6.5,-0c0.221,-0 0.4,-0.18 0.4,-0.4c-0,-0.221 -0.179,-0.4 -0.4,-0.4l-6.5,-0c-0.221,-0 -0.4,0.179 -0.4,0.4c-0,0.22 0.179,0.4 0.4,0.4Z" style="fill:#ec1f27;"/><path d="M16.77,19.705c-0.897,-0.821 -1.055,-1.903 -0.687,-2.723c0.359,-0.8 1.221,-1.329 2.333,-1.091c0.216,0.046 0.429,-0.091 0.475,-0.307c0.046,-0.216 -0.091,-0.429 -0.307,-0.475c-1.547,-0.331 -2.732,0.433 -3.231,1.546c-0.491,1.093 -0.32,2.545 0.877,3.64c0.163,0.149 0.416,0.138 0.565,-0.025c0.149,-0.163 0.138,-0.416 -0.025,-0.565Z" style="fill:#ec1f27;"/></svg>