<?xml version="1.0" encoding="UTF-8" standalone="no"?><!DOCTYPE svg PUBLIC "-//W3C//DTD SVG 1.1//EN" "http://www.w3.org/Graphics/SVG/1.1/DTD/svg11.dtd"><svg width="100%" height="100%" viewBox="0 0 150 150" version="1.1" xmlns="http://www.w3.org/2000/svg" xmlns:xlink="http://www.w3.org/1999/xlink" xml:space="preserve" xmlns:serif="http://www.serif.com/" style="fill-rule:evenodd;clip-rule:evenodd;stroke-linecap:round;stroke-linejoin:round;stroke-miterlimit:1.5;"><rect id="spaghetti" x="0" y="0" width="150" height="150" style="fill:none;"/><g id="bg-white"><circle cx="75" cy="75" r="75" style="fill:#fff;"/></g><path d="M37.5,108.333l0,3.125c0,2.875 2.334,5.209 5.208,5.209l64.584,0c2.874,0 5.208,-2.334 5.208,-5.209l0,-3.125" style="fill:none;stroke:#ec1f27;stroke-width:3.33px;"/><path d="M33.333,108.333l83.334,0" style="fill:none;stroke:#ec1f27;stroke-width:3.33px;"/><path d="M62.5,83.333c11.185,3.285 12.547,14.666 4.167,25" style="fill:none;stroke:#ec1f27;stroke-width:3.33px;"/><path d="M75,108.333c7.093,-12.216 4.741,-24.06 -7.213,-30.676c-6.674,-3.693 -12.745,3.335 -5.287,5.676" style="fill:none;stroke:#ec1f27;stroke-width:3.33px;"/><path d="M83.333,108.333c5.58,-15.149 3.979,-23.532 -8.333,-33.333c-5.426,-4.319 -8.724,1.498 -4.907,4.019" style="fill:none;stroke:#ec1f27;stroke-width:3.33px;"/><path d="M80.712,79.047c24.121,-0.785 32.473,14.729 31.788,29.286" style="fill:none;stroke:#ec1f27;stroke-width:3.33px;"/><path d="M85.586,87.675c10.584,-0.351 18.757,6.44 18.581,20.658" style="fill:none;stroke:#ec1f27;stroke-width:3.33px;"/><path d="M86.523,96.693c7.277,0.123 9.835,4.652 9.874,11.534" style="fill:none;stroke:#ec1f27;stroke-width:3.33px;"/><path d="M59.072,81.897c-13.243,3.064 -22.352,11.18 -21.579,26.063" style="fill:none;stroke:#ec1f27;stroke-width:3.33px;"/><path d="M44.794,107.339c-1.018,-11.176 6.62,-18.024 23.612,-20.195" style="fill:none;stroke:#ec1f27;stroke-width:3.33px;"/><path d="M53.182,107.805c-0.166,-7.862 5.542,-12.751 18.176,-14.136" style="fill:none;stroke:#ec1f27;stroke-width:3.33px;"/><path d="M60.018,107.494c1.575,-5.475 4.424,-7.499 10.075,-6.373" style="fill:none;stroke:#ec1f27;stroke-width:3.33px;"/><path d="M60.417,54.067l0,-16.567c0.073,-3.473 6.03,-4.252 6.25,0l0,25c-0.036,3.064 12.41,9.904 12.5,12.5l-0.18,2.083" style="fill:none;stroke:#ec1f27;stroke-width:3.33px;"/><path d="M50,50l20.833,0" style="fill:none;stroke:#ec1f27;stroke-width:3.33px;"/><path d="M50,41.667l20.833,0c6.105,-0.016 6.28,4.255 12.5,4.166l29.167,0c5.9,-0.085 5.031,8.458 0,8.334l-29.167,0c-7.012,-0.054 -6.777,3.972 -12.5,4.166l-20.833,0" style="fill:none;stroke:#ec1f27;stroke-width:3.33px;"/><path d="M71.57,41.667l0,16.11" style="fill:none;stroke:#ec1f27;stroke-width:3.33px;"/></svg>