<?xml version="1.0" encoding="UTF-8" standalone="no"?><!DOCTYPE svg PUBLIC "-//W3C//DTD SVG 1.1//EN" "http://www.w3.org/Graphics/SVG/1.1/DTD/svg11.dtd"><svg width="100%" height="100%" viewBox="0 0 150 150" version="1.1" xmlns="http://www.w3.org/2000/svg" xmlns:xlink="http://www.w3.org/1999/xlink" xml:space="preserve" xmlns:serif="http://www.serif.com/" style="fill-rule:evenodd;clip-rule:evenodd;stroke-linecap:round;stroke-linejoin:round;stroke-miterlimit:1.5;"><rect id="spray-can" x="0" y="0" width="150" height="150" style="fill:none;"/><g id="bg-white"><circle cx="75" cy="75" r="75" style="fill:#fff;"/></g><rect x="41.667" y="62.5" width="25" height="58.333" style="fill:none;stroke:#ec1f27;stroke-width:3.33px;"/><path d="M62.5,56.25c0,-1.15 -0.934,-2.083 -2.083,-2.083l-12.5,0c-1.15,0 -2.084,0.933 -2.084,2.083l0,4.167c0,1.149 0.934,2.083 2.084,2.083l12.5,0c1.149,0 2.083,-0.934 2.083,-2.083l0,-4.167Z" style="fill:none;stroke:#ec1f27;stroke-width:3.33px;"/><path d="M58.333,47.917c0,-1.15 -0.933,-2.084 -2.083,-2.084l-4.167,0c-1.149,0 -2.083,0.934 -2.083,2.084l0,4.166c0,1.15 0.934,2.084 2.083,2.084l4.167,0c1.15,0 2.083,-0.934 2.083,-2.084l0,-4.166Z" style="fill:none;stroke:#ec1f27;stroke-width:3.33px;"/><path d="M58.333,75l0,37.5l0,-37.5Z" style="fill:none;stroke:#ec1f27;stroke-width:3.33px;"/><path d="M66.667,50.373l17.057,-16.941c2.056,-8.527 13.708,-7.741 17.057,0c11.073,1.232 15.014,6.29 8.529,16.941c5.159,8.675 5.203,15.415 -8.529,16.94c-4.172,7.77 -14.246,7.825 -17.057,0l-17.057,-16.94Z" style="fill:none;stroke:#ec1f27;stroke-width:3.33px;"/><path d="M75,50l16.667,0" style="fill:none;stroke:#ec1f27;stroke-width:3.33px;"/><path d="M75,50l12.5,-8.333" style="fill:none;stroke:#ec1f27;stroke-width:3.33px;"/><path d="M75,50l12.5,8.333" style="fill:none;stroke:#ec1f27;stroke-width:3.33px;"/></svg>