<?xml version="1.0" encoding="UTF-8" standalone="no"?><!DOCTYPE svg PUBLIC "-//W3C//DTD SVG 1.1//EN" "http://www.w3.org/Graphics/SVG/1.1/DTD/svg11.dtd"><svg width="100%" height="100%" viewBox="0 0 36 36" version="1.1" xmlns="http://www.w3.org/2000/svg" xmlns:xlink="http://www.w3.org/1999/xlink" xml:space="preserve" xmlns:serif="http://www.serif.com/" style="fill-rule:evenodd;clip-rule:evenodd;stroke-linejoin:round;stroke-miterlimit:2;"><rect id="spray-can" x="0" y="0" width="36" height="36" style="fill:none;"/><g id="bg-white"><circle cx="18" cy="18" r="18" style="fill:#fff;"/></g><path d="M14.4,11.5c-0,-0.497 -0.403,-0.9 -0.9,-0.9c0,0 -1,0 -1,0c-0.497,0 -0.9,0.403 -0.9,0.9l0,1c0,0.497 0.403,0.9 0.9,0.9c-0,-0 1,-0 1,-0c0.497,-0 0.9,-0.403 0.9,-0.9l-0,-1Zm-0.8,-0l0,1c0,0.055 -0.045,0.1 -0.1,0.1l-1,0c-0.055,0 -0.1,-0.045 -0.1,-0.1c-0,0 -0,-1 -0,-1c-0,-0.055 0.045,-0.1 0.1,-0.1l1,-0c0.055,-0 0.1,0.045 0.1,0.1Z" style="fill:#ec1f27;"/><path d="M16.4,15c-0,-0.221 -0.179,-0.4 -0.4,-0.4l-6,0c-0.221,0 -0.4,0.179 -0.4,0.4l-0,14c0,0.221 0.179,0.4 0.4,0.4l6,0c0.221,0 0.4,-0.179 0.4,-0.4l-0,-14Zm-0.8,0.4l-0,13.2c-0,0 -5.2,0 -5.2,0c-0,-0 -0,-13.2 -0,-13.2l5.2,0Z" style="fill:#ec1f27;"/><path d="M15.4,13.5c-0,-0.497 -0.403,-0.9 -0.9,-0.9l-3,0c-0.497,0 -0.9,0.403 -0.9,0.9c0,-0 0,1 0,1c0,0.497 0.403,0.9 0.9,0.9l3,-0c0.497,-0 0.9,-0.403 0.9,-0.9l-0,-1Zm-0.8,-0l0,1c0,0.055 -0.045,0.1 -0.1,0.1c0,0 -3,0 -3,0c-0.055,0 -0.1,-0.045 -0.1,-0.1l-0,-1c-0,-0.055 0.045,-0.1 0.1,-0.1c-0,-0 3,-0 3,-0c0.055,-0 0.1,0.045 0.1,0.1Z" style="fill:#ec1f27;"/><path d="M14.4,18l-0.8,-0l0,9c0,0.221 0.179,0.4 0.4,0.4l0.021,-0.001c0.211,-0.01 0.379,-0.185 0.379,-0.399l-0,-9Z" style="fill:#ec1f27;"/><path d="M15.718,11.806c-0.075,0.075 -0.118,0.177 -0.118,0.283c-0,0.107 0.043,0.209 0.118,0.284l4.032,4.005c0.418,1.061 1.323,1.583 2.269,1.581c0.888,-0.002 1.825,-0.474 2.415,-1.431c1.735,-0.23 2.575,-0.85 2.854,-1.627c0.268,-0.75 0.018,-1.724 -0.591,-2.81c0.772,-1.349 0.847,-2.365 0.442,-3.079c-0.4,-0.706 -1.314,-1.171 -2.687,-1.359c-1.048,-1.964 -4.08,-2.065 -4.717,0.164c-0,-0.001 -4.017,3.989 -4.017,3.989Zm0.85,0.283l3.808,-3.781c0.052,-0.053 0.089,-0.118 0.107,-0.191c0.402,-1.668 2.682,-1.45 3.337,0.066c0.057,0.131 0.181,0.222 0.323,0.238c1.162,0.13 1.973,0.408 2.3,0.985c0.145,0.256 0.177,0.568 0.109,0.938c-0.082,0.44 -0.301,0.949 -0.659,1.537c-0.077,0.127 -0.078,0.286 -0.002,0.413c0.288,0.486 0.508,0.943 0.624,1.364c0.099,0.361 0.122,0.688 0.019,0.973c-0.097,0.272 -0.311,0.494 -0.65,0.674c-0.409,0.218 -0.98,0.368 -1.741,0.453c-0.13,0.014 -0.246,0.092 -0.308,0.208c-0.421,0.785 -1.133,1.191 -1.818,1.193c-0.656,0.001 -1.275,-0.382 -1.547,-1.139c-0.02,-0.056 -0.052,-0.107 -0.094,-0.149l-3.808,-3.782Z" style="fill:#ec1f27;"/><path d="M18,12.4l4,-0c0.221,0 0.4,-0.179 0.4,-0.4c0,-0.221 -0.179,-0.4 -0.4,-0.4l-4,0c-0.221,0 -0.4,0.179 -0.4,0.4c0,0.221 0.179,0.4 0.4,0.4Z" style="fill:#ec1f27;"/><path d="M18.222,12.333l3,-2c0.184,-0.123 0.233,-0.371 0.111,-0.555c-0.123,-0.184 -0.371,-0.233 -0.555,-0.111l-3,2c-0.184,0.123 -0.233,0.371 -0.111,0.555c0.123,0.184 0.371,0.233 0.555,0.111Z" style="fill:#ec1f27;"/><path d="M17.778,12.333l3,2c0.184,0.122 0.432,0.073 0.555,-0.111c0.122,-0.184 0.073,-0.432 -0.111,-0.555l-3,-2c-0.184,-0.122 -0.432,-0.073 -0.555,0.111c-0.122,0.184 -0.073,0.432 0.111,0.555Z" style="fill:#ec1f27;"/></svg>