<?xml version="1.0" encoding="UTF-8" standalone="no"?><!DOCTYPE svg PUBLIC "-//W3C//DTD SVG 1.1//EN" "http://www.w3.org/Graphics/SVG/1.1/DTD/svg11.dtd"><svg width="100%" height="100%" viewBox="0 0 36 36" version="1.1" xmlns="http://www.w3.org/2000/svg" xmlns:xlink="http://www.w3.org/1999/xlink" xml:space="preserve" xmlns:serif="http://www.serif.com/" style="fill-rule:evenodd;clip-rule:evenodd;stroke-linejoin:round;stroke-miterlimit:2;"><rect id="star" x="0" y="0" width="36" height="36" style="fill:none;"/><g id="bg-white"><circle cx="18" cy="18" r="18" style="fill:#fff;"/></g><path d="M18,7.5l2.47,7.255l7.992,0l-6.466,4.484l2.47,7.256l-6.466,-4.484l-6.466,4.484l2.47,-7.256l-6.466,-4.484l7.992,0l2.47,-7.255Z" style="fill:#ec1f27;"/><path d="M18.379,7.371c-0.056,-0.162 -0.208,-0.271 -0.379,-0.271c-0.171,-0 -0.323,0.109 -0.379,0.271l-2.377,6.984c-0,0 -7.706,0 -7.706,0c-0.175,0 -0.329,0.114 -0.381,0.281c-0.053,0.167 0.01,0.348 0.153,0.448l6.218,4.312c0,0 -2.372,6.97 -2.372,6.97c-0.056,0.163 -0,0.344 0.137,0.448c0.138,0.104 0.327,0.108 0.469,0.009l6.238,-4.326c0,0 6.238,4.326 6.238,4.326c0.142,0.099 0.331,0.095 0.469,-0.009c0.137,-0.104 0.193,-0.285 0.137,-0.448l-2.372,-6.97c-0,0 6.218,-4.312 6.218,-4.312c0.143,-0.1 0.206,-0.281 0.153,-0.448c-0.052,-0.167 -0.206,-0.281 -0.381,-0.281l-7.706,0c0,0 -2.377,-6.984 -2.377,-6.984Zm-0.379,1.37l2.091,6.143c0.055,0.162 0.207,0.271 0.379,0.271l6.713,0c-0,0 -5.415,3.756 -5.415,3.756c-0.147,0.101 -0.208,0.288 -0.151,0.457l2.079,6.106c-0,-0 -5.468,-3.792 -5.468,-3.792c-0.137,-0.095 -0.319,-0.095 -0.456,-0l-5.468,3.792c0,-0 2.079,-6.106 2.079,-6.106c0.057,-0.169 -0.004,-0.356 -0.151,-0.457l-5.415,-3.756c0,0 6.713,0 6.713,0c0.172,0 0.324,-0.109 0.379,-0.271l2.091,-6.143Z" style="fill:#ec1f27;"/></svg>