<?xml version="1.0" encoding="UTF-8" standalone="no"?><!DOCTYPE svg PUBLIC "-//W3C//DTD SVG 1.1//EN" "http://www.w3.org/Graphics/SVG/1.1/DTD/svg11.dtd"><svg width="100%" height="100%" viewBox="0 0 36 36" version="1.1" xmlns="http://www.w3.org/2000/svg" xmlns:xlink="http://www.w3.org/1999/xlink" xml:space="preserve" xmlns:serif="http://www.serif.com/" style="fill-rule:evenodd;clip-rule:evenodd;stroke-linejoin:round;stroke-miterlimit:2;"><rect id="stethescope" x="0" y="0" width="36" height="36" style="fill:none;"/><g><circle cx="18" cy="18" r="18" style="fill:#fff;"/></g><path d="M13.628,24.951c-0.001,0.01 -0.002,0.021 -0.003,0.031l0,0.001l0,-0l-0,0.017c-0,0.014 0.001,0.029 0.002,0.043c0.001,0.081 0.002,0.356 -0.002,0.954c-0.018,2.748 1.363,4.399 3.379,4.378c0.824,-0.009 1.525,-0.23 2.074,-0.688c0.794,-0.66 1.286,-1.837 1.297,-3.685c0.017,-2.832 -0,-12.002 -0,-12.002c-0,-0.207 -0.169,-0.374 -0.376,-0.374c-0.207,0.001 -0.374,0.169 -0.374,0.376c0,-0 0.017,9.165 0,11.996c-0.009,1.55 -0.361,2.559 -1.026,3.113c-0.424,0.352 -0.969,0.507 -1.603,0.514c-1.63,0.017 -2.636,-1.401 -2.621,-3.622c0.006,-0.905 -0.001,-1.055 -0.003,-1.069c-0.018,-0.118 -0.07,-0.17 -0.087,-0.19c-0.101,-0.117 -0.216,-0.137 -0.315,-0.129c-0.052,0.005 -0.291,0.043 -0.339,0.31c-0,0.005 -0.002,0.016 -0.003,0.026Zm0.383,0.414c0.077,-0.001 0.156,-0.025 0.231,-0.088c0.014,-0.012 0.133,-0.258 0.133,-0.258l-0.364,0.346Z" style="fill:#ec1f27;"/><path d="M11.625,23c-0,1.311 1.064,2.375 2.375,2.375c1.311,-0 2.375,-1.064 2.375,-2.375c-0,-1.311 -1.064,-2.375 -2.375,-2.375c-1.311,-0 -2.375,1.064 -2.375,2.375Zm0.75,-0c-0,-0.897 0.728,-1.625 1.625,-1.625c0.897,-0 1.625,0.728 1.625,1.625c-0,0.897 -0.728,1.625 -1.625,1.625c-0.897,-0 -1.625,-0.728 -1.625,-1.625Z" style="fill:#ec1f27;"/><path d="M14.375,11.024l-0,0l-0.001,0c0.001,-0.009 0.001,-0.018 0.001,-0.027c-0,-0.145 0,-0.991 -0,-2.997c-0,-0.207 -0.168,-0.375 -0.375,-0.375c-0.207,0 -0.375,0.168 -0.375,0.375c0,2.006 -0,2.852 -0,2.997l0,0.019l0,0l0,0.001l0,-0l0,-0c-0.023,2.145 1.716,3.289 3.359,3.358l0,-0c0.062,0.002 4.975,0 5.016,0c1.227,0 2.54,-0.529 3.394,-1.335c0.605,-0.572 0.981,-1.282 0.981,-2.04l-0,-3c-0,-0.207 -0.168,-0.375 -0.375,-0.375c-0.207,-0 -0.375,0.168 -0.375,0.375l-0,3c-0,0.559 -0.299,1.072 -0.746,1.494c-0.725,0.685 -1.838,1.131 -2.879,1.131c-0.041,0 -4.923,0.003 -4.984,0c-1.283,-0.053 -2.659,-0.926 -2.641,-2.601l-0,0Z" style="fill:#ec1f27;"/><path d="M12.625,7c0,0.759 0.616,1.375 1.375,1.375c0.759,0 1.375,-0.616 1.375,-1.375c0,-0.759 -0.616,-1.375 -1.375,-1.375c-0.759,0 -1.375,0.616 -1.375,1.375Zm0.75,0c0,-0.345 0.28,-0.625 0.625,-0.625c0.345,0 0.625,0.28 0.625,0.625c0,0.345 -0.28,0.625 -0.625,0.625c-0.345,0 -0.625,-0.28 -0.625,-0.625Z" style="fill:#ec1f27;"/><path d="M24.625,7c-0,0.759 0.616,1.375 1.375,1.375c0.759,0 1.375,-0.616 1.375,-1.375c0,-0.759 -0.616,-1.375 -1.375,-1.375c-0.759,0 -1.375,0.616 -1.375,1.375Zm0.75,0c0,-0.345 0.28,-0.625 0.625,-0.625c0.345,0 0.625,0.28 0.625,0.625c-0,0.345 -0.28,0.625 -0.625,0.625c-0.345,0 -0.625,-0.28 -0.625,-0.625Z" style="fill:#ec1f27;"/></svg>