<?xml version="1.0" encoding="UTF-8" standalone="no"?><!DOCTYPE svg PUBLIC "-//W3C//DTD SVG 1.1//EN" "http://www.w3.org/Graphics/SVG/1.1/DTD/svg11.dtd"><svg width="100%" height="100%" viewBox="0 0 150 150" version="1.1" xmlns="http://www.w3.org/2000/svg" xmlns:xlink="http://www.w3.org/1999/xlink" xml:space="preserve" xmlns:serif="http://www.serif.com/" style="fill-rule:evenodd;clip-rule:evenodd;stroke-linecap:round;stroke-linejoin:round;stroke-miterlimit:1.5;"><rect id="testify" x="0" y="0" width="150" height="150" style="fill:none;"/><g id="bg-white"><circle cx="75" cy="75" r="75" style="fill:#fff;"/></g><path d="M120.833,84.167c0,-0.46 -0.373,-0.834 -0.833,-0.834l-90,0c-0.46,0 -0.833,0.374 -0.833,0.834l0,6.666c0,0.46 0.373,0.834 0.833,0.834l90,0c0.46,0 0.833,-0.374 0.833,-0.834l0,-6.666Z" style="fill:none;stroke:#ec1f27;stroke-width:3.33px;"/><path d="M47.083,104.167c0.46,0 0.834,-0.374 0.834,-0.834l0,-10.833c0,-0.46 -0.374,-0.833 -0.834,-0.833l-6.666,0c-0.46,0 -0.834,0.373 -0.834,0.833l0,10.833c0,0.46 0.374,0.834 0.834,0.834l6.666,0Z" style="fill:none;stroke:#ec1f27;stroke-width:3.33px;"/><path d="M109.583,104.167c0.46,0 0.834,-0.374 0.834,-0.834l0,-10.833c0,-0.46 -0.374,-0.833 -0.834,-0.833l-6.666,0c-0.46,0 -0.834,0.373 -0.834,0.833l0,10.833c0,0.46 0.374,0.834 0.834,0.834l6.666,0Z" style="fill:none;stroke:#ec1f27;stroke-width:3.33px;"/><path d="M68.75,65.625c0,-2.875 -2.334,-5.208 -5.208,-5.208l-14.584,0c-2.874,0 -5.208,2.333 -5.208,5.208l0,17.708l25,0l0,-17.708Z" style="fill:none;stroke:#ec1f27;stroke-width:3.33px;"/><path d="M106.25,65.625c0,-2.875 -2.334,-5.208 -5.208,-5.208l-14.584,0c-2.874,0 -5.208,2.333 -5.208,5.208l0,17.708l25,0l0,-17.708Z" style="fill:none;stroke:#ec1f27;stroke-width:3.33px;"/><circle cx="56.25" cy="52.083" r="8.333" style="fill:none;stroke:#ec1f27;stroke-width:3.33px;"/><circle cx="93.75" cy="52.083" r="8.333" style="fill:none;stroke:#ec1f27;stroke-width:3.33px;"/><path d="M56.25,79.167l0,-7.292" style="fill:none;stroke:#ec1f27;stroke-width:3.33px;"/><circle cx="56.25" cy="69.792" r="2.083" style="fill:none;stroke:#ec1f27;stroke-width:3.33px;"/><path d="M62.5,80.208c0,-0.575 -0.467,-1.041 -1.042,-1.041l-10.416,0c-0.575,0 -1.042,0.466 -1.042,1.041l0,2.084c0,0.575 0.467,1.041 1.042,1.041l10.416,0c0.575,0 1.042,-0.466 1.042,-1.041l0,-2.084Z" style="fill:none;stroke:#ec1f27;stroke-width:3.33px;"/></svg>