<?xml version="1.0" encoding="UTF-8" standalone="no"?><!DOCTYPE svg PUBLIC "-//W3C//DTD SVG 1.1//EN" "http://www.w3.org/Graphics/SVG/1.1/DTD/svg11.dtd"><svg width="100%" height="100%" viewBox="0 0 36 36" version="1.1" xmlns="http://www.w3.org/2000/svg" xmlns:xlink="http://www.w3.org/1999/xlink" xml:space="preserve" xmlns:serif="http://www.serif.com/" style="fill-rule:evenodd;clip-rule:evenodd;stroke-linejoin:round;stroke-miterlimit:2;"><rect id="the-pill" x="0" y="0" width="36" height="36" style="fill:none;"/><g id="bg-white"><circle cx="18" cy="18" r="18" style="fill:#fff;"/></g><path d="M29.4,12.4c-0,-0.993 -0.807,-1.8 -1.8,-1.8l-19.2,0c-0.993,0 -1.8,0.807 -1.8,1.8c-0,0 -0,11.2 -0,11.2c-0,0.993 0.807,1.8 1.8,1.8l19.2,-0c0.993,-0 1.8,-0.807 1.8,-1.8l-0,-11.2Zm-0.8,0l-0,11.2c-0,0.552 -0.448,1 -1,1c0,0 -19.2,0 -19.2,0c-0.552,0 -1,-0.448 -1,-1l-0,-11.2c-0,-0.552 0.448,-1 1,-1c-0,-0 19.2,-0 19.2,-0c0.552,-0 1,0.448 1,1Z" style="fill:#ec1f27;"/><path d="M10,12.6c-0.773,0 -1.4,0.627 -1.4,1.4c-0,0.773 0.627,1.4 1.4,1.4c0.773,-0 1.4,-0.627 1.4,-1.4c-0,-0.773 -0.627,-1.4 -1.4,-1.4Zm-0,0.8c0.331,-0 0.6,0.269 0.6,0.6c-0,0.331 -0.269,0.6 -0.6,0.6c-0.331,0 -0.6,-0.269 -0.6,-0.6c-0,-0.331 0.269,-0.6 0.6,-0.6Z" style="fill:#ec1f27;"/><path d="M10,20.1c-0.773,0 -1.4,0.627 -1.4,1.4c-0,0.773 0.627,1.4 1.4,1.4c0.773,-0 1.4,-0.627 1.4,-1.4c-0,-0.773 -0.627,-1.4 -1.4,-1.4Zm-0,0.8c0.331,-0 0.6,0.269 0.6,0.6c-0,0.331 -0.269,0.6 -0.6,0.6c-0.331,0 -0.6,-0.269 -0.6,-0.6c-0,-0.331 0.269,-0.6 0.6,-0.6Z" style="fill:#ec1f27;"/><path d="M10,16.35c-0.773,0 -1.4,0.627 -1.4,1.4c-0,0.773 0.627,1.4 1.4,1.4c0.773,-0 1.4,-0.627 1.4,-1.4c-0,-0.773 -0.627,-1.4 -1.4,-1.4Zm-0,0.8c0.331,-0 0.6,0.269 0.6,0.6c-0,0.331 -0.269,0.6 -0.6,0.6c-0.331,0 -0.6,-0.269 -0.6,-0.6c-0,-0.331 0.269,-0.6 0.6,-0.6Z" style="fill:#ec1f27;"/><path d="M14,12.6c-0.773,0 -1.4,0.627 -1.4,1.4c-0,0.773 0.627,1.4 1.4,1.4c0.773,-0 1.4,-0.627 1.4,-1.4c-0,-0.773 -0.627,-1.4 -1.4,-1.4Zm-0,0.8c0.331,-0 0.6,0.269 0.6,0.6c-0,0.331 -0.269,0.6 -0.6,0.6c-0.331,0 -0.6,-0.269 -0.6,-0.6c-0,-0.331 0.269,-0.6 0.6,-0.6Z" style="fill:#ec1f27;"/><path d="M14,20.1c-0.773,0 -1.4,0.627 -1.4,1.4c-0,0.773 0.627,1.4 1.4,1.4c0.773,-0 1.4,-0.627 1.4,-1.4c-0,-0.773 -0.627,-1.4 -1.4,-1.4Zm-0,0.8c0.331,-0 0.6,0.269 0.6,0.6c-0,0.331 -0.269,0.6 -0.6,0.6c-0.331,0 -0.6,-0.269 -0.6,-0.6c-0,-0.331 0.269,-0.6 0.6,-0.6Z" style="fill:#ec1f27;"/><path d="M14,16.35c-0.773,0 -1.4,0.627 -1.4,1.4c-0,0.773 0.627,1.4 1.4,1.4c0.773,-0 1.4,-0.627 1.4,-1.4c-0,-0.773 -0.627,-1.4 -1.4,-1.4Zm-0,0.8c0.331,-0 0.6,0.269 0.6,0.6c-0,0.331 -0.269,0.6 -0.6,0.6c-0.331,0 -0.6,-0.269 -0.6,-0.6c-0,-0.331 0.269,-0.6 0.6,-0.6Z" style="fill:#ec1f27;"/><path d="M18,12.6c-0.773,0 -1.4,0.627 -1.4,1.4c-0,0.773 0.627,1.4 1.4,1.4c0.773,-0 1.4,-0.627 1.4,-1.4c-0,-0.773 -0.627,-1.4 -1.4,-1.4Zm-0,0.8c0.331,-0 0.6,0.269 0.6,0.6c-0,0.331 -0.269,0.6 -0.6,0.6c-0.331,0 -0.6,-0.269 -0.6,-0.6c-0,-0.331 0.269,-0.6 0.6,-0.6Z" style="fill:#ec1f27;"/><path d="M18,20.1c-0.773,0 -1.4,0.627 -1.4,1.4c-0,0.773 0.627,1.4 1.4,1.4c0.773,-0 1.4,-0.627 1.4,-1.4c-0,-0.773 -0.627,-1.4 -1.4,-1.4Zm-0,0.8c0.331,-0 0.6,0.269 0.6,0.6c-0,0.331 -0.269,0.6 -0.6,0.6c-0.331,0 -0.6,-0.269 -0.6,-0.6c-0,-0.331 0.269,-0.6 0.6,-0.6Z" style="fill:#ec1f27;"/><path d="M18,16.35c-0.773,0 -1.4,0.627 -1.4,1.4c-0,0.773 0.627,1.4 1.4,1.4c0.773,-0 1.4,-0.627 1.4,-1.4c-0,-0.773 -0.627,-1.4 -1.4,-1.4Zm-0,0.8c0.331,-0 0.6,0.269 0.6,0.6c-0,0.331 -0.269,0.6 -0.6,0.6c-0.331,0 -0.6,-0.269 -0.6,-0.6c-0,-0.331 0.269,-0.6 0.6,-0.6Z" style="fill:#ec1f27;"/><path d="M22,12.6c-0.773,0 -1.4,0.627 -1.4,1.4c-0,0.773 0.627,1.4 1.4,1.4c0.773,-0 1.4,-0.627 1.4,-1.4c-0,-0.773 -0.627,-1.4 -1.4,-1.4Zm-0,0.8c0.331,-0 0.6,0.269 0.6,0.6c-0,0.331 -0.269,0.6 -0.6,0.6c-0.331,0 -0.6,-0.269 -0.6,-0.6c-0,-0.331 0.269,-0.6 0.6,-0.6Z" style="fill:#ec1f27;"/><path d="M22,20.1c-0.773,0 -1.4,0.627 -1.4,1.4c-0,0.773 0.627,1.4 1.4,1.4c0.773,-0 1.4,-0.627 1.4,-1.4c-0,-0.773 -0.627,-1.4 -1.4,-1.4Zm-0,0.8c0.331,-0 0.6,0.269 0.6,0.6c-0,0.331 -0.269,0.6 -0.6,0.6c-0.331,0 -0.6,-0.269 -0.6,-0.6c-0,-0.331 0.269,-0.6 0.6,-0.6Z" style="fill:#ec1f27;"/><path d="M22,16.35c-0.773,0 -1.4,0.627 -1.4,1.4c-0,0.773 0.627,1.4 1.4,1.4c0.773,-0 1.4,-0.627 1.4,-1.4c-0,-0.773 -0.627,-1.4 -1.4,-1.4Zm-0,0.8c0.331,-0 0.6,0.269 0.6,0.6c-0,0.331 -0.269,0.6 -0.6,0.6c-0.331,0 -0.6,-0.269 -0.6,-0.6c-0,-0.331 0.269,-0.6 0.6,-0.6Z" style="fill:#ec1f27;"/><path d="M26,12.6c-0.773,0 -1.4,0.627 -1.4,1.4c-0,0.773 0.627,1.4 1.4,1.4c0.773,-0 1.4,-0.627 1.4,-1.4c0,-0.773 -0.627,-1.4 -1.4,-1.4Zm0,0.8c0.331,-0 0.6,0.269 0.6,0.6c-0,0.331 -0.269,0.6 -0.6,0.6c-0.331,0 -0.6,-0.269 -0.6,-0.6c0,-0.331 0.269,-0.6 0.6,-0.6Z" style="fill:#ec1f27;"/><path d="M26,20.1c-0.773,0 -1.4,0.627 -1.4,1.4c-0,0.773 0.627,1.4 1.4,1.4c0.773,-0 1.4,-0.627 1.4,-1.4c0,-0.773 -0.627,-1.4 -1.4,-1.4Zm0,0.8c0.331,-0 0.6,0.269 0.6,0.6c-0,0.331 -0.269,0.6 -0.6,0.6c-0.331,0 -0.6,-0.269 -0.6,-0.6c0,-0.331 0.269,-0.6 0.6,-0.6Z" style="fill:#ec1f27;"/><path d="M26,16.35c-0.773,0 -1.4,0.627 -1.4,1.4c-0,0.773 0.627,1.4 1.4,1.4c0.773,-0 1.4,-0.627 1.4,-1.4c0,-0.773 -0.627,-1.4 -1.4,-1.4Zm0,0.8c0.331,-0 0.6,0.269 0.6,0.6c-0,0.331 -0.269,0.6 -0.6,0.6c-0.331,0 -0.6,-0.269 -0.6,-0.6c0,-0.331 0.269,-0.6 0.6,-0.6Z" style="fill:#ec1f27;"/><path d="M9,11l1,1l1,-1l-2,0Z" style="fill:#ec1f27;"/><path d="M9,10.6c-0.162,0 -0.308,0.097 -0.37,0.247c-0.061,0.149 -0.027,0.321 0.087,0.436l1,1c0.156,0.156 0.41,0.156 0.566,-0l1,-1c0.114,-0.115 0.148,-0.287 0.087,-0.436c-0.062,-0.15 -0.208,-0.247 -0.37,-0.247l-2,0Zm0.966,0.8l0.068,-0c0,0 -0.034,0.034 -0.034,0.034l-0.034,-0.034Z" style="fill:#ec1f27;"/><path d="M29,13l-1,1l1,1l0,-2Z" style="fill:#ec1f27;"/><path d="M29.4,13c0,-0.162 -0.097,-0.308 -0.247,-0.37c-0.149,-0.061 -0.321,-0.027 -0.436,0.087l-1,1c-0.156,0.156 -0.156,0.41 0,0.566l1,1c0.115,0.114 0.287,0.148 0.436,0.087c0.15,-0.062 0.247,-0.208 0.247,-0.37l-0,-2Zm-0.8,0.966l-0,0.068c-0,0 -0.034,-0.034 -0.034,-0.034l0.034,-0.034Z" style="fill:#ec1f27;"/><path d="M29,20.5l-1,1l1,1l0,-2Z" style="fill:#ec1f27;"/><path d="M29.4,20.5c0,-0.162 -0.097,-0.308 -0.247,-0.37c-0.149,-0.061 -0.321,-0.027 -0.436,0.087l-1,1c-0.156,0.156 -0.156,0.41 0,0.566l1,1c0.115,0.114 0.287,0.148 0.436,0.087c0.15,-0.062 0.247,-0.208 0.247,-0.37l0,-2Zm-0.8,0.966l0,0.068c-0,0 -0.034,-0.034 -0.034,-0.034l0.034,-0.034Z" style="fill:#ec1f27;"/><path d="M7,18.75l1,-1l-1,-1l0,2Z" style="fill:#ec1f27;"/><path d="M6.6,18.75c0,0.162 0.097,0.308 0.247,0.37c0.149,0.061 0.321,0.027 0.436,-0.087l1,-1c0.156,-0.156 0.156,-0.41 -0,-0.566l-1,-1c-0.115,-0.114 -0.287,-0.148 -0.436,-0.087c-0.15,0.062 -0.247,0.208 -0.247,0.37l0,2Zm0.8,-0.966l0,-0.068c0,-0 0.034,0.034 0.034,0.034l-0.034,0.034Z" style="fill:#ec1f27;"/></svg>