<?xml version="1.0" encoding="UTF-8" standalone="no"?><!DOCTYPE svg PUBLIC "-//W3C//DTD SVG 1.1//EN" "http://www.w3.org/Graphics/SVG/1.1/DTD/svg11.dtd"><svg width="100%" height="100%" viewBox="0 0 150 150" version="1.1" xmlns="http://www.w3.org/2000/svg" xmlns:xlink="http://www.w3.org/1999/xlink" xml:space="preserve" xmlns:serif="http://www.serif.com/" style="fill-rule:evenodd;clip-rule:evenodd;stroke-linecap:round;stroke-linejoin:round;stroke-miterlimit:1.5;"><rect id="the-pill" x="0" y="0" width="150" height="150" style="fill:none;"/><g id="bg-white"><circle cx="75" cy="75" r="75" style="fill:#fff;"/></g><path d="M120.833,51.667c0,-3.22 -2.613,-5.834 -5.833,-5.834l-80,0c-3.22,0 -5.833,2.614 -5.833,5.834l0,46.666c0,3.22 2.613,5.834 5.833,5.834l80,0c3.22,0 5.833,-2.614 5.833,-5.834l0,-46.666Z" style="fill:none;stroke:#ec1f27;stroke-width:3.33px;"/><circle cx="41.667" cy="58.333" r="4.167" style="fill:none;stroke:#ec1f27;stroke-width:3.33px;"/><circle cx="41.667" cy="89.583" r="4.167" style="fill:none;stroke:#ec1f27;stroke-width:3.33px;"/><circle cx="41.667" cy="73.958" r="4.167" style="fill:none;stroke:#ec1f27;stroke-width:3.33px;"/><circle cx="58.333" cy="58.333" r="4.167" style="fill:none;stroke:#ec1f27;stroke-width:3.33px;"/><circle cx="58.333" cy="89.583" r="4.167" style="fill:none;stroke:#ec1f27;stroke-width:3.33px;"/><circle cx="58.333" cy="73.958" r="4.167" style="fill:none;stroke:#ec1f27;stroke-width:3.33px;"/><circle cx="75" cy="58.333" r="4.167" style="fill:none;stroke:#ec1f27;stroke-width:3.33px;"/><circle cx="75" cy="89.583" r="4.167" style="fill:none;stroke:#ec1f27;stroke-width:3.33px;"/><circle cx="75" cy="73.958" r="4.167" style="fill:none;stroke:#ec1f27;stroke-width:3.33px;"/><circle cx="91.667" cy="58.333" r="4.167" style="fill:none;stroke:#ec1f27;stroke-width:3.33px;"/><circle cx="91.667" cy="89.583" r="4.167" style="fill:none;stroke:#ec1f27;stroke-width:3.33px;"/><circle cx="91.667" cy="73.958" r="4.167" style="fill:none;stroke:#ec1f27;stroke-width:3.33px;"/><circle cx="108.333" cy="58.333" r="4.167" style="fill:none;stroke:#ec1f27;stroke-width:3.33px;"/><circle cx="108.333" cy="89.583" r="4.167" style="fill:none;stroke:#ec1f27;stroke-width:3.33px;"/><circle cx="108.333" cy="73.958" r="4.167" style="fill:none;stroke:#ec1f27;stroke-width:3.33px;"/><path d="M37.5,45.833l4.167,4.167l4.166,-4.167l-8.333,0Z" style="fill:#ec1f27;stroke:#ec1f27;stroke-width:3.33px;"/><path d="M120.833,54.167l-4.166,4.166l4.166,4.167l0,-8.333Z" style="fill:#ec1f27;stroke:#ec1f27;stroke-width:3.33px;"/><path d="M120.833,85.417l-4.166,4.166l4.166,4.167l0,-8.333Z" style="fill:#ec1f27;stroke:#ec1f27;stroke-width:3.33px;"/><path d="M29.167,78.125l4.166,-4.167l-4.166,-4.166l0,8.333Z" style="fill:#ec1f27;stroke:#ec1f27;stroke-width:3.33px;"/></svg>