<?xml version="1.0" encoding="UTF-8" standalone="no"?><!DOCTYPE svg PUBLIC "-//W3C//DTD SVG 1.1//EN" "http://www.w3.org/Graphics/SVG/1.1/DTD/svg11.dtd"><svg width="100%" height="100%" viewBox="0 0 36 36" version="1.1" xmlns="http://www.w3.org/2000/svg" xmlns:xlink="http://www.w3.org/1999/xlink" xml:space="preserve" xmlns:serif="http://www.serif.com/" style="fill-rule:evenodd;clip-rule:evenodd;stroke-linejoin:round;stroke-miterlimit:2;"><rect id="transgender" x="0" y="0" width="36" height="36" style="fill:none;"/><g id="bg-white"><circle cx="18" cy="18" r="18" style="fill:#fff;"/></g><path d="M17.5,12.1c-2.428,0 -4.4,1.972 -4.4,4.4c-0,2.428 1.972,4.4 4.4,4.4c2.428,-0 4.4,-1.972 4.4,-4.4c0,-2.428 -1.972,-4.4 -4.4,-4.4Zm0,0.8c1.987,-0 3.6,1.613 3.6,3.6c-0,1.987 -1.613,3.6 -3.6,3.6c-1.987,0 -3.6,-1.613 -3.6,-3.6c0,-1.987 1.613,-3.6 3.6,-3.6Z" style="fill:#ec1f27;"/><path d="M17.1,20.5l-0,6.5c-0,0.221 0.179,0.4 0.4,0.4c0.221,0 0.4,-0.179 0.4,-0.4l0,-6.5c-0,-0.221 -0.179,-0.4 -0.4,-0.4c-0.221,0 -0.4,0.179 -0.4,0.4Z" style="fill:#ec1f27;"/><path d="M15,24.9l5,-0c0.221,-0 0.4,-0.179 0.4,-0.4c-0,-0.221 -0.179,-0.4 -0.4,-0.4l-5,0c-0.221,-0 -0.4,0.179 -0.4,0.4c-0,0.221 0.179,0.4 0.4,0.4Z" style="fill:#ec1f27;"/><path d="M14.783,13.217l-4,-4c-0.156,-0.156 -0.41,-0.156 -0.566,0c-0.156,0.156 -0.156,0.41 0,0.566l4,4c0.156,0.156 0.41,0.156 0.566,-0c0.156,-0.156 0.156,-0.41 -0,-0.566Z" style="fill:#ec1f27;"/><path d="M20.783,13.783l4,-4c0.156,-0.156 0.156,-0.41 -0,-0.566c-0.156,-0.156 -0.41,-0.156 -0.566,0l-4,4c-0.156,0.156 -0.156,0.41 0,0.566c0.156,0.156 0.41,0.156 0.566,-0Z" style="fill:#ec1f27;"/><path d="M10.693,12.121l-0,-2.428c-0,-0 2.428,-0 2.428,-0c0.221,-0 0.4,-0.179 0.4,-0.4c0,-0.221 -0.179,-0.4 -0.4,-0.4l-2.828,-0c-0.221,-0 -0.4,0.179 -0.4,0.4l-0,2.828c-0,0.221 0.179,0.4 0.4,0.4c0.221,0 0.4,-0.179 0.4,-0.4Z" style="fill:#ec1f27;"/><path d="M21.879,9.693l2.428,-0c0,-0 0,2.428 0,2.428c0,0.221 0.179,0.4 0.4,0.4c0.221,0 0.4,-0.179 0.4,-0.4l0,-2.828c0,-0.221 -0.179,-0.4 -0.4,-0.4l-2.828,-0c-0.221,-0 -0.4,0.179 -0.4,0.4c-0,0.221 0.179,0.4 0.4,0.4Z" style="fill:#ec1f27;"/><path d="M14.717,10.717l-3,3c-0.156,0.156 -0.156,0.41 0,0.566c0.156,0.156 0.41,0.156 0.566,-0l3,-3c0.156,-0.156 0.156,-0.41 -0,-0.566c-0.156,-0.156 -0.41,-0.156 -0.566,0Z" style="fill:#ec1f27;"/></svg>