<?xml version="1.0" encoding="UTF-8" standalone="no"?><!DOCTYPE svg PUBLIC "-//W3C//DTD SVG 1.1//EN" "http://www.w3.org/Graphics/SVG/1.1/DTD/svg11.dtd"><svg width="100%" height="100%" viewBox="0 0 36 36" version="1.1" xmlns="http://www.w3.org/2000/svg" xmlns:xlink="http://www.w3.org/1999/xlink" xml:space="preserve" xmlns:serif="http://www.serif.com/" style="fill-rule:evenodd;clip-rule:evenodd;stroke-linecap:round;stroke-linejoin:round;stroke-miterlimit:1.5;"><rect id="typewriter" x="0" y="0" width="36" height="36" style="fill:none;"/><g id="bg-white"><circle cx="18" cy="18" r="18" style="fill:#fff;"/></g><rect x="8" y="14.5" width="20" height="14" style="fill:none;stroke:#f00;stroke-width:0.8px;"/><rect x="13" y="7" width="10" height="6" style="fill:none;stroke:#f00;stroke-width:0.8px;"/><path d="M8,27l20,0" style="fill:none;stroke:#f00;stroke-width:0.8px;"/><circle cx="11" cy="17" r="1" style="fill:none;stroke:#f00;stroke-width:0.8px;"/><circle cx="11" cy="20.5" r="1" style="fill:none;stroke:#f00;stroke-width:0.8px;"/><circle cx="11" cy="24" r="1" style="fill:none;stroke:#f00;stroke-width:0.8px;"/><path d="M11.5,13l13,0" style="fill:none;stroke:#f00;stroke-width:0.8px;"/><circle cx="14.5" cy="17" r="1" style="fill:none;stroke:#f00;stroke-width:0.8px;"/><circle cx="14.5" cy="20.5" r="1" style="fill:none;stroke:#f00;stroke-width:0.8px;"/><circle cx="18" cy="17" r="1" style="fill:none;stroke:#f00;stroke-width:0.8px;"/><circle cx="18" cy="20.5" r="1" style="fill:none;stroke:#f00;stroke-width:0.8px;"/><circle cx="21.5" cy="17" r="1" style="fill:none;stroke:#f00;stroke-width:0.8px;"/><circle cx="21.5" cy="20.5" r="1" style="fill:none;stroke:#f00;stroke-width:0.8px;"/><circle cx="25" cy="17" r="1" style="fill:none;stroke:#f00;stroke-width:0.8px;"/><circle cx="25" cy="20.5" r="1" style="fill:none;stroke:#f00;stroke-width:0.8px;"/><circle cx="25" cy="24" r="1" style="fill:none;stroke:#f00;stroke-width:0.8px;"/><rect x="10" y="11.5" width="1.5" height="3" style="fill:none;stroke:#231f20;stroke-width:0.8px;"/><rect x="24.5" y="11.5" width="1.5" height="3" style="fill:none;stroke:#231f20;stroke-width:0.8px;"/><path d="M15,8.5l6,0" style="fill:none;stroke:#231f20;stroke-width:0.8px;"/><path d="M15,10l6,0" style="fill:none;stroke:#231f20;stroke-width:0.8px;"/><path d="M15,11.5l6,0" style="fill:none;stroke:#231f20;stroke-width:0.8px;"/><rect x="8" y="10" width="2" height="3" style="fill:none;stroke:#231f20;stroke-width:0.8px;"/><rect x="26" y="10" width="2" height="3" style="fill:none;stroke:#231f20;stroke-width:0.8px;"/><path d="M22.5,24c0,-0.552 -0.448,-1 -1,-1l-7,0c-0.552,0 -1,0.448 -1,1c0,0.552 0.448,1 1,1l7,0c0.552,0 1,-0.448 1,-1Z" style="fill:none;stroke:#f00;stroke-width:0.8px;"/></svg>