<?xml version="1.0" encoding="UTF-8" standalone="no"?><!DOCTYPE svg PUBLIC "-//W3C//DTD SVG 1.1//EN" "http://www.w3.org/Graphics/SVG/1.1/DTD/svg11.dtd"><svg width="100%" height="100%" viewBox="0 0 36 36" version="1.1" xmlns="http://www.w3.org/2000/svg" xmlns:xlink="http://www.w3.org/1999/xlink" xml:space="preserve" xmlns:serif="http://www.serif.com/" style="fill-rule:evenodd;clip-rule:evenodd;stroke-linejoin:round;stroke-miterlimit:2;"><rect id="underwear" x="0" y="0" width="36" height="36" style="fill:none;"/><g id="bg-white"><circle cx="18" cy="18" r="18" style="fill:#fff;"/></g><path d="M27.4,14.275c0,-0.221 -0.179,-0.4 -0.4,-0.4l-18,-0c-0.221,-0 -0.4,0.179 -0.4,0.4l-0,4.324c0,0.209 0.16,0.382 0.368,0.399c1.467,0.117 2.757,0.926 3.783,1.843c1.582,1.413 2.542,3.097 2.542,3.097c0.071,0.125 0.204,0.202 0.348,0.202l4.484,0c0.145,0 0.278,-0.078 0.349,-0.204c0,-0 1.037,-1.852 2.684,-3.298c1.057,-0.929 2.368,-1.701 3.825,-1.639c0.109,0.004 0.215,-0.036 0.294,-0.111c0.078,-0.075 0.123,-0.18 0.123,-0.289l-0,-4.324Zm-0.8,0.4l-0,3.526c-1.501,0.072 -2.863,0.863 -3.97,1.836c-1.412,1.24 -2.402,2.761 -2.733,3.304c0,-0.001 -4.031,-0.001 -4.031,-0.001c-0.317,-0.51 -1.238,-1.895 -2.582,-3.095c-1.064,-0.951 -2.39,-1.779 -3.884,-2.002c-0,-0 -0,-3.568 -0,-3.568l17.2,-0Z" style="fill:#ec1f27;"/><path d="M13.697,21.017c1.633,-1.161 2.695,-3.907 2.53,-6.765c-0.013,-0.221 -0.202,-0.389 -0.422,-0.377c-0.221,0.013 -0.389,0.202 -0.377,0.423c0.148,2.553 -0.736,5.03 -2.194,6.067c-0.18,0.128 -0.222,0.378 -0.094,0.558c0.127,0.18 0.377,0.222 0.557,0.094Z" style="fill:#ec1f27;"/><path d="M22.28,20.375c-0.694,-0.539 -1.075,-1.311 -1.309,-2.288c-0.252,-1.054 -0.332,-2.337 -0.399,-3.83c-0.01,-0.221 -0.197,-0.392 -0.418,-0.382c-0.22,0.01 -0.391,0.197 -0.381,0.418c0.07,1.552 0.158,2.884 0.42,3.98c0.281,1.174 0.763,2.087 1.596,2.734c0.175,0.135 0.426,0.103 0.561,-0.071c0.136,-0.174 0.104,-0.426 -0.07,-0.561Z" style="fill:#ec1f27;"/><path d="M27.4,12.5c0,-0.221 -0.179,-0.4 -0.4,-0.4l-18,0c-0.221,0 -0.4,0.179 -0.4,0.4l0,1.775c0,0.221 0.179,0.4 0.4,0.4l18,-0c0.221,-0 0.4,-0.179 0.4,-0.4l-0,-1.775Zm-0.8,0.4l-0,0.975c0,-0 -17.2,-0 -17.2,-0c0,-0 0,-0.975 0,-0.975l17.2,0Z" style="fill:#ec1f27;"/></svg>