<?xml version="1.0" encoding="UTF-8" standalone="no"?><!DOCTYPE svg PUBLIC "-//W3C//DTD SVG 1.1//EN" "http://www.w3.org/Graphics/SVG/1.1/DTD/svg11.dtd"><svg width="100%" height="100%" viewBox="0 0 150 150" version="1.1" xmlns="http://www.w3.org/2000/svg" xmlns:xlink="http://www.w3.org/1999/xlink" xml:space="preserve" xmlns:serif="http://www.serif.com/" style="fill-rule:evenodd;clip-rule:evenodd;stroke-linecap:round;stroke-linejoin:round;stroke-miterlimit:1.5;"><rect id="windmill" x="0" y="0" width="150" height="150" style="fill:none;"/><g><circle cx="75" cy="75" r="75" style="fill:#fff;"/></g><circle cx="78.266" cy="70.238" r="2.381" style="fill:#ec1f27;stroke:#ec1f27;stroke-width:3.13px;"/><path d="M78.266,76.852c-10.717,0 -26.013,11.342 -32.152,14.17c-1.681,0.775 -3.666,1.398 -5.295,-1.534c-1.419,-2.554 -0.309,-4.163 1.419,-5.727c4.993,-4.518 23.397,-12.501 28.756,-21.596c5.358,-9.095 2.79,-27.574 3.397,-32.972c0.22,-1.962 0.714,-4.132 3.876,-4.192c2.755,-0.052 3.488,1.792 3.877,4.192c0.844,5.219 -1.922,23.803 3.437,32.898c5.358,9.094 23.382,17.336 28.716,21.67c1.46,1.188 2.952,2.735 1.419,5.727c-1.336,2.606 -3.179,2.371 -5.296,1.534c-6.115,-2.417 -21.436,-14.17 -32.154,-14.17Z" style="fill:none;stroke:#ec1f27;stroke-width:3.13px;"/><path d="M75.204,77.66c1.051,-0.181 2.075,-0.279 3.062,-0.279c0.988,0 2.012,0.101 3.063,0.289l1.699,47.33l-9.524,0l1.7,-47.34Z" style="fill:none;stroke:#ec1f27;stroke-width:3.13px;"/><path d="M35.47,70.238c2.866,-17.406 12.904,-29.496 28.51,-33.333" style="fill:none;stroke:#ec1f27;stroke-width:3.13px;"/></svg>