<?xml version="1.0" encoding="UTF-8" standalone="no"?><!DOCTYPE svg PUBLIC "-//W3C//DTD SVG 1.1//EN" "http://www.w3.org/Graphics/SVG/1.1/DTD/svg11.dtd"><svg width="100%" height="100%" viewBox="0 0 36 36" version="1.1" xmlns="http://www.w3.org/2000/svg" xmlns:xlink="http://www.w3.org/1999/xlink" xml:space="preserve" xmlns:serif="http://www.serif.com/" style="fill-rule:evenodd;clip-rule:evenodd;stroke-linejoin:round;stroke-miterlimit:2;"><rect id="windmill" x="0" y="0" width="36" height="36" style="fill:none;"/><g><circle cx="18" cy="18" r="18" style="fill:#fff;"/></g><path d="M18.784,15.411c-0.522,-0 -0.947,0.424 -0.947,0.946c0,0.522 0.425,0.947 0.947,0.947c0.522,-0 0.946,-0.425 0.946,-0.947c0,-0.522 -0.424,-0.946 -0.946,-0.946Zm-0,0.75c0.108,-0 0.196,0.088 0.196,0.196c0,0.109 -0.088,0.197 -0.196,0.197c-0.109,-0 -0.197,-0.088 -0.197,-0.197c0,-0.108 0.088,-0.196 0.197,-0.196Z" style="fill:#ec1f27;"/><path d="M18.784,18.819c0.98,0 2.124,0.441 3.239,0.992c1.766,0.873 3.454,2.033 4.34,2.383c0.406,0.16 0.783,0.221 1.11,0.088c0.231,-0.093 0.451,-0.281 0.632,-0.634c0.198,-0.384 0.226,-0.697 0.175,-0.956c-0.075,-0.379 -0.337,-0.656 -0.612,-0.88c-0.773,-0.628 -2.646,-1.597 -4.302,-2.744c-1.049,-0.727 -2.012,-1.522 -2.504,-2.357c-0.614,-1.043 -0.747,-2.634 -0.766,-4.111c-0.021,-1.568 0.092,-3.018 -0.011,-3.654c-0.072,-0.442 -0.206,-0.813 -0.465,-1.043c-0.195,-0.174 -0.461,-0.285 -0.843,-0.278c-0.427,0.008 -0.704,0.146 -0.895,0.332c-0.264,0.258 -0.36,0.64 -0.401,1.007c-0.088,0.781 0.099,2.697 -0.016,4.577c-0.072,1.186 -0.261,2.359 -0.75,3.188c-0.618,1.05 -1.999,2.023 -3.359,2.876c-1.438,0.902 -2.862,1.669 -3.471,2.22c-0.319,0.289 -0.551,0.596 -0.606,0.955c-0.039,0.255 0.003,0.543 0.19,0.879c0.216,0.389 0.464,0.575 0.704,0.659c0.354,0.124 0.722,0.019 1.051,-0.132c0.886,-0.408 2.563,-1.552 4.32,-2.402c1.115,-0.54 2.26,-0.965 3.24,-0.965Zm-0,-0.75c-1.078,0 -2.342,0.447 -3.567,1.04c-1.751,0.847 -3.424,1.989 -4.306,2.396c-0.156,0.071 -0.323,0.164 -0.491,0.105c-0.107,-0.037 -0.199,-0.141 -0.296,-0.315c-0.086,-0.155 -0.122,-0.284 -0.104,-0.401c0.031,-0.201 0.19,-0.352 0.369,-0.513c0.711,-0.644 2.572,-1.58 4.22,-2.696c1.161,-0.786 2.215,-1.662 2.753,-2.575c0.54,-0.917 0.771,-2.211 0.851,-3.523c0.114,-1.865 -0.074,-3.765 0.013,-4.539c0.023,-0.197 0.038,-0.416 0.18,-0.555c0.08,-0.078 0.205,-0.114 0.385,-0.118c0.117,-0.002 0.21,0.013 0.282,0.054c0.073,0.042 0.118,0.11 0.154,0.19c0.058,0.128 0.09,0.281 0.117,0.447c0.121,0.745 -0.072,2.635 0.033,4.496c0.075,1.314 0.299,2.612 0.839,3.53c0.538,0.912 1.576,1.797 2.723,2.592c1.637,1.135 3.492,2.089 4.256,2.71c0.145,0.118 0.309,0.244 0.349,0.444c0.025,0.128 -0.009,0.278 -0.106,0.468c-0.076,0.148 -0.15,0.242 -0.247,0.281c-0.164,0.067 -0.348,-0.01 -0.552,-0.09c-0.875,-0.346 -2.54,-1.496 -4.284,-2.359c-1.226,-0.606 -2.493,-1.069 -3.571,-1.069Z" style="fill:#ec1f27;"/><path d="M17.985,18.269c-0.175,0.03 -0.305,0.179 -0.311,0.356l-0.408,11.362c-0.003,0.101 0.034,0.2 0.105,0.273c0.071,0.074 0.168,0.115 0.27,0.115l2.286,0c0.102,0 0.199,-0.041 0.27,-0.115c0.07,-0.073 0.108,-0.172 0.104,-0.273l-0.407,-11.36c-0.007,-0.176 -0.135,-0.325 -0.309,-0.356c-0.275,-0.048 -0.543,-0.075 -0.801,-0.075c-0.258,0 -0.525,0.026 -0.799,0.073Zm0.427,0.697c0.126,-0.013 0.25,-0.02 0.372,-0.02c0.121,0 0.245,0.008 0.371,0.021c0,0 0.383,10.658 0.383,10.658c0,0 -1.508,0 -1.508,0l0.382,-10.659Z" style="fill:#ec1f27;"/><path d="M8.883,16.918c0.661,-4.014 2.963,-6.812 6.562,-7.697c0.201,-0.049 0.324,-0.252 0.274,-0.453c-0.049,-0.201 -0.252,-0.324 -0.453,-0.275c-3.893,0.957 -6.408,3.962 -7.123,8.303c-0.034,0.204 0.105,0.398 0.309,0.431c0.204,0.034 0.397,-0.105 0.431,-0.309Z" style="fill:#ec1f27;"/></svg>