<?xml version="1.0" encoding="UTF-8" standalone="no"?><!DOCTYPE svg PUBLIC "-//W3C//DTD SVG 1.1//EN" "http://www.w3.org/Graphics/SVG/1.1/DTD/svg11.dtd"><svg width="100%" height="100%" viewBox="0 0 36 36" version="1.1" xmlns="http://www.w3.org/2000/svg" xmlns:xlink="http://www.w3.org/1999/xlink" xml:space="preserve" xmlns:serif="http://www.serif.com/" style="fill-rule:evenodd;clip-rule:evenodd;stroke-linejoin:round;stroke-miterlimit:2;"><rect id="wrench" x="0" y="0" width="36" height="36" style="fill:none;"/><g id="bg-white"><circle cx="18" cy="18" r="18" style="fill:#fff;"/></g><path d="M18.188,12.993l-12.141,12.142c-0.596,0.596 -0.596,1.564 0,2.16c0,0 2.657,2.658 2.657,2.658c0.596,0.596 1.564,0.596 2.16,-0c0,-0 12.141,-12.143 12.141,-12.143c1.938,0.592 4.131,0.122 5.662,-1.41c1.787,-1.787 2.525,-5.371 0.539,-7.467c-0.014,-0.014 -0.284,-0.269 -0.56,-0.021c-0.009,0.008 -0.056,0.054 -0.133,0.13c-0.57,0.567 -3.012,3.013 -3.849,3.852c-0,0 -1.56,-1.56 -1.56,-1.56c0.838,-0.837 3.284,-3.28 3.851,-3.85c0.074,-0.074 0.118,-0.119 0.126,-0.128c0.252,-0.271 -0,-0.548 -0.01,-0.558c-1.009,-0.999 -2.44,-1.323 -3.85,-1.156c-1.379,0.164 -2.732,0.799 -3.623,1.689c-1.531,1.531 -2.001,3.724 -1.41,5.662Zm8.017,-5.89c-0.969,0.972 -3.949,3.948 -3.949,3.948c-0.075,0.075 -0.118,0.177 -0.118,0.283c0,0.106 0.042,0.208 0.117,0.283l2.126,2.126c0.075,0.075 0.177,0.117 0.283,0.117c0.106,0 0.208,-0.042 0.283,-0.117c0,-0 2.965,-2.972 3.942,-3.946c1.346,1.81 0.647,4.602 -0.788,6.038c-1.37,1.37 -3.357,1.75 -5.07,1.141c-0.146,-0.051 -0.308,-0.015 -0.417,0.094l-12.316,12.317c-0.283,0.284 -0.744,0.284 -1.028,0c-0,0 -2.657,-2.657 -2.657,-2.657c-0.284,-0.284 -0.284,-0.745 -0,-1.029c-0,0 12.315,-12.317 12.315,-12.317c0.109,-0.109 0.146,-0.271 0.094,-0.416c-0.609,-1.714 -0.228,-3.701 1.142,-5.071c0.774,-0.774 1.953,-1.318 3.151,-1.46c1.032,-0.123 2.084,0.052 2.89,0.666Z" style="fill:#ec1f27;"/><path d="M11.13,24.87c-0.45,-0.45 -1.179,-0.45 -1.629,-0c-0.449,0.449 -0.449,1.179 0,1.628c0.45,0.45 1.179,0.45 1.629,0c0.449,-0.449 0.449,-1.179 -0,-1.628Zm-0.566,0.565c0.137,0.138 0.137,0.36 0,0.498c-0.137,0.137 -0.36,0.137 -0.497,-0c-0.137,-0.138 -0.137,-0.36 0,-0.498c0.137,-0.137 0.36,-0.137 0.497,0Z" style="fill:#ec1f27;"/><path d="M18.224,17.023l0.752,0.752c0.156,0.156 0.409,0.156 0.565,-0c0.156,-0.157 0.157,-0.41 0,-0.566l-0.751,-0.752c-0.156,-0.156 -0.41,-0.156 -0.566,0c-0.156,0.156 -0.156,0.41 0,0.566Z" style="fill:#ec1f27;"/><path d="M19.727,15.52l0.752,0.751c0.156,0.156 0.409,0.156 0.565,0c0.157,-0.156 0.157,-0.409 0,-0.565l-0.751,-0.752c-0.156,-0.156 -0.41,-0.156 -0.566,0c-0.156,0.156 -0.156,0.41 0,0.566Z" style="fill:#ec1f27;"/></svg>