<?xml version="1.0" encoding="UTF-8" standalone="no"?><!DOCTYPE svg PUBLIC "-//W3C//DTD SVG 1.1//EN" "http://www.w3.org/Graphics/SVG/1.1/DTD/svg11.dtd"><svg width="100%" height="100%" viewBox="0 0 150 150" version="1.1" xmlns="http://www.w3.org/2000/svg" xmlns:xlink="http://www.w3.org/1999/xlink" xml:space="preserve" xmlns:serif="http://www.serif.com/" style="fill-rule:evenodd;clip-rule:evenodd;stroke-linecap:round;stroke-linejoin:round;stroke-miterlimit:1.5;"><rect id="x-ray" x="0" y="0" width="150" height="150" style="fill:none;"/><g><circle cx="75" cy="75" r="75" style="fill:#fff;"/></g><path d="M112.5,43.75c0,-10.348 -8.402,-18.75 -18.75,-18.75l-37.5,0c-10.348,0 -18.75,8.402 -18.75,18.75l0,62.5c0,10.348 8.402,18.75 18.75,18.75l37.5,0c10.348,0 18.75,-8.402 18.75,-18.75l0,-62.5Z" style="fill:none;stroke:#ec1f27;stroke-width:3.13px;"/><path d="M104.167,47.917c0,-8.049 -6.535,-14.584 -14.584,-14.584l-29.166,0c-8.049,0 -14.584,6.535 -14.584,14.584l0,54.166c0,8.049 6.535,14.584 14.584,14.584l29.166,0c8.049,0 14.584,-6.535 14.584,-14.584l0,-54.166Z" style="fill:none;stroke:#ec1f27;stroke-width:3.13px;"/><path d="M66.667,33.333l16.666,0l0,16.667c0,0 8.228,2.144 8.334,8.333c0.076,4.487 -4.532,8.151 -8.334,8.334c-2.86,0.137 -8.333,-4.167 -8.333,-4.167c0,0 -5.47,4.175 -8.333,4.167c-3.973,-0.012 -8.334,-2.484 -8.334,-8.334c0,-5.849 8.334,-8.333 8.334,-8.333l0,-16.667Z" style="fill:none;stroke:#ec1f27;stroke-width:3.13px;"/><path d="M83.334,116.667l-16.666,0l0,-16.667c0,0 -8.228,-2.144 -8.334,-8.333c-0.076,-4.487 4.532,-8.151 8.334,-8.334c2.86,-0.137 8.333,4.167 8.333,4.167c0,0 5.47,-4.175 8.333,-4.167c3.973,0.012 8.334,2.484 8.334,8.334c0,5.849 -8.334,8.333 -8.334,8.333l0,16.667Z" style="fill:none;stroke:#ec1f27;stroke-width:3.13px;"/><path d="M95.833,75l-4.166,0" style="fill:none;stroke:#ec1f27;stroke-width:3.13px;"/><path d="M95.833,83.333l-2.945,-2.946" style="fill:none;stroke:#ec1f27;stroke-width:3.13px;"/><path d="M95.833,66.667l-2.945,1.726" style="fill:none;stroke:#ec1f27;stroke-width:3.13px;"/><path d="M54.167,75l4.166,0" style="fill:none;stroke:#ec1f27;stroke-width:3.13px;"/><path d="M54.167,66.667l4.166,2.946" style="fill:none;stroke:#ec1f27;stroke-width:3.13px;"/><path d="M54.167,83.333l4.166,-2.946" style="fill:none;stroke:#ec1f27;stroke-width:3.13px;"/></svg>