<?xml version="1.0" encoding="UTF-8" standalone="no"?>
<!DOCTYPE svg PUBLIC "-//W3C//DTD SVG 1.1//EN" "http://www.w3.org/Graphics/SVG/1.1/DTD/svg11.dtd">
<svg width="100%" height="100%" viewBox="0 0 72 72" version="1.1" xmlns="http://www.w3.org/2000/svg" xmlns:xlink="http://www.w3.org/1999/xlink" xml:space="preserve" xmlns:serif="http://www.serif.com/" style="fill-rule:evenodd;clip-rule:evenodd;stroke-linecap:round;stroke-linejoin:round;stroke-miterlimit:1.5;">
    <g transform="matrix(1,0,0,1,-96,-1824)">
        <g id="broken-bank" transform="matrix(1,0,0,1,96,96)">
            <rect x="0" y="1728" width="72" height="72" style="fill:none;"/>
            <g transform="matrix(2,0,0,2,-192,1728)">
                <g id="bg-white">
                    <circle cx="114" cy="18" r="18" style="fill:white;"/>
                </g>
            </g>
            <g transform="matrix(1,0,0,1,-96,-96)">
                <path d="M118,1872C118,1872 114.527,1867.05 113,1866C111.473,1864.95 108.135,1864.79 108,1863C107.865,1861.21 108.601,1855.04 110,1854C111.399,1852.96 113.111,1853.63 115,1853C116.889,1852.37 118,1851 118,1851C118,1851 112.688,1844.42 114,1842C114,1842 120.608,1850.03 122,1848C123.392,1845.97 123.442,1846.24 126,1846C128.558,1845.76 140.426,1846.47 144,1850C147.574,1853.54 147.205,1857.18 148,1858C148.795,1858.82 153.759,1857.78 154,1856C154.241,1854.22 152.79,1853.01 152,1854C151.21,1855 151.353,1855.8 151.941,1857.74C152.529,1859.67 155,1860 155,1860C154.378,1860.66 148.198,1857.54 149,1854C149.55,1851.58 150.718,1850.89 152,1851C153.282,1851.11 155.536,1853.38 156,1855C156.865,1858.03 151.441,1861.22 150,1861C148.864,1860.83 147.454,1865.44 148,1867C148.546,1868.56 151.571,1873 151,1875C150.429,1877 149.694,1878.55 149,1879C148.306,1879.45 147.335,1880.4 147,1880C146.665,1879.6 145.905,1878.67 146,1878C146.095,1877.33 146,1877 146,1877L144,1872L145,1878C145,1878 145.454,1880.75 145,1881C144.546,1881.25 144.353,1881.99 142,1882C139.647,1882.01 139.447,1880.85 139,1880C138.553,1879.15 137,1875 137,1875C137,1875 134.865,1877.03 133,1877C131.135,1876.97 124,1877 124,1877C124,1877 122.649,1881 122,1881C121.351,1881 119.342,1882.14 118,1881C116.658,1879.86 117.103,1879.27 117,1878C116.897,1876.73 118,1872 118,1872Z" style="fill:none;stroke:rgb(255,0,0);stroke-width:1.6px;"/>
            </g>
            <g transform="matrix(1,0,0,1,-96,-96)">
                <path d="M129,1849C129,1849 138.048,1849.32 142,1852" style="fill:none;stroke:rgb(255,0,0);stroke-width:1.6px;"/>
            </g>
            <g transform="matrix(1,0,0,1,-96,-96)">
                <path d="M136,1850L138,1853L135,1856L129,1858L129,1863L131,1866L128,1869" style="fill:none;stroke:rgb(255,0,0);stroke-width:1.6px;"/>
            </g>
            <g transform="matrix(1,0,0,1,-96,-96)">
                <path d="M137,1855L139,1858L137,1860" style="fill:none;stroke:rgb(255,0,0);stroke-width:1.6px;"/>
            </g>
            <g transform="matrix(1,0,0,1,-96,-96)">
                <path d="M122,1847C122,1847 119.075,1844.79 117,1841C117,1841 122.5,1843.17 124,1844C124.824,1844.46 126,1846 126,1846" style="fill:none;stroke:rgb(255,0,0);stroke-width:1.6px;"/>
            </g>
            <g transform="matrix(1,0,0,1,-96,-96)">
                <path d="M125,1838L126,1838L129,1839C129,1839 128.752,1841.51 129,1842C129.248,1842.49 130,1844 130,1844L126,1842L125,1838Z" style="fill:none;stroke:rgb(255,0,0);stroke-width:1.6px;"/>
            </g>
            <g transform="matrix(1,0,0,1,-96,-96)">
                <path d="M131,1838L134,1839L132,1843L131,1838Z" style="fill:none;stroke:rgb(255,0,0);stroke-width:1.6px;"/>
            </g>
            <g transform="matrix(1,0,0,1,-96,-95)">
                <circle cx="119" cy="1856" r="2" style="fill:none;stroke:rgb(255,0,0);stroke-width:1.6px;"/>
            </g>
        </g>
    </g>
</svg>
