<?xml version="1.0" encoding="UTF-8" standalone="no"?><!DOCTYPE svg PUBLIC "-//W3C//DTD SVG 1.1//EN" "http://www.w3.org/Graphics/SVG/1.1/DTD/svg11.dtd"><svg width="100%" height="100%" viewBox="0 0 150 150" version="1.1" xmlns="http://www.w3.org/2000/svg" xmlns:xlink="http://www.w3.org/1999/xlink" xml:space="preserve" xmlns:serif="http://www.serif.com/" style="fill-rule:evenodd;clip-rule:evenodd;stroke-linecap:round;stroke-linejoin:round;stroke-miterlimit:1.5;"><rect id="calendar" x="0" y="0" width="150" height="150" style="fill:none;"/><circle id="bg-white" cx="75" cy="75" r="75" style="fill:#fff;"/><path d="M96.875,37.5l-18.75,0" style="fill:none;stroke:#808080;stroke-width:3.33px;"/><path d="M71.875,37.5l-18.75,0" style="fill:none;stroke:#808080;stroke-width:3.33px;"/><path d="M46.875,37.5l-10.442,0c-4.599,0 -8.333,3.734 -8.333,8.333l0,66.667c0,4.599 3.734,8.333 8.333,8.333l77.109,0c4.599,0 8.333,-3.734 8.333,-8.333l0,-66.667c0,-4.599 -3.734,-8.333 -8.333,-8.333l-10.417,0" style="fill:none;stroke:#808080;stroke-width:3.33px;"/><path d="M28.1,52.083l93.775,0" style="fill:none;stroke:#808080;stroke-width:3.33px;"/><path d="M37.5,66.667l10.417,0" style="fill:none;stroke:#808080;stroke-width:3.33px;"/><path d="M37.5,79.167l10.417,0" style="fill:none;stroke:#808080;stroke-width:3.33px;"/><path d="M37.5,91.667l10.417,0" style="fill:none;stroke:#808080;stroke-width:3.33px;"/><path d="M37.5,104.167l10.417,0" style="fill:none;stroke:#808080;stroke-width:3.33px;"/><path d="M58.333,66.667l10.417,0" style="fill:none;stroke:#808080;stroke-width:3.33px;"/><path d="M58.333,79.167l10.417,0" style="fill:none;stroke:#808080;stroke-width:3.33px;"/><path d="M58.333,91.667l10.417,0" style="fill:none;stroke:#808080;stroke-width:3.33px;"/><path d="M58.333,104.167l10.417,0" style="fill:none;stroke:#808080;stroke-width:3.33px;"/><path d="M79.167,66.667l10.416,0" style="fill:none;stroke:#808080;stroke-width:3.33px;"/><path d="M79.167,79.167l10.416,0" style="fill:none;stroke:#808080;stroke-width:3.33px;"/><path d="M79.167,104.167l10.416,0" style="fill:none;stroke:#808080;stroke-width:3.33px;"/><path d="M100,66.667l10.417,0" style="fill:none;stroke:#808080;stroke-width:3.33px;"/><path d="M100,79.167l10.417,0" style="fill:none;stroke:#808080;stroke-width:3.33px;"/><path d="M100,91.667l10.417,0" style="fill:none;stroke:#808080;stroke-width:3.33px;"/><path d="M100,104.167l10.417,0" style="fill:none;stroke:#808080;stroke-width:3.33px;"/><path d="M89.583,89.063c0,-1.438 -1.167,-2.605 -2.604,-2.605l-5.208,0c-1.437,0 -2.604,1.167 -2.604,2.605l0,5.208c0,1.437 1.167,2.604 2.604,2.604l5.208,0c1.437,0 2.604,-1.167 2.604,-2.604l0,-5.209l0,0.001Z" style="fill:none;stroke:#808080;stroke-width:3.33px;"/><path d="M53.125,30.729c0,-0.862 -0.7,-1.562 -1.563,-1.562l-3.124,0c-0.863,0 -1.563,0.7 -1.563,1.562l0,13.542c0,0.862 0.7,1.562 1.563,1.562l3.125,0c0.862,0 1.562,-0.7 1.562,-1.562l0,-13.542Z" style="fill:none;stroke:#808080;stroke-width:3.33px;"/><path d="M78.125,30.729c0,-0.862 -0.7,-1.562 -1.563,-1.562l-3.124,0c-0.863,0 -1.563,0.7 -1.563,1.562l0,13.542c0,0.862 0.7,1.562 1.563,1.562l3.124,0c0.863,0 1.563,-0.7 1.563,-1.562l0,-13.542Z" style="fill:none;stroke:#808080;stroke-width:3.33px;"/><path d="M103.125,30.729c0,-0.862 -0.7,-1.562 -1.563,-1.562l-3.124,0c-0.863,0 -1.563,0.7 -1.563,1.562l0,13.542c0,0.862 0.7,1.562 1.563,1.562l3.124,0c0.863,0 1.563,-0.7 1.563,-1.562l0,-13.542Z" style="fill:none;stroke:#808080;stroke-width:3.33px;"/></svg>